<svg width="36" height="36" viewBox="0 0 36 36" fill="none" xmlns="http://www.w3.org/2000/svg">
<path d="M25.19 20.4C25.4772 19.6326 25.6229 18.8194 25.62 18C25.62 16.1806 24.8973 14.4358 23.6108 13.1493C22.3243 11.8628 20.5794 11.14 18.76 11.14C17.9507 11.141 17.1481 11.2866 16.39 11.57L18 13.23C18.2447 13.1909 18.4922 13.1708 18.74 13.17C20.0264 13.1673 21.2617 13.6738 22.176 14.5787C23.0903 15.4837 23.6094 16.7136 23.62 18C23.6192 18.2479 23.5991 18.4953 23.56 18.74L25.19 20.4Z" fill="#283D93"/>
<path d="M34.29 17.53C30.92 11.3 25.01 7.53003 18.47 7.53003C16.6893 7.53421 14.9207 7.82112 13.23 8.38003L14.84 10C16.0258 9.69356 17.2452 9.53568 18.47 9.53003C24.1 9.53003 29.22 12.67 32.27 17.96C31.1512 19.9226 29.6679 21.6536 27.9 23.06L29.32 24.48C31.3661 22.8294 33.0654 20.7902 34.32 18.48L34.58 18L34.29 17.53Z" fill="#283D93"/>
<path d="M4.87 5.77998L9.33 10.24C6.51092 12.0551 4.2069 14.5657 2.64 17.53L2.38 18L2.64 18.48C6.01 24.71 11.92 28.48 18.46 28.48C21.0127 28.4795 23.5322 27.9017 25.83 26.79L30.83 31.79L32.58 30.29L6.58 4.28998L4.87 5.77998ZM14.62 15.53L21.27 22.18C20.5186 22.6451 19.6536 22.8942 18.77 22.9C18.1279 22.9 17.4922 22.773 16.8994 22.5264C16.3066 22.2798 15.7684 21.9184 15.3157 21.463C14.8631 21.0076 14.505 20.4672 14.2621 19.8729C14.0191 19.2785 13.896 18.642 13.9 18C13.9113 17.1265 14.1602 16.2727 14.62 15.53V15.53ZM13.17 14.08C12.2344 15.3994 11.7959 17.0073 11.9321 18.619C12.0683 20.2307 12.7704 21.7422 13.9141 22.8859C15.0578 24.0296 16.5693 24.7317 18.181 24.8679C19.7927 25.0041 21.4006 24.5655 22.72 23.63L24.32 25.23C22.4678 26.0217 20.4743 26.4299 18.46 26.43C12.83 26.43 7.71 23.29 4.66 18C6.1237 15.4082 8.23172 13.2382 10.78 11.7L13.17 14.08Z" fill="#283D93"/>
</svg>
