<svg width="281" height="151" viewBox="0 0 281 151" fill="none" xmlns="http://www.w3.org/2000/svg">
<path d="M193.621 116.674V149.818H208.847V138.376H204.601V136.09L208.847 136.168V132.43L210.771 132.434L210.737 130.501L208.494 130.445V116.619L193.621 116.674Z" fill="#E0E0E0"/>
<path d="M194.705 137.182C194.705 137.298 184.33 137.388 171.536 137.388C158.742 137.388 148.359 137.298 148.359 137.182C148.359 137.066 158.733 136.971 171.536 136.971C184.338 136.971 194.705 137.066 194.705 137.182Z" fill="#E0E0E0"/>
<path d="M194.705 135.274C194.705 135.386 184.33 135.48 171.536 135.48C158.742 135.48 148.359 135.386 148.359 135.274C148.359 135.162 158.733 135.063 171.536 135.063C184.338 135.063 194.705 135.158 194.705 135.274Z" fill="#E0E0E0"/>
<path d="M197.696 130.135C197.696 130.251 187.321 130.342 174.523 130.342C161.724 130.342 151.35 130.251 151.35 130.135C151.35 130.019 161.724 129.925 174.523 129.925C187.321 129.925 197.696 130.019 197.696 130.135Z" fill="#E0E0E0"/>
<path d="M197.968 144.133C197.968 144.249 187.593 144.344 174.795 144.344C161.997 144.344 151.622 144.249 151.622 144.133C151.622 144.017 161.992 143.91 174.795 143.91C187.597 143.91 197.968 144.022 197.968 144.133Z" fill="#E0E0E0"/>
<path d="M54.8008 60.2242L32.5177 57.3204L29.0659 85.0366L51.349 87.9403L54.8008 60.2242Z" fill="white"/>
<path d="M54.8018 60.2254L32.5187 57.3217L29.9501 77.9458L52.2332 80.8495L54.8018 60.2254Z" fill="#EBEBEB"/>
<path d="M43.7501 82.109C43.7501 82.1477 40.8561 81.8083 37.3027 81.3443C33.7492 80.8802 30.872 80.485 30.8762 80.4291C30.8804 80.3733 33.766 80.7299 37.3237 81.1896C40.8813 81.6493 43.7543 82.0661 43.7501 82.109Z" fill="#E0E0E0"/>
<path d="M36.2951 82.5771C36.2951 82.6158 35.035 82.4869 33.4893 82.2893C32.5527 82.1973 31.6217 82.0539 30.7003 81.8596C31.6399 81.9035 32.5766 81.9996 33.5061 82.1475C34.4426 82.2394 35.3736 82.3829 36.2951 82.5771Z" fill="#E0E0E0"/>
<path d="M51.3528 87.9392C51.3499 87.8948 51.3499 87.8503 51.3528 87.806C51.3528 87.7115 51.378 87.5826 51.3948 87.415C51.4368 87.0713 51.4956 86.5557 51.5754 85.9112C51.735 84.5965 51.9702 82.676 52.2642 80.2398C52.8607 75.3719 53.7133 68.4502 54.7214 60.2138L54.7802 60.2912L32.5186 57.3953L32.6068 57.3266C31.3467 67.578 30.1329 77.0905 29.1416 85.0433L29.087 84.9703L45.2413 87.1185L49.7566 87.7244L50.9495 87.8876L51.3696 87.9478L50.9495 87.9005L49.7692 87.7544L45.2665 87.1959L29.0618 85.1164H28.9988V85.0519C29.9816 77.1206 31.1661 67.5823 32.4388 57.3352V57.2578H32.5144L54.776 60.1709H54.8432V60.2396C53.8015 68.4932 52.9279 75.4278 52.323 80.3C52.0164 82.7275 51.7686 84.6395 51.6048 85.9542C51.5208 86.603 51.4536 87.1014 51.4116 87.4408L51.357 87.8232C51.3612 87.8962 51.3528 87.9392 51.3528 87.9392Z" fill="#E0E0E0"/>
<path d="M22.3436 46.9858L0.0619507 49.9014L3.52793 77.6157L25.8095 74.7001L22.3436 46.9858Z" fill="#F5F5F5"/>
<path d="M22.3465 46.9825L0.0648804 49.8982L2.64398 70.5209L24.9256 67.6052L22.3465 46.9825Z" fill="#E0E0E0"/>
<path d="M17.0236 71.0068C17.0236 71.0455 14.1506 71.458 10.5972 71.9263C7.04374 72.3946 4.15814 72.734 4.15394 72.6911C4.14973 72.6481 7.02274 72.2356 10.5804 71.7716C14.138 71.3076 17.0194 70.9639 17.0236 71.0068Z" fill="#E0E0E0"/>
<path d="M9.9421 73.3741C9.02217 73.5691 8.09252 73.7125 7.1573 73.8037C6.2278 73.9515 5.29116 74.0476 4.3515 74.0916C5.27194 73.8996 6.20144 73.7562 7.1363 73.662C8.0658 73.5142 9.00244 73.4181 9.9421 73.3741Z" fill="#E0E0E0"/>
<path d="M25.815 74.6975C25.815 74.6975 25.815 74.6502 25.794 74.5643C25.773 74.4784 25.7646 74.3452 25.7394 74.1733C25.6974 73.8296 25.6302 73.314 25.5462 72.6738C25.3782 71.3591 25.1262 69.4386 24.8196 67.0067L22.2994 46.9893L22.375 47.0495L0.113407 49.9754L0.180611 49.8895C1.4407 60.1366 2.64619 69.6534 3.63746 77.6062L3.56605 77.5504L19.6868 75.4666L24.2231 74.8908L25.416 74.7447L25.836 74.6975L25.416 74.7576L24.2357 74.9166L19.7372 75.5224L3.54505 77.6707H3.48204V77.6062C2.48237 69.6749 1.28529 60.1409 0 49.8938V49.8164H0.0756039L22.3372 46.9077H22.4044V46.9764C23.4251 55.2343 24.2819 62.1689 24.8826 67.0454C25.1766 69.4729 25.4118 71.3892 25.5714 72.7039C25.6512 73.3527 25.71 73.8511 25.752 74.1948C25.752 74.3581 25.7856 74.4827 25.794 74.5729L25.815 74.6975Z" fill="#E0E0E0"/>
<path d="M43.0408 43.6068L21.1765 38.3364L14.9114 65.5317L36.7757 70.8021L43.0408 43.6068Z" fill="white"/>
<path d="M43.0408 43.6035L21.1765 38.3331L16.5145 58.5696L38.3788 63.84L43.0408 43.6035Z" fill="#EBEBEB"/>
<path d="M29.8141 64.1882C29.8141 64.2268 26.9705 63.5824 23.4842 62.7402C19.998 61.8981 17.1838 61.1849 17.1838 61.1419C17.1838 61.099 20.0316 61.7478 23.5178 62.5899C27.0041 63.432 29.8267 64.1452 29.8141 64.1882Z" fill="#E0E0E0"/>
<path d="M22.3543 63.8573C21.4282 63.7086 20.5099 63.5122 19.6031 63.2687C18.6824 63.0733 17.7725 62.8281 16.8771 62.534C17.8042 62.683 18.7227 62.8838 19.6283 63.1355C20.5491 63.3254 21.4591 63.5663 22.3543 63.8573Z" fill="#E0E0E0"/>
<path d="M257.882 58.7755L234.756 67.8275L245.518 96.5948L268.643 87.5429L257.882 58.7755Z" fill="white"/>
<path d="M257.879 58.7763L234.753 67.8282L242.762 89.2362L265.887 80.1843L257.879 58.7763Z" fill="#EBEBEB"/>
<path d="M258.289 85.9071C258.289 85.9544 255.348 87.1574 251.64 88.6053C247.931 90.0532 244.944 91.1832 244.919 91.1403C244.894 91.0973 247.859 89.89 251.568 88.442C255.277 86.9941 258.272 85.8727 258.289 85.9071Z" fill="#E0E0E0"/>
<path d="M251.283 90.3454C249.389 91.2083 247.451 91.967 245.478 92.6183C246.414 92.1608 247.373 91.7549 248.351 91.4024C249.31 90.9978 250.288 90.645 251.283 90.3454Z" fill="#E0E0E0"/>
<path d="M268.642 87.5312C268.642 87.5312 268.642 87.484 268.588 87.3937L268.432 86.9942C268.298 86.6376 268.1 86.1349 267.84 85.4345C267.327 84.0725 266.58 82.0833 265.622 79.5612C246.809 67.7029 249.703 62.7748 257.81 58.7919L257.906 58.8349L234.805 67.8962L234.855 67.7888C238.828 78.4269 242.529 88.3218 245.603 96.5754L245.515 96.5367L262.316 90.006C264.337 89.2198 265.925 88.6054 267.012 88.1886L268.251 87.7117L268.672 87.5484L268.251 87.7203L267 88.1886L262.333 90.0361L245.532 96.6527L245.465 96.6785L245.44 96.6098L234.679 67.8618L234.649 67.7802L234.725 67.7501L257.852 58.7275L257.919 58.7017L257.944 58.7704C261.136 67.3634 263.824 74.5472 265.702 79.6128C266.639 82.1348 267.382 84.1241 267.882 85.4861L268.449 87.0371L268.596 87.4324L268.642 87.5312Z" fill="#E0E0E0"/>
<path d="M274.334 150.269C274.334 150.329 213.501 150.381 138.479 150.381C63.4578 150.381 2.60809 150.329 2.60809 150.269C2.60809 150.209 63.4284 150.157 138.479 150.157C213.53 150.157 274.334 150.205 274.334 150.269Z" fill="#263238"/>
<path d="M139.87 86.4399L149.913 75.0284L157.822 74.3925L159.023 83.1445L152.626 86.0704L145.641 93.5936L141.403 94.5818L139.87 86.4399Z" fill="#EFBE9D"/>
<path d="M158.49 29.4857L142.746 105.51L229.506 124.309L245.249 48.2847L158.49 29.4857Z" fill="white"/>
<path d="M229.497 124.297L245.147 48.2484L245.218 48.3601L158.461 29.5844L158.591 29.4985C152.875 57.082 147.49 83.0802 142.84 105.521L142.765 105.405L229.501 124.309L142.723 105.615H142.63V105.517C147.276 83.0759 152.652 57.0777 158.36 29.4942L158.381 29.3825H158.486L245.256 48.184H245.349L245.328 48.2785C235.797 94.0707 229.66 123.523 229.497 124.297Z" fill="#263238"/>
<path d="M110.939 86.1134L116.63 104.769L135.586 87.5828L142.727 93.817C142.727 93.817 126.639 119.974 118.835 124.898C110.178 130.363 99.8793 123.179 98.5772 117.908C97.2751 112.636 90.4202 89.0007 90.4202 89.0007L110.939 86.1134Z" fill="#EFBE9D"/>
<path d="M117.079 104.442C117.1 104.481 116.579 104.777 115.849 105.396C115.422 105.763 115.023 106.162 114.656 106.591C113.757 107.64 113.066 108.856 112.619 110.174C112.437 110.712 112.297 111.264 112.199 111.824C112.031 112.782 112.035 113.392 111.993 113.392C111.965 113.251 111.955 113.106 111.963 112.962C111.952 112.795 111.952 112.627 111.963 112.46C111.963 112.266 111.984 112.03 112.026 111.798C112.107 111.225 112.237 110.66 112.413 110.109C112.85 108.756 113.558 107.511 114.492 106.453C114.877 106.024 115.299 105.63 115.752 105.276C115.937 105.117 116.126 105.001 116.281 104.889C116.417 104.794 116.557 104.707 116.701 104.627C116.818 104.548 116.946 104.486 117.079 104.442Z" fill="#E7996E"/>
<path d="M96.6911 104.627L116.63 99.1234C116.63 99.1234 112.354 86.1866 109.027 76.8374C106.087 68.5924 101.16 65.1595 98.598 63.2948C97.5633 62.5353 96.3616 62.0483 95.0991 61.877C90.3822 61.2325 77.4789 59.4967 71.0776 58.9511C63.1601 58.2765 46.6235 62.7363 46.6235 62.7363C46.6235 62.7363 32.1241 70.9598 27.2349 74.3068C26.036 75.1178 25.1197 76.2973 24.6182 77.6752C23.7151 80.1629 22.5642 84.4379 21.1865 89.9675C20.3087 93.4821 17.4062 105.117 17.4062 105.117L34.4133 104.58C37.8407 115.227 41.0161 124.774 41.0161 124.774L39.6384 150.278H102.71C102.71 150.278 96.8885 110.827 96.8885 109.912C96.8885 109.577 96.8087 107.321 96.6911 104.627Z" fill="#6A5CF7"/>
<g opacity="0.3">
<path opacity="0.3" d="M77.0752 83.9221C75.8151 82.2938 73.6478 81.6278 71.64 81.834C69.6323 82.0403 67.7673 83.0113 66.0956 84.1713C60.9377 87.7503 57.275 93.1467 54.0408 98.5904C48.3954 108.081 43.6526 118.103 39.8774 128.52L40.0076 131.184C44.2373 130.638 46.9927 126.99 48.8282 123.059C50.6637 119.128 51.4534 114.762 53.0705 110.732C56.2238 102.99 62.24 96.8363 69.8087 93.6108C72.3289 93.8771 75.0339 93.0479 76.6804 91.0801C78.3269 89.1123 78.6419 85.9544 77.0752 83.9221Z" fill="black"/>
</g>
<path d="M96.889 108.004C96.7924 108.004 96.2295 102.363 95.6289 95.3895C95.0282 88.4163 94.6166 82.7492 94.709 82.7406C94.8014 82.732 95.3685 88.3776 95.9691 95.3594C96.5697 102.341 96.9772 107.995 96.889 108.004Z" fill="#263238"/>
<path d="M29.8857 82.7406C29.9995 83.017 30.084 83.3051 30.1378 83.5999C30.2848 84.2358 30.4738 85.0478 30.6964 86.0188C31.1542 88.064 31.7633 90.8911 32.4143 94.0232C33.0654 97.1554 33.6408 99.9911 34.0398 102.049C34.2204 103.029 34.3717 103.849 34.4935 104.49C34.5627 104.787 34.6021 105.091 34.6111 105.396C34.5025 105.118 34.4196 104.83 34.3633 104.537C34.2162 103.901 34.0272 103.089 33.8046 102.118C33.3468 100.073 32.7377 97.2456 32.0825 94.1134C31.4272 90.9813 30.8602 88.1456 30.4612 86.0876C30.2806 85.108 30.1252 84.2873 30.0075 83.6429C29.9386 83.3468 29.8979 83.0447 29.8857 82.7406Z" fill="#263238"/>
<path d="M93.8435 62.1217C93.9443 62.1475 93.3688 64.4117 92.974 67.2775C92.5792 70.1432 92.4952 72.4591 92.3944 72.4333C92.3061 71.9273 92.2835 71.4115 92.3272 70.8994C92.3606 69.6626 92.4644 68.4289 92.638 67.2044C92.8077 65.9777 93.049 64.7625 93.3604 63.5653C93.4605 63.0649 93.6228 62.5798 93.8435 62.1217Z" fill="#263238"/>
<path d="M66.6463 73.9586L72.3839 62.1218L70.6029 56.966C70.6029 56.966 79.2093 52.3945 76.2691 43.0668C74.8494 38.564 71.1868 29.5328 67.7803 21.3995C66.013 17.1808 62.7578 13.7974 58.6623 11.9225C54.5668 10.0476 49.9314 9.81864 45.6784 11.2812L44.8047 11.5777C35.5431 15.393 33.5353 25.5671 37.5172 34.9335L49.1646 69.7352L66.6463 73.9586Z" fill="#EFBE9D"/>
<path d="M70.6037 56.9315C70.6037 56.9315 65.0215 59.3848 57.6332 57.5631C57.6332 57.5631 62.6315 63.286 71.4144 59.3333L70.6037 56.9315Z" fill="#E7996E"/>
<path d="M68.2636 30.5768C68.3796 30.9218 68.3599 31.2994 68.2086 31.6297C68.0573 31.9601 67.7863 32.2173 67.453 32.347C67.2924 32.417 67.1198 32.4535 66.9453 32.4543C66.7708 32.4552 66.5978 32.4204 66.4366 32.352C66.2754 32.2835 66.1292 32.1828 66.0066 32.0558C65.8839 31.9288 65.7873 31.778 65.7224 31.6123C65.6051 31.2679 65.6237 30.8903 65.7743 30.5597C65.9249 30.2291 66.1956 29.9717 66.5289 29.8421C66.6897 29.7714 66.8627 29.7344 67.0376 29.7332C67.2126 29.732 67.3861 29.7666 67.5478 29.8351C67.7095 29.9036 67.8561 30.0045 67.9791 30.1319C68.102 30.2593 68.1988 30.4105 68.2636 30.5768Z" fill="#263238"/>
<path d="M67.285 26.0569C67.1842 26.2846 65.9535 25.8764 64.559 26.3619C63.1645 26.8474 62.379 27.9087 62.169 27.7884C62.0682 27.7368 62.1312 27.3587 62.4672 26.8818C62.9312 26.2465 63.575 25.7726 64.3112 25.5241C65.036 25.2741 65.8197 25.2651 66.5499 25.4983C67.0917 25.6874 67.3396 25.9495 67.285 26.0569Z" fill="#263238"/>
<path d="M56.1462 34.2933C56.2632 34.6377 56.2439 35.0151 56.0924 35.3451C55.9409 35.675 55.6693 35.9313 55.3356 36.0592C55.1751 36.1298 55.0024 36.1668 54.8277 36.1679C54.653 36.1691 54.4799 36.1344 54.3186 36.0659C54.1572 35.9974 54.0109 35.8965 53.8884 35.7691C53.7658 35.6418 53.6695 35.4906 53.6051 35.3245C53.4891 34.9795 53.5088 34.6019 53.6601 34.2716C53.8114 33.9412 54.0824 33.684 54.4157 33.5543C54.5765 33.4844 54.7494 33.4481 54.9241 33.4475C55.0988 33.447 55.2719 33.4822 55.4331 33.551C55.5944 33.6199 55.7405 33.721 55.863 33.8485C55.9855 33.976 56.0818 34.1272 56.1462 34.2933Z" fill="#263238"/>
<path d="M53.731 30.2846C53.6512 30.5209 52.3869 30.2545 51.0512 30.8904C49.7155 31.5263 49.0476 32.6734 48.8292 32.5746C48.7242 32.5316 48.741 32.145 49.0266 31.6423C49.418 30.9603 50.0044 30.4174 50.7068 30.0869C51.4021 29.7581 52.1811 29.6618 52.9329 29.812C53.4958 29.9409 53.773 30.1729 53.731 30.2846Z" fill="#263238"/>
<path d="M62.2235 40.4201C62.1941 40.3385 63.009 39.8874 64.3531 39.2214C64.6975 39.0581 65.0125 38.8734 64.9915 38.6027C64.8968 38.2148 64.6887 37.8656 64.3951 37.6016L62.4461 35.2085C59.6865 31.7713 57.557 28.8754 57.6956 28.7637C57.8342 28.652 60.1822 31.3416 62.9418 34.8046C63.618 35.6639 64.2607 36.4716 64.8697 37.2493C65.1427 37.6188 65.5292 38.0098 65.525 38.6156C65.5147 38.7628 65.4715 38.9056 65.3987 39.033C65.3258 39.1604 65.2253 39.269 65.1049 39.3503C64.9243 39.4729 64.7296 39.5725 64.5253 39.6467C63.1308 40.1881 62.2571 40.4975 62.2235 40.4201Z" fill="#263238"/>
<path d="M51.8362 25.3266C51.8362 25.7562 50.3703 26.057 48.7994 26.8217C47.2285 27.5865 46.0524 28.4974 45.7248 28.2224C45.5694 28.0892 45.6828 27.6467 46.0902 27.0881C46.6516 26.3822 47.3629 25.8165 48.1701 25.4338C48.9772 25.0512 49.8589 24.8617 50.7484 24.8797C51.4288 24.8969 51.832 25.1031 51.8362 25.3266Z" fill="#263238"/>
<path d="M65.622 22.2158C65.4834 22.6454 64.4123 22.6196 63.253 23.002C62.0938 23.3844 61.1865 23.9515 60.8505 23.6895C60.6993 23.5606 60.7455 23.1825 61.0731 22.727C61.5272 22.1627 62.1347 21.7488 62.8189 21.5377C63.503 21.3267 64.2329 21.3279 64.9164 21.5412C65.4372 21.7302 65.6808 22.0181 65.622 22.2158Z" fill="#263238"/>
<path d="M40.5076 41.5415C40.3312 41.5415 33.6486 41.7993 35.9335 48.0808C38.2185 54.3622 43.9141 50.7188 43.8595 50.5341C43.8049 50.3493 40.5076 41.5415 40.5076 41.5415Z" fill="#EFBE9D"/>
<path d="M41.1174 48.8714C41.0838 48.8714 41.0376 48.9874 40.8906 49.1421C40.6772 49.3508 40.3919 49.465 40.0967 49.46C39.3575 49.46 38.4166 48.6007 37.9966 47.5008C37.7829 46.9675 37.6896 46.3918 37.7236 45.8166C37.7111 45.5984 37.75 45.3804 37.837 45.1807C37.9239 44.9811 38.0565 44.8058 38.2234 44.6694C38.3343 44.5903 38.4687 44.553 38.6035 44.564C38.7384 44.575 38.8653 44.6335 38.9626 44.7295C39.1096 44.8756 39.1181 45.0174 39.1559 45.0131C39.1937 45.0088 39.2483 44.8584 39.1054 44.6178C39.0144 44.475 38.8779 44.3687 38.719 44.3171C38.6118 44.2827 38.4989 44.2708 38.3871 44.2818C38.2753 44.2929 38.1668 44.3268 38.068 44.3815C37.834 44.5286 37.6409 44.7346 37.5071 44.9798C37.3732 45.2251 37.3031 45.5013 37.3035 45.7822C37.2427 46.4253 37.3349 47.0739 37.5723 47.6726C38.0722 48.9229 39.1348 49.8682 40.1177 49.7908C40.3008 49.7782 40.4786 49.7234 40.6379 49.6303C40.7973 49.5373 40.9339 49.4086 41.0376 49.2538C41.1636 49.0261 41.1426 48.8714 41.1174 48.8714Z" fill="#E7996E"/>
<path d="M58.4439 42.8177C58.6665 42.7274 59.1789 44.2742 60.838 44.9272C62.4972 45.5803 64.0513 44.8585 64.1353 45.069C64.1857 45.1592 63.8749 45.4987 63.1986 45.7479C62.3147 46.0659 61.3496 46.0552 60.4726 45.7178C59.6323 45.392 58.9485 44.745 58.5657 43.9133C58.2927 43.286 58.3389 42.8434 58.4439 42.8177Z" fill="#263238"/>
<path d="M70.0068 7.63779C69.7267 7.06354 69.3113 6.56963 68.798 6.2006C68.2847 5.83156 67.6897 5.59901 67.0666 5.52391C66.9463 5.1716 66.793 4.83203 66.6088 4.50994C65.4831 2.55932 62.9461 1.50238 60.888 2.36168C60.4497 1.60656 59.8182 0.988111 59.0616 0.573014C58.3051 0.157917 57.4521 -0.0380895 56.5946 0.00611839C55.7372 0.0503262 54.9078 0.333074 54.1959 0.823884C53.4839 1.31469 52.9164 1.99495 52.5546 2.79133C51.5502 2.37826 50.4507 2.27002 49.3876 2.47957C48.3246 2.68911 47.3432 3.20757 46.5608 3.97287C46.3598 4.15659 46.2141 4.39502 46.1407 4.66031C46.1233 4.74949 46.1232 4.84131 46.1405 4.93052C46.1578 5.01973 46.1922 5.10457 46.2415 5.18019C45.8 4.80879 45.2771 4.55227 44.7175 4.43256C44.158 4.31284 43.5784 4.33349 43.0283 4.49275C42.6555 4.60779 42.3057 4.78963 41.995 5.02981C41.0401 5.45527 40.2862 6.24652 39.8949 7.23392C38.5037 7.25353 37.168 7.79447 36.1407 8.75422C35.1134 9.71398 34.466 11.0259 34.3211 12.4413C33.3283 12.865 32.4816 13.5818 31.889 14.5002C31.2965 15.4185 30.985 16.4968 30.9945 17.5971C30.3576 17.877 29.8041 18.3236 29.3895 18.8917C28.9748 19.4599 28.7137 20.1298 28.6324 20.8339C28.5511 21.538 28.6525 22.2516 28.9263 22.903C29.2001 23.5544 29.6367 24.1205 30.1922 24.5445C30.1922 24.5445 26.1767 27.0494 28.6087 30.6327C29.8688 32.463 32.389 31.1955 32.389 31.1955L39.9495 42.8777C39.9159 42.9594 41.2474 44.1667 41.89 43.5909C42.5327 43.0152 42.7007 42.0743 42.8981 41.2236C43.1291 40.2483 43.4568 39.2687 43.3769 38.2676C43.2971 37.2665 42.6755 36.2181 41.6968 36.0635C42.6503 35.3331 42.9569 33.9754 42.8015 32.7681C42.6461 31.5607 42.0497 30.4651 41.4784 29.3953L38.9582 24.6691C40.0731 24.2378 41.0516 23.5031 41.7881 22.5445C42.5246 21.5859 42.9912 20.4398 43.1375 19.2298C45.1621 19.943 47.636 18.3447 47.8671 16.1621C48.6376 17.1503 49.7462 17.8025 50.9688 17.9867C52.1913 18.1709 53.4367 17.8735 54.4531 17.1545C54.6379 18.5552 57.3471 18.9849 58.7248 18.8946C60.1025 18.8044 61.3878 17.3522 61.3878 17.3522C62.3144 17.5481 63.2682 17.5685 64.202 17.4123L64.3406 17.3737C66.151 16.944 67.3312 14.7313 67.6631 12.8623C68.1297 12.7529 68.5688 12.5451 68.9526 12.2522C69.6038 11.7117 70.0608 10.9649 70.2517 10.1296C70.4425 9.29418 70.3564 8.4176 70.0068 7.63779Z" fill="#263238"/>
<path d="M60.1441 4.2179C60.2351 4.27533 60.3184 4.34467 60.3919 4.42413C60.6112 4.64344 60.7968 4.8955 60.9422 5.17172C61.178 5.60774 61.3291 6.08627 61.3874 6.58097C61.4665 7.24038 61.3827 7.90954 61.1438 8.52729C60.8355 9.27372 60.277 9.88313 59.5687 10.2459C58.7517 10.6644 57.8189 10.7827 56.9267 10.581C56.4444 10.4732 55.9903 10.2608 55.5952 9.95803C55.3843 9.80535 55.201 9.61636 55.0533 9.39948C54.892 9.17332 54.7959 8.90537 54.7761 8.62611C54.7716 8.47936 54.7977 8.3333 54.8527 8.19771C54.9078 8.06211 54.9905 7.94011 55.0954 7.83985C55.3075 7.64838 55.5681 7.52182 55.8472 7.47465C56.1256 7.41894 56.4126 7.42774 56.6873 7.50042C56.9619 7.56118 57.2236 7.67178 57.4601 7.82696C57.92 8.12803 58.2922 8.55021 58.5376 9.04917C58.783 9.54813 58.8925 10.1055 58.8546 10.6627C58.8019 11.1743 58.6499 11.67 58.4076 12.1207C58.1653 12.5715 57.8374 12.9683 57.4433 13.2878C56.7361 13.8694 55.8831 14.2357 54.9819 14.3448C54.2074 14.4404 53.4227 14.4056 52.6592 14.2416C51.566 13.9886 50.5078 13.5975 49.509 13.0773C49.1519 12.9011 48.8831 12.7551 48.6983 12.6476C48.6028 12.6004 48.5103 12.5473 48.4211 12.4887C48.523 12.518 48.6215 12.5583 48.7151 12.609L49.5552 12.9914C50.5587 13.4746 51.6128 13.8393 52.697 14.0784C53.4443 14.2271 54.2102 14.2518 54.9651 14.1514C55.8299 14.0419 56.6468 13.6844 57.3215 13.1203C57.6922 12.8162 58.0006 12.4404 58.2291 12.0142C58.4576 11.5881 58.6016 11.12 58.653 10.6369C58.6855 10.1196 58.5819 9.60277 58.3529 9.14032C58.1239 8.67787 57.7779 8.28666 57.3509 8.00742C57.1371 7.86488 56.8993 7.76435 56.6495 7.71096C56.4065 7.64679 56.1527 7.63799 55.906 7.68518C55.6687 7.72391 55.4472 7.83125 55.2676 7.99453C55.1833 8.07226 55.1167 8.16793 55.0724 8.27482C55.0281 8.38171 55.0073 8.49722 55.0113 8.61322C55.0446 8.84951 55.127 9.07575 55.2531 9.27663C55.3792 9.47751 55.546 9.64834 55.7422 9.77757C56.1154 10.066 56.5453 10.2683 57.0023 10.3705C57.8511 10.5702 58.7414 10.464 59.5225 10.0697C60.2007 9.72738 60.737 9.14832 61.0346 8.43707C61.2428 7.91635 61.3386 7.35576 61.3154 6.79366C61.2922 6.23156 61.1506 5.68123 60.9002 5.18031C60.6985 4.8213 60.4435 4.4966 60.1441 4.2179Z" fill="#455A64"/>
<path d="M19.4688 105.031C19.4688 105.031 15.487 119.777 14.6091 123.377C13.7312 126.978 13.7228 135.343 15.718 137.818C17.7131 140.292 24.2992 141.869 24.2992 141.869C24.2992 141.869 37.2235 135.424 41.6254 127.536C46.0273 119.648 58.057 98.2339 58.057 98.2339L54.2473 87.5356L34.2077 107.106L34.4177 104.558L19.4688 105.031Z" fill="#EFBE9D"/>
<path d="M61.321 53.7951C61.486 53.7087 61.6662 53.6566 61.851 53.6418C62.0358 53.627 62.2217 53.6498 62.3978 53.7089C62.574 53.7681 62.7369 53.8623 62.8772 53.9863C63.0176 54.1102 63.1325 54.2613 63.2153 54.431L74.7494 77.9243L71.8091 79.2691L60.691 55.7027C60.5313 55.3636 60.5078 54.9741 60.6256 54.6175C60.7434 54.2609 60.993 53.9657 61.321 53.7951Z" fill="#455A64"/>
<path d="M53.6257 88.2101L64.4079 76.8373H74.7406L81.3477 85.774C81.3477 85.774 78.2101 86.3713 77.0886 84.6484L75.6269 82.5216C75.6269 82.5216 77.0886 85.7955 76.3031 87.4067C76.3031 87.4067 74.7532 91.1404 74.5054 91.5399C74.035 92.2918 73.6653 92.773 72.3297 92.5453C70.994 92.3176 68.8896 91.1962 69.1122 90.3971C69.1823 90.1636 69.3138 89.9544 69.4924 89.7922C69.6709 89.63 69.8896 89.5212 70.1245 89.4776L66.9785 89.0179C66.9785 89.0179 63.8115 94.8869 61.9045 96.2661C60.7245 97.1095 59.4314 97.7737 58.0654 98.2382L53.6257 88.2101Z" fill="#EFBE9D"/>
<path d="M34.6108 106.762C34.636 106.818 33.7413 107.244 32.3678 108.051C30.5858 109.12 28.9103 110.365 27.3653 111.768C25.8208 113.18 24.4141 114.743 23.165 116.434C22.2115 117.723 21.6991 118.582 21.6487 118.582C21.7251 118.358 21.8281 118.145 21.9553 117.946C22.2655 117.383 22.6048 116.836 22.9718 116.309C25.3678 112.795 28.5317 109.899 32.2124 107.854C32.9181 107.471 33.5061 107.184 33.9177 106.994C34.1379 106.887 34.3709 106.809 34.6108 106.762Z" fill="#E7996E"/>
<path d="M66.7559 80.1414C67.2501 79.996 67.7588 79.9081 68.2722 79.8793C69.2089 79.759 70.511 79.6215 71.9475 79.4926C72.3102 79.4475 72.6769 79.4475 73.0396 79.4926C73.3872 79.5485 73.7177 79.6852 74.0056 79.8922C74.4765 80.24 74.8537 80.7041 75.1019 81.2413C75.3493 81.7091 75.5129 82.2184 75.5849 82.7451C75.5303 82.7665 75.3329 82.1908 74.8877 81.3573C74.6322 80.8793 74.2712 80.4688 73.8334 80.1586C73.5804 79.9876 73.2935 79.8761 72.9934 79.832C72.657 79.7936 72.3175 79.7936 71.9811 79.832C70.5446 79.9609 69.2425 80.0597 68.2974 80.1156C67.7862 80.1831 67.2691 80.1918 66.7559 80.1414Z" fill="#E7996E"/>
<path d="M74.9887 90.9685C74.9299 90.9685 75.0307 90.1651 74.9635 88.8847C74.9224 88.1373 74.8227 87.3945 74.6652 86.6634C74.4888 85.86 74.2452 84.8975 73.4472 84.4292C73.0512 84.2143 72.6267 84.0594 72.1871 83.9695L70.927 83.673C70.2093 83.5052 69.4808 83.3903 68.747 83.3293C68.0718 83.3076 67.3958 83.3249 66.7225 83.3809C66.8866 83.2897 67.0662 83.2314 67.2517 83.209C67.7482 83.1098 68.254 83.068 68.7596 83.0844C69.5064 83.1111 70.2496 83.2017 70.9816 83.3551C71.4016 83.4367 71.8216 83.5312 72.2669 83.6344C72.7459 83.7242 73.208 83.891 73.6362 84.1285C74.0678 84.3978 74.4058 84.7991 74.6022 85.2756C74.778 85.6991 74.9062 86.1416 74.9845 86.5947C75.1307 87.3447 75.208 88.1071 75.2155 88.8718C75.2214 89.3861 75.1905 89.9002 75.1231 90.41C75.1098 90.6026 75.0644 90.7916 74.9887 90.9685Z" fill="#E7996E"/>
<path d="M71.2671 87.149C71.3553 87.149 71.4225 88.0685 71.4309 89.2672V89.4734L71.2209 89.4347C71.1074 89.412 70.9921 89.4005 70.8764 89.4004C70.3372 89.4196 69.8258 89.6503 69.4483 90.0449C69.1585 90.3542 69.0661 90.6249 69.0283 90.6077C68.9905 90.5905 69.0031 90.2855 69.2803 89.8859C69.4699 89.6311 69.7136 89.4236 69.993 89.2792C70.2724 89.1348 70.5802 89.0573 70.8932 89.0524C71.0345 89.0527 71.1753 89.0686 71.3133 89.0996L71.1075 89.2672C71.0907 88.0556 71.1621 87.149 71.2671 87.149Z" fill="#E7996E"/>
<path d="M71.2668 87.5012C71.2668 87.6 70.3176 87.4582 69.1667 87.398C68.0158 87.3379 67.0665 87.3723 67.0665 87.2734C67.0665 87.1746 67.9948 86.9856 69.1667 87.05C70.3386 87.1145 71.2668 87.4109 71.2668 87.5012Z" fill="#E7996E"/>
<path d="M67.2388 86.9512C67.327 86.9512 67.2388 87.9952 66.7726 89.1639C66.3064 90.3325 65.6259 91.1102 65.5545 91.0543C65.4831 90.9985 65.9997 90.1521 66.4576 89.0264C66.9154 87.9007 67.138 86.934 67.2388 86.9512Z" fill="#E7996E"/>
<path d="M134.922 88.2015C134.922 88.2015 142.029 78.7492 142.806 78.3195C143.583 77.8899 153.479 76.4291 153.479 76.4291C153.479 76.4291 153.059 79.6257 150.198 80.5666C148.174 81.2326 145.801 81.7524 145.801 81.7524C145.801 81.7524 146.59 87.948 145.133 90.4314C143.93 92.3289 142.567 94.1145 141.059 95.7676L134.922 88.2015Z" fill="#EFBE9D"/>
<line y1="-1.5" x2="59.6252" y2="-1.5" transform="matrix(-0.219453 0.975623 0.973403 0.229099 200.185 49.285)" stroke="black" stroke-width="3"/>
<path d="M171.751 62.1548L160.201 83.7762H183.301L171.751 62.1548Z" fill="#7EABFF"/>
<path d="M215.535 69.8768L203.985 91.4981H227.085L215.535 69.8768Z" fill="#7EABFF"/>
<path d="M143.798 91.8708C144.433 91.1046 144.934 90.2326 145.281 89.2929C145.621 88.2564 145.816 87.1758 145.86 86.0834C145.894 85.438 145.894 84.7911 145.86 84.1457C145.834 83.8078 145.786 83.4719 145.718 83.1403C145.632 82.7785 145.621 82.4026 145.684 82.0361C145.723 81.9397 145.78 81.8521 145.852 81.7783C145.924 81.7046 146.01 81.6462 146.104 81.6064C146.264 81.5264 146.432 81.4617 146.604 81.4131C146.931 81.3193 147.264 81.2433 147.599 81.1854C148.221 81.0851 148.836 80.9415 149.439 80.7557C150.467 80.4681 151.403 79.9079 152.152 79.1317C152.634 78.5871 153 77.9463 153.228 77.2498C153.396 76.7557 153.45 76.4678 153.471 76.4721C153.474 76.5432 153.466 76.6144 153.446 76.6826C153.413 76.8833 153.367 77.0814 153.307 77.2756C153.107 78.0009 152.751 78.6715 152.266 79.2391C151.511 80.0568 150.555 80.6506 149.498 80.9577C148.889 81.1571 148.267 81.3121 147.637 81.4217C147.31 81.4808 146.986 81.5568 146.667 81.6494C146.506 81.6934 146.35 81.7539 146.201 81.8299C146.063 81.8825 145.95 81.9871 145.886 82.122C145.837 82.454 145.851 82.7923 145.928 83.1188C145.998 83.4602 146.046 83.8062 146.07 84.1543C146.106 84.8068 146.106 85.4609 146.07 86.1135C146.017 87.2241 145.801 88.3202 145.432 89.3659C145.171 90.0568 144.807 90.7019 144.352 91.2779C144.23 91.4375 144.096 91.5882 143.953 91.729C143.907 91.7823 143.855 91.8299 143.798 91.8708Z" fill="#E7996E"/>
<path d="M89.5628 150.38H137.606C138.155 150.38 138.687 150.183 139.109 149.822C139.53 149.462 139.814 148.961 139.912 148.408L145.864 114.814C145.925 114.468 145.912 114.113 145.824 113.774C145.737 113.434 145.577 113.118 145.357 112.848C145.137 112.579 144.862 112.362 144.551 112.213C144.24 112.064 143.901 111.987 143.558 111.987H95.5147C94.9648 111.987 94.4323 112.184 94.0102 112.545C93.588 112.905 93.3029 113.406 93.2045 113.959L87.2569 147.553C87.1953 147.899 87.2088 148.254 87.2963 148.594C87.3837 148.933 87.5431 149.249 87.7631 149.519C87.983 149.789 88.2583 150.006 88.5693 150.154C88.8803 150.303 89.2195 150.38 89.5628 150.38Z" fill="#263238"/>
<path d="M92.0029 150.376H61.1476V150.05C61.1476 149.285 61.4445 148.552 61.973 148.011C62.5016 147.47 63.2185 147.167 63.9659 147.167H92.0029V150.376Z" fill="#263238"/>
<path d="M96.0182 111.987C95.972 111.987 94.2667 120.58 92.2085 131.162C90.1504 141.744 88.5165 150.355 88.5585 150.355C88.6005 150.355 90.31 141.783 92.3723 131.179C94.4347 120.576 96.0476 111.995 96.0182 111.987Z" fill="#455A64"/>
<path d="M118.154 131.729C118.242 131.397 118.426 131.099 118.681 130.875C118.936 130.65 119.252 130.509 119.586 130.471H119.448C119.797 130.403 120.158 130.452 120.478 130.612C120.797 130.772 121.057 131.033 121.219 131.357C121.382 131.68 121.437 132.049 121.378 132.407C121.318 132.766 121.147 133.095 120.889 133.346C120.632 133.596 120.302 133.755 119.949 133.798C119.596 133.841 119.239 133.766 118.931 133.584C118.623 133.402 118.381 133.123 118.241 132.789C118.101 132.454 118.07 132.083 118.154 131.729Z" fill="#455A64"/>
</svg>
