<svg width="429" height="323" viewBox="0 0 429 323" fill="none" xmlns="http://www.w3.org/2000/svg">
<path d="M429 282.99H0V283.206H429V282.99Z" fill="#EBEBEB"/>
<path d="M386.013 296.897H357.596V297.113H386.013V296.897Z" fill="#EBEBEB"/>
<path d="M284.188 299.248H276.732V299.464H284.188V299.248Z" fill="#EBEBEB"/>
<path d="M356.739 288.876H340.274V289.092H356.739V288.876Z" fill="#EBEBEB"/>
<path d="M82.0677 290.328H45.0107V290.544H82.0677V290.328Z" fill="#EBEBEB"/>
<path d="M95.1444 290.328H89.7133V290.544H95.1444V290.328Z" fill="#EBEBEB"/>
<path d="M193.179 293.975H112.802V294.191H193.179V293.975Z" fill="#EBEBEB"/>
<path d="M203.347 244.439H37.6755C36.3776 244.437 35.1337 243.916 34.2168 242.991C33.2998 242.065 32.7848 240.811 32.7849 239.504V4.89224C32.7961 3.59228 33.3161 2.3493 34.2318 1.43329C35.1475 0.51728 36.385 0.00222691 37.6755 0H203.347C204.646 0 205.892 0.519985 206.811 1.44556C207.73 2.37114 208.246 3.6265 208.246 4.93546V239.504C208.246 240.813 207.73 242.068 206.811 242.994C205.892 243.919 204.646 244.439 203.347 244.439ZM37.6755 0.172872C36.4345 0.175161 35.2451 0.673388 34.3684 1.55819C33.4917 2.443 32.9993 3.64209 32.9994 4.89224V239.504C32.9993 240.754 33.4917 241.953 34.3684 242.838C35.2451 243.723 36.4345 244.221 37.6755 244.223H203.347C204.588 244.221 205.779 243.723 206.657 242.838C207.535 241.954 208.029 240.755 208.031 239.504V4.89224C208.029 3.64129 207.535 2.44223 206.657 1.55767C205.779 0.673107 204.588 0.175156 203.347 0.172872H37.6755Z" fill="#EBEBEB"/>
<path d="M388.94 244.439H223.261C221.962 244.437 220.717 243.916 219.799 242.991C218.881 242.066 218.364 240.812 218.361 239.504V4.89224C218.375 3.59149 218.897 2.34852 219.814 1.43275C220.731 0.516978 221.969 0.00220263 223.261 0H388.94C390.229 0.00449853 391.465 0.520557 392.379 1.43632C393.292 2.35209 393.811 3.59377 393.822 4.89224V239.504C393.822 240.81 393.309 242.063 392.394 242.988C391.479 243.913 390.237 244.435 388.94 244.439ZM223.261 0.172872C222.019 0.175156 220.829 0.673107 219.951 1.55767C219.073 2.44223 218.578 3.64129 218.576 4.89224V239.504C218.578 240.755 219.073 241.954 219.951 242.838C220.829 243.723 222.019 244.221 223.261 244.223H388.94C390.182 244.221 391.372 243.723 392.251 242.838C393.129 241.954 393.623 240.755 393.625 239.504V4.89224C393.623 3.64129 393.129 2.44223 392.251 1.55767C391.372 0.673107 390.182 0.175156 388.94 0.172872H223.261Z" fill="#EBEBEB"/>
<path d="M212.612 98.329H87.1557V283.621H212.612V98.329Z" fill="#F0F0F0"/>
<path d="M208.177 104.163H91.5921V138.383H208.177V104.163Z" fill="#E0E0E0"/>
<path d="M98.2159 109.704H91.5921V138.383H98.2159V109.704Z" fill="#EBEBEB"/>
<path d="M130.244 109.704H123.62V138.383H130.244V109.704Z" fill="#EBEBEB"/>
<path d="M166.595 108.98L160.068 110.113L164.904 138.376L171.431 137.242L166.595 108.98Z" fill="#EBEBEB"/>
<path d="M106.426 113.481H99.8024V138.383H106.426V113.481Z" fill="#EBEBEB"/>
<path d="M121.647 113.481H115.023V138.383H121.647V113.481Z" fill="#EBEBEB"/>
<path d="M160.068 113.481H153.444V138.383H160.068V113.481Z" fill="#EBEBEB"/>
<path d="M138.94 112.621L132.474 114.069L137.837 138.378L144.303 136.93L138.94 112.621Z" fill="#EBEBEB"/>
<path d="M112.148 108.278H108.836V138.383H112.148V108.278Z" fill="#EBEBEB"/>
<path d="M151.54 108.278H148.229V138.383H151.54V108.278Z" fill="#EBEBEB"/>
<path d="M91.5906 178.022L208.176 178.022V143.803H91.5906V178.022Z" fill="#E0E0E0"/>
<path d="M201.562 178.022H208.186V149.343H201.562V178.022Z" fill="#EBEBEB"/>
<path d="M169.532 178.022H176.156V149.343H169.532V178.022Z" fill="#EBEBEB"/>
<path d="M128.355 176.886L134.883 178.02L139.719 149.757L133.191 148.624L128.355 176.886Z" fill="#EBEBEB"/>
<path d="M193.35 178.022H199.973V153.12H193.35V178.022Z" fill="#EBEBEB"/>
<path d="M178.121 178.022H184.745V153.12H178.121V178.022Z" fill="#EBEBEB"/>
<path d="M139.708 178.022H146.332V153.12H139.708V178.022Z" fill="#EBEBEB"/>
<path d="M155.487 176.574L161.953 178.021L167.315 153.712L160.849 152.265L155.487 176.574Z" fill="#EBEBEB"/>
<path d="M187.628 178.022H190.939V147.917H187.628V178.022Z" fill="#EBEBEB"/>
<path d="M148.227 178.022H151.539V147.917H148.227V178.022Z" fill="#EBEBEB"/>
<path d="M98.2159 149.343H91.5921V178.022H98.2159V149.343Z" fill="#EBEBEB"/>
<path d="M106.426 153.12H99.8024V178.022H106.426V153.12Z" fill="#EBEBEB"/>
<path d="M121.647 153.12H115.023V178.022H121.647V153.12Z" fill="#EBEBEB"/>
<path d="M112.148 147.917H108.836V178.022H112.148V147.917Z" fill="#EBEBEB"/>
<path d="M208.177 183.442H91.5921V217.662H208.177V183.442Z" fill="#E0E0E0"/>
<path d="M165.131 188.982H158.507V217.662H165.131V188.982Z" fill="#EBEBEB"/>
<path d="M201.491 188.265L194.963 189.399L199.799 217.661L206.326 216.528L201.491 188.265Z" fill="#EBEBEB"/>
<path d="M141.313 192.76H134.69V217.662H141.313V192.76Z" fill="#EBEBEB"/>
<path d="M156.542 192.76H149.918V217.662H156.542V192.76Z" fill="#EBEBEB"/>
<path d="M194.963 192.76H188.34V217.662H194.963V192.76Z" fill="#EBEBEB"/>
<path d="M173.844 191.902L167.378 193.35L172.741 217.659L179.207 216.211L173.844 191.902Z" fill="#EBEBEB"/>
<path d="M147.044 187.556H143.732V217.662H147.044V187.556Z" fill="#EBEBEB"/>
<path d="M186.436 187.556H183.124V217.662H186.436V187.556Z" fill="#EBEBEB"/>
<path d="M125.292 188.27L118.764 189.404L123.6 217.666L130.128 216.533L125.292 188.27Z" fill="#EBEBEB"/>
<path d="M118.765 192.76H112.141V217.662H118.765V192.76Z" fill="#EBEBEB"/>
<path d="M97.6413 191.899L91.1753 193.347L96.5381 217.656L103.004 216.208L97.6413 191.899Z" fill="#EBEBEB"/>
<path d="M110.245 187.556H106.933V217.662H110.245V187.556Z" fill="#EBEBEB"/>
<path d="M65.5084 284.113H87.1557L87.1557 98.3289H65.5084L65.5084 284.113Z" fill="#E0E0E0"/>
<path d="M344.144 50.9623H265.251V230.005H344.144V50.9623Z" fill="#EBEBEB"/>
<path d="M342.171 226.115V53.7888L269.232 53.7888V226.115H342.171Z" fill="#FAFAFA"/>
<path d="M305.525 53.4604H303.852V228.328H305.525V53.4604Z" fill="#F5F5F5"/>
<path d="M345.954 48.6371H263.422V57.0646H345.954V48.6371Z" fill="#E0E0E0"/>
<path d="M345.954 57.9896H263.422V58.9922H345.954V57.9896Z" fill="#F5F5F5"/>
<path d="M345.954 60.2628H263.422V61.2654H345.954V60.2628Z" fill="#F5F5F5"/>
<path d="M345.954 62.5273H263.422V63.5299H345.954V62.5273Z" fill="#F5F5F5"/>
<path d="M345.954 64.7921H263.422V65.7948H345.954V64.7921Z" fill="#F5F5F5"/>
<path d="M345.954 67.0567H263.422V68.0594H345.954V67.0567Z" fill="#F5F5F5"/>
<path d="M345.954 69.3299H263.422V70.3325H345.954V69.3299Z" fill="#F5F5F5"/>
<path d="M345.954 71.5944H263.422V72.5971H345.954V71.5944Z" fill="#F5F5F5"/>
<path d="M345.954 73.859H263.422V74.8617H345.954V73.859Z" fill="#F5F5F5"/>
<path d="M345.954 76.1238H263.422V77.1264H345.954V76.1238Z" fill="#F5F5F5"/>
<path d="M345.954 78.397H263.422V79.3996H345.954V78.397Z" fill="#F5F5F5"/>
<path d="M345.954 80.6616H263.422V81.6642H345.954V80.6616Z" fill="#F5F5F5"/>
<path d="M345.954 82.9261H263.422V83.9288H345.954V82.9261Z" fill="#F5F5F5"/>
<path d="M345.954 85.1907H263.422V86.1933H345.954V85.1907Z" fill="#F5F5F5"/>
<path d="M345.954 87.4553H263.422V88.4579H345.954V87.4553Z" fill="#F5F5F5"/>
<path d="M345.954 89.7287H263.422V90.7314H345.954V89.7287Z" fill="#F5F5F5"/>
<path d="M345.954 91.9933H263.422V92.9959H345.954V91.9933Z" fill="#F5F5F5"/>
<path d="M345.954 94.2578H263.422V95.2605H345.954V94.2578Z" fill="#F5F5F5"/>
<path d="M345.954 96.5224H263.422V97.5251H345.954V96.5224Z" fill="#F5F5F5"/>
<path d="M178.01 65.1205C185.734 65.1205 191.996 58.8127 191.996 51.0315C191.996 43.2504 185.734 36.9426 178.01 36.9426C170.286 36.9426 164.025 43.2504 164.025 51.0315C164.025 58.8127 170.286 65.1205 178.01 65.1205Z" fill="#E0E0E0"/>
<path d="M178.009 63.0113C184.577 63.0113 189.901 57.6477 189.901 51.0313C189.901 44.415 184.577 39.0514 178.009 39.0514C171.441 39.0514 166.117 44.415 166.117 51.0313C166.117 57.6477 171.441 63.0113 178.009 63.0113Z" fill="#F0F0F0"/>
<path d="M178.567 42.8114V51.187L184.075 48.0494" fill="#F0F0F0"/>
<path d="M178.567 52.0601C178.339 52.0601 178.121 51.969 177.96 51.8069C177.799 51.6448 177.709 51.425 177.709 51.1957V42.8115C177.709 42.5823 177.799 42.3624 177.96 42.2003C178.121 42.0382 178.339 41.9471 178.567 41.9471C178.794 41.9471 179.012 42.0382 179.173 42.2003C179.334 42.3624 179.425 42.5823 179.425 42.8115V49.7263L183.655 47.3148C183.853 47.2028 184.087 47.1745 184.305 47.2361C184.524 47.2976 184.71 47.4441 184.822 47.6432C184.933 47.8417 184.963 48.0767 184.903 48.2969C184.844 48.5171 184.7 48.7047 184.504 48.8188L178.987 51.965C178.857 52.0305 178.712 52.0631 178.567 52.0601Z" fill="#E0E0E0"/>
<path d="M214.499 322.024C306.376 322.024 380.857 317.643 380.857 312.239C380.857 306.835 306.376 302.455 214.499 302.455C122.623 302.455 48.1417 306.835 48.1417 312.239C48.1417 317.643 122.623 322.024 214.499 322.024Z" fill="#F5F5F5"/>
<path d="M285.87 286.101H351.396V299.931H285.844C286.442 295.341 286.45 290.693 285.87 286.101Z" fill="#676F74"/>
<path opacity="0.7" d="M285.87 286.101H351.396V299.931H285.844C286.442 295.341 286.45 290.693 285.87 286.101Z" fill="white"/>
<path d="M340.679 299.387C342.378 297.674 343.332 295.351 343.332 292.93C343.332 290.509 342.378 288.186 340.679 286.473L339.452 285.237H360.044L360.258 285.445C362.226 287.43 363.331 290.12 363.331 292.926C363.331 295.731 362.226 298.421 360.258 300.407L360.044 300.623H339.452L340.679 299.387Z" fill="#676F74"/>
<g opacity="0.3">
<path opacity="0.3" d="M340.68 299.386C342.378 297.673 343.332 295.351 343.332 292.93C343.332 290.508 342.378 288.186 340.68 286.473L339.453 285.237H360.045L360.259 285.444C362.227 287.43 363.332 290.12 363.332 292.925C363.332 295.731 362.227 298.421 360.259 300.406L360.045 300.622H339.453L340.68 299.386Z" fill="black"/>
</g>
<path d="M285.2 300.622H340.815L340.875 300.562C342.82 298.638 343.97 296.044 344.093 293.301C344.148 291.849 343.904 290.402 343.377 289.05C342.85 287.698 342.051 286.47 341.03 285.444L340.815 285.237H285.2C285.105 285.236 285.012 285.253 284.925 285.289C284.837 285.324 284.758 285.377 284.691 285.444C284.624 285.511 284.57 285.59 284.534 285.678C284.498 285.765 284.479 285.859 284.479 285.954C284.478 286.05 284.496 286.145 284.532 286.233C284.567 286.322 284.62 286.403 284.688 286.47C284.755 286.538 284.835 286.591 284.923 286.627C285.011 286.663 285.105 286.681 285.2 286.68H340.215C341.79 288.372 342.667 290.605 342.667 292.925C342.667 295.245 341.79 297.478 340.215 299.17H285.2C285.009 299.17 284.825 299.247 284.69 299.383C284.555 299.519 284.479 299.704 284.479 299.896C284.479 300.089 284.555 300.273 284.69 300.41C284.825 300.546 285.009 300.622 285.2 300.622Z" fill="#676F74"/>
<path d="M291.009 291.288H294.157C294.301 291.288 294.438 291.23 294.54 291.128C294.641 291.026 294.698 290.887 294.698 290.743C294.698 290.599 294.641 290.46 294.54 290.358C294.438 290.256 294.301 290.198 294.157 290.198H291.009C290.865 290.198 290.728 290.256 290.626 290.358C290.525 290.46 290.468 290.599 290.468 290.743C290.468 290.887 290.525 291.026 290.626 291.128C290.728 291.23 290.865 291.288 291.009 291.288Z" fill="white"/>
<path d="M298.293 291.288H327.465C327.608 291.288 327.745 291.23 327.847 291.128C327.948 291.026 328.005 290.887 328.005 290.743C328.005 290.599 327.948 290.46 327.847 290.358C327.745 290.256 327.608 290.198 327.465 290.198H298.293C298.149 290.198 298.012 290.256 297.91 290.358C297.809 290.46 297.752 290.599 297.752 290.743C297.752 290.887 297.809 291.026 297.91 291.128C298.012 291.23 298.149 291.288 298.293 291.288Z" fill="white"/>
<path d="M331.464 291.288H337.933C338.077 291.288 338.214 291.23 338.316 291.128C338.417 291.026 338.474 290.887 338.474 290.743C338.474 290.599 338.417 290.46 338.316 290.358C338.214 290.256 338.077 290.198 337.933 290.198H331.464C331.321 290.198 331.183 290.256 331.082 290.358C330.98 290.46 330.923 290.599 330.923 290.743C330.923 290.887 330.98 291.026 331.082 291.128C331.183 291.23 331.321 291.288 331.464 291.288Z" fill="white"/>
<path d="M291.009 295.851H318.696C318.84 295.851 318.977 295.794 319.078 295.692C319.18 295.59 319.237 295.451 319.237 295.307C319.237 295.162 319.18 295.024 319.078 294.922C318.977 294.819 318.84 294.762 318.696 294.762H291.009C290.865 294.762 290.728 294.819 290.626 294.922C290.525 295.024 290.468 295.162 290.468 295.307C290.468 295.451 290.525 295.59 290.626 295.692C290.728 295.794 290.865 295.851 291.009 295.851Z" fill="white"/>
<path d="M322.746 295.851H337.933C338.076 295.851 338.214 295.794 338.315 295.692C338.416 295.59 338.473 295.451 338.473 295.307C338.473 295.162 338.416 295.024 338.315 294.922C338.214 294.819 338.076 294.762 337.933 294.762H322.746C322.603 294.762 322.465 294.819 322.364 294.922C322.263 295.024 322.206 295.162 322.206 295.307C322.206 295.451 322.263 295.59 322.364 295.692C322.465 295.794 322.603 295.851 322.746 295.851Z" fill="white"/>
<path d="M287.603 258.347H346.574V270.733H287.586C288.12 266.622 288.125 262.459 287.603 258.347Z" fill="#676F74"/>
<path opacity="0.8" d="M287.603 258.347H346.574V270.733H287.586C288.12 266.622 288.125 262.459 287.603 258.347Z" fill="white"/>
<path d="M336.938 270.275C338.467 268.732 339.325 266.642 339.325 264.462C339.325 262.283 338.467 260.192 336.938 258.649L335.832 257.578H354.356L354.545 257.768C355.424 258.651 356.122 259.7 356.598 260.856C357.074 262.011 357.319 263.25 357.319 264.501C357.319 265.752 357.074 266.991 356.598 268.146C356.122 269.302 355.424 270.351 354.545 271.234L354.356 271.407H335.823L336.938 270.275Z" fill="#676F74"/>
<g opacity="0.2">
<path opacity="0.2" d="M336.939 270.275C338.468 268.732 339.326 266.642 339.326 264.462C339.326 262.282 338.468 260.192 336.939 258.649L335.832 257.577H354.357L354.545 257.768C355.425 258.651 356.123 259.7 356.599 260.856C357.075 262.011 357.32 263.25 357.32 264.501C357.32 265.752 357.075 266.991 356.599 268.146C356.123 269.302 355.425 270.351 354.545 271.234L354.357 271.407H335.824L336.939 270.275Z" fill="white"/>
</g>
<path d="M287.002 271.407H337.058L337.109 271.355C338.861 269.629 339.898 267.296 340.009 264.83C340.06 263.521 339.841 262.216 339.366 260.998C338.89 259.779 338.168 258.673 337.246 257.751L337.058 257.56H287.002C286.829 257.56 286.663 257.63 286.541 257.753C286.419 257.876 286.35 258.043 286.35 258.217C286.352 258.39 286.422 258.555 286.544 258.676C286.666 258.798 286.83 258.866 287.002 258.866H336.517C337.931 260.39 338.717 262.398 338.717 264.484C338.717 266.57 337.931 268.578 336.517 270.102H287.002C286.917 270.101 286.832 270.117 286.753 270.149C286.674 270.181 286.602 270.229 286.541 270.289C286.481 270.349 286.433 270.421 286.4 270.5C286.367 270.58 286.35 270.665 286.35 270.75C286.349 270.837 286.365 270.923 286.397 271.003C286.43 271.083 286.477 271.156 286.538 271.217C286.599 271.279 286.671 271.327 286.751 271.36C286.831 271.392 286.916 271.408 287.002 271.407Z" fill="#676F74"/>
<g opacity="0.4">
<path opacity="0.4" d="M287.002 271.407H337.058L337.109 271.356C338.861 269.629 339.898 267.296 340.009 264.83C340.06 263.521 339.841 262.217 339.366 260.998C338.89 259.779 338.168 258.674 337.247 257.751L337.058 257.56H287.002C286.829 257.56 286.663 257.63 286.541 257.753C286.419 257.876 286.35 258.043 286.35 258.217C286.352 258.39 286.422 258.555 286.544 258.676C286.666 258.798 286.831 258.866 287.002 258.866H336.517C337.931 260.39 338.717 262.398 338.717 264.484C338.717 266.57 337.931 268.578 336.517 270.102H287.002C286.917 270.101 286.832 270.117 286.753 270.149C286.674 270.181 286.602 270.229 286.541 270.289C286.481 270.349 286.433 270.421 286.4 270.5C286.367 270.58 286.35 270.665 286.35 270.751C286.349 270.837 286.365 270.923 286.397 271.003C286.43 271.083 286.478 271.156 286.538 271.218C286.599 271.279 286.672 271.327 286.751 271.36C286.831 271.392 286.916 271.409 287.002 271.407Z" fill="white"/>
</g>
<path d="M292.236 262.963H295.067C295.195 262.963 295.317 262.912 295.407 262.821C295.497 262.73 295.548 262.607 295.548 262.479C295.549 262.414 295.537 262.351 295.514 262.291C295.49 262.231 295.455 262.177 295.41 262.131C295.365 262.085 295.312 262.049 295.253 262.024C295.194 261.999 295.131 261.986 295.067 261.986H292.236C292.106 261.986 291.982 262.038 291.89 262.13C291.798 262.223 291.747 262.348 291.747 262.479C291.749 262.608 291.802 262.731 291.893 262.821C291.985 262.912 292.108 262.963 292.236 262.963Z" fill="white"/>
<path d="M298.791 262.963H325.08C325.208 262.963 325.331 262.912 325.423 262.822C325.514 262.731 325.567 262.608 325.569 262.479C325.569 262.348 325.518 262.223 325.426 262.13C325.334 262.038 325.21 261.986 325.08 261.986H298.791C298.726 261.985 298.662 261.997 298.602 262.021C298.542 262.046 298.488 262.082 298.442 262.128C298.397 262.174 298.361 262.229 298.337 262.289C298.313 262.349 298.301 262.414 298.302 262.479C298.302 262.543 298.315 262.607 298.339 262.666C298.364 262.725 298.4 262.779 298.446 262.824C298.491 262.869 298.545 262.905 298.604 262.928C298.664 262.952 298.727 262.964 298.791 262.963Z" fill="white"/>
<path d="M328.615 262.963H334.441C334.569 262.963 334.691 262.912 334.781 262.821C334.871 262.73 334.922 262.607 334.922 262.479C334.923 262.414 334.911 262.351 334.888 262.291C334.864 262.231 334.829 262.177 334.784 262.131C334.739 262.085 334.686 262.049 334.627 262.024C334.568 261.999 334.505 261.986 334.441 261.986H328.615C328.486 261.986 328.361 262.038 328.27 262.13C328.178 262.223 328.126 262.348 328.126 262.479C328.129 262.608 328.181 262.731 328.273 262.821C328.364 262.912 328.487 262.963 328.615 262.963Z" fill="white"/>
<path d="M292.236 267.086H317.118C317.248 267.086 317.372 267.034 317.464 266.941C317.555 266.849 317.607 266.724 317.607 266.593C317.605 266.464 317.552 266.341 317.461 266.25C317.369 266.16 317.246 266.109 317.118 266.109H292.236C292.108 266.109 291.985 266.16 291.893 266.25C291.802 266.341 291.749 266.464 291.747 266.593C291.747 266.724 291.798 266.849 291.89 266.941C291.982 267.034 292.106 267.086 292.236 267.086Z" fill="white"/>
<path d="M320.789 267.086H334.466C334.53 267.086 334.593 267.073 334.652 267.048C334.71 267.023 334.764 266.987 334.809 266.941C334.853 266.895 334.888 266.841 334.912 266.781C334.936 266.721 334.947 266.657 334.946 266.593C334.946 266.465 334.896 266.341 334.805 266.251C334.715 266.16 334.593 266.109 334.466 266.109H320.789C320.662 266.109 320.54 266.16 320.449 266.251C320.359 266.341 320.309 266.465 320.309 266.593C320.308 266.657 320.319 266.721 320.343 266.781C320.366 266.841 320.402 266.895 320.446 266.941C320.491 266.987 320.544 267.023 320.603 267.048C320.662 267.073 320.725 267.086 320.789 267.086Z" fill="white"/>
<path d="M285.527 272.194H344.498V284.58H285.51C286.043 280.469 286.049 276.306 285.527 272.194Z" fill="#676F74"/>
<path opacity="0.7" d="M285.527 272.194H344.498V284.58H285.51C286.043 280.469 286.049 276.306 285.527 272.194Z" fill="white"/>
<path d="M334.861 284.122C336.39 282.579 337.248 280.489 337.248 278.309C337.248 276.13 336.39 274.039 334.861 272.497L333.763 271.407H352.296L352.485 271.606C353.363 272.489 354.059 273.538 354.535 274.693C355.01 275.847 355.255 277.085 355.255 278.335C355.255 279.585 355.01 280.823 354.535 281.978C354.059 283.132 353.363 284.181 352.485 285.064L352.296 285.263H333.763L334.861 284.122Z" fill="#676F74"/>
<path d="M284.926 285.237H334.981L335.033 285.177C336.785 283.45 337.821 281.118 337.933 278.651C337.985 277.344 337.766 276.04 337.29 274.823C336.815 273.605 336.093 272.501 335.17 271.58L334.981 271.382H284.926C284.753 271.382 284.587 271.451 284.465 271.574C284.342 271.697 284.274 271.864 284.274 272.038C284.274 272.124 284.291 272.209 284.323 272.289C284.356 272.368 284.404 272.44 284.465 272.5C284.526 272.56 284.598 272.608 284.677 272.64C284.756 272.672 284.84 272.688 284.926 272.687H334.441C335.855 274.211 336.641 276.219 336.641 278.305C336.641 280.391 335.855 282.399 334.441 283.923H284.926C284.84 283.922 284.756 283.938 284.677 283.97C284.598 284.002 284.526 284.05 284.465 284.11C284.404 284.17 284.356 284.242 284.323 284.321C284.291 284.401 284.274 284.486 284.274 284.572C284.272 284.659 284.289 284.745 284.321 284.826C284.353 284.906 284.401 284.98 284.462 285.042C284.522 285.104 284.594 285.153 284.674 285.186C284.754 285.22 284.839 285.237 284.926 285.237Z" fill="#676F74"/>
<g opacity="0.3">
<path opacity="0.3" d="M284.926 285.237H334.981L335.033 285.177C336.785 283.45 337.821 281.118 337.933 278.651C337.985 277.344 337.766 276.04 337.29 274.823C336.815 273.605 336.093 272.501 335.17 271.58L334.981 271.382H284.926C284.753 271.382 284.587 271.451 284.465 271.574C284.342 271.697 284.274 271.864 284.274 272.038C284.274 272.124 284.291 272.209 284.323 272.289C284.356 272.368 284.404 272.44 284.465 272.5C284.526 272.56 284.598 272.608 284.677 272.64C284.756 272.672 284.84 272.688 284.926 272.687H334.441C335.855 274.211 336.641 276.219 336.641 278.305C336.641 280.391 335.855 282.399 334.441 283.923H284.926C284.84 283.922 284.756 283.938 284.677 283.97C284.598 284.002 284.526 284.05 284.465 284.11C284.404 284.17 284.356 284.242 284.323 284.321C284.291 284.401 284.274 284.486 284.274 284.572C284.272 284.659 284.289 284.745 284.321 284.826C284.353 284.906 284.401 284.98 284.462 285.042C284.522 285.104 284.594 285.153 284.674 285.186C284.754 285.22 284.839 285.237 284.926 285.237Z" fill="white"/>
</g>
<path d="M332.391 279.965H329.56C329.432 279.965 329.309 280.015 329.217 280.106C329.126 280.196 329.073 280.319 329.071 280.449C329.071 280.579 329.122 280.705 329.214 280.797C329.306 280.889 329.43 280.941 329.56 280.941H332.391C332.455 280.941 332.518 280.929 332.577 280.904C332.636 280.879 332.689 280.842 332.734 280.797C332.779 280.751 332.814 280.696 332.838 280.637C332.861 280.577 332.873 280.513 332.872 280.449C332.872 280.32 332.821 280.197 332.731 280.106C332.641 280.016 332.519 279.965 332.391 279.965Z" fill="white"/>
<path d="M325.835 279.965H299.546C299.482 279.964 299.419 279.975 299.36 279.999C299.3 280.023 299.246 280.058 299.201 280.103C299.155 280.148 299.119 280.202 299.094 280.261C299.07 280.321 299.057 280.384 299.057 280.449C299.056 280.514 299.068 280.578 299.092 280.639C299.116 280.699 299.152 280.754 299.198 280.8C299.243 280.846 299.298 280.882 299.358 280.906C299.417 280.931 299.482 280.943 299.546 280.941H325.835C325.965 280.941 326.089 280.889 326.181 280.797C326.273 280.705 326.324 280.579 326.324 280.449C326.322 280.32 326.27 280.196 326.178 280.106C326.087 280.015 325.963 279.965 325.835 279.965Z" fill="white"/>
<path d="M296.012 279.965H290.186C290.058 279.965 289.934 280.015 289.843 280.106C289.752 280.196 289.699 280.319 289.697 280.449C289.697 280.579 289.748 280.705 289.84 280.797C289.932 280.889 290.056 280.941 290.186 280.941H296.012C296.075 280.941 296.139 280.929 296.198 280.904C296.256 280.879 296.31 280.842 296.354 280.797C296.399 280.751 296.434 280.696 296.458 280.637C296.482 280.577 296.493 280.513 296.492 280.449C296.492 280.32 296.441 280.197 296.351 280.106C296.261 280.016 296.139 279.965 296.012 279.965Z" fill="white"/>
<path d="M332.391 275.833H307.509C307.444 275.831 307.38 275.843 307.32 275.868C307.26 275.892 307.206 275.928 307.16 275.974C307.115 276.02 307.079 276.075 307.054 276.135C307.03 276.196 307.018 276.26 307.02 276.325C307.02 276.39 307.032 276.453 307.057 276.513C307.082 276.572 307.118 276.626 307.163 276.671C307.209 276.716 307.263 276.751 307.322 276.775C307.381 276.799 307.445 276.811 307.509 276.809H332.391C332.518 276.809 332.64 276.758 332.73 276.668C332.821 276.577 332.871 276.454 332.871 276.325C332.872 276.261 332.861 276.197 332.837 276.137C332.813 276.078 332.778 276.023 332.734 275.977C332.689 275.932 332.635 275.895 332.577 275.87C332.518 275.845 332.455 275.833 332.391 275.833Z" fill="white"/>
<path d="M303.828 275.833H290.16C290.03 275.833 289.906 275.885 289.814 275.977C289.722 276.069 289.671 276.195 289.671 276.325C289.673 276.455 289.725 276.578 289.817 276.668C289.908 276.759 290.031 276.809 290.16 276.809H303.828C303.891 276.811 303.955 276.799 304.014 276.775C304.073 276.751 304.127 276.716 304.173 276.671C304.218 276.626 304.255 276.572 304.279 276.513C304.304 276.453 304.317 276.39 304.317 276.325C304.318 276.26 304.306 276.196 304.282 276.135C304.258 276.075 304.222 276.02 304.176 275.974C304.13 275.928 304.076 275.892 304.016 275.868C303.956 275.843 303.892 275.831 303.828 275.833Z" fill="white"/>
<path d="M218.944 202.38L231.016 208.517C235.074 210.548 239.141 212.562 243.208 214.481C247.275 216.4 251.342 218.224 255.357 219.909C257.373 220.774 259.373 221.517 261.363 222.217C263.354 222.917 265.241 223.539 266.983 223.946C267.841 224.17 268.656 224.335 269.334 224.438C269.677 224.49 269.334 224.438 269.162 224.49C269.077 224.496 268.992 224.517 268.914 224.551C268.853 224.551 268.914 224.551 268.914 224.594C268.985 224.6 269.057 224.6 269.128 224.594C269.742 224.466 270.342 224.281 270.921 224.041C271.742 223.708 272.544 223.33 273.324 222.909C275.04 222.044 276.756 220.912 278.583 219.762C280.411 218.613 282.178 217.351 283.971 216.037C291.187 210.851 298.377 204.956 305.542 199.268L313.495 206.676C310.698 210.712 307.764 214.455 304.658 218.146C301.552 221.837 298.3 225.415 294.817 228.907C291.214 232.567 287.307 235.91 283.139 238.899C281.955 239.736 280.729 240.512 279.467 241.224C277.983 242.072 276.423 242.778 274.808 243.333C274.37 243.497 273.83 243.644 273.341 243.783C272.852 243.921 272.268 244.042 271.625 244.137C270.969 244.249 270.307 244.321 269.643 244.353C268.922 244.353 267.927 244.353 267.721 244.353C266.082 244.258 264.589 244.077 263.165 243.852C260.504 243.424 257.869 242.847 255.271 242.123C252.795 241.414 250.384 240.659 248.038 239.858C243.328 238.259 238.823 236.401 234.37 234.551C229.917 232.702 225.576 230.644 221.286 228.501C219.141 227.446 216.996 226.383 214.885 225.26C212.775 224.136 210.707 223.021 208.51 221.802L218.944 202.38Z" fill="#DE9185"/>
<path opacity="0.2" d="M324.967 175.896L327.172 174.988L327.481 174.34L324.967 175.896Z" fill="black"/>
<path d="M330.107 173.459L323.02 177.383L316.757 180.927L329.052 191.178C329.052 191.178 332.484 185.128 333.007 182.681C333.256 181.454 330.107 173.459 330.107 173.459Z" fill="#DE9185"/>
<path d="M315.16 179.786C316.006 178.023 316.954 176.311 318 174.66C318.6 174.064 328.03 174.349 328.03 174.349L326.502 175.464L322.693 178.921L318.849 182.422L315.16 179.786Z" fill="#DE9185"/>
<path d="M305.363 199.796L315.161 179.786L329.369 189.968C329.369 189.968 326.04 206.054 313.17 206.736L305.363 199.796Z" fill="#DE9185"/>
<path d="M332.233 170.577L292.086 195.32L293.29 197.303L333.438 172.56L332.233 170.577Z" fill="#263238"/>
<path d="M334.903 172.499L338.875 168.679L333.693 170.511L334.903 172.499Z" fill="#263238"/>
<path opacity="0.3" d="M334.903 172.499L337.657 169.854L338.875 168.679L333.693 170.511L334.903 172.499Z" fill="white"/>
<path d="M337.734 169.785L338.523 169.016L338.875 168.679L337.382 169.206L337.734 169.785Z" fill="#263238"/>
<path opacity="0.2" d="M313.633 182.88L311.72 186.796L310.502 187.548L312.201 183.77L313.633 182.88Z" fill="black"/>
<path opacity="0.2" d="M320.618 178.576L319.803 181.834L318.85 182.422L314.217 183.969L314.784 182.171L320.618 178.576Z" fill="black"/>
<path opacity="0.2" d="M318.85 182.422L314.681 183.909L311.583 188.231L315.015 198.3C319.142 194.731 318.979 191.61 316.517 188.732L315.058 187.003C317.315 186.07 319.425 185.067 320.421 183.546L325.157 179.06C328.589 177.521 330.562 176.13 330.845 175.378L330.794 175.092L324.874 178.74L318.85 182.422Z" fill="black"/>
<path d="M305.362 199.795C305.362 199.795 304.693 193.296 305.662 190.288C306.632 187.28 311.771 182.897 312.629 181.938C313.487 180.978 319.236 180.062 319.236 180.062C318.944 181.419 318.378 182.543 317.065 182.966L314.68 183.943L311.583 188.265C311.583 188.265 316.731 191.368 316.799 193.805C316.868 196.243 310.733 204.636 310.733 204.636L305.362 199.795Z" fill="#DE9185"/>
<path d="M175.573 199.104C178.696 228.319 225.749 237.499 225.749 237.499L235.427 206.875C235.427 206.875 220.026 194.774 204.281 184.972C187.791 174.703 173.925 183.719 175.573 199.104Z" fill="#FC7F4F"/>
<path opacity="0.2" d="M221.201 236.409C215.418 231.111 211.411 223.289 208.657 213.703L205.431 230.921C210.546 233.142 215.817 234.976 221.201 236.409Z" fill="black"/>
<path d="M201.999 183.105C201.999 183.105 219.562 228.708 202.574 313.527L122.454 313.329C121.93 300.942 127.499 242.944 115.778 184.54C115.778 184.54 119.065 180.495 144.95 178.775C155.169 178.092 170.004 178.014 179.004 178.861C186.767 179.67 194.455 181.089 201.999 183.105Z" fill="#FC7F4F"/>
<path opacity="0.6" d="M209.817 254.525C209.714 257.611 209.56 260.783 209.345 264.033C209.174 266.687 208.976 269.409 208.736 272.193C208.439 275.512 208.081 278.923 207.664 282.427C207.338 285.288 206.96 288.2 206.548 291.174C206.039 294.764 205.467 298.434 204.832 302.186C204.175 306.11 203.431 310.144 202.602 314.287L122.481 314.097C122.37 311.4 122.542 306.542 122.765 299.999C122.859 297.406 122.953 294.484 123.039 291.355C123.108 289.082 123.168 286.662 123.211 284.147C123.271 281.346 123.322 278.399 123.339 275.313C123.339 272.922 123.339 270.45 123.339 267.897C123.339 264.949 123.288 261.907 123.228 258.787C123.228 256.47 123.116 254.119 123.039 251.725C122.765 243.211 122.25 234.196 121.418 224.869C120.253 211.587 118.377 198.378 115.798 185.299C115.798 185.299 119.084 181.254 144.97 179.534C155.197 178.851 170.023 178.765 179.024 179.62C186.797 180.432 194.497 181.851 202.052 183.864C202.052 183.864 211.413 208.239 209.817 254.525Z" fill="white"/>
<path opacity="0.2" d="M131.377 220.41C131.377 220.41 130.665 239.668 123.021 250.983C122.746 242.469 122.231 233.453 121.399 224.127C124.522 221.715 127.928 220.289 131.377 220.41Z" fill="black"/>
<path d="M143.877 143.172C147.043 153.967 151.05 173.899 144.1 181.955C154.971 185.413 162.787 187.746 172.414 194.921C174.937 187.876 178.017 178.74 178.017 178.74C165.576 176.959 165.044 167.84 166.374 159.102L143.877 143.172Z" fill="#DE9185"/>
<path opacity="0.2" d="M153.05 149.68L166.349 159.11C166.013 161.144 165.852 163.203 165.869 165.265C161.158 165.031 154.294 160.493 153.35 155.636C152.888 153.686 152.786 151.667 153.05 149.68Z" fill="black"/>
<path d="M134.783 179.596L142.462 172.326L163.028 179.44L172.02 193.365L175.383 179.25L180.025 175.023L188.167 180.045L186.915 188.991L181.02 186.087L173.916 197.816L158.009 188.412L153.582 192.699L134.783 179.596Z" fill="#FC7F4F"/>
<path opacity="0.2" d="M173.917 197.816L178.061 183.157L186.916 188.991L181.021 186.087L173.917 197.816Z" fill="black"/>
<path opacity="0.2" d="M173.916 197.816L159.896 183.987L153.582 192.699L158.009 188.412L173.916 197.816Z" fill="black"/>
<path d="M148.992 215.544L157.572 226.054C160.489 229.555 163.406 233.038 166.366 236.427C169.326 239.815 172.329 243.151 175.332 246.324C176.843 247.914 178.361 249.421 179.888 250.844C181.407 252.27 182.909 253.636 184.333 254.734C185.036 255.287 185.714 255.762 186.289 256.134C186.589 256.324 186.289 256.134 186.109 256.134C186.03 256.1 185.946 256.082 185.86 256.082C185.791 256.082 185.86 256.082 185.86 256.125C185.86 256.169 185.946 256.177 186.066 256.194C186.679 256.322 187.302 256.391 187.928 256.402C188.812 256.431 189.697 256.413 190.579 256.35C192.492 256.22 194.552 255.909 196.654 255.581C198.756 255.252 200.944 254.829 203.072 254.353C211.746 252.521 220.935 250.896 229.764 248.554L233.848 257.724C229.67 260.317 225.5 262.513 221.184 264.639C216.868 266.766 212.458 268.728 207.876 270.508C203.118 272.408 198.207 273.892 193.196 274.942C191.84 275.202 190.425 275.426 188.906 275.582C187.195 275.759 185.472 275.777 183.758 275.634C183.295 275.634 182.737 275.513 182.231 275.444C181.725 275.374 181.15 275.253 180.515 275.081C179.872 274.916 179.238 274.714 178.619 274.476C178.033 274.235 177.46 273.963 176.903 273.663C175.54 272.966 174.214 272.199 172.93 271.364C170.668 269.888 168.491 268.283 166.409 266.558C164.407 264.91 162.5 263.242 160.686 261.553C157.006 258.191 153.599 254.69 150.279 251.181C146.958 247.672 143.784 244.042 140.695 240.368C139.151 238.536 137.615 236.695 136.13 234.81C134.646 232.926 133.188 231.068 131.677 229.045L148.992 215.544Z" fill="#DE9185"/>
<path d="M109.944 193.953C101.167 221.975 140.6 249.418 140.6 249.418L161.673 225.277C161.673 225.277 152.389 207.99 141.87 192.63C130.854 176.544 114.569 179.198 109.944 193.953Z" fill="#FC7F4F"/>
<path d="M228.57 248.934C228.57 248.934 232.542 242.737 234.198 241.76C235.854 240.783 242.976 236.245 242.976 236.245L250.449 241.155L249.042 242.668L243.036 242.391L238.66 243.973L237.176 251.173L230.844 258.719L228.57 248.934Z" fill="#DE9185"/>
<path opacity="0.2" d="M245.852 239.53L245.286 239.34L243.226 240.187L244.47 240.273L245.852 239.53Z" fill="black"/>
<path d="M256.663 210.306L259.031 206.935C269.953 210.686 286.203 213.755 287.293 217.532C286.538 214.282 295.521 213.124 300.935 210.989L302.737 211.689L287.791 232.157L256.663 210.306Z" fill="#407BFF"/>
<path opacity="0.6" d="M256.663 210.306L259.031 206.935C269.953 210.686 286.203 213.755 287.293 217.532C286.538 214.282 295.521 213.124 300.935 210.989L302.737 211.689L287.791 232.157L256.663 210.306Z" fill="white"/>
<path d="M254.027 206.823L232.02 264.761L262.341 278.849L268.296 278.409L281.586 269.186L303.843 210.574L290.827 219.105L285.147 218.82L254.027 206.823Z" fill="#263238"/>
<path opacity="0.3" d="M254.027 206.823L232.02 264.761L262.341 278.849L285.147 218.82L254.027 206.823Z" fill="white"/>
<path opacity="0.3" d="M290.827 219.105L268.296 278.409L281.587 269.186L303.843 210.574L290.827 219.105Z" fill="white"/>
<path opacity="0.1" d="M262.341 278.849L268.296 278.408L290.827 219.105L285.147 218.82L262.341 278.849Z" fill="white"/>
<path d="M261.397 244.716C261.397 244.673 261.397 244.578 261.191 244.379C260.333 243.515 253.057 236.289 252.474 236.289C251.89 236.289 228.57 248.934 228.57 248.934L230.844 258.779C241.346 265.504 252.826 254.526 252.826 254.526L255.829 252.063C255.829 252.063 258.291 253.481 259.029 253.411C259.432 253.342 261.938 245.978 261.397 244.716ZM249.076 243.636L250.003 246.315L252.01 252.149L249.076 243.636Z" fill="#DE9185"/>
<path d="M183.612 94.2148C183.612 94.2148 192.32 116.887 181.896 128.668C171.471 140.449 161.913 96.8078 161.913 96.8078L183.612 94.2148Z" fill="#263238"/>
<path d="M150.15 155.333C158.061 162.68 168.348 162.767 176.242 158.16C181.55 155.065 185.487 150.048 187.25 144.131C187.505 143.311 187.714 142.477 187.876 141.633C190.802 125.928 187.207 100.421 170.09 94.3788C166.314 93.0261 162.258 92.6693 158.306 93.3423C154.355 94.0154 150.64 95.696 147.516 98.2241C144.391 100.752 141.961 104.044 140.456 107.785C138.951 111.527 138.422 115.595 138.919 119.601C140.712 136.775 141.021 146.94 150.15 155.333Z" fill="#DE9185"/>
<path d="M165.122 123.136C165.122 124.528 165.98 125.634 166.898 125.591C167.817 125.547 168.494 124.355 168.434 122.954C168.374 121.554 167.576 120.456 166.658 120.5C165.74 120.543 165.062 121.71 165.122 123.136Z" fill="#263238"/>
<path d="M180.893 122.349C180.893 123.75 181.751 124.856 182.669 124.804C183.587 124.752 184.256 123.577 184.196 122.211C184.136 120.845 183.338 119.704 182.42 119.756C181.502 119.808 180.833 121.01 180.893 122.349Z" fill="#263238"/>
<path d="M175.891 123.291C177.76 127.506 180.2 131.438 183.141 134.978C182.216 135.715 181.143 136.24 179.996 136.516C178.849 136.793 177.656 136.813 176.5 136.577L175.891 123.291Z" fill="#DE5753"/>
<path d="M159.982 118.235C160.133 118.249 160.284 118.223 160.421 118.159C160.558 118.096 160.676 117.997 160.763 117.872C161.321 117.002 162.073 116.274 162.959 115.749C163.846 115.224 164.842 114.915 165.868 114.847C166.04 114.79 166.189 114.68 166.295 114.533C166.401 114.385 166.458 114.208 166.458 114.026C166.458 113.844 166.401 113.666 166.295 113.519C166.189 113.371 166.04 113.261 165.868 113.205C164.571 113.26 163.305 113.627 162.177 114.275C161.048 114.923 160.09 115.833 159.382 116.93C159.264 117.11 159.218 117.327 159.251 117.54C159.284 117.753 159.395 117.945 159.562 118.08C159.69 118.159 159.833 118.212 159.982 118.235Z" fill="#263238"/>
<path d="M187.395 116.541C187.555 116.589 187.725 116.589 187.884 116.541C188.068 116.431 188.204 116.255 188.266 116.049C188.328 115.842 188.311 115.62 188.219 115.426C187.616 114.265 186.746 113.267 185.682 112.516C184.617 111.764 183.39 111.28 182.101 111.104C181.891 111.103 181.687 111.179 181.528 111.32C181.37 111.46 181.269 111.654 181.243 111.865C181.242 112.076 181.317 112.28 181.454 112.439C181.592 112.599 181.782 112.702 181.99 112.729C183.007 112.896 183.971 113.302 184.804 113.913C185.637 114.524 186.316 115.323 186.786 116.247C186.863 116.335 186.956 116.406 187.061 116.457C187.165 116.507 187.279 116.536 187.395 116.541Z" fill="#263238"/>
<path d="M150.408 97.4473L152.055 104.941C150.843 105.678 149.951 106.847 149.556 108.217C149.162 109.587 149.294 111.056 149.927 112.331C152.965 118.468 150.331 128.702 145.86 133.128C145.86 133.128 145.44 130.379 143.192 131.261C140.944 132.142 142.969 146.456 148.143 152.87C148.143 152.87 140.721 147.329 135.41 132.609C130.494 118.996 128.932 107.405 131.257 101.726L150.408 97.4473Z" fill="#263238"/>
<path d="M132.131 134.113C134.22 137.925 137.726 140.745 141.878 141.953C147.378 143.517 150.149 138.556 148.639 133.309C147.257 128.659 142.744 122.073 137.202 122.885C131.659 123.698 129.557 129.411 132.131 134.113Z" fill="#DE9185"/>
<path d="M152.054 104.941C152.054 104.941 181.664 109.695 186.529 96.1854C191.394 82.6756 171.299 74.8359 168.125 76.4609C164.95 78.0858 169.068 81.2234 169.068 81.2234C169.068 81.2234 150.098 76.1238 146.941 79.0626C143.783 82.0014 151.153 82.8398 151.153 82.8398C151.153 82.8398 120.051 88.0259 130.227 107.111C137.002 103.75 144.758 102.979 152.054 104.941Z" fill="#263238"/>
<path d="M175.976 141.443C174.829 143.78 173.851 146.198 173.05 148.678C172.604 148.617 172.149 148.548 171.703 148.461C165.594 147.45 163.123 144.944 162.171 142.471C161.747 141.258 161.62 139.959 161.802 138.686C161.876 137.958 162.052 137.245 162.325 136.568C165.251 139.057 170.905 140.449 173.9 141.063C175.17 141.339 175.976 141.443 175.976 141.443Z" fill="#263238"/>
<path d="M173.898 141.063L172.98 143.172C167.232 142.204 163.311 140.743 161.826 138.686C161.9 137.958 162.077 137.245 162.35 136.568C165.25 139.057 170.869 140.449 173.898 141.063Z" fill="white"/>
<path d="M171.703 148.461C165.594 147.45 163.123 144.944 162.171 142.471C164.487 142.904 166.71 143.747 168.734 144.961C170.062 145.788 171.1 147.012 171.703 148.461Z" fill="#DD5753"/>
<path d="M167.069 131.728C166.434 131.852 165.784 131.89 165.139 131.84C163.381 131.695 161.743 130.884 160.555 129.571C159.367 128.257 158.719 126.538 158.74 124.761C158.76 122.985 159.45 121.282 160.668 119.997C161.886 118.712 163.543 117.94 165.304 117.838C167.065 117.735 168.799 118.31 170.156 119.445C171.513 120.58 172.393 122.191 172.617 123.954C172.841 125.716 172.393 127.499 171.363 128.942C170.333 130.384 168.799 131.38 167.069 131.728ZM164.384 118.27C163.281 118.496 162.253 119.002 161.398 119.739C160.237 120.738 159.457 122.111 159.189 123.625C158.921 125.139 159.182 126.7 159.928 128.041C160.674 129.383 161.859 130.422 163.28 130.982C164.702 131.543 166.272 131.589 167.724 131.114C169.175 130.639 170.418 129.671 171.241 128.376C172.064 127.081 172.416 125.538 172.236 124.011C172.057 122.484 171.358 121.067 170.258 120.001C169.157 118.935 167.724 118.287 166.203 118.166C165.594 118.114 164.982 118.148 164.384 118.27Z" fill="#263238"/>
<path d="M185.071 130.388C184.442 130.517 183.798 130.554 183.158 130.5C181.301 130.355 179.577 129.472 178.367 128.046C177.156 126.621 176.557 124.769 176.701 122.898C176.846 121.028 177.722 119.292 179.137 118.072C180.552 116.852 182.39 116.249 184.247 116.394C186.104 116.542 187.828 117.426 189.039 118.852C190.25 120.278 190.85 122.129 190.708 124C190.588 125.538 189.972 126.995 188.954 128.148C187.937 129.301 186.573 130.088 185.071 130.388ZM182.403 116.93C180.754 117.257 179.29 118.202 178.307 119.574C177.323 120.946 176.893 122.642 177.103 124.322C177.313 126.001 178.148 127.537 179.439 128.62C180.73 129.703 182.381 130.252 184.058 130.156C185.735 130.061 187.314 129.328 188.476 128.105C189.637 126.882 190.294 125.26 190.315 123.568C190.336 121.876 189.718 120.239 188.587 118.987C187.456 117.736 185.896 116.964 184.222 116.826C183.613 116.782 183.002 116.817 182.403 116.93Z" fill="#263238"/>
<path d="M176.937 123.827C176.896 123.836 176.853 123.832 176.813 123.817C176.774 123.801 176.74 123.775 176.714 123.741C176.576 123.497 176.384 123.288 176.154 123.129C175.924 122.97 175.66 122.866 175.384 122.825C174.055 122.669 172.596 124.018 172.579 124.026C172.539 124.066 172.485 124.088 172.429 124.088C172.372 124.088 172.319 124.066 172.278 124.026C172.258 124.007 172.242 123.983 172.23 123.957C172.219 123.931 172.213 123.903 172.213 123.875C172.213 123.847 172.219 123.818 172.23 123.792C172.242 123.766 172.258 123.743 172.278 123.724C172.347 123.654 173.9 122.22 175.427 122.41C175.765 122.456 176.088 122.578 176.372 122.768C176.656 122.959 176.893 123.211 177.066 123.508C177.096 123.556 177.107 123.615 177.096 123.671C177.085 123.727 177.052 123.777 177.006 123.81C176.985 123.822 176.961 123.828 176.937 123.827Z" fill="#263238"/>
<path d="M158.944 124.467H158.892L143.894 124.329C143.837 124.329 143.783 124.306 143.743 124.265C143.702 124.225 143.68 124.17 143.68 124.113C143.68 124.055 143.702 124 143.743 123.96C143.783 123.919 143.837 123.897 143.894 123.897L158.892 124.035C158.949 124.035 159.003 124.058 159.044 124.098C159.084 124.139 159.107 124.194 159.107 124.251C159.105 124.3 159.089 124.347 159.059 124.385C159.03 124.424 158.99 124.453 158.944 124.467Z" fill="#263238"/>
<path d="M359.51 299.87H68.6653V313.527H359.51V299.87Z" fill="#82498C"/>
<path opacity="0.2" d="M359 303H68.1551V316.657H359V303Z" fill="#FAFAFA"/>
<path d="M363.852 299.87H65.1476C64.2448 299.87 63.3783 300.229 62.7359 300.868C62.0935 301.507 61.7269 302.375 61.7156 303.285C61.7269 304.194 62.0935 305.062 62.7359 305.701C63.3783 306.341 64.2448 306.699 65.1476 306.699H363.852C364.747 306.688 365.603 306.324 366.236 305.686C366.869 305.048 367.23 304.187 367.241 303.285C367.23 302.383 366.869 301.521 366.236 300.883C365.603 300.245 364.747 299.882 363.852 299.87Z" fill="#82498C"/>
<path opacity="0.4" d="M363.612 300H64.9074C64.0046 300 63.1381 300.358 62.4957 300.997C61.8532 301.637 61.4867 302.505 61.4754 303.414C61.4867 304.324 61.8532 305.192 62.4957 305.831C63.1381 306.47 64.0046 306.829 64.9074 306.829H363.612C364.507 306.817 365.363 306.454 365.996 305.816C366.629 305.178 366.99 304.316 367.001 303.414C366.99 302.512 366.629 301.65 365.996 301.013C365.363 300.375 364.507 300.011 363.612 300Z" fill="#FAFAFA"/>
</svg>
