<svg width="429" height="323" viewBox="0 0 429 323" fill="none" xmlns="http://www.w3.org/2000/svg">
<path d="M-3.05176e-05 282.99H429V283.206H-3.05176e-05V282.99Z" fill="#EBEBEB"/>
<path d="M42.9869 296.897H71.4038V297.113H42.9869V296.897Z" fill="#EBEBEB"/>
<path d="M144.812 299.248H152.268V299.464H144.812V299.248Z" fill="#EBEBEB"/>
<path d="M72.2614 288.876H88.7264V289.092H72.2614V288.876Z" fill="#EBEBEB"/>
<path d="M346.932 290.328H383.989V290.544H346.932V290.328Z" fill="#EBEBEB"/>
<path d="M333.856 290.328H339.287V290.544H333.856V290.328Z" fill="#EBEBEB"/>
<path d="M235.821 293.975H316.198V294.191H235.821V293.975Z" fill="#EBEBEB"/>
<path d="M225.653 244.439H391.325C392.622 244.437 393.866 243.916 394.783 242.991C395.7 242.065 396.215 240.811 396.215 239.504V4.89224C396.204 3.59228 395.684 2.3493 394.768 1.43329C393.853 0.51728 392.615 0.00222691 391.325 0H225.653C224.354 0 223.108 0.519985 222.189 1.44556C221.27 2.37114 220.754 3.6265 220.754 4.93546V239.504C220.754 240.813 221.27 242.068 222.189 242.994C223.108 243.919 224.354 244.439 225.653 244.439V244.439ZM391.325 0.172871C392.566 0.175161 393.755 0.673388 394.632 1.55819C395.508 2.443 396.001 3.64209 396.001 4.89224V239.504C396.001 240.754 395.508 241.953 394.632 242.838C393.755 243.723 392.566 244.221 391.325 244.223H225.653C224.412 244.221 223.221 243.723 222.343 242.838C221.465 241.954 220.971 240.755 220.969 239.504V4.89224C220.971 3.64129 221.465 2.44223 222.343 1.55767C223.221 0.673107 224.412 0.175156 225.653 0.172871H391.325Z" fill="#EBEBEB"/>
<path d="M40.0596 244.439H205.739C207.038 244.437 208.283 243.916 209.201 242.991C210.119 242.066 210.636 240.812 210.639 239.504V4.89224C210.625 3.59149 210.103 2.34852 209.186 1.43275C208.269 0.516978 207.031 0.00220263 205.739 0H40.0596C38.7706 0.00449853 37.5353 0.520557 36.6215 1.43632C35.7076 2.35209 35.1888 3.59377 35.1775 4.89224V239.504C35.1775 240.81 35.6913 242.063 36.6064 242.988C37.5215 243.913 38.7632 244.435 40.0596 244.439V244.439ZM205.739 0.172871C206.981 0.175156 208.171 0.673107 209.049 1.55767C209.927 2.44223 210.422 3.64129 210.424 4.89224V239.504C210.422 240.755 209.927 241.954 209.049 242.838C208.171 243.723 206.981 244.221 205.739 244.223H40.0596C38.8178 244.221 37.6276 243.723 36.7495 242.838C35.8714 241.954 35.3772 240.755 35.3749 239.504V4.89224C35.3772 3.64129 35.8714 2.44223 36.7495 1.55767C37.6276 0.673107 38.8178 0.175156 40.0596 0.172871H205.739Z" fill="#EBEBEB"/>
<path d="M216.387 98.329H341.844V283.621H216.387V98.329Z" fill="#F0F0F0"/>
<path d="M220.823 104.163H337.408V138.383H220.823V104.163Z" fill="#E0E0E0"/>
<path d="M330.784 109.704H337.408V138.383H330.784V109.704Z" fill="#EBEBEB"/>
<path d="M298.756 109.704H305.38V138.383H298.756V109.704Z" fill="#EBEBEB"/>
<path d="M262.405 108.98L268.932 110.113L264.096 138.376L257.569 137.242L262.405 108.98Z" fill="#EBEBEB"/>
<path d="M322.574 113.481H329.198V138.383H322.574V113.481Z" fill="#EBEBEB"/>
<path d="M307.353 113.481H313.977V138.383H307.353V113.481Z" fill="#EBEBEB"/>
<path d="M268.932 113.481H275.556V138.383H268.932V113.481Z" fill="#EBEBEB"/>
<path d="M290.06 112.621L296.526 114.069L291.163 138.378L284.697 136.93L290.06 112.621Z" fill="#EBEBEB"/>
<path d="M316.852 108.278H320.164V138.383H316.852V108.278Z" fill="#EBEBEB"/>
<path d="M277.46 108.278H280.771V138.383H277.46V108.278Z" fill="#EBEBEB"/>
<path d="M337.409 178.022L220.824 178.022V143.803H337.409V178.022Z" fill="#E0E0E0"/>
<path d="M227.438 178.022H220.814V149.343H227.438V178.022Z" fill="#EBEBEB"/>
<path d="M259.468 178.022H252.844V149.343H259.468V178.022Z" fill="#EBEBEB"/>
<path d="M300.644 176.886L294.117 178.02L289.281 149.757L295.809 148.624L300.644 176.886Z" fill="#EBEBEB"/>
<path d="M235.65 178.022H229.027V153.12H235.65V178.022Z" fill="#EBEBEB"/>
<path d="M250.879 178.022H244.255V153.12H250.879V178.022Z" fill="#EBEBEB"/>
<path d="M289.292 178.022H282.668V153.12H289.292V178.022Z" fill="#EBEBEB"/>
<path d="M273.513 176.574L267.047 178.021L261.685 153.712L268.151 152.265L273.513 176.574Z" fill="#EBEBEB"/>
<path d="M241.372 178.022H238.061V147.917H241.372V178.022Z" fill="#EBEBEB"/>
<path d="M280.773 178.022H277.461V147.917H280.773V178.022Z" fill="#EBEBEB"/>
<path d="M330.784 149.343H337.408V178.022H330.784V149.343Z" fill="#EBEBEB"/>
<path d="M322.574 153.12H329.198V178.022H322.574V153.12Z" fill="#EBEBEB"/>
<path d="M307.353 153.12H313.977V178.022H307.353V153.12Z" fill="#EBEBEB"/>
<path d="M316.852 147.917H320.164V178.022H316.852V147.917Z" fill="#EBEBEB"/>
<path d="M220.823 183.442H337.408V217.662H220.823V183.442Z" fill="#E0E0E0"/>
<path d="M263.869 188.983H270.493V217.662H263.869V188.983Z" fill="#EBEBEB"/>
<path d="M227.509 188.265L234.037 189.399L229.201 217.661L222.674 216.528L227.509 188.265Z" fill="#EBEBEB"/>
<path d="M287.687 192.76H294.31V217.662H287.687V192.76Z" fill="#EBEBEB"/>
<path d="M272.458 192.76H279.082V217.662H272.458V192.76Z" fill="#EBEBEB"/>
<path d="M234.037 192.76H240.66V217.662H234.037V192.76Z" fill="#EBEBEB"/>
<path d="M255.156 191.902L261.622 193.35L256.259 217.659L249.793 216.211L255.156 191.902Z" fill="#EBEBEB"/>
<path d="M281.956 187.556H285.268V217.662H281.956V187.556Z" fill="#EBEBEB"/>
<path d="M242.564 187.556H245.876V217.662H242.564V187.556Z" fill="#EBEBEB"/>
<path d="M303.708 188.27L310.236 189.404L305.4 217.666L298.872 216.533L303.708 188.27Z" fill="#EBEBEB"/>
<path d="M310.235 192.76H316.859V217.662H310.235V192.76Z" fill="#EBEBEB"/>
<path d="M331.359 191.899L337.825 193.347L332.462 217.656L325.996 216.208L331.359 191.899Z" fill="#EBEBEB"/>
<path d="M318.755 187.556H322.067V217.662H318.755V187.556Z" fill="#EBEBEB"/>
<path d="M363.492 284.113H341.844V98.3289H363.492V284.113Z" fill="#E0E0E0"/>
<path d="M84.8559 50.9623H163.749V230.005H84.8559V50.9623Z" fill="#EBEBEB"/>
<path d="M86.8295 226.115L86.8295 53.7888L159.768 53.7888V226.115H86.8295Z" fill="#FAFAFA"/>
<path d="M123.475 53.4604H125.148V228.328H123.475V53.4604Z" fill="#F5F5F5"/>
<path d="M83.0465 48.6371H165.578V57.0645H83.0465V48.6371Z" fill="#E0E0E0"/>
<path d="M83.0465 57.9895H165.578V58.9922H83.0465V57.9895Z" fill="#F5F5F5"/>
<path d="M83.0465 60.2627H165.578V61.2653H83.0465V60.2627Z" fill="#F5F5F5"/>
<path d="M83.0465 62.5273H165.578V63.53H83.0465V62.5273Z" fill="#F5F5F5"/>
<path d="M83.0465 64.7921H165.578V65.7948H83.0465V64.7921Z" fill="#F5F5F5"/>
<path d="M83.0465 67.0566H165.578V68.0593H83.0465V67.0566Z" fill="#F5F5F5"/>
<path d="M83.0465 69.3298H165.578V70.3325H83.0465V69.3298Z" fill="#F5F5F5"/>
<path d="M83.0465 71.5945H165.578V72.5971H83.0465V71.5945Z" fill="#F5F5F5"/>
<path d="M83.0465 73.859H165.578V74.8617H83.0465V73.859Z" fill="#F5F5F5"/>
<path d="M83.0465 76.1238H165.578V77.1264H83.0465V76.1238Z" fill="#F5F5F5"/>
<path d="M83.0465 78.397H165.578V79.3996H83.0465V78.397Z" fill="#F5F5F5"/>
<path d="M83.0465 80.6616H165.578V81.6643H83.0465V80.6616Z" fill="#F5F5F5"/>
<path d="M83.0465 82.9261H165.578V83.9288H83.0465V82.9261Z" fill="#F5F5F5"/>
<path d="M83.0465 85.1907H165.578V86.1933H83.0465V85.1907Z" fill="#F5F5F5"/>
<path d="M83.0465 87.4552H165.578V88.4579H83.0465V87.4552Z" fill="#F5F5F5"/>
<path d="M83.0465 89.7286H165.578V90.7313H83.0465V89.7286Z" fill="#F5F5F5"/>
<path d="M83.0465 91.9933H165.578V92.9959H83.0465V91.9933Z" fill="#F5F5F5"/>
<path d="M83.0465 94.2578H165.578V95.2605H83.0465V94.2578Z" fill="#F5F5F5"/>
<path d="M83.0465 96.5223H165.578V97.525H83.0465V96.5223Z" fill="#F5F5F5"/>
<path d="M250.99 65.1205C243.266 65.1205 237.004 58.8126 237.004 51.0315C237.004 43.2504 243.266 36.9425 250.99 36.9425C258.714 36.9425 264.975 43.2504 264.975 51.0315C264.975 58.8126 258.714 65.1205 250.99 65.1205Z" fill="#E0E0E0"/>
<path d="M250.991 63.0113C244.423 63.0113 239.099 57.6477 239.099 51.0313C239.099 44.415 244.423 39.0514 250.991 39.0514C257.559 39.0514 262.883 44.415 262.883 51.0313C262.883 57.6477 257.559 63.0113 250.991 63.0113Z" fill="#F0F0F0"/>
<path d="M250.433 42.8114V51.187L244.925 48.0494" fill="#F0F0F0"/>
<path d="M250.433 52.0601C250.661 52.0601 250.879 51.969 251.04 51.8069C251.201 51.6448 251.291 51.425 251.291 51.1957V42.8115C251.291 42.5823 251.201 42.3624 251.04 42.2003C250.879 42.0382 250.661 41.9471 250.433 41.9471C250.206 41.9471 249.987 42.0382 249.827 42.2003C249.666 42.3624 249.575 42.5823 249.575 42.8115V49.7263L245.345 47.3148C245.147 47.2028 244.913 47.1745 244.694 47.2361C244.476 47.2976 244.29 47.4441 244.178 47.6432C244.067 47.8417 244.037 48.0767 244.097 48.2969C244.156 48.5171 244.3 48.7047 244.496 48.8188L250.013 51.965C250.143 52.0305 250.288 52.0631 250.433 52.0601Z" fill="#E0E0E0"/>
<path d="M214.501 322.024C122.624 322.024 48.143 317.643 48.143 312.239C48.143 306.835 122.624 302.455 214.501 302.455C306.377 302.455 380.858 306.835 380.858 312.239C380.858 317.643 306.377 322.024 214.501 322.024Z" fill="#F5F5F5"/>
<path d="M143.13 286.101H77.6044V299.931H143.156C142.558 295.341 142.55 290.693 143.13 286.101V286.101Z" fill="#676F74"/>
<path opacity="0.7" d="M143.13 286.101H77.6044V299.931H143.156C142.558 295.341 142.55 290.693 143.13 286.101V286.101Z" fill="white"/>
<path d="M88.3212 299.387C86.6225 297.674 85.6684 295.351 85.6684 292.93C85.6684 290.509 86.6225 288.186 88.3212 286.473L89.5481 285.237H68.9561L68.7416 285.445C66.7742 287.43 65.6692 290.12 65.6692 292.926C65.6692 295.731 66.7742 298.421 68.7416 300.407L68.9561 300.623H89.5481L88.3212 299.387Z" fill="#676F74"/>
<g opacity="0.3">
<path opacity="0.3" d="M88.3204 299.386C86.6218 297.673 85.6677 295.351 85.6677 292.93C85.6677 290.508 86.6218 288.186 88.3204 286.473L89.5474 285.237H68.9554L68.7409 285.444C66.7735 287.43 65.6685 290.12 65.6685 292.925C65.6685 295.731 66.7735 298.421 68.7409 300.406L68.9554 300.622H89.5474L88.3204 299.386Z" fill="black"/>
</g>
<path d="M143.8 300.622H88.1847L88.1246 300.562C86.18 298.638 85.0304 296.044 84.9071 293.301C84.8519 291.849 85.0956 290.402 85.6227 289.05C86.1499 287.698 86.9491 286.47 87.9702 285.444L88.1847 285.237H143.8C143.894 285.236 143.988 285.253 144.075 285.289C144.163 285.324 144.242 285.377 144.309 285.444C144.376 285.511 144.43 285.59 144.466 285.678C144.502 285.765 144.521 285.859 144.521 285.954V285.954C144.522 286.05 144.504 286.145 144.468 286.233C144.433 286.322 144.38 286.403 144.312 286.47C144.245 286.538 144.165 286.591 144.077 286.627C143.989 286.663 143.895 286.681 143.8 286.68H88.7853C87.2096 288.372 86.3327 290.605 86.3327 292.925C86.3327 295.245 87.2096 297.478 88.7853 299.17H143.8C143.991 299.17 144.175 299.247 144.31 299.383C144.445 299.519 144.521 299.704 144.521 299.896V299.896C144.521 300.089 144.445 300.273 144.31 300.41C144.175 300.546 143.991 300.622 143.8 300.622V300.622Z" fill="#676F74"/>
<path d="M137.991 291.287H134.843C134.699 291.287 134.562 291.23 134.46 291.128C134.359 291.026 134.302 290.887 134.302 290.743V290.743C134.302 290.598 134.359 290.46 134.46 290.358C134.562 290.256 134.699 290.198 134.843 290.198H137.991C138.135 290.198 138.272 290.256 138.374 290.358C138.475 290.46 138.532 290.598 138.532 290.743V290.743C138.532 290.887 138.475 291.026 138.374 291.128C138.272 291.23 138.135 291.287 137.991 291.287V291.287Z" fill="white"/>
<path d="M130.708 291.287H101.535C101.392 291.287 101.255 291.23 101.153 291.128C101.052 291.026 100.995 290.887 100.995 290.743V290.743C100.995 290.598 101.052 290.46 101.153 290.358C101.255 290.256 101.392 290.198 101.535 290.198H130.708C130.851 290.198 130.988 290.256 131.09 290.358C131.191 290.46 131.248 290.598 131.248 290.743V290.743C131.248 290.887 131.191 291.026 131.09 291.128C130.988 291.23 130.851 291.287 130.708 291.287V291.287Z" fill="white"/>
<path d="M97.536 291.287H91.0667C90.9233 291.287 90.7858 291.23 90.6845 291.128C90.5831 291.026 90.5261 290.887 90.5261 290.743V290.743C90.5261 290.598 90.5831 290.46 90.6845 290.358C90.7858 290.256 90.9233 290.198 91.0667 290.198H97.536C97.6794 290.198 97.8169 290.256 97.9182 290.358C98.0196 290.46 98.0765 290.598 98.0765 290.743V290.743C98.0765 290.887 98.0196 291.026 97.9182 291.128C97.8169 291.23 97.6794 291.287 97.536 291.287V291.287Z" fill="white"/>
<path d="M137.991 295.851H110.304C110.16 295.851 110.023 295.794 109.922 295.692C109.82 295.59 109.763 295.451 109.763 295.307V295.307C109.763 295.162 109.82 295.024 109.922 294.922C110.023 294.819 110.16 294.762 110.304 294.762H137.991C138.135 294.762 138.272 294.819 138.374 294.922C138.475 295.024 138.532 295.162 138.532 295.307V295.307C138.532 295.451 138.475 295.59 138.374 295.692C138.272 295.794 138.135 295.851 137.991 295.851V295.851Z" fill="white"/>
<path d="M106.254 295.851H91.0672C90.9238 295.851 90.7863 295.794 90.6849 295.692C90.5836 295.59 90.5266 295.451 90.5266 295.307V295.307C90.5266 295.162 90.5836 295.024 90.6849 294.922C90.7863 294.819 90.9238 294.762 91.0672 294.762H106.254C106.397 294.762 106.535 294.819 106.636 294.922C106.737 295.024 106.794 295.162 106.794 295.307V295.307C106.794 295.451 106.737 295.59 106.636 295.692C106.535 295.794 106.397 295.851 106.254 295.851V295.851Z" fill="white"/>
<path d="M141.397 258.347H82.4262V270.733H141.414C140.88 266.622 140.875 262.459 141.397 258.347V258.347Z" fill="#676F74"/>
<path opacity="0.8" d="M141.397 258.347H82.4262V270.733H141.414C140.88 266.622 140.875 262.459 141.397 258.347V258.347Z" fill="white"/>
<path d="M92.0615 270.275C90.5331 268.732 89.6748 266.642 89.6748 264.462C89.6748 262.283 90.5331 260.192 92.0615 258.649L93.1683 257.578H74.6441L74.4553 257.768C73.5759 258.651 72.8781 259.7 72.402 260.856C71.9259 262.011 71.6808 263.25 71.6808 264.501C71.6808 265.752 71.9259 266.991 72.402 268.146C72.8781 269.302 73.5759 270.351 74.4553 271.234L74.6441 271.407H93.1769L92.0615 270.275Z" fill="#676F74"/>
<g opacity="0.2">
<path opacity="0.2" d="M92.0607 270.275C90.5324 268.732 89.6741 266.642 89.6741 264.462C89.6741 262.282 90.5324 260.192 92.0607 258.649L93.1676 257.577H74.6433L74.4546 257.768C73.5751 258.651 72.8774 259.7 72.4013 260.856C71.9252 262.011 71.6801 263.25 71.6801 264.501C71.6801 265.752 71.9252 266.991 72.4013 268.146C72.8774 269.301 73.5751 270.351 74.4546 271.234L74.6433 271.407H93.1761L92.0607 270.275Z" fill="white"/>
</g>
<path d="M141.998 271.407H91.9423L91.8908 271.355C90.1387 269.629 89.1022 267.296 88.9908 264.83C88.9397 263.521 89.1588 262.216 89.6344 260.998C90.11 259.779 90.8316 258.673 91.7535 257.75L91.9423 257.56H141.998C142.171 257.56 142.337 257.63 142.459 257.753C142.581 257.876 142.65 258.043 142.65 258.217V258.217C142.648 258.39 142.578 258.555 142.456 258.676C142.334 258.797 142.169 258.865 141.998 258.865H92.4828C91.069 260.39 90.2826 262.398 90.2826 264.484C90.2826 266.57 91.069 268.578 92.4828 270.102H141.998C142.083 270.101 142.168 270.117 142.247 270.149C142.326 270.181 142.398 270.229 142.459 270.289C142.519 270.349 142.567 270.421 142.6 270.5C142.633 270.579 142.65 270.664 142.65 270.75V270.75C142.651 270.837 142.635 270.923 142.603 271.003C142.57 271.083 142.522 271.156 142.462 271.217C142.401 271.279 142.329 271.327 142.249 271.36C142.169 271.392 142.084 271.408 141.998 271.407Z" fill="#676F74"/>
<g opacity="0.4">
<path opacity="0.4" d="M141.998 271.407H91.9422L91.8907 271.356C90.1386 269.629 89.1021 267.296 88.9906 264.83C88.9395 263.521 89.1587 262.216 89.6343 260.998C90.1099 259.779 90.8315 258.674 91.7534 257.751L91.9422 257.56H141.998C142.171 257.56 142.337 257.63 142.459 257.753C142.581 257.876 142.65 258.043 142.65 258.217V258.217C142.648 258.39 142.578 258.555 142.456 258.676C142.334 258.798 142.169 258.866 141.998 258.866H92.4827C91.0689 260.39 90.2825 262.398 90.2825 264.484C90.2825 266.57 91.0689 268.578 92.4827 270.102H141.998C142.083 270.101 142.168 270.117 142.247 270.149C142.326 270.181 142.398 270.229 142.458 270.289C142.519 270.349 142.567 270.421 142.6 270.5C142.633 270.58 142.65 270.665 142.65 270.75V270.75C142.651 270.837 142.635 270.923 142.603 271.003C142.57 271.083 142.522 271.156 142.462 271.218C142.401 271.279 142.328 271.327 142.249 271.36C142.169 271.392 142.084 271.409 141.998 271.407Z" fill="white"/>
</g>
<path d="M136.764 262.963H133.933C133.805 262.963 133.683 262.912 133.593 262.821C133.503 262.73 133.452 262.607 133.452 262.479V262.479C133.451 262.414 133.463 262.35 133.486 262.291C133.51 262.231 133.545 262.177 133.59 262.131C133.635 262.085 133.688 262.048 133.747 262.024C133.806 261.999 133.869 261.986 133.933 261.986H136.764C136.894 261.986 137.018 262.038 137.11 262.13C137.202 262.223 137.253 262.348 137.253 262.479V262.479C137.251 262.608 137.198 262.731 137.107 262.821C137.015 262.912 136.892 262.963 136.764 262.963V262.963Z" fill="white"/>
<path d="M130.209 262.963H103.92C103.792 262.963 103.669 262.912 103.577 262.822C103.486 262.731 103.433 262.608 103.431 262.479C103.431 262.348 103.482 262.223 103.574 262.13C103.666 262.038 103.79 261.986 103.92 261.986H130.209C130.274 261.985 130.338 261.997 130.398 262.021C130.458 262.045 130.512 262.082 130.558 262.128C130.603 262.174 130.639 262.229 130.663 262.289C130.687 262.349 130.699 262.414 130.698 262.479V262.479C130.698 262.543 130.685 262.607 130.661 262.666C130.636 262.725 130.6 262.779 130.554 262.824C130.509 262.869 130.455 262.905 130.396 262.928C130.336 262.952 130.273 262.964 130.209 262.963V262.963Z" fill="white"/>
<path d="M100.385 262.963H94.5588C94.4313 262.963 94.3091 262.912 94.219 262.821C94.1289 262.73 94.0783 262.607 94.0783 262.479V262.479C94.0771 262.414 94.0887 262.35 94.1124 262.291C94.136 262.231 94.1712 262.177 94.216 262.131C94.2607 262.085 94.314 262.048 94.3729 262.024C94.4317 261.999 94.4949 261.986 94.5588 261.986H100.385C100.514 261.986 100.639 262.038 100.73 262.13C100.822 262.223 100.874 262.348 100.874 262.479V262.479C100.871 262.608 100.819 262.731 100.727 262.821C100.636 262.912 100.513 262.963 100.385 262.963V262.963Z" fill="white"/>
<path d="M136.764 267.086H111.882C111.752 267.086 111.628 267.034 111.536 266.941C111.445 266.849 111.393 266.724 111.393 266.593V266.593C111.395 266.464 111.448 266.341 111.539 266.25C111.631 266.16 111.754 266.109 111.882 266.109H136.764C136.892 266.109 137.015 266.16 137.107 266.25C137.198 266.341 137.251 266.464 137.253 266.593V266.593C137.253 266.724 137.202 266.849 137.11 266.941C137.018 267.034 136.894 267.086 136.764 267.086V267.086Z" fill="white"/>
<path d="M108.211 267.086H94.5342C94.4704 267.086 94.4072 267.073 94.3483 267.048C94.2895 267.023 94.2361 266.987 94.1914 266.941C94.1467 266.895 94.1115 266.841 94.0878 266.781C94.0642 266.721 94.0526 266.657 94.0537 266.593C94.0537 266.465 94.1044 266.341 94.1945 266.251C94.2846 266.16 94.4068 266.109 94.5342 266.109H108.211C108.338 266.109 108.46 266.16 108.55 266.251C108.641 266.341 108.691 266.465 108.691 266.593C108.692 266.657 108.681 266.721 108.657 266.781C108.634 266.841 108.598 266.895 108.554 266.941C108.509 266.987 108.455 267.023 108.397 267.048C108.338 267.073 108.275 267.086 108.211 267.086Z" fill="white"/>
<path d="M143.473 272.194H84.5025V284.58H143.49C142.957 280.469 142.951 276.306 143.473 272.194V272.194Z" fill="#676F74"/>
<path opacity="0.7" d="M143.473 272.194H84.5025V284.58H143.49C142.957 280.469 142.951 276.306 143.473 272.194V272.194Z" fill="white"/>
<path d="M94.1388 284.122C92.6105 282.579 91.7521 280.489 91.7521 278.309C91.7521 276.13 92.6105 274.039 94.1388 272.496L95.2371 271.407H76.7043L76.5155 271.606C75.6373 272.489 74.9407 273.538 74.4653 274.693C73.99 275.847 73.7453 277.085 73.7453 278.335C73.7453 279.585 73.99 280.823 74.4653 281.978C74.9407 283.132 75.6373 284.181 76.5155 285.064L76.7043 285.263H95.2371L94.1388 284.122Z" fill="#676F74"/>
<path d="M144.074 285.237H94.0186L93.9671 285.177C92.215 283.45 91.1786 281.117 91.0671 278.651C91.0151 277.344 91.2339 276.04 91.7095 274.822C92.1852 273.605 92.9073 272.501 93.8298 271.58L94.0186 271.381H144.074C144.247 271.381 144.413 271.451 144.535 271.574C144.658 271.697 144.726 271.864 144.726 272.038V272.038C144.726 272.124 144.709 272.209 144.677 272.288C144.644 272.368 144.596 272.44 144.535 272.5C144.474 272.56 144.402 272.608 144.323 272.64C144.244 272.672 144.16 272.688 144.074 272.687H94.5591C93.1453 274.211 92.3589 276.219 92.3589 278.305C92.3589 280.391 93.1453 282.399 94.5591 283.923H144.074C144.16 283.922 144.244 283.938 144.323 283.97C144.402 284.002 144.474 284.05 144.535 284.11C144.596 284.17 144.644 284.242 144.677 284.321C144.709 284.401 144.726 284.486 144.726 284.572V284.572C144.728 284.659 144.711 284.745 144.679 284.826C144.647 284.906 144.599 284.98 144.538 285.042C144.478 285.104 144.406 285.153 144.326 285.186C144.246 285.22 144.161 285.237 144.074 285.237V285.237Z" fill="#676F74"/>
<g opacity="0.3">
<path opacity="0.3" d="M144.074 285.237H94.0186L93.9671 285.177C92.215 283.45 91.1786 281.117 91.0671 278.651C91.0151 277.344 91.2339 276.04 91.7095 274.822C92.1852 273.605 92.9073 272.501 93.8298 271.58L94.0186 271.381H144.074C144.247 271.381 144.413 271.451 144.535 271.574C144.658 271.697 144.726 271.864 144.726 272.038V272.038C144.726 272.124 144.709 272.209 144.677 272.288C144.644 272.368 144.596 272.44 144.535 272.5C144.474 272.56 144.402 272.608 144.323 272.64C144.244 272.672 144.16 272.688 144.074 272.687H94.5591C93.1453 274.211 92.3589 276.219 92.3589 278.305C92.3589 280.391 93.1453 282.399 94.5591 283.923H144.074C144.16 283.922 144.244 283.938 144.323 283.97C144.402 284.002 144.474 284.05 144.535 284.11C144.596 284.17 144.644 284.242 144.677 284.321C144.709 284.401 144.726 284.486 144.726 284.572V284.572C144.728 284.659 144.711 284.745 144.679 284.826C144.647 284.906 144.599 284.98 144.538 285.042C144.478 285.104 144.406 285.153 144.326 285.186C144.246 285.22 144.161 285.237 144.074 285.237V285.237Z" fill="white"/>
</g>
<path d="M96.6087 279.964H99.4401C99.5684 279.964 99.6915 280.015 99.783 280.106C99.8744 280.196 99.9269 280.319 99.9292 280.449V280.449C99.9292 280.579 99.8777 280.704 99.7859 280.797C99.6942 280.889 99.5698 280.941 99.4401 280.941H96.6087C96.5449 280.941 96.4817 280.928 96.4229 280.904C96.364 280.879 96.3106 280.842 96.2659 280.796C96.2212 280.751 96.186 280.696 96.1623 280.636C96.1387 280.577 96.1271 280.513 96.1283 280.449C96.1283 280.32 96.1789 280.197 96.269 280.106C96.3591 280.015 96.4813 279.964 96.6087 279.964Z" fill="white"/>
<path d="M103.165 279.965H129.454C129.518 279.963 129.581 279.975 129.64 279.999C129.7 280.023 129.754 280.058 129.799 280.103C129.845 280.148 129.881 280.202 129.906 280.261C129.93 280.321 129.943 280.384 129.943 280.449C129.944 280.514 129.932 280.578 129.908 280.639C129.884 280.699 129.848 280.754 129.802 280.8C129.757 280.846 129.702 280.882 129.642 280.906C129.583 280.931 129.519 280.942 129.454 280.941H103.165C103.035 280.941 102.911 280.889 102.819 280.797C102.727 280.705 102.676 280.579 102.676 280.449V280.449C102.678 280.319 102.731 280.196 102.822 280.106C102.914 280.015 103.037 279.965 103.165 279.965V279.965Z" fill="white"/>
<path d="M132.988 279.964H138.814C138.942 279.964 139.066 280.015 139.157 280.106C139.248 280.196 139.301 280.319 139.303 280.449V280.449C139.303 280.579 139.252 280.704 139.16 280.797C139.068 280.889 138.944 280.941 138.814 280.941H132.988C132.925 280.941 132.861 280.928 132.802 280.904C132.744 280.879 132.69 280.842 132.646 280.796C132.601 280.751 132.566 280.696 132.542 280.636C132.518 280.577 132.507 280.513 132.508 280.449C132.508 280.32 132.559 280.197 132.649 280.106C132.739 280.015 132.861 279.964 132.988 279.964Z" fill="white"/>
<path d="M96.6093 275.833H121.491C121.556 275.831 121.62 275.843 121.68 275.868C121.74 275.892 121.794 275.928 121.84 275.974C121.885 276.02 121.921 276.075 121.946 276.135C121.97 276.196 121.982 276.26 121.98 276.325V276.325C121.98 276.39 121.968 276.453 121.943 276.513C121.918 276.572 121.882 276.626 121.837 276.671C121.791 276.716 121.737 276.751 121.678 276.775C121.619 276.799 121.555 276.81 121.491 276.809H96.6093C96.4819 276.809 96.3597 276.758 96.2696 276.668C96.1795 276.577 96.1288 276.454 96.1288 276.325C96.1277 276.261 96.1393 276.197 96.1629 276.137C96.1865 276.078 96.2218 276.023 96.2665 275.977C96.3112 275.932 96.3646 275.895 96.4234 275.87C96.4823 275.845 96.5455 275.833 96.6093 275.833Z" fill="white"/>
<path d="M125.172 275.833H138.84C138.97 275.833 139.094 275.885 139.186 275.977C139.278 276.069 139.329 276.195 139.329 276.325V276.325C139.327 276.454 139.275 276.578 139.183 276.668C139.092 276.759 138.969 276.809 138.84 276.809H125.172C125.109 276.81 125.045 276.799 124.986 276.775C124.927 276.751 124.873 276.716 124.827 276.671C124.782 276.626 124.745 276.572 124.721 276.513C124.696 276.453 124.683 276.39 124.683 276.325C124.682 276.26 124.694 276.196 124.718 276.135C124.742 276.075 124.778 276.02 124.824 275.974C124.87 275.928 124.924 275.892 124.984 275.868C125.044 275.843 125.108 275.831 125.172 275.833V275.833Z" fill="white"/>
<path d="M210.056 202.38L197.984 208.517C193.926 210.548 189.859 212.562 185.792 214.481C181.725 216.4 177.658 218.224 173.643 219.909C171.627 220.774 169.628 221.517 167.637 222.217C165.646 222.917 163.759 223.539 162.017 223.946C161.159 224.17 160.344 224.335 159.666 224.438C159.323 224.49 159.666 224.438 159.838 224.49C159.923 224.496 160.008 224.517 160.087 224.551C160.147 224.551 160.087 224.551 160.087 224.594C160.015 224.6 159.943 224.6 159.872 224.594C159.259 224.466 158.658 224.281 158.079 224.041C157.258 223.708 156.456 223.33 155.676 222.909C153.96 222.044 152.244 220.912 150.417 219.762C148.589 218.613 146.822 217.351 145.029 216.037C137.813 210.851 130.623 204.956 123.459 199.268L115.505 206.676C118.302 210.712 121.236 214.455 124.342 218.146C127.448 221.837 130.7 225.415 134.184 228.907C137.786 232.567 141.693 235.91 145.861 238.899C147.045 239.736 148.271 240.512 149.533 241.224C151.017 242.072 152.577 242.778 154.192 243.333C154.63 243.497 155.17 243.644 155.659 243.783C156.148 243.921 156.732 244.042 157.375 244.137C158.031 244.249 158.693 244.321 159.357 244.353C160.078 244.353 161.073 244.353 161.279 244.353C162.918 244.258 164.411 244.077 165.835 243.852C168.496 243.424 171.131 242.847 173.729 242.123C176.206 241.414 178.616 240.659 180.962 239.858C185.672 238.259 190.177 236.401 194.63 234.551C199.083 232.702 203.424 230.644 207.714 228.501C209.859 227.446 212.004 226.383 214.115 225.26C216.225 224.136 218.293 223.021 220.49 221.802L210.056 202.38Z" fill="#DE9185"/>
<path opacity="0.2" d="M104.033 175.896L101.828 174.988L101.519 174.34L104.033 175.896Z" fill="black"/>
<path d="M98.8929 173.459L105.98 177.383L112.243 180.927L99.9483 191.178C99.9483 191.178 96.5163 185.128 95.9929 182.681C95.7441 181.454 98.8929 173.459 98.8929 173.459Z" fill="#DE9185"/>
<path d="M113.84 179.786C112.994 178.023 112.046 176.311 111 174.66C110.4 174.064 100.97 174.349 100.97 174.349L102.498 175.464L106.307 178.921L110.151 182.422L113.84 179.786Z" fill="#DE9185"/>
<path d="M123.637 199.796L113.839 179.786L99.6306 189.968C99.6306 189.968 102.96 206.054 115.83 206.736L123.637 199.796Z" fill="#DE9185"/>
<path d="M96.7666 170.577L136.915 195.32L135.71 197.303L95.5619 172.56L96.7666 170.577Z" fill="#263238"/>
<path d="M94.0975 172.499L90.1249 168.679L95.3073 170.511L94.0975 172.499Z" fill="#263238"/>
<path opacity="0.3" d="M94.0975 172.499L91.3433 169.854L90.1249 168.679L95.3073 170.511L94.0975 172.499Z" fill="white"/>
<path d="M91.2661 169.785L90.4768 169.016L90.125 168.679L91.6179 169.206L91.2661 169.785Z" fill="#263238"/>
<path opacity="0.2" d="M115.367 182.88L117.28 186.796L118.498 187.548L116.799 183.77L115.367 182.88Z" fill="black"/>
<path opacity="0.2" d="M108.382 178.576L109.197 181.834L110.15 182.422L114.783 183.969L114.217 182.171L108.382 178.576Z" fill="black"/>
<path opacity="0.2" d="M110.15 182.422L114.319 183.909L117.417 188.231L113.985 198.3C109.858 194.731 110.021 191.61 112.483 188.732L113.942 187.003C111.685 186.07 109.575 185.067 108.579 183.546L103.843 179.06C100.411 177.521 98.4379 176.13 98.1548 175.378L98.2062 175.092L104.126 178.74L110.15 182.422Z" fill="black"/>
<path d="M123.638 199.795C123.638 199.795 124.307 193.296 123.338 190.288C122.368 187.28 117.229 182.897 116.371 181.938C115.513 180.978 109.764 180.062 109.764 180.062C110.056 181.419 110.622 182.543 111.935 182.966L114.32 183.943L117.417 188.265C117.417 188.265 112.269 191.368 112.201 193.805C112.132 196.243 118.267 204.636 118.267 204.636L123.638 199.795Z" fill="#DE9185"/>
<path d="M253.427 199.104C250.304 228.319 203.252 237.499 203.252 237.499L193.573 206.875C193.573 206.875 208.974 194.774 224.719 184.972C241.209 174.703 255.075 183.719 253.427 199.104Z" fill="#FC7F4F"/>
<path opacity="0.2" d="M207.799 236.409C213.582 231.111 217.589 223.288 220.343 213.703L223.569 230.921C218.455 233.142 213.183 234.976 207.799 236.409V236.409Z" fill="black"/>
<path d="M227.001 183.105C227.001 183.105 209.438 228.708 226.426 313.527L306.546 313.329C307.07 300.942 301.501 242.944 313.222 184.54C313.222 184.54 309.936 180.495 284.05 178.775C273.831 178.092 258.996 178.014 249.996 178.861C242.233 179.67 234.545 181.089 227.001 183.105Z" fill="#FC7F4F"/>
<path opacity="0.6" d="M219.183 254.525C219.286 257.611 219.44 260.783 219.655 264.033C219.826 266.687 220.024 269.409 220.264 272.193C220.561 275.512 220.919 278.923 221.336 282.427C221.662 285.288 222.04 288.2 222.452 291.174C222.961 294.764 223.533 298.434 224.168 302.186C224.826 306.11 225.569 310.144 226.399 314.287L306.519 314.097C306.63 311.4 306.459 306.542 306.235 299.999C306.141 297.406 306.047 294.484 305.961 291.355C305.892 289.082 305.832 286.662 305.789 284.147C305.729 281.346 305.678 278.399 305.661 275.313C305.661 272.922 305.661 270.45 305.661 267.897C305.661 264.949 305.712 261.907 305.772 258.787C305.772 256.47 305.884 254.119 305.961 251.725C306.235 243.211 306.75 234.196 307.582 224.869C308.747 211.587 310.624 198.378 313.202 185.299C313.202 185.299 309.916 181.254 284.03 179.534C273.803 178.851 258.977 178.765 249.976 179.62C242.203 180.432 234.503 181.851 226.948 183.864C226.948 183.864 217.587 208.239 219.183 254.525Z" fill="white"/>
<path opacity="0.2" d="M297.623 220.41C297.623 220.41 298.335 239.668 305.979 250.983C306.254 242.469 306.769 233.453 307.601 224.127C304.478 221.715 301.072 220.289 297.623 220.41Z" fill="black"/>
<path d="M285.123 143.172C281.957 153.967 277.95 173.899 284.9 181.955C274.029 185.413 266.213 187.746 256.586 194.921C254.063 187.876 250.983 178.74 250.983 178.74C263.424 176.959 263.956 167.84 262.626 159.102L285.123 143.172Z" fill="#DE9185"/>
<path opacity="0.2" d="M275.95 149.68L262.651 159.11C262.987 161.144 263.148 163.203 263.131 165.265C267.842 165.031 274.706 160.493 275.65 155.636C276.112 153.686 276.214 151.667 275.95 149.68V149.68Z" fill="black"/>
<path d="M294.217 179.596L286.538 172.326L265.972 179.44L256.98 193.365L253.617 179.25L248.975 175.023L240.833 180.045L242.085 188.991L247.98 186.087L255.084 197.816L270.991 188.412L275.418 192.699L294.217 179.596Z" fill="#FC7F4F"/>
<path opacity="0.2" d="M255.083 197.816L250.939 183.157L242.084 188.991L247.979 186.087L255.083 197.816Z" fill="black"/>
<path opacity="0.2" d="M255.084 197.816L269.104 183.987L275.418 192.699L270.991 188.412L255.084 197.816Z" fill="black"/>
<path d="M280.008 215.544L271.428 226.054C268.511 229.555 265.594 233.038 262.634 236.427C259.674 239.815 256.671 243.151 253.668 246.323C252.158 247.914 250.639 249.421 249.112 250.844C247.593 252.27 246.091 253.636 244.667 254.734C243.964 255.287 243.286 255.762 242.711 256.134C242.411 256.324 242.711 256.134 242.891 256.134C242.97 256.1 243.054 256.082 243.14 256.082C243.209 256.082 243.14 256.082 243.14 256.125C243.14 256.168 243.054 256.177 242.934 256.194C242.321 256.322 241.698 256.391 241.072 256.402C240.188 256.431 239.303 256.413 238.421 256.35C236.508 256.22 234.448 255.909 232.346 255.581C230.244 255.252 228.056 254.829 225.928 254.353C217.254 252.521 208.065 250.896 199.236 248.554L195.152 257.724C199.33 260.317 203.5 262.513 207.816 264.639C212.132 266.765 216.542 268.728 221.124 270.508C225.882 272.408 230.793 273.891 235.804 274.942C237.16 275.202 238.575 275.426 240.094 275.582C241.805 275.759 243.528 275.777 245.242 275.634C245.705 275.634 246.263 275.513 246.769 275.444C247.275 275.374 247.85 275.253 248.485 275.081C249.128 274.916 249.762 274.714 250.381 274.475C250.967 274.235 251.54 273.963 252.097 273.663C253.46 272.966 254.786 272.199 256.07 271.364C258.332 269.888 260.509 268.283 262.591 266.558C264.593 264.91 266.5 263.242 268.314 261.553C271.994 258.191 275.401 254.69 278.721 251.181C282.042 247.672 285.216 244.042 288.305 240.368C289.849 238.536 291.385 236.695 292.87 234.81C294.354 232.926 295.813 231.068 297.323 229.045L280.008 215.544Z" fill="#DE9185"/>
<path d="M319.056 193.952C327.833 221.975 288.4 249.418 288.4 249.418L267.327 225.277C267.327 225.277 276.611 207.99 287.13 192.63C298.146 176.544 314.431 179.198 319.056 193.952Z" fill="#FC7F4F"/>
<path d="M200.43 248.934C200.43 248.934 196.458 242.737 194.802 241.76C193.146 240.783 186.024 236.245 186.024 236.245L178.551 241.155L179.958 242.668L185.964 242.391L190.34 243.973L191.824 251.173L198.156 258.719L200.43 248.934Z" fill="#DE9185"/>
<path opacity="0.2" d="M183.148 239.53L183.714 239.34L185.774 240.187L184.53 240.273L183.148 239.53Z" fill="black"/>
<path d="M172.338 210.306L169.969 206.935C159.047 210.686 142.797 213.755 141.707 217.532C142.462 214.282 133.479 213.124 128.065 210.989L126.263 211.689L141.209 232.157L172.338 210.306Z" fill="#407BFF"/>
<path opacity="0.6" d="M172.338 210.306L169.969 206.935C159.047 210.686 142.797 213.755 141.707 217.532C142.462 214.282 133.479 213.124 128.065 210.989L126.263 211.689L141.209 232.157L172.338 210.306Z" fill="white"/>
<path d="M174.973 206.823L196.98 264.761L166.659 278.849L160.704 278.409L147.414 269.186L125.157 210.574L138.173 219.105L143.853 218.82L174.973 206.823Z" fill="#263238"/>
<path opacity="0.3" d="M174.973 206.823L196.98 264.761L166.659 278.849L143.853 218.82L174.973 206.823Z" fill="white"/>
<path opacity="0.3" d="M138.173 219.105L160.704 278.409L147.413 269.186L125.157 210.574L138.173 219.105Z" fill="white"/>
<path opacity="0.1" d="M166.659 278.849L160.704 278.408L138.173 219.105L143.853 218.82L166.659 278.849Z" fill="white"/>
<path d="M167.603 244.716C167.603 244.673 167.603 244.578 167.809 244.379C168.667 243.515 175.943 236.289 176.526 236.289C177.11 236.289 200.43 248.934 200.43 248.934L198.156 258.779C187.655 265.504 176.174 254.526 176.174 254.526L173.171 252.063C173.171 252.063 170.709 253.481 169.971 253.411C169.568 253.342 167.063 245.978 167.603 244.716ZM179.924 243.636L178.997 246.315L176.99 252.149L179.924 243.636Z" fill="#DE9185"/>
<path d="M245.388 94.2147C245.388 94.2147 236.68 116.887 247.104 128.668C257.529 140.449 267.087 96.8078 267.087 96.8078L245.388 94.2147Z" fill="#263238"/>
<path d="M278.85 155.333C270.939 162.68 260.652 162.767 252.758 158.16C247.45 155.065 243.513 150.048 241.75 144.131C241.495 143.311 241.286 142.477 241.124 141.633C238.198 125.928 241.793 100.421 258.91 94.3788C262.686 93.0261 266.742 92.6693 270.694 93.3423C274.645 94.0154 278.36 95.696 281.484 98.2241C284.609 100.752 287.039 104.044 288.544 107.785C290.049 111.527 290.578 115.595 290.081 119.601C288.288 136.775 287.979 146.94 278.85 155.333Z" fill="#DE9185"/>
<path d="M263.878 123.136C263.878 124.528 263.02 125.634 262.102 125.591C261.184 125.547 260.506 124.355 260.566 122.954C260.626 121.554 261.424 120.456 262.342 120.5C263.26 120.543 263.938 121.71 263.878 123.136Z" fill="#263238"/>
<path d="M248.107 122.349C248.107 123.75 247.249 124.856 246.331 124.804C245.413 124.752 244.744 123.577 244.804 122.211C244.864 120.845 245.662 119.704 246.58 119.756C247.498 119.808 248.167 121.01 248.107 122.349Z" fill="#263238"/>
<path d="M253.109 123.292C251.24 127.506 248.8 131.438 245.859 134.978C246.784 135.715 247.857 136.24 249.004 136.517C250.151 136.793 251.344 136.813 252.5 136.577L253.109 123.292Z" fill="#DE5753"/>
<path d="M269.018 118.235C268.867 118.249 268.716 118.223 268.579 118.159C268.442 118.096 268.324 117.996 268.237 117.872C267.679 117.001 266.927 116.274 266.041 115.749C265.154 115.224 264.158 114.915 263.132 114.847C262.96 114.79 262.811 114.68 262.705 114.533C262.599 114.385 262.542 114.208 262.542 114.026C262.542 113.844 262.599 113.666 262.705 113.519C262.811 113.371 262.96 113.261 263.132 113.205C264.43 113.26 265.695 113.627 266.823 114.275C267.952 114.923 268.91 115.833 269.618 116.93C269.736 117.11 269.782 117.327 269.749 117.54C269.716 117.752 269.605 117.945 269.438 118.08V118.08C269.31 118.159 269.167 118.212 269.018 118.235V118.235Z" fill="#263238"/>
<path d="M241.605 116.541C241.445 116.589 241.275 116.589 241.116 116.541C240.932 116.431 240.796 116.255 240.734 116.049C240.672 115.842 240.689 115.62 240.781 115.426C241.384 114.265 242.254 113.267 243.318 112.516C244.383 111.764 245.61 111.28 246.899 111.104C247.109 111.103 247.313 111.179 247.472 111.32C247.63 111.46 247.731 111.654 247.757 111.865C247.758 112.076 247.684 112.28 247.546 112.439C247.409 112.599 247.218 112.702 247.01 112.729C245.993 112.896 245.029 113.302 244.196 113.913C243.363 114.524 242.684 115.323 242.214 116.247C242.137 116.335 242.044 116.406 241.939 116.457C241.835 116.507 241.721 116.536 241.605 116.541Z" fill="#263238"/>
<path d="M278.592 97.4473L276.945 104.941C278.157 105.678 279.049 106.847 279.444 108.217C279.838 109.587 279.706 111.056 279.073 112.331C276.035 118.468 278.669 128.702 283.14 133.128C283.14 133.128 283.56 130.379 285.808 131.261C288.056 132.142 286.031 146.456 280.857 152.87C280.857 152.87 288.279 147.329 293.59 132.609C298.506 118.996 300.068 107.405 297.743 101.726L278.592 97.4473Z" fill="#263238"/>
<path d="M296.869 134.113C294.78 137.925 291.274 140.745 287.122 141.953C281.622 143.517 278.851 138.556 280.361 133.309C281.743 128.659 286.256 122.073 291.798 122.885C297.341 123.698 299.443 129.411 296.869 134.113Z" fill="#DE9185"/>
<path d="M276.946 104.941C276.946 104.941 247.336 109.695 242.471 96.1854C237.606 82.6756 257.701 74.8359 260.875 76.4609C264.05 78.0858 259.932 81.2234 259.932 81.2234C259.932 81.2234 278.902 76.1238 282.059 79.0626C285.217 82.0014 277.847 82.8398 277.847 82.8398C277.847 82.8398 308.949 88.0259 298.773 107.111C291.998 103.75 284.242 102.979 276.946 104.941Z" fill="#263238"/>
<path d="M253.024 141.443C254.171 143.78 255.149 146.198 255.95 148.677C256.396 148.617 256.851 148.548 257.297 148.461C263.406 147.45 265.877 144.943 266.829 142.471C267.253 141.258 267.38 139.959 267.198 138.686C267.124 137.958 266.948 137.245 266.675 136.568C263.749 139.057 258.095 140.449 255.1 141.063C253.83 141.339 253.024 141.443 253.024 141.443Z" fill="#263238"/>
<path d="M255.102 141.063L256.02 143.172C261.768 142.203 265.689 140.743 267.174 138.686C267.1 137.958 266.923 137.245 266.65 136.568C263.75 139.057 258.131 140.449 255.102 141.063Z" fill="white"/>
<path d="M257.297 148.462C263.406 147.45 265.877 144.944 266.83 142.472C264.513 142.904 262.291 143.747 260.266 144.961C258.938 145.788 257.901 147.012 257.297 148.462V148.462Z" fill="#DD5753"/>
<path d="M261.931 131.728C262.566 131.852 263.216 131.89 263.861 131.84C265.619 131.695 267.257 130.884 268.445 129.571C269.633 128.257 270.281 126.538 270.26 124.761C270.24 122.985 269.55 121.282 268.332 119.997C267.114 118.712 265.457 117.94 263.696 117.838C261.935 117.735 260.201 118.31 258.844 119.445C257.487 120.58 256.607 122.191 256.383 123.954C256.159 125.716 256.607 127.499 257.637 128.942C258.667 130.384 260.201 131.38 261.931 131.728V131.728ZM264.616 118.27C265.719 118.496 266.747 119.002 267.602 119.739C268.763 120.738 269.543 122.111 269.811 123.625C270.079 125.139 269.818 126.7 269.072 128.041C268.326 129.383 267.141 130.422 265.72 130.982C264.298 131.543 262.728 131.589 261.276 131.114C259.825 130.639 258.582 129.671 257.759 128.376C256.936 127.081 256.584 125.538 256.764 124.011C256.943 122.484 257.642 121.067 258.742 120.001C259.843 118.935 261.276 118.287 262.797 118.166C263.406 118.114 264.018 118.148 264.616 118.27Z" fill="#263238"/>
<path d="M243.929 130.388C244.558 130.517 245.203 130.555 245.842 130.5C247.699 130.355 249.423 129.472 250.634 128.046C251.844 126.621 252.443 124.769 252.299 122.898C252.154 121.028 251.278 119.292 249.863 118.072C248.448 116.852 246.61 116.249 244.753 116.394C242.896 116.542 241.173 117.426 239.961 118.852C238.75 120.278 238.15 122.129 238.292 124C238.412 125.539 239.028 126.995 240.046 128.148C241.063 129.301 242.427 130.088 243.929 130.388V130.388ZM246.597 116.93C248.246 117.257 249.71 118.202 250.693 119.574C251.677 120.946 252.107 122.643 251.897 124.322C251.687 126.001 250.852 127.537 249.561 128.62C248.27 129.703 246.619 130.252 244.942 130.157C243.265 130.061 241.686 129.328 240.524 128.105C239.363 126.882 238.706 125.261 238.685 123.568C238.664 121.876 239.282 120.239 240.413 118.987C241.544 117.736 243.104 116.964 244.779 116.826C245.387 116.782 245.998 116.817 246.597 116.93V116.93Z" fill="#263238"/>
<path d="M252.063 123.827C252.104 123.836 252.147 123.832 252.187 123.817C252.226 123.801 252.261 123.775 252.286 123.741C252.424 123.497 252.616 123.288 252.846 123.129C253.077 122.97 253.34 122.866 253.616 122.825C254.946 122.669 256.404 124.018 256.421 124.026C256.461 124.066 256.515 124.088 256.571 124.088C256.628 124.088 256.682 124.066 256.722 124.026C256.742 124.007 256.758 123.983 256.77 123.957C256.781 123.931 256.787 123.903 256.787 123.875C256.787 123.847 256.781 123.818 256.77 123.792C256.758 123.766 256.742 123.743 256.722 123.724C256.653 123.654 255.1 122.22 253.573 122.41C253.235 122.456 252.912 122.578 252.628 122.768C252.344 122.959 252.107 123.211 251.934 123.508C251.904 123.556 251.893 123.615 251.904 123.671C251.916 123.727 251.948 123.777 251.994 123.81C252.015 123.822 252.039 123.828 252.063 123.827V123.827Z" fill="#263238"/>
<path d="M270.056 124.467H270.108L285.106 124.329C285.163 124.329 285.217 124.306 285.257 124.265C285.298 124.225 285.32 124.17 285.32 124.113C285.32 124.055 285.298 124 285.257 123.96C285.217 123.919 285.163 123.896 285.106 123.896L270.108 124.035C270.051 124.035 269.997 124.058 269.956 124.098C269.916 124.139 269.893 124.194 269.893 124.251C269.895 124.3 269.911 124.346 269.941 124.385C269.97 124.424 270.01 124.453 270.056 124.467V124.467Z" fill="#263238"/>
<path d="M69.4898 299.87H360.335V313.527H69.4898V299.87Z" fill="#82498C"/>
<path opacity="0.2" d="M70.0001 303H360.845V316.657H70.0001V303Z" fill="#FAFAFA"/>
<path d="M65.1483 299.87H363.852C364.755 299.87 365.622 300.229 366.264 300.868C366.907 301.507 367.273 302.375 367.284 303.285C367.273 304.194 366.907 305.062 366.264 305.701C365.622 306.341 364.755 306.699 363.852 306.699H65.1483C64.2529 306.688 63.3973 306.324 62.7641 305.686C62.131 305.048 61.7703 304.187 61.7592 303.285C61.7703 302.383 62.131 301.521 62.7641 300.883C63.3973 300.245 64.2529 299.882 65.1483 299.87Z" fill="#82498C"/>
<path opacity="0.4" d="M65.3885 300H364.093C364.995 300 365.862 300.358 366.504 300.997C367.147 301.637 367.513 302.505 367.525 303.414C367.513 304.324 367.147 305.192 366.504 305.831C365.862 306.47 364.995 306.829 364.093 306.829H65.3885C64.4931 306.817 63.6376 306.454 63.0044 305.816C62.3712 305.178 62.0106 304.316 61.9994 303.414C62.0106 302.512 62.3712 301.65 63.0044 301.013C63.6376 300.375 64.4931 300.011 65.3885 300Z" fill="#FAFAFA"/>
</svg>
