<svg width="246" height="316" viewBox="0 0 246 316" fill="none" xmlns="http://www.w3.org/2000/svg">
<path d="M60.4484 315.504C27.0637 315.504 -2.28882e-05 302.166 -2.28882e-05 285.713C-2.28882e-05 269.26 27.0637 255.923 60.4484 255.923C93.8331 255.923 120.897 269.26 120.897 285.713C120.897 302.166 93.8331 315.504 60.4484 315.504Z" fill="#E5E5E5"/>
<path d="M245.867 275.472C244.833 276.66 243.586 277.702 242.171 278.559C240.709 279.473 239.162 280.286 237.546 280.988C234.452 282.441 231.194 283.625 227.822 284.522C224.403 285.449 220.77 285.652 217.239 285.112C215.531 284.82 213.926 284.19 212.555 283.273C211.16 282.271 210.263 280.854 210.045 279.309C209.758 277.808 209.877 276.222 209.175 274.788C208.608 273.714 207.647 272.826 206.438 272.258C203.473 270.816 200.064 271.094 196.981 271.988C195.123 272.536 193.344 273.262 191.555 273.953C189.767 274.645 187.85 275.32 185.962 275.919C182.035 277.195 177.955 278.1 173.797 278.618C170.111 279.048 166.089 279.216 162.601 277.951C159.715 276.897 157.186 274.375 157.373 271.575C157.418 270.812 157.665 270.068 158.095 269.399C158.174 269.234 158.312 269.094 158.489 269C158.667 268.906 158.875 268.863 159.083 268.876C159.168 268.893 159.247 268.925 159.316 268.97C159.385 269.015 159.442 269.072 159.483 269.138C159.525 269.203 159.549 269.275 159.555 269.349C159.561 269.424 159.548 269.498 159.518 269.567C158.668 272.207 160.723 274.957 163.471 276.096C166.702 277.428 170.467 277.209 173.926 276.838C177.833 276.379 181.67 275.559 185.369 274.392C187.187 273.835 188.966 273.22 190.735 272.562C192.504 271.904 194.184 271.229 195.963 270.681C199.184 269.694 202.702 269.112 206.023 270.116C207.411 270.516 208.671 271.189 209.699 272.081C210.806 273.109 211.499 274.412 211.675 275.8C211.922 277.251 211.794 278.786 212.446 280.161C213.098 281.383 214.256 282.356 215.697 282.894C218.711 284.151 222.298 284.083 225.579 283.602C228.827 283.045 231.985 282.158 234.987 280.962C238.159 279.79 241.469 278.626 244.088 276.661C244.694 276.224 245.265 275.753 245.798 275.252C245.926 275.126 246.055 275.387 245.976 275.472H245.867Z" fill="#455A64"/>
<path d="M20.9605 272.056C20.0573 273.584 19.648 275.291 19.7747 276.999C19.8735 278.492 20.921 280.423 20.4467 283.789C19.9724 287.154 19.0731 288.217 18.658 290.604C18.4083 291.692 18.4152 292.812 18.6782 293.898C18.9412 294.984 19.455 296.015 20.1898 296.929C21.8203 299.19 25.4272 300.986 32.5423 300.767C38.2936 300.59 40.606 298.076 40.7345 295.192L20.9605 272.056Z" fill="#263238"/>
<path d="M22.6296 265.064C22.4522 265.69 22.3365 266.328 22.2838 266.97C22.0663 268.109 21.6711 269.197 21.3548 270.344C21.2692 270.642 21.1901 270.937 21.1177 271.23C20.5643 273.482 21.1177 275.818 21.1177 278.112C20.8993 280.829 20.3428 283.518 19.4575 286.133C18.163 290.899 17.9554 294.087 22.847 297.393C25.4262 299.131 28.2426 299.198 31.5136 299.274C33.994 299.325 37.2451 298.709 38.7077 297.781C40.8027 296.466 40.773 295.361 40.7928 294.939C40.9806 289.878 38.8164 283.974 38.4112 278.914C38.2419 277.552 38.2056 276.181 38.3025 274.814C38.5002 273.128 39.1919 271.441 39.3994 269.754C39.5551 269.126 39.4576 268.472 39.1227 267.898C38.7953 267.578 38.391 267.323 37.9375 267.148C37.4839 266.973 36.9917 266.884 36.4941 266.886C33.8853 266.591 31.2764 266.372 28.6675 266.211C28.0509 266.109 27.412 266.218 26.8888 266.515C26.4756 266.982 26.2471 267.549 26.2366 268.134C26.0982 268.708 25.6041 269.349 24.9321 269.248C24.7172 269.19 24.5273 269.079 24.3866 268.929C24.2458 268.778 24.1605 268.596 24.1416 268.404C24.0724 268.025 23.8847 265.09 23.9044 264.71C23.8649 264.71 22.936 264.583 22.6296 265.064Z" fill="#37474F"/>
<path d="M109.028 281.874C109.442 282.768 109.442 283.763 109.028 284.657C108.613 285.501 103.751 288.031 97.0213 287.905C92.0085 287.781 87.1272 286.508 82.8899 284.219C80.2613 282.861 77.5833 282.684 74.2531 282.633C70.9228 282.583 67.0194 281.562 65.883 280.271C65.4497 279.022 65.4497 277.692 65.883 276.442L109.028 281.874Z" fill="#263238"/>
<path d="M84.6993 264.912C84.9608 265.319 85.195 265.739 85.4009 266.169C86.2267 267.725 87.4976 269.08 89.0967 270.108C91.417 271.481 93.9095 272.63 96.5281 273.532C98.1783 274.156 99.9176 274.375 101.588 274.839C103.48 275.357 105.305 276.041 107.033 276.88C109.74 278.306 110.264 282.101 107.329 283.704C104.809 285.096 98.0597 286.732 90.8261 285.256C86.8733 284.412 82.4066 281.039 77.2778 280.887C74.0168 280.777 67.8405 280.212 65.6467 278.179C64.8364 275.143 65.7159 274.274 66.4471 271.693C66.8334 270.234 67.0388 268.744 67.0598 267.248C67.0598 266.455 66.4471 264.204 68.384 263.925L68.5817 265.612C68.5817 265.612 68.9473 266.186 70.9534 266.455C71.6056 266.548 72.1194 267.299 72.4752 267.948C72.742 268.463 73.0286 269.112 73.6907 269.104C73.9117 269.079 74.1206 269.003 74.2947 268.884C74.4689 268.765 74.6017 268.608 74.6789 268.429C74.8352 268.069 74.9607 267.7 75.0544 267.324C75.317 266.74 75.7252 266.211 76.2506 265.774C76.7761 265.337 77.4065 265.003 78.0981 264.794C79.2561 264.459 80.4572 264.244 81.6754 264.153C82.5944 264.035 83.3553 263.689 84.1755 264.364C84.38 264.524 84.5564 264.709 84.6993 264.912Z" fill="#37474F"/>
<path d="M33.5671 135.081C31.0768 155.821 30.0886 165.681 26.8967 207.061C24.3368 214.828 22.7078 222.797 22.0348 230.846C21.343 240.891 19.6729 271.162 19.6729 271.162C19.6729 271.162 29.1597 277.808 40.1485 274.738C40.1485 274.738 50.08 230.255 53.5486 216.372C56.8689 203.046 60.2387 186.303 60.2387 186.303L61.8 207.061C61.8 207.061 61.3554 215.326 61.6617 227.666C61.8297 234.27 65.5552 269.998 65.5552 269.998C65.5552 269.998 78.8663 275.16 87.8491 268.531C87.8491 268.531 88.5013 210.595 88.6298 204.615C88.7879 197.808 87.4143 129.228 87.4143 129.228L33.5671 135.081Z" fill="#BA68C8"/>
<path opacity="0.15" d="M33.5671 135.081C31.0768 155.821 30.0886 165.681 26.8967 207.061C24.3368 214.828 22.7078 222.797 22.0348 230.846C21.343 240.891 19.6729 271.162 19.6729 271.162C19.6729 271.162 29.1597 277.808 40.1485 274.738C40.1485 274.738 50.08 230.255 53.5486 216.372C56.8689 203.046 60.2387 186.303 60.2387 186.303L61.8 207.061C61.8 207.061 61.3554 215.326 61.6617 227.666C61.8297 234.27 65.5552 269.998 65.5552 269.998C65.5552 269.998 78.8663 275.16 87.8491 268.531C87.8491 268.531 88.5013 210.595 88.6298 204.615C88.7879 197.808 87.4143 129.228 87.4143 129.228L33.5671 135.081Z" fill="black"/>
<path opacity="0.25" d="M60.239 186.303L66.1682 158.056C66.1682 158.056 76.6827 157.272 82.4933 152.27C82.4933 152.27 81.4557 157.179 68.2434 160.123L62.8775 183.688L61.7509 207.06L60.239 186.303Z" fill="black"/>
<path opacity="0.25" d="M19.9834 265.663C24.0298 268.649 29.2307 270.248 34.5791 270.15C34.5791 270.15 25.5074 269.003 20.0822 263.891L19.9834 265.663Z" fill="black"/>
<path opacity="0.25" d="M65.1243 265.78C65.1243 265.78 74.3936 268.547 82.2202 266.438C82.2202 266.438 76.1823 269.905 65.2528 267.054L65.1243 265.78Z" fill="black"/>
<path d="M88.9885 77.0685C92.9413 81.7918 104.701 100.584 107.764 106.142L128.368 92.0818C130.068 90.2347 130.058 86.3717 132.973 82.7111C136.195 78.6626 134.891 74.6816 137.203 75.2214C138.478 75.5166 139.239 76.9083 139.179 78.106C139.179 80.4423 137.875 83.3775 138.952 83.1666C140.563 82.6774 141.768 81.117 143.893 78.7807C144.782 77.8192 146.858 73.9393 148.014 72.2187C148.143 71.9616 148.354 71.7401 148.621 71.5786C148.889 71.4171 149.204 71.3219 149.531 71.3036C149.859 71.2853 150.185 71.3445 150.476 71.4747C150.766 71.605 151.008 71.8012 151.176 72.0416C151.473 72.5814 151.68 73.8128 151.967 74.3273C152.313 74.7274 152.726 75.0825 153.192 75.3816C153.672 75.6679 154.101 76.0116 154.467 76.4022C155.356 77.5746 154.526 78.8651 154.862 80.1218C155.534 82.7027 154.546 85.3258 153.093 87.5778C152.441 88.5984 151.809 89.6527 151.117 90.6311C149.562 92.6572 147.63 94.4522 145.395 95.9448C143.419 97.3364 141.106 98.104 139.219 99.58C137.331 101.056 131.946 106.412 127.854 110.207C121.105 116.483 115.156 122.302 113.031 123.475C107.764 126.393 102.902 126.848 97.1313 121.088C90.2138 114.172 77.298 96.5436 77.298 96.5436L74.5311 72.2525C74.5311 72.2525 84.3834 71.3922 88.9885 77.0685Z" fill="#F5B4B4"/>
<path d="M73.9181 72.2275C80.035 71.4346 85.2033 72.4215 89.0277 76.1579C92.852 79.8944 103.347 98.0874 104.918 99.7743C106.489 101.461 107.883 102.085 108.07 103.485C108.146 103.843 108.12 104.211 107.992 104.558C107.865 104.904 107.641 105.22 107.339 105.476C104.473 105.855 95.4214 118.347 98.7516 122.581L100.293 123.728C99.7496 124.115 99.0642 124.327 98.3563 124.327C97.6485 124.327 96.963 124.115 96.4194 123.728C94.3343 122.362 91.8638 118.347 89.0277 114.872C86.1915 111.397 73.9181 97.1006 73.9181 97.1006V72.2275Z" fill="#263238"/>
<path d="M107.337 105.408L108.443 105.636C108.443 105.636 104.629 109.187 103.502 116.204C102.9 120.067 103.581 124.529 104.896 125.583C104.896 125.583 103.552 126.013 101.338 124.689C100.131 123.985 98.9914 123.201 97.9289 122.344C96.9949 119.23 97.4199 115.933 99.1246 113.066C102.03 107.879 105.074 105.998 107.337 105.408Z" fill="#37474F"/>
<path d="M134.607 231.587L157.039 270.605C157.179 270.855 157.408 271.061 157.693 271.194C157.979 271.326 158.306 271.378 158.628 271.343C158.95 271.307 159.251 271.186 159.487 270.996C159.724 270.806 159.884 270.557 159.944 270.284L170.024 227.421L134.607 231.587Z" fill="#FFA8A7"/>
<path d="M159.943 270.285C159.882 270.557 159.722 270.806 159.485 270.996C159.249 271.186 158.948 271.308 158.626 271.343C158.304 271.379 157.977 271.326 157.692 271.194C157.406 271.062 157.177 270.855 157.037 270.605L152.65 263.014C154.122 263.499 155.722 263.626 157.274 263.384C158.826 263.141 160.269 262.538 161.445 261.64L162.097 261.142L159.943 270.285Z" fill="#455A64"/>
<path d="M142.354 45.6001L142.957 49.5896L143.708 54.4056L170.024 227.421C166.822 231.478 161.545 233.941 155.982 235.012C147.523 236.699 138.372 235.256 134.637 231.571L108.39 58.665L106.997 49.4631C108.281 55.384 143.6 51.5464 142.354 45.6001Z" fill="#BA68C8"/>
<path opacity="0.5" d="M142.354 45.6001L142.957 49.5896L143.708 54.4056L170.024 227.421C166.822 231.478 161.545 233.941 155.982 235.012C147.523 236.699 138.372 235.256 134.637 231.571L108.39 58.665L106.997 49.4631C108.281 55.384 143.6 51.5464 142.354 45.6001Z" fill="white"/>
<path d="M144.758 60.782L146.092 69.6972C146.576 72.2697 140.38 74.6314 133.028 76.023C123.255 77.8871 111.287 76.8665 110.625 73.4927L109.637 66.9307L109.331 64.5775C109.983 67.9513 121.96 69.014 131.733 67.15C138.779 65.809 144.788 63.557 144.788 61.111C144.828 61.0022 144.818 60.8842 144.758 60.782V60.782Z" fill="#EBEBEB"/>
<path d="M145.072 63.0093C146.209 68.9809 110.772 72.7342 109.626 66.7626L108.262 57.8474C109.398 63.819 144.825 60.0657 143.699 54.0941L145.072 63.0093Z" fill="#BA68C8"/>
<path d="M142.351 45.6001L143.704 54.4056C144.88 60.2591 110.718 64.1305 108.337 58.6734C108.287 58.5672 108.251 58.457 108.228 58.3445L106.943 49.4715C108.277 55.384 143.596 51.5464 142.351 45.6001Z" fill="#EBEBEB"/>
<path opacity="0.1" d="M108.381 58.6738L106.987 49.4718C107.57 52.1455 115.101 53.3685 123.154 52.7444L150.893 235.721L157.04 270.605L134.608 231.588L108.381 58.6738Z" fill="black"/>
<path d="M101.196 11.3647C101.196 11.2635 101.127 11.1707 101.117 11.0695C100.544 7.1981 108.035 3.20019 117.788 2.14588C127.542 1.09158 135.942 3.36044 136.564 7.20654L142.355 45.6C142.859 48.1303 136.742 50.5173 129.449 51.9343C119.696 53.8236 107.709 52.8536 106.948 49.4714L101.236 11.9889C101.236 11.8117 101.236 11.6515 101.177 11.4744L101.196 11.3647Z" fill="#F28F8F"/>
<path opacity="0.1" d="M115.674 2.42407L123.145 52.7523C115.16 53.3089 107.551 52.145 106.978 49.4713L101.266 11.9887C101.266 11.8116 101.266 11.6513 101.206 11.4742V11.3646C101.206 11.2633 101.137 11.1706 101.127 11.0694C100.584 7.47629 106.968 3.79045 115.674 2.42407Z" fill="black"/>
<path d="M101.118 11.0696C101.691 14.941 110.091 17.2183 119.894 16.1303C129.697 15.0422 137.138 11.0696 136.565 7.20667C135.992 3.3437 127.592 1.04954 117.789 2.14601C107.986 3.24249 100.545 7.19823 101.118 11.0696Z" fill="#FFA8A7"/>
<path d="M32.3876 139.096C32.3876 139.096 31.8243 142.841 32.5457 143.802C33.2671 144.764 46.7264 147.809 64.2275 146.332C81.7285 144.856 87.0154 140.943 87.6281 140.066C88.2408 139.189 88.1321 137.173 87.6281 134.963L32.3876 139.096Z" fill="#263238"/>
<path d="M88.084 90.8421C87.0958 77.0687 80.0697 72.0671 72.8657 72.2105L53.9614 71.1309C49.9196 72.0249 37.2904 74.6143 31.7861 76.0228C26.2818 77.4314 26.2324 87.966 27.5072 94.9412C28.782 101.916 31.46 107.222 32.2407 118.954C32.0233 130.062 28.7128 135.916 31.9245 138.859C43.6841 145.227 75.4548 143.119 87.8765 136.734C90.5051 135.629 87.7974 127.186 88.0544 120.354C88.4892 108.63 88.3805 95.287 88.084 90.8421Z" fill="#37474F"/>
<path d="M31.3524 76.1573C24.7117 76.7562 23.2195 77.7768 21.2628 80.3746C19.3062 82.9724 15.5906 93.2961 14.8988 98.9303C18.7923 108.36 34.5245 103.991 34.5245 103.991L31.3524 76.1573Z" fill="#263238"/>
<path d="M68.3703 71.856C68.3703 71.856 74.8628 76.9166 72.6986 81.5808C70.5344 86.2451 61.1564 87.1054 53.8338 82.6436C46.5112 78.1818 47.1535 72.9609 47.1535 72.9609L49.9106 72.2355C50.1298 73.3812 50.6464 74.4705 51.4226 75.4237C52.5788 76.6045 67.1646 81.5893 67.4611 83.0147C67.4611 83.0147 69.2794 79.4216 69.4375 78.0384C69.4245 76.2706 69.0912 74.5152 68.4493 72.8344L68.3703 71.856Z" fill="#FAFAFA"/>
<path d="M81.4689 39.2563C81.6467 41.9131 81.2712 43.8446 78.9885 45.6833C74.9699 49.0128 70.6037 52.0223 65.9442 54.6744C63.5874 55.9843 61.1124 57.1321 58.5425 58.1072C55.9415 58.9732 53.2101 59.5212 50.4294 59.735L51.2002 65.7151C51.2002 65.7151 50.2713 64.1716 49.0162 62.3413C47.9292 60.7556 43.3044 52.6501 43.3044 52.6501C41.4861 49.4619 39.2825 46.1472 39.2232 42.5288C39.2232 40.125 40.4387 37.5525 42.9586 36.4813C42.8499 31.4797 47.9589 27.4481 52.6232 25.9721C56.6476 24.7087 60.964 24.2724 65.2228 24.6985C69.5135 25.0735 73.5477 26.6206 76.7255 29.1097C78.4548 30.4254 81.0835 33.1413 81.4689 39.2563Z" fill="#263238"/>
<path d="M54.6873 37.9744C54.2347 40.5387 52.8159 42.9073 50.6455 44.722C51.3482 47.0929 51.5787 49.5478 51.3274 51.984C51.2628 52.5046 51.0781 53.0091 50.7839 53.4685C50.6282 53.6908 50.4176 53.8815 50.1667 54.0271C49.9158 54.1728 49.6307 54.27 49.3312 54.3119C48.5209 54.4047 48.1552 53.9914 47.8588 53.4685C47.4491 52.7826 46.9869 52.1204 46.4753 51.4864C46.2522 51.2097 45.99 50.9576 45.6946 50.7357C44.3803 49.8164 40.5955 48.7874 39.1033 52.237C37.6111 55.6867 41.139 60.2497 44.1629 60.8148C49.3905 61.7932 50.3095 58.7568 50.3095 58.7568L52.2859 74.3605C55.2505 76.7137 64.1444 80.1803 67.4153 82.9805C68.6506 80.9056 71.5559 77.0764 68.4035 72.8001L68.3146 67.6552C71.0937 67.6346 73.8638 67.3832 76.5858 66.9045C79.2244 66.331 80.9833 64.1717 81.9518 60.663C83.8294 53.8311 81.8628 44.6882 80.6078 40.5891C79.9138 38.1006 78.4019 35.8328 76.2498 34.0524C76.1461 33.9711 76.0221 33.9109 75.8871 33.8766C75.7521 33.8422 75.6097 33.8344 75.4707 33.8539C75.3317 33.8734 75.1998 33.9197 75.0848 33.9891C74.9698 34.0586 74.8748 34.1494 74.8071 34.2548C74.1951 35.0609 73.3948 35.7504 72.4561 36.2801C71.5175 36.8099 70.4608 37.1685 69.3522 37.3334C66.1899 37.8817 60.9722 37.4768 56.9799 36.6334C56.7252 36.5819 56.4608 36.5764 56.2035 36.6174C55.9462 36.6583 55.7018 36.7446 55.4859 36.8709C55.27 36.9972 55.0874 37.1606 54.9499 37.3506C54.8124 37.5407 54.7229 37.7531 54.6873 37.9744V37.9744Z" fill="#F5B4B4"/>
<path d="M68.3517 67.6883C63.5787 67.545 60.1496 67.157 57.4024 66.0774C55.6212 65.4276 54.0977 64.3528 53.0148 62.9819C53.0148 62.9819 53.3606 64.5845 56.0387 66.6003C59.0626 68.8692 68.3715 69.1306 68.3715 69.1306L68.3517 67.6883Z" fill="#E39C9C"/>
<path d="M63.4851 49.8757C63.5012 50.1498 63.4225 50.4218 63.2589 50.6581C63.0953 50.8943 62.854 51.0843 62.565 51.2045C62.2759 51.3246 61.9518 51.3696 61.633 51.3339C61.3142 51.2981 61.0148 51.1832 60.7719 51.0034C60.529 50.8235 60.3534 50.5868 60.2669 50.3225C60.1803 50.0581 60.1867 49.778 60.2852 49.5167C60.3837 49.2555 60.57 49.0247 60.8209 48.8531C61.0718 48.6815 61.3763 48.5766 61.6965 48.5515C61.9162 48.5365 62.1372 48.5591 62.3466 48.6178C62.5559 48.6766 62.7495 48.7703 62.916 48.8936C63.0825 49.0168 63.2186 49.1672 63.3163 49.3358C63.414 49.5044 63.4714 49.6879 63.4851 49.8757V49.8757Z" fill="#263238"/>
<path d="M61.5455 43.9038C59.945 44.452 58.5218 45.3197 57.3951 46.4341C57.0012 45.9459 56.844 45.3466 56.9564 44.7617C57.0687 44.1768 57.442 43.6517 57.9979 43.2965C58.2745 43.1297 58.588 43.0127 58.9193 42.9528C59.2507 42.893 59.5928 42.8914 59.9249 42.9482C60.257 43.0051 60.572 43.1191 60.8506 43.2834C61.1293 43.4477 61.3657 43.6588 61.5455 43.9038V43.9038Z" fill="#263238"/>
<path d="M64.5506 58.4452L70.4799 59.5164C70.4187 59.857 70.2768 60.1833 70.0626 60.4754C69.8484 60.7675 69.5666 61.0192 69.2344 61.2151C68.9023 61.4109 68.5267 61.5468 68.1309 61.6144C67.735 61.682 67.3271 61.6798 66.9322 61.6081C66.1339 61.4449 65.4403 61.0247 64.9965 60.4352C64.5527 59.8458 64.3929 59.1328 64.5506 58.4452Z" fill="#E39C9C"/>
<path d="M65.2086 59.558C65.8788 59.5625 66.5239 59.7758 67.0226 60.158C67.5213 60.5401 67.8391 61.0647 67.9163 61.6329C67.5894 61.6819 67.255 61.6819 66.9281 61.6329C66.3653 61.5238 65.8488 61.2841 65.4355 60.9403C65.0222 60.5965 64.7282 60.1619 64.586 59.6846C64.7876 59.6233 64.9963 59.5809 65.2086 59.558V59.558Z" fill="#F28F8F"/>
<path d="M77.3693 43.8361C75.7051 44.1954 74.2384 45.036 73.2188 46.2146C73.0341 45.9885 72.9045 45.7329 72.8377 45.4631C72.7709 45.1934 72.7683 44.9149 72.8301 44.6443C72.8918 44.3736 73.0167 44.1164 73.1972 43.8877C73.3777 43.659 73.6102 43.4637 73.8809 43.3132C74.4284 42.9976 75.0981 42.8758 75.7488 42.9733C76.3996 43.0709 76.9805 43.3802 77.3693 43.8361V43.8361Z" fill="#263238"/>
<path d="M77.9016 48.2481C77.9158 48.5236 77.8349 48.7966 77.6689 49.0332C77.503 49.2698 77.2593 49.4596 76.9681 49.5791C76.677 49.6987 76.3511 49.7426 76.031 49.7055C75.7108 49.6684 75.4105 49.552 75.1671 49.3705C74.9238 49.1891 74.7483 48.9507 74.6622 48.6849C74.5762 48.4191 74.5834 48.1376 74.6831 47.8753C74.7827 47.613 74.9704 47.3814 75.2228 47.2093C75.4753 47.0372 75.7813 46.9321 76.1031 46.907C76.3246 46.8933 76.5471 46.9172 76.7577 46.9773C76.9684 47.0374 77.1629 47.1326 77.3302 47.2573C77.4974 47.382 77.634 47.5338 77.7321 47.7039C77.8302 47.8739 77.8878 48.0589 77.9016 48.2481Z" fill="#263238"/>
<path d="M68.4411 46.5184L69.8344 56.7241L75.7736 54.3793L68.4411 46.5184Z" fill="#E39C9C"/>
<path d="M67.4583 83.0145C65.2941 82.0361 62.873 79.2864 60.9954 81.6312C59.1178 83.976 57.8134 86.6919 56.2718 86.3545C54.7302 86.0171 49.4433 82.3228 47.289 78.9575C46.1955 77.1176 45.5405 75.1109 45.362 73.0534C45.362 73.0534 47.0123 71.2569 48.3859 69.8568C49.9177 68.3133 50.1548 67.9084 51.4691 67.7566L51.9632 71.6111C52.1617 72.3705 52.5357 73.0884 53.0634 73.7228C53.5912 74.3571 54.262 74.8952 55.0366 75.3054C58.8906 77.3465 64.3948 78.1309 67.4583 83.0145Z" fill="#EBEBEB"/>
<path d="M67.4543 83.0139C68.6204 81.9765 72.1285 78.8726 74.1938 79.2606C76.2592 79.6486 78.4925 82.938 78.4826 82.0102C78.4728 81.0824 76.0418 75.5494 74.3717 73.677C72.7016 71.8046 69.7568 69.9827 68.4425 69.8562V72.8336C69.006 74.1951 69.3646 75.6121 69.5098 77.0508C69.4801 79.5389 67.6025 81.4788 67.4543 83.0139Z" fill="#EBEBEB"/>
<path d="M32.6636 70.9367C34.1901 68.4872 35.1339 65.8041 35.4404 63.0421C35.6578 59.837 37.8813 56.5813 38.5829 55.274C39.2845 53.9666 41.004 51.9002 42.2294 50.0531C43.4548 48.2059 43.8204 47.6577 46.0241 46.9661C49.0579 46.0214 51.4197 45.2117 52.7142 45.3382C54.0088 45.4647 54.1175 46.1817 53.2577 47.2444C52.398 48.3071 50.2042 48.9313 49.5421 49.2096C48.88 49.488 47.4866 50.3061 47.4866 50.3061L45.3818 54.4052C47.4327 54.376 49.4835 54.4718 51.5185 54.692C52.5857 54.9872 53.8704 56.9862 53.7024 58.2176C53.7024 58.2176 55.7282 58.9767 55.3527 60.6045C55.3527 60.6045 56.7164 61.6504 56.1828 62.7722C55.5562 63.9213 54.777 65.0052 53.8606 66.0025C53.3566 66.5423 51.0145 67.0231 51.0145 67.0231C50.2703 68.5312 49.2968 69.9491 48.1191 71.2403C46.6664 72.573 45.5399 72.6742 44.1663 75.1961L32.6636 70.9367Z" fill="#F5B4B4"/>
<path d="M47.7102 54.4301C48.7774 53.8144 48.8861 53.1059 50.0621 53.283C51.238 53.4601 51.0503 54.6072 51.0503 54.6072L47.7102 54.4301Z" fill="#E39C9C"/>
<path d="M53.7161 58.3187C52.8785 57.9085 51.9814 57.5937 51.0479 57.3825C50.1684 57.1716 48.3798 56.9355 48.3798 56.9355C49.568 56.8389 50.7664 56.89 51.9374 57.0873C52.5381 57.1837 53.127 57.3277 53.6964 57.5175C53.7344 57.7497 53.7344 57.9853 53.6964 58.2175L53.7161 58.3187Z" fill="#E39C9C"/>
<path d="M54.1846 59.7028C54.6052 59.7795 55.0181 59.8839 55.4199 60.0149C55.4535 60.2474 55.4535 60.4825 55.4199 60.7149C54.6095 60.0402 51.9809 59.5679 51.9809 59.5679C52.719 59.5457 53.4578 59.5909 54.1846 59.7028Z" fill="#E39C9C"/>
<path d="M50.7352 67.639C51.1531 66.372 51.7158 65.1431 52.4151 63.97C52.6485 63.6374 53.0214 63.393 53.4582 63.2865C53.895 63.1799 54.3629 63.2193 54.767 63.3965C55.1623 63.7507 53.5614 63.9447 53.1365 64.1977C52.1375 65.235 51.3279 66.3952 50.7352 67.639V67.639Z" fill="#E39C9C"/>
<path d="M44.0543 54.5063C44.0543 54.5063 44.7164 53.2833 45.9517 51.3096C47.1869 49.336 47.1375 49.6227 48.6494 49.0829C50.1614 48.5431 53.0074 47.6575 53.6399 46.7297C53.5408 46.9088 53.4251 47.0808 53.294 47.2442C52.454 48.307 50.2405 48.9311 49.5784 49.2095C48.9163 49.4878 47.5229 50.3059 47.5229 50.3059L45.3587 54.5231L44.0543 54.5063Z" fill="#E39C9C"/>
<path d="M32.6625 70.9375C28.5812 77.1705 17.2663 92.4031 15.1219 98.0879C13.6791 102.035 14.8748 110.47 17.8394 113.084C20.804 115.699 27.1285 113.43 31.6051 108.572C35.469 104.355 37.5343 95.4564 39.5107 89.0125C41.4871 82.5686 44.1355 75.239 44.1355 75.239L32.6625 70.9375Z" fill="#F5B4B4"/>
<path d="M32.6611 70.9369C33.5763 69.3834 34.327 67.7631 34.9043 66.0955C35.1696 65.2665 35.3547 64.4202 35.4577 63.5652C35.5146 62.7108 35.6702 61.8632 35.9221 61.0349C36.4716 59.3663 37.2338 57.7541 38.195 56.2273C39.0892 54.67 40.1095 53.1678 41.2486 51.7317C41.7921 50.9979 42.3059 50.2304 42.8 49.4797C43.2348 48.7133 43.9215 48.0715 44.7765 47.6326C45.6887 47.2672 46.6259 46.9489 47.5829 46.6795C48.5711 46.3843 49.5 46.0807 50.4685 45.8361C51.3707 45.5127 52.3759 45.4651 53.3145 45.7011C53.7197 45.8698 53.6801 46.3 53.4726 46.6711C53.2786 47.0524 52.9923 47.3944 52.6326 47.6748C51.8478 48.2018 50.9708 48.6202 50.0337 48.9146C49.0999 49.2855 48.2098 49.7318 47.3754 50.2473V50.2473L45.2903 54.3464L45.1915 54.5404H45.4385C47.2723 54.5191 49.1062 54.5782 50.9329 54.7175C51.8717 54.7175 52.4548 55.3838 52.9093 56.0333C53.3836 56.6863 53.6304 57.4411 53.6209 58.2094V58.2853H53.6999C54.2097 58.4901 54.6488 58.8039 54.9747 59.1962C55.2828 59.5934 55.3963 60.0779 55.2909 60.5457V60.6047H55.3403C55.6622 60.8267 55.912 61.1153 56.066 61.4431C56.2199 61.7709 56.2729 62.1269 56.2198 62.4772C55.9133 63.159 55.5189 63.8096 55.0439 64.4171C54.8166 64.7292 54.5695 65.0412 54.3225 65.3364C54.0754 65.6317 53.858 65.969 53.4825 66.1208C52.719 66.4567 51.9089 66.7089 51.0713 66.8715V66.9137C50.676 67.6896 50.2511 68.4572 49.7669 69.1994C49.3104 69.9481 48.7461 70.6451 48.0869 71.2743C47.4149 71.8984 46.575 72.3707 45.903 73.0033C45.2423 73.642 44.7082 74.3685 44.3219 75.1541C44.7266 74.3787 45.27 73.6617 45.9326 73.0286C46.6145 72.4129 47.4643 71.9575 48.1561 71.3417C48.8371 70.7163 49.4216 70.019 49.8953 69.2669C50.3885 68.5249 50.837 67.762 51.2393 66.9812L51.18 67.0318C52.0351 66.861 52.8641 66.6063 53.6505 66.2727C54.0185 66.0506 54.3253 65.7628 54.5498 65.4292C54.8067 65.1256 55.0538 64.8135 55.2811 64.5014C55.7791 63.8824 56.1872 63.214 56.4965 62.5109C56.5629 62.1249 56.5124 61.7307 56.3498 61.3661C56.1872 61.0014 55.9179 60.6783 55.5676 60.4276V60.5288C55.6885 60.0063 55.5643 59.4642 55.2217 59.0191C54.8709 58.5927 54.398 58.2501 53.8481 58.0238L53.9272 58.1419C53.951 57.3258 53.7007 56.521 53.2058 55.8224C52.9716 55.4701 52.6824 55.1467 52.3461 54.8609C52.1708 54.71 51.9626 54.5896 51.7334 54.5066C51.5018 54.4425 51.2635 54.3973 51.0219 54.3717C49.1739 54.1946 47.326 54.1946 45.4781 54.1693L45.6263 54.3633L47.7411 50.2726L47.6818 50.34C48.4986 49.8386 49.3687 49.4037 50.2807 49.0411C51.2567 48.7325 52.1678 48.291 52.9785 47.7338C53.3693 47.4223 53.6819 47.0465 53.8975 46.6289C54.019 46.4103 54.0798 46.1708 54.0754 45.9288C54.0637 45.7971 54.0131 45.6701 53.9285 45.5595C53.8438 45.4489 53.7278 45.3584 53.5912 45.2963C53.0957 45.0961 52.538 45.0369 52.0002 45.1276C51.4709 45.2222 50.9519 45.3548 50.4487 45.524C49.4605 45.777 48.4723 46.0807 47.5533 46.3674C46.5827 46.6482 45.6323 46.9777 44.7073 47.3543C43.8074 47.8167 43.0859 48.4941 42.632 49.3026C42.1281 50.0617 41.6439 50.8124 41.1003 51.5546C39.9622 52.9984 38.9451 54.5091 38.0567 56.0755C37.1071 57.6186 36.3551 59.2446 35.8134 60.9252C35.5691 61.7738 35.4267 62.6414 35.3885 63.5146C35.3 64.3688 35.1281 65.2152 34.8746 66.0449C34.3159 67.7306 33.5749 69.3683 32.6611 70.9369V70.9369Z" fill="#E39C9C"/>
<path d="M33.5589 31.1084C33.7366 31.4428 34.0265 31.7247 34.392 31.9184C34.7575 32.1121 35.1821 32.2089 35.6121 32.1965C36.0421 32.1842 36.458 32.0632 36.8074 31.8489C37.1568 31.6347 37.4238 31.3368 37.5747 30.9929C37.7256 30.649 37.7537 30.2747 37.6552 29.9173C37.5567 29.5598 37.3362 29.2353 37.0215 28.9849C36.7069 28.7345 36.3122 28.5694 35.8876 28.5105C35.463 28.4516 35.0274 28.5015 34.636 28.654C34.1124 28.858 33.7049 29.231 33.5029 29.6911C33.301 30.1513 33.3211 30.661 33.5589 31.1084V31.1084Z" fill="#37474F"/>
<path d="M37.955 29.4977C38.9432 28.3422 38.3602 27.2963 36.7099 27.1613C35.804 27.1309 34.9025 27.2831 34.0784 27.6054C33.2543 27.9278 32.5308 28.4114 31.9665 29.0169C30.9783 30.1724 31.5712 31.2183 33.2215 31.3448C34.1252 31.3769 35.025 31.2263 35.8476 30.9053C36.6701 30.5843 37.3922 30.102 37.955 29.4977V29.4977Z" fill="#455A64"/>
<path d="M37.7118 28.8816C38.7 27.6924 38.1269 26.6128 36.4173 26.4778C35.4852 26.4454 34.5574 26.6011 33.7092 26.9324C32.8609 27.2636 32.1162 27.7609 31.5355 28.384C30.5473 29.5733 31.1205 30.6529 32.8301 30.7963C33.763 30.8277 34.6913 30.6706 35.5396 30.3379C36.3879 30.0052 37.1322 29.5063 37.7118 28.8816V28.8816Z" fill="#37474F"/>
<path d="M37.4446 28.2325C38.4328 27.001 37.8794 25.8877 36.1204 25.7021C35.158 25.6718 34.2007 25.8345 33.3254 26.1773C32.4501 26.52 31.6812 27.0333 31.0806 27.6758C30.0924 28.8988 30.6557 30.0121 32.4147 30.1555C33.3707 30.1919 34.3235 30.037 35.1968 29.7031C36.0702 29.3692 36.8399 28.8655 37.4446 28.2325V28.2325Z" fill="#455A64"/>
<path d="M37.1769 27.5498C38.2343 26.2847 37.6216 25.146 35.8033 25.0195C34.8132 24.9865 33.8279 25.1524 32.9267 25.504C32.0255 25.8556 31.2338 26.3831 30.6152 27.0438C29.5678 28.3089 30.1805 29.456 31.9889 29.5741C32.9789 29.6065 33.964 29.4402 34.865 29.0886C35.766 28.7371 36.5579 28.21 37.1769 27.5498V27.5498Z" fill="#37474F"/>
<path d="M36.8732 26.8496C37.9405 25.5592 37.3179 24.3952 35.4699 24.2434C34.4589 24.208 33.4522 24.3767 32.5319 24.7357C31.6115 25.0948 30.8034 25.6341 30.1732 26.3098C29.096 27.6003 29.7285 28.7727 31.5764 28.9161C32.5875 28.9514 33.5941 28.7828 34.5145 28.4237C35.4348 28.0647 36.2429 27.5254 36.8732 26.8496V26.8496Z" fill="#455A64"/>
<path d="M23.6891 8.24259C24.9276 7.76048 26.2653 7.49151 27.6258 7.45104C28.9862 7.41058 30.3426 7.59942 31.6174 8.00677C32.8923 8.41412 34.0605 9.03198 35.0554 9.82502C36.0502 10.6181 36.8521 11.5707 37.4152 12.6285C40.8245 19.0049 35.2313 22.4715 36.6049 25.044C36.7115 25.297 36.7366 25.5698 36.6775 25.8338C36.6184 26.0979 36.4773 26.3436 36.2689 26.5453C35.7184 27.1264 35.0159 27.5894 34.2179 27.897C33.4199 28.2046 32.5486 28.3483 31.6738 28.3165C31.357 28.3188 31.0453 28.2489 30.7708 28.114C30.4963 27.979 30.269 27.784 30.1124 27.549V27.549C28.7388 25.0187 21.9993 26.3344 18.59 19.958C18.0225 18.9031 17.7042 17.7631 17.6534 16.6032C17.6026 15.4432 17.8202 14.2861 18.2938 13.198C18.7674 12.1099 19.4877 11.1122 20.4135 10.2619C21.3392 9.41159 22.4523 8.72541 23.6891 8.24259V8.24259Z" fill="#BA68C8"/>
<g opacity="0.6">
<path opacity="0.6" d="M23.6891 8.2421C24.9276 7.76 26.2653 7.49102 27.6258 7.45055C28.9862 7.41009 30.3426 7.59893 31.6174 8.00628C32.8923 8.41363 34.0605 9.03149 35.0554 9.82453C36.0502 10.6176 36.8521 11.5702 37.4152 12.628C40.8245 19.0044 35.2313 22.471 36.6049 25.0435C36.7115 25.2965 36.7366 25.5693 36.6775 25.8334C36.6184 26.0975 36.4773 26.3432 36.2689 26.5448C35.7184 27.1259 35.0159 27.5889 34.2179 27.8965C33.4199 28.2041 32.5486 28.3478 31.6738 28.316C31.357 28.3183 31.0453 28.2484 30.7708 28.1135C30.4963 27.9785 30.269 27.7835 30.1124 27.5485V27.5485C28.7388 25.0182 21.9993 26.3339 18.59 19.9575C18.0225 18.9026 17.7042 17.7626 17.6534 16.6027C17.6026 15.4427 17.8202 14.2856 18.2938 13.1975C18.7674 12.1094 19.4877 11.1117 20.4135 10.2614C21.3392 9.4111 22.4523 8.72492 23.6891 8.2421V8.2421Z" fill="white"/>
</g>
<path d="M35.5063 26.3933C36.2079 25.5499 35.8027 24.7908 34.5971 24.7064C33.9371 24.6846 33.2803 24.7954 32.6796 25.0298C32.0788 25.2642 31.551 25.6156 31.1384 26.0559C30.4368 26.8994 30.8519 27.6585 32.0575 27.7428C32.7161 27.7646 33.3714 27.6538 33.9706 27.4194C34.5697 27.185 35.0958 26.8335 35.5063 26.3933V26.3933Z" fill="#BA68C8"/>
<path d="M31.9613 26.5118C32.0458 26.4787 32.1116 26.4187 32.1449 26.3446C32.1781 26.2705 32.1761 26.1882 32.1392 26.1154C31.3059 24.5686 30.2574 23.113 29.0165 21.7801C28.6641 21.3954 28.2811 21.0319 27.8701 20.6921C28.1058 20.4911 28.3176 20.2707 28.5026 20.0342C28.8372 19.6046 29.0968 19.1358 29.2734 18.6425C29.8183 18.8547 30.3983 18.9941 30.9929 19.0558C31.3215 19.0835 31.6525 19.0835 31.9811 19.0558C32.0127 19.5456 32.0821 20.033 32.1886 20.515C32.5644 22.1842 33.1715 23.8094 33.997 25.3563C34.0376 25.4269 34.1087 25.4813 34.1953 25.508C34.282 25.5348 34.3774 25.5318 34.4615 25.4997C34.5449 25.4634 34.6088 25.4012 34.64 25.3259C34.6713 25.2505 34.6675 25.1679 34.6294 25.0949C33.8298 23.5937 33.2427 22.0166 32.8803 20.3969C32.773 19.9178 32.7037 19.4332 32.6728 18.9462C33.0196 18.8762 33.3412 18.7352 33.6098 18.5353C33.8784 18.3355 34.0859 18.0828 34.2144 17.7991C34.3138 17.5872 34.3216 17.3521 34.2365 17.1358C34.1514 16.9195 33.979 16.736 33.75 16.6183C33.5971 16.5291 33.4163 16.4813 33.2312 16.4813C33.046 16.4813 32.8652 16.5291 32.7123 16.6183C32.4431 16.8536 32.2373 17.1364 32.1092 17.4466C31.9812 17.7569 31.9341 18.0874 31.9712 18.4148C31.6691 18.4441 31.3641 18.4441 31.0621 18.4148C30.4875 18.349 29.9278 18.2097 29.4019 18.0015C29.4783 17.7144 29.4862 17.417 29.4251 17.1272C29.3639 16.8374 29.2351 16.561 29.0461 16.3146C28.905 16.1835 28.7189 16.0938 28.5144 16.0585C28.3099 16.0232 28.0976 16.044 27.9078 16.118C27.7181 16.1919 27.5606 16.3152 27.458 16.4703C27.3554 16.6253 27.3128 16.804 27.3365 16.9809C27.4315 17.2688 27.5945 17.5369 27.8154 17.769C28.0364 18.0011 28.3106 18.1922 28.6212 18.3305C28.4671 18.8078 28.2235 19.2606 27.8998 19.6715C27.7334 19.8873 27.5377 20.0855 27.3168 20.2619C27.0474 20.0261 26.7219 19.8423 26.3621 19.723C26.0024 19.6036 25.6169 19.5516 25.2317 19.5703C25.0524 19.6069 24.89 19.6883 24.765 19.8039C24.6401 19.9196 24.5583 20.0643 24.53 20.2198C24.4869 20.4441 24.5374 20.6743 24.6729 20.8701C24.8084 21.0659 25.0201 21.2148 25.2712 21.2909C25.6001 21.3845 25.9502 21.4111 26.2934 21.3687C26.6365 21.3262 26.9633 21.2158 27.2476 21.0463C27.6629 21.385 28.0493 21.7486 28.4038 22.1344C29.598 23.4364 30.6127 24.8514 31.4277 26.3516C31.4647 26.4252 31.5343 26.4833 31.6213 26.5133C31.7083 26.5433 31.8056 26.5428 31.8921 26.5118H31.9613ZM33.1867 17.1412C33.2227 17.1234 33.2636 17.1141 33.3053 17.1141C33.3469 17.1141 33.3878 17.1234 33.4238 17.1412C33.5083 17.1935 33.5691 17.2689 33.5961 17.3549C33.6231 17.4409 33.6146 17.5322 33.5721 17.6135C33.4941 17.7755 33.376 17.9212 33.2259 18.0405C33.0758 18.1599 32.8973 18.2502 32.7025 18.3051C32.7618 17.6388 32.9495 17.2593 33.1471 17.1412H33.1867ZM26.7337 20.6583C26.5566 20.7477 26.3592 20.8038 26.1547 20.8227C25.9502 20.8416 25.7433 20.8229 25.5479 20.768C25.4589 20.768 25.1724 20.6077 25.2317 20.3716C25.291 20.1354 25.3404 20.1945 25.4095 20.1776C25.906 20.1901 26.3788 20.3618 26.7337 20.6583V20.6583ZM28.216 16.6773C28.2402 16.6617 28.2679 16.6506 28.2974 16.6447C28.3269 16.6387 28.3575 16.6381 28.3873 16.6429C28.417 16.6477 28.4453 16.6577 28.4703 16.6723C28.4953 16.687 28.5164 16.7059 28.5323 16.7279C28.7494 17.0213 28.8337 17.3721 28.7694 17.7147C28.4255 17.5327 28.1695 17.2514 28.048 16.9219C28.0391 16.8964 28.0365 16.8697 28.0402 16.8433C28.044 16.8169 28.054 16.7914 28.0698 16.7685C28.0855 16.7455 28.1067 16.7256 28.1318 16.7099C28.157 16.6942 28.1856 16.6831 28.216 16.6773V16.6773Z" fill="white"/>
<path d="M21.9886 5.20668L22.1664 5.16451C22.3297 5.10022 22.4566 4.98351 22.5195 4.83976C22.5824 4.69602 22.5763 4.53688 22.5024 4.39698L21.0597 1.66423C20.9863 1.52442 20.8508 1.41521 20.6831 1.36064C20.5154 1.30607 20.3291 1.3106 20.1653 1.37324C20.0015 1.43587 19.8736 1.55148 19.8096 1.69463C19.7457 1.83778 19.751 1.99674 19.8244 2.13655L21.2771 4.87774C21.3364 4.992 21.4383 5.08626 21.5671 5.14578C21.6958 5.20529 21.8441 5.22671 21.9886 5.20668Z" fill="#E0E0E0"/>
<path d="M29.6969 4.14433C29.8456 4.12456 29.9824 4.06338 30.0861 3.97032C30.1898 3.87726 30.2544 3.75755 30.2701 3.62983L30.6258 0.635612C30.6349 0.560294 30.6266 0.484186 30.6012 0.411634C30.5758 0.339082 30.5339 0.271506 30.4779 0.212765C30.422 0.154025 30.353 0.105271 30.2749 0.0692851C30.1969 0.0332988 30.1113 0.0107842 30.023 0.00303079C29.9348 -0.00472257 29.8456 0.00243567 29.7606 0.0240956C29.6756 0.0457555 29.5964 0.0814927 29.5276 0.129268C29.4588 0.177044 29.4017 0.235924 29.3595 0.302542C29.3173 0.36916 29.291 0.442213 29.2819 0.517531L28.9261 3.51175C28.9166 3.58714 28.9246 3.6634 28.9498 3.73612C28.975 3.80883 29.0168 3.87657 29.0729 3.9354C29.1289 3.99423 29.1981 4.04298 29.2764 4.07885C29.3547 4.11471 29.4405 4.13697 29.5289 4.14433C29.5845 4.15286 29.6414 4.15286 29.6969 4.14433V4.14433Z" fill="#E0E0E0"/>
<path d="M36.9596 6.49718C37.1364 6.47253 37.2955 6.39105 37.4042 6.26945L39.4597 3.82347C39.5212 3.76196 39.5665 3.68991 39.5925 3.61219C39.6186 3.53447 39.6248 3.45287 39.6107 3.37293C39.5967 3.29298 39.5627 3.21653 39.5111 3.14875C39.4594 3.08097 39.3914 3.02344 39.3115 2.98003C39.2376 2.93128 39.153 2.8958 39.0626 2.87573C38.9722 2.85565 38.8781 2.8514 38.7857 2.86322C38.6934 2.87504 38.6048 2.90269 38.5253 2.94451C38.4459 2.98633 38.3771 3.04145 38.3233 3.10654L36.2678 5.55253C36.1898 5.64451 36.1455 5.75419 36.1405 5.86768C36.1356 5.98117 36.1703 6.09336 36.2401 6.19002C36.31 6.28668 36.4119 6.36346 36.5329 6.41063C36.654 6.45781 36.7887 6.47325 36.92 6.45501L36.9596 6.49718Z" fill="#E0E0E0"/>
<path d="M41.8807 11.651C41.9426 11.6418 42.0025 11.6247 42.0586 11.6004L45.2702 10.369C45.434 10.3064 45.562 10.1908 45.6259 10.0476C45.6898 9.90447 45.6845 9.7455 45.6111 9.60569C45.5378 9.46588 45.4023 9.35668 45.2346 9.30211C45.0668 9.24754 44.8806 9.25207 44.7168 9.3147L41.4953 10.5546C41.3534 10.6166 41.2414 10.7191 41.1789 10.8443C41.1163 10.9695 41.1072 11.1094 41.153 11.2398C41.1988 11.3701 41.2967 11.4827 41.4296 11.5578C41.5626 11.6329 41.7222 11.6659 41.8807 11.651Z" fill="#E0E0E0"/>
<path d="M17.3028 29.7681C17.3914 29.7586 17.4767 29.7335 17.5533 29.6943C17.6299 29.655 17.696 29.6026 17.7475 29.5404L19.8129 27.0944C19.8723 27.0318 19.9157 26.9592 19.9401 26.8814C19.9645 26.8035 19.9694 26.7221 19.9545 26.6426C19.9395 26.563 19.9051 26.487 19.8535 26.4195C19.8018 26.352 19.7341 26.2946 19.6547 26.251C19.5834 26.2067 19.5025 26.1748 19.4167 26.1572C19.3309 26.1395 19.2418 26.1365 19.1546 26.1483C19.0675 26.16 18.9839 26.1863 18.9086 26.2256C18.8333 26.265 18.7679 26.3166 18.716 26.3775L16.6506 28.8235C16.5911 28.8861 16.5478 28.9587 16.5234 29.0365C16.499 29.1144 16.4941 29.1957 16.509 29.2753C16.5239 29.3549 16.5583 29.4309 16.61 29.4984C16.6616 29.5658 16.7293 29.6233 16.8087 29.6669C16.8787 29.7116 16.9586 29.7436 17.0436 29.761C17.1285 29.7784 17.2167 29.7808 17.3028 29.7681Z" fill="#E0E0E0"/>
<path d="M11.2264 23.4171L11.4043 23.3749L14.6159 22.135C14.6973 22.1049 14.7708 22.0612 14.832 22.0065C14.8932 21.9517 14.9408 21.887 14.9722 21.8162C15.0035 21.7454 15.0179 21.6699 15.0144 21.5943C15.0109 21.5187 14.9896 21.4444 14.9519 21.3759C14.9165 21.3065 14.8654 21.2437 14.8014 21.1913C14.7375 21.1388 14.662 21.0976 14.5793 21.0702C14.4966 21.0427 14.4084 21.0295 14.3197 21.0314C14.231 21.0332 14.1436 21.0499 14.0625 21.0807L10.8509 22.3206C10.7695 22.3508 10.696 22.3944 10.6345 22.449C10.573 22.5036 10.5248 22.5681 10.4926 22.6386C10.4605 22.7092 10.445 22.7845 10.4471 22.8602C10.4493 22.9359 10.4689 23.0105 10.505 23.0797C10.5671 23.1944 10.6707 23.2891 10.8006 23.3498C10.9304 23.4106 11.0797 23.4341 11.2264 23.4171V23.4171Z" fill="#E0E0E0"/>
<path d="M13.2019 15.6239C13.3603 15.6006 13.504 15.5303 13.6076 15.4253C13.7112 15.3204 13.7681 15.1875 13.7681 15.0503C13.7681 14.9131 13.7112 14.7803 13.6076 14.6753C13.504 14.5704 13.3603 14.5001 13.2019 14.4768L9.69375 14.1731C9.60542 14.165 9.51607 14.1718 9.43087 14.1933C9.34567 14.2148 9.26631 14.2505 9.19739 14.2984C9.12846 14.3462 9.07134 14.4053 9.02932 14.4721C8.9873 14.5389 8.96123 14.6122 8.9526 14.6876C8.94303 14.763 8.95108 14.8393 8.97627 14.912C9.00146 14.9847 9.04329 15.0525 9.09934 15.1113C9.1554 15.1701 9.22457 15.2189 9.30285 15.2547C9.38113 15.2906 9.46696 15.3129 9.55539 15.3202L13.0635 15.6239C13.1094 15.629 13.1559 15.629 13.2019 15.6239Z" fill="#E0E0E0"/>
<path d="M15.9591 9.40757C16.0902 9.38838 16.2118 9.33691 16.309 9.2595C16.4062 9.18209 16.4747 9.08212 16.5062 8.97189C16.5377 8.86165 16.5308 8.74596 16.4862 8.63905C16.4417 8.53214 16.3615 8.43867 16.2556 8.37014L13.3898 6.60735C13.3178 6.56346 13.2364 6.53214 13.1502 6.51517C13.064 6.4982 12.9748 6.49592 12.8876 6.50845C12.8004 6.52099 12.7169 6.5481 12.642 6.58823C12.5671 6.62836 12.5021 6.68071 12.451 6.7423C12.3978 6.8028 12.3593 6.8718 12.338 6.94522C12.3166 7.01864 12.3127 7.09497 12.3265 7.1697C12.3403 7.24442 12.3716 7.31602 12.4184 7.38024C12.4653 7.44446 12.5268 7.5 12.5992 7.54357L15.4551 9.30636C15.601 9.39534 15.7821 9.4317 15.9591 9.40757V9.40757Z" fill="#E0E0E0"/>
<path d="M26.2202 43.6685C26.3214 43.6249 26.3998 43.5504 26.44 43.4599C26.4803 43.3694 26.4794 43.2693 26.4376 43.1793L26.2696 42.8335C26.0579 42.3943 26.0415 41.9041 26.2235 41.4552C26.4054 41.0063 26.7733 40.6296 27.2578 40.396L27.6333 40.202C27.729 40.1498 27.7989 40.0694 27.8298 39.9762C27.8608 39.8829 27.8506 39.7832 27.8013 39.6959C27.7519 39.6081 27.6649 39.5399 27.5582 39.5054C27.4515 39.4709 27.3333 39.4726 27.2282 39.5104L26.7341 39.62C26.2203 39.7965 25.6491 39.8083 25.1259 39.6533C24.6028 39.4983 24.1631 39.1868 23.888 38.7766L23.6608 38.4561C23.6028 38.3714 23.5086 38.3092 23.3981 38.2825C23.2876 38.2558 23.1692 38.2666 23.0678 38.3127V38.3127C22.965 38.3548 22.885 38.4291 22.8446 38.5202C22.8041 38.6113 22.8062 38.7121 22.8504 38.8019L23.0184 39.1477C23.2301 39.5826 23.2517 40.0679 23.0794 40.5153C22.9071 40.9627 22.5523 41.3424 22.0796 41.5852L21.7041 41.7792C21.6068 41.8299 21.5352 41.9098 21.5037 42.0034C21.4722 42.0969 21.4831 42.1971 21.534 42.2841C21.585 42.3711 21.6724 42.4386 21.779 42.4732C21.8855 42.5078 22.0034 42.5069 22.1093 42.4709L22.5144 42.3275C23.0294 42.1486 23.6029 42.1356 24.1283 42.2907C24.6536 42.4459 25.095 42.7587 25.3703 43.1709L25.5976 43.4914C25.6573 43.5745 25.7514 43.6354 25.8613 43.662C25.9711 43.6885 26.0887 43.6788 26.1906 43.6348L26.2202 43.6685ZM25.7063 40.5731C25.397 40.9763 25.2164 41.4415 25.1826 41.9226C24.7124 41.661 24.1713 41.5071 23.6113 41.4756C23.9193 41.0755 24.0967 40.6126 24.1252 40.1345C24.6096 40.4019 25.1694 40.5534 25.7459 40.5731H25.7063Z" fill="#BA68C8"/>
<path d="M13.592 42.3612C14.1049 42.1402 14.5295 41.7943 14.8121 41.3673C15.0946 40.9403 15.2226 40.4513 15.1796 39.9623C15.1367 39.4733 14.9248 39.0061 14.5707 38.6198C14.2167 38.2336 13.7364 37.9456 13.1907 37.7923C12.6449 37.6389 12.0581 37.6272 11.5045 37.7585C10.9509 37.8898 10.4554 38.1583 10.0805 38.53C9.70567 38.9016 9.46835 39.3598 9.39859 39.8466C9.32883 40.3334 9.42975 40.8269 9.68859 41.2647C9.86049 41.5555 10.0978 41.8146 10.387 42.027C10.6762 42.2395 11.0117 42.4013 11.3742 42.5031C11.7366 42.6049 12.1191 42.6448 12.4996 42.6205C12.8801 42.5961 13.2514 42.508 13.592 42.3612V42.3612ZM11.3784 38.6248C11.7273 38.4782 12.1192 38.4228 12.5048 38.4654C12.8905 38.5081 13.2529 38.6469 13.5466 38.8645C13.8403 39.082 14.0522 39.3687 14.1559 39.6886C14.2596 40.0086 14.2503 40.3475 14.1294 40.6629C14.0085 40.9784 13.7812 41.2564 13.476 41.4621C13.1708 41.6679 12.8013 41.7922 12.4137 41.8195C12.0261 41.8468 11.6377 41.776 11.2971 41.6158C10.9565 41.4556 10.6789 41.2132 10.4989 40.9189C10.377 40.7196 10.303 40.5014 10.2813 40.2772C10.2596 40.0531 10.2906 39.8275 10.3726 39.6138C10.4545 39.4 10.5857 39.2024 10.7585 39.0325C10.9312 38.8627 11.142 38.7241 11.3784 38.6248Z" fill="#BA68C8"/>
<path d="M15.0456 49.3953C15.0998 49.373 15.1482 49.3415 15.1877 49.3028C15.2272 49.264 15.2572 49.2188 15.2756 49.1699C15.2941 49.1211 15.3008 49.0695 15.2952 49.0183C15.2896 48.9672 15.272 48.9175 15.2433 48.8724L14.5614 47.7253C14.5348 47.6804 14.4981 47.6405 14.4534 47.6077C14.4087 47.575 14.3569 47.55 14.3009 47.5344C14.2449 47.5187 14.1859 47.5126 14.1272 47.5164C14.0684 47.5202 14.0112 47.5339 13.9586 47.5566C13.906 47.5793 13.8592 47.6106 13.8208 47.6488C13.7825 47.6869 13.7533 47.7311 13.7349 47.7789C13.7166 47.8267 13.7094 47.8771 13.7139 47.9272C13.7184 47.9773 13.7343 48.0262 13.7609 48.0711L14.4428 49.2266C14.4977 49.3162 14.5914 49.384 14.704 49.4155C14.8166 49.447 14.9392 49.4398 15.0456 49.3953V49.3953Z" fill="#BA68C8"/>
<path d="M16.2567 49.7413L17.6105 49.1593C17.7155 49.1125 17.7949 49.0325 17.8319 48.9364C17.8688 48.8403 17.8603 48.7357 17.8082 48.6448C17.782 48.5986 17.7451 48.5573 17.6997 48.5236C17.6544 48.4898 17.6014 48.4643 17.5441 48.4485C17.4868 48.4327 17.4264 48.4271 17.3665 48.4318C17.3065 48.4366 17.2484 48.4516 17.1955 48.4762L15.8515 49.0581C15.7454 49.104 15.6649 49.184 15.6279 49.2804C15.5908 49.3769 15.6002 49.482 15.6539 49.5726C15.7076 49.6632 15.8013 49.7319 15.9144 49.7635C16.0274 49.7952 16.1505 49.7872 16.2567 49.7413Z" fill="#BA68C8"/>
<path d="M16.5844 51.9937C16.6901 51.9453 16.7697 51.8637 16.8065 51.7662C16.8434 51.6688 16.8346 51.5629 16.782 51.4708L16.1001 50.3237C16.045 50.232 15.9502 50.1622 15.8359 50.1292C15.7215 50.0961 15.5965 50.1024 15.4875 50.1466C15.3817 50.1951 15.3021 50.2766 15.2653 50.3741C15.2284 50.4716 15.2372 50.5775 15.2898 50.6695L15.9717 51.8251C15.9989 51.8705 16.0363 51.911 16.0818 51.9441C16.1274 51.9772 16.1801 52.0023 16.237 52.0179C16.2939 52.0336 16.3539 52.0395 16.4135 52.0354C16.4731 52.0312 16.5312 52.0171 16.5844 51.9937V51.9937Z" fill="#BA68C8"/>
<path d="M13.2162 51.0486L14.5701 50.4666C14.6775 50.4196 14.7587 50.3381 14.7958 50.2401C14.8328 50.142 14.8227 50.0354 14.7677 49.9436C14.7127 49.8519 14.6172 49.7826 14.5023 49.751C14.3874 49.7194 14.2625 49.728 14.155 49.775L12.8111 50.3569C12.7036 50.404 12.6218 50.4849 12.5831 50.5825C12.5444 50.6801 12.5517 50.7868 12.6035 50.8799C12.6603 50.9701 12.7559 51.0381 12.8701 51.0695C12.9843 51.101 13.1083 51.0935 13.2162 51.0486V51.0486Z" fill="#BA68C8"/>
<path d="M54.0716 8.64799C54.1793 8.68156 54.2979 8.67837 54.4029 8.63908C54.5078 8.5998 54.591 8.52745 54.6349 8.43713L54.8128 8.09132C55.033 7.65928 55.4269 7.30871 55.9235 7.10297C56.4201 6.89724 56.9865 6.84991 57.5205 6.96954L57.9454 7.07075C58.0018 7.08737 58.0616 7.09433 58.1212 7.09124C58.1808 7.08815 58.2391 7.07507 58.2928 7.05275C58.3464 7.03043 58.3945 6.9993 58.4341 6.96115C58.4736 6.92299 58.504 6.87855 58.5235 6.83037C58.543 6.78219 58.5511 6.73121 58.5475 6.68034C58.5439 6.62946 58.5285 6.5797 58.5024 6.53388C58.4762 6.48806 58.4398 6.44709 58.3951 6.4133C58.3504 6.37952 58.2983 6.35357 58.2419 6.33696L57.8367 6.19357C57.3305 6.00566 56.9197 5.66939 56.6787 5.24555C56.4377 4.8217 56.3822 4.33824 56.5224 3.88254L56.641 3.51986C56.6803 3.42256 56.6727 3.31591 56.6199 3.22337C56.567 3.13084 56.4733 3.06001 56.3593 3.02645C56.2453 2.9929 56.1204 2.99937 56.0119 3.04445C55.9035 3.08953 55.8206 3.16952 55.7812 3.26683L55.6132 3.61264C55.393 4.04426 54.9985 4.39406 54.5016 4.59838C54.0046 4.80271 53.4383 4.84799 52.9056 4.72599L52.4806 4.63321C52.4242 4.61659 52.3644 4.60963 52.3048 4.61272C52.2452 4.61581 52.1869 4.62889 52.1333 4.65121C52.0796 4.67353 52.0316 4.70466 51.992 4.74281C51.9524 4.78097 51.922 4.82541 51.9025 4.87359C51.8831 4.92177 51.8749 4.97275 51.8785 5.02363C51.8821 5.0745 51.8975 5.12426 51.9236 5.17008C51.9498 5.2159 51.9862 5.25687 52.0309 5.29066C52.0756 5.32444 52.1277 5.35039 52.1842 5.367L52.5893 5.51039C53.095 5.69838 53.5049 6.03506 53.7442 6.4592C53.9836 6.88333 54.0367 7.36672 53.8938 7.82142L53.7851 8.1841C53.7584 8.27794 53.7728 8.37686 53.8256 8.46227C53.8784 8.54768 53.9659 8.61372 54.0716 8.64799V8.64799ZM56.3247 6.1767C55.7688 6.26916 55.2509 6.48436 54.8227 6.80085C54.7239 6.32781 54.4743 5.88715 54.1013 5.52726C54.655 5.43647 55.1702 5.22098 55.5935 4.90311C55.6999 5.37569 55.9523 5.8154 56.3247 6.1767V6.1767Z" fill="#BA68C8"/>
<path d="M55.8849 18.4232C56.4281 18.5831 57.0146 18.6019 57.5702 18.4774C58.1259 18.3528 58.6259 18.0904 59.0068 17.7234C59.3878 17.3564 59.6328 16.9011 59.7107 16.4153C59.7886 15.9295 59.696 15.4348 59.4446 14.9939C59.1932 14.553 58.7943 14.1856 58.2983 13.9381C57.8023 13.6907 57.2315 13.5743 56.658 13.6037C56.0845 13.6331 55.5341 13.807 55.0764 14.1033C54.6187 14.3997 54.2741 14.8052 54.0864 15.2687C53.9617 15.5766 53.9093 15.9025 53.9321 16.2277C53.955 16.5529 54.0528 16.8711 54.2198 17.164C54.3868 17.457 54.6199 17.719 54.9056 17.935C55.1913 18.1511 55.5241 18.3169 55.8849 18.4232V18.4232ZM57.4957 14.4674C57.9963 14.6162 58.4071 14.9286 58.6379 15.3359C58.8686 15.7432 58.9003 16.212 58.726 16.6393C58.5517 17.0665 58.1857 17.4172 57.7085 17.6141C57.2313 17.8111 56.682 17.8381 56.1814 17.6894C55.6808 17.5406 55.27 17.2282 55.0392 16.8209C54.8085 16.4136 54.7768 15.9448 54.9511 15.5175C55.1254 15.0903 55.4914 14.7396 55.9686 14.5427C56.4458 14.3457 56.9951 14.3187 57.4957 14.4674V14.4674Z" fill="#BA68C8"/>
<path d="M68.5293 10.8409C68.5858 10.8582 68.6457 10.8659 68.7056 10.8634C68.7655 10.861 68.8243 10.8484 68.8785 10.8264C68.9327 10.8045 68.9812 10.7736 69.0214 10.7355C69.0615 10.6975 69.0925 10.653 69.1124 10.6047L69.6065 9.38171C69.6446 9.28549 69.6369 9.18035 69.5852 9.08889C69.5334 8.99742 69.4417 8.92692 69.3298 8.89251C69.2157 8.8597 69.0911 8.86599 68.9823 8.91005C68.8736 8.95411 68.7891 9.03249 68.7467 9.12868L68.2526 10.3517C68.2146 10.4479 68.2222 10.553 68.2739 10.6445C68.3257 10.736 68.4174 10.8065 68.5293 10.8409Z" fill="#BA68C8"/>
<path d="M69.0895 11.8279L70.5224 12.2496C70.5782 12.2669 70.6374 12.2744 70.6966 12.2719C70.7558 12.2693 70.8139 12.2566 70.8673 12.2346C70.9207 12.2126 70.9684 12.1817 71.0076 12.1437C71.0468 12.1058 71.0767 12.0615 71.0956 12.0135C71.134 11.9161 71.1266 11.8098 71.075 11.7169C71.0234 11.6241 70.9315 11.552 70.8188 11.5159L69.386 11.0941C69.2732 11.0616 69.1501 11.0682 69.0429 11.1123C68.9357 11.1565 68.8531 11.2347 68.8128 11.3303C68.7924 11.3785 68.7835 11.4296 68.7864 11.4807C68.7893 11.5319 68.804 11.582 68.8297 11.6283C68.8555 11.6745 68.8916 11.716 68.9362 11.7503C68.9808 11.7845 69.0329 11.8109 69.0895 11.8279V11.8279Z" fill="#BA68C8"/>
<path d="M67.4074 13.5903C67.4638 13.6077 67.5237 13.6154 67.5836 13.6129C67.6436 13.6104 67.7023 13.5978 67.7565 13.5759C67.8107 13.5539 67.8593 13.523 67.8994 13.485C67.9396 13.4469 67.9705 13.4025 67.9904 13.3542L68.4845 12.1396C68.5046 12.0914 68.5134 12.0403 68.5104 11.9893C68.5074 11.9382 68.4926 11.8881 68.4669 11.8419C68.4412 11.7957 68.4051 11.7542 68.3606 11.7199C68.3162 11.6856 68.2643 11.6592 68.2078 11.642C68.1514 11.6248 68.0915 11.6173 68.0317 11.6199C67.9718 11.6225 67.9131 11.6351 67.859 11.657C67.8048 11.6789 67.7563 11.7097 67.7161 11.7477C67.6759 11.7856 67.6449 11.83 67.6248 11.8781L67.1307 13.1011C67.1105 13.1487 67.1016 13.1993 67.1046 13.2498C67.1076 13.3004 67.1225 13.3499 67.1483 13.3955C67.1741 13.4411 67.2102 13.4818 67.2547 13.5152C67.2992 13.5487 67.3511 13.5742 67.4074 13.5903Z" fill="#BA68C8"/>
<path d="M65.8678 10.8742L67.3007 11.2959C67.4134 11.3284 67.5366 11.3219 67.6438 11.2777C67.751 11.2336 67.8336 11.1553 67.8739 11.0597C67.9123 10.9624 67.905 10.856 67.8533 10.7632C67.8017 10.6704 67.7099 10.5983 67.5972 10.5621L66.1643 10.1404C66.1085 10.1231 66.0493 10.1156 65.9901 10.1182C65.9308 10.1208 65.8728 10.1334 65.8194 10.1554C65.766 10.1774 65.7183 10.2083 65.6791 10.2463C65.6399 10.2843 65.61 10.3286 65.5911 10.3766C65.5708 10.4247 65.5618 10.4759 65.5647 10.527C65.5676 10.5781 65.5823 10.6283 65.6081 10.6746C65.6338 10.7208 65.67 10.7623 65.7146 10.7965C65.7592 10.8308 65.8112 10.8572 65.8678 10.8742V10.8742Z" fill="#BA68C8"/>
</svg>
