<svg width="281" height="151" viewBox="0 0 281 151" fill="none" xmlns="http://www.w3.org/2000/svg">
<path d="M86.791 116.674V149.818H71.5649V138.376H75.8114V136.09L71.5649 136.168V132.43L69.6412 132.434L69.6748 130.501L71.9177 130.445V116.619L86.791 116.674Z" fill="#E0E0E0"/>
<path d="M85.7075 137.181C85.7075 137.297 96.0823 137.388 108.876 137.388C121.67 137.388 132.054 137.297 132.054 137.181C132.054 137.065 121.679 136.971 108.876 136.971C96.0738 136.971 85.7075 137.065 85.7075 137.181Z" fill="#E0E0E0"/>
<path d="M85.7075 135.274C85.7075 135.386 96.0823 135.48 108.876 135.48C121.67 135.48 132.054 135.386 132.054 135.274C132.054 135.162 121.679 135.063 108.876 135.063C96.0738 135.063 85.7075 135.158 85.7075 135.274Z" fill="#E0E0E0"/>
<path d="M82.7164 130.135C82.7164 130.251 93.0912 130.342 105.889 130.342C118.688 130.342 129.062 130.251 129.062 130.135C129.062 130.019 118.688 129.925 105.889 129.925C93.0912 129.925 82.7164 130.019 82.7164 130.135Z" fill="#E0E0E0"/>
<path d="M82.4442 144.133C82.4442 144.249 92.8189 144.344 105.617 144.344C118.416 144.344 128.79 144.249 128.79 144.133C128.79 144.017 118.42 143.91 105.617 143.91C92.8147 143.91 82.4442 144.022 82.4442 144.133Z" fill="#E0E0E0"/>
<path d="M225.611 60.2242L247.894 57.3204L251.346 85.0366L229.063 87.9403L225.611 60.2242Z" fill="white"/>
<path d="M225.61 60.2254L247.893 57.3217L250.462 77.9458L228.179 80.8495L225.61 60.2254Z" fill="#EBEBEB"/>
<path d="M236.662 82.109C236.662 82.1477 239.556 81.8083 243.109 81.3443C246.663 80.8802 249.54 80.485 249.536 80.4291C249.532 80.3733 246.646 80.7299 243.088 81.1896C239.531 81.6493 236.658 82.0661 236.662 82.109Z" fill="#E0E0E0"/>
<path d="M244.117 82.5771C244.117 82.6158 245.377 82.4869 246.923 82.2893C247.859 82.1973 248.79 82.0539 249.712 81.8596C248.772 81.9035 247.836 81.9996 246.906 82.1475C245.97 82.2394 245.039 82.3829 244.117 82.5771Z" fill="#E0E0E0"/>
<path d="M229.059 87.9392C229.062 87.8948 229.062 87.8503 229.059 87.806C229.059 87.7114 229.034 87.5825 229.017 87.415C228.975 87.0713 228.917 86.5557 228.837 85.9112C228.677 84.5965 228.442 82.6759 228.148 80.2398C227.551 75.3719 226.699 68.4502 225.691 60.2138L225.632 60.2911L247.893 57.3953L247.805 57.3266C249.065 67.578 250.279 77.0905 251.271 85.0433L251.325 84.9703L235.171 87.1185L230.655 87.7243L229.463 87.8876L229.043 87.9477L229.463 87.9005L230.643 87.7544L235.146 87.1959L251.35 85.1163H251.413V85.0519C250.43 77.1206 249.246 67.5823 247.973 57.3351V57.2578H247.898L225.636 60.1708H225.569V60.2396C226.611 68.4932 227.484 75.4277 228.089 80.3C228.396 82.7275 228.644 84.6394 228.807 85.9542C228.891 86.6029 228.959 87.1013 229.001 87.4408L229.055 87.8231C229.051 87.8962 229.059 87.9392 229.059 87.9392Z" fill="#E0E0E0"/>
<path d="M258.069 46.9857L280.35 49.9014L276.884 77.6157L254.603 74.7L258.069 46.9857Z" fill="#F5F5F5"/>
<path d="M258.066 46.9825L280.347 49.8982L277.768 70.5209L255.487 67.6052L258.066 46.9825Z" fill="#E0E0E0"/>
<path d="M263.388 71.0068C263.388 71.0455 266.261 71.4579 269.815 71.9262C273.368 72.3946 276.254 72.734 276.258 72.691C276.262 72.6481 273.389 72.2356 269.832 71.7716C266.274 71.3076 263.393 70.9638 263.388 71.0068Z" fill="#E0E0E0"/>
<path d="M270.47 73.374C271.39 73.569 272.32 73.7124 273.255 73.8037C274.184 73.9514 275.121 74.0475 276.061 74.0915C275.14 73.8995 274.211 73.7561 273.276 73.6619C272.346 73.5142 271.41 73.4181 270.47 73.374Z" fill="#E0E0E0"/>
<path d="M254.597 74.6975C254.597 74.6975 254.597 74.6503 254.618 74.5643C254.639 74.4784 254.647 74.3452 254.673 74.1733C254.715 73.8296 254.782 73.314 254.866 72.6739C255.034 71.3591 255.286 69.4386 255.593 67.0068L258.113 46.9893L258.037 47.0495L280.299 49.9754L280.231 49.8895C278.971 60.1367 277.766 69.6534 276.775 77.6062L276.846 77.5504L260.725 75.4666L256.189 74.8908L254.996 74.7448L254.576 74.6975L254.996 74.7577L256.176 74.9166L260.675 75.5224L276.867 77.6707H276.93V77.6062C277.93 69.6749 279.127 60.1409 280.412 49.8938V49.8165H280.337L258.075 46.9077H258.008V46.9765C256.987 55.2343 256.13 62.1689 255.53 67.0454C255.236 69.473 255 71.3892 254.841 72.7039C254.761 73.3527 254.702 73.8511 254.66 74.1948C254.66 74.3581 254.626 74.4827 254.618 74.5729L254.597 74.6975Z" fill="#E0E0E0"/>
<path d="M237.371 43.6068L259.236 38.3364L265.501 65.5317L243.636 70.8021L237.371 43.6068Z" fill="white"/>
<path d="M237.371 43.6035L259.236 38.3331L263.898 58.5696L242.033 63.84L237.371 43.6035Z" fill="#EBEBEB"/>
<path d="M250.598 64.1881C250.598 64.2268 253.442 63.5823 256.928 62.7402C260.414 61.8981 263.228 61.1849 263.228 61.1419C263.228 61.0989 260.38 61.7477 256.894 62.5898C253.408 63.432 250.585 64.1452 250.598 64.1881Z" fill="#E0E0E0"/>
<path d="M258.058 63.8573C258.984 63.7086 259.902 63.5121 260.809 63.2686C261.73 63.0732 262.64 62.828 263.535 62.5339C262.608 62.683 261.69 62.8838 260.784 63.1354C259.863 63.3253 258.953 63.5663 258.058 63.8573Z" fill="#E0E0E0"/>
<path d="M22.5303 58.7756L45.6558 67.8275L34.8941 96.5949L11.7686 87.5429L22.5303 58.7756Z" fill="white"/>
<path d="M22.5335 58.7763L45.6589 67.8282L37.6503 89.2362L14.5249 80.1843L22.5335 58.7763Z" fill="#EBEBEB"/>
<path d="M22.1235 85.9071C22.1235 85.9544 25.0637 87.1574 28.7725 88.6053C32.4814 90.0533 35.4678 91.1832 35.493 91.1403C35.5182 91.0973 32.5528 89.89 28.8439 88.4421C25.1351 86.9942 22.1403 85.8728 22.1235 85.9071Z" fill="#E0E0E0"/>
<path d="M29.129 90.3455C31.023 91.2084 32.9607 91.9671 34.9338 92.6183C33.9981 92.1608 33.0391 91.755 32.0608 91.4024C31.1024 90.9978 30.1237 90.645 29.129 90.3455Z" fill="#E0E0E0"/>
<path d="M11.7699 87.5312C11.7699 87.5312 11.7699 87.4839 11.8245 87.3937L11.98 86.9941C12.1144 86.6375 12.3118 86.1348 12.5722 85.4345C13.0846 84.0725 13.8323 82.0832 14.79 79.5612C33.6031 67.7028 30.7091 62.7748 22.6025 58.7919L22.5059 58.8349L45.6075 67.8962L45.5571 67.7888C41.5836 78.4269 37.8832 88.3218 34.8086 96.5753L34.8968 96.5367L18.0956 90.006C16.0752 89.2197 14.4875 88.6053 13.3996 88.1886L12.1606 87.7117L11.7405 87.5484L12.1606 87.7203L13.4122 88.1886L18.0788 90.0361L34.88 96.6527L34.9472 96.6785L34.9724 96.6097L45.7335 67.8618L45.7629 67.7802L45.6873 67.7501L22.5605 58.7274L22.4933 58.7017L22.4681 58.7704C19.2759 67.3634 16.5877 74.5472 14.7101 79.6128C13.7735 82.1348 13.03 84.1241 12.5302 85.4861L11.9631 87.0371L11.8161 87.4324L11.7699 87.5312Z" fill="#E0E0E0"/>
<path d="M6.07846 150.269C6.07846 150.329 66.9114 150.381 141.933 150.381C216.954 150.381 277.804 150.329 277.804 150.269C277.804 150.209 216.984 150.157 141.933 150.157C66.882 150.157 6.07846 150.204 6.07846 150.269Z" fill="#263238"/>
<path d="M140.542 86.44L130.499 75.0285L122.59 74.3926L121.389 83.1446L127.786 86.0705L134.771 93.5937L139.009 94.5819L140.542 86.44Z" fill="#EFBE9D"/>
<path d="M121.922 29.4857L137.666 105.51L50.9058 124.309L35.1625 48.2847L121.922 29.4857Z" fill="white"/>
<path d="M50.9155 124.297L35.2652 48.2484L35.1938 48.3601L121.951 29.5844L121.821 29.4985C127.537 57.082 132.922 83.0802 137.572 105.521L137.647 105.405L50.9113 124.309L137.689 105.615H137.782V105.517C133.136 83.0759 127.76 57.0777 122.052 29.4942L122.031 29.3824H121.926L35.156 48.1839H35.0636L35.0846 48.2785C44.6151 94.0706 50.7517 123.523 50.9155 124.297Z" fill="#263238"/>
<path d="M169.473 86.1134L163.782 104.769L144.826 87.5828L137.686 93.817C137.686 93.817 153.773 119.974 161.577 124.898C170.234 130.363 180.533 123.179 181.835 117.908C183.137 112.636 189.992 89.0007 189.992 89.0007L169.473 86.1134Z" fill="#EFBE9D"/>
<path d="M163.333 104.442C163.312 104.481 163.833 104.777 164.563 105.396C164.99 105.763 165.389 106.162 165.756 106.591C166.655 107.64 167.346 108.856 167.794 110.174C167.975 110.712 168.115 111.264 168.214 111.824C168.382 112.782 168.377 113.392 168.419 113.392C168.447 113.251 168.457 113.106 168.449 112.962C168.46 112.795 168.46 112.627 168.449 112.46C168.449 112.266 168.428 112.03 168.386 111.798C168.305 111.225 168.175 110.66 167.999 110.109C167.562 108.756 166.854 107.511 165.92 106.453C165.535 106.024 165.113 105.63 164.66 105.276C164.475 105.117 164.286 105.001 164.131 104.889C163.996 104.794 163.855 104.707 163.711 104.627C163.594 104.548 163.466 104.486 163.333 104.442Z" fill="#E7996E"/>
<path d="M183.721 104.627L163.782 99.1234C163.782 99.1234 168.058 86.1866 171.385 76.8374C174.325 68.5924 179.252 65.1595 181.814 63.2948C182.849 62.5353 184.05 62.0483 185.313 61.877C190.03 61.2325 202.933 59.4967 209.334 58.9511C217.252 58.2765 233.788 62.7363 233.788 62.7363C233.788 62.7363 248.288 70.9598 253.177 74.3068C254.376 75.1178 255.292 76.2973 255.794 77.6752C256.697 80.1629 257.848 84.4379 259.225 89.9675C260.103 93.4821 263.006 105.117 263.006 105.117L245.999 104.58C242.571 115.227 239.396 124.774 239.396 124.774L240.774 150.278H177.702C177.702 150.278 183.524 110.827 183.524 109.912C183.524 109.577 183.603 107.321 183.721 104.627Z" fill="#6A5CF7"/>
<g opacity="0.3">
<path opacity="0.3" d="M203.337 83.9221C204.597 82.2938 206.764 81.6278 208.772 81.834C210.78 82.0403 212.645 83.0113 214.316 84.1713C219.474 87.7503 223.137 93.1467 226.371 98.5904C232.017 108.081 236.759 118.103 240.535 128.52L240.404 131.184C236.175 130.638 233.419 126.99 231.584 123.059C229.748 119.128 228.959 114.762 227.342 110.732C224.188 102.99 218.172 96.8363 210.603 93.6108C208.083 93.8771 205.378 93.0479 203.732 91.0801C202.085 89.1123 201.77 85.9544 203.337 83.9221Z" fill="black"/>
</g>
<path d="M183.523 108.004C183.62 108.004 184.183 102.363 184.783 95.3895C185.384 88.4163 185.796 82.7492 185.703 82.7406C185.611 82.732 185.044 88.3776 184.443 95.3594C183.842 102.341 183.435 107.995 183.523 108.004Z" fill="#263238"/>
<path d="M250.526 82.7406C250.413 83.017 250.328 83.3051 250.274 83.5999C250.127 84.2358 249.938 85.0478 249.716 86.0188C249.258 88.064 248.649 90.8911 247.998 94.0232C247.347 97.1554 246.771 99.9911 246.372 102.049C246.192 103.029 246.04 103.849 245.919 104.49C245.849 104.787 245.81 105.091 245.801 105.396C245.91 105.118 245.993 104.83 246.049 104.537C246.196 103.901 246.385 103.089 246.607 102.118C247.065 100.073 247.674 97.2456 248.33 94.1134C248.985 90.9813 249.552 88.1456 249.951 86.0876C250.132 85.108 250.287 84.2873 250.405 83.6429C250.473 83.3468 250.514 83.0447 250.526 82.7406Z" fill="#263238"/>
<path d="M186.569 62.1217C186.468 62.1475 187.043 64.4117 187.438 67.2775C187.833 70.1433 187.917 72.4591 188.018 72.4333C188.106 71.9273 188.129 71.4115 188.085 70.8995C188.052 69.6627 187.948 68.4289 187.774 67.2045C187.604 65.9778 187.363 64.7626 187.052 63.5653C186.952 63.065 186.789 62.5798 186.569 62.1217Z" fill="#263238"/>
<path d="M213.766 73.9587L208.028 62.1218L209.809 56.966C209.809 56.966 201.203 52.3945 204.143 43.0668C205.563 38.5641 209.225 29.5328 212.632 21.3995C214.399 17.1809 217.654 13.7975 221.75 11.9226C225.845 10.0476 230.481 9.8187 234.734 11.2813L235.607 11.5777C244.869 15.393 246.877 25.5672 242.895 34.9335L231.247 69.7352L213.766 73.9587Z" fill="#EFBE9D"/>
<path d="M209.808 56.9315C209.808 56.9315 215.39 59.3848 222.779 57.5631C222.779 57.5631 217.78 63.286 208.998 59.3333L209.808 56.9315Z" fill="#E7996E"/>
<path d="M212.148 30.5768C212.032 30.9218 212.052 31.2994 212.203 31.6298C212.355 31.9601 212.626 32.2173 212.959 32.347C213.12 32.417 213.292 32.4535 213.467 32.4544C213.641 32.4552 213.814 32.4204 213.975 32.352C214.137 32.2835 214.283 32.1829 214.405 32.0558C214.528 31.9288 214.625 31.778 214.69 31.6123C214.807 31.2679 214.788 30.8903 214.638 30.5597C214.487 30.2292 214.216 29.9717 213.883 29.8421C213.722 29.7714 213.549 29.7344 213.374 29.7332C213.199 29.732 213.026 29.7666 212.864 29.8351C212.703 29.9036 212.556 30.0045 212.433 30.1319C212.31 30.2593 212.213 30.4106 212.148 30.5768Z" fill="#263238"/>
<path d="M213.127 26.0568C213.228 26.2846 214.459 25.8764 215.853 26.3619C217.248 26.8474 218.033 27.9086 218.243 27.7883C218.344 27.7368 218.281 27.3587 217.945 26.8818C217.481 26.2465 216.837 25.7725 216.101 25.5241C215.376 25.274 214.592 25.265 213.862 25.4983C213.32 25.6873 213.072 25.9494 213.127 26.0568Z" fill="#263238"/>
<path d="M224.266 34.2933C224.149 34.6376 224.168 35.0151 224.32 35.345C224.471 35.675 224.743 35.9313 225.076 36.0591C225.237 36.1298 225.41 36.1668 225.584 36.1679C225.759 36.1691 225.932 36.1344 226.093 36.0659C226.255 35.9974 226.401 35.8965 226.524 35.7691C226.646 35.6418 226.743 35.4906 226.807 35.3245C226.923 34.9795 226.903 34.6019 226.752 34.2715C226.601 33.9412 226.33 33.6839 225.996 33.5543C225.835 33.4844 225.663 33.4481 225.488 33.4475C225.313 33.4469 225.14 33.4821 224.979 33.551C224.818 33.6198 224.671 33.721 224.549 33.8485C224.427 33.9759 224.33 34.1272 224.266 34.2933Z" fill="#263238"/>
<path d="M226.681 30.2845C226.761 30.5208 228.025 30.2545 229.361 30.8904C230.697 31.5262 231.364 32.6734 231.583 32.5746C231.688 32.5316 231.671 32.1449 231.385 31.6422C230.994 30.9603 230.408 30.4174 229.705 30.0869C229.01 29.758 228.231 29.6618 227.479 29.8119C226.916 29.9408 226.639 30.1728 226.681 30.2845Z" fill="#263238"/>
<path d="M218.188 40.4202C218.218 40.3385 217.403 39.8874 216.059 39.2214C215.714 39.0582 215.399 38.8734 215.42 38.6027C215.515 38.2148 215.723 37.8656 216.017 37.6016L217.966 35.2085C220.725 31.7713 222.855 28.8754 222.716 28.7637C222.578 28.652 220.23 31.3416 217.47 34.8046C216.794 35.6639 216.151 36.4717 215.542 37.2493C215.269 37.6188 214.883 38.0098 214.887 38.6156C214.897 38.7628 214.94 38.9056 215.013 39.033C215.086 39.1604 215.187 39.269 215.307 39.3503C215.488 39.4729 215.682 39.5725 215.887 39.6468C217.281 40.1881 218.155 40.4975 218.188 40.4202Z" fill="#263238"/>
<path d="M228.576 25.3266C228.576 25.7562 230.042 26.057 231.613 26.8217C233.184 27.5865 234.36 28.4974 234.687 28.2224C234.843 28.0892 234.729 27.6467 234.322 27.0881C233.76 26.3822 233.049 25.8165 232.242 25.4338C231.435 25.0512 230.553 24.8617 229.664 24.8797C228.983 24.8969 228.58 25.1031 228.576 25.3266Z" fill="#263238"/>
<path d="M214.79 22.2157C214.929 22.6453 216 22.6196 217.159 23.002C218.318 23.3843 219.226 23.9515 219.562 23.6894C219.713 23.5605 219.667 23.1824 219.339 22.727C218.885 22.1626 218.277 21.7488 217.593 21.5377C216.909 21.3266 216.179 21.3278 215.496 21.5411C214.975 21.7302 214.731 22.0181 214.79 22.2157Z" fill="#263238"/>
<path d="M239.904 41.5415C240.081 41.5415 246.763 41.7993 244.478 48.0808C242.194 54.3623 236.498 50.7188 236.553 50.5341C236.607 50.3493 239.904 41.5415 239.904 41.5415Z" fill="#EFBE9D"/>
<path d="M239.295 48.8714C239.328 48.8714 239.374 48.9874 239.521 49.1421C239.735 49.3508 240.02 49.465 240.315 49.46C241.055 49.46 241.995 48.6007 242.415 47.5008C242.629 46.9675 242.722 46.3918 242.688 45.8166C242.701 45.5984 242.662 45.3804 242.575 45.1807C242.488 44.9811 242.356 44.8058 242.189 44.6694C242.078 44.5903 241.943 44.553 241.809 44.564C241.674 44.575 241.547 44.6335 241.449 44.7295C241.302 44.8756 241.294 45.0174 241.256 45.0131C241.218 45.0088 241.164 44.8584 241.307 44.6178C241.398 44.475 241.534 44.3687 241.693 44.3171C241.8 44.2827 241.913 44.2708 242.025 44.2818C242.137 44.2929 242.245 44.3268 242.344 44.3815C242.578 44.5286 242.771 44.7346 242.905 44.9798C243.039 45.2251 243.109 45.5013 243.109 45.7822C243.169 46.4253 243.077 47.0739 242.84 47.6726C242.34 48.9229 241.277 49.8682 240.294 49.7908C240.111 49.7782 239.933 49.7234 239.774 49.6303C239.615 49.5373 239.478 49.4086 239.374 49.2538C239.248 49.0261 239.269 48.8714 239.295 48.8714Z" fill="#E7996E"/>
<path d="M221.968 42.8176C221.746 42.7274 221.233 44.2741 219.574 44.9272C217.915 45.5803 216.361 44.8585 216.277 45.069C216.226 45.1592 216.537 45.4986 217.213 45.7478C218.097 46.0658 219.063 46.0552 219.939 45.7178C220.78 45.392 221.464 44.7449 221.846 43.9132C222.119 43.2859 222.073 42.8434 221.968 42.8176Z" fill="#263238"/>
<path d="M210.405 7.63779C210.685 7.06354 211.101 6.56963 211.614 6.2006C212.127 5.83156 212.722 5.59901 213.345 5.52391C213.466 5.1716 213.619 4.83203 213.803 4.50994C214.929 2.55932 217.466 1.50238 219.524 2.36168C219.962 1.60656 220.594 0.988111 221.35 0.573014C222.107 0.157917 222.96 -0.0380895 223.817 0.00611839C224.675 0.0503262 225.504 0.333074 226.216 0.823884C226.928 1.31469 227.496 1.99495 227.857 2.79133C228.862 2.37826 229.961 2.27002 231.024 2.47957C232.087 2.68911 233.069 3.20757 233.851 3.97287C234.052 4.15659 234.198 4.39502 234.271 4.66031C234.289 4.74949 234.289 4.84131 234.272 4.93052C234.254 5.01973 234.22 5.10457 234.171 5.18019C234.612 4.80879 235.135 4.55227 235.695 4.43256C236.254 4.31284 236.834 4.33349 237.384 4.49275C237.757 4.60779 238.106 4.78963 238.417 5.02981C239.372 5.45527 240.126 6.24652 240.517 7.23392C241.908 7.25353 243.244 7.79447 244.271 8.75422C245.299 9.71398 245.946 11.0259 246.091 12.4413C247.084 12.865 247.93 13.5818 248.523 14.5002C249.116 15.4185 249.427 16.4968 249.418 17.5971C250.054 17.877 250.608 18.3236 251.023 18.8917C251.437 19.4599 251.698 20.1298 251.78 20.8339C251.861 21.538 251.76 22.2516 251.486 22.903C251.212 23.5544 250.775 24.1205 250.22 24.5445C250.22 24.5445 254.235 27.0494 251.803 30.6327C250.543 32.463 248.023 31.1955 248.023 31.1955L240.463 42.8777C240.496 42.9594 239.165 44.1667 238.522 43.5909C237.879 43.0152 237.711 42.0743 237.514 41.2236C237.283 40.2483 236.955 39.2687 237.035 38.2676C237.115 37.2665 237.737 36.2181 238.715 36.0635C237.762 35.3331 237.455 33.9754 237.611 32.7681C237.766 31.5607 238.362 30.4651 238.934 29.3953L241.454 24.6691C240.339 24.2378 239.36 23.5031 238.624 22.5445C237.887 21.5859 237.421 20.4398 237.275 19.2298C235.25 19.943 232.776 18.3447 232.545 16.1621C231.774 17.1503 230.666 17.8025 229.443 17.9867C228.221 18.1709 226.975 17.8735 225.959 17.1545C225.774 18.5552 223.065 18.9849 221.687 18.8946C220.31 18.8044 219.024 17.3522 219.024 17.3522C218.098 17.5481 217.144 17.5685 216.21 17.4123L216.071 17.3737C214.261 16.944 213.081 14.7313 212.749 12.8623C212.282 12.7529 211.843 12.5451 211.459 12.2522C210.808 11.7117 210.351 10.9649 210.16 10.1296C209.97 9.29418 210.056 8.4176 210.405 7.63779Z" fill="#263238"/>
<path d="M220.268 4.2179C220.177 4.27533 220.094 4.34467 220.02 4.42413C219.801 4.64344 219.615 4.8955 219.47 5.17172C219.234 5.60774 219.083 6.08627 219.025 6.58097C218.946 7.24038 219.029 7.90954 219.268 8.52729C219.577 9.27372 220.135 9.88313 220.843 10.2459C221.66 10.6644 222.593 10.7827 223.485 10.581C223.968 10.4732 224.422 10.2608 224.817 9.95803C225.028 9.80535 225.211 9.61636 225.359 9.39948C225.52 9.17332 225.616 8.90537 225.636 8.62611C225.64 8.47936 225.614 8.3333 225.559 8.19771C225.504 8.06211 225.422 7.94011 225.317 7.83985C225.105 7.64838 224.844 7.52182 224.565 7.47465C224.286 7.41894 223.999 7.42774 223.725 7.50042C223.45 7.56118 223.188 7.67178 222.952 7.82696C222.492 8.12803 222.12 8.55021 221.874 9.04917C221.629 9.54813 221.52 10.1055 221.557 10.6627C221.61 11.1743 221.762 11.67 222.004 12.1207C222.247 12.5715 222.575 12.9683 222.969 13.2878C223.676 13.8694 224.529 14.2357 225.43 14.3448C226.205 14.4404 226.989 14.4056 227.753 14.2416C228.846 13.9886 229.904 13.5975 230.903 13.0773C231.26 12.9011 231.529 12.7551 231.714 12.6476C231.809 12.6004 231.902 12.5473 231.991 12.4887C231.889 12.518 231.791 12.5583 231.697 12.609L230.857 12.9914C229.853 13.4746 228.799 13.8393 227.715 14.0784C226.968 14.2271 226.202 14.2518 225.447 14.1514C224.582 14.0419 223.765 13.6844 223.091 13.1203C222.72 12.8162 222.411 12.4404 222.183 12.0142C221.954 11.5881 221.81 11.12 221.759 10.6369C221.727 10.1196 221.83 9.60277 222.059 9.14032C222.288 8.67787 222.634 8.28666 223.061 8.00742C223.275 7.86488 223.513 7.76435 223.763 7.71096C224.006 7.64679 224.259 7.63799 224.506 7.68518C224.743 7.72391 224.965 7.83125 225.144 7.99453C225.229 8.07226 225.295 8.16793 225.34 8.27482C225.384 8.38171 225.405 8.49722 225.401 8.61322C225.367 8.84951 225.285 9.07575 225.159 9.27663C225.033 9.47751 224.866 9.64834 224.67 9.77757C224.297 10.066 223.867 10.2683 223.41 10.3705C222.561 10.5702 221.671 10.464 220.89 10.0697C220.211 9.72738 219.675 9.14832 219.377 8.43707C219.169 7.91635 219.073 7.35576 219.097 6.79366C219.12 6.23156 219.261 5.68123 219.512 5.18031C219.714 4.8213 219.969 4.4966 220.268 4.2179Z" fill="#455A64"/>
<path d="M260.943 105.031C260.943 105.031 264.925 119.777 265.803 123.377C266.681 126.978 266.689 135.343 264.694 137.818C262.699 140.292 256.113 141.869 256.113 141.869C256.113 141.869 243.189 135.424 238.787 127.536C234.385 119.648 222.355 98.2339 222.355 98.2339L226.165 87.5356L246.204 107.106L245.994 104.558L260.943 105.031Z" fill="#EFBE9D"/>
<path d="M219.091 53.795C218.926 53.7086 218.746 53.6565 218.561 53.6417C218.376 53.6269 218.19 53.6497 218.014 53.7089C217.838 53.768 217.675 53.8623 217.535 53.9862C217.394 54.1101 217.28 54.2613 217.197 54.4309L205.663 77.9242L208.603 79.269L219.721 55.7027C219.881 55.3636 219.904 54.974 219.786 54.6174C219.669 54.2608 219.419 53.9656 219.091 53.795Z" fill="#455A64"/>
<path d="M226.786 88.2101L216.004 76.8373H205.671L199.064 85.774C199.064 85.774 202.202 86.3712 203.323 84.6483L204.785 82.5215C204.785 82.5215 203.323 85.7955 204.109 87.4067C204.109 87.4067 205.659 91.1403 205.907 91.5399C206.377 92.2918 206.747 92.773 208.082 92.5453C209.418 92.3176 211.522 91.1962 211.3 90.397C211.23 90.1636 211.098 89.9543 210.92 89.7922C210.741 89.63 210.522 89.5212 210.287 89.4776L213.434 89.0179C213.434 89.0179 216.601 94.8869 218.507 96.2661C219.687 97.1094 220.981 97.7737 222.347 98.2382L226.786 88.2101Z" fill="#EFBE9D"/>
<path d="M245.801 106.762C245.776 106.818 246.671 107.244 248.044 108.051C249.826 109.12 251.502 110.365 253.047 111.768C254.591 113.18 255.998 114.743 257.247 116.434C258.201 117.723 258.713 118.582 258.763 118.582C258.687 118.358 258.584 118.145 258.457 117.946C258.147 117.383 257.807 116.836 257.44 116.309C255.044 112.795 251.88 109.899 248.2 107.854C247.494 107.471 246.906 107.183 246.494 106.994C246.274 106.887 246.041 106.809 245.801 106.762Z" fill="#E7996E"/>
<path d="M213.656 80.1413C213.162 79.996 212.653 79.9081 212.14 79.8793C211.203 79.759 209.901 79.6215 208.465 79.4926C208.102 79.4475 207.735 79.4475 207.372 79.4926C207.025 79.5485 206.694 79.6852 206.406 79.8921C205.936 80.24 205.558 80.7041 205.31 81.2413C205.063 81.709 204.899 82.2183 204.827 82.745C204.882 82.7665 205.079 82.1908 205.524 81.3573C205.78 80.8792 206.141 80.4688 206.579 80.1585C206.832 79.9876 207.119 79.8761 207.419 79.832C207.755 79.7936 208.095 79.7936 208.431 79.832C209.867 79.9609 211.17 80.0597 212.115 80.1156C212.626 80.1831 213.143 80.1917 213.656 80.1413Z" fill="#E7996E"/>
<path d="M205.423 90.9685C205.482 90.9685 205.381 90.1651 205.449 88.8847C205.49 88.1373 205.589 87.3945 205.747 86.6634C205.923 85.86 206.167 84.8975 206.965 84.4292C207.361 84.2143 207.785 84.0594 208.225 83.9695L209.485 83.673C210.203 83.5052 210.931 83.3903 211.665 83.3293C212.34 83.3076 213.016 83.3249 213.69 83.3809C213.525 83.2897 213.346 83.2314 213.16 83.209C212.664 83.1098 212.158 83.068 211.652 83.0844C210.906 83.1111 210.162 83.2017 209.43 83.3551C209.01 83.4367 208.59 83.5312 208.145 83.6344C207.666 83.7242 207.204 83.891 206.776 84.1285C206.344 84.3978 206.006 84.7991 205.81 85.2756C205.634 85.6991 205.506 86.1416 205.428 86.5947C205.281 87.3447 205.204 88.1071 205.197 88.8718C205.191 89.3861 205.222 89.9002 205.289 90.41C205.302 90.6026 205.348 90.7916 205.423 90.9685Z" fill="#E7996E"/>
<path d="M209.145 87.149C209.057 87.149 208.99 88.0685 208.981 89.2672V89.4734L209.191 89.4348C209.305 89.4121 209.42 89.4006 209.536 89.4004C210.075 89.4196 210.586 89.6504 210.964 90.0449C211.254 90.3542 211.346 90.6249 211.384 90.6077C211.422 90.5905 211.409 90.2855 211.132 89.8859C210.942 89.6311 210.698 89.4237 210.419 89.2793C210.14 89.1349 209.832 89.0573 209.519 89.0524C209.378 89.0528 209.237 89.0686 209.099 89.0997L209.305 89.2672C209.321 88.0556 209.25 87.149 209.145 87.149Z" fill="#E7996E"/>
<path d="M209.145 87.5011C209.145 87.5999 210.095 87.4581 211.245 87.398C212.396 87.3378 213.346 87.3722 213.346 87.2734C213.346 87.1746 212.417 86.9855 211.245 87.05C210.074 87.1144 209.145 87.4109 209.145 87.5011Z" fill="#E7996E"/>
<path d="M213.173 86.9512C213.085 86.9512 213.173 87.9952 213.639 89.1639C214.106 90.3325 214.786 91.1102 214.857 91.0543C214.929 90.9985 214.412 90.1521 213.954 89.0264C213.497 87.9007 213.274 86.934 213.173 86.9512Z" fill="#E7996E"/>
<path d="M145.49 88.2015C145.49 88.2015 138.383 78.7492 137.606 78.3195C136.829 77.8899 126.933 76.4291 126.933 76.4291C126.933 76.4291 127.353 79.6257 130.214 80.5666C132.238 81.2326 134.611 81.7524 134.611 81.7524C134.611 81.7524 133.822 87.948 135.279 90.4314C136.482 92.3289 137.845 94.1145 139.353 95.7676L145.49 88.2015Z" fill="#EFBE9D"/>
<line y1="-1.5" x2="59.6252" y2="-1.5" transform="matrix(0.219453 0.975623 -0.973403 0.229099 80.2266 49.285)" stroke="black" stroke-width="3"/>
<path d="M108.661 62.1549L120.211 83.7763H97.1115L108.661 62.1549Z" fill="#7EABFF"/>
<path d="M64.8769 69.8767L76.4267 91.4981H53.327L64.8769 69.8767Z" fill="#7EABFF"/>
<path d="M136.614 91.8708C135.979 91.1046 135.478 90.2326 135.131 89.2929C134.791 88.2563 134.596 87.1758 134.552 86.0834C134.518 85.4379 134.518 84.7911 134.552 84.1456C134.578 83.8077 134.626 83.4719 134.694 83.1403C134.78 82.7785 134.791 82.4026 134.728 82.0361C134.689 81.9396 134.632 81.852 134.56 81.7783C134.488 81.7046 134.402 81.6461 134.308 81.6064C134.148 81.5264 133.98 81.4616 133.808 81.4131C133.481 81.3193 133.148 81.2433 132.813 81.1854C132.191 81.0851 131.576 80.9415 130.973 80.7557C129.945 80.4681 129.009 79.9078 128.26 79.1316C127.778 78.5871 127.412 77.9463 127.184 77.2498C127.016 76.7557 126.962 76.4678 126.941 76.4721C126.938 76.5432 126.946 76.6143 126.966 76.6826C126.999 76.8833 127.045 77.0814 127.105 77.2755C127.305 78.0009 127.661 78.6715 128.146 79.239C128.901 80.0567 129.857 80.6506 130.914 80.9576C131.523 81.157 132.145 81.3121 132.775 81.4217C133.102 81.4807 133.426 81.5567 133.745 81.6494C133.906 81.6934 134.062 81.7538 134.211 81.8298C134.349 81.8825 134.462 81.987 134.526 82.122C134.575 82.454 134.561 82.7923 134.484 83.1188C134.414 83.4602 134.366 83.8062 134.342 84.1542C134.306 84.8068 134.306 85.4609 134.342 86.1135C134.395 87.224 134.611 88.3202 134.98 89.3659C135.241 90.0568 135.605 90.7018 136.06 91.2778C136.182 91.4375 136.316 91.5882 136.459 91.729C136.505 91.7823 136.557 91.8299 136.614 91.8708Z" fill="#E7996E"/>
<path d="M190.849 150.38H142.806C142.257 150.38 141.725 150.183 141.304 149.822C140.882 149.462 140.598 148.961 140.5 148.408L134.549 114.814C134.487 114.468 134.5 114.113 134.588 113.774C134.675 113.434 134.835 113.118 135.055 112.848C135.275 112.579 135.55 112.362 135.861 112.213C136.172 112.064 136.511 111.987 136.855 111.987H184.898C185.447 111.987 185.98 112.184 186.402 112.545C186.824 112.905 187.109 113.406 187.208 113.959L193.155 147.553C193.217 147.899 193.203 148.254 193.116 148.594C193.028 148.933 192.869 149.249 192.649 149.519C192.429 149.789 192.154 150.005 191.843 150.154C191.532 150.303 191.193 150.38 190.849 150.38Z" fill="#263238"/>
<path d="M188.409 150.376H219.265V150.05C219.265 149.285 218.968 148.552 218.439 148.011C217.911 147.47 217.194 147.167 216.446 147.167H188.409V150.376Z" fill="#263238"/>
<path d="M184.394 111.987C184.44 111.987 186.146 120.58 188.204 131.162C190.262 141.744 191.896 150.355 191.854 150.355C191.812 150.355 190.102 141.783 188.04 131.179C185.977 120.576 184.365 111.995 184.394 111.987Z" fill="#455A64"/>
<path d="M162.258 131.729C162.17 131.397 161.987 131.099 161.731 130.875C161.476 130.65 161.16 130.509 160.826 130.471H160.965C160.615 130.403 160.254 130.452 159.935 130.612C159.615 130.772 159.355 131.033 159.193 131.357C159.031 131.68 158.975 132.049 159.035 132.407C159.094 132.766 159.265 133.095 159.523 133.346C159.781 133.596 160.11 133.755 160.463 133.798C160.816 133.841 161.174 133.766 161.481 133.584C161.789 133.402 162.031 133.123 162.171 132.789C162.311 132.454 162.342 132.083 162.258 131.729Z" fill="#455A64"/>
</svg>
