<svg width="51" height="56" viewBox="0 0 51 56" fill="none" xmlns="http://www.w3.org/2000/svg">
<path d="M10.9999 24.8659C9.21402 21.5314 8.3529 17.8031 8.50125 14.0476C8.52032 12.4077 8.88302 10.7888 9.56727 9.28939C10.2656 7.78246 11.5303 6.59138 13.103 5.95961C14.2896 3.37914 17.1935 1.96481 19.996 1.22017C23.4851 0.249502 27.1825 0.233293 30.6804 1.17334C34.1891 2.13331 37.2133 4.30955 39.1797 7.28965C40.8921 9.99657 41.5047 13.2561 41.3649 16.4267C41.225 19.5972 40.3712 22.6975 39.3148 25.6995C34.3127 26.2334 29.3298 26.7672 24.2987 26.8469C19.8176 26.9171 14.9167 26.978 10.9999 24.8659Z" fill="#3D2614"/>
<path d="M50.1152 56.3467H0.219238C0.219238 56.3467 0.267483 55.6629 0.392898 54.642C0.392898 54.5062 0.431485 54.3563 0.45078 54.2064C0.647048 52.6383 0.958154 51.0858 1.38174 49.5607C1.42998 49.4061 1.4734 49.2563 1.52163 49.0923C1.72891 48.4426 2.00366 47.8149 2.34165 47.219C2.88211 46.4673 3.5647 45.8221 4.35312 45.3177C4.52195 45.2006 4.70042 45.0788 4.88854 44.957C6.28704 44.0646 7.75647 43.2816 9.28291 42.6154C9.56751 42.4843 9.86175 42.3578 10.156 42.2314C12.3902 41.2903 14.6985 40.5245 17.0587 39.9413L17.5748 39.8195C20.0594 39.2212 22.6075 38.9069 25.1672 38.8829C27.5412 38.9004 29.9061 39.1705 32.2194 39.6884L32.7018 39.7961C36.3385 40.6379 39.8508 41.9236 43.1547 43.6223L43.7239 43.9033C44.6543 44.4048 45.5458 44.9714 46.3914 45.5986C46.5361 45.7064 46.6711 45.8141 46.7966 45.9171C47.2706 46.2818 47.6811 46.7182 48.0121 47.2097C48.3469 47.8053 48.6169 48.4331 48.8177 49.083L48.9479 49.4857C49.26 50.573 49.5064 51.677 49.6859 52.7921C49.7149 52.9467 49.739 53.0918 49.7631 53.237C49.9946 54.9745 50.1152 56.3467 50.1152 56.3467Z" fill="#B7403D"/>
<path d="M32.7014 39.7867C32.1664 40.4503 31.5129 41.0151 30.7719 41.454C28.5289 42.7793 25.8325 42.9011 23.3049 42.4655C21.9934 42.2537 20.7104 41.9003 19.4797 41.4118C18.5887 41.0628 17.7712 40.558 17.0679 39.9225L17.584 39.8008C18.3281 40.4117 19.1794 40.8877 20.0971 41.2057C22.509 42.0815 25.2874 42.6107 27.8439 42.1049C29.5448 41.8066 31.0908 40.9562 32.2287 39.6931L32.7014 39.7867Z" fill="#892B2B"/>
<path d="M43.724 43.9033C43.4828 43.9782 43.2417 44.0485 43.0005 44.1093C39.5426 45.0043 35.9626 45.3724 32.3884 45.2005C28.7729 45.0266 25.1713 44.6435 21.6027 44.0531C17.9464 43.5052 14.29 42.9198 10.5903 42.6482C10.1658 42.6154 9.74132 42.592 9.31201 42.5732C9.59661 42.4421 9.89085 42.3157 10.1851 42.1892C10.735 42.2267 11.2801 42.2688 11.8203 42.3157C15.4766 42.6341 19.0944 43.2523 22.717 43.7675C26.3362 44.3547 29.9936 44.6928 33.6619 44.779C35.4831 44.8035 37.3036 44.6939 39.1078 44.4512C40.4853 44.2559 41.8473 43.968 43.1838 43.5895L43.724 43.9033Z" fill="#892B2B"/>
<path d="M46.7768 45.9218C46.087 46.1512 45.4069 46.3901 44.7557 46.6758C42.9034 47.4204 41.0849 48.2587 39.1892 48.8956C37.2871 49.5161 35.3141 49.9093 33.314 50.0664C29.2669 50.3896 25.1958 49.8463 21.2548 49.0268C17.1595 48.1838 13.1463 47.0176 9.06062 46.1466C7.51222 45.814 5.94453 45.5237 4.36719 45.3129C4.53602 45.1959 4.71448 45.0741 4.90261 44.9523C6.83207 45.2286 8.71331 45.6127 10.5945 46.0435C14.6705 46.9802 18.6983 48.1323 22.8177 48.8956C26.8599 49.6496 31.0517 50.0524 35.147 49.4295C37.1551 49.1002 39.117 48.5454 40.9933 47.7763C42.7925 47.0598 44.5531 46.2449 46.3861 45.6033C46.5164 45.711 46.6514 45.8187 46.7768 45.9218Z" fill="#892B2B"/>
<path d="M48.9287 49.4717C46.0634 49.8136 43.2705 50.8767 40.5162 51.626C32.9361 53.6524 24.9554 53.8134 17.2951 52.0943C13.4362 51.2232 9.63029 49.8979 5.65559 49.5373C4.23383 49.3968 2.80036 49.4109 1.38184 49.5794C1.43007 49.4249 1.47349 49.275 1.52173 49.1111C3.23324 48.9383 4.96012 48.9698 6.66375 49.2048C10.6819 49.734 14.5167 51.0781 18.4769 51.8976C22.3861 52.6897 26.3835 52.9934 30.3721 52.8015C34.3539 52.5841 38.2934 51.8952 42.1032 50.7502C44.2787 50.1086 46.5265 49.3827 48.7984 49.0924L48.9287 49.4717Z" fill="#892B2B"/>
<path d="M10.8025 54.492C13.2873 54.975 15.7404 55.6005 18.149 56.3653H16.5957C14.2565 55.6481 11.8654 55.1017 9.44224 54.7308C6.44198 54.3235 3.39966 54.2999 0.393066 54.6606C0.393066 54.5248 0.431653 54.3749 0.450948 54.225C3.89612 53.8172 7.38451 53.9072 10.8025 54.492V54.492Z" fill="#892B2B"/>
<path d="M49.7443 53.2228C49.1995 53.1291 48.6479 53.0775 48.0946 53.0682C46.3061 53.0666 44.5455 53.498 42.9719 54.3233C41.7756 54.9228 40.6517 55.6534 39.5085 56.3465H38.6499C39.0069 56.1451 39.359 55.9297 39.7063 55.719C41.2096 54.7014 42.828 53.8545 44.5299 53.1947C46.1752 52.6439 47.936 52.5006 49.6527 52.7779C49.6961 52.9324 49.7202 53.0776 49.7443 53.2228Z" fill="#892B2B"/>
<path d="M35.6827 48.1557C34.8925 49.7155 33.572 50.9627 31.9443 51.6868C31.4798 51.8906 30.9948 52.0476 30.4972 52.1551C30.4724 52.1653 30.4522 52.1838 30.4404 52.2073C30.4286 52.2308 30.426 52.2576 30.4331 52.2828C30.4402 52.308 30.4565 52.3299 30.4789 52.3443C30.5014 52.3587 30.5285 52.3647 30.5551 52.3612C32.3397 51.9524 33.9253 50.9603 35.046 49.5513C35.3587 49.1536 35.6302 48.727 35.8563 48.2774C35.9191 48.1557 35.7261 48.0479 35.6634 48.1697L35.6827 48.1557Z" fill="#FFCB99"/>
<path d="M35.9191 49.7432C35.2867 51.3902 34.0959 52.7792 32.5425 53.6818C32.5228 53.6983 32.5096 53.721 32.5054 53.7459C32.5011 53.7708 32.5061 53.7964 32.5193 53.8182C32.5325 53.84 32.5532 53.8565 32.5777 53.865C32.6022 53.8734 32.629 53.8732 32.6534 53.8645C34.2484 52.929 35.4694 51.4959 36.1168 49.7994C36.1651 49.673 35.9528 49.6168 35.8998 49.7432H35.9191Z" fill="#FFCB99"/>
<path d="M35.6445 9.64052C33.4835 6.42313 29.3497 5.34131 25.1675 5.34131C20.9854 5.34131 16.8515 6.42313 14.6905 9.64052C10.3107 16.1736 12.1195 29.0432 17.8742 33.3377C20.0115 34.7916 22.5579 35.5715 25.1675 35.5715C27.7772 35.5715 30.3236 34.7916 32.4609 33.3377C38.2204 29.0432 40.0293 16.1736 35.6445 9.64052Z" fill="#FFB8AE"/>
<path d="M38.196 13.3405C37.1107 9.95449 34.7857 6.84481 31.5104 5.27124C27.8203 3.49629 23.3391 3.86627 19.5381 5.38364C16.2483 6.71368 13.2673 8.95696 11.579 12.0011C9.89073 15.0452 9.64955 18.9229 11.3716 21.9436L11.9794 21.9764C14.4848 19.1876 16.099 15.7505 16.6246 12.0854C17.8195 12.847 19.1738 13.3413 20.5896 13.5325L19.7503 12.5256C22.3105 13.9323 25.2865 14.4541 28.1917 14.0055L27.6225 13.1531C30.0002 14.2409 32.6899 14.5053 35.2439 13.9025C35.1482 17.5259 36.3673 21.0667 38.688 23.9059C39.291 20.4075 39.2765 16.7405 38.196 13.3405Z" fill="#3D2614"/>
<path d="M31.1148 20.8429C31.1148 21.0875 31.0401 21.3265 30.9002 21.5298C30.7602 21.7332 30.5613 21.8916 30.3287 21.9852C30.096 22.0788 29.8399 22.1033 29.5929 22.0556C29.3459 22.0079 29.119 21.8901 28.9409 21.7172C28.7628 21.5443 28.6415 21.324 28.5923 21.0841C28.5432 20.8443 28.5684 20.5957 28.6648 20.3698C28.7612 20.1439 28.9244 19.9508 29.1338 19.8149C29.3432 19.6791 29.5895 19.6066 29.8413 19.6066C30.1791 19.6066 30.503 19.7368 30.7418 19.9687C30.9806 20.2006 31.1148 20.515 31.1148 20.8429V20.8429Z" fill="black"/>
<path d="M29.7353 20.4261C29.7413 20.4779 29.7361 20.5303 29.7198 20.58C29.7035 20.6296 29.6766 20.6753 29.6409 20.7142C29.6051 20.753 29.5613 20.7841 29.5123 20.8054C29.4634 20.8267 29.4103 20.8377 29.3567 20.8377C29.303 20.8377 29.25 20.8267 29.201 20.8054C29.152 20.7841 29.1082 20.753 29.0725 20.7142C29.0367 20.6753 29.0098 20.6296 28.9936 20.58C28.9773 20.5303 28.972 20.4779 28.978 20.4261C28.9885 20.3358 29.0329 20.2524 29.1028 20.1918C29.1726 20.1312 29.263 20.0977 29.3567 20.0977C29.4503 20.0977 29.5407 20.1312 29.6105 20.1918C29.6804 20.2524 29.7248 20.3358 29.7353 20.4261V20.4261Z" fill="white"/>
<path d="M21.7666 20.8429C21.7666 21.0875 21.6919 21.3265 21.552 21.5298C21.4121 21.7332 21.2132 21.8916 20.9805 21.9852C20.7478 22.0788 20.4918 22.1033 20.2447 22.0556C19.9977 22.0079 19.7708 21.8901 19.5927 21.7172C19.4146 21.5443 19.2933 21.324 19.2442 21.0841C19.1951 20.8443 19.2203 20.5957 19.3167 20.3698C19.413 20.1439 19.5763 19.9508 19.7857 19.8149C19.9951 19.6791 20.2413 19.6066 20.4932 19.6066C20.8309 19.6066 21.1548 19.7368 21.3936 19.9687C21.6324 20.2006 21.7666 20.515 21.7666 20.8429V20.8429Z" fill="black"/>
<path d="M20.3965 20.4262C20.3952 20.5239 20.3547 20.6173 20.2835 20.6865C20.2123 20.7556 20.1161 20.795 20.0154 20.7962C19.9152 20.7949 19.8195 20.7554 19.7491 20.6862C19.6786 20.6169 19.6392 20.5235 19.6392 20.4262C19.6392 20.3293 19.6788 20.2364 19.7494 20.1679C19.8199 20.0994 19.9156 20.0609 20.0154 20.0609C20.1156 20.0609 20.2118 20.0992 20.2832 20.1676C20.3545 20.236 20.3952 20.3289 20.3965 20.4262V20.4262Z" fill="white"/>
<path d="M24.0477 25.1703C24.0049 25.1698 23.9634 25.1558 23.9295 25.1305C23.8956 25.1051 23.8711 25.0698 23.8596 25.0298C23.4882 23.784 23.9223 23.3625 24.3419 23.2267C24.6118 23.1704 24.8909 23.1709 25.1605 23.2283C25.4302 23.2857 25.684 23.3985 25.9048 23.5592C25.9304 23.5705 25.9533 23.587 25.9718 23.6076C25.9903 23.6282 26.0041 23.6523 26.0123 23.6785C26.0204 23.7047 26.0227 23.7322 26.019 23.7593C26.0153 23.7864 26.0057 23.8124 25.9908 23.8356C25.9759 23.8588 25.9561 23.8786 25.9327 23.8938C25.9093 23.9089 25.8828 23.9191 25.855 23.9235C25.8272 23.9279 25.7988 23.9266 25.7716 23.9195C25.7444 23.9124 25.7191 23.8997 25.6974 23.8824C25.5258 23.7513 25.3271 23.6575 25.1149 23.6074C24.9027 23.5573 24.6818 23.552 24.4674 23.592C24.0766 23.7138 23.985 24.1634 24.2262 24.9267C24.2335 24.9507 24.2358 24.9759 24.2329 25.0008C24.2301 25.0256 24.2221 25.0497 24.2095 25.0715C24.1969 25.0933 24.18 25.1125 24.1596 25.1278C24.1393 25.1432 24.116 25.1544 24.0911 25.1609L24.0477 25.1703Z" fill="#C16B5B"/>
<path d="M32.7064 16.6796C31.9968 16.2665 31.2042 16.006 30.3821 15.9155C29.56 15.825 28.7275 15.9067 27.9406 16.1551C27.7999 16.1954 27.6808 16.2875 27.6088 16.4116C27.5368 16.5358 27.5174 16.6823 27.5547 16.8201C27.5952 16.9574 27.6898 17.0738 27.818 17.1439C27.9462 17.214 28.0977 17.2323 28.2397 17.1947C28.8831 16.9834 29.5664 16.9116 30.2415 16.9844C30.9165 17.0572 31.567 17.2729 32.1469 17.6162C32.2737 17.6746 32.4186 17.6846 32.5526 17.6442C32.6867 17.6037 32.8002 17.5158 32.8706 17.3979C32.9411 17.28 32.9633 17.1407 32.9329 17.0076C32.9025 16.8746 32.8216 16.7575 32.7064 16.6796V16.6796Z" fill="black"/>
<path d="M17.9216 16.6796C18.6313 16.2665 19.4238 16.006 20.2459 15.9155C21.0681 15.825 21.9006 15.9067 22.6874 16.1551C22.8284 16.1955 22.9478 16.2873 23.0206 16.4112C23.0934 16.5352 23.1141 16.6817 23.0781 16.8201C23.0376 16.9574 22.9431 17.0738 22.8148 17.1439C22.6866 17.214 22.5352 17.2323 22.3932 17.1947C21.7498 16.9831 21.0665 16.9111 20.3913 16.9839C19.7162 17.0568 19.0658 17.2726 18.486 17.6162C18.3586 17.6805 18.2107 17.6948 18.0728 17.6561C17.9348 17.6174 17.8175 17.5288 17.745 17.4085C17.6725 17.2882 17.6505 17.1454 17.6833 17.0098C17.7162 16.8741 17.8015 16.7559 17.9216 16.6796V16.6796Z" fill="black"/>
<path d="M28.1529 26.7626C27.7815 26.2241 26.8312 26.8048 25.6928 26.9078C24.5544 27.0108 23.5173 26.6034 23.252 27.1982C22.924 27.9522 24.0721 29.6428 25.9388 29.4789C27.8056 29.315 28.616 27.4417 28.1529 26.7626Z" fill="#8E4136"/>
<path d="M28.1048 27.9803C27.7219 27.9644 27.3383 27.9738 26.9567 28.0084C25.6351 28.1255 24.5449 28.4767 24.0288 28.917C24.2934 29.1352 24.6007 29.2992 24.9323 29.399C25.2639 29.4988 25.6129 29.5324 25.9583 29.4977C26.4233 29.4549 26.868 29.2915 27.2456 29.0245C27.6233 28.7575 27.92 28.3969 28.1048 27.9803V27.9803Z" fill="#C16B5B"/>
<path d="M25.7558 27.5118C26.7688 27.4228 27.613 27.109 27.8783 26.5517C27.3959 26.4159 26.6145 26.8093 25.6931 26.8936C24.7718 26.9779 23.918 26.725 23.4839 26.9404C23.8505 27.4602 24.738 27.6195 25.7558 27.5118Z" fill="white"/>
<path d="M42.2766 26.032C40.704 27.8538 38.2247 28.3455 36.7342 27.1326C35.2437 25.9196 35.316 23.4656 36.8885 21.6438C38.461 19.822 40.9404 19.3303 42.4309 20.5432C43.9214 21.7562 43.8298 24.2336 42.2766 26.032Z" fill="#FFB8AE"/>
<path d="M41.3844 21.4235C41.0103 21.2535 40.601 21.1689 40.1879 21.1762C39.7749 21.1835 39.369 21.2825 39.0015 21.4657C38.6404 21.613 38.3258 21.8505 38.0899 22.1541C37.9582 22.3248 37.8714 22.524 37.8369 22.7345C37.8025 22.945 37.8214 23.1606 37.8921 23.3624C38.0381 23.6644 38.2646 23.9231 38.5481 24.1117C38.719 24.2296 38.8675 24.3754 38.9871 24.5426C39.058 24.6657 39.0871 24.8075 39.0702 24.9477C39.0533 25.0878 38.9912 25.2192 38.8928 25.3231C38.7943 25.4269 38.6647 25.4979 38.5222 25.526C38.3798 25.554 38.2318 25.5377 38.0995 25.4792C38.0631 25.4627 38.0237 25.4534 37.9836 25.4518C37.9435 25.4502 37.9034 25.4563 37.8657 25.4698C37.828 25.4833 37.7935 25.5039 37.7641 25.5304C37.7347 25.557 37.7109 25.5889 37.6943 25.6244C37.6598 25.6965 37.6562 25.7789 37.6842 25.8535C37.7123 25.9281 37.7697 25.9889 37.8438 26.0225C38.012 26.0968 38.1946 26.1351 38.3793 26.1349C38.6101 26.1387 38.8377 26.0826 39.0387 25.9725C39.2398 25.8623 39.4069 25.7021 39.5229 25.5084C39.6389 25.3146 39.6996 25.0943 39.6986 24.8702C39.6977 24.6461 39.6352 24.4263 39.5177 24.2335C39.3628 24.0018 39.1649 23.8001 38.934 23.6387C38.7321 23.514 38.5661 23.3416 38.4516 23.1376C38.419 23.0279 38.4134 22.9122 38.4352 22.8C38.457 22.6878 38.5056 22.582 38.577 22.4913C38.6415 22.4037 38.7196 22.3262 38.8086 22.2618C39.1293 22.2479 39.4433 22.3535 39.6865 22.5569C39.7951 22.6736 39.8756 22.8123 39.9224 22.963C39.9691 23.1136 39.9808 23.2724 39.9566 23.428C39.9426 23.5062 39.9611 23.5867 40.0082 23.6516C40.0552 23.7166 40.1269 23.7608 40.2074 23.7745H40.2605C40.3329 23.7736 40.4027 23.7483 40.4581 23.7031C40.5135 23.6579 40.551 23.5954 40.5644 23.5263C40.6038 23.2813 40.5862 23.0309 40.5127 22.7934C40.4392 22.5559 40.3119 22.3375 40.1399 22.1541C40.0033 22.0204 39.8389 21.9166 39.6575 21.8497C40.1188 21.7081 40.6181 21.7398 41.0564 21.9387C41.3134 22.064 41.5153 22.275 41.6251 22.533C41.735 22.791 41.7454 23.0788 41.6545 23.3437C41.6375 23.379 41.6279 23.4173 41.6263 23.4562C41.6246 23.4952 41.6309 23.5341 41.6448 23.5707C41.6587 23.6072 41.6799 23.6408 41.7073 23.6693C41.7346 23.6979 41.7675 23.7209 41.8041 23.7371C41.8783 23.7706 41.9631 23.7741 42.04 23.7469C42.1169 23.7197 42.1795 23.6639 42.2141 23.5919C42.3719 23.1944 42.3747 22.7546 42.2219 22.3553C42.0691 21.956 41.7712 21.6246 41.3844 21.4235Z" fill="#C16B5B"/>
<path d="M8.077 26.032C9.64952 27.8538 12.1289 28.3455 13.6194 27.1326C15.1099 25.9196 15.0376 23.4656 13.465 21.6438C11.8925 19.822 9.41315 19.3303 7.92264 20.5432C6.43212 21.7562 6.50448 24.2336 8.077 26.032Z" fill="#FFB8AE"/>
<path d="M8.95008 21.4235C9.32423 21.2535 9.73351 21.1689 10.1466 21.1762C10.5596 21.1835 10.9654 21.2825 11.333 21.4657C11.6933 21.6144 12.0075 21.8516 12.2446 22.1541C12.3763 22.3248 12.4631 22.524 12.4975 22.7345C12.532 22.945 12.5131 23.1606 12.4424 23.3624C12.2964 23.6644 12.0699 23.9231 11.7864 24.1117C11.6155 24.2296 11.467 24.3754 11.3474 24.5426C11.2765 24.6657 11.2473 24.8075 11.2643 24.9477C11.2812 25.0878 11.3433 25.2192 11.4417 25.3231C11.5402 25.4269 11.6698 25.4979 11.8123 25.526C11.9547 25.554 12.1027 25.5377 12.235 25.4792C12.2714 25.4627 12.3108 25.4534 12.3509 25.4518C12.391 25.4502 12.4311 25.4563 12.4688 25.4698C12.5064 25.4833 12.541 25.5039 12.5704 25.5304C12.5998 25.557 12.6235 25.5889 12.6402 25.6244C12.6747 25.6965 12.6783 25.7789 12.6503 25.8535C12.6222 25.9281 12.5648 25.9889 12.4906 26.0225C12.3225 26.0968 12.1399 26.1351 11.9552 26.1349C11.7244 26.1387 11.4968 26.0826 11.2958 25.9725C11.0947 25.8623 10.9276 25.7021 10.8116 25.5084C10.6956 25.3146 10.6349 25.0943 10.6358 24.8702C10.6368 24.6461 10.6992 24.4263 10.8168 24.2335C10.9717 24.0018 11.1696 23.8001 11.4005 23.6387C11.6024 23.514 11.7684 23.3416 11.8829 23.1376C11.9154 23.0279 11.9211 22.9122 11.8993 22.8C11.8775 22.6878 11.8289 22.582 11.7575 22.4913C11.693 22.4037 11.6149 22.3262 11.5259 22.2618C11.2052 22.2479 10.8912 22.3535 10.648 22.5569C10.5394 22.6736 10.4588 22.8123 10.4121 22.963C10.3654 23.1136 10.3537 23.2724 10.3779 23.428C10.3919 23.5062 10.3733 23.5867 10.3263 23.6516C10.2793 23.7166 10.2076 23.7608 10.1271 23.7745H10.074C10.0011 23.7754 9.93029 23.7509 9.8745 23.7053C9.81872 23.6597 9.78166 23.5962 9.77009 23.5263C9.73065 23.2813 9.74831 23.0309 9.82177 22.7934C9.89524 22.5559 10.0226 22.3375 10.1946 22.1541C10.3312 22.0204 10.4956 21.9166 10.6769 21.8497C10.2157 21.7081 9.71639 21.7398 9.27808 21.9387C9.0211 22.064 8.81921 22.275 8.70936 22.533C8.59952 22.791 8.58908 23.0788 8.67995 23.3437C8.69694 23.379 8.70654 23.4173 8.70822 23.4562C8.70989 23.4952 8.7036 23.5341 8.6897 23.5707C8.67579 23.6072 8.65455 23.6408 8.62721 23.6693C8.59987 23.6979 8.56698 23.7209 8.53042 23.7371C8.45621 23.7706 8.37134 23.7741 8.29446 23.7469C8.21758 23.7197 8.15497 23.6639 8.1204 23.5919C7.96259 23.1944 7.95982 22.7546 8.11262 22.3553C8.26541 21.956 8.56325 21.6246 8.95008 21.4235V21.4235Z" fill="#C16B5B"/>
<path d="M33.3144 32.5932L25.1672 33.0615L17.02 32.5932C19.6972 34.1949 19.5138 39.3839 19.5138 39.3839C20.8452 40.7889 25.1672 40.7889 25.1672 40.7889C25.1672 40.7889 29.5085 40.7889 30.8253 39.3839C30.8253 39.3839 30.6372 34.1949 33.3144 32.5932Z" fill="#FFB8AE"/>
</svg>
