<svg width="218" height="431" viewBox="0 0 218 431" fill="none" xmlns="http://www.w3.org/2000/svg">
<path d="M101.131 98.3751C120.159 82.7139 170.012 104.367 177.436 114.474C184.743 124.413 199.568 229.302 188.654 236.557C177.74 243.812 143.97 258.502 129.924 245.542C115.878 232.581 101.131 98.3751 101.131 98.3751Z" fill="#3259A1"/>
<path d="M77.6515 290.605C77.6515 290.605 76.5469 313.403 76.5469 327.306C76.5469 341.21 97.6129 395.712 95.6963 403.495C93.7797 411.278 115.542 410.234 115.542 410.234C115.542 410.234 117.027 367.911 111.421 347.903C105.815 327.896 111.421 286.73 111.421 286.73L77.6515 290.605Z" fill="#FFA283"/>
<path d="M130.476 279.615C130.476 279.615 137.545 317.3 143.29 325.919C149.034 334.539 179.943 393.208 179.943 400.715C179.943 408.223 199.363 402.108 199.363 402.108C199.363 402.108 182.953 337.874 176.386 318.412C172.455 306.808 169.437 294.905 167.36 282.816L130.476 279.615Z" fill="#FFA283"/>
<path d="M77.3744 242.217C75.364 254.622 67.1895 329.946 67.1895 329.946C67.1895 329.946 95.0767 338.649 111.757 334.758C111.757 334.758 111.288 274.197 115.121 274.197H115.237C117.91 274.229 120.498 275.16 122.596 276.844C124.694 278.528 126.185 280.871 126.836 283.507C130.028 296.562 138.794 335.926 138.794 335.926C138.794 335.926 174.044 330.934 181.699 327.318C181.699 327.318 169.929 242.111 157.071 229.049L141.649 214.977L85.4385 207.61C85.4385 207.61 78.7995 233.446 77.3744 242.217Z" fill="#13375B"/>
<path d="M62.6061 427.433H122.369C122.369 427.433 123.6 405.466 119.496 401.294C115.393 397.122 116.486 401.822 109.648 404.478C102.811 407.134 98.3643 400.733 95.238 397.554C92.1118 394.376 94.3322 407.662 81.2032 407.662C68.0743 407.662 59.5793 421.296 62.6061 427.433Z" fill="#466EB6"/>
<path d="M179.313 398.295C176.226 399.02 166.493 407.089 163.295 415.815C160.097 424.541 160.992 427.658 160.992 427.658C160.992 427.658 170.879 432.15 189.857 430.718C208.835 429.286 205.947 427.192 205.947 427.192C205.947 427.192 204.588 407.336 201.368 401.3C198.148 395.263 184.726 397.032 179.313 398.295Z" fill="#466EB6"/>
<path d="M84.0409 92.7149C84.0409 92.7149 51.7073 75.9139 47.3273 67.5695C42.9473 59.2251 24.6816 31.1428 24.6816 31.1428C24.6816 31.1428 15.3361 32.3445 12.8672 36.6009C15.8995 48.1797 25.2119 80.2489 37.2472 89.7051C49.2825 99.1613 80.9754 118.646 80.9754 118.646L84.0409 92.7149Z" fill="#FFA283"/>
<path d="M193.298 153.608C212.796 185.615 224.096 207.605 213.182 221.508C201.296 236.703 176.121 233.705 164.433 246.62C153.475 242.532 151.266 231.543 151.266 231.543L162.561 227.809C185.019 217.897 194.486 212.029 191.376 201.214C188.267 190.399 177.292 175.945 177.292 175.945C182.351 152.619 193.298 153.608 193.298 153.608Z" fill="#FFA283"/>
<path d="M204.975 159.329C204.975 159.329 190.062 181.791 178.358 182.173C170.692 170.437 167.273 163.698 167.201 164.984C167.118 166.439 167.129 204.758 165.141 225.68C149.731 234.749 77.2593 228.769 77.2151 219.178C77.1765 211.878 94.6634 138.469 84.5998 130.455C80.9434 127.552 49.8359 110.588 49.8359 110.588C49.8359 110.588 62.8103 84.64 70.797 76.5933C70.797 76.5933 86.3838 84.8815 101.269 90.9741C120.805 98.9591 137.254 101.172 148.124 106.298C186.417 124.391 189.289 133.083 204.975 159.329Z" fill="#F47458"/>
<path d="M149.775 107.101C139.617 137.946 152.614 203.635 166.974 220.003C171.117 209.811 155.16 168.494 166.974 116.08C167.284 113.424 150.802 104.254 149.775 107.101Z" fill="#466EB6"/>
<path d="M121.472 97.926C106.791 114.143 84.7696 174.396 84.3057 177.394C84.9519 124.739 104.742 99.7959 108.012 93.6808C110.177 92.1984 121.732 96.3369 121.472 97.926Z" fill="#466EB6"/>
<path d="M118.911 82.5679V110.083C118.911 110.083 128.853 120.926 141.684 113.419L147.605 77.9915L118.911 82.5679Z" fill="#FFA283"/>
<g style="mix-blend-mode:multiply" opacity="0.68">
<path d="M118.909 96.4434C127.101 98.5435 137.225 95.0003 145.935 87.9811L147.592 78.0083L118.898 82.5679L118.909 96.4434Z" fill="#FF7F4C"/>
</g>
<path d="M119.667 34.8208C119.667 34.8208 91.7247 68.9115 104.456 85.6395C117.187 102.368 146.058 91.0022 160.336 69.8548C174.613 48.7075 124.942 19.0417 119.667 34.8208Z" fill="#FFA283"/>
<path d="M146.986 47.1351C146.986 47.1351 157.231 47.4496 153.194 57.2427C149.156 67.0359 141.876 70.3321 145.743 74.274C148.416 76.9862 146.892 82.5342 145.677 85.7349C145.042 87.3851 144.969 89.2033 145.467 90.901L145.533 91.1312C146.081 92.9595 147.23 94.5413 148.787 95.6123C150.344 96.6833 152.215 97.1788 154.089 97.0161C163.478 96.1906 179.22 91.4008 178.342 68.2769C178.342 68.2769 186.174 53.4468 178.38 42.0813C170.587 30.7159 164.682 31.6649 164.682 31.6649C164.682 31.6649 161.888 20.934 153.194 18.4127C144.5 15.8915 119.043 6.73286 116.254 20.934C113.464 35.1352 125.859 45.5516 146.986 47.1351Z" fill="#011037"/>
<path d="M144.23 64.964C144.959 64.5878 155.276 59.7193 156.806 65.6772C158.215 71.2027 156.254 79.7604 148.847 79.7604C141.44 79.7604 134.917 69.8157 144.23 64.964Z" fill="#FFA283"/>
<path d="M122.368 427.433C122.368 427.433 122.622 422.874 122.511 417.511C115.502 420.594 77.0544 420.1 63.0804 419.808C61.8653 422.66 61.6277 425.423 62.6054 427.433H122.368Z" fill="#A4C0F5"/>
<path d="M189.83 430.718C208.814 429.309 205.92 427.192 205.92 427.192C205.92 427.192 205.605 422.615 204.926 417.191C191.714 429.18 171.079 423.059 162.048 419.488C160.314 425.429 160.943 427.652 160.943 427.652C160.943 427.652 170.852 432.128 189.83 430.718Z" fill="#A4C0F5"/>
<path d="M16.1984 47.0736C20.7773 45.782 26.5547 43.2832 30.7966 41.3066C28.9628 38.819 27.7035 36.9098 27.4273 36.017C26.1349 31.8448 34.2818 15.5323 32.9507 14.1958C31.6196 12.8594 26.643 21.3497 25.8201 20.5243C24.9971 19.6988 23.8316 1.05596 21.1086 1.11211C18.3856 1.16827 21.1087 16.9473 19.4075 16.9866C17.7063 17.0259 14.7071 -1.80225 12.0228 0.140656C9.33843 2.08356 15.7731 16.6385 13.9725 17.4078C12.1719 18.1771 6.99654 4.39147 5.08546 4.43077C3.17439 4.47008 4.61043 7.52482 5.99126 11.1692C7.3721 14.8135 9.68638 19.7999 8.58171 19.8224C7.47704 19.8448 2.06418 11.1467 0.164149 11.8149C-1.73588 12.4832 13.4588 37.6454 14.7789 43.1934C15.173 44.5153 15.6471 45.8111 16.1984 47.0736V47.0736Z" fill="#FFA283"/>
</svg>
