<svg width="1239" height="474" viewBox="0 0 1239 474" fill="none" xmlns="http://www.w3.org/2000/svg">
<rect width="219.26" height="52.5014" rx="26.2507" transform="matrix(0.99999 0.00462928 0.00462928 0.99999 98.5073 307.688)" fill="#3255E3"/>
<rect width="58.7034" height="51.0175" transform="matrix(0.999989 0.00464104 0.00464104 0.999989 232.186 212.35)" fill="#3255E3"/>
<path fill-rule="evenodd" clip-rule="evenodd" d="M276.493 213.229C280.156 212.69 283.907 212.418 287.728 212.436L293.558 212.463C334.56 212.653 367.952 246.046 368.143 287.048C368.333 328.049 335.249 361.134 294.247 360.943L288.417 360.916C284.596 360.899 280.841 360.593 277.173 360.019L276.934 308.47L294.12 308.484C306.517 308.495 316.482 298.453 316.377 286.057C316.272 273.66 306.136 263.601 293.739 263.591L276.726 263.577L276.493 213.229Z" fill="#3255E3"/>
<path d="M169.178 310.197L169.178 356.951L155.922 356.829L155.922 310.074L169.178 310.197Z" fill="white"/>
<rect width="168.521" height="52.5014" rx="26.2507" transform="matrix(-0.999989 -0.00465069 -0.00465069 -0.999989 322.875 167.866)" fill="#3255E3"/>
<rect width="56.5777" height="51.0175" transform="matrix(-0.999989 -0.00466907 -0.00466907 -0.999989 237.802 263.434)" fill="#3255E3"/>
<rect width="56.5777" height="42.897" transform="matrix(-0.999989 -0.00466907 -0.00466907 -0.999989 237.802 263.434)" fill="#3255E3"/>
<path fill-rule="evenodd" clip-rule="evenodd" d="M195.506 262.566C191.886 263.092 188.18 263.356 184.407 263.339L178.577 263.311C137.575 263.12 104.182 229.727 103.99 188.725C103.799 147.723 136.882 114.64 177.884 114.831L183.714 114.859C187.489 114.876 191.2 115.175 194.826 115.736L195.065 167.218L178.116 167.204C165.719 167.193 155.754 177.233 155.86 189.63C155.966 202.027 166.102 212.086 178.499 212.097L195.272 212.112L195.506 262.566Z" fill="#3255E3"/>
<path d="M378.401 143.34L302.975 167.014L302.139 116.1L378.401 143.34Z" fill="#3255E3"/>
<path d="M311.988 124.247L360.646 140.64L360.668 145.432L312.221 160.181L301.941 151.443L311.172 142.942L301.314 133.849L311.988 124.247Z" fill="white"/>
<path d="M469.636 180.909H491.682L512.909 221H513.818L535.045 180.909H557.091L523.136 241.091V274H503.591V241.091L469.636 180.909ZM567.841 180.909H592.114L617.75 243.455H618.841L644.477 180.909H668.75V274H649.659V213.409H648.886L624.795 273.545H611.795L587.705 213.182H586.932V274H567.841V180.909ZM684.966 274V180.909H747.693V197.136H704.648V219.318H744.466V235.545H704.648V257.773H747.875V274H684.966ZM759.795 197.136V180.909H836.25V197.136H807.75V274H788.295V197.136H759.795ZM848.841 274V180.909H885.568C892.598 180.909 898.598 182.167 903.568 184.682C908.568 187.167 912.371 190.697 914.977 195.273C917.614 199.818 918.932 205.167 918.932 211.318C918.932 217.5 917.598 222.818 914.932 227.273C912.265 231.697 908.402 235.091 903.341 237.455C898.311 239.818 892.22 241 885.068 241H860.477V225.182H881.886C885.644 225.182 888.765 224.667 891.25 223.636C893.735 222.606 895.583 221.061 896.795 219C898.038 216.939 898.659 214.379 898.659 211.318C898.659 208.227 898.038 205.621 896.795 203.5C895.583 201.379 893.72 199.773 891.205 198.682C888.72 197.561 885.583 197 881.795 197H868.523V274H848.841ZM899.114 231.636L922.25 274H900.523L877.886 231.636H899.114ZM952.523 180.909V274H932.841V180.909H952.523ZM1054.26 227.455C1054.26 237.606 1052.34 246.242 1048.49 253.364C1044.67 260.485 1039.46 265.924 1032.85 269.682C1026.28 273.409 1018.88 275.273 1010.67 275.273C1002.4 275.273 994.973 273.394 988.398 269.636C981.822 265.879 976.625 260.439 972.807 253.318C968.989 246.197 967.08 237.576 967.08 227.455C967.08 217.303 968.989 208.667 972.807 201.545C976.625 194.424 981.822 189 988.398 185.273C994.973 181.515 1002.4 179.636 1010.67 179.636C1018.88 179.636 1026.28 181.515 1032.85 185.273C1039.46 189 1044.67 194.424 1048.49 201.545C1052.34 208.667 1054.26 217.303 1054.26 227.455ZM1034.31 227.455C1034.31 220.879 1033.32 215.333 1031.35 210.818C1029.41 206.303 1026.67 202.879 1023.12 200.545C1019.58 198.212 1015.43 197.045 1010.67 197.045C1005.91 197.045 1001.76 198.212 998.216 200.545C994.67 202.879 991.913 206.303 989.943 210.818C988.004 215.333 987.034 220.879 987.034 227.455C987.034 234.03 988.004 239.576 989.943 244.091C991.913 248.606 994.67 252.03 998.216 254.364C1001.76 256.697 1005.91 257.864 1010.67 257.864C1015.43 257.864 1019.58 256.697 1023.12 254.364C1026.67 252.03 1029.41 248.606 1031.35 244.091C1033.32 239.576 1034.31 234.03 1034.31 227.455Z" fill="black"/>
</svg>
