<svg width="142" height="140" viewBox="0 0 142 140" fill="none" xmlns="http://www.w3.org/2000/svg">
<path d="M38.36 97.2982C38.3553 97.3179 38.3553 97.3384 38.36 97.3582C38.3597 97.4045 38.374 97.4498 38.401 97.4875C38.4279 97.5252 38.466 97.5534 38.51 97.5682C38.5382 97.5774 38.5679 97.5807 38.5975 97.5781C38.6271 97.5755 38.6558 97.5669 38.682 97.5529C38.7081 97.5389 38.7312 97.5197 38.7497 97.4966C38.7683 97.4734 38.782 97.4468 38.7899 97.4182C38.8054 97.3625 38.7984 97.303 38.7703 97.2524C38.7422 97.2019 38.6954 97.1645 38.64 97.1482C38.6118 97.1374 38.5817 97.1328 38.5516 97.1347C38.5215 97.1366 38.4922 97.1449 38.4657 97.1592C38.4391 97.1734 38.4159 97.1932 38.3977 97.2172C38.3794 97.2411 38.3666 97.2688 38.36 97.2982V97.2982Z" fill="#EDF0F4"/>
<path d="M42.0597 76.6783C42.0703 76.7274 42.0975 76.7713 42.1366 76.8029C42.1757 76.8344 42.2245 76.8516 42.2747 76.8516C42.325 76.8516 42.3737 76.8344 42.4128 76.8029C42.4519 76.7713 42.479 76.7274 42.4897 76.6783C42.4966 76.6462 42.4963 76.6129 42.4888 76.5809C42.4812 76.549 42.4665 76.5191 42.4459 76.4935C42.4253 76.468 42.3993 76.4473 42.3696 76.4332C42.34 76.419 42.3076 76.4116 42.2747 76.4116C42.2419 76.4116 42.2094 76.419 42.1797 76.4332C42.1501 76.4473 42.1241 76.468 42.1035 76.4935C42.0828 76.5191 42.0682 76.549 42.0606 76.5809C42.053 76.6129 42.0527 76.6462 42.0597 76.6783V76.6783Z" fill="#EDF0F4"/>
<path d="M41.3295 83.6282C41.3264 83.6807 41.3432 83.7325 41.3766 83.7733C41.4099 83.814 41.4573 83.8407 41.5094 83.8482C41.5399 83.8577 41.572 83.8604 41.6037 83.8562C41.6353 83.852 41.6657 83.841 41.6926 83.8239C41.7196 83.8068 41.7425 83.784 41.7597 83.7572C41.777 83.7304 41.7883 83.7001 41.7927 83.6685C41.7971 83.6369 41.7946 83.6047 41.7853 83.5742C41.7761 83.5436 41.7602 83.5155 41.739 83.4917C41.7178 83.4679 41.6916 83.449 41.6623 83.4363C41.633 83.4236 41.6013 83.4174 41.5694 83.4182C41.5395 83.4138 41.5089 83.4161 41.4798 83.4246C41.4508 83.4332 41.4239 83.448 41.4011 83.468C41.3783 83.4879 41.3601 83.5126 41.3478 83.5402C41.3354 83.5679 41.3291 83.5979 41.3295 83.6282V83.6282Z" fill="#EDF0F4"/>
<path d="M22.71 128.528C22.7171 128.595 22.7493 128.655 22.7999 128.698C22.8411 128.739 22.8969 128.762 22.955 128.762C23.013 128.762 23.0687 128.739 23.1099 128.698C23.1299 128.679 23.1457 128.656 23.1566 128.63C23.1674 128.604 23.173 128.576 23.173 128.548C23.173 128.52 23.1674 128.493 23.1566 128.467C23.1457 128.441 23.1299 128.418 23.1099 128.398C23.0692 128.36 23.0156 128.339 22.96 128.339C22.9043 128.339 22.8507 128.36 22.8099 128.398C22.7624 128.429 22.727 128.475 22.71 128.528V128.528Z" fill="#EDF0F4"/>
<path d="M30.33 116.638C30.3197 116.674 30.3197 116.712 30.33 116.748C30.331 116.787 30.3416 116.824 30.3608 116.857C30.38 116.89 30.4072 116.918 30.44 116.938C30.4648 116.952 30.4921 116.961 30.5203 116.964C30.5486 116.967 30.5771 116.964 30.6042 116.955C30.6313 116.947 30.6564 116.933 30.6781 116.915C30.6997 116.896 30.7173 116.874 30.7299 116.848C30.7441 116.824 30.7533 116.797 30.7569 116.769C30.7606 116.742 30.7586 116.713 30.7511 116.686C30.7437 116.659 30.7309 116.634 30.7135 116.612C30.6961 116.59 30.6745 116.572 30.65 116.558C30.6243 116.541 30.5951 116.529 30.5644 116.523C30.5337 116.517 30.5021 116.519 30.4719 116.526C30.4416 116.534 30.4133 116.548 30.3889 116.567C30.3644 116.586 30.3443 116.611 30.33 116.638V116.638Z" fill="#EDF0F4"/>
<path d="M36.1497 103.938C36.1454 103.961 36.1454 103.985 36.1497 104.008C36.1509 104.054 36.1657 104.099 36.1925 104.136C36.2192 104.174 36.2566 104.202 36.2997 104.218C36.3541 104.238 36.4139 104.235 36.4663 104.211C36.5187 104.186 36.5595 104.142 36.5797 104.088C36.594 104.061 36.6022 104.03 36.6038 103.999C36.6054 103.968 36.6004 103.937 36.5891 103.908C36.5777 103.878 36.5603 103.852 36.538 103.83C36.5157 103.809 36.489 103.792 36.4597 103.781C36.4304 103.77 36.3992 103.766 36.3681 103.768C36.3369 103.77 36.3066 103.779 36.2792 103.794C36.2518 103.809 36.2278 103.83 36.2089 103.854C36.1901 103.879 36.1767 103.908 36.1697 103.938H36.1497Z" fill="#EDF0F4"/>
<path d="M26.7499 122.648C26.7409 122.688 26.7409 122.729 26.7499 122.768C26.7487 122.805 26.7573 122.84 26.7749 122.872C26.7926 122.904 26.8185 122.93 26.8499 122.948C26.8732 122.965 26.8997 122.977 26.9278 122.983C26.9558 122.989 26.9848 122.989 27.0129 122.983C27.041 122.978 27.0677 122.966 27.0912 122.95C27.1148 122.934 27.1348 122.913 27.1499 122.888C27.1668 122.864 27.1786 122.837 27.1847 122.808C27.1908 122.779 27.1911 122.75 27.1855 122.721C27.1799 122.692 27.1686 122.664 27.1521 122.64C27.1357 122.615 27.1146 122.594 27.0899 122.578C27.0633 122.56 27.0331 122.547 27.0013 122.54C26.9695 122.534 26.9367 122.534 26.9049 122.541C26.8732 122.547 26.843 122.56 26.8164 122.579C26.7897 122.597 26.7671 122.621 26.7499 122.648V122.648Z" fill="#EDF0F4"/>
<path d="M26.7694 16.5482C26.7604 16.5877 26.7604 16.6287 26.7694 16.6682C26.8034 16.7132 26.8527 16.7442 26.908 16.7553C26.9633 16.7664 27.0208 16.7567 27.0694 16.7282C27.0946 16.7139 27.1165 16.6945 27.1338 16.6713C27.1511 16.6482 27.1633 16.6216 27.1699 16.5935C27.1765 16.5653 27.1772 16.5361 27.1719 16.5077C27.1667 16.4792 27.1556 16.4522 27.1394 16.4282C27.1086 16.3796 27.0598 16.345 27.0037 16.3319C26.9476 16.3188 26.8887 16.3283 26.8395 16.3582C26.8127 16.3814 26.7922 16.411 26.78 16.4442C26.7678 16.4774 26.7642 16.5132 26.7694 16.5482V16.5482Z" fill="#EDF0F4"/>
<path d="M22.77 10.7783C22.7554 10.8238 22.7554 10.8728 22.77 10.9183C22.8123 10.957 22.8676 10.9784 22.9249 10.9784C22.9823 10.9784 23.0376 10.957 23.08 10.9183C23.1186 10.8759 23.14 10.8207 23.14 10.7633C23.14 10.706 23.1186 10.6507 23.08 10.6083C23.0387 10.5674 22.983 10.5444 22.9249 10.5444C22.8669 10.5444 22.8112 10.5674 22.77 10.6083C22.7575 10.6349 22.751 10.6639 22.751 10.6933C22.751 10.7227 22.7575 10.7517 22.77 10.7783V10.7783Z" fill="#EDF0F4"/>
<path d="M33.4898 28.8583C33.4852 28.8882 33.4852 28.9185 33.4898 28.9483C33.5139 29.0013 33.5578 29.0425 33.6122 29.0631C33.6665 29.0838 33.7268 29.082 33.7798 29.0583C33.8335 29.0323 33.8749 28.9865 33.8954 28.9306C33.9159 28.8746 33.914 28.8129 33.8899 28.7583C33.8641 28.7072 33.8193 28.6681 33.7652 28.6495C33.711 28.6308 33.6517 28.634 33.5998 28.6583C33.565 28.6784 33.5363 28.7077 33.5169 28.743C33.4975 28.7782 33.4881 28.8181 33.4898 28.8583Z" fill="#EDF0F4"/>
<path d="M30.3503 22.5783C30.3403 22.6109 30.3403 22.6457 30.3503 22.6783V22.6783C30.3778 22.7277 30.4233 22.7646 30.4773 22.7814C30.5313 22.7981 30.5897 22.7935 30.6403 22.7683C30.6661 22.7547 30.6889 22.7361 30.7073 22.7135C30.7258 22.691 30.7397 22.665 30.7481 22.6371C30.7564 22.6092 30.7592 22.5799 30.7561 22.5509C30.7531 22.522 30.7443 22.4939 30.7303 22.4683C30.7167 22.4426 30.6981 22.4198 30.6755 22.4013C30.653 22.3828 30.627 22.369 30.5991 22.3606C30.5712 22.3522 30.5419 22.3495 30.513 22.3525C30.484 22.3556 30.4559 22.3643 30.4303 22.3783C30.4002 22.4013 30.3768 22.4321 30.3627 22.4673C30.3487 22.5025 30.3443 22.5409 30.3503 22.5783V22.5783Z" fill="#EDF0F4"/>
<path d="M13.5899 0.228313C13.5902 0.284113 13.6116 0.337732 13.6499 0.378313C13.6696 0.399838 13.6935 0.417029 13.7201 0.428791C13.7468 0.440553 13.7757 0.446627 13.8049 0.446627C13.834 0.446627 13.8629 0.440553 13.8896 0.428791C13.9163 0.417029 13.9402 0.399838 13.9599 0.378313C13.9985 0.335943 14.02 0.280664 14.02 0.223314C14.02 0.165965 13.9985 0.110684 13.9599 0.0683136C13.9402 0.0467883 13.9163 0.0295972 13.8896 0.0178356C13.8629 0.00607404 13.834 0 13.8049 0C13.7757 0 13.7468 0.00607404 13.7201 0.0178356C13.6935 0.0295972 13.6696 0.0467883 13.6499 0.0683136C13.6101 0.111963 13.5886 0.169254 13.5899 0.228313V0.228313Z" fill="#EDF0F4"/>
<path d="M18.3598 5.31835C18.3605 5.3711 18.3821 5.42142 18.4198 5.45835C18.4393 5.4783 18.4627 5.49416 18.4884 5.50498C18.5142 5.5158 18.5418 5.52138 18.5698 5.52138C18.5977 5.52138 18.6254 5.5158 18.6511 5.50498C18.6769 5.49416 18.7002 5.4783 18.7197 5.45835C18.7607 5.41714 18.7836 5.36142 18.7836 5.30335C18.7836 5.24528 18.7607 5.18956 18.7197 5.14835C18.6785 5.10743 18.6228 5.08447 18.5648 5.08447C18.5067 5.08447 18.451 5.10743 18.4097 5.14835C18.3895 5.17133 18.3746 5.19845 18.366 5.22782C18.3573 5.25718 18.3552 5.28808 18.3598 5.31835V5.31835Z" fill="#EDF0F4"/>
<path d="M42.3196 69.6883C42.3221 69.7448 42.3465 69.7983 42.3874 69.8374C42.4284 69.8765 42.4829 69.8983 42.5395 69.8983C42.5979 69.8983 42.6539 69.8751 42.6951 69.8338C42.7364 69.7926 42.7596 69.7366 42.7596 69.6783C42.7596 69.6199 42.7364 69.5639 42.6951 69.5227C42.6539 69.4814 42.5979 69.4583 42.5395 69.4583C42.5098 69.4582 42.4804 69.4642 42.453 69.4759C42.4256 69.4876 42.4009 69.5047 42.3804 69.5262C42.3598 69.5477 42.3438 69.5731 42.3334 69.601C42.3229 69.6288 42.3182 69.6585 42.3196 69.6883Z" fill="#EDF0F4"/>
<path d="M41.3402 55.6983C41.3438 55.7273 41.3533 55.7553 41.3679 55.7806C41.3825 55.8059 41.402 55.828 41.4253 55.8457C41.4485 55.8634 41.4751 55.8763 41.5034 55.8836C41.5317 55.8909 41.5612 55.8925 41.5902 55.8883C41.6469 55.8785 41.6976 55.8468 41.7312 55.8C41.7649 55.7533 41.7789 55.6952 41.7702 55.6383C41.7679 55.61 41.7597 55.5825 41.746 55.5576C41.7323 55.5328 41.7135 55.5111 41.6908 55.4941C41.6681 55.4771 41.642 55.4651 41.6143 55.4589C41.5866 55.4527 41.5579 55.4525 41.5301 55.4583C41.5015 55.4607 41.4738 55.4689 41.4485 55.4825C41.4232 55.4961 41.401 55.5147 41.3832 55.5372C41.3654 55.5597 41.3524 55.5856 41.345 55.6133C41.3376 55.641 41.336 55.6699 41.3402 55.6983V55.6983Z" fill="#EDF0F4"/>
<path d="M42.0598 62.6785C42.061 62.707 42.0681 62.7349 42.0804 62.7606C42.0928 62.7863 42.1103 62.8092 42.1318 62.8279C42.1534 62.8466 42.1785 62.8608 42.2056 62.8695C42.2328 62.8782 42.2614 62.8812 42.2898 62.8785C42.3389 62.8678 42.3829 62.8407 42.4144 62.8016C42.446 62.7625 42.4632 62.7137 42.4632 62.6635C42.4632 62.6132 42.446 62.5645 42.4144 62.5254C42.3829 62.4863 42.3389 62.4591 42.2898 62.4485C42.2592 62.4471 42.2287 62.452 42.2001 62.4631C42.1716 62.4741 42.1457 62.491 42.124 62.5127C42.1024 62.5343 42.0855 62.5603 42.0744 62.5888C42.0633 62.6174 42.0584 62.6479 42.0598 62.6785V62.6785Z" fill="#EDF0F4"/>
<path d="M38.3898 41.9985V42.0585C38.3978 42.0871 38.4115 42.1137 38.4301 42.1369C38.4486 42.16 38.4716 42.1792 38.4978 42.1932C38.524 42.2072 38.5527 42.2158 38.5823 42.2184C38.6118 42.2211 38.6416 42.2177 38.6698 42.2085C38.6971 42.2005 38.7225 42.1872 38.7445 42.1691C38.7665 42.1511 38.7846 42.1287 38.7977 42.1035C38.8108 42.0782 38.8186 42.0506 38.8207 42.0222C38.8228 41.9939 38.8191 41.9654 38.8098 41.9385C38.8019 41.8828 38.7721 41.8325 38.7271 41.7988C38.6821 41.765 38.6255 41.7505 38.5698 41.7585C38.5141 41.7664 38.4639 41.7962 38.4301 41.8412C38.3964 41.8862 38.3819 41.9428 38.3898 41.9985V41.9985Z" fill="#EDF0F4"/>
<path d="M36.1794 35.3383C36.1746 35.3647 36.1746 35.3918 36.1794 35.4183C36.1941 35.4594 36.2207 35.4952 36.2558 35.5211C36.2909 35.5471 36.3329 35.562 36.3765 35.564C36.4201 35.566 36.4634 35.555 36.5007 35.5324C36.5381 35.5097 36.5678 35.4765 36.5862 35.4369C36.6046 35.3973 36.6107 35.3531 36.6039 35.31C36.5972 35.2669 36.5777 35.2268 36.548 35.1947C36.5184 35.1627 36.4798 35.1402 36.4373 35.1302C36.3948 35.1201 36.3503 35.1229 36.3095 35.1383C36.2692 35.1532 36.2348 35.1807 36.2114 35.2168C36.188 35.2528 36.1768 35.2954 36.1794 35.3383V35.3383Z" fill="#EDF0F4"/>
<path d="M40.1104 48.7982V48.8482C40.1267 48.9047 40.1632 48.9532 40.213 48.9845C40.2628 49.0159 40.3224 49.0279 40.3804 49.0182C40.4363 49.0018 40.4839 48.9648 40.5135 48.9147C40.5432 48.8646 40.5528 48.8051 40.5403 48.7482C40.5253 48.6989 40.4935 48.6564 40.4504 48.6282C40.4073 48.6 40.3557 48.5878 40.3045 48.5938C40.2533 48.5997 40.2059 48.6234 40.1704 48.6608C40.1349 48.6981 40.1137 48.7468 40.1104 48.7982V48.7982Z" fill="#EDF0F4"/>
<path d="M33.47 110.388C33.4605 110.421 33.4605 110.456 33.47 110.488C33.4694 110.529 33.4817 110.57 33.5049 110.604C33.5282 110.638 33.5614 110.664 33.6 110.678C33.6517 110.702 33.7108 110.704 33.7642 110.685C33.8177 110.665 33.8611 110.625 33.885 110.573C33.9089 110.522 33.9112 110.462 33.8915 110.409C33.8719 110.356 33.8317 110.312 33.78 110.288C33.7538 110.271 33.7242 110.26 33.6933 110.256C33.6624 110.252 33.6309 110.255 33.6012 110.265C33.5715 110.274 33.5444 110.29 33.5217 110.312C33.499 110.333 33.4813 110.359 33.47 110.388V110.388Z" fill="#EDF0F4"/>
<path d="M37.0596 58.2282C37.0634 58.2677 37.0749 58.3061 37.0936 58.341C37.1122 58.376 37.1376 58.407 37.1683 58.4321C37.199 58.4572 37.2344 58.476 37.2723 58.4873C37.3103 58.4987 37.3502 58.5024 37.3896 58.4983C37.471 58.4858 37.5445 58.4425 37.5948 58.3774C37.6451 58.3122 37.6683 58.2301 37.6596 58.1482C37.6547 58.1087 37.642 58.0705 37.6221 58.036C37.6023 58.0014 37.5758 57.9712 37.5441 57.9469C37.5125 57.9227 37.4764 57.9051 37.4378 57.895C37.3993 57.8849 37.3591 57.8826 37.3196 57.8882C37.2801 57.8932 37.2419 57.9059 37.2073 57.9257C37.1728 57.9456 37.1426 57.9721 37.1183 58.0037C37.0941 58.0354 37.0765 58.0715 37.0664 58.1101C37.0563 58.1486 37.054 58.1888 37.0596 58.2282V58.2282Z" fill="#EDF0F4"/>
<path d="M15.0602 8.43845C15.0636 8.51052 15.0879 8.58003 15.1302 8.63845C15.1582 8.66718 15.1916 8.69001 15.2286 8.7056C15.2655 8.72119 15.3051 8.72923 15.3452 8.72923C15.3853 8.72923 15.425 8.72119 15.4619 8.7056C15.4988 8.69001 15.5323 8.66718 15.5602 8.63845C15.589 8.6105 15.6118 8.57707 15.6274 8.54014C15.643 8.50321 15.651 8.46353 15.651 8.42345C15.651 8.38337 15.643 8.34369 15.6274 8.30676C15.6118 8.26983 15.589 8.23641 15.5602 8.20845C15.5323 8.17972 15.4988 8.15689 15.4619 8.1413C15.425 8.12571 15.3853 8.11768 15.3452 8.11768C15.3051 8.11768 15.2655 8.12571 15.2286 8.1413C15.1916 8.15689 15.1582 8.17972 15.1302 8.20845C15.1038 8.24019 15.084 8.27689 15.072 8.31639C15.06 8.35588 15.056 8.39738 15.0602 8.43845V8.43845Z" fill="#EDF0F4"/>
<path d="M37.7002 71.9784C37.7002 72.0589 37.7314 72.1363 37.7874 72.1941C37.8434 72.252 37.9197 72.2858 38.0002 72.2884C38.0404 72.2897 38.0805 72.283 38.118 72.2685C38.1556 72.254 38.1899 72.2321 38.2188 72.2041C38.2477 72.1761 38.2707 72.1426 38.2864 72.1056C38.3021 72.0685 38.3102 72.0286 38.3102 71.9884C38.3115 71.9482 38.3048 71.9081 38.2903 71.8705C38.2758 71.8329 38.2539 71.7987 38.226 71.7698C38.198 71.7408 38.1644 71.7178 38.1273 71.7021C38.0903 71.6864 38.0504 71.6784 38.0102 71.6784C37.97 71.677 37.9298 71.6838 37.8923 71.6983C37.8547 71.7128 37.8205 71.7346 37.7916 71.7626C37.7626 71.7906 37.7396 71.8242 37.7239 71.8612C37.7082 71.8983 37.7002 71.9381 37.7002 71.9784V71.9784Z" fill="#EDF0F4"/>
<path d="M37.6203 65.0984C37.6215 65.1387 37.6309 65.1784 37.6478 65.2149C37.6647 65.2515 37.6888 65.2843 37.7187 65.3114C37.7485 65.3385 37.7836 65.3593 37.8216 65.3725C37.8597 65.3857 37.9001 65.3911 37.9403 65.3884C37.985 65.3966 38.0308 65.3948 38.0748 65.3832C38.1187 65.3716 38.1595 65.3505 38.1944 65.3214C38.2292 65.2923 38.2573 65.256 38.2765 65.2148C38.2958 65.1737 38.3057 65.1288 38.3057 65.0834C38.3057 65.038 38.2958 64.9932 38.2765 64.9521C38.2573 64.9109 38.2292 64.8745 38.1944 64.8454C38.1595 64.8163 38.1187 64.7953 38.0748 64.7837C38.0308 64.7721 37.985 64.7703 37.9403 64.7784C37.8979 64.777 37.8557 64.7844 37.8162 64.8C37.7768 64.8155 37.7409 64.8391 37.7109 64.8691C37.6809 64.8991 37.6574 64.9349 37.6418 64.9744C37.6262 65.0138 37.6189 65.056 37.6203 65.0984V65.0984Z" fill="#EDF0F4"/>
<path d="M26.7102 25.4885C26.6969 25.5342 26.6969 25.5827 26.7102 25.6285C26.7282 25.6643 26.7531 25.6962 26.7836 25.7222C26.8141 25.7483 26.8495 25.7679 26.8877 25.78C26.926 25.7922 26.9662 25.7965 27.0062 25.7928C27.0461 25.7891 27.0848 25.7774 27.1202 25.7585C27.1564 25.7395 27.1884 25.7136 27.2146 25.6822C27.2407 25.6508 27.2604 25.6145 27.2725 25.5755C27.2846 25.5365 27.2889 25.4954 27.285 25.4547C27.2812 25.4141 27.2693 25.3745 27.2502 25.3385C27.2103 25.2697 27.1455 25.2189 27.0691 25.1966C26.9928 25.1742 26.9109 25.1821 26.8402 25.2185C26.796 25.2474 26.7605 25.2878 26.7376 25.3354C26.7147 25.383 26.7052 25.4359 26.7102 25.4885Z" fill="#EDF0F4"/>
<path d="M29.7401 31.6884C29.7299 31.7311 29.7299 31.7757 29.7401 31.8184C29.7563 31.8547 29.7795 31.8874 29.8085 31.9146C29.8374 31.9419 29.8715 31.9631 29.9087 31.977C29.9459 31.991 29.9856 31.9974 30.0253 31.9959C30.065 31.9944 30.104 31.9851 30.1401 31.9684C30.2134 31.9355 30.2711 31.8753 30.3009 31.8007C30.3308 31.7261 30.3305 31.6428 30.3001 31.5684C30.2839 31.5321 30.2607 31.4994 30.2317 31.4721C30.2028 31.4449 30.1686 31.4237 30.1314 31.4097C30.0942 31.3958 30.0546 31.3893 30.0149 31.3908C29.9752 31.3923 29.9362 31.4017 29.9001 31.4184C29.8503 31.4433 29.8088 31.482 29.7804 31.5299C29.752 31.5777 29.738 31.6328 29.7401 31.6884Z" fill="#EDF0F4"/>
<path d="M35.9603 51.4083C35.9603 51.4083 35.9603 51.4083 35.9603 51.4583C35.966 51.4988 35.9802 51.5376 36.002 51.5721C36.0238 51.6067 36.0525 51.6363 36.0865 51.6589C36.1205 51.6816 36.1589 51.6968 36.1992 51.7036C36.2395 51.7104 36.2808 51.7086 36.3203 51.6983C36.3985 51.6824 36.4673 51.6361 36.5113 51.5695C36.5554 51.5029 36.5712 51.4216 36.5553 51.3433C36.5394 51.2651 36.493 51.1964 36.4264 51.1523C36.3599 51.1082 36.2785 51.0924 36.2003 51.1083C36.1306 51.1205 36.0677 51.1576 36.0235 51.2129C35.9793 51.2681 35.9568 51.3377 35.9603 51.4083Z" fill="#EDF0F4"/>
<path d="M32.2994 38.1083C32.2947 38.1414 32.2947 38.1751 32.2994 38.2083C32.3125 38.2457 32.3329 38.2802 32.3594 38.3097C32.3858 38.3393 32.4178 38.3633 32.4536 38.3805C32.4893 38.3977 32.5281 38.4076 32.5677 38.4098C32.6073 38.412 32.647 38.4064 32.6844 38.3933C32.7218 38.3801 32.7563 38.3597 32.7858 38.3333C32.8154 38.3068 32.8395 38.2748 32.8566 38.2391C32.8738 38.2033 32.8838 38.1645 32.886 38.1249C32.8882 38.0853 32.8825 38.0457 32.8694 38.0083C32.8571 37.9696 32.837 37.9339 32.8105 37.9032C32.784 37.8726 32.7515 37.8476 32.715 37.8299C32.6786 37.8121 32.6389 37.8019 32.5984 37.7999C32.5579 37.7979 32.5174 37.8042 32.4794 37.8183C32.4243 37.8437 32.3779 37.8847 32.3459 37.9362C32.3139 37.9878 32.2977 38.0476 32.2994 38.1083Z" fill="#EDF0F4"/>
<path d="M34.3802 44.6883C34.3746 44.7147 34.3746 44.7419 34.3802 44.7683V44.7683C34.3907 44.8077 34.4088 44.8447 34.4336 44.8771C34.4583 44.9095 34.4893 44.9367 34.5246 44.9572C34.5599 44.9776 34.5988 44.9909 34.6393 44.9962C34.6797 45.0016 34.7208 44.9989 34.7602 44.9883C34.8366 44.963 34.9006 44.9098 34.9395 44.8394C34.9784 44.7689 34.9894 44.6864 34.9702 44.6083V44.6083C34.9599 44.569 34.9417 44.5323 34.9168 44.5002C34.8919 44.4682 34.8607 44.4416 34.8252 44.4219C34.7897 44.4023 34.7505 44.3901 34.7101 44.386C34.6697 44.382 34.629 44.3861 34.5903 44.3983C34.5278 44.4162 34.4732 44.4544 34.4351 44.507C34.397 44.5596 34.3777 44.6234 34.3802 44.6883V44.6883Z" fill="#EDF0F4"/>
<path d="M23.24 19.5184C23.226 19.5743 23.226 19.6326 23.24 19.6884C23.2848 19.7548 23.3536 19.8012 23.4319 19.818C23.5102 19.8348 23.5919 19.8206 23.66 19.7784C23.6946 19.7579 23.7248 19.7307 23.7488 19.6982C23.7727 19.6658 23.7898 19.6289 23.7992 19.5897C23.8085 19.5505 23.8098 19.5098 23.8031 19.4701C23.7963 19.4303 23.7817 19.3924 23.76 19.3584C23.7387 19.3246 23.7108 19.2953 23.678 19.2724C23.6452 19.2494 23.6081 19.2333 23.5689 19.2249C23.5298 19.2165 23.4894 19.2161 23.4501 19.2235C23.4107 19.231 23.3733 19.2463 23.34 19.2684C23.3029 19.2977 23.2741 19.3362 23.2566 19.3801C23.239 19.424 23.2333 19.4717 23.24 19.5184V19.5184Z" fill="#EDF0F4"/>
<path d="M19.3302 13.8284C19.3286 13.8935 19.3498 13.9572 19.3902 14.0084C19.4382 14.0742 19.5103 14.1185 19.5908 14.1316C19.6713 14.1447 19.7537 14.1256 19.8201 14.0784C19.884 14.0288 19.9266 13.9569 19.9396 13.8771C19.9526 13.7973 19.9349 13.7156 19.8902 13.6484C19.8655 13.6151 19.8345 13.5871 19.7989 13.566C19.7633 13.5449 19.7238 13.5311 19.6828 13.5255C19.6418 13.52 19.6001 13.5226 19.5601 13.5334C19.5202 13.5442 19.4828 13.5629 19.4502 13.5884C19.4123 13.6157 19.3816 13.6519 19.3607 13.6936C19.3398 13.7354 19.3293 13.7816 19.3302 13.8284Z" fill="#EDF0F4"/>
<path d="M27.7598 111.678C27.7467 111.721 27.7467 111.766 27.7598 111.808C27.7603 111.866 27.7763 111.922 27.8063 111.972C27.8362 112.021 27.8789 112.061 27.9298 112.088C28.0029 112.123 28.0867 112.128 28.1633 112.102C28.2399 112.076 28.3033 112.021 28.3398 111.948C28.3756 111.877 28.3815 111.794 28.3562 111.718C28.3309 111.642 28.2764 111.579 28.2048 111.543C28.1332 111.508 28.0503 111.502 27.9744 111.527C27.8984 111.552 27.8356 111.607 27.7998 111.678H27.7598Z" fill="#EDF0F4"/>
<path d="M30.6195 105.438C30.6138 105.475 30.6138 105.512 30.6195 105.548C30.6178 105.609 30.6353 105.668 30.6694 105.719C30.7035 105.769 30.7525 105.807 30.8095 105.828C30.8461 105.845 30.8857 105.853 30.9259 105.854C30.9661 105.855 31.006 105.848 31.0433 105.833C31.0807 105.818 31.1145 105.796 31.1431 105.767C31.1716 105.739 31.1942 105.705 31.2095 105.668C31.2313 105.63 31.2447 105.588 31.2489 105.544C31.2531 105.5 31.2479 105.456 31.2337 105.414C31.2195 105.373 31.1967 105.335 31.1666 105.302C31.1366 105.27 31.1001 105.245 31.0595 105.228C31.0177 105.205 30.9711 105.192 30.9235 105.191C30.8758 105.19 30.8285 105.2 30.7855 105.22C30.7425 105.241 30.705 105.271 30.6762 105.309C30.6473 105.347 30.6278 105.391 30.6195 105.438V105.438Z" fill="#EDF0F4"/>
<path d="M20.6201 123.628C20.6208 123.693 20.6419 123.756 20.6805 123.809C20.7192 123.861 20.7733 123.9 20.8353 123.92C20.8972 123.94 20.9639 123.94 21.0258 123.92C21.0877 123.9 21.1416 123.861 21.1801 123.808C21.2238 123.74 21.2399 123.657 21.225 123.577C21.2102 123.498 21.1655 123.426 21.1001 123.378C21.0685 123.354 21.0322 123.336 20.9934 123.326C20.9546 123.316 20.9143 123.315 20.8748 123.321C20.8354 123.328 20.7977 123.343 20.7642 123.364C20.7307 123.386 20.7021 123.415 20.6801 123.448C20.6424 123.501 20.6215 123.563 20.6201 123.628V123.628Z" fill="#EDF0F4"/>
<path d="M24.4302 117.698C24.4165 117.747 24.4165 117.799 24.4302 117.848C24.4301 117.901 24.444 117.953 24.4703 117.998C24.4966 118.044 24.5345 118.082 24.5802 118.108C24.6494 118.15 24.732 118.162 24.8104 118.144C24.8888 118.125 24.9569 118.076 25.0002 118.008C25.0215 117.974 25.0355 117.935 25.0415 117.895C25.0475 117.855 25.0454 117.814 25.0351 117.775C25.0248 117.736 25.0066 117.699 24.9817 117.667C24.9568 117.635 24.9257 117.608 24.8902 117.588C24.8539 117.562 24.8122 117.543 24.7681 117.534C24.724 117.526 24.6785 117.526 24.6347 117.537C24.5909 117.547 24.5499 117.567 24.5146 117.595C24.4793 117.623 24.4505 117.658 24.4302 117.698V117.698Z" fill="#EDF0F4"/>
<path d="M16.4395 129.118C16.4404 129.162 16.4508 129.205 16.4697 129.245C16.4887 129.285 16.5158 129.32 16.5494 129.348C16.5923 129.393 16.6475 129.423 16.7079 129.436C16.7684 129.449 16.8313 129.444 16.8887 129.421C16.946 129.398 16.9951 129.358 17.0297 129.307C17.0643 129.255 17.0828 129.195 17.0828 129.133C17.0828 129.071 17.0643 129.011 17.0297 128.96C16.9951 128.909 16.946 128.869 16.8887 128.846C16.8313 128.823 16.7684 128.817 16.7079 128.83C16.6475 128.843 16.5923 128.874 16.5494 128.918C16.4887 128.968 16.4493 129.04 16.4395 129.118V129.118Z" fill="#EDF0F4"/>
<path d="M36.36 85.6585C36.3553 85.6782 36.3553 85.6988 36.36 85.7185C36.3632 85.7905 36.3907 85.8592 36.4378 85.9137C36.485 85.9681 36.5492 86.005 36.62 86.0185C36.6993 86.0302 36.7801 86.0107 36.8454 85.9641C36.9106 85.9174 36.9553 85.8473 36.9699 85.7685C36.9771 85.729 36.9763 85.6885 36.9675 85.6494C36.9587 85.6103 36.9422 85.5733 36.9189 85.5407C36.8955 85.5081 36.866 85.4804 36.8318 85.4594C36.7977 85.4385 36.7596 85.4245 36.7199 85.4185C36.6804 85.4082 36.6392 85.4064 36.5989 85.4132C36.5586 85.42 36.5202 85.4352 36.4862 85.4579C36.4522 85.4805 36.4234 85.5101 36.4016 85.5447C36.3799 85.5793 36.3657 85.618 36.36 85.6585Z" fill="#EDF0F4"/>
<path d="M37.2803 78.8482C37.2799 78.9229 37.3074 78.995 37.3573 79.0504C37.4072 79.1059 37.476 79.1408 37.5503 79.1482C37.631 79.1567 37.7119 79.1332 37.7755 79.0827C37.839 79.0322 37.8803 78.9588 37.8903 78.8782C37.8961 78.7965 37.8702 78.7157 37.8181 78.6524C37.766 78.5891 37.6916 78.5483 37.6103 78.5382C37.5683 78.5369 37.5264 78.5439 37.4871 78.5587C37.4477 78.5736 37.4117 78.5961 37.381 78.6249C37.3504 78.6536 37.3258 78.6882 37.3085 78.7265C37.2912 78.7649 37.2816 78.8062 37.2803 78.8482V78.8482Z" fill="#EDF0F4"/>
<path d="M33.0602 98.9983C33.0555 99.0281 33.0555 99.0585 33.0602 99.0883C33.0609 99.1524 33.0814 99.2147 33.1191 99.2667C33.1567 99.3186 33.2095 99.3576 33.2702 99.3783C33.3082 99.3924 33.3486 99.3986 33.3891 99.3966C33.4296 99.3946 33.4693 99.3844 33.5058 99.3667C33.5422 99.3489 33.5747 99.324 33.6012 99.2933C33.6278 99.2626 33.6478 99.2269 33.6601 99.1883C33.6832 99.1113 33.6765 99.0284 33.6413 98.9562C33.6061 98.8839 33.545 98.8276 33.4701 98.7983C33.4304 98.781 33.3874 98.7726 33.344 98.7735C33.3007 98.7745 33.2581 98.7848 33.2191 98.8038C33.1801 98.8228 33.1457 98.85 33.1183 98.8836C33.0908 98.9172 33.071 98.9563 33.0602 98.9983V98.9983Z" fill="#EDF0F4"/>
<path d="M34.9297 92.3882V92.4682C34.9301 92.5353 34.9529 92.6003 34.9946 92.6529C35.0363 92.7055 35.0944 92.7425 35.1597 92.7582C35.1984 92.7702 35.2393 92.7739 35.2796 92.7691C35.3199 92.7643 35.3587 92.7511 35.3936 92.7304C35.4284 92.7097 35.4585 92.6818 35.482 92.6487C35.5054 92.6156 35.5217 92.578 35.5297 92.5382C35.5401 92.4994 35.5427 92.459 35.5373 92.4192C35.5318 92.3794 35.5184 92.3412 35.4979 92.3067C35.4774 92.2722 35.4502 92.2421 35.4178 92.2183C35.3855 92.1946 35.3487 92.1775 35.3097 92.1682C35.2302 92.1495 35.1466 92.1618 35.076 92.2027C35.0053 92.2436 34.953 92.31 34.9297 92.3882V92.3882Z" fill="#EDF0F4"/>
<path d="M18.4503 118.698C18.4498 118.763 18.4662 118.826 18.4978 118.882C18.5293 118.938 18.575 118.985 18.6303 119.018C18.6729 119.049 18.7213 119.071 18.7725 119.082C18.8238 119.094 18.8769 119.095 18.9285 119.086C18.9802 119.076 19.0295 119.056 19.0733 119.028C19.1172 118.999 19.1547 118.961 19.1837 118.917C19.2127 118.873 19.2325 118.824 19.242 118.772C19.2515 118.721 19.2505 118.668 19.239 118.616C19.2274 118.565 19.2057 118.517 19.1749 118.474C19.1442 118.432 19.1052 118.396 19.0603 118.368C19.0011 118.328 18.9319 118.305 18.8604 118.301C18.7888 118.297 18.7176 118.313 18.6546 118.347C18.5916 118.381 18.5392 118.432 18.5031 118.494C18.4671 118.556 18.4488 118.627 18.4503 118.698V118.698Z" fill="#EDF0F4"/>
<path d="M22.06 112.698C22.025 112.755 22.0076 112.821 22.01 112.888C22.009 112.958 22.0271 113.026 22.0624 113.086C22.0977 113.146 22.1487 113.195 22.21 113.228C22.2548 113.256 22.3048 113.275 22.3571 113.283C22.4094 113.291 22.4627 113.289 22.514 113.276C22.5652 113.263 22.6133 113.239 22.6552 113.207C22.6971 113.175 22.7321 113.134 22.7579 113.088C22.7837 113.042 22.7998 112.991 22.8053 112.938C22.8108 112.886 22.8055 112.833 22.7898 112.782C22.7741 112.732 22.7483 112.685 22.714 112.645C22.6796 112.604 22.6374 112.572 22.59 112.548C22.5457 112.522 22.4964 112.505 22.4453 112.498C22.3943 112.492 22.3423 112.495 22.2928 112.509C22.2432 112.524 22.197 112.547 22.157 112.58C22.117 112.612 22.084 112.653 22.06 112.698Z" fill="#EDF0F4"/>
<path d="M25.0596 106.678C25.0504 106.731 25.0504 106.785 25.0596 106.838C25.0611 106.914 25.0834 106.987 25.124 107.051C25.1646 107.114 25.2219 107.165 25.2896 107.198C25.3368 107.22 25.3878 107.232 25.4397 107.233C25.4915 107.235 25.5432 107.226 25.5916 107.208C25.6401 107.189 25.6843 107.161 25.7217 107.125C25.7591 107.089 25.789 107.046 25.8096 106.998C25.8454 106.905 25.8442 106.802 25.8064 106.71C25.7685 106.618 25.6967 106.544 25.6059 106.503C25.515 106.462 25.4119 106.457 25.3178 106.49C25.2236 106.522 25.1455 106.59 25.0996 106.678H25.0596Z" fill="#EDF0F4"/>
<path d="M14.58 123.968C14.5299 124.038 14.502 124.122 14.5 124.208C14.5017 124.268 14.5159 124.326 14.5417 124.379C14.5676 124.433 14.6045 124.48 14.65 124.518C14.6892 124.561 14.7371 124.594 14.7905 124.616C14.8439 124.638 14.9015 124.649 14.9592 124.647C15.017 124.644 15.0735 124.63 15.1251 124.603C15.1766 124.577 15.2218 124.54 15.2576 124.495C15.2935 124.449 15.3191 124.397 15.3326 124.341C15.3462 124.285 15.3475 124.226 15.3363 124.169C15.3251 124.113 15.3018 124.059 15.2679 124.012C15.234 123.965 15.1904 123.927 15.14 123.898C15.0555 123.836 14.9502 123.809 14.846 123.822C14.7418 123.835 14.6466 123.887 14.58 123.968V123.968Z" fill="#EDF0F4"/>
<path d="M32.4502 80.7882C32.4508 80.8631 32.473 80.9362 32.514 80.9988C32.555 81.0614 32.6133 81.1109 32.6817 81.1413C32.7501 81.1718 32.8257 81.1819 32.8997 81.1704C32.9737 81.159 33.0429 81.1265 33.0989 81.0769C33.1549 81.0272 33.1954 80.9625 33.2157 80.8904C33.2359 80.8183 33.235 80.742 33.213 80.6704C33.191 80.5988 33.1488 80.5351 33.0916 80.4869C33.0343 80.4386 32.9645 80.4078 32.8902 80.3982C32.835 80.3911 32.7788 80.3959 32.7255 80.4122C32.6723 80.4286 32.6232 80.4562 32.5815 80.4932C32.5398 80.5301 32.5065 80.5756 32.4838 80.6265C32.4612 80.6774 32.4497 80.7325 32.4502 80.7882V80.7882Z" fill="#EDF0F4"/>
<path d="M33.0596 74.0481C33.0594 74.1482 33.0978 74.2445 33.1666 74.3171C33.2355 74.3897 33.3296 74.433 33.4296 74.4381C33.535 74.441 33.6375 74.4031 33.7158 74.3323C33.794 74.2616 33.8419 74.1634 33.8495 74.0581C33.8345 73.9642 33.7866 73.8786 33.7142 73.8169C33.6418 73.7551 33.5497 73.7212 33.4546 73.7212C33.3594 73.7212 33.2673 73.7551 33.1949 73.8169C33.1226 73.8786 33.0746 73.9642 33.0596 74.0581V74.0481Z" fill="#EDF0F4"/>
<path d="M31.3499 87.4485C31.3456 87.475 31.3456 87.502 31.3499 87.5285C31.3488 87.6197 31.3805 87.7082 31.4393 87.778C31.498 87.8478 31.5798 87.8941 31.6699 87.9085C31.7455 87.9228 31.8237 87.9144 31.8945 87.8843C31.9654 87.8543 32.0257 87.804 32.068 87.7397C32.1103 87.6754 32.1327 87.6001 32.1323 87.5232C32.1319 87.4462 32.1087 87.3711 32.0657 87.3073C32.0227 87.2435 31.9618 87.1938 31.8906 87.1646C31.8195 87.1353 31.7413 87.1277 31.6658 87.1428C31.5904 87.1579 31.521 87.195 31.4666 87.2494C31.4122 87.3038 31.3751 87.373 31.3599 87.4485H31.3499Z" fill="#EDF0F4"/>
<path d="M27.6499 100.438C27.6402 100.484 27.6402 100.532 27.6499 100.578C27.6478 100.66 27.672 100.74 27.7188 100.806C27.7656 100.873 27.8326 100.923 27.9098 100.948C28.008 100.981 28.115 100.974 28.2082 100.929C28.3014 100.884 28.3737 100.805 28.4098 100.708C28.4272 100.66 28.4348 100.608 28.4321 100.557C28.4294 100.505 28.4165 100.455 28.3942 100.408C28.3719 100.362 28.3405 100.32 28.302 100.286C28.2635 100.251 28.2186 100.225 28.1698 100.208C28.121 100.186 28.0679 100.174 28.0142 100.174C27.9604 100.174 27.9073 100.185 27.8581 100.206C27.809 100.228 27.765 100.26 27.7291 100.3C27.6932 100.34 27.6662 100.387 27.6499 100.438V100.438Z" fill="#EDF0F4"/>
<path d="M29.7496 94.0183C29.7449 94.0515 29.7449 94.0851 29.7496 94.1183C29.743 94.2165 29.7738 94.3135 29.8357 94.39C29.8976 94.4664 29.9862 94.5166 30.0836 94.5305C30.181 94.5444 30.28 94.521 30.3608 94.465C30.4417 94.4089 30.4984 94.3244 30.5196 94.2283C30.5366 94.1781 30.5432 94.125 30.5391 94.0722C30.5349 94.0193 30.52 93.9679 30.4953 93.921C30.4706 93.8741 30.4366 93.8328 30.3953 93.7995C30.3541 93.7662 30.3065 93.7416 30.2554 93.7273C30.2044 93.713 30.151 93.7093 30.0985 93.7163C30.0459 93.7234 29.9954 93.7411 29.9499 93.7683C29.9044 93.7955 29.865 93.8318 29.834 93.8747C29.803 93.9177 29.7811 93.9666 29.7696 94.0183H29.7496Z" fill="#EDF0F4"/>
<path d="M33.1104 67.2884C33.1104 67.3919 33.1515 67.4911 33.2246 67.5642C33.2977 67.6374 33.3969 67.6784 33.5004 67.6784C33.6038 67.6784 33.703 67.6374 33.7761 67.5642C33.8493 67.4911 33.8904 67.3919 33.8904 67.2884V67.2884C33.8852 67.1832 33.8398 67.084 33.7634 67.0114C33.6871 66.9388 33.5857 66.8983 33.4803 66.8984C33.3812 66.9059 33.2885 66.9499 33.2201 67.022C33.1517 67.0941 33.1126 67.1891 33.1104 67.2884V67.2884Z" fill="#EDF0F4"/>
<path d="M28.3396 40.6683C28.3347 40.7082 28.3347 40.7485 28.3396 40.7883C28.3554 40.838 28.3809 40.884 28.4148 40.9236C28.4487 40.9632 28.4901 40.9956 28.5368 41.0189C28.5834 41.0422 28.6342 41.0559 28.6862 41.0593C28.7382 41.0626 28.7903 41.0555 28.8396 41.0383C28.9364 41.0022 29.0155 40.9299 29.0603 40.8367C29.105 40.7435 29.1119 40.6365 29.0795 40.5383C29.0637 40.4887 29.0381 40.4427 29.0042 40.4031C28.9703 40.3635 28.9289 40.3311 28.8823 40.3078C28.8357 40.2845 28.7849 40.2707 28.7329 40.2674C28.6809 40.2641 28.6287 40.2712 28.5795 40.2883C28.5061 40.3203 28.4439 40.3737 28.4011 40.4414C28.3583 40.5092 28.3369 40.5882 28.3396 40.6683V40.6683Z" fill="#EDF0F4"/>
<path d="M15.7598 16.6883C15.7605 16.7747 15.7885 16.8587 15.8398 16.9283C15.9032 17.0103 15.996 17.0645 16.0986 17.0794C16.2012 17.0943 16.3056 17.0688 16.3898 17.0083C16.4718 16.9448 16.526 16.852 16.5409 16.7494C16.5558 16.6468 16.5303 16.5424 16.4697 16.4583C16.4063 16.3763 16.3135 16.3221 16.2109 16.3071C16.1083 16.2922 16.0039 16.3177 15.9197 16.3783C15.8719 16.415 15.8328 16.4618 15.8051 16.5154C15.7775 16.569 15.762 16.628 15.7598 16.6883V16.6883Z" fill="#EDF0F4"/>
<path d="M25.8897 34.3284C25.8889 34.3939 25.9047 34.4585 25.9355 34.5163C25.9663 34.5741 26.0113 34.6232 26.0661 34.659C26.1209 34.6949 26.1838 34.7164 26.2491 34.7215C26.3144 34.7267 26.3799 34.7153 26.4397 34.6884C26.4873 34.6678 26.5303 34.6379 26.5662 34.6005C26.6022 34.5631 26.6303 34.5188 26.6489 34.4704C26.6675 34.422 26.6763 34.3703 26.6747 34.3185C26.6731 34.2666 26.6612 34.2156 26.6397 34.1684C26.6201 34.1211 26.5912 34.0783 26.5547 34.0424C26.5182 34.0066 26.4748 33.9785 26.4272 33.9598C26.3796 33.9411 26.3287 33.9323 26.2776 33.9338C26.2264 33.9352 26.1761 33.947 26.1297 33.9684C26.0586 33.998 25.9979 34.048 25.9552 34.1121C25.9125 34.1761 25.8897 34.2514 25.8897 34.3284Z" fill="#EDF0F4"/>
<path d="M22.96 28.2283C22.9626 28.2914 22.9797 28.353 23.0099 28.4083C23.0615 28.4928 23.1431 28.5545 23.2385 28.581C23.3338 28.6075 23.4356 28.5968 23.5233 28.5511C23.611 28.5053 23.6781 28.4279 23.7109 28.3346C23.7437 28.2412 23.7398 28.1389 23.7 28.0483C23.6767 28.002 23.6444 27.9608 23.605 27.9271C23.5657 27.8935 23.5199 27.868 23.4706 27.8521C23.4212 27.8363 23.3693 27.8305 23.3176 27.835C23.266 27.8395 23.2158 27.8542 23.1699 27.8783C23.1067 27.9124 23.0539 27.9629 23.0169 28.0245C22.98 28.0861 22.9603 28.1565 22.96 28.2283Z" fill="#EDF0F4"/>
<path d="M30.2897 47.1684C30.2805 47.1976 30.2805 47.2291 30.2897 47.2584V47.2584C30.3014 47.3081 30.3229 47.3549 30.3531 47.3962C30.3832 47.4374 30.4214 47.4721 30.4653 47.4982C30.5091 47.5243 30.5578 47.5414 30.6084 47.5483C30.659 47.5552 30.7105 47.5518 30.7597 47.5384C30.8099 47.5256 30.8569 47.503 30.8982 47.4718C30.9395 47.4407 30.9742 47.4016 31.0002 47.357C31.0263 47.3123 31.0432 47.2629 31.05 47.2116C31.0568 47.1604 31.0533 47.1083 31.0397 47.0584C31.0181 46.9638 30.9621 46.8806 30.8825 46.8252C30.8029 46.7697 30.7055 46.7459 30.6093 46.7584C30.5131 46.7709 30.425 46.8188 30.3622 46.8927C30.2994 46.9667 30.2665 47.0614 30.2698 47.1584L30.2897 47.1684Z" fill="#EDF0F4"/>
<path d="M32.6794 60.5084C32.6844 60.5597 32.6996 60.6096 32.7239 60.655C32.7483 60.7004 32.7814 60.7406 32.8214 60.7731C32.8614 60.8057 32.9075 60.83 32.9569 60.8446C33.0063 60.8593 33.0582 60.864 33.1094 60.8584C33.2138 60.8483 33.3101 60.7975 33.3774 60.7171C33.4448 60.6367 33.4778 60.533 33.4694 60.4284C33.4523 60.326 33.3979 60.2336 33.3166 60.1689C33.2354 60.1043 33.133 60.0721 33.0294 60.0784C32.9278 60.0933 32.8355 60.1457 32.7707 60.2253C32.7059 60.3049 32.6733 60.4059 32.6794 60.5084V60.5084Z" fill="#EDF0F4"/>
<path d="M31.7398 53.7981C31.7352 53.8179 31.7352 53.8384 31.7398 53.8581C31.7488 53.9528 31.794 54.0404 31.8658 54.1027C31.9377 54.165 32.0307 54.1972 32.1257 54.1927C32.2207 54.1882 32.3103 54.1473 32.3759 54.0785C32.4416 54.0097 32.4782 53.9182 32.4782 53.8231C32.4782 53.728 32.4416 53.6366 32.3759 53.5678C32.3103 53.4989 32.2207 53.458 32.1257 53.4535C32.0307 53.449 31.9377 53.4813 31.8658 53.5436C31.794 53.6059 31.7488 53.6935 31.7398 53.7881V53.7981Z" fill="#EDF0F4"/>
<path d="M19.5801 22.3083C19.5812 22.3824 19.6019 22.4549 19.6401 22.5183C19.6675 22.5618 19.7033 22.5994 19.7454 22.629C19.7874 22.6585 19.8349 22.6795 19.8851 22.6906C19.9353 22.7018 19.9872 22.7029 20.0378 22.6939C20.0884 22.685 20.1368 22.6661 20.1801 22.6383C20.2674 22.5827 20.3298 22.4953 20.3541 22.3946C20.3783 22.2939 20.3625 22.1877 20.3101 22.0983C20.2826 22.0549 20.2468 22.0173 20.2047 21.9877C20.1627 21.9582 20.1152 21.9372 20.065 21.926C20.0148 21.9149 19.9629 21.9138 19.9123 21.9227C19.8617 21.9317 19.8134 21.9506 19.7701 21.9783C19.7128 22.0125 19.6653 22.0608 19.632 22.1186C19.5988 22.1763 19.5809 22.2417 19.5801 22.3083V22.3083Z" fill="#EDF0F4"/>
<path d="M12.0596 19.3784C12.0601 19.4819 12.0914 19.5828 12.1496 19.6684C12.2269 19.7681 12.3397 19.8342 12.4645 19.8528C12.5893 19.8715 12.7165 19.8412 12.8196 19.7684C12.8711 19.7318 12.9148 19.6851 12.9479 19.6312C12.981 19.5773 13.0028 19.5172 13.0121 19.4547C13.0215 19.3921 13.0181 19.3283 13.0022 19.2671C12.9863 19.2059 12.9582 19.1485 12.9196 19.0984C12.8838 19.0471 12.8381 19.0037 12.785 18.9707C12.732 18.9377 12.6728 18.9159 12.6111 18.9066C12.5493 18.8972 12.4863 18.9005 12.4258 18.9163C12.3654 18.9321 12.3089 18.96 12.2596 18.9984C12.1985 19.0413 12.1484 19.0981 12.1136 19.1642C12.0789 19.2303 12.0603 19.3037 12.0596 19.3784V19.3784Z" fill="#EDF0F4"/>
<path d="M28.5498 69.2282C28.5498 69.3235 28.5783 69.4167 28.6315 69.4958C28.6847 69.575 28.7602 69.6365 28.8485 69.6725C28.9368 69.7085 29.0338 69.7174 29.1272 69.6981C29.2206 69.6787 29.3061 69.632 29.3728 69.5639C29.4395 69.4957 29.4844 69.4093 29.5018 69.3155C29.5191 69.2218 29.5082 69.1249 29.4703 69.0374C29.4325 68.9499 29.3694 68.8757 29.2892 68.8241C29.2089 68.7726 29.1152 68.7462 29.0198 68.7482C28.8943 68.7508 28.7747 68.8025 28.6868 68.8922C28.599 68.982 28.5498 69.1026 28.5498 69.2282V69.2282Z" fill="#EDF0F4"/>
<path d="M22.2596 101.628C22.2455 101.687 22.2455 101.749 22.2596 101.808C22.26 101.918 22.2982 102.025 22.3679 102.11C22.4377 102.196 22.5346 102.254 22.6424 102.277C22.7503 102.299 22.8626 102.283 22.9604 102.233C23.0581 102.182 23.1355 102.099 23.1795 101.998C23.2041 101.94 23.2169 101.877 23.2171 101.814C23.2173 101.75 23.2049 101.688 23.1808 101.629C23.1566 101.571 23.121 101.517 23.0762 101.473C23.0314 101.428 22.9781 101.392 22.9195 101.368C22.8599 101.337 22.7943 101.319 22.7271 101.316C22.66 101.312 22.5929 101.323 22.5303 101.348C22.4677 101.373 22.4112 101.41 22.3645 101.459C22.3178 101.507 22.282 101.565 22.2596 101.628V101.628Z" fill="#EDF0F4"/>
<path d="M26.4999 48.9583C26.395 48.9848 26.3018 49.0452 26.2349 49.1303C26.1679 49.2153 26.131 49.3201 26.1299 49.4283C26.1299 49.4283 26.1299 49.5083 26.1299 49.5383C26.1629 49.6606 26.2412 49.7658 26.3489 49.8326C26.4565 49.8995 26.5856 49.9229 26.7099 49.8983C26.8346 49.8691 26.9425 49.7916 27.01 49.6828C27.0775 49.574 27.0991 49.4429 27.0699 49.3183C27.0407 49.1936 26.9632 49.0857 26.8544 49.0181C26.7457 48.9506 26.6145 48.9291 26.4899 48.9583H26.4999Z" fill="#EDF0F4"/>
<path d="M21.9403 36.7583C21.9261 36.8208 21.9261 36.8858 21.9403 36.9483C21.9639 37.065 22.03 37.1687 22.1257 37.2394C22.2215 37.3102 22.3401 37.3428 22.4586 37.3309C22.577 37.3191 22.6869 37.2636 22.7667 37.1754C22.8466 37.0871 22.8908 36.9723 22.8908 36.8533C22.8908 36.7343 22.8466 36.6195 22.7667 36.5312C22.6869 36.4429 22.577 36.3875 22.4586 36.3757C22.3401 36.3638 22.2215 36.3964 22.1257 36.4671C22.03 36.5378 21.9639 36.6416 21.9403 36.7583Z" fill="#EDF0F4"/>
<path d="M24.5403 95.3882C24.5308 95.4377 24.5308 95.4886 24.5403 95.5382C24.5417 95.6408 24.5752 95.7404 24.6362 95.8229C24.6972 95.9055 24.7826 95.9667 24.8803 95.9982C24.9967 96.0226 25.118 96.0031 25.2207 95.9432C25.3235 95.8833 25.4004 95.7875 25.4365 95.6742C25.4726 95.5609 25.4653 95.4382 25.4162 95.3299C25.367 95.2217 25.2794 95.1355 25.1703 95.0882C25.1097 95.0613 25.0441 95.0479 24.9778 95.0489C24.9115 95.0498 24.8463 95.065 24.7865 95.0935C24.7266 95.122 24.6737 95.1631 24.6312 95.2139C24.5887 95.2648 24.5577 95.3242 24.5403 95.3882Z" fill="#EDF0F4"/>
<path d="M16.2704 113.448C16.2376 113.502 16.2157 113.562 16.2059 113.624C16.1962 113.686 16.1988 113.75 16.2137 113.811C16.2286 113.873 16.2553 113.93 16.2925 113.981C16.3297 114.032 16.3765 114.075 16.4304 114.108C16.4842 114.141 16.544 114.163 16.6063 114.173C16.6686 114.182 16.7322 114.18 16.7935 114.165C16.8548 114.15 16.9126 114.123 16.9635 114.086C17.0145 114.049 17.0576 114.002 17.0904 113.948C17.1244 113.896 17.1473 113.836 17.1577 113.775C17.168 113.713 17.1656 113.65 17.1507 113.589C17.1357 113.528 17.1084 113.471 17.0705 113.421C17.0326 113.371 16.9849 113.329 16.9304 113.298C16.8229 113.231 16.6931 113.209 16.5694 113.237C16.4458 113.265 16.3383 113.341 16.2704 113.448V113.448Z" fill="#EDF0F4"/>
<path d="M19.4995 107.658C19.4688 107.724 19.4518 107.796 19.4495 107.868C19.4465 107.957 19.4694 108.046 19.5156 108.122C19.5617 108.198 19.6291 108.26 19.7095 108.298C19.7651 108.327 19.826 108.345 19.8886 108.35C19.9511 108.355 20.0142 108.348 20.0738 108.328C20.1335 108.309 20.1886 108.277 20.2359 108.236C20.2833 108.195 20.3219 108.145 20.3494 108.088C20.4055 107.975 20.4149 107.845 20.3756 107.725C20.3363 107.606 20.2515 107.506 20.1395 107.448C20.0838 107.419 20.0229 107.402 19.9603 107.396C19.8978 107.391 19.8348 107.399 19.7752 107.418C19.7155 107.438 19.6603 107.469 19.613 107.51C19.5656 107.552 19.5271 107.602 19.4995 107.658V107.658Z" fill="#EDF0F4"/>
<path d="M24.2903 43.0185C24.2861 43.065 24.2861 43.1119 24.2903 43.1585V43.1585C24.3334 43.2777 24.4211 43.3755 24.5348 43.4314C24.6486 43.4874 24.7796 43.4971 24.9003 43.4585C24.9601 43.4382 25.0153 43.4063 25.0628 43.3647C25.1102 43.323 25.149 43.2724 25.1769 43.2157C25.2047 43.1591 25.2212 43.0974 25.2252 43.0344C25.2292 42.9714 25.2207 42.9082 25.2003 42.8485C25.1811 42.789 25.1502 42.734 25.1095 42.6867C25.0688 42.6393 25.0191 42.6005 24.9632 42.5726C24.9074 42.5446 24.8465 42.5281 24.7842 42.524C24.7218 42.5198 24.6593 42.5282 24.6003 42.5485C24.5048 42.5828 24.423 42.6472 24.3671 42.7319C24.3112 42.8166 24.2843 42.9172 24.2903 43.0185V43.0185Z" fill="#EDF0F4"/>
<path d="M28.2598 62.5984C28.2649 62.6615 28.2823 62.723 28.3112 62.7793C28.3401 62.8357 28.3799 62.8857 28.4282 62.9266C28.4766 62.9675 28.5325 62.9985 28.5928 63.0176C28.6532 63.0368 28.7167 63.0439 28.7798 63.0384C28.8731 63.0306 28.962 62.9957 29.0357 62.938C29.1094 62.8803 29.1646 62.8023 29.1945 62.7137C29.2245 62.625 29.2278 62.5295 29.2042 62.439C29.1806 62.3484 29.131 62.2667 29.0616 62.204C28.9922 62.1412 28.906 62.1001 28.8135 62.0858C28.721 62.0714 28.6263 62.0844 28.5411 62.1231C28.456 62.1618 28.3839 62.2246 28.3339 62.3037C28.284 62.3828 28.2582 62.4748 28.2598 62.5684V62.5984Z" fill="#EDF0F4"/>
<path d="M28.3201 75.8982C28.3197 76.0189 28.3647 76.1353 28.4463 76.2243C28.5278 76.3132 28.6399 76.3682 28.7601 76.3782C28.8927 76.3875 29.0236 76.3438 29.1239 76.2565C29.2242 76.1693 29.2858 76.0459 29.2951 75.9132C29.3044 75.7806 29.2606 75.6498 29.1734 75.5494C29.0862 75.4491 28.9627 75.3875 28.8301 75.3782C28.7611 75.3737 28.6919 75.3841 28.6272 75.4087C28.5626 75.4334 28.5041 75.4717 28.4557 75.5211C28.4072 75.5705 28.3701 75.6297 28.3467 75.6948C28.3233 75.7599 28.3142 75.8293 28.3201 75.8982Z" fill="#EDF0F4"/>
<path d="M28.4002 55.8883C28.3918 55.8265 28.3709 55.7672 28.3389 55.7138C28.3068 55.6604 28.2643 55.614 28.2138 55.5776C28.1633 55.5411 28.1059 55.5153 28.0451 55.5016C27.9843 55.488 27.9214 55.4869 27.8602 55.4983C27.7462 55.5129 27.6415 55.5688 27.566 55.6554C27.4904 55.7421 27.4493 55.8533 27.4502 55.9683C27.4502 55.9683 27.4502 55.9683 27.4502 56.0483C27.4714 56.1809 27.5444 56.2996 27.6532 56.3784C27.762 56.4571 27.8976 56.4895 28.0302 56.4683C28.1628 56.447 28.2815 56.374 28.3603 56.2652C28.4391 56.1565 28.4714 56.0209 28.4502 55.8883H28.4002Z" fill="#EDF0F4"/>
<path d="M27.5798 82.4883C27.575 82.5114 27.575 82.5352 27.5798 82.5583C27.5785 82.6717 27.6183 82.7818 27.6918 82.8682C27.7653 82.9545 27.8676 83.0114 27.9798 83.0283C28.0422 83.0383 28.106 83.0358 28.1674 83.0211C28.2288 83.0064 28.2868 82.9797 28.3379 82.9425C28.389 82.9054 28.4322 82.8585 28.4651 82.8046C28.4981 82.7506 28.52 82.6907 28.5298 82.6283C28.5397 82.5665 28.5372 82.5033 28.5223 82.4425C28.5075 82.3817 28.4807 82.3245 28.4434 82.2742C28.4061 82.2239 28.3592 82.1815 28.3053 82.1496C28.2515 82.1177 28.1918 82.0968 28.1298 82.0883C28.0671 82.0754 28.0024 82.0757 27.9399 82.0892C27.8773 82.1028 27.8182 82.1292 27.7665 82.1668C27.7147 82.2045 27.6713 82.2525 27.6392 82.3079C27.6071 82.3632 27.5868 82.4247 27.5798 82.4883Z" fill="#EDF0F4"/>
<path d="M26.3094 88.9982C26.3044 89.0347 26.3044 89.0717 26.3094 89.1082C26.3153 89.2214 26.361 89.3288 26.4385 89.4115C26.516 89.4942 26.6204 89.5468 26.733 89.56C26.8455 89.5732 26.9591 89.5461 27.0536 89.4835C27.1482 89.421 27.2175 89.327 27.2494 89.2182C27.2769 89.095 27.2559 88.966 27.1907 88.858C27.1255 88.7499 27.0212 88.6712 26.8994 88.6382C26.837 88.6219 26.7719 88.6183 26.7081 88.6277C26.6442 88.637 26.5829 88.6592 26.5279 88.6928C26.4728 88.7264 26.425 88.7708 26.3875 88.8232C26.35 88.8757 26.3234 88.9352 26.3094 88.9982V88.9982Z" fill="#EDF0F4"/>
<path d="M12.6 118.978C12.5337 119.057 12.4982 119.156 12.5001 119.258C12.5 119.36 12.5323 119.459 12.5921 119.541C12.6519 119.623 12.7363 119.684 12.833 119.716C12.9298 119.747 13.0339 119.746 13.1304 119.715C13.2269 119.683 13.3108 119.621 13.3701 119.538C13.4069 119.487 13.4332 119.429 13.4476 119.368C13.462 119.307 13.4641 119.243 13.4539 119.181C13.4437 119.118 13.4213 119.059 13.388 119.005C13.3548 118.952 13.3113 118.905 13.2601 118.868C13.2102 118.831 13.1531 118.803 13.0922 118.788C13.0314 118.773 12.9681 118.771 12.9063 118.781C12.8445 118.791 12.7855 118.814 12.7329 118.848C12.6802 118.882 12.635 118.926 12.6 118.978V118.978Z" fill="#EDF0F4"/>
<path d="M15.8096 24.9084C15.809 24.9966 15.8332 25.0832 15.8796 25.1584C15.9475 25.2655 16.055 25.3414 16.1787 25.3695C16.3023 25.3976 16.432 25.3756 16.5396 25.3084C16.5934 25.2755 16.6403 25.2324 16.6775 25.1815C16.7147 25.1306 16.7415 25.0728 16.7564 25.0115C16.7712 24.9502 16.7739 24.8866 16.7641 24.8243C16.7544 24.762 16.7325 24.7022 16.6996 24.6484C16.6317 24.5412 16.5242 24.4653 16.4005 24.4372C16.2769 24.4091 16.1471 24.4311 16.0396 24.4984C15.9693 24.5412 15.9113 24.6015 15.871 24.6733C15.8307 24.7451 15.8095 24.826 15.8096 24.9084V24.9084Z" fill="#EDF0F4"/>
<path d="M19.1094 30.7083C19.1104 30.7843 19.1274 30.8593 19.1594 30.9283C19.1852 30.9892 19.2233 31.0441 19.2713 31.0896C19.3194 31.1351 19.3763 31.1702 19.4385 31.1927C19.5007 31.2151 19.567 31.2245 19.633 31.2202C19.699 31.2158 19.7634 31.1979 19.8221 31.1675C19.8809 31.1371 19.9327 31.0948 19.9744 31.0434C20.0161 30.992 20.0466 30.9326 20.0642 30.8688C20.0818 30.805 20.086 30.7383 20.0766 30.6728C20.0671 30.6073 20.0443 30.5445 20.0094 30.4883C19.981 30.4327 19.9417 30.3834 19.894 30.3432C19.8462 30.303 19.7909 30.2727 19.7314 30.2541C19.6718 30.2354 19.6091 30.2289 19.547 30.2348C19.4848 30.2406 19.4245 30.2588 19.3694 30.2883C19.2906 30.3263 19.2243 30.386 19.1783 30.4604C19.1322 30.5348 19.1083 30.6208 19.1094 30.7083V30.7083Z" fill="#EDF0F4"/>
<path d="M11.9197 27.3184C11.9125 27.4091 11.9276 27.5003 11.9636 27.5839C11.9996 27.6675 12.0554 27.7411 12.1262 27.7983C12.197 27.8555 12.2808 27.8945 12.3701 27.9121C12.4594 27.9296 12.5517 27.9251 12.6389 27.8989C12.7261 27.8728 12.8056 27.8257 12.8705 27.7619C12.9354 27.6981 12.9838 27.6194 13.0115 27.5327C13.0392 27.446 13.0453 27.3538 13.0293 27.2642C13.0133 27.1746 12.9757 27.0902 12.9197 27.0184C12.8809 26.9547 12.8297 26.8995 12.7693 26.8558C12.7088 26.8122 12.6403 26.7811 12.5676 26.7643C12.4949 26.7476 12.4196 26.7455 12.3462 26.7582C12.2727 26.7709 12.2025 26.7982 12.1397 26.8384C12.0664 26.8941 12.008 26.9671 11.9696 27.0508C11.9312 27.1345 11.9141 27.2264 11.9197 27.3184V27.3184Z" fill="#EDF0F4"/>
<path d="M23.7999 64.4583C23.8037 64.5328 23.8223 64.6058 23.8547 64.6729C23.8871 64.7401 23.9325 64.8001 23.9884 64.8495C24.0443 64.8989 24.1095 64.9366 24.1801 64.9604C24.2508 64.9843 24.3255 64.9937 24.3999 64.9883C24.5116 64.9824 24.619 64.9438 24.7089 64.8772C24.7988 64.8107 24.8672 64.7192 24.9054 64.6141C24.9437 64.509 24.9502 64.3949 24.9241 64.2862C24.898 64.1774 24.8405 64.0787 24.7587 64.0024C24.677 63.9261 24.5745 63.8755 24.4642 63.857C24.3539 63.8385 24.2407 63.8528 24.1384 63.8982C24.0362 63.9436 23.9496 64.0181 23.8894 64.1123C23.8292 64.2066 23.7981 64.3165 23.7999 64.4283V64.4583Z" fill="#EDF0F4"/>
<path d="M23.5801 77.5083C23.5896 77.6472 23.6496 77.7778 23.7488 77.8754C23.848 77.9731 23.9795 78.0311 24.1185 78.0385C24.2575 78.0459 24.3945 78.0021 24.5034 77.9155C24.6124 77.8289 24.6859 77.7054 24.7101 77.5683C24.7241 77.4186 24.6782 77.2694 24.5827 77.1533C24.4872 77.0371 24.3497 76.9635 24.2001 76.9483C24.1217 76.9398 24.0423 76.9481 23.9673 76.9724C23.8923 76.9967 23.8233 77.0366 23.7647 77.0895C23.7062 77.1424 23.6595 77.207 23.6276 77.2792C23.5958 77.3513 23.5796 77.4294 23.5801 77.5083V77.5083Z" fill="#EDF0F4"/>
<path d="M19.3002 96.5284C19.2906 96.5914 19.2906 96.6555 19.3002 96.7184C19.2987 96.8358 19.3348 96.9505 19.4031 97.0458C19.4715 97.1412 19.5686 97.2122 19.6802 97.2484C19.7847 97.2833 19.8973 97.2866 20.0037 97.2578C20.1101 97.229 20.2057 97.1694 20.2784 97.0865C20.3511 97.0037 20.3977 96.9012 20.4124 96.7919C20.4271 96.6827 20.4092 96.5715 20.361 96.4724C20.3128 96.3733 20.2365 96.2905 20.1415 96.2346C20.0465 96.1787 19.9371 96.1521 19.827 96.1581C19.717 96.164 19.6111 96.2024 19.5227 96.2683C19.4343 96.3341 19.3674 96.4247 19.3302 96.5284H19.3002Z" fill="#EDF0F4"/>
<path d="M21.24 90.3083C21.2351 90.3581 21.2351 90.4084 21.24 90.4583C21.2471 90.5909 21.3001 90.7168 21.3901 90.8145C21.4801 90.9121 21.6013 90.9752 21.7329 90.993C21.8645 91.0108 21.9982 90.9821 22.1108 90.9119C22.2235 90.8416 22.3081 90.7342 22.35 90.6083C22.3898 90.4624 22.37 90.3067 22.295 90.1754C22.22 90.0442 22.0959 89.9481 21.9501 89.9083C21.8778 89.8886 21.8024 89.8833 21.7281 89.8927C21.6539 89.9022 21.5822 89.9261 21.5172 89.9633C21.3859 90.0383 21.2898 90.1624 21.25 90.3083H21.24Z" fill="#EDF0F4"/>
<path d="M14.6898 108.148C14.5583 108.076 14.4038 108.059 14.2596 108.1C14.1155 108.141 13.9934 108.238 13.9198 108.368C13.8705 108.454 13.8431 108.55 13.8398 108.648C13.8407 108.775 13.8833 108.897 13.9612 108.996C14.0392 109.096 14.1479 109.166 14.2703 109.197C14.3928 109.228 14.522 109.218 14.6378 109.167C14.7535 109.117 14.8492 109.029 14.9098 108.918C14.9817 108.787 14.999 108.632 14.9578 108.488C14.9166 108.344 14.8204 108.222 14.6898 108.148V108.148Z" fill="#EDF0F4"/>
<path d="M23.9503 70.9984C23.949 71.0719 23.9621 71.145 23.989 71.2134C24.016 71.2819 24.0561 71.3444 24.1072 71.3973C24.1583 71.4502 24.2193 71.4926 24.2867 71.5219C24.3542 71.5513 24.4267 71.5671 24.5003 71.5684C24.6133 71.5723 24.725 71.5425 24.8211 71.4828C24.9172 71.4231 24.9933 71.3361 25.0398 71.2329C25.0863 71.1298 25.1011 71.0151 25.0822 70.9036C25.0633 70.792 25.0117 70.6886 24.9338 70.6065C24.856 70.5244 24.7554 70.4673 24.645 70.4425C24.5346 70.4178 24.4193 70.4264 24.3139 70.4674C24.2084 70.5083 24.1175 70.5797 24.0528 70.6725C23.988 70.7653 23.9523 70.8752 23.9503 70.9884V70.9984Z" fill="#EDF0F4"/>
<path d="M16.8499 102.558C16.8365 102.634 16.8365 102.712 16.8499 102.788C16.8783 102.921 16.9549 103.039 17.0649 103.119C17.1749 103.198 17.3105 103.235 17.4456 103.22C17.5807 103.206 17.7058 103.142 17.7967 103.041C17.8875 102.94 17.9378 102.809 17.9378 102.673C17.9378 102.537 17.8875 102.406 17.7967 102.305C17.7058 102.204 17.5807 102.141 17.4456 102.126C17.3105 102.112 17.1749 102.148 17.0649 102.228C16.9549 102.308 16.8783 102.425 16.8499 102.558V102.558Z" fill="#EDF0F4"/>
<path d="M23.3302 83.4984C23.1817 83.4722 23.0288 83.5059 22.9051 83.5921C22.7814 83.6783 22.697 83.81 22.6702 83.9584V84.0584C22.6663 84.1905 22.7109 84.3194 22.7957 84.4208C22.8805 84.5221 22.9995 84.5889 23.1302 84.6084C23.2031 84.6229 23.2782 84.6227 23.3511 84.6078C23.4239 84.5929 23.4931 84.5637 23.5545 84.5218C23.6159 84.4799 23.6685 84.4262 23.7089 84.3638C23.7494 84.3014 23.777 84.2316 23.7902 84.1584C23.8137 84.0103 23.779 83.8588 23.6932 83.7357C23.6075 83.6126 23.4773 83.5276 23.3302 83.4984V83.4984Z" fill="#EDF0F4"/>
<path d="M20.56 44.6183C20.4447 44.6543 20.3438 44.726 20.2719 44.8231C20.2 44.9201 20.1608 45.0375 20.1599 45.1583C20.1511 45.2146 20.1511 45.272 20.1599 45.3283C20.1931 45.4364 20.2578 45.5321 20.3456 45.6034C20.4334 45.6746 20.5404 45.7182 20.653 45.7285C20.7656 45.7387 20.8786 45.7153 20.9779 45.6611C21.0771 45.607 21.158 45.5245 21.2103 45.4242C21.2625 45.324 21.2838 45.2104 21.2713 45.0981C21.2589 44.9857 21.2133 44.8795 21.1403 44.7931C21.0674 44.7068 20.9705 44.644 20.8618 44.6129C20.7531 44.5817 20.6375 44.5836 20.5299 44.6183H20.56Z" fill="#EDF0F4"/>
<path d="M21.8997 51.4782C21.8997 51.4782 21.8997 51.5682 21.8997 51.6082C21.9167 51.6811 21.948 51.7499 21.9916 51.8107C22.0353 51.8715 22.0905 51.9231 22.1541 51.9626C22.2177 52.002 22.2885 52.0286 22.3624 52.0407C22.4362 52.0528 22.5118 52.0503 22.5847 52.0332C22.6575 52.0161 22.7263 51.9849 22.7871 51.9412C22.8479 51.8975 22.8996 51.8423 22.939 51.7787C22.9785 51.7151 23.005 51.6444 23.0172 51.5705C23.0293 51.4966 23.0267 51.4211 23.0096 51.3482C22.974 51.2163 22.8922 51.1016 22.7792 51.025C22.6661 50.9483 22.5293 50.9148 22.3936 50.9306C22.2579 50.9463 22.1324 51.0103 22.0399 51.1108C21.9474 51.2113 21.8941 51.3417 21.8896 51.4782H21.8997Z" fill="#EDF0F4"/>
<path d="M17.9096 38.9883C17.906 39.0823 17.9267 39.1756 17.9695 39.2593C18.0123 39.343 18.0759 39.4144 18.1541 39.4665C18.2324 39.5187 18.3227 39.5499 18.4164 39.5572C18.5101 39.5645 18.6042 39.5477 18.6896 39.5083C18.7824 39.4687 18.8628 39.4047 18.9222 39.3231C18.9816 39.2415 19.0179 39.1454 19.0272 39.0449C19.0365 38.9444 19.0184 38.8432 18.9749 38.7521C18.9315 38.661 18.8642 38.5834 18.7802 38.5274C18.6962 38.4714 18.5987 38.4392 18.4979 38.4341C18.3971 38.429 18.2967 38.4512 18.2075 38.4984C18.1183 38.5457 18.0436 38.6161 17.9911 38.7023C17.9387 38.7886 17.9105 38.8874 17.9096 38.9883V38.9883Z" fill="#EDF0F4"/>
<path d="M23.1196 57.9283V58.0083C23.1294 58.0822 23.1538 58.1534 23.1914 58.2177C23.2291 58.282 23.2792 58.3381 23.3388 58.3828C23.3984 58.4275 23.4663 58.4599 23.5385 58.478C23.6108 58.4961 23.686 58.4996 23.7596 58.4883C23.9076 58.466 24.041 58.3864 24.1308 58.2667C24.2206 58.1469 24.2596 57.9967 24.2396 57.8483C24.229 57.6998 24.1598 57.5616 24.0473 57.4641C23.9347 57.3666 23.7881 57.3177 23.6396 57.3283C23.4911 57.3389 23.3529 57.4081 23.2553 57.5206C23.1578 57.6332 23.109 57.7798 23.1196 57.9283V57.9283Z" fill="#EDF0F4"/>
<path d="M15.1494 33.0284C15.1489 33.1185 15.1695 33.2075 15.2094 33.2884C15.2442 33.3547 15.2917 33.4135 15.3492 33.4615C15.4067 33.5095 15.4731 33.5457 15.5446 33.5679C15.6161 33.5902 15.6913 33.5982 15.7659 33.5914C15.8405 33.5846 15.9131 33.5632 15.9794 33.5284C16.0656 33.4809 16.1377 33.4116 16.1886 33.3274C16.2395 33.2432 16.2673 33.147 16.2692 33.0487C16.2711 32.9503 16.2471 32.8532 16.1995 32.7671C16.152 32.6809 16.0826 32.6089 15.9983 32.5581C15.914 32.5073 15.8179 32.4797 15.7195 32.4779C15.6211 32.4761 15.524 32.5003 15.4379 32.5479C15.3519 32.5956 15.2799 32.6651 15.2293 32.7494C15.1786 32.8338 15.1511 32.93 15.1494 33.0284V33.0284Z" fill="#EDF0F4"/>
<path d="M17.6095 53.3083C17.6041 53.3548 17.6041 53.4018 17.6095 53.4483C17.6501 53.6161 17.7539 53.7617 17.8992 53.8549C18.0445 53.948 18.2201 53.9815 18.3895 53.9483C18.5579 53.9112 18.7047 53.8087 18.7975 53.6634C18.8904 53.518 18.9217 53.3417 18.8845 53.1733C18.8474 53.0049 18.7449 52.8582 18.5995 52.7653C18.4542 52.6725 18.2779 52.6412 18.1095 52.6783C17.9667 52.7103 17.8392 52.7903 17.7482 52.905C17.6572 53.0196 17.6082 53.162 17.6095 53.3083V53.3083Z" fill="#EDF0F4"/>
<path d="M19.29 66.0784C19.2978 66.2517 19.3736 66.4149 19.5009 66.5328C19.6281 66.6507 19.7966 66.7138 19.97 66.7084C20.0996 66.7044 20.2252 66.6624 20.3311 66.5876C20.437 66.5127 20.5185 66.4083 20.5654 66.2874C20.6123 66.1665 20.6225 66.0345 20.5948 65.9078C20.5672 65.7811 20.5028 65.6654 20.4097 65.5751C20.3167 65.4848 20.1991 65.4239 20.0717 65.4C19.9442 65.3761 19.8125 65.3903 19.6931 65.4408C19.5736 65.4912 19.4717 65.5758 19.4 65.6839C19.3283 65.7919 19.2901 65.9187 19.29 66.0484V66.0784Z" fill="#EDF0F4"/>
<path d="M18.8103 78.8783C18.8054 78.9048 18.8054 78.9319 18.8103 78.9583C18.7997 79.1307 18.858 79.3003 18.9724 79.4297C19.0868 79.5591 19.2479 79.6377 19.4203 79.6483C19.5927 79.6589 19.7623 79.6006 19.8917 79.4862C20.0211 79.3718 20.0997 79.2107 20.1103 79.0383C20.1301 78.8662 20.0815 78.6931 19.9749 78.5566C19.8682 78.42 19.7121 78.3308 19.5403 78.3083C19.4546 78.2957 19.3673 78.3006 19.2836 78.3228C19.1999 78.3449 19.1215 78.3838 19.0533 78.4371C18.985 78.4904 18.9283 78.5569 18.8865 78.6328C18.8448 78.7086 18.8189 78.7922 18.8103 78.8783V78.8783Z" fill="#EDF0F4"/>
<path d="M19.9896 71.8783C19.8162 71.8728 19.6476 71.9359 19.5203 72.0538C19.3931 72.1717 19.3174 72.3349 19.3096 72.5083C19.3095 72.6772 19.3752 72.8396 19.4928 72.9609C19.6104 73.0823 19.7707 73.1531 19.9396 73.1583C20.0253 73.1637 20.1111 73.1518 20.1921 73.1233C20.2731 73.0948 20.3476 73.0503 20.4111 72.9925C20.4745 72.9346 20.5256 72.8646 20.5615 72.7865C20.5973 72.7085 20.6171 72.6241 20.6196 72.5383C20.6197 72.3683 20.5544 72.2048 20.437 72.0819C20.3197 71.9589 20.1594 71.886 19.9896 71.8783V71.8783Z" fill="#EDF0F4"/>
<path d="M15.0599 40.7584C15.0021 40.6197 14.8981 40.5053 14.7654 40.4347C14.6328 40.364 14.4798 40.3416 14.3325 40.371C14.1851 40.4005 14.0525 40.4801 13.9573 40.5963C13.862 40.7125 13.8099 40.8581 13.8099 41.0084C13.7912 41.0873 13.7912 41.1695 13.8099 41.2484C13.8373 41.3337 13.8821 41.4123 13.9413 41.4795C14.0006 41.5466 14.0731 41.6008 14.1542 41.6386C14.2354 41.6765 14.3235 41.6971 14.413 41.6993C14.5025 41.7014 14.5915 41.6851 14.6744 41.6512C14.7573 41.6174 14.8324 41.5667 14.8948 41.5025C14.9573 41.4383 15.0057 41.3619 15.0372 41.2781C15.0687 41.1943 15.0825 41.1048 15.0778 41.0154C15.0731 40.926 15.05 40.8385 15.0099 40.7584H15.0599Z" fill="#EDF0F4"/>
<path d="M15.9597 47.0785C15.9501 47.1414 15.9501 47.2055 15.9597 47.2685C15.9799 47.3553 16.0177 47.437 16.0708 47.5086C16.1239 47.5802 16.1912 47.64 16.2684 47.6845C16.3457 47.729 16.4312 47.7571 16.5198 47.7671C16.6083 47.7771 16.698 47.7688 16.7833 47.7427C16.8685 47.7166 16.9474 47.6732 17.0151 47.6153C17.0829 47.5574 17.138 47.4862 17.1771 47.4061C17.2161 47.3259 17.2383 47.2387 17.2422 47.1496C17.2461 47.0606 17.2316 46.9717 17.1997 46.8885C17.1532 46.7408 17.0556 46.6145 16.9243 46.5324C16.793 46.4504 16.6367 46.4178 16.4835 46.4407C16.3304 46.4637 16.1905 46.5405 16.0889 46.6574C15.9874 46.7743 15.9309 46.9236 15.9297 47.0785H15.9597Z" fill="#EDF0F4"/>
<path d="M18.7197 59.6584V59.7384C18.7347 59.8665 18.7876 59.9872 18.8714 60.0852C18.9552 60.1832 19.0664 60.2541 19.1906 60.2888C19.3148 60.3234 19.4465 60.3204 19.569 60.2799C19.6915 60.2395 19.7992 60.1636 19.8784 60.0618C19.9576 59.9599 20.0047 59.8369 20.0137 59.7082C20.0228 59.5795 19.9933 59.4511 19.9291 59.3392C19.8649 59.2273 19.7689 59.1371 19.6533 59.08C19.5376 59.0228 19.4076 59.0014 19.2797 59.0184C19.1251 59.04 18.9834 59.1165 18.8806 59.2341C18.7777 59.3516 18.7206 59.5022 18.7197 59.6584V59.6584Z" fill="#EDF0F4"/>
<path d="M14.9103 97.0483C14.8311 97.0144 14.7458 96.9968 14.6596 96.9966C14.5734 96.9964 14.488 97.0136 14.4086 97.0473C14.3293 97.0809 14.2575 97.1302 14.1976 97.1922C14.1378 97.2543 14.0911 97.3278 14.0603 97.4083C14.0463 97.4877 14.0463 97.5689 14.0603 97.6483C14.0626 97.78 14.1037 97.9081 14.1784 98.0166C14.2531 98.1251 14.3581 98.2092 14.4803 98.2583C14.6408 98.3204 14.8193 98.3163 14.9768 98.2469C15.1342 98.1776 15.2578 98.0486 15.3203 97.8883C15.3516 97.8065 15.3657 97.719 15.3618 97.6315C15.3579 97.5439 15.336 97.4581 15.2976 97.3794C15.2591 97.3006 15.2049 97.2306 15.1383 97.1737C15.0717 97.1167 14.9941 97.0741 14.9103 97.0483V97.0483Z" fill="#EDF0F4"/>
<path d="M12.3199 102.948C12.2432 102.909 12.1595 102.885 12.0735 102.878C11.9875 102.872 11.9011 102.882 11.8192 102.909C11.7373 102.936 11.6616 102.979 11.5964 103.036C11.5313 103.092 11.4781 103.161 11.4399 103.238C11.4 103.33 11.3796 103.429 11.3799 103.528C11.3796 103.644 11.4102 103.758 11.4687 103.858C11.5272 103.958 11.6113 104.041 11.7124 104.097C11.8135 104.154 11.9279 104.182 12.0437 104.18C12.1595 104.178 12.2726 104.144 12.3712 104.083C12.4698 104.023 12.5503 103.936 12.6045 103.834C12.6587 103.732 12.6844 103.617 12.6792 103.501C12.674 103.385 12.6379 103.273 12.5747 103.176C12.5115 103.079 12.4236 103 12.3199 102.948V102.948Z" fill="#EDF0F4"/>
<path d="M17.7595 85.2284C17.7547 85.275 17.7547 85.3219 17.7595 85.3684C17.7774 85.5391 17.8602 85.6964 17.9907 85.8079C18.1212 85.9193 18.2894 85.9765 18.4608 85.9675C18.6322 85.9585 18.7937 85.8841 18.9118 85.7596C19.03 85.6351 19.0958 85.47 19.0958 85.2984C19.0958 85.1268 19.03 84.9617 18.9118 84.8372C18.7937 84.7127 18.6322 84.6383 18.4608 84.6293C18.2894 84.6204 18.1212 84.6775 17.9907 84.789C17.8602 84.9004 17.7774 85.0577 17.7595 85.2284Z" fill="#EDF0F4"/>
<path d="M16.1702 91.3685C16.1607 91.4281 16.1607 91.4888 16.1702 91.5485C16.1942 91.7135 16.2799 91.8634 16.4099 91.9679C16.5399 92.0724 16.7046 92.1238 16.871 92.1117C17.0373 92.0997 17.193 92.0251 17.3066 91.903C17.4202 91.7809 17.4834 91.6203 17.4834 91.4535C17.4834 91.2867 17.4202 91.126 17.3066 91.0039C17.193 90.8818 17.0373 90.8072 16.871 90.7952C16.7046 90.7831 16.5399 90.8345 16.4099 90.939C16.2799 91.0435 16.1942 91.1934 16.1702 91.3585V91.3685Z" fill="#EDF0F4"/>
<path d="M13.7201 85.6283C13.6249 85.6045 13.5259 85.5999 13.4288 85.6147C13.3318 85.6296 13.2387 85.6636 13.1549 85.7148C13.0711 85.766 12.9985 85.8333 12.941 85.9129C12.8835 85.9924 12.8424 86.0827 12.8201 86.1783V86.1783C12.8152 86.2382 12.8152 86.2984 12.8201 86.3583C12.8183 86.5228 12.8728 86.683 12.9747 86.8121C13.0766 86.9413 13.2197 87.0317 13.3801 87.0683C13.5615 87.0933 13.7458 87.0503 13.8973 86.9474C14.0488 86.8445 14.1567 86.689 14.2003 86.5112C14.2438 86.3333 14.2198 86.1456 14.133 85.9843C14.0462 85.8231 13.9026 85.6998 13.7301 85.6383L13.7201 85.6283Z" fill="#EDF0F4"/>
<path d="M12.0599 91.7282C11.962 91.6876 11.8564 91.6686 11.7505 91.6723C11.6445 91.6761 11.5407 91.7026 11.4458 91.75C11.351 91.7974 11.2675 91.8646 11.2009 91.9472C11.1343 92.0297 11.0862 92.1255 11.0599 92.2282C11.0464 92.3043 11.0464 92.3821 11.0599 92.4582C11.0599 92.6334 11.122 92.8029 11.2353 92.9365C11.3485 93.0702 11.5055 93.1593 11.6782 93.1881C11.851 93.2169 12.0284 93.1835 12.1789 93.0938C12.3293 93.0041 12.4431 92.8639 12.4999 92.6982C12.5351 92.6057 12.5517 92.507 12.5486 92.4081C12.5455 92.3091 12.5229 92.2117 12.482 92.1215C12.4411 92.0313 12.3827 91.9502 12.3103 91.8826C12.2378 91.8151 12.1527 91.7626 12.0599 91.7282Z" fill="#EDF0F4"/>
<path d="M14.9303 60.4384C14.7509 60.4625 14.5863 60.5507 14.4668 60.6867C14.3473 60.8227 14.2811 60.9973 14.2803 61.1784C14.2803 61.1784 14.2803 61.1784 14.2803 61.2684C14.3053 61.4615 14.4054 61.6369 14.5589 61.7567C14.7124 61.8765 14.9069 61.931 15.1003 61.9084C15.1968 61.8965 15.29 61.8658 15.3747 61.818C15.4593 61.7701 15.5338 61.706 15.5937 61.6294C15.6536 61.5528 15.6978 61.4652 15.7238 61.3715C15.7498 61.2778 15.7571 61.1799 15.7453 61.0834C15.7335 60.9868 15.7028 60.8936 15.6549 60.8089C15.6071 60.7243 15.543 60.6499 15.4664 60.59C15.3898 60.5301 15.3021 60.4859 15.2084 60.4599C15.1147 60.4338 15.0168 60.4265 14.9203 60.4384H14.9303Z" fill="#EDF0F4"/>
<path d="M11.6899 48.7883C11.6802 48.858 11.6802 48.9286 11.6899 48.9983C11.7165 49.1862 11.8133 49.3571 11.9609 49.4765C12.1085 49.5958 12.2958 49.6548 12.4851 49.6415C12.6745 49.6281 12.8517 49.5435 12.9812 49.4047C13.1106 49.2659 13.1825 49.0831 13.1825 48.8933C13.1825 48.7035 13.1106 48.5208 12.9812 48.3819C12.8517 48.2431 12.6745 48.1585 12.4851 48.1452C12.2958 48.1318 12.1085 48.1908 11.9609 48.3102C11.8133 48.4295 11.7165 48.6004 11.6899 48.7883V48.7883Z" fill="#EDF0F4"/>
<path d="M13.2595 54.9183C13.2546 54.9715 13.2546 55.0251 13.2595 55.0783C13.28 55.2612 13.3697 55.4293 13.5102 55.5481C13.6507 55.6669 13.8314 55.7274 14.0151 55.7172C14.1989 55.707 14.3717 55.6268 14.4982 55.4931C14.6246 55.3594 14.6951 55.1823 14.6951 54.9983C14.6951 54.8143 14.6246 54.6373 14.4982 54.5036C14.3717 54.3699 14.1989 54.2897 14.0151 54.2794C13.8314 54.2692 13.6507 54.3297 13.5102 54.4485C13.3697 54.5673 13.28 54.7354 13.2595 54.9183Z" fill="#EDF0F4"/>
<path d="M14.0598 80.0185C14.0543 80.0549 14.0543 80.092 14.0598 80.1285C14.0613 80.2698 14.1034 80.4077 14.1808 80.5258C14.2583 80.644 14.3679 80.7376 14.4968 80.7954C14.6258 80.8532 14.7686 80.873 14.9083 80.8522C15.0481 80.8315 15.179 80.7711 15.2856 80.6784C15.3922 80.5856 15.47 80.4642 15.5098 80.3286C15.5496 80.193 15.5497 80.0489 15.5102 79.9132C15.4706 79.7775 15.3931 79.656 15.2867 79.563C15.1803 79.4701 15.0495 79.4095 14.9098 79.3885C14.714 79.3625 14.5158 79.4137 14.3571 79.5313C14.1985 79.6489 14.0918 79.8236 14.0598 80.0185V80.0185Z" fill="#EDF0F4"/>
<path d="M14.7495 67.4883C14.7554 67.634 14.8044 67.7748 14.8901 67.8929C14.9758 68.0109 15.0945 68.101 15.2313 68.1518C15.368 68.2025 15.5168 68.2117 15.6588 68.1782C15.8008 68.1447 15.9297 68.07 16.0294 67.9634C16.129 67.8569 16.1949 67.7232 16.2188 67.5793C16.2427 67.4354 16.2236 67.2876 16.1638 67.1545C16.1039 67.0215 16.0061 66.9091 15.8826 66.8314C15.759 66.7538 15.6153 66.7145 15.4694 66.7183C15.3682 66.7192 15.2684 66.7411 15.1761 66.7827C15.0838 66.8243 15.0012 66.8847 14.9335 66.9599C14.8658 67.0351 14.8145 67.1236 14.7828 67.2197C14.7511 67.3159 14.7398 67.4175 14.7495 67.5183V67.4883Z" fill="#EDF0F4"/>
<path d="M14.6602 73.7883C14.6585 73.9353 14.7 74.0796 14.7795 74.2032C14.8591 74.3268 14.9732 74.4243 15.1078 74.4836C15.2423 74.5429 15.3913 74.5613 15.5362 74.5366C15.6812 74.5119 15.8156 74.4451 15.9229 74.3446C16.0302 74.2441 16.1056 74.1143 16.1397 73.9713C16.1738 73.8283 16.1652 73.6784 16.1148 73.5403C16.0644 73.4022 15.9746 73.2819 15.8564 73.1945C15.7383 73.107 15.597 73.0562 15.4502 73.0483C15.3489 73.0415 15.2473 73.0555 15.1517 73.0896C15.056 73.1237 14.9684 73.1771 14.8943 73.2466C14.8202 73.316 14.7612 73.3999 14.7209 73.4931C14.6807 73.5863 14.66 73.6868 14.6602 73.7883V73.7883Z" fill="#EDF0F4"/>
<path d="M141.38 78.3881H71.1898L36.0898 17.5981H106.28L141.38 78.3881Z" stroke="#012340" stroke-linejoin="round"/>
<path d="M141.38 78.3882H71.1898L36.0898 139.178H106.28L141.38 78.3882Z" stroke="#012340" stroke-linejoin="round"/>
<path d="M50.4097 42.3984H91.9697L112.74 78.3884L91.9697 114.368H50.4097L29.6396 78.3884L50.4097 42.3984Z" fill="#FC7F4F"/>
<path d="M36.09 17.5981H106.28L141.38 78.3881L106.28 139.178H36.09L1 78.3881L36.09 17.5981Z" stroke="#012340" stroke-linejoin="round"/>
<path d="M106.279 17.5981L71.1895 78.3881L106.279 139.178L141.379 78.3881L106.279 17.5981Z" stroke="#012340" stroke-linejoin="round"/>
<path d="M71.19 78.3882H1L36.09 139.178H106.28L71.19 78.3882Z" stroke="#012340" stroke-linecap="round" stroke-linejoin="round"/>
</svg>
