<svg width="50" height="50" viewBox="0 0 50 50" fill="none" xmlns="http://www.w3.org/2000/svg">
<path d="M8.8848 20.6485C9.88095 16.9308 12.1354 13.6735 15.2639 11.4316C18.3924 9.18975 22.2015 8.10201 26.0421 8.35374C29.8827 8.60547 33.5172 10.1811 36.3263 12.8121C39.1355 15.4432 40.9454 18.9668 41.4478 22.7828" stroke="#FF7844" stroke-width="5" stroke-linejoin="round"/>
<path d="M8.31816 20.7952L5.90334 21.4423C6.2607 22.7759 7.63154 23.5674 8.9652 23.21L8.31816 20.7952ZM3.75047 13.4077L5.90334 21.4423L10.733 20.1482L8.5801 12.1136L3.75047 13.4077ZM8.9652 23.21L16.9998 21.0572L15.7057 16.2276L7.67111 18.3804L8.9652 23.21Z" fill="#FF7844"/>
<path d="M41.0234 29.2598C40.0273 32.9775 37.7729 36.2348 34.6443 38.4766C31.5158 40.7185 27.7067 41.8063 23.8661 41.5545C20.0255 41.3028 16.391 39.7272 13.5819 37.0961C10.7727 34.4651 8.96279 30.9414 8.46042 27.1255" stroke="#6A5CF7" stroke-width="5" stroke-linejoin="round"/>
<path d="M41.5905 29.113L44.0054 28.466C43.648 27.1323 42.2772 26.3409 40.9435 26.6982L41.5905 29.113ZM46.1582 36.5006L44.0054 28.466L39.1757 29.7601L41.3286 37.7947L46.1582 36.5006ZM40.9435 26.6982L32.9089 28.8511L34.203 33.6807L42.2376 31.5278L40.9435 26.6982Z" fill="#6A5CF7"/>
</svg>
