<svg width="22" height="70" viewBox="0 0 22 70" fill="none" xmlns="http://www.w3.org/2000/svg">
<path d="M13.4824 0L8.41187 2.27016V7.59559H13.4824V0Z" fill="#0593A1"/>
<path d="M15.4336 6.94287H6.47266V14.5385H15.4336V6.94287Z" fill="#DCD3AC"/>
<path d="M21.8943 67.9725C18.4584 69.2439 14.7249 69.902 10.9472 69.902C7.1694 69.902 3.43586 69.2439 0 67.9725V20.6774H21.8943V67.9725Z" fill="#DCD3AC"/>
<path d="M18.5411 14.4061H3.35303V20.6869H18.5411V14.4061Z" fill="#C4B98D"/>
<path opacity="0.1" d="M0 51.9301V68.0104C3.43586 69.2819 7.1694 69.9399 10.9472 69.9399C14.7249 69.9399 18.4584 69.2819 21.8943 68.0104V51.9301H0Z" fill="#1D1D1B"/>
<path d="M15.1297 24.7354H6.76456C5.5515 24.7354 4.56812 25.5315 4.56812 26.5137V60.3486C4.56812 61.3307 5.5515 62.1269 6.76456 62.1269H15.1297C16.3428 62.1269 17.3262 61.3307 17.3262 60.3486V26.5137C17.3262 25.5315 16.3428 24.7354 15.1297 24.7354Z" fill="#0593A1"/>
</svg>
