<svg width="22" height="65" viewBox="0 0 22 65" fill="none" xmlns="http://www.w3.org/2000/svg">
<path d="M13.7813 7.45819H8.21869L0 21.9948L6.33548 30.7633H15.6427L22 21.9948L13.7813 7.45819Z" fill="#FFCB86"/>
<path d="M16.5027 25.9101C16.4397 24.9008 15.8324 23.9478 14.8073 23.2495C13.7823 22.5512 12.4185 22.1615 11 22.1615C9.58154 22.1615 8.21773 22.5512 7.19267 23.2495C6.16762 23.9478 5.56031 24.9008 5.49726 25.9101C5.4973 25.3977 5.35475 24.8905 5.07782 24.4176C4.8009 23.9448 4.3951 23.5157 3.88391 23.1552C3.37272 22.7948 2.76626 22.51 2.0996 22.3175C1.43295 22.125 0.719332 22.0285 0 22.0337V25.9101V65H22V21.9949C21.2761 21.9897 20.5579 22.0874 19.8877 22.2824C19.2174 22.4773 18.6085 22.7655 18.0966 23.1301C17.5847 23.4947 17.18 23.9283 16.9064 24.4057C16.6327 24.883 16.4954 25.3945 16.5027 25.9101Z" fill="#575756"/>
<path d="M0 21.9949V25.8713V65H5.49726V25.9101C5.50454 25.3945 5.36732 24.883 5.09364 24.4057C4.81995 23.9283 4.4153 23.4947 3.90338 23.1301C3.39145 22.7655 2.78254 22.4773 2.11229 22.2824C1.44205 22.0874 0.723936 21.9897 0 21.9949V21.9949Z" fill="#4274D0"/>
<path d="M16.5027 25.9101V65H22V21.9949C21.276 21.9897 20.5579 22.0874 19.8877 22.2824C19.2174 22.4773 18.6085 22.7655 18.0966 23.1301C17.5847 23.4947 17.18 23.9283 16.9063 24.4057C16.6327 24.883 16.4954 25.3945 16.5027 25.9101V25.9101Z" fill="#98BCFF"/>
<path d="M16.5025 25.91C16.4395 24.9007 15.8322 23.9477 14.8071 23.2494C13.7821 22.5511 12.4183 22.1614 10.9998 22.1614C9.58134 22.1614 8.21754 22.5511 7.19248 23.2494C6.16742 23.9477 5.56011 24.9007 5.49707 25.91V64.9999H16.5025V25.91Z" fill="#7AA2EE"/>
<path d="M10.9944 0L8.21851 7.45825H13.7811L10.9944 0Z" fill="#3C3C3B"/>
<path d="M13.6398 50.9053C13.6369 51.4036 13.357 51.8808 12.8612 52.2324C12.3655 52.584 11.6943 52.7814 10.9946 52.7814V52.7814C10.3044 52.7713 9.64709 52.5694 9.16303 52.2189C8.67897 51.8684 8.4065 51.3969 8.40381 50.9053V38.3224C8.4038 37.824 8.681 37.346 9.17472 36.9929C9.66845 36.6399 10.3385 36.4405 11.0382 36.4384V36.4384C11.7397 36.4384 12.4125 36.6369 12.9086 36.9902C13.4047 37.3435 13.6834 37.8227 13.6834 38.3224L13.6398 50.9053Z" fill="#3C3C3B"/>
</svg>
