<svg width="25" height="54" viewBox="0 0 25 54" fill="none" xmlns="http://www.w3.org/2000/svg">
<path d="M17.8087 0.0338135H7.1916C3.21993 0.0338135 0.000244141 2.70272 0.000244141 5.99499V47.2837C0.000244141 50.576 3.21993 53.2449 7.1916 53.2449H17.8087C21.7804 53.2449 25 50.576 25 47.2837V5.99499C25 2.70272 21.7804 0.0338135 17.8087 0.0338135Z" fill="#FC382E"/>
<path d="M0.000205596 26.5493V47.2838C-0.00697001 48.0704 0.17375 48.8504 0.531935 49.5789C0.89012 50.3073 1.41872 50.9698 2.08721 51.5281C2.75571 52.0865 3.5509 52.5296 4.42696 52.832C5.30301 53.1344 6.24259 53.2901 7.19156 53.29H17.8086C18.753 53.29 19.6882 53.1358 20.5607 52.8363C21.4332 52.5367 22.2259 52.0976 22.8937 51.544C23.5615 50.9905 24.0912 50.3334 24.4526 49.6101C24.814 48.8869 25 48.1117 25 47.3289V26.5493H0.000205596Z" fill="#0593A1"/>
<path opacity="0.1" d="M6.30777 49.0529C6.08931 48.4807 5.97926 47.8839 5.98153 47.2837V5.96118C5.98153 4.38018 6.73919 2.86392 8.08782 1.74599C9.43646 0.62805 11.2656 0 13.1728 0H7.19139C5.28413 0 3.45497 0.62805 2.10633 1.74599C0.757695 2.86392 3.41472e-05 4.38018 3.41472e-05 5.96118V47.2837C-0.00222743 47.8839 0.107863 48.4807 0.326324 49.0529C0.778101 50.2581 1.67964 51.3134 2.90113 52.0667C4.12262 52.82 5.60103 53.2326 7.12343 53.2449H13.1049C11.5825 53.2326 10.1041 52.82 8.88258 52.0667C7.66109 51.3134 6.75955 50.2581 6.30777 49.0529V49.0529Z" fill="#1D1D1B"/>
</svg>
