<svg width="86" height="77" viewBox="0 0 86 77" fill="none" xmlns="http://www.w3.org/2000/svg">
<path d="M44.1078 17.0593C21.0598 17.0593 -9.22097 34.8076 2.67622 45.925C15.3417 57.7485 26.8218 43.9702 34.7789 51.2899C40.6945 56.7324 31.4863 62.7001 42.6701 66.7905C56.027 71.6819 84.1237 60.0736 85.2651 45.4772C86.637 27.8237 67.1339 17.0593 44.1078 17.0593ZM55.6648 62.502C51.0442 63.6646 46.3029 62.149 45.0737 59.1263C43.8444 56.1037 46.5883 52.7194 51.2088 51.5655C55.8294 50.4115 60.5707 51.9185 61.8 54.9326C63.0292 57.9466 60.2854 61.3481 55.6648 62.502Z" fill="#CBBBA0"/>
<path d="M17.3722 39.3113C17.3722 40.2429 17.0201 41.1537 16.3604 41.9283C15.7007 42.7029 14.7631 43.3067 13.6661 43.6632C12.5691 44.0197 11.362 44.113 10.1975 43.9313C9.03293 43.7495 7.96321 43.3009 7.12361 42.6421C6.28401 41.9833 5.71224 41.144 5.48059 40.2303C5.24895 39.3165 5.36784 38.3694 5.82222 37.5087C6.27661 36.648 7.04609 35.9123 8.03336 35.3947C9.02062 34.8771 10.1813 34.6008 11.3687 34.6008C12.1571 34.6008 12.9378 34.7227 13.6661 34.9594C14.3945 35.1961 15.0563 35.5431 15.6138 35.9805C16.1713 36.4179 16.6135 36.9372 16.9152 37.5087C17.2169 38.0802 17.3722 38.6927 17.3722 39.3113V39.3113Z" fill="#DF4937"/>
<path d="M29.9828 28.8914C29.9849 29.8234 29.6347 30.735 28.9763 31.5108C28.318 32.2865 27.3811 32.8916 26.2843 33.2495C25.1875 33.6073 23.9801 33.7018 22.8148 33.5211C21.6495 33.3403 20.5788 32.8923 19.7381 32.2339C18.8974 31.5755 18.3245 30.7362 18.092 29.8222C17.8595 28.9082 17.9777 27.9607 18.4318 27.0994C18.8858 26.2382 19.6553 25.502 20.6428 24.984C21.6303 24.4661 22.7915 24.1896 23.9793 24.1896C25.5696 24.1896 27.095 24.6847 28.2205 25.5662C29.3461 26.4477 29.9799 27.6436 29.9828 28.8914V28.8914Z" fill="#0593A1"/>
<path d="M48.6627 24.9043C48.6627 25.8363 48.3103 26.7474 47.6502 27.5222C46.99 28.297 46.0517 28.9008 44.9541 29.2571C43.8565 29.6133 42.6488 29.7061 41.484 29.5237C40.3191 29.3412 39.2494 28.8917 38.4103 28.2321C37.5711 27.5724 37.0002 26.7323 36.7698 25.818C36.5394 24.9037 36.6598 23.9563 37.1159 23.0957C37.572 22.2352 38.3432 21.5001 39.3319 20.9835C40.3206 20.467 41.4824 20.1922 42.6702 20.1939C43.4581 20.1939 44.2382 20.3158 44.966 20.5526C45.6937 20.7894 46.3548 21.1365 46.9114 21.574C47.468 22.0116 47.9092 22.5309 48.2097 23.1024C48.5102 23.6738 48.6641 24.2861 48.6627 24.9043V24.9043Z" fill="#FDD303"/>
<path d="M66.8048 27.3414C66.807 28.2734 66.4567 29.185 65.7984 29.9607C65.14 30.7365 64.2032 31.3416 63.1064 31.6994C62.0096 32.0573 60.8021 32.1518 59.6368 31.971C58.4716 31.7902 57.4008 31.3423 56.5601 30.6839C55.7194 30.0254 55.1466 29.1861 54.914 28.2721C54.6815 27.3582 54.7997 26.4106 55.2538 25.5494C55.7079 24.6881 56.4773 23.952 57.4648 23.434C58.4523 22.916 59.6135 22.6395 60.8013 22.6395C62.3916 22.6395 63.917 23.1346 65.0425 24.0161C66.1681 24.8977 66.8019 26.0936 66.8048 27.3414V27.3414Z" fill="#F89F26"/>
<path d="M74.18 41.4556C77.4896 41.4556 80.1725 39.3505 80.1725 36.7537C80.1725 34.157 77.4896 32.0519 74.18 32.0519C70.8704 32.0519 68.1875 34.157 68.1875 36.7537C68.1875 39.3505 70.8704 41.4556 74.18 41.4556Z" fill="#485678"/>
<path d="M72.5118 55.8626C75.8213 55.8626 78.5043 53.7575 78.5043 51.1607C78.5043 48.564 75.8213 46.4589 72.5118 46.4589C69.2022 46.4589 66.5193 48.564 66.5193 51.1607C66.5193 53.7575 69.2022 55.8626 72.5118 55.8626Z" fill="#00A683"/>
<path opacity="0.5" d="M68.989 52.7281C68.8338 52.2175 68.8085 51.6879 68.9143 51.1696C69.0201 50.6513 69.255 50.1545 69.6056 49.7074C69.9562 49.2604 70.4156 48.8719 70.9577 48.5642C71.4997 48.2566 72.1136 48.0357 72.7645 47.9143C73.7681 47.7243 74.8219 47.7814 75.7827 48.0779C75.2283 47.6839 74.5702 47.3906 73.8551 47.2188C73.14 47.047 72.3854 47.0009 71.645 47.0837C70.9046 47.1666 70.1966 47.3764 69.5712 47.6982C68.9458 48.02 68.4184 48.446 68.0265 48.9458C67.6347 49.4456 67.3879 50.007 67.3038 50.5901C67.2197 51.1732 67.3003 51.7636 67.5399 52.3195C67.7795 52.8754 68.1722 53.3831 68.6901 53.8064C69.208 54.2298 69.8384 54.5584 70.5365 54.769C69.764 54.2307 69.2233 53.5176 68.989 52.7281V52.7281Z" fill="white"/>
<path opacity="0.5" d="M70.9972 38.5794C70.78 37.8702 70.8143 37.128 71.0964 36.4331C71.3785 35.7381 71.8976 35.1171 72.5975 34.6371C73.2973 34.1572 74.1513 33.8367 75.0668 33.7104C75.9822 33.5841 76.9243 33.6567 77.7908 33.9206C77.2354 33.5286 76.5769 33.2373 75.8619 33.0673C75.147 32.8973 74.3931 32.8529 73.6538 32.9371C72.9145 33.0213 72.2078 33.232 71.5839 33.5545C70.9601 33.8769 70.4342 34.3031 70.0438 34.8028C69.6533 35.3025 69.4077 35.8635 69.3244 36.4461C69.2412 37.0286 69.3223 37.6183 69.562 38.1735C69.8017 38.7286 70.1942 39.2356 70.7115 39.6585C71.2289 40.0813 71.8585 40.4097 72.5557 40.6203C71.7841 40.0799 71.2405 39.3681 70.9972 38.5794V38.5794Z" fill="white"/>
<path opacity="0.5" d="M57.4539 28.8226C57.2972 28.3114 57.2705 27.781 57.3756 27.2617C57.4806 26.7424 57.7152 26.2445 58.0659 25.7965C58.4167 25.3485 58.8767 24.9592 59.4195 24.651C59.9624 24.3427 60.5774 24.1216 61.2294 24.0002C62.233 23.8102 63.2868 23.8674 64.2476 24.1638C63.4402 23.5921 62.4208 23.2382 61.3386 23.1539C60.2564 23.0697 59.1682 23.2594 58.2334 23.6955C57.2985 24.1315 56.5662 24.791 56.1435 25.5772C55.7208 26.3634 55.6301 27.2352 55.8845 28.0648C56.0779 28.6939 56.4623 29.277 57.0051 29.7644C57.5478 30.2517 58.2328 30.6288 59.0014 30.8635C58.2366 30.3203 57.6974 29.6092 57.4539 28.8226V28.8226Z" fill="white"/>
<path opacity="0.5" d="M39.7616 26.6955C39.448 25.6655 39.6683 24.58 40.3742 23.6774C41.08 22.7747 42.2137 22.1289 43.5261 21.8817C44.5297 21.6918 45.5835 21.7489 46.5443 22.0454C45.9901 21.6498 45.3314 21.3551 44.6154 21.1822C43.8993 21.0093 43.1434 20.9625 42.4017 21.0452C41.6599 21.1278 40.9505 21.3379 40.3241 21.6604C39.6977 21.9828 39.1697 22.4098 38.7777 22.9107C38.3857 23.4117 38.1395 23.9744 38.0565 24.5586C37.9735 25.1428 38.0558 25.7342 38.2976 26.2906C38.5393 26.847 38.9346 27.3547 39.4552 27.7775C39.9757 28.2002 40.6087 28.5277 41.3091 28.7365C40.5326 28.2007 39.9911 27.4866 39.7616 26.6955V26.6955Z" fill="white"/>
<path opacity="0.5" d="M20.939 30.717C20.6255 29.6847 20.847 28.597 21.5549 27.6928C22.2628 26.7886 23.3992 26.1418 24.7145 25.8946C25.7181 25.7046 26.7719 25.7618 27.7327 26.0582C26.9254 25.4865 25.9059 25.1326 24.8237 25.0483C23.7415 24.9641 22.6533 25.1539 21.7185 25.5899C20.7837 26.026 20.0513 26.6854 19.6286 27.4716C19.2059 28.2578 19.1152 29.1296 19.3696 29.9592C19.5693 30.582 19.9566 31.1582 20.499 31.6392C21.0414 32.1202 21.723 32.4921 22.4865 32.7235C21.7291 32.1895 21.1906 31.4912 20.939 30.717V30.717Z" fill="white"/>
<path opacity="0.5" d="M8.36146 41.1283C8.14831 40.4197 8.18545 39.6789 8.46889 38.9856C8.75232 38.2922 9.27131 37.6727 9.97003 37.1935C10.6688 36.7144 11.5208 36.3938 12.4344 36.2662C13.348 36.1386 14.2887 36.2089 15.1551 36.4695C14.5993 36.0844 13.943 35.7992 13.2321 35.6338C12.5211 35.4684 11.7728 35.4269 11.0392 35.512C10.3057 35.5971 9.6047 35.8069 8.98524 36.1267C8.36579 36.4465 7.84282 36.8686 7.45288 37.3635C7.06294 37.8584 6.81545 38.4141 6.72769 38.9918C6.63993 39.5695 6.71402 40.1553 6.9448 40.7083C7.17557 41.2612 7.55745 41.7679 8.06375 42.193C8.57006 42.618 9.18856 42.9512 9.87604 43.1693C9.12008 42.6246 8.59205 41.9131 8.36146 41.1283V41.1283Z" fill="white"/>
<path d="M71.1289 15.957C70.5139 15.127 70.1347 14.2025 70.0172 13.2468C69.8998 12.2911 70.0469 11.3268 70.4484 10.4199C71.2716 8.60093 72.7418 7.00512 74.6849 5.82135C75.3287 5.44555 75.9341 5.03094 76.4958 4.5813C77.1889 3.96544 77.6429 3.20685 77.8043 2.39508C77.9658 1.58331 77.8278 0.752245 77.4068 0C78.8652 0.912479 79.8329 2.22201 80.1176 3.66849C80.3881 5.09588 80.3881 6.54682 80.1176 7.97422C79.9629 9.89972 79.3015 11.7792 78.175 13.4942C77.5988 14.3466 76.7511 15.0675 75.7144 15.5866C74.6777 16.1058 73.4874 16.4054 72.2593 16.4565C72.0322 16.4665 71.8056 16.431 71.6008 16.3532C71.4054 16.2527 71.2435 16.1168 71.1289 15.957Z" fill="#3C3C3B"/>
<path d="M71.9302 14.5878L71.7436 14.0969C71.5821 13.6606 71.5044 13.2078 71.5131 12.7535C71.5131 12.4694 71.5899 12.168 71.6338 11.8407C71.7359 11.5057 71.8604 11.1751 72.007 10.8504C72.1883 10.5114 72.4011 10.1833 72.6436 9.8687C72.8876 9.54487 73.159 9.23416 73.4557 8.93866C74.5742 7.92226 75.7574 6.9508 77.0007 6.02798C77.2003 5.84575 77.3836 5.65297 77.5495 5.45101C77.6806 5.30072 77.7703 5.1306 77.8129 4.95155C77.8455 4.83235 77.8455 4.70907 77.8129 4.58987V4.46069V4.58125C77.8129 4.66737 77.9666 4.78793 77.9227 4.96016C77.9249 5.16169 77.8726 5.3613 77.769 5.54574C77.6527 5.79232 77.4979 6.02662 77.308 6.24327C76.4959 7.17331 75.113 8.20668 74.0155 9.33478C73.7326 9.60849 73.4723 9.89613 73.2362 10.1959C72.9728 10.4887 72.7972 10.7987 72.5887 11.0571C72.3801 11.3154 72.2704 11.6513 72.1387 11.9182C72.007 12.1852 71.9521 12.4952 71.8972 12.7794C71.8424 13.0635 71.8972 13.2788 71.8094 13.5027C71.7967 13.6949 71.7967 13.8875 71.8094 14.0797C71.9192 14.3983 71.9302 14.5878 71.9302 14.5878Z" fill="#575756"/>
<path d="M78.4823 6.47583C78.4823 6.47583 78.4823 6.63945 78.5482 6.92363C78.5196 7.10722 78.4719 7.28867 78.4055 7.46615C78.303 7.68673 78.1627 7.89533 77.9884 8.08617C77.2421 8.94732 75.958 9.80847 74.9702 10.7816C74.7166 11.0257 74.4821 11.2816 74.2678 11.548C74.0715 11.8047 73.8921 12.0692 73.73 12.3402C73.4308 12.8279 73.2096 13.3428 73.0715 13.8731C72.9616 14.2558 72.8883 14.6444 72.852 15.0356C72.852 15.3198 72.7861 15.4834 72.7861 15.4834L72.6983 15.0356C72.6148 14.6373 72.5927 14.2325 72.6325 13.83C72.669 13.2412 72.8207 12.6603 73.0825 12.1077C73.2302 11.8092 73.4101 11.5211 73.6203 11.2466C73.8403 10.9488 74.0822 10.6613 74.3446 10.3854C75.382 9.49462 76.4811 8.64942 77.6372 7.85366C77.8265 7.69996 77.9922 7.52944 78.1311 7.34559C78.2408 7.20184 78.3292 7.0487 78.3945 6.88918L78.4823 6.47583Z" fill="#575756"/>
<path d="M77.7799 9.89453L77.6482 10.1615C77.5303 10.3849 77.4349 10.6153 77.3629 10.8504C77.1683 11.5874 76.9191 12.3149 76.6165 13.0291C76.5143 13.2298 76.3894 13.4228 76.2434 13.6061C76.1169 13.7966 75.954 13.9708 75.7605 14.1228C75.5995 14.2707 75.4108 14.3984 75.2007 14.5017C75.0206 14.6103 74.8255 14.7027 74.619 14.7772C74.2074 14.9265 73.7651 15.0169 73.313 15.0442L73.6313 14.8892C73.9024 14.7772 74.1565 14.6415 74.3886 14.4844C74.5434 14.395 74.6835 14.2909 74.8056 14.1744C74.9631 14.0519 75.103 13.9162 75.2227 13.7697C75.3662 13.6294 75.4878 13.4762 75.5849 13.3133C75.7057 13.1494 75.805 12.9763 75.8812 12.7966C76.0788 12.4435 76.2324 12.056 76.397 11.6943C76.5558 11.3578 76.7428 11.0298 76.9568 10.7126C77.1094 10.4861 77.3014 10.2775 77.5275 10.0926C77.6811 9.96342 77.7799 9.89453 77.7799 9.89453Z" fill="#575756"/>
<path d="M44.7775 76.2976L44.8698 75.8062C44.681 75.7707 44.5094 75.7055 44.365 75.6189C44.2206 75.5323 44.1105 75.4287 44.035 75.3203C43.9599 75.2127 43.9199 75.1022 43.9087 74.9963C43.8975 74.8908 43.9139 74.782 43.9615 74.6744L43.5043 74.4719L43.9664 74.663L61.6563 31.8779C61.6566 31.8772 61.6569 31.8764 61.6572 31.8757C61.6958 31.7865 61.7621 31.6945 61.8612 31.61C61.9614 31.5247 62.0903 31.4511 62.2427 31.3997C62.3949 31.3484 62.5624 31.3219 62.7335 31.3238C62.9045 31.3258 63.0706 31.3561 63.2201 31.4107L63.2411 31.4183L63.2627 31.4241L67.2313 32.4821C67.3822 32.5256 67.5117 32.5922 67.6132 32.6718C67.7154 32.7519 67.7837 32.8404 67.8234 32.9257C67.8625 33.0099 67.8754 33.0935 67.8665 33.1736C67.8577 33.2541 67.8257 33.3407 67.7626 33.4267L67.7387 33.4593L67.7204 33.4953L46.4393 75.2092L46.4392 75.2091L46.4336 75.2207C46.3424 75.4115 46.1477 75.6001 45.8522 75.7209C45.5574 75.8413 45.2077 75.8743 44.8763 75.8074L44.7775 76.2976Z" fill="#FFCB86" stroke="#E8A246"/>
<path d="M60.6475 32.3877L70.3825 14.7169C70.8323 15.3181 71.5372 15.7761 72.3739 16.0106C73.2106 16.2452 74.1257 16.2414 74.9592 16L68.0448 34.6352C66.7278 36.0647 60.2524 34.7903 60.6475 32.3877Z" fill="#C6C6C6"/>
<path d="M71.5571 16.4995C71.0601 16.3544 70.6468 16.073 70.3937 15.7073L61.3721 32.4049C61.4568 32.8197 61.6974 33.2052 62.063 33.512C62.4286 33.8188 62.9027 34.0331 63.4244 34.1272L71.5571 16.4995Z" fill="#F6F6F6"/>
<path d="M57.838 0.404707L56.949 8.87839C56.3744 9.04797 55.7619 9.12397 55.1486 9.10176C54.5354 9.07956 53.9343 8.9596 53.3821 8.74922L53.4918 0.241089L57.838 0.404707Z" fill="#A48A7B"/>
<path d="M55.5177 24.0603C56.2185 24.0603 56.5333 24.4962 56.5333 25.0207L52.3285 74.5183C52.3404 74.8589 52.1903 75.192 51.9034 75.4612C51.6165 75.7305 51.2105 75.9193 50.7542 75.9959C49.7995 76.0624 49.0276 75.3162 49.0682 74.4001L51.3941 24.7917C51.3979 24.683 51.4317 24.576 51.4934 24.477C51.5551 24.378 51.6436 24.289 51.7534 24.2153C51.8633 24.1416 51.9923 24.0847 52.133 24.0479C52.2736 24.0111 52.423 23.9953 52.5722 24.0012L55.5177 24.0603Z" fill="#FFCB86"/>
<path d="M55.5177 24.0603C56.2185 24.0603 56.5333 24.4962 56.5333 25.0207L52.3285 74.5183C52.3404 74.8589 52.1903 75.192 51.9034 75.4612C51.6165 75.7305 51.2105 75.9193 50.7542 75.9959C49.7995 76.0624 49.0276 75.3162 49.0682 74.4001L51.3941 24.7917C51.3979 24.683 51.4317 24.576 51.4934 24.477C51.5551 24.378 51.6436 24.289 51.7534 24.2153C51.8633 24.1416 51.9923 24.0847 52.133 24.0479C52.2736 24.0111 52.423 23.9953 52.5722 24.0012L55.5177 24.0603Z" fill="#E8A246"/>
<path d="M56.949 8.87831V26.9021C56.3124 27.9699 51.4613 28.3833 51.1431 26.549L53.3381 8.76636C54.5191 8.99823 55.7484 9.03634 56.949 8.87831V8.87831Z" fill="#C6C6C6"/>
<path d="M54.721 9.47264C54.3618 9.51647 53.9946 9.45517 53.6893 9.30042L51.8455 26.1789C52.1967 26.8678 52.8223 26.9539 53.6893 26.9453L54.721 9.47264Z" fill="#F6F6F6"/>
<path d="M54.5782 7.39733L54.3478 7.13898C54.1541 6.87264 54.0239 6.58082 53.9636 6.27784C53.8631 5.29536 53.8337 4.30919 53.8758 3.32411C53.7417 2.33745 53.7086 1.34395 53.777 0.353149C53.7807 0.321638 53.7807 0.289934 53.777 0.258423H54.1612C54.1667 0.289848 54.1667 0.321724 54.1612 0.353149C54.1612 1.10235 54.5892 2.07544 54.6441 3.28966C54.5982 4.27512 54.4883 5.2581 54.3148 6.23478C54.2926 6.52409 54.3259 6.81438 54.4136 7.09593C54.5234 7.24232 54.5673 7.35427 54.5782 7.39733Z" fill="#7C6255"/>
<path d="M57.2782 3.68579C57.2465 3.9594 57.1841 4.23028 57.0916 4.49527C56.9819 4.73639 56.8831 4.9689 56.7843 5.20141C56.5739 5.55705 56.4014 5.92572 56.2685 6.30367C56.1905 6.56012 56.1682 6.82506 56.2026 7.08732C56.2026 7.2251 56.2026 7.31983 56.2685 7.36288C55.9933 7.03965 55.8516 6.65783 55.8624 6.26923C55.8787 5.84629 55.9635 5.4267 56.1148 5.02056C56.1917 4.80528 56.2575 4.58138 56.3234 4.34887C56.3849 4.11283 56.4289 3.87417 56.4551 3.63412C56.5209 2.6438 56.4551 1.6707 56.4551 0.973175V0.353149H56.6636C56.6636 0.516767 56.7624 0.723443 56.8172 0.947341C57.1117 1.84214 57.2665 2.76169 57.2782 3.68579V3.68579Z" fill="#7C6255"/>
<path d="M61.9975 57.2662C61.6442 58.5068 60.8687 59.6489 59.7535 60.5709C58.6383 61.4929 57.2252 62.1603 55.6648 62.502C51.0442 63.6646 46.3029 62.1489 45.0737 59.1263C44.8307 58.5259 44.7375 57.8943 44.7993 57.2662H36.941C36.6996 60.7883 35.5142 64.1554 42.6701 66.7905C52.0759 70.2351 68.8132 65.4816 78.2739 57.2662H61.9975Z" fill="#CBBBA0"/>
</svg>
