<svg width="96" height="94" viewBox="0 0 96 94" fill="none" xmlns="http://www.w3.org/2000/svg">
<path d="M10 1.09302V94" stroke="#6A5CF7" stroke-opacity="0.2"/>
<path d="M19.5 0V92.907" stroke="#6A5CF7" stroke-opacity="0.2"/>
<path d="M29 0V92.907" stroke="#6A5CF7" stroke-opacity="0.2"/>
<path d="M38.5 0V92.907" stroke="#6A5CF7" stroke-opacity="0.2"/>
<path d="M48 0V92.907" stroke="#6A5CF7" stroke-opacity="0.2"/>
<path d="M57.5 0V92.907" stroke="#6A5CF7" stroke-opacity="0.2"/>
<path d="M67 0V92.907" stroke="#6A5CF7" stroke-opacity="0.2"/>
<path d="M85 0V92.907" stroke="#6A5CF7" stroke-opacity="0.2"/>
<path d="M76 0V92.907" stroke="#6A5CF7" stroke-opacity="0.2"/>
<path d="M1.11633 76H96" stroke="#6A5CF7" stroke-opacity="0.2"/>
<path d="M0 66.5H94.8837" stroke="#6A5CF7" stroke-opacity="0.2"/>
<path d="M0 85H94.8837" stroke="#6A5CF7" stroke-opacity="0.2"/>
<path d="M0 57L94.8837 57" stroke="#6A5CF7" stroke-opacity="0.2"/>
<path d="M0 47.5L94.8837 47.5" stroke="#6A5CF7" stroke-opacity="0.2"/>
<path d="M0 38L94.8837 38" stroke="#6A5CF7" stroke-opacity="0.2"/>
<path d="M0 28.5L94.8837 28.5" stroke="#6A5CF7" stroke-opacity="0.2"/>
<path d="M0 19L94.8837 19" stroke="#6A5CF7" stroke-opacity="0.2"/>
<path d="M0 10L94.8837 10" stroke="#6A5CF7" stroke-opacity="0.2"/>
<path d="M46.5 8L46.5 85" stroke="#283D93" stroke-width="3"/>
<rect x="57.5" y="28.5" width="27" height="35" stroke="#27A37E" stroke-width="3"/>
<rect x="10.5" y="28.5" width="27" height="35" stroke="#27A37E" stroke-width="3"/>
</svg>
