<svg width="96" height="94" viewBox="0 0 96 94" fill="none" xmlns="http://www.w3.org/2000/svg">
<path d="M10 1.09302V94" stroke="#6A5CF7" stroke-opacity="0.2"/>
<path d="M19.5 0V92.907" stroke="#6A5CF7" stroke-opacity="0.2"/>
<path d="M29 0V92.907" stroke="#6A5CF7" stroke-opacity="0.2"/>
<path d="M38.5 0V92.907" stroke="#6A5CF7" stroke-opacity="0.2"/>
<path d="M48 0V92.907" stroke="#6A5CF7" stroke-opacity="0.2"/>
<path d="M57.5 0V92.907" stroke="#6A5CF7" stroke-opacity="0.2"/>
<path d="M67 0V92.907" stroke="#6A5CF7" stroke-opacity="0.2"/>
<path d="M85 0V92.907" stroke="#6A5CF7" stroke-opacity="0.2"/>
<path d="M76 0V92.907" stroke="#6A5CF7" stroke-opacity="0.2"/>
<path d="M1.11633 76H96" stroke="#6A5CF7" stroke-opacity="0.2"/>
<path d="M0 66.5H94.8837" stroke="#6A5CF7" stroke-opacity="0.2"/>
<path d="M0 85H94.8837" stroke="#6A5CF7" stroke-opacity="0.2"/>
<path d="M0 57L94.8837 57" stroke="#6A5CF7" stroke-opacity="0.2"/>
<path d="M0 47.5L94.8837 47.5" stroke="#6A5CF7" stroke-opacity="0.2"/>
<path d="M0 38L94.8837 38" stroke="#6A5CF7" stroke-opacity="0.2"/>
<path d="M0 28.5L94.8837 28.5" stroke="#6A5CF7" stroke-opacity="0.2"/>
<path d="M0 19L94.8837 19" stroke="#6A5CF7" stroke-opacity="0.2"/>
<path d="M0 10L94.8837 10" stroke="#6A5CF7" stroke-opacity="0.2"/>
<circle cx="48" cy="47" r="5" fill="#D70F0F"/>
<path d="M10.7417 63.5558L21 57.1775L31.2583 63.5558V76.4442L21 82.8225L10.7417 76.4442V63.5558Z" stroke="#283D93" stroke-width="2"/>
<path d="M66.7417 16.5558L77 10.1775L87.2583 16.5558V29.4442L77 35.8225L66.7417 29.4442V16.5558Z" stroke="#283D93" stroke-width="2"/>
</svg>
