<svg width="158" height="183" viewBox="0 0 158 183" fill="none" xmlns="http://www.w3.org/2000/svg">
<path d="M157.774 184.462H0.333984C0.333984 184.462 1.7654 163.178 7.03421 153.764C10.765 147.089 29.952 135.722 51.8343 129.708C60.7108 127.165 69.8666 125.81 79.0768 125.678C88.4242 125.814 97.7149 127.206 106.715 129.819C128.445 135.864 147.419 147.136 151.119 153.764C156.388 163.194 157.774 184.462 157.774 184.462Z" fill="#362549"/>
<path d="M59.57 184.462H0.333984C0.333984 184.462 1.7654 163.178 7.03421 153.764C10.3539 147.828 25.871 138.194 44.6621 131.897C47.0071 131.109 49.4131 130.322 51.8343 129.708C57.5964 147.325 60.2175 165.877 59.57 184.462Z" fill="#F2B583"/>
<path d="M157.774 184.462H99.2237C98.9263 165.954 101.455 147.513 106.716 129.819C111.082 131.016 115.386 132.44 119.614 134.085C135.572 140.256 148.166 148.458 151.12 153.732C156.389 163.194 157.774 184.462 157.774 184.462Z" fill="#F2B583"/>
<path d="M59.5694 184.462H47.1283C46.3517 181.991 45.6056 179.503 44.768 177.032C44.0751 175.518 43.9769 173.785 44.4939 172.198C45.5903 169.994 48.9557 169.428 49.3973 166.988L40.8545 165.209C43.2763 154.278 44.5526 143.11 44.6614 131.897C47.0065 131.109 49.4125 130.322 51.8337 129.708C57.5958 147.325 60.2169 165.877 59.5694 184.462Z" fill="#FFCB99"/>
<path d="M119.614 134.085C119.492 143.048 119.365 152.016 119.233 160.99C119.31 162.121 119.105 163.254 118.639 164.28C117.68 165.965 115.594 166.421 113.69 166.704L117.375 169.475C115.868 174.357 114.813 179.375 114.223 184.462H99.2237C98.9263 165.954 101.455 147.513 106.716 129.819C111.082 131.016 115.386 132.44 119.614 134.085Z" fill="#FFCB99"/>
<path d="M94.0459 157.888C90.5811 161.633 86.5422 164.76 82.092 167.145C80.8263 167.837 79.5249 168.457 78.1937 169.003C77.7826 169.176 77.9653 169.869 78.3917 169.695C83.117 167.725 87.4993 164.971 91.3658 161.541C92.4774 160.549 93.5281 159.51 94.5484 158.392C94.8529 158.046 94.3656 157.542 94.0459 157.872V157.888Z" fill="#583D71"/>
<path d="M95.3402 161.619C89.3703 169.68 81.2664 175.778 72.0112 179.172C71.5849 179.314 71.7676 180.022 72.194 179.865C79.5277 177.191 86.1846 172.843 91.6703 167.145C93.2014 165.536 94.6307 163.827 95.9493 162.028C96.2234 161.666 95.6143 161.304 95.3554 161.666L95.3402 161.619Z" fill="#583D71"/>
<path d="M129.847 54.5989C129.847 84.2428 106.122 90.9335 77.9814 90.9335C49.8405 90.9335 27.9277 84.2428 27.9277 54.5989C27.9277 24.955 50.7694 0.931396 78.8951 0.931396C107.021 0.931396 129.847 24.955 129.847 54.5989Z" fill="#3D2614"/>
<path d="M112.091 27.4897C105.285 16.6743 92.2191 13.022 79.0319 13.022C65.8446 13.022 52.7792 16.6743 45.9571 27.4897C32.1151 49.4353 37.8255 92.6968 56.0075 107.149C62.6928 112.163 70.774 114.793 79.0319 114.642C87.2846 114.789 95.3599 112.159 102.041 107.149C120.284 92.6968 125.994 49.4353 112.091 27.4897Z" fill="#F2A261"/>
<path d="M38.5553 69.2247C44.5966 58.4735 47.3169 46.0709 46.3519 33.6773C56.429 36.885 67.3059 36.0416 76.8075 31.3159C81.0103 29.2063 85.3502 26.2624 89.9338 27.1597C92.8119 27.7264 95.1874 29.7258 97.6695 31.3316C100.152 32.9374 103.243 34.1653 105.969 33.0633C106.561 39.5491 107.738 45.9635 109.486 52.2224C111.27 58.4562 114.704 64.0507 119.4 68.3747C121.562 58.1575 123.1 47.5625 121.059 37.3139C119.019 27.0653 113.263 17.2102 104.309 12.3929C98.1111 9.07116 90.9236 8.34699 83.9493 8.40996C74.2495 8.2107 64.6246 10.204 55.7474 14.2506C47.0524 18.5326 39.4689 25.7901 35.9513 35.0627C31.8094 46.067 33.4083 58.677 38.5553 69.2247Z" fill="#3D2614"/>
<path d="M97.8674 65.1307C97.8674 65.9514 97.6324 66.7537 97.192 67.4364C96.7516 68.1192 96.1255 68.6519 95.3927 68.9674C94.6599 69.2828 93.8531 69.3669 93.0741 69.2091C92.2951 69.0513 91.5788 68.6586 91.0154 68.0805C90.4519 67.5024 90.0667 66.7648 89.9081 65.9607C89.7496 65.1566 89.8249 64.3219 90.1245 63.5619C90.4241 62.802 90.9346 62.1507 91.5917 61.6903C92.2488 61.2299 93.023 60.9808 93.8168 60.9746C94.3473 60.9705 94.8734 61.0749 95.3646 61.2819C95.8559 61.4889 96.3027 61.7944 96.6792 62.1807C97.0557 62.5671 97.3546 63.0267 97.5585 63.533C97.7625 64.0393 97.8674 64.5823 97.8674 65.1307Z" fill="black"/>
<path d="M93.5281 63.7458C93.528 63.9924 93.4571 64.2335 93.3242 64.4383C93.1913 64.6432 93.0025 64.8026 92.7818 64.8962C92.5611 64.9899 92.3185 65.0135 92.0847 64.9643C91.851 64.915 91.6366 64.795 91.469 64.6194C91.3014 64.4439 91.188 64.2209 91.1434 63.9786C91.0987 63.7363 91.1247 63.4858 91.2181 63.2588C91.3115 63.0318 91.468 62.8387 91.6678 62.704C91.8677 62.5692 92.1017 62.4989 92.3403 62.5021C92.4976 62.502 92.6533 62.5343 92.7984 62.597C92.9435 62.6597 93.0751 62.7516 93.1856 62.8673C93.2961 62.983 93.3833 63.1202 93.4421 63.271C93.5008 63.4218 93.5301 63.5832 93.5281 63.7458Z" fill="white"/>
<path d="M68.3401 65.1306C68.3401 65.9526 68.1043 66.7562 67.6626 67.4397C67.2208 68.1231 66.593 68.6558 65.8584 68.9704C65.1238 69.285 64.3155 69.3673 63.5356 69.2069C62.7558 69.0465 62.0395 68.6507 61.4773 68.0695C60.915 67.4882 60.5322 66.7476 60.3771 65.9414C60.2219 65.1352 60.3015 64.2996 60.6058 63.5402C60.9101 62.7807 61.4254 62.1316 62.0865 61.6749C62.7476 61.2182 63.5248 60.9745 64.3199 60.9745C65.3861 60.9745 66.4087 61.4124 67.1626 62.1918C67.9165 62.9712 68.3401 64.0284 68.3401 65.1306Z" fill="black"/>
<path d="M64.0163 63.7457C64.0163 63.9917 63.9458 64.2322 63.8136 64.4367C63.6814 64.6412 63.4935 64.8006 63.2737 64.8947C63.0539 64.9889 62.812 65.0135 62.5787 64.9655C62.3453 64.9175 62.1309 64.799 61.9627 64.6251C61.7945 64.4512 61.6799 64.2296 61.6335 63.9884C61.5871 63.7471 61.6109 63.497 61.7019 63.2698C61.793 63.0425 61.9472 62.8483 62.145 62.7117C62.3428 62.575 62.5754 62.5021 62.8133 62.5021C62.9719 62.4999 63.1292 62.5307 63.2761 62.5924C63.423 62.6542 63.5564 62.7457 63.6685 62.8616C63.7807 62.9775 63.8692 63.1154 63.9289 63.2673C63.9887 63.4191 64.0184 63.5818 64.0163 63.7457Z" fill="white"/>
<path d="M75.5443 79.6936C75.4106 79.6955 75.28 79.6518 75.1726 79.5693C75.0653 79.4868 74.9872 79.37 74.9505 79.237C73.7779 75.0494 75.1484 73.6325 76.4732 73.176C77.3214 72.9805 78.2005 72.9778 79.0497 73.1681C79.8989 73.3583 80.6981 73.7371 81.3918 74.278C81.5311 74.3717 81.6296 74.5178 81.6666 74.6852C81.7035 74.8527 81.676 75.0285 81.5898 75.1753C81.4971 75.3122 81.3588 75.4089 81.2013 75.4467C81.0439 75.4845 80.8785 75.4607 80.737 75.38C80.194 74.941 79.5673 74.6256 78.8981 74.4547C78.2289 74.2838 77.5322 74.2611 76.8539 74.3882C75.6357 74.7975 75.3312 76.3088 76.0925 78.8749C76.1158 78.9566 76.1233 79.0422 76.1144 79.1269C76.1056 79.2115 76.0806 79.2935 76.041 79.3681C76.0013 79.4427 75.9478 79.5085 75.8835 79.5617C75.8192 79.6148 75.7453 79.6543 75.6662 79.6778L75.5443 79.6936Z" fill="#C16B5B"/>
<path d="M87.3155 85.2818C85.5972 86.9078 83.4904 88.0304 81.2125 88.5341C78.9346 89.0377 76.568 88.9041 74.3567 88.1471C73.0623 87.7063 72.4989 89.8158 73.7933 90.2566C76.3654 91.1133 79.1117 91.247 81.7503 90.6439C84.389 90.0408 86.8248 88.7226 88.8078 86.8247C89.8129 85.8014 88.3206 84.2585 87.3155 85.2818Z" fill="#C16B5B"/>
<path d="M102.953 51.1506C100.714 49.7595 98.2125 48.8809 95.6172 48.574C93.0219 48.2671 90.3931 48.5391 87.908 49.3716C87.463 49.5075 87.0861 49.816 86.8562 50.2327C86.6263 50.6494 86.5612 51.1419 86.6746 51.6071C86.7992 52.0717 87.0965 52.4665 87.5016 52.7054C87.9066 52.9443 88.3867 53.0079 88.8369 52.8823C90.8677 52.1738 93.0235 51.932 95.1539 52.174C97.2843 52.416 99.338 53.1359 101.171 54.2834C101.573 54.5276 102.053 54.5968 102.504 54.4758C102.955 54.3547 103.341 54.0534 103.577 53.6379C103.814 53.2225 103.881 52.727 103.764 52.2606C103.646 51.7941 103.355 51.3948 102.953 51.1506Z" fill="black"/>
<path d="M56.2047 51.1506C58.4438 49.7595 60.9453 48.8809 63.5406 48.574C66.1359 48.2671 68.7647 48.5391 71.2498 49.3716C71.6948 49.5075 72.0717 49.816 72.3016 50.2327C72.5315 50.6494 72.5966 51.1419 72.4832 51.6071C72.3551 52.0694 72.0572 52.4616 71.6532 52.6999C71.2491 52.9381 70.771 53.0036 70.3209 52.8823C68.2901 52.1738 66.1343 51.932 64.0039 52.174C61.8735 52.416 59.8198 53.1359 57.9864 54.2834C57.5845 54.5276 57.1053 54.5968 56.6541 54.4758C56.2028 54.3547 55.8166 54.0534 55.5804 53.6379C55.3441 53.2225 55.2772 52.727 55.3942 52.2606C55.5113 51.7941 55.8029 51.3948 56.2047 51.1506Z" fill="black"/>
<path d="M133.028 82.5898C128.063 88.6981 120.236 90.3668 115.531 86.2894C110.826 82.212 111.054 73.947 116.018 67.823C120.983 61.699 128.84 60.0932 133.515 64.1234C138.19 68.1536 137.977 76.4659 133.028 82.5898Z" fill="#F2A261"/>
<path d="M130.274 67.115C129.092 66.5459 127.799 66.2642 126.495 66.2915C125.191 66.3188 123.91 66.6543 122.751 67.2725C121.613 67.7486 120.619 68.5314 119.873 69.5395C119.459 70.1138 119.187 70.7842 119.081 71.4921C118.975 72.2001 119.038 72.9241 119.264 73.6011C119.717 74.617 120.428 75.4874 121.32 76.12C121.859 76.5109 122.328 76.9957 122.706 77.5526C122.93 77.9666 123.022 78.4432 122.968 78.9143C122.915 79.3855 122.719 79.8271 122.408 80.1762C122.097 80.5254 121.688 80.7641 121.238 80.8584C120.788 80.9526 120.321 80.8976 119.904 80.7012C119.789 80.6464 119.664 80.6156 119.538 80.6105C119.411 80.6053 119.285 80.6261 119.166 80.6714C119.048 80.7167 118.939 80.7857 118.846 80.8746C118.753 80.9635 118.678 81.0704 118.625 81.1892C118.572 81.3081 118.542 81.4367 118.537 81.5674C118.532 81.6982 118.552 81.8288 118.596 81.9516C118.64 82.0744 118.706 82.187 118.792 82.2831C118.878 82.3792 118.982 82.4569 119.097 82.5116C119.625 82.7689 120.203 82.8982 120.787 82.8895C121.358 82.8889 121.923 82.767 122.447 82.5314C122.971 82.2958 123.443 81.9515 123.833 81.5198C124.408 80.8389 124.765 79.9906 124.855 79.0913C124.945 78.1921 124.763 77.2861 124.335 76.4979C123.847 75.7278 123.228 75.0556 122.508 74.5143C121.875 74.0889 121.353 73.5108 120.985 72.8297C120.881 72.4584 120.862 72.067 120.931 71.6869C121 71.3069 121.154 70.9488 121.381 70.6415C121.589 70.3554 121.835 70.101 122.112 69.8858C123.127 69.8339 124.123 70.1828 124.898 70.8619C125.24 71.2581 125.492 71.7276 125.637 72.2366C125.782 72.7457 125.816 73.2816 125.736 73.8058C125.714 73.9362 125.718 74.0699 125.747 74.1987C125.776 74.3276 125.83 74.4492 125.905 74.5563C125.98 74.6634 126.076 74.7539 126.185 74.8224C126.295 74.8908 126.416 74.936 126.543 74.9551H126.695C126.925 74.9581 127.149 74.8755 127.325 74.7223C127.501 74.5691 127.618 74.3556 127.655 74.1207C127.786 73.3091 127.742 72.4777 127.526 71.6858C127.31 70.8939 126.928 70.161 126.406 69.5395C125.97 69.0965 125.452 68.7485 124.883 68.5162C126.341 68.0449 127.918 68.1572 129.299 68.831C130.113 69.2496 130.752 69.9586 131.099 70.8268C131.446 71.6949 131.478 72.6637 131.188 73.5539C131.087 73.7948 131.081 74.0669 131.171 74.3123C131.261 74.5576 131.44 74.7569 131.671 74.8677C131.901 74.9785 132.164 74.992 132.403 74.9054C132.643 74.8188 132.841 74.6389 132.954 74.404C133.444 73.0602 133.442 71.5776 132.948 70.2351C132.455 68.8927 131.504 67.7831 130.274 67.115Z" fill="#C16B5B"/>
<path d="M25.1245 82.5904C30.0887 88.6986 37.931 90.3674 42.6212 86.2899C47.3113 82.2125 47.1134 73.9475 42.1491 67.8235C37.1849 61.6995 29.3426 60.0465 24.6524 64.1239C19.9622 68.2013 20.1602 76.4664 25.1245 82.5904Z" fill="#F2A261"/>
<path d="M27.881 67.1149C29.0663 66.5467 30.3613 66.2655 31.6675 66.2928C32.9737 66.3201 34.2567 66.6551 35.4188 67.2723C36.5547 67.7524 37.5476 68.5345 38.2968 69.5393C38.7075 70.1155 38.9774 70.7857 39.0834 71.4929C39.1895 72.2001 39.1286 72.9233 38.9059 73.601C38.4449 74.6163 37.73 75.4859 36.835 76.1199C36.2999 76.5152 35.8317 76.9993 35.4492 77.5525C35.2355 77.967 35.1517 78.44 35.2092 78.906C35.2668 79.3719 35.463 79.8079 35.7706 80.1536C36.0783 80.4993 36.4822 80.7376 36.9265 80.8357C37.3709 80.9338 37.8338 80.8867 38.2511 80.7011C38.3721 80.6504 38.5016 80.6249 38.6321 80.626C38.7626 80.627 38.8917 80.6547 39.0119 80.7073C39.1321 80.7599 39.241 80.8365 39.3326 80.9327C39.4242 81.0288 39.4965 81.1427 39.5455 81.2678C39.5945 81.3929 39.6192 81.5267 39.6182 81.6616C39.6171 81.7966 39.5904 81.93 39.5395 82.0542C39.4886 82.1785 39.4145 82.2912 39.3215 82.3858C39.2284 82.4805 39.1183 82.5553 38.9973 82.6059C38.4749 82.8646 37.9014 82.994 37.3223 82.9838C36.7508 82.9842 36.1854 82.8627 35.6614 82.6271C35.1374 82.3914 34.666 82.0466 34.2767 81.6142C33.695 80.9372 33.3324 80.0893 33.2396 79.1889C33.1468 78.2885 33.3283 77.3807 33.759 76.5922C34.2522 75.8213 34.8765 75.1493 35.6015 74.6085C36.2393 74.1899 36.7634 73.6102 37.1243 72.924C37.2343 72.5543 37.2571 72.1628 37.1909 71.7821C37.1247 71.4015 36.9713 71.0427 36.7436 70.7358C36.5259 70.4531 36.2753 70.1993 35.9974 69.9801C34.9869 69.9274 33.9952 70.2767 33.226 70.9562C32.8828 71.3516 32.6284 71.8206 32.481 72.3295C32.3336 72.8384 32.2968 73.3747 32.3732 73.9001C32.395 74.0294 32.3918 74.1619 32.3636 74.2899C32.3355 74.4179 32.2831 74.5388 32.2095 74.6457C32.1358 74.7526 32.0424 74.8433 31.9346 74.9126C31.8267 74.9819 31.7067 75.0284 31.5814 75.0493H31.3834C31.1559 75.0486 30.9361 74.9643 30.7631 74.8114C30.5902 74.6586 30.4754 74.4472 30.4393 74.215C30.3082 73.3901 30.3592 72.5453 30.5887 71.7438C30.8181 70.9423 31.2199 70.2048 31.7641 69.5866C32.1985 69.1411 32.7168 68.7928 33.2869 68.5633C31.8288 68.092 30.2526 68.2043 28.8708 68.8781C28.0574 69.2967 27.418 70.0056 27.0709 70.8738C26.7238 71.742 26.6924 72.7107 26.9826 73.601C27.0915 73.8432 27.103 74.1202 27.0145 74.3711C26.926 74.622 26.7447 74.8263 26.5105 74.9391C26.3956 74.9946 26.2713 75.026 26.1446 75.0314C26.0179 75.0369 25.8915 75.0163 25.7725 74.9709C25.6536 74.9256 25.5445 74.8563 25.4516 74.767C25.3587 74.6778 25.2839 74.5704 25.2314 74.4511C24.7228 73.1055 24.7118 71.6132 25.2006 70.2597C25.6895 68.9063 26.6438 67.7866 27.881 67.1149Z" fill="#C16B5B"/>
<path d="M104.812 104.645L79.0924 106.219L53.3574 104.645C61.8241 110.013 61.2302 127.472 61.2302 127.472C65.433 132.195 79.0924 132.195 79.0924 132.195C79.0924 132.195 92.7974 132.195 96.9393 127.472C96.9393 127.472 96.3454 110.013 104.812 104.645Z" fill="#F2A261"/>
</svg>
