<svg width="119" height="131" viewBox="0 0 119 131" fill="none" xmlns="http://www.w3.org/2000/svg">
<path d="M118.08 133.06H0C0 133.06 1.07356 116.998 5.02517 109.911C5.72525 108.776 6.59237 107.762 7.59486 106.907C8.3467 106.221 9.13196 105.575 9.94755 104.972C10.4957 104.553 11.0782 104.157 11.6949 103.785C20.3687 98.1893 29.8282 94.032 39.7331 91.4628C46.0416 89.7285 52.5322 88.8114 59.0571 88.7324C64.859 88.7926 70.636 89.5292 76.2798 90.9286C85.7858 93.2104 94.9333 96.8794 103.45 101.826L105.254 102.942C106.602 103.821 107.836 104.687 108.886 105.518C110.537 106.703 111.965 108.192 113.101 109.911C117.041 116.95 118.08 133.06 118.08 133.06Z" fill="#FFCB99"/>
<path d="M52.9811 127.528C54.4916 128.246 55.8007 129.354 56.7842 130.745C56.9783 131.03 57.4352 130.745 57.241 130.472C56.2168 128.994 54.8389 127.82 53.2437 127.065C52.9468 126.911 52.6841 127.386 52.9811 127.528Z" fill="#F2B583"/>
<path d="M60.3701 130.377C61.1516 128.937 62.3507 127.79 63.7964 127.101C64.1047 126.958 63.7964 126.495 63.5337 126.638C62.0104 127.371 60.7478 128.583 59.9247 130.104C59.8899 130.167 59.8805 130.242 59.8987 130.312C59.917 130.382 59.9612 130.442 60.0218 130.478C60.0824 130.514 60.1543 130.524 60.2218 130.505C60.2892 130.486 60.3467 130.44 60.3815 130.377H60.3701Z" fill="#F2B583"/>
<path d="M25.925 133.06H23.8007C23.6865 132.407 23.5495 131.766 23.401 131.137C21.1445 121.376 16.5116 112.383 9.94727 105.02C10.4955 104.6 11.0779 104.205 11.6947 103.833C13.2259 105.574 14.6596 107.405 15.9889 109.317C20.9093 116.394 24.2988 124.493 25.925 133.06Z" fill="#F2B583"/>
<path d="M105.254 102.943C104.523 104.759 103.849 106.611 103.233 108.475C100.64 116.411 99.1325 124.687 98.7557 133.06H96.6543C96.6543 131.956 96.7685 130.852 96.8485 129.748C97.6243 120.138 99.8521 110.716 103.45 101.827L105.254 102.943Z" fill="#F2B583"/>
<path d="M19.2327 133.06H0C0 133.06 1.07356 116.998 5.02517 109.911C5.72525 108.776 6.59237 107.763 7.59486 106.908C10.8612 110.232 13.3053 115.04 15.1897 119.218C17.1443 123.617 18.5049 128.275 19.2327 133.06Z" fill="#FFB8AE"/>
<path d="M118.08 133.06H103.93C102.677 123.564 104.416 113.902 108.887 105.519C110.537 106.704 111.966 108.192 113.101 109.911C117.041 116.951 118.08 133.06 118.08 133.06Z" fill="#FFB8AE"/>
<path d="M76.2801 90.9292C75.5307 93.2967 74.6027 95.5989 73.5048 97.8146C71.6957 101.658 68.8917 104.902 65.4074 107.181C63.6601 108.3 61.6896 108.989 59.6467 109.195C57.6038 109.401 55.5427 109.118 53.6211 108.368C51.3567 107.235 49.3484 105.616 47.728 103.62C44.474 99.9999 41.7773 95.8794 39.7334 91.4041C46.0419 89.6698 52.5325 88.7527 59.0575 88.6737C64.8614 88.7533 70.6385 89.5099 76.2801 90.9292Z" fill="#FFB8AE"/>
<path d="M83.818 14.6682C78.7586 6.54824 68.9709 3.77039 59.0691 3.77039C49.1672 3.77039 39.3796 6.54824 34.263 14.6682C23.8815 31.2285 28.1643 63.8506 41.8008 74.7365C46.8107 78.527 52.8735 80.5151 59.0691 80.3991C65.2609 80.5134 71.3195 78.5253 76.326 74.7365C89.9624 63.8506 94.2452 31.2285 83.818 14.6682Z" fill="#FFB8AE"/>
<path d="M93.0227 27.9165C92.7777 21.909 90.6852 16.1416 87.0527 11.462C83.4202 6.78233 78.4393 3.43732 72.8421 1.91853C67.2782 0.275604 61.4764 -0.319429 55.7108 0.16158C48.333 0.624557 40.7039 2.41712 35.1533 7.42678C29.9683 12.0447 27.0788 18.9775 26.108 25.9934C25.3405 33.0455 25.6683 40.1801 27.0788 47.1241C32.0396 38.9155 35.1151 29.6297 36.067 19.9865C44.487 20.5346 52.8919 18.6921 60.382 14.6563C66.3436 20.5871 74.2981 23.8628 82.5498 23.7853C83.7837 31.7696 86.7736 39.3501 91.2867 45.937C91.3781 45.379 91.5266 44.7499 91.6179 44.2157C92.5202 38.3988 93.4681 33.7571 93.0227 27.9165Z" fill="#89496B"/>
<path d="M73.1503 43.0643C73.1503 43.6831 72.974 44.2881 72.6437 44.8029C72.3134 45.3178 71.8439 45.7195 71.2943 45.9574C70.7447 46.1953 70.1396 46.2587 69.5554 46.1397C68.9711 46.0207 68.4338 45.7245 68.0113 45.2886C67.5887 44.8527 67.2998 44.2965 67.1809 43.6901C67.062 43.0837 67.1184 42.4544 67.3431 41.8813C67.5678 41.3083 67.9507 40.8172 68.4435 40.47C68.9364 40.1227 69.517 39.935 70.1124 39.9303C70.5102 39.9271 70.9048 40.0059 71.2732 40.162C71.6417 40.3181 71.9768 40.5484 72.2592 40.8398C72.5416 41.1311 72.7657 41.4776 72.9186 41.8594C73.0716 42.2412 73.1503 42.6507 73.1503 43.0643Z" fill="black"/>
<path d="M69.0048 42.9452C69.5031 42.9452 69.907 42.5253 69.907 42.0074C69.907 41.4894 69.5031 41.0696 69.0048 41.0696C68.5065 41.0696 68.1025 41.4894 68.1025 42.0074C68.1025 42.5253 68.5065 42.9452 69.0048 42.9452Z" fill="white"/>
<path d="M51.0048 43.0642C51.0048 43.684 50.828 44.2899 50.4967 44.8053C50.1654 45.3207 49.6945 45.7224 49.1435 45.9596C48.5926 46.1968 47.9864 46.2589 47.4015 46.138C46.8166 46.017 46.2794 45.7185 45.8577 45.2802C45.436 44.8419 45.1489 44.2835 45.0325 43.6756C44.9162 43.0677 44.9759 42.4375 45.2041 41.8648C45.4323 41.2922 45.8188 40.8027 46.3146 40.4584C46.8104 40.114 47.3934 39.9302 47.9897 39.9302C48.7894 39.9302 49.5563 40.2604 50.1217 40.8481C50.6871 41.4358 51.0048 42.233 51.0048 43.0642Z" fill="black"/>
<path d="M47.7617 42.0079C47.7759 42.1391 47.7634 42.272 47.7248 42.3978C47.6863 42.5236 47.6226 42.6396 47.538 42.738C47.4534 42.8365 47.3497 42.9153 47.2337 42.9692C47.1178 43.0232 46.9922 43.0511 46.8651 43.0511C46.7381 43.0511 46.6125 43.0232 46.4965 42.9692C46.3806 42.9153 46.2769 42.8365 46.1923 42.738C46.1076 42.6396 46.044 42.5236 46.0054 42.3978C45.9669 42.272 45.9543 42.1391 45.9686 42.0079C45.9935 41.7789 46.0987 41.5674 46.2641 41.4138C46.4294 41.2603 46.6434 41.1754 46.8651 41.1754C47.0869 41.1754 47.3009 41.2603 47.4662 41.4138C47.6316 41.5674 47.7368 41.7789 47.7617 42.0079Z" fill="white"/>
<path d="M56.4078 54.0335C56.3065 54.0322 56.2083 53.9968 56.128 53.9326C56.0476 53.8684 55.9895 53.7788 55.9624 53.6774C55.083 50.5196 56.1108 49.4512 57.1044 49.1069C57.7416 48.9659 58.4004 48.9682 59.0366 49.1135C59.6729 49.2589 60.2719 49.544 60.7934 49.9498C60.8812 50.0248 60.9397 50.1304 60.9581 50.2469C60.9766 50.3635 60.9536 50.483 60.8935 50.5833C60.8334 50.6835 60.7403 50.7576 60.6315 50.7917C60.5227 50.8259 60.4057 50.8178 60.3023 50.7689C59.8959 50.4365 59.4256 50.1988 58.9231 50.0718C58.4206 49.9448 57.8978 49.9315 57.39 50.0329C56.4763 50.3415 56.2479 51.4812 56.8189 53.4162C56.8363 53.477 56.8417 53.5408 56.8349 53.6038C56.8281 53.6668 56.8093 53.7278 56.7795 53.7831C56.7497 53.8384 56.7095 53.887 56.6614 53.9259C56.6132 53.9648 56.5581 53.9933 56.4991 54.0098L56.4078 54.0335Z" fill="#C16B5B"/>
<path d="M76.965 32.5108C75.2849 31.4638 73.4083 30.8034 71.4618 30.5741C69.5154 30.3447 67.5442 30.5518 65.6812 31.1812C65.3458 31.2811 65.0613 31.5133 64.8885 31.8283C64.7156 32.1433 64.6681 32.5161 64.7561 32.8669C64.852 33.2151 65.076 33.51 65.3795 33.6877C65.6831 33.8655 66.0417 33.9118 66.3779 33.8166C67.9012 33.2809 69.5191 33.0989 71.1174 33.2835C72.7158 33.4681 74.2557 34.0148 75.6288 34.885C75.9304 35.0479 76.2807 35.0841 76.6072 34.9861C76.9337 34.8881 77.2115 34.6634 77.3831 34.3585C77.5548 34.0535 77.6071 33.6917 77.5292 33.3478C77.4514 33.0039 77.2494 32.7042 76.965 32.5108Z" fill="#89496B"/>
<path d="M41.9031 32.5108C43.5833 31.4638 45.4598 30.8034 47.4063 30.5741C49.3528 30.3447 51.3239 30.5518 53.1869 31.1812C53.5231 31.2773 53.8089 31.5082 53.9813 31.8232C54.1537 32.1382 54.1987 32.5115 54.1063 32.861C54.0139 33.2105 53.7918 33.5075 53.4887 33.6867C53.1856 33.8659 52.8265 33.9127 52.4903 33.8166C50.9669 33.2809 49.3491 33.0989 47.7507 33.2835C46.1524 33.4681 44.6124 34.0148 43.2394 34.885C42.9378 35.0479 42.5875 35.0841 42.261 34.9861C41.9344 34.8881 41.6566 34.6634 41.485 34.3585C41.3134 34.0535 41.2611 33.6917 41.3389 33.3478C41.4167 33.0039 41.6187 32.7042 41.9031 32.5108Z" fill="#89496B"/>
<path d="M66.1262 58.0691C65.2468 56.7039 63.0083 58.1759 60.313 58.4371C57.6177 58.6983 55.1508 57.6655 54.5226 59.1731C53.746 61.0844 56.4642 65.3699 60.884 64.9544C65.3039 64.5389 67.234 59.7904 66.1262 58.0691Z" fill="#8E4136"/>
<path d="M66.0127 61.1562C65.0963 61.09 64.1766 61.09 63.2603 61.1562C60.1195 61.453 57.4928 62.3434 56.3164 63.4593C56.9428 64.0125 57.6705 64.4282 58.4557 64.6812C59.2408 64.9342 60.0671 65.0192 60.8847 64.9313C61.9865 64.8375 63.0438 64.4377 63.946 63.7735C64.8481 63.1094 65.5619 62.2054 66.0127 61.1562Z" fill="#C16B5B"/>
<path d="M60.4508 59.9687C62.8606 59.7432 64.8478 58.9478 65.476 57.5351C64.3339 57.1909 62.4837 58.188 60.3137 58.4017C58.1438 58.6154 56.0995 57.9744 55.083 58.5204C55.951 59.8381 58.041 60.2418 60.4508 59.9687Z" fill="white"/>
<path d="M99.5205 56.2178C95.7973 60.8357 89.927 62.0821 86.398 59.0075C82.869 55.9329 83.0403 49.7123 86.7635 45.0944C90.4867 40.4765 96.357 39.23 99.886 42.3047C103.415 45.3793 103.232 51.6592 99.5205 56.2178Z" fill="#FFB8AE"/>
<path d="M97.4545 44.5363C96.5687 44.1052 95.5996 43.8908 94.6216 43.9093C93.6437 43.9278 92.6828 44.1788 91.8126 44.6431C90.9594 45.0199 90.2155 45.6214 89.6541 46.3882C89.3443 46.8217 89.1408 47.3272 89.0612 47.8608C88.9816 48.3945 89.0283 48.9403 89.1973 49.4509C89.5341 50.2189 90.0674 50.876 90.7391 51.3503C91.1463 51.6459 91.4984 52.016 91.7784 52.4425C91.9464 52.7546 92.0153 53.114 91.9752 53.4693C91.9351 53.8246 91.7881 54.1576 91.5551 54.4209C91.3221 54.6841 91.015 54.8641 90.6777 54.9352C90.3405 55.0063 89.9902 54.9648 89.6769 54.8167C89.5908 54.7749 89.4975 54.7512 89.4025 54.7471C89.3075 54.743 89.2126 54.7585 89.1234 54.7927C89.0342 54.827 88.9524 54.8792 88.8827 54.9465C88.8131 55.0138 88.757 55.0948 88.7176 55.1847C88.6359 55.3674 88.6273 55.5762 88.6937 55.7654C88.76 55.9546 88.896 56.1087 89.0716 56.1938C89.4697 56.3822 89.902 56.4793 90.3393 56.4787C90.8858 56.4882 91.4248 56.3461 91.9007 56.067C92.3767 55.7878 92.7724 55.3817 93.0471 54.8906C93.3217 54.3995 93.4654 53.8411 93.4632 53.273C93.461 52.705 93.3131 52.1478 93.0347 51.659C92.6721 51.0722 92.2073 50.5608 91.6642 50.1513C91.1884 49.8325 90.796 49.3961 90.5221 48.8811C90.4449 48.6029 90.4316 48.3098 90.4832 48.0253C90.5347 47.7408 90.6498 47.4728 90.819 47.2429C90.9717 47.0206 91.1566 46.8244 91.3672 46.6612C92.13 46.6253 92.8773 46.8927 93.4572 47.4091C93.713 47.7056 93.9021 48.0576 94.0108 48.4395C94.1194 48.8214 94.1449 49.2237 94.0854 49.6171C94.0691 49.7162 94.0718 49.8176 94.0935 49.9156C94.1151 50.0135 94.1553 50.106 94.2116 50.1877C94.2679 50.2694 94.3392 50.3387 94.4215 50.3916C94.5037 50.4444 94.5952 50.4798 94.6907 50.4956H94.8049C94.9775 50.4979 95.1451 50.4356 95.2772 50.3201C95.4093 50.2046 95.497 50.0436 95.5244 49.8664C95.6201 49.2463 95.5805 48.6118 95.4085 48.0097C95.2366 47.4077 94.9366 46.8535 94.5308 46.3882C94.2036 46.0541 93.8152 45.7917 93.3887 45.6165C94.4809 45.2574 95.663 45.3379 96.7007 45.8421C97.3092 46.1597 97.7872 46.6944 98.0473 47.3485C98.3074 48.0025 98.3321 48.732 98.1169 49.4035C98.0767 49.493 98.0539 49.59 98.05 49.6887C98.046 49.7875 98.0609 49.8861 98.0939 49.9788C98.1268 50.0715 98.1771 50.1565 98.2418 50.2289C98.3065 50.3014 98.3844 50.3597 98.471 50.4006C98.6467 50.4856 98.8476 50.4945 99.0296 50.4255C99.2117 50.3565 99.3599 50.2152 99.4417 50.0326C99.8136 49.0223 99.8167 47.9054 99.4506 46.8928C99.0845 45.8802 98.3745 45.042 97.4545 44.5363Z" fill="#C16B5B"/>
<path d="M18.5929 56.2178C22.3161 60.8357 28.1978 62.0821 31.7154 59.0075C35.233 55.9329 35.0845 49.7123 31.3614 45.0944C27.6382 40.4765 21.7564 39.23 18.2388 42.3047C14.7212 45.3793 14.8697 51.6592 18.5929 56.2178Z" fill="#FFB8AE"/>
<path d="M20.6599 44.5365C21.5478 44.1053 22.5187 43.8908 23.4985 43.9093C24.4783 43.9278 25.4411 44.1789 26.3133 44.6433C27.1646 45.0234 27.9078 45.6243 28.4718 46.3884C28.7789 46.8233 28.9808 47.3286 29.0603 47.8617C29.1398 48.3948 29.0947 48.94 28.9286 49.4512C28.5829 50.2168 28.0466 50.8725 27.3754 51.3506C26.9708 51.6494 26.6192 52.019 26.3361 52.4427C26.1711 52.7595 26.1025 53.1208 26.1392 53.479C26.1759 53.8372 26.3162 54.1754 26.5417 54.4489C26.7812 54.7079 27.0914 54.8842 27.4304 54.9543C27.7694 55.0243 28.1209 54.9847 28.4375 54.8407C28.6132 54.7557 28.8142 54.7468 28.9962 54.8158C29.1782 54.8848 29.3265 55.0261 29.4083 55.2087C29.4862 55.3932 29.4915 55.602 29.4232 55.7906C29.355 55.9791 29.2184 56.1324 29.0428 56.2177C28.6492 56.4073 28.2203 56.5046 27.7865 56.5027C27.2371 56.5131 26.695 56.3708 26.2162 56.0905C25.7375 55.8101 25.3395 55.4018 25.0635 54.9079C24.7875 54.414 24.6435 53.8524 24.6463 53.2813C24.6492 52.7101 24.7989 52.1501 25.0798 51.6592C25.4464 51.0718 25.915 50.5606 26.4617 50.1516C26.9424 49.8388 27.3361 49.4009 27.6038 48.8813C27.6863 48.6045 27.7034 48.3111 27.6537 48.0259C27.604 47.7408 27.4889 47.4723 27.3183 47.2431C27.1583 47.0234 26.97 46.8277 26.7587 46.6614C25.9994 46.6262 25.2559 46.8937 24.6801 47.4093C24.4229 47.7052 24.2322 48.0568 24.1216 48.4386C24.011 48.8205 23.9833 49.223 24.0405 49.6173C24.0737 49.8157 24.0298 50.0196 23.9184 50.1843C23.8071 50.349 23.6374 50.4611 23.4466 50.4958H23.2867C23.1161 50.4953 22.9512 50.4317 22.8215 50.3164C22.6918 50.2012 22.6057 50.0418 22.5786 49.8667C22.4804 49.2465 22.5188 48.6113 22.6909 48.0088C22.863 47.4063 23.1643 46.8523 23.5723 46.3884C23.898 46.0525 24.2868 45.7899 24.7143 45.6168C23.6222 45.2577 22.4401 45.3382 21.4023 45.8423C20.7939 46.1599 20.3158 46.6947 20.0557 47.3487C19.7957 48.0027 19.771 48.7322 19.9861 49.4037C20.0259 49.4933 20.0482 49.5902 20.0519 49.6888C20.0557 49.7875 20.0407 49.8859 20.0078 49.9785C19.9749 50.0711 19.9248 50.156 19.8603 50.2285C19.7959 50.301 19.7183 50.3595 19.6321 50.4009C19.5458 50.4422 19.4526 50.4654 19.3577 50.4693C19.2628 50.4731 19.1682 50.4575 19.0791 50.4234C18.99 50.3892 18.9082 50.3371 18.8385 50.2701C18.7688 50.2031 18.7125 50.1225 18.6727 50.0328C18.2957 49.023 18.29 47.9042 18.6566 46.8902C19.0232 45.8763 19.7364 45.0383 20.6599 44.5365Z" fill="#C16B5B"/>
<path d="M78.3586 72.8491L59.0688 74.0362L39.7676 72.8491C46.1176 76.9091 45.6721 90.0624 45.6721 90.0624C48.8243 93.6237 59.0688 93.6237 59.0688 93.6237C59.0688 93.6237 69.3475 93.6237 72.454 90.0624C72.454 90.0624 72.0086 76.9091 78.3586 72.8491Z" fill="#FFB8AE"/>
</svg>
