<svg width="119" height="132" viewBox="0 0 119 132" fill="none" xmlns="http://www.w3.org/2000/svg">
<path d="M69.1773 1.9468C74.3812 3.26173 79.2676 5.59641 83.5491 8.8135C88.3672 12.5439 92.1987 17.3816 94.7133 22.9095C97.2475 28.4845 98.3319 34.8413 99.4164 40.8355C100.912 49.1186 102.179 57.651 105.957 65.2769C108.32 70.0586 111.665 74.5684 112.213 79.8601C112.761 85.1518 110.09 90.5114 106.22 94.2507C102.35 97.99 97.2475 100.392 92.2248 102.273C75.765 108.231 57.99 109.668 40.776 106.432C30.2168 104.494 18.0252 100.154 13.1966 89.8316C9.38385 81.6844 11.4044 72.0642 14.4523 64.0078C16.4385 58.7614 19.1097 53.8097 20.7535 48.416C23.516 39.2831 22.58 30.0935 23.9384 20.8246C25.0799 12.8927 28.9269 6.3773 36.4952 3.03459C41.7243 0.920391 47.334 -0.109208 52.9789 0.00916283C58.4419 -0.0761503 63.8911 0.57569 69.1773 1.9468Z" fill="#3D2614"/>
<path d="M118.08 133.06H0C0 133.06 1.07303 117.74 5.02273 110.975C7.69391 106.443 20.8558 98.7604 36.2664 94.2959C43.6548 92.0694 51.3197 90.8757 59.04 90.7493C67.0987 90.889 75.0952 92.1788 82.7838 94.5792C97.7836 99.1117 110.443 106.488 113.057 110.975C117.007 117.752 118.08 133.06 118.08 133.06Z" fill="#89496B"/>
<path d="M85.3635 122.216C85.0731 123.411 84.4557 124.502 83.5793 125.37C82.703 126.238 81.6019 126.848 80.3978 127.134C80.0668 127.202 80.2152 127.701 80.5348 127.633C81.8281 127.325 83.0109 126.669 83.9534 125.737C84.8958 124.806 85.5615 123.635 85.8772 122.352C85.9457 122.024 85.4434 121.888 85.3635 122.216Z" fill="#562240"/>
<path d="M84.0966 121.729C80.8844 124.151 76.9663 125.471 72.9325 125.491C72.8629 125.491 72.796 125.518 72.7468 125.567C72.6976 125.616 72.6699 125.682 72.6699 125.751C72.6699 125.821 72.6976 125.887 72.7468 125.936C72.796 125.985 72.8629 126.012 72.9325 126.012C77.0561 125.992 81.0617 124.644 84.3478 122.171C84.6103 121.978 84.3478 121.525 84.0852 121.729H84.0966Z" fill="#562240"/>
<path d="M82.784 94.5904C80.5009 104.573 63.846 113.74 59.0401 113.298C49.3371 112.414 41.7003 103.95 36.2666 94.3072C43.655 92.0807 51.3199 90.8869 59.0401 90.7605C67.0988 90.9002 75.0954 92.19 82.784 94.5904Z" fill="#F2A261"/>
<path d="M83.8344 20.0767C78.7203 12.2922 68.9374 9.66333 59.0403 9.66333C49.1433 9.66333 39.3604 12.2922 34.2463 20.0767C23.8812 35.8724 28.1619 67.0219 41.7804 77.4126C46.8408 80.924 52.866 82.8072 59.0403 82.8072C65.2147 82.8072 71.2399 80.924 76.3003 77.4126C89.9302 67.0219 94.2109 35.8724 83.8344 20.0767Z" fill="#F2A261"/>
<path d="M23.1963 48.9488C33.4293 40.9264 40.3587 29.4706 42.6822 16.7342C53.4219 26.426 67.358 31.89 81.871 32.0993C82.44 35.6134 83.7105 38.9792 85.6081 41.9992C87.5057 45.0191 89.9919 47.6323 92.921 49.6853C93.4689 43.1245 94.0625 36.3031 92.6584 29.8784C91.2543 23.4536 88.1722 17.2101 83.1381 12.9495C78.6465 9.34501 73.2301 7.05706 67.4991 6.34346C61.8135 5.63909 56.0617 5.63909 50.3761 6.34346C44.6685 6.92135 38.5385 7.97515 34.5431 12.077C31.6893 15.0118 30.3765 19.0684 29.2806 23.0116C26.9177 31.4081 24.3492 40.3484 23.1963 48.9488Z" fill="#3D2614"/>
<path d="M73.1152 47.1697C73.1152 47.7613 72.9384 48.3397 72.6073 48.8316C72.2761 49.3235 71.8055 49.707 71.2548 49.9334C70.7041 50.1598 70.0982 50.219 69.5136 50.1036C68.929 49.9882 68.392 49.7033 67.9706 49.2849C67.5491 48.8666 67.2621 48.3335 67.1458 47.7533C67.0295 47.173 67.0892 46.5715 67.3173 46.0249C67.5454 45.4783 67.9317 45.0111 68.4272 44.6824C68.9228 44.3537 69.5055 44.1782 70.1015 44.1782C70.9008 44.1782 71.6673 44.4934 72.2325 45.0544C72.7977 45.6154 73.1152 46.3763 73.1152 47.1697Z" fill="black"/>
<path d="M69.8505 46.1723C69.8505 46.3494 69.7976 46.5225 69.6985 46.6697C69.5994 46.8169 69.4586 46.9316 69.2938 46.9994C69.129 47.0671 68.9477 47.0848 68.7727 47.0503C68.5978 47.0158 68.4371 46.9305 68.311 46.8053C68.1849 46.6801 68.099 46.5206 68.0642 46.347C68.0294 46.1733 68.0473 45.9933 68.1155 45.8298C68.1838 45.6662 68.2993 45.5264 68.4476 45.428C68.596 45.3297 68.7703 45.2772 68.9487 45.2772C69.0675 45.2757 69.1855 45.2978 69.2956 45.3422C69.4057 45.3867 69.5057 45.4525 69.5898 45.536C69.6738 45.6194 69.7402 45.7187 69.785 45.828C69.8297 45.9373 69.852 46.0544 69.8505 46.1723Z" fill="white"/>
<path d="M50.9921 47.1697C50.9921 47.7613 50.8154 48.3397 50.4842 48.8316C50.1531 49.3235 49.6824 49.707 49.1317 49.9334C48.5811 50.1598 47.9751 50.219 47.3905 50.1036C46.8059 49.9882 46.269 49.7033 45.8475 49.2849C45.426 48.8666 45.139 48.3335 45.0227 47.7533C44.9065 47.173 44.9662 46.5715 45.1943 46.0249C45.4223 45.4783 45.8086 45.0111 46.3042 44.6824C46.7998 44.3537 47.3824 44.1782 47.9785 44.1782C48.7777 44.1782 49.5443 44.4934 50.1094 45.0544C50.6746 45.6154 50.9921 46.3763 50.9921 47.1697Z" fill="black"/>
<path d="M47.7502 46.1723C47.7472 46.4077 47.6509 46.6325 47.4821 46.7979C47.3133 46.9634 47.0856 47.0561 46.8484 47.0561C46.6281 47.0314 46.4248 46.927 46.2771 46.763C46.1295 46.5989 46.0479 46.3866 46.0479 46.1666C46.0479 45.9466 46.1295 45.7343 46.2771 45.5702C46.4248 45.4062 46.6281 45.3018 46.8484 45.2771C47.0876 45.2771 47.3169 45.3714 47.486 45.5393C47.6552 45.7072 47.7502 45.9349 47.7502 46.1723Z" fill="white"/>
<path d="M56.3918 57.6622C56.2905 57.661 56.1924 57.6272 56.1121 57.5659C56.0318 57.5046 55.9737 57.4192 55.9466 57.3223C55.0676 54.3082 56.095 53.2884 57.0881 52.9598C57.7264 52.8182 58.3882 52.8168 59.0271 52.9558C59.666 53.0947 60.2665 53.3707 60.7867 53.7643C60.8392 53.7956 60.8848 53.837 60.9208 53.8862C60.9568 53.9353 60.9825 53.9912 60.9964 54.0504C61.0102 54.1096 61.0119 54.1709 61.0014 54.2308C60.9909 54.2907 60.9683 54.3478 60.9351 54.3989C60.8674 54.4995 60.7636 54.5707 60.6448 54.5981C60.5261 54.6255 60.4013 54.6069 60.2958 54.5462C59.8897 54.2289 59.4195 54.002 58.9173 53.8808C58.4151 53.7596 57.8925 53.7469 57.3849 53.8436C56.4602 54.1269 56.2434 55.2147 56.8141 57.073C56.8314 57.1311 56.8369 57.1919 56.8301 57.2521C56.8233 57.3122 56.8045 57.3704 56.7747 57.4232C56.7449 57.476 56.7048 57.5224 56.6567 57.5596C56.6085 57.5967 56.5534 57.6239 56.4945 57.6396L56.3918 57.6622Z" fill="#C16B5B"/>
<path d="M65.2154 61.6735C63.9238 62.8418 62.342 63.6476 60.6326 64.0081C58.9233 64.3685 57.1482 64.2706 55.4896 63.7245C54.5307 63.4072 54.1083 64.9256 55.0672 65.2428C56.996 65.8631 59.0564 65.9623 61.0366 65.5301C63.0168 65.098 64.8453 64.1501 66.3341 62.784C67.0875 62.0474 65.9688 60.937 65.2154 61.6735Z" fill="#C16B5B"/>
<path d="M76.8816 37.1076C75.2031 36.1064 73.3279 35.474 71.3824 35.2531C69.4368 35.0322 67.4662 35.228 65.6033 35.8272C65.2718 35.9273 64.9919 36.1504 64.8219 36.45C64.6518 36.7497 64.6046 37.1029 64.6901 37.4362C64.7835 37.7706 65.0063 38.0548 65.31 38.2267C65.6137 38.3986 65.9735 38.4444 66.311 38.354C67.8333 37.844 69.4495 37.6701 71.0465 37.8443C72.6435 38.0184 74.183 38.5366 75.5574 39.3625C75.7066 39.4488 75.8714 39.5051 76.0425 39.5282C76.2136 39.5512 76.3876 39.5406 76.5545 39.497C76.7215 39.4533 76.8781 39.3774 77.0155 39.2737C77.1529 39.1699 77.2684 39.0403 77.3554 38.8922C77.4423 38.7442 77.499 38.5806 77.5223 38.4108C77.5455 38.2409 77.5348 38.0682 77.4908 37.9025C77.4469 37.7368 77.3704 37.5813 77.2659 37.4449C77.1613 37.3085 77.0308 37.1939 76.8816 37.1076Z" fill="#3D2614"/>
<path d="M41.8949 37.1076C43.5734 36.1064 45.4486 35.474 47.3941 35.2531C49.3397 35.0322 51.3104 35.228 53.1732 35.8272C53.5052 35.9274 53.786 36.1499 53.9579 36.4491C54.1299 36.7483 54.18 37.1015 54.0979 37.4362C54.0019 37.7689 53.7785 38.0512 53.4757 38.2227C53.1728 38.3942 52.8143 38.4413 52.4769 38.354C50.9547 37.8433 49.3385 37.6689 47.7413 37.8431C46.1441 38.0173 44.6046 38.5359 43.2305 39.3625C42.9292 39.5383 42.57 39.5881 42.2318 39.501C41.8935 39.4139 41.604 39.1969 41.4269 38.8979C41.2498 38.5989 41.1996 38.2423 41.2874 37.9065C41.3751 37.5708 41.5937 37.2834 41.8949 37.1076Z" fill="#3D2614"/>
<path d="M99.5296 59.7361C95.8082 64.1326 89.9407 65.3337 86.4134 62.3989C82.8861 59.4641 83.0573 53.5152 86.7786 49.1187C90.5 44.7222 96.3675 43.5211 99.8949 46.4446C103.422 49.368 103.205 55.3282 99.5296 59.7361Z" fill="#F2A261"/>
<path d="M97.418 48.6084C96.5325 48.197 95.564 47.9923 94.5865 48.01C93.609 48.0276 92.6486 48.2672 91.7788 48.7104C90.9281 49.0573 90.1842 49.62 89.6214 50.3421C89.3098 50.7549 89.1044 51.2369 89.0228 51.7463C88.9413 52.2557 88.9861 52.7772 89.1533 53.2655C89.4989 53.9963 90.0349 54.6222 90.7058 55.0785C91.1102 55.3638 91.4616 55.7165 91.7446 56.121C91.9126 56.4189 91.9815 56.762 91.9414 57.1011C91.9013 57.4402 91.7543 57.7581 91.5214 58.0094C91.2885 58.2606 90.9816 58.4325 90.6445 58.5003C90.3074 58.5682 89.9573 58.5286 89.6442 58.3872C89.5581 58.3473 89.4648 58.3247 89.3699 58.3208C89.2749 58.3169 89.1801 58.3317 89.091 58.3643C89.0018 58.397 88.92 58.4469 88.8504 58.5111C88.7808 58.5753 88.7247 58.6526 88.6853 58.7385C88.6036 58.9128 88.5951 59.1122 88.6614 59.2928C88.7278 59.4734 88.8636 59.6204 89.0392 59.7016C89.4378 59.8779 89.87 59.9668 90.3063 59.9623C90.8525 59.9714 91.3912 59.8357 91.8669 59.5692C92.3426 59.3028 92.7382 58.9152 93.0127 58.4464C93.2872 57.9776 93.4308 57.4446 93.4286 56.9024C93.4264 56.3602 93.2786 55.8284 93.0003 55.3618C92.6305 54.807 92.1626 54.3232 91.619 53.9341C91.1435 53.6297 90.7513 53.2132 90.4775 52.7216C90.3995 52.4562 90.3857 52.1762 90.4373 51.9045C90.4889 51.6328 90.6043 51.377 90.7743 51.1579C90.9269 50.9458 91.1117 50.7585 91.3222 50.6027C92.082 50.5631 92.8273 50.8192 93.3998 51.3166C93.6575 51.5986 93.8486 51.9341 93.9592 52.2987C94.0698 52.6633 94.0971 53.0478 94.0391 53.4242C94.0227 53.5172 94.0252 53.6126 94.0462 53.7047C94.0673 53.7968 94.1066 53.8839 94.1618 53.9608C94.217 54.0377 94.2871 54.103 94.3679 54.1529C94.4487 54.2028 94.5387 54.2362 94.6326 54.2513H94.7582C94.9295 54.249 95.0947 54.1879 95.2258 54.0785C95.3569 53.969 95.4458 53.8179 95.4774 53.6508C95.5716 53.058 95.5302 52.4518 95.3563 51.8771C95.1824 51.3024 94.8805 50.7739 94.4729 50.3307C94.1533 50 93.7633 49.7445 93.3313 49.5829C94.4252 49.2503 95.6043 49.331 96.6417 49.8095C97.2499 50.1126 97.7277 50.6231 97.9876 51.2474C98.2476 51.8716 98.2723 52.568 98.0572 53.2089C98.017 53.2943 97.9943 53.3869 97.9903 53.4812C97.9864 53.5754 98.0013 53.6695 98.0342 53.758C98.0671 53.8465 98.1173 53.9277 98.182 53.9968C98.2467 54.0659 98.3246 54.1216 98.4111 54.1607C98.5867 54.2417 98.7875 54.2503 98.9695 54.1844C99.1514 54.1186 99.2996 53.9837 99.3814 53.8094C99.7422 52.8533 99.7421 51.7999 99.3812 50.8438C99.0203 49.8878 98.3229 49.0937 97.418 48.6084Z" fill="#C16B5B"/>
<path d="M18.5961 59.7361C22.3174 64.1326 28.1849 65.3337 31.7123 62.3989C35.2396 59.4641 35.0683 53.5152 31.347 49.1187C27.6256 44.7222 21.7581 43.5211 18.2308 46.4446C14.7034 49.368 14.8747 55.3282 18.5961 59.7361Z" fill="#F2A261"/>
<path d="M20.6615 48.6084C21.547 48.197 22.5156 47.9923 23.493 48.01C24.4705 48.0276 25.4309 48.2672 26.3007 48.7104C27.1496 49.0605 27.8928 49.6226 28.4582 50.3421C28.7697 50.7549 28.9752 51.2369 29.0567 51.7463C29.1383 52.2557 29.0935 52.7772 28.9262 53.2655C28.5806 53.9963 28.0447 54.6222 27.3738 55.0785C26.9694 55.3638 26.6179 55.7165 26.335 56.121C26.167 56.4189 26.0981 56.762 26.1382 57.1011C26.1782 57.4402 26.3252 57.7581 26.5581 58.0094C26.791 58.2606 27.0979 58.4325 27.435 58.5003C27.7722 58.5682 28.1223 58.5286 28.4354 58.3872C28.5215 58.3473 28.6147 58.3247 28.7097 58.3208C28.8046 58.3169 28.8994 58.3317 28.9886 58.3643C29.0778 58.397 29.1595 58.4469 29.2292 58.5111C29.2988 58.5753 29.3549 58.6526 29.3943 58.7385C29.4759 58.9128 29.4845 59.1122 29.4182 59.2928C29.3518 59.4734 29.2159 59.6204 29.0404 59.7016C28.6418 59.8779 28.2096 59.9668 27.7733 59.9623C27.2271 59.9714 26.6884 59.8357 26.2126 59.5692C25.7369 59.3028 25.3414 58.9152 25.0669 58.4464C24.7923 57.9776 24.6488 57.4446 24.6509 56.9024C24.6531 56.3602 24.801 55.8284 25.0793 55.3618C25.4578 54.8263 25.9294 54.362 26.4719 53.9907C26.9475 53.6864 27.3397 53.2698 27.6135 52.7783C27.6915 52.5128 27.7053 52.2329 27.6537 51.9611C27.6021 51.6894 27.4866 51.4336 27.3167 51.2146C27.1641 51.0024 26.9793 50.8151 26.7687 50.6593C26.009 50.6198 25.2637 50.8759 24.6911 51.3732C24.4334 51.6552 24.2424 51.9908 24.1318 52.3554C24.0212 52.7199 23.9939 53.1044 24.0519 53.4808C24.0682 53.5739 24.0658 53.6692 24.0447 53.7613C24.0236 53.8535 23.9843 53.9405 23.9291 54.0175C23.8739 54.0944 23.8039 54.1597 23.723 54.2096C23.6422 54.2594 23.5522 54.2929 23.4583 54.308H23.3327C23.1602 54.3102 22.9927 54.2507 22.8606 54.1404C22.7286 54.0302 22.6409 53.8765 22.6135 53.7074C22.5194 53.1147 22.5608 52.5085 22.7347 51.9338C22.9086 51.3591 23.2105 50.8306 23.6181 50.3874C23.9376 50.0567 24.3277 49.8012 24.7596 49.6395C23.6658 49.3069 22.4867 49.3876 21.4492 49.8662C20.841 50.1693 20.3632 50.6797 20.1033 51.304C19.8433 51.9283 19.8186 52.6246 20.0337 53.2655C20.0739 53.351 20.0966 53.4435 20.1006 53.5378C20.1045 53.6321 20.0896 53.7262 20.0567 53.8147C20.0238 53.9032 19.9736 53.9844 19.9089 54.0535C19.8442 54.1226 19.7663 54.1783 19.6798 54.2173C19.5042 54.2984 19.3033 54.3069 19.1214 54.2411C18.9394 54.1752 18.7913 54.0403 18.7095 53.8661C18.332 52.9043 18.322 51.8386 18.6816 50.87C19.0412 49.9014 19.7455 49.097 20.6615 48.6084Z" fill="#C16B5B"/>
<path d="M78.3207 75.6111L59.0402 76.7442L39.7598 75.6111C46.0953 79.475 45.6615 92.0413 45.6615 92.0413C48.8121 95.4407 59.0402 95.4407 59.0402 95.4407C59.0402 95.4407 69.314 95.4407 72.4304 92.0413C72.4304 92.0413 71.9852 79.475 78.3207 75.6111Z" fill="#F2A261"/>
</svg>
