<svg width="119" height="131" viewBox="0 0 119 131" fill="none" xmlns="http://www.w3.org/2000/svg">
<path d="M25.6689 58.0615C21.4167 50.1224 19.3665 41.2454 19.7197 32.3036C19.7651 28.3992 20.6287 24.5446 22.2578 20.9746C23.9205 17.3867 26.9318 14.5508 30.6763 13.0466C33.5015 6.90262 40.4155 3.53515 47.0882 1.76221C55.3955 -0.548903 64.1988 -0.587497 72.5273 1.6507C80.8814 3.93636 88.0816 9.11787 92.7637 16.2134C96.8409 22.6584 98.2994 30.4192 97.9664 37.9681C97.6333 45.5171 95.6005 52.8988 93.0853 60.0463C81.1754 61.3174 69.3115 62.5886 57.3328 62.7782C46.6633 62.9454 34.9946 63.0904 25.6689 58.0615Z" fill="#3D2614"/>
<path d="M118.8 133.016H0C0 133.016 0.114867 131.388 0.413475 128.957C0.413475 128.634 0.505349 128.277 0.551289 127.92C1.01859 124.186 1.75932 120.49 2.76787 116.859C2.88272 116.491 2.98609 116.134 3.10094 115.744C3.59446 114.197 4.24861 112.702 5.05336 111.283C6.34017 109.494 7.96538 107.957 9.84258 106.756C10.2446 106.477 10.6695 106.188 11.1174 105.898C14.4471 103.773 17.9458 101.908 21.5802 100.322C22.2578 100.01 22.9584 99.7091 23.6589 99.408C28.9785 97.1674 34.4744 95.344 40.0939 93.9554L41.3228 93.6655C47.2385 92.241 53.3053 91.4925 59.4 91.4354C65.0524 91.477 70.683 92.1201 76.1909 93.3533L77.3394 93.6097C85.9983 95.6141 94.3608 98.6751 102.227 102.72L103.582 103.389C105.798 104.583 107.92 105.932 109.934 107.425C110.278 107.682 110.6 107.938 110.898 108.184C112.027 109.052 113.004 110.091 113.793 111.261C114.59 112.679 115.232 114.174 115.711 115.721L116.021 116.68C116.764 119.269 117.35 121.898 117.778 124.553C117.847 124.921 117.904 125.266 117.962 125.612C118.513 129.749 118.8 133.016 118.8 133.016Z" fill="#B7403D"/>
<path d="M77.3388 93.5873C76.0651 95.1674 74.509 96.512 72.7449 97.5569C67.4044 100.713 60.9843 101.002 54.9662 99.9654C51.8436 99.4611 48.7888 98.6196 45.8587 97.4566C43.7372 96.6256 41.7908 95.4238 40.1162 93.9107L41.3451 93.6208C43.1167 95.0755 45.1436 96.2086 47.3287 96.966C53.0712 99.0511 59.6865 100.311 65.7735 99.1069C69.8232 98.3966 73.5042 96.3718 76.2133 93.3643L77.3388 93.5873Z" fill="#892B2B"/>
<path d="M103.583 103.389C103.009 103.567 102.434 103.734 101.86 103.879C93.6271 106.01 85.1033 106.887 76.5932 106.477C67.9848 106.063 59.4095 105.151 50.913 103.746C42.2074 102.441 33.5018 101.047 24.6929 100.4C23.6822 100.322 22.6716 100.267 21.6494 100.222C22.327 99.9098 23.0276 99.6087 23.7282 99.3077C25.0375 99.3969 26.3352 99.4972 27.6215 99.6087C36.3271 100.367 44.9408 101.839 53.566 103.065C62.1831 104.464 70.8912 105.269 79.6253 105.474C83.9615 105.532 88.2961 105.271 92.5917 104.693C95.8716 104.228 99.1144 103.543 102.296 102.642L103.583 103.389Z" fill="#892B2B"/>
<path d="M110.852 108.195C109.21 108.741 107.591 109.31 106.04 109.99C101.63 111.763 97.3001 113.759 92.7865 115.275C88.2576 116.753 83.5601 117.689 78.7979 118.063C69.1621 118.832 59.4688 117.539 50.0856 115.587C40.335 113.58 30.7795 110.804 21.0518 108.73C17.3651 107.938 13.6325 107.247 9.87695 106.745C10.2789 106.466 10.7039 106.176 11.1518 105.886C15.7457 106.544 20.2249 107.459 24.704 108.485C34.4087 110.715 43.9986 113.458 53.8067 115.275C63.4311 117.07 73.4115 118.029 83.1622 116.546C87.9435 115.762 92.6147 114.441 97.0819 112.61C101.366 110.904 105.558 108.964 109.922 107.436C110.232 107.693 110.554 107.949 110.852 108.195Z" fill="#892B2B"/>
<path d="M115.974 116.647C109.152 117.461 102.503 119.992 95.9447 121.776C77.8967 126.601 58.895 126.984 40.6563 122.891C31.4684 120.817 22.4068 117.661 12.9432 116.803C9.55805 116.468 6.14502 116.502 2.76758 116.903C2.88243 116.535 2.9858 116.178 3.10065 115.788C7.17569 115.377 11.2873 115.452 15.3436 116.011C24.9105 117.271 34.041 120.471 43.4701 122.423C52.7777 124.309 62.2954 125.032 71.7919 124.575C81.2724 124.057 90.6524 122.417 99.7232 119.691C104.903 118.163 110.255 116.435 115.664 115.744L115.974 116.647Z" fill="#892B2B"/>
<path d="M25.1975 128.6C31.1136 129.75 36.9544 131.239 42.689 133.06H38.9909C33.4214 131.352 27.7281 130.052 21.9587 129.168C14.8153 128.199 7.57164 128.142 0.413086 129.001C0.413086 128.678 0.50496 128.321 0.550899 127.964C8.75368 126.993 17.0594 127.207 25.1975 128.6Z" fill="#892B2B"/>
<path d="M117.916 125.578C116.619 125.355 115.306 125.232 113.988 125.21C109.73 125.206 105.538 126.233 101.791 128.198C98.9432 129.626 96.2672 131.365 93.5453 133.015H91.501C92.3509 132.536 93.1893 132.023 94.0162 131.521C97.5955 129.099 101.449 127.082 105.501 125.511C109.418 124.2 113.611 123.859 117.698 124.519C117.801 124.887 117.859 125.232 117.916 125.578Z" fill="#892B2B"/>
<path d="M84.437 113.513C82.5555 117.227 79.4116 120.197 75.5362 121.921C74.43 122.406 73.2755 122.78 72.0907 123.036C72.0316 123.06 71.9835 123.104 71.9554 123.16C71.9273 123.216 71.9212 123.28 71.938 123.34C71.9549 123.4 71.9936 123.452 72.0471 123.486C72.1005 123.521 72.165 123.535 72.2285 123.527C76.4776 122.553 80.2528 120.191 82.921 116.836C83.6657 115.89 84.312 114.874 84.8505 113.803C84.9998 113.513 84.5404 113.257 84.3911 113.547L84.437 113.513Z" fill="#FFCB99"/>
<path d="M84.9995 117.293C83.4939 121.215 80.6587 124.522 76.9601 126.671C76.9131 126.71 76.8818 126.764 76.8717 126.823C76.8616 126.883 76.8733 126.944 76.9048 126.996C76.9363 127.047 76.9855 127.087 77.0439 127.107C77.1023 127.127 77.1661 127.127 77.2242 127.106C81.0218 124.878 83.9289 121.466 85.4704 117.427C85.5852 117.126 85.0799 116.992 84.9536 117.293H84.9995Z" fill="#FFCB99"/>
<path d="M84.3457 21.8107C79.2005 14.1502 69.3579 11.5745 59.4005 11.5745C49.4431 11.5745 39.6005 14.1502 34.4553 21.8107C24.027 37.3657 28.3338 68.0075 42.0353 78.2326C47.1241 81.6942 53.187 83.5511 59.4005 83.5511C65.614 83.5511 71.6769 81.6942 76.7657 78.2326C90.4787 68.0075 94.7855 37.3657 84.3457 21.8107Z" fill="#FFB8AE"/>
<path d="M90.4209 30.6201C87.8368 22.5583 82.3011 15.1543 74.5028 11.4077C65.7169 7.1816 55.0474 8.0625 45.9973 11.6753C38.1646 14.842 31.0669 20.1832 27.0472 27.4311C23.0275 34.6789 22.4532 43.9116 26.5533 51.1037L28.0004 51.1818C33.9657 44.5419 37.809 36.3584 39.0604 27.6318C41.9055 29.4451 45.1301 30.622 48.501 31.0773L46.5026 28.6799C52.5982 32.0293 59.684 33.2715 66.6012 32.2035L65.246 30.1741C70.9072 32.7639 77.3111 33.3935 83.3922 31.9582C83.1643 40.5854 86.0668 49.0159 91.5924 55.7758C93.028 47.4463 92.9935 38.7154 90.4209 30.6201Z" fill="#3D2614"/>
<path d="M73.5611 48.4829C73.5611 49.0651 73.3833 49.6343 73.0501 50.1184C72.717 50.6025 72.2434 50.9798 71.6894 51.2026C71.1354 51.4254 70.5257 51.4837 69.9376 51.3701C69.3494 51.2565 68.8092 50.9762 68.3851 50.5645C67.9611 50.1528 67.6723 49.6283 67.5553 49.0572C67.4383 48.4862 67.4984 47.8943 67.7279 47.3564C67.9573 46.8185 68.346 46.3588 68.8446 46.0353C69.3432 45.7118 69.9294 45.5392 70.5291 45.5392C71.3332 45.5392 72.1044 45.8493 72.6731 46.4014C73.2417 46.9534 73.5611 47.7022 73.5611 48.4829Z" fill="black"/>
<path d="M70.2767 47.4908C70.291 47.614 70.2784 47.7389 70.2397 47.857C70.2009 47.9752 70.1369 48.0841 70.0518 48.1766C69.9666 48.2691 69.8624 48.3431 69.7458 48.3938C69.6292 48.4445 69.5028 48.4707 69.3751 48.4707C69.2473 48.4707 69.121 48.4445 69.0044 48.3938C68.8878 48.3431 68.7836 48.2691 68.6985 48.1766C68.6134 48.0841 68.5493 47.9752 68.5106 47.857C68.4718 47.7389 68.4592 47.614 68.4735 47.4908C68.4986 47.2757 68.6043 47.077 68.7706 46.9328C68.9369 46.7886 69.1521 46.7089 69.3751 46.7089C69.5981 46.7089 69.8133 46.7886 69.9796 46.9328C70.1458 47.077 70.2516 47.2757 70.2767 47.4908Z" fill="white"/>
<path d="M51.3033 48.4829C51.3033 49.0651 51.1254 49.6343 50.7923 50.1184C50.4591 50.6025 49.9856 50.9798 49.4316 51.2026C48.8775 51.4254 48.2679 51.4837 47.6797 51.3701C47.0916 51.2565 46.5513 50.9762 46.1273 50.5645C45.7033 50.1528 45.4145 49.6283 45.2975 49.0572C45.1805 48.4862 45.2406 47.8943 45.4701 47.3564C45.6995 46.8185 46.0882 46.3588 46.5868 46.0353C47.0854 45.7118 47.6716 45.5392 48.2713 45.5392C49.0754 45.5392 49.8466 45.8493 50.4152 46.4014C50.9838 46.9534 51.3033 47.7022 51.3033 48.4829Z" fill="black"/>
<path d="M48.0414 47.4909C48.0384 47.7236 47.9419 47.946 47.7724 48.1106C47.6029 48.2752 47.3738 48.3689 47.1341 48.3718C46.8955 48.3688 46.6676 48.2747 46.5 48.1099C46.3323 47.945 46.2383 47.7226 46.2383 47.4909C46.2383 47.2602 46.3327 47.039 46.5007 46.8759C46.6687 46.7128 46.8965 46.6212 47.1341 46.6212C47.3728 46.6211 47.6018 46.7124 47.7717 46.8752C47.9415 47.038 48.0384 47.2592 48.0414 47.4909Z" fill="white"/>
<path d="M56.7354 58.7863C56.6335 58.7851 56.5348 58.7519 56.454 58.6916C56.3732 58.6313 56.3148 58.5471 56.2875 58.4518C55.4031 55.4858 56.4368 54.4822 57.436 54.1589C58.0784 54.0247 58.7431 54.026 59.385 54.1626C60.0269 54.2992 60.6312 54.5679 61.157 54.9505C61.218 54.9775 61.2724 55.0167 61.3165 55.0657C61.3607 55.1147 61.3935 55.1722 61.4129 55.2345C61.4323 55.2968 61.4378 55.3624 61.4289 55.4269C61.4201 55.4914 61.3972 55.5533 61.3618 55.6085C61.3263 55.6637 61.2792 55.711 61.2234 55.7471C61.1677 55.7832 61.1046 55.8073 61.0385 55.8179C60.9723 55.8284 60.9047 55.8251 60.8399 55.8082C60.7752 55.7914 60.715 55.7612 60.6632 55.7199C60.2545 55.4077 59.7816 55.1844 59.2763 55.0651C58.771 54.9459 58.2452 54.9334 57.7345 55.0286C56.8043 55.3185 56.5861 56.389 57.1603 58.2065C57.1777 58.2636 57.1832 58.3235 57.1764 58.3827C57.1696 58.4419 57.1506 58.4992 57.1207 58.5511C57.0907 58.6031 57.0503 58.6487 57.0019 58.6853C56.9535 58.7218 56.898 58.7486 56.8387 58.764L56.7354 58.7863Z" fill="#C16B5B"/>
<path d="M77.3512 38.5702C75.6617 37.5868 73.7746 36.9665 71.8172 36.751C69.8598 36.5356 67.8775 36.7301 66.0041 37.3214C65.6689 37.4175 65.3855 37.6366 65.214 37.9322C65.0425 38.2278 64.9963 38.5766 65.0853 38.9047C65.1817 39.2318 65.4069 39.5087 65.7122 39.6757C66.0174 39.8427 66.3781 39.8862 66.7162 39.7968C68.2481 39.2936 69.875 39.1226 71.4823 39.296C73.0896 39.4694 74.6382 39.9829 76.019 40.8003C76.321 40.9394 76.6658 40.9631 76.985 40.8669C77.3043 40.7706 77.5745 40.5613 77.7422 40.2806C77.9099 39.9998 77.9628 39.6682 77.8904 39.3513C77.818 39.0345 77.6255 38.7557 77.3512 38.5702Z" fill="black"/>
<path d="M42.1497 38.5702C43.8393 37.5868 45.7263 36.9665 47.6837 36.751C49.6411 36.5356 51.6234 36.7301 53.4968 37.3214C53.8324 37.4176 54.1167 37.6362 54.2901 37.9313C54.4635 38.2265 54.5126 38.5753 54.4271 38.9047C54.3307 39.2318 54.1054 39.5087 53.8002 39.6757C53.4949 39.8427 53.1342 39.8862 52.7962 39.7968C51.2644 39.2928 49.6374 39.1215 48.0299 39.2949C46.4225 39.4683 44.8739 39.9822 43.4934 40.8003C43.1901 40.9533 42.8379 40.9873 42.5095 40.8953C42.1811 40.8032 41.9018 40.5921 41.7292 40.3057C41.5566 40.0193 41.504 39.6794 41.5823 39.3564C41.6605 39.0334 41.8637 38.7519 42.1497 38.5702Z" fill="black"/>
<path d="M66.5094 62.5776C65.6251 61.2952 63.3625 62.6779 60.6521 62.9232C57.9417 63.1686 55.4724 62.1984 54.8408 63.6146C54.0598 65.4098 56.7932 69.4352 61.2379 69.0449C65.6825 68.6546 67.612 64.1944 66.5094 62.5776Z" fill="#8E4136"/>
<path d="M66.3941 65.4767C65.4825 65.4389 64.5693 65.4612 63.6607 65.5436C60.5139 65.8223 57.9183 66.6586 56.6895 67.7068C57.3194 68.2265 58.0511 68.6169 58.8407 68.8546C59.6302 69.0922 60.4612 69.1721 61.2834 69.0895C62.3907 68.9876 63.4493 68.5984 64.3485 67.9628C65.2477 67.3272 65.9542 66.4685 66.3941 65.4767Z" fill="#C16B5B"/>
<path d="M60.801 64.3613C63.2129 64.1495 65.2227 63.4024 65.8544 62.0755C64.7059 61.7521 62.8453 62.6887 60.6517 62.8894C58.4581 63.0901 56.4252 62.488 55.3916 63.0009C56.2645 64.2387 58.3777 64.6178 60.801 64.3613Z" fill="white"/>
<path d="M100.137 60.8381C96.3927 65.1756 90.4894 66.3464 86.9406 63.4584C83.3917 60.5704 83.564 54.7275 87.3081 50.39C91.0522 46.0524 96.9554 44.8816 100.504 47.7696C104.053 50.6576 103.835 56.5562 100.137 60.8381Z" fill="#FFB8AE"/>
<path d="M98.0127 49.8656C97.1218 49.4608 96.1474 49.2593 95.1639 49.2767C94.1805 49.2941 93.2142 49.5299 92.3391 49.966C91.4792 50.3167 90.7303 50.8823 90.1685 51.6051C89.8551 52.0113 89.6484 52.4857 89.5663 52.9869C89.4843 53.4882 89.5293 54.0014 89.6976 54.482C90.0453 55.2011 90.5846 55.817 91.2596 56.2661C91.6664 56.5468 92.02 56.8939 92.3047 57.2919C92.4737 57.5851 92.543 57.9227 92.5027 58.2564C92.4624 58.5901 92.3145 58.9029 92.0802 59.1502C91.8459 59.3975 91.5371 59.5665 91.1979 59.6333C90.8587 59.7001 90.5065 59.6611 90.1915 59.522C90.1048 59.4827 90.011 59.4605 89.9155 59.4566C89.82 59.4528 89.7246 59.4673 89.6349 59.4995C89.5451 59.5316 89.4629 59.5807 89.3928 59.6439C89.3228 59.7071 89.2663 59.7832 89.2267 59.8677C89.1446 60.0392 89.1359 60.2354 89.2027 60.4131C89.2695 60.5909 89.4062 60.7356 89.5828 60.8155C89.983 60.9924 90.4178 61.0837 90.8576 61.0831C91.4071 61.0921 91.9491 60.9586 92.4277 60.6963C92.9064 60.4341 93.3043 60.0527 93.5805 59.5914C93.8567 59.1301 94.0012 58.6056 93.999 58.072C93.9968 57.5385 93.848 57.0151 93.568 56.556C93.1994 56.0042 92.7281 55.524 92.1784 55.1398C91.6977 54.8429 91.3025 54.4324 91.0299 53.9467C90.9523 53.6854 90.9389 53.4101 90.9908 53.1429C91.0426 52.8756 91.1583 52.6239 91.3285 52.4079C91.482 52.1992 91.668 52.0149 91.8798 51.8616C92.6433 51.8284 93.391 52.0797 93.97 52.5641C94.2286 52.842 94.4204 53.1722 94.5316 53.5309C94.6428 53.8896 94.6707 54.2677 94.6132 54.6381C94.5798 54.8244 94.624 55.0159 94.7359 55.1706C94.8479 55.3253 95.0185 55.4305 95.2104 55.4632H95.3367C95.5091 55.4609 95.6753 55.4008 95.8071 55.2931C95.939 55.1854 96.0285 55.0367 96.0603 54.8722C96.1542 54.2889 96.1121 53.6926 95.9372 53.1272C95.7623 52.5618 95.459 52.0416 95.0496 51.6051C94.7244 51.2868 94.3328 51.0397 93.9011 50.8803C94.9994 50.543 96.1881 50.6186 97.2317 51.0922C97.8436 51.3905 98.3243 51.8928 98.5858 52.5071C98.8473 53.1215 98.8722 53.8067 98.6558 54.4374C98.6154 54.5215 98.5925 54.6125 98.5885 54.7053C98.5846 54.7981 98.5996 54.8907 98.6327 54.9778C98.6658 55.0649 98.7163 55.1447 98.7814 55.2127C98.8465 55.2807 98.9248 55.3356 99.0119 55.374C99.1885 55.4538 99.3906 55.4622 99.5737 55.3974C99.7567 55.3325 99.9058 55.1998 99.9881 55.0283C100.364 54.0819 100.37 53.0348 100.007 52.0841C99.6428 51.1333 98.9337 50.3443 98.0127 49.8656Z" fill="#C16B5B"/>
<path d="M18.7095 60.8381C22.4536 65.1756 28.3568 66.3464 31.9056 63.4584C35.4545 60.5704 35.2822 54.7275 31.5381 50.39C27.794 46.0524 21.8908 44.8816 18.3419 47.7696C14.7931 50.6576 14.9654 56.5562 18.7095 60.8381Z" fill="#FFB8AE"/>
<path d="M20.7875 49.8656C21.6783 49.4608 22.6528 49.2593 23.6362 49.2767C24.6197 49.2941 25.586 49.5299 26.461 49.966C27.319 50.3199 28.0671 50.8849 28.6317 51.6051C28.9451 52.0113 29.1518 52.4857 29.2338 52.9869C29.3159 53.4882 29.2708 54.0014 29.1025 54.482C28.7548 55.2011 28.2156 55.817 27.5406 56.2661C27.1338 56.5468 26.7802 56.8939 26.4955 57.2919C26.3265 57.5851 26.2572 57.9227 26.2975 58.2564C26.3378 58.5901 26.4857 58.9029 26.72 59.1502C26.9543 59.3975 27.2631 59.5665 27.6023 59.6333C27.9414 59.7001 28.2937 59.6611 28.6087 59.522C28.6953 59.4827 28.7891 59.4605 28.8847 59.4566C28.9802 59.4528 29.0756 59.4673 29.1653 59.4995C29.255 59.5316 29.3373 59.5807 29.4073 59.6439C29.4774 59.7071 29.5338 59.7832 29.5734 59.8677C29.6556 60.0392 29.6643 60.2354 29.5975 60.4131C29.5307 60.5909 29.394 60.7356 29.2174 60.8155C28.8171 60.9924 28.3824 61.0837 27.9426 61.0831C27.3931 61.0921 26.8511 60.9586 26.3724 60.6963C25.8938 60.4341 25.4958 60.0527 25.2197 59.5914C24.9435 59.1301 24.799 58.6056 24.8012 58.072C24.8034 57.5385 24.9522 57.0151 25.2321 56.556C25.6008 56.0042 26.072 55.524 26.6218 55.1398C27.1025 54.8429 27.4977 54.4324 27.7703 53.9467C27.8479 53.6854 27.8613 53.4101 27.8094 53.1429C27.7575 52.8756 27.6419 52.6239 27.4717 52.4079C27.3182 52.1992 27.1322 52.0149 26.9204 51.8616C26.1569 51.8284 25.4092 52.0797 24.8302 52.5641C24.5716 52.842 24.3798 53.1722 24.2686 53.5309C24.1573 53.8896 24.1295 54.2677 24.187 54.6381C24.2204 54.8244 24.1762 55.0159 24.0642 55.1706C23.9522 55.3253 23.7816 55.4305 23.5898 55.4632H23.4634C23.2899 55.4653 23.1213 55.4068 22.9885 55.2983C22.8557 55.1898 22.7674 55.0386 22.7399 54.8722C22.646 54.2889 22.688 53.6926 22.8629 53.1272C23.0379 52.5618 23.3412 52.0416 23.7506 51.6051C24.0758 51.2868 24.4674 51.0397 24.8991 50.8803C23.8008 50.543 22.612 50.6186 21.5684 51.0922C20.9566 51.3905 20.4759 51.8928 20.2144 52.5071C19.9528 53.1215 19.928 53.8067 20.1443 54.4374C20.1848 54.5215 20.2076 54.6125 20.2116 54.7053C20.2156 54.7981 20.2006 54.8907 20.1675 54.9778C20.1344 55.0649 20.0838 55.1447 20.0187 55.2127C19.9536 55.2807 19.8753 55.3356 19.7883 55.374C19.6116 55.4538 19.4095 55.4622 19.2265 55.3974C19.0434 55.3325 18.8944 55.1998 18.8121 55.0283C18.4363 54.0819 18.4297 53.0348 18.7935 52.0841C19.1573 51.1333 19.8665 50.3443 20.7875 49.8656Z" fill="#C16B5B"/>
<path d="M78.798 76.4598L59.4 77.5749L40.002 76.4598C46.3761 80.2733 45.9396 92.6282 45.9396 92.6282C49.1095 95.9733 59.4 95.9733 59.4 95.9733C59.4 95.9733 69.7364 95.9733 72.8718 92.6282C72.8718 92.6282 72.4239 80.2733 78.798 76.4598Z" fill="#FFB8AE"/>
</svg>
