<svg width="119" height="132" viewBox="0 0 119 132" fill="none" xmlns="http://www.w3.org/2000/svg">
<path d="M99.0388 34.8286C98.1509 30.0912 96.1822 25.5802 93.2622 21.5922C90.3422 17.6043 86.537 14.2297 82.0968 11.6902C77.6566 9.15079 72.682 7.50408 67.5 6.85837C62.318 6.21266 57.046 6.58253 52.0306 7.94374C52.2361 3.65181 47.6015 0.0105215 42.8983 2.78223e-05C38.1952 -0.0104659 33.9716 2.94875 31.6543 6.68451C29.3369 10.4203 28.6863 14.8276 28.5835 19.13C27.4375 18.9649 26.2642 19.1471 25.2408 19.6492C24.2174 20.1513 23.3996 20.946 22.911 21.9131C22.4223 22.8802 22.2894 23.9673 22.5322 25.01C22.7751 26.0527 23.3806 26.9945 24.2571 27.6929C21.6557 34.4508 20.9395 41.7005 22.1739 48.7787C23.4084 55.8569 26.5541 62.5374 31.3232 68.2091L91.539 61.8499C94.7639 58.0727 97.0965 53.7187 98.3878 49.0661C99.6792 44.4135 99.9009 39.5644 99.0388 34.8286Z" fill="#3D2614"/>
<path d="M83.8344 28.4274C78.7203 21.2182 68.9374 18.7837 59.0403 18.7837C49.1433 18.7837 39.3604 21.2182 34.2463 28.4274C23.8812 43.0556 28.1619 71.9029 41.7804 81.5256C46.8408 84.7775 52.866 86.5215 59.0403 86.5215C65.2147 86.5215 71.2399 84.7775 76.3003 81.5256C89.9302 71.9029 94.2109 43.0556 83.8344 28.4274Z" fill="#754623"/>
<path d="M27.7051 56.1311C31.9763 49.9096 33.6398 42.4724 32.3854 35.2066C33.677 35.18 34.9169 34.7348 35.886 33.9495C36.8552 33.1642 37.4913 32.0893 37.6821 30.9147C47.6158 32.7275 57.9267 31.2636 66.8025 26.7802C67.3533 27.974 68.3894 28.9229 69.6901 29.4247C70.9908 29.9265 72.4533 29.9415 73.7659 29.4666C74.1635 31.2844 75.2686 32.9065 76.8742 34.0289C78.4797 35.1512 80.4754 35.6968 82.4872 35.5634C81.1449 39.3623 81.1914 43.4607 82.6197 47.2331C84.0481 51.0054 86.7798 54.2446 90.398 56.4564C90.8318 50.9262 91.3569 45.1546 90.398 39.6664C89.5968 34.1351 87.0443 28.9422 83.058 24.7339C76.6768 18.4377 66.6884 16.1606 57.3393 16.5908C47.6591 17.042 37.6365 20.4315 31.8375 27.5777C28.6888 31.6603 26.7851 36.4428 26.3239 41.4294C25.7759 46.3614 26.6777 51.2095 27.7051 56.1311Z" fill="#3D2614"/>
<path d="M73.1262 53.518C73.1285 54.0685 72.953 54.6071 72.622 55.0658C72.291 55.5245 71.8193 55.8825 71.2668 56.0946C70.7142 56.3067 70.1056 56.3633 69.5181 56.2572C68.9305 56.1511 68.3904 55.887 67.9662 55.4986C67.542 55.1101 67.2528 54.6146 67.1351 54.0749C67.0175 53.5352 67.0767 52.9755 67.3053 52.4668C67.534 51.958 67.9217 51.5231 68.4194 51.2171C68.9171 50.9111 69.5024 50.7477 70.1012 50.7477C70.9015 50.7477 71.6692 51.0392 72.2362 51.5585C72.8032 52.0777 73.1232 52.7823 73.1262 53.518Z" fill="black"/>
<path d="M69.8505 52.5943C69.8505 52.7583 69.7976 52.9186 69.6985 53.0549C69.5994 53.1912 69.4586 53.2975 69.2938 53.3602C69.129 53.423 68.9477 53.4394 68.7727 53.4074C68.5978 53.3754 68.4371 53.2964 68.311 53.1805C68.1849 53.0646 68.099 52.9169 68.0642 52.756C68.0294 52.5952 68.0473 52.4285 68.1155 52.2771C68.1838 52.1256 68.2993 51.9961 68.4476 51.905C68.596 51.814 68.7703 51.7653 68.9487 51.7653C69.0675 51.7639 69.1855 51.7844 69.2956 51.8256C69.4057 51.8667 69.5057 51.9277 69.5898 52.005C69.6738 52.0823 69.7402 52.1742 69.785 52.2754C69.8297 52.3766 69.852 52.4851 69.8505 52.5943Z" fill="white"/>
<path d="M50.9921 53.518C50.9921 54.066 50.8154 54.6016 50.4842 55.0572C50.1531 55.5127 49.6824 55.8678 49.1317 56.0775C48.5811 56.2872 47.9751 56.342 47.3905 56.2351C46.8059 56.1282 46.269 55.8644 45.8475 55.477C45.426 55.0895 45.139 54.5959 45.0227 54.0585C44.9065 53.5211 44.9662 52.9641 45.1943 52.4579C45.4223 51.9517 45.8086 51.519 46.3042 51.2146C46.7998 50.9102 47.3824 50.7477 47.9785 50.7477C48.7777 50.7477 49.5443 51.0396 50.1094 51.5591C50.6746 52.0787 50.9921 52.7833 50.9921 53.518Z" fill="black"/>
<path d="M47.7499 52.5943C47.7499 52.7583 47.697 52.9186 47.5979 53.0549C47.4988 53.1912 47.358 53.2975 47.1932 53.3602C47.0284 53.423 46.8471 53.4394 46.6722 53.4074C46.4973 53.3754 46.3365 53.2964 46.2104 53.1805C46.0843 53.0646 45.9984 52.9169 45.9636 52.756C45.9288 52.5952 45.9467 52.4285 46.015 52.2771C46.0832 52.1256 46.1988 51.9961 46.3471 51.905C46.4954 51.814 46.6698 51.7653 46.8481 51.7653C46.967 51.7639 47.0849 51.7844 47.195 51.8256C47.3051 51.8667 47.4052 51.9277 47.4892 52.005C47.5733 52.0823 47.6396 52.1742 47.6844 52.2754C47.7292 52.3766 47.7515 52.4851 47.7499 52.5943Z" fill="white"/>
<path d="M56.3918 63.235C56.2905 63.2339 56.1924 63.2026 56.1121 63.1458C56.0318 63.089 55.9737 63.0099 55.9466 62.9202C55.0676 60.1289 56.095 59.1844 57.0881 58.8801C57.7264 58.7489 58.3882 58.7476 59.0271 58.8763C59.666 59.005 60.2665 59.2606 60.7867 59.6251C60.8392 59.6541 60.8848 59.6925 60.9208 59.738C60.9568 59.7835 60.9825 59.8353 60.9964 59.8901C61.0102 59.9449 61.0119 60.0017 61.0014 60.0571C60.9909 60.1126 60.9683 60.1655 60.9351 60.2128C60.8674 60.306 60.7636 60.372 60.6448 60.3973C60.5261 60.4227 60.4013 60.4054 60.2958 60.3492C59.8897 60.0554 59.4195 59.8452 58.9173 59.733C58.4151 59.6207 57.8925 59.609 57.3849 59.6986C56.4602 59.9609 56.2434 60.9684 56.8141 62.6893C56.8314 62.7431 56.8369 62.7994 56.8301 62.8551C56.8233 62.9109 56.8045 62.9648 56.7747 63.0137C56.7449 63.0626 56.7048 63.1055 56.6567 63.1399C56.6085 63.1743 56.5534 63.1995 56.4945 63.214L56.3918 63.235Z" fill="#522E13"/>
<path d="M76.8816 44.1995C75.2031 43.2723 73.3279 42.6866 71.3824 42.4821C69.4368 42.2775 67.4662 42.4588 65.6033 43.0137C65.2718 43.1064 64.9919 43.313 64.8219 43.5905C64.6518 43.868 64.6046 44.1951 64.6901 44.5038C64.7835 44.8135 65.0063 45.0767 65.31 45.2359C65.6137 45.3951 65.9735 45.4375 66.311 45.3538C67.8333 44.8815 69.4495 44.7204 71.0465 44.8817C72.6435 45.043 74.183 45.5229 75.5574 46.2877C75.8587 46.4492 76.2173 46.4939 76.5545 46.4123C76.8917 46.3306 77.1798 46.1292 77.3554 45.8522C77.531 45.5753 77.5797 45.2456 77.4908 44.9357C77.402 44.6257 77.1829 44.3609 76.8816 44.1995Z" fill="#3D2614"/>
<path d="M41.8949 44.1995C43.5734 43.2723 45.4486 42.6866 47.3941 42.4821C49.3397 42.2775 51.3104 42.4588 53.1732 43.0137C53.5052 43.1065 53.786 43.3126 53.9579 43.5897C54.1299 43.8668 54.18 44.1939 54.0979 44.5038C54.0019 44.812 53.7785 45.0734 53.4757 45.2322C53.1728 45.3911 52.8143 45.4347 52.4769 45.3538C50.9546 44.8815 49.3385 44.7204 47.7415 44.8817C46.1444 45.043 44.6049 45.5229 43.2305 46.2877C43.0813 46.3684 42.9164 46.4212 42.745 46.4432C42.5736 46.4652 42.3992 46.456 42.2318 46.416C42.0643 46.3761 41.907 46.3062 41.7689 46.2103C41.6308 46.1145 41.5146 45.9946 41.4269 45.8575C41.3392 45.7204 41.2817 45.5687 41.2578 45.4112C41.2338 45.2537 41.2439 45.0934 41.2874 44.9394C41.3308 44.7854 41.4068 44.6408 41.5111 44.5139C41.6153 44.3869 41.7458 44.2801 41.8949 44.1995Z" fill="#3D2614"/>
<path d="M66.1059 66.7924C65.2269 65.5856 62.9781 66.8869 60.2841 67.1072C57.59 67.3276 55.1358 66.4356 54.5079 67.7683C53.7317 69.4473 56.4485 73.2461 60.8662 72.8788C65.284 72.5115 67.2017 68.314 66.1059 66.7924Z" fill="#8E4136"/>
<path d="M65.9916 69.4789C65.0855 69.4434 64.1778 69.4644 63.2747 69.5419C60.147 69.8042 57.5671 70.5913 56.3457 71.5777C56.9718 72.0667 57.6991 72.4341 58.4839 72.6578C59.2687 72.8814 60.0946 72.9566 60.9118 72.8789C62.0117 72.7808 63.0628 72.4137 63.9561 71.8158C64.8495 71.2179 65.5523 70.411 65.9916 69.4789Z" fill="#C16B5B"/>
<path d="M60.4333 68.5028C62.8305 68.3034 64.8282 67.6003 65.456 66.3411C64.3145 66.0472 62.4652 66.9287 60.2849 67.1071C58.1045 67.2855 56.084 66.7398 55.0566 67.2225C55.9242 68.3559 58.0246 68.7022 60.4333 68.5028Z" fill="white"/>
<path d="M99.5296 65.1556C95.8082 69.2271 89.9407 70.3395 86.4134 67.6216C82.8861 64.9037 83.0573 59.3945 86.7786 55.323C90.5 51.2514 96.3675 50.1286 99.8949 52.8465C103.422 55.5643 103.205 61.0735 99.5296 65.1556Z" fill="#754623"/>
<path d="M97.418 54.8504C96.5326 54.4694 95.564 54.2798 94.5865 54.2961C93.609 54.3125 92.6486 54.5344 91.7788 54.9448C90.9242 55.2749 90.1798 55.8071 89.6214 56.4874C89.3098 56.8697 89.1044 57.3161 89.0228 57.7878C88.9413 58.2596 88.9861 58.7425 89.1533 59.1947C89.4989 59.8715 90.0349 60.4512 90.7058 60.8737C91.1102 61.1379 91.4616 61.4646 91.7446 61.8392C91.9126 62.1151 91.9815 62.4328 91.9414 62.7468C91.9013 63.0609 91.7543 63.3553 91.5214 63.588C91.2885 63.8207 90.9816 63.9798 90.6445 64.0427C90.3074 64.1055 89.9573 64.0689 89.6442 63.9379C89.5581 63.901 89.4649 63.88 89.3699 63.8764C89.2749 63.8728 89.1801 63.8865 89.091 63.9167C89.0018 63.947 88.92 63.9932 88.8504 64.0526C88.7808 64.1121 88.7247 64.1837 88.6853 64.2632C88.6036 64.4247 88.5951 64.6093 88.6614 64.7765C88.7278 64.9438 88.8636 65.08 89.0392 65.1552C89.4378 65.3184 89.87 65.4007 90.3063 65.3965C90.8525 65.405 91.3912 65.2793 91.8669 65.0326C92.3427 64.7858 92.7382 64.4269 93.0127 63.9927C93.2872 63.5586 93.4308 63.065 93.4286 62.5629C93.4264 62.0607 93.2786 61.5682 93.0003 61.1361C92.6305 60.6223 92.1626 60.1743 91.6191 59.8139C91.1435 59.5321 90.7513 59.1463 90.4775 58.6911C90.3995 58.4452 90.3857 58.186 90.4373 57.9343C90.4889 57.6827 90.6043 57.4458 90.7743 57.2429C90.9269 57.0465 91.1117 56.873 91.3222 56.7287C92.082 56.6921 92.8273 56.9293 93.3998 57.3899C93.6575 57.651 93.8486 57.9618 93.9592 58.2994C94.0698 58.6371 94.0971 58.9931 94.0391 59.3417C94.0228 59.4279 94.0252 59.5162 94.0463 59.6015C94.0673 59.6868 94.1066 59.7674 94.1618 59.8387C94.217 59.9099 94.2871 59.9704 94.3679 60.0166C94.4487 60.0628 94.5387 60.0937 94.6327 60.1077H94.7583C94.9295 60.1056 95.0947 60.049 95.2258 59.9476C95.3569 59.8463 95.4458 59.7063 95.4774 59.5516C95.5716 59.0026 95.5302 58.4412 95.3563 57.909C95.1824 57.3767 94.8805 56.8873 94.4729 56.4769C94.1533 56.1706 93.7633 55.934 93.3313 55.7843C94.4252 55.4763 95.6043 55.551 96.6418 55.9942C97.2499 56.2749 97.7277 56.7476 97.9876 57.3258C98.2476 57.9039 98.2723 58.5488 98.0573 59.1423C98.017 59.2215 97.9943 59.3071 97.9904 59.3944C97.9864 59.4817 98.0013 59.5689 98.0342 59.6509C98.0671 59.7328 98.1174 59.808 98.1821 59.872C98.2468 59.936 98.3246 59.9876 98.4111 60.0238C98.5867 60.0988 98.7876 60.1068 98.9695 60.0458C99.1515 59.9848 99.2996 59.8598 99.3814 59.6985C99.7517 58.8091 99.7566 57.8262 99.3952 56.9337C99.0337 56.0413 98.3308 55.3006 97.418 54.8504Z" fill="#522E13"/>
<path d="M18.5961 65.1556C22.3174 69.2271 28.1849 70.3395 31.7123 67.6216C35.2396 64.9037 35.0683 59.3945 31.347 55.323C27.6256 51.2514 21.7581 50.1286 18.2308 52.8465C14.7034 55.5643 14.8747 61.0735 18.5961 65.1556Z" fill="#754623"/>
<path d="M20.6617 54.8504C21.5472 54.4694 22.5157 54.2798 23.4932 54.2961C24.4707 54.3125 25.4311 54.5344 26.3009 54.9448C27.1536 55.2779 27.8972 55.8096 28.4583 56.4874C28.7699 56.8697 28.9753 57.3161 29.0569 57.7878C29.1384 58.2596 29.0936 58.7425 28.9264 59.1947C28.5808 59.8715 28.0448 60.4512 27.3739 60.8737C26.9695 61.1379 26.6181 61.4646 26.3351 61.8392C26.1671 62.1151 26.0982 62.4328 26.1383 62.7468C26.1784 63.0609 26.3254 63.3553 26.5583 63.588C26.7912 63.8207 27.0981 63.9798 27.4352 64.0427C27.7723 64.1055 28.1224 64.0689 28.4355 63.9379C28.5216 63.901 28.6148 63.88 28.7098 63.8764C28.8048 63.8728 28.8996 63.8865 28.9887 63.9167C29.0779 63.947 29.1597 63.9932 29.2293 64.0526C29.2989 64.1121 29.355 64.1837 29.3944 64.2632C29.4761 64.4247 29.4847 64.6093 29.4183 64.7765C29.352 64.9438 29.2161 65.08 29.0405 65.1552C28.6419 65.3184 28.2098 65.4007 27.7734 65.3965C27.2273 65.405 26.6885 65.2793 26.2128 65.0326C25.7371 64.7858 25.3415 64.4269 25.067 63.9927C24.7925 63.5586 24.6489 63.065 24.6511 62.5629C24.6533 62.0607 24.8011 61.5682 25.0794 61.1361C25.4492 60.6223 25.9171 60.1743 26.4607 59.8139C26.9362 59.5321 27.3284 59.1463 27.6022 58.6911C27.6802 58.4452 27.694 58.186 27.6424 57.9343C27.5908 57.6827 27.4754 57.4458 27.3054 57.2429C27.1528 57.0465 26.968 56.873 26.7575 56.7287C25.9977 56.6921 25.2524 56.9293 24.6799 57.3899C24.4222 57.651 24.2311 57.9618 24.1205 58.2994C24.0099 58.6371 23.9826 58.9931 24.0406 59.3417C24.0569 59.4279 24.0545 59.5162 24.0334 59.6015C24.0124 59.6868 23.9731 59.7674 23.9179 59.8387C23.8627 59.9099 23.7926 59.9704 23.7118 60.0166C23.631 60.0628 23.541 60.0937 23.447 60.1077H23.3215C23.1502 60.1056 22.985 60.049 22.8539 59.9476C22.7228 59.8463 22.6339 59.7063 22.6023 59.5516C22.5081 59.0026 22.5495 58.4412 22.7234 57.909C22.8973 57.3767 23.1992 56.8873 23.6068 56.4769C23.9264 56.1706 24.3164 55.934 24.7484 55.7843C23.6545 55.4763 22.4754 55.551 21.4379 55.9942C20.8298 56.2749 20.352 56.7476 20.0921 57.3258C19.8321 57.9039 19.8074 58.5488 20.0225 59.1423C20.0627 59.2215 20.0854 59.3071 20.0893 59.3944C20.0933 59.4817 20.0784 59.5689 20.0455 59.6509C20.0126 59.7328 19.9623 59.808 19.8976 59.872C19.8329 59.936 19.7551 59.9876 19.6686 60.0238C19.493 60.0988 19.2921 60.1068 19.1102 60.0458C18.9282 59.9848 18.7801 59.8598 18.6983 59.6985C18.328 58.8091 18.3231 57.8262 18.6846 56.9337C19.046 56.0413 19.7489 55.3006 20.6617 54.8504Z" fill="#522E13"/>
<path d="M78.3207 79.8572L59.0402 80.9065L39.7598 79.8572C46.0953 83.4355 45.6615 95.073 45.6615 95.073C48.8121 98.2211 59.0402 98.2211 59.0402 98.2211C59.0402 98.2211 69.314 98.2211 72.4304 95.073C72.4304 95.073 71.9852 83.4355 78.3207 79.8572Z" fill="#754623"/>
<path d="M113.046 112.618C109.108 106.322 82.2245 93.887 59.04 93.887C35.8555 93.887 8.97244 106.343 5.03416 112.618C1.09587 118.893 0 133.06 0 133.06H118.08C118.08 133.06 116.996 118.883 113.046 112.618Z" fill="#583D71"/>
<path d="M76.7908 89.4591C76.9165 88.6988 76.951 87.9281 76.8936 87.161C76.8672 86.7822 76.7515 86.4133 76.5543 86.0798C76.3572 85.7464 76.0834 85.4564 75.752 85.2301C74.6676 84.6215 73.2863 85.0517 72.0991 85.44C64.0484 88.045 55.3212 88.3124 47.0996 86.206C45.7671 85.7672 44.37 85.5161 42.9558 85.461C42.2456 85.4376 41.5416 85.5899 40.9172 85.9018C40.2927 86.2137 39.7708 86.6739 39.4057 87.2344C38.7322 88.4831 39.2344 89.9733 39.497 91.3479C39.9173 93.6122 39.6365 95.9394 38.6865 98.0639C41.2436 99.8688 44.5083 100.089 47.716 100.436C55.9464 101.325 64.2711 101.162 72.453 99.9528C74.56 99.7932 76.5375 98.953 78.0351 97.5812C76.969 94.9925 76.5439 92.2178 76.7908 89.4591Z" fill="#583D71"/>
<path d="M76.9967 98.8716C71.5479 100.749 65.7839 101.736 59.9651 101.789C58.3327 101.789 56.7003 101.736 55.0793 101.6C54.7483 101.6 54.7483 102.051 55.0793 102.083C60.9016 102.555 66.7689 102.093 72.4192 100.718C74.0155 100.331 75.5891 99.869 77.1337 99.3333C77.4419 99.2284 77.305 98.7667 76.9967 98.8716Z" fill="#362549"/>
<path d="M80.2155 119.471C76.8304 122.054 72.884 123.943 68.6404 125.011C67.4588 125.314 66.2579 125.549 65.0446 125.714C64.7136 125.714 64.8506 126.218 65.1816 126.176C70.8485 125.373 76.1735 123.176 80.5923 119.817C80.8434 119.618 80.4781 119.282 80.2155 119.471Z" fill="#362549"/>
<path d="M83.1375 119.628C79.2745 123.99 74.2257 127.335 68.5031 129.324C66.8988 129.884 65.2502 130.33 63.5716 130.657C63.2406 130.72 63.389 131.182 63.7086 131.119C69.7395 129.915 75.3211 127.277 79.8955 123.469C81.1957 122.393 82.4019 121.225 83.5028 119.975C83.7197 119.733 83.3544 119.387 83.1375 119.628Z" fill="#362549"/>
</svg>
