<svg width="119" height="132" viewBox="0 0 119 132" fill="none" xmlns="http://www.w3.org/2000/svg">
<path d="M103.974 78.6882C99.2487 70.7561 96.5324 59.7373 96.715 46.424C97.3199 2.73332 68.1823 -2.22862 59.7822 0.671665C59.4356 0.60167 59.0789 0.60167 58.7322 0.671665C50.1153 -2.12379 21.3543 3.00122 21.9592 46.4706C22.1418 59.7839 19.4255 70.8027 14.7004 78.7348C14.3162 79.3782 14.0623 80.0938 13.9537 80.839C13.845 81.5843 13.8839 82.3443 14.068 83.074C14.2521 83.8037 14.5776 84.4883 15.0254 85.0874C15.4731 85.6866 16.034 86.188 16.6749 86.5621C39.5011 99.9337 57.5452 99.3746 59.3371 99.2814C61.1175 99.3746 79.1274 99.9337 101.999 86.5621C102.645 86.1869 103.211 85.6829 103.661 85.08C104.112 84.4771 104.44 83.7877 104.624 83.0529C104.808 82.318 104.846 81.5529 104.734 80.803C104.622 80.0532 104.364 79.3339 103.974 78.6882Z" fill="#892B2B"/>
<path d="M84.069 16.9786C78.9559 8.97663 69.1749 6.28601 59.2797 6.28601C49.3846 6.28601 39.6035 8.97663 34.4904 16.9786C24.1273 33.2272 28.3958 65.2352 42.0231 75.9162C47.0801 79.5321 53.1051 81.4718 59.2797 81.4718C65.4544 81.4718 71.4794 79.5321 76.5363 75.9162C90.1522 65.2352 94.4321 33.2272 84.069 16.9786Z" fill="#FFB8AE"/>
<path d="M78.3396 73.994L59.0629 75.1588L39.7861 73.994C46.1204 77.9659 45.6753 90.8832 45.6753 90.8832C48.8367 94.3776 59.0629 94.3776 59.0629 94.3776C59.0629 94.3776 69.3347 94.3776 72.439 90.8832C72.439 90.8832 72.0053 77.9659 78.3396 73.994Z" fill="#FFB8AE"/>
<path d="M99.4884 57.6755C95.7678 62.1948 89.9014 63.4295 86.3748 60.4127C82.8481 57.3959 83.0193 51.2809 86.74 46.7499C90.4607 42.2189 96.327 40.9959 99.8537 44.0127C103.38 47.0295 103.209 53.2028 99.4884 57.6755Z" fill="#FFB8AE"/>
<path d="M98.1524 46.6222C97.6074 46.3363 97.0092 46.1719 96.3973 46.1397C95.7854 46.1076 95.1737 46.2085 94.6029 46.4358C92.4381 47.1727 90.6221 48.7102 89.5127 50.7455C89.437 50.8798 89.4167 51.0394 89.4563 51.189C89.4959 51.3387 89.5922 51.4661 89.7238 51.5433C89.8555 51.6206 90.0118 51.6413 90.1584 51.6008C90.3051 51.5604 90.4299 51.4622 90.5056 51.3278C91.3806 49.7667 92.7311 48.5398 94.3518 47.8335C95.2244 47.3759 96.2298 47.2559 97.1823 47.4958C97.5605 47.6075 97.889 47.8497 98.1117 48.1811C98.3344 48.5125 98.4375 48.9125 98.4035 49.3128C98.3122 50.0582 99.4535 50.0466 99.5448 49.3128C99.5907 48.7752 99.4838 48.2354 99.2368 47.7582C98.9899 47.281 98.6133 46.8866 98.1524 46.6222Z" fill="#754623"/>
<path d="M90.9394 52.9233C90.8341 53.0341 90.7752 53.1824 90.7752 53.3368C90.7752 53.4911 90.8341 53.6394 90.9394 53.7503L91.0079 53.8551C91.0427 53.9108 91.0733 53.9692 91.0992 54.0298C91.1029 54.0568 91.1029 54.0843 91.0992 54.1113C91.1234 54.1756 91.1425 54.2419 91.1562 54.3093V54.4258V54.6122C91.1619 54.6858 91.1619 54.7598 91.1562 54.8335C91.1562 54.8335 91.1562 54.9034 91.1562 54.95C91.1614 55.0081 91.1614 55.0666 91.1562 55.1247V55.2062C91.1344 55.2666 91.1077 55.325 91.0764 55.3809V55.4508V55.5091L91.0079 55.5789L90.8595 55.7187H90.8024L90.6084 55.8352C90.4789 55.913 90.3846 56.0398 90.3461 56.1881C90.3077 56.3364 90.3281 56.4942 90.403 56.6272C90.4814 56.7603 90.6077 56.8567 90.7549 56.8959C90.902 56.9351 91.0584 56.9139 91.1905 56.8369C91.5333 56.6537 91.8308 56.3932 92.0601 56.075C92.2895 55.7569 92.4447 55.3896 92.514 55.001C92.5834 54.6124 92.5649 54.2128 92.4602 53.8326C92.3554 53.4524 92.1671 53.1015 91.9095 52.8068C91.8492 52.7276 91.7699 52.6657 91.6793 52.627C91.5887 52.5882 91.4898 52.5741 91.3923 52.5858C91.2947 52.5975 91.2017 52.6347 91.1224 52.6938C91.0431 52.753 90.98 52.832 90.9394 52.9233Z" fill="#754623"/>
<path d="M18.6721 57.6755C22.3928 62.1948 28.2705 63.4295 31.7858 60.4127C35.301 57.3959 35.1526 51.2809 31.4319 46.7499C27.7113 42.2189 21.8336 40.9959 18.3183 44.0127C14.8031 47.0295 14.8944 53.2028 18.6721 57.6755Z" fill="#FFB8AE"/>
<path d="M28.6008 50.7455C27.4914 48.7102 25.6754 47.1727 23.5105 46.4358C22.9397 46.2085 22.3281 46.1076 21.7162 46.1397C21.1042 46.1719 20.506 46.3363 19.9611 46.6222C19.5094 46.8823 19.139 47.2675 18.8927 47.7333C18.6463 48.1991 18.534 48.7264 18.5687 49.2545C18.66 49.9884 19.8013 50 19.71 49.2545C19.6737 48.8538 19.776 48.4528 19.999 48.1209C20.222 47.7891 20.5518 47.5473 20.9312 47.4375C21.8837 47.1977 22.889 47.3176 23.7616 47.7753C25.3823 48.4816 26.7328 49.7085 27.6078 51.2696C27.6905 51.3738 27.8058 51.4458 27.9344 51.4733C28.063 51.5008 28.1969 51.4822 28.3136 51.4206C28.4303 51.359 28.5226 51.2582 28.5749 51.1352C28.6272 51.0122 28.6364 50.8745 28.6008 50.7455Z" fill="#754623"/>
<path d="M27.6654 55.952L27.46 55.8355L27.3116 55.6957L27.2431 55.6259V55.5676V55.4977L27.1518 55.323V55.2415C27.1466 55.1834 27.1466 55.1249 27.1518 55.0668C27.1475 55.0281 27.1475 54.989 27.1518 54.9503C27.1461 54.8766 27.1461 54.8026 27.1518 54.729V54.5426V54.4261C27.1518 54.3563 27.1518 54.298 27.1518 54.2281C27.1481 54.2011 27.1481 54.1736 27.1518 54.1466C27.1777 54.086 27.2083 54.0276 27.2431 53.9719L27.3116 53.8671C27.4169 53.7562 27.4758 53.6079 27.4758 53.4536C27.4758 53.2992 27.4169 53.1509 27.3116 53.0401C27.2586 52.9855 27.1954 52.9422 27.1259 52.9126C27.0564 52.883 26.9818 52.8678 26.9064 52.8678C26.8311 52.8678 26.7565 52.883 26.687 52.9126C26.6174 52.9422 26.5543 52.9855 26.5013 53.0401C26.2339 53.3557 26.0421 53.7305 25.9411 54.1348C25.8401 54.5391 25.8326 54.9618 25.9192 55.3696C26.0024 55.7368 26.1614 56.0816 26.3858 56.381C26.6102 56.6803 26.8948 56.9272 27.2203 57.1051C27.3524 57.1821 27.5087 57.2033 27.6559 57.1641C27.8031 57.1249 27.9294 57.0285 28.0078 56.8955C28.0711 56.8168 28.1132 56.7226 28.1297 56.6222C28.1463 56.5219 28.1367 56.4188 28.1021 56.3234C28.0675 56.2279 28.0089 56.1434 27.9323 56.0783C27.8557 56.0131 27.7637 55.9696 27.6654 55.952Z" fill="#754623"/>
<path d="M73.1355 44.7581C73.1355 45.3663 72.9588 45.9608 72.6277 46.4665C72.2966 46.9722 71.8261 47.3663 71.2755 47.599C70.7249 47.8318 70.1191 47.8927 69.5346 47.774C68.9501 47.6554 68.4133 47.3625 67.9919 46.9324C67.5705 46.5024 67.2835 45.9545 67.1673 45.358C67.051 44.7615 67.1107 44.1432 67.3387 43.5813C67.5668 43.0195 67.953 42.5392 68.4485 42.2013C68.944 41.8634 69.5265 41.6831 70.1224 41.6831C70.9216 41.6831 71.6879 42.0071 72.253 42.5838C72.8181 43.1604 73.1355 43.9426 73.1355 44.7581Z" fill="#754623"/>
<path d="M51.0163 44.7581C51.0163 45.3663 50.8396 45.9608 50.5086 46.4665C50.1775 46.9722 49.7069 47.3663 49.1563 47.599C48.6058 47.8318 48 47.8927 47.4155 47.774C46.831 47.6554 46.2941 47.3625 45.8727 46.9324C45.4514 46.5024 45.1644 45.9545 45.0481 45.358C44.9319 44.7615 44.9915 44.1432 45.2196 43.5813C45.4476 43.0195 45.8338 42.5392 46.3293 42.2013C46.8248 41.8634 47.4074 41.6831 48.0033 41.6831C48.8024 41.6831 49.5688 42.0071 50.1338 42.5838C50.6989 43.1604 51.0163 43.9426 51.0163 44.7581Z" fill="#754623"/>
<path d="M61.7109 44.6302C61.6973 44.4758 61.6241 44.3332 61.5074 44.2338C61.3908 44.1344 61.2402 44.0864 61.0889 44.1003C60.9375 44.1142 60.7978 44.1888 60.7004 44.3079C60.603 44.4269 60.556 44.5806 60.5696 44.7351C60.6237 46.7671 60.4048 48.7972 59.919 50.7686C59.6118 50.6784 59.2992 50.6083 58.9832 50.5589C58.5277 50.491 58.063 50.5308 57.625 50.6754C57.3482 50.7704 57.0937 50.9229 56.8776 51.1234C56.6615 51.3239 56.4885 51.568 56.3696 51.8402C56.2004 52.2805 56.1453 52.7579 56.2098 53.2263C56.2444 53.6024 56.3328 53.9712 56.4723 54.3212C56.7037 55.0017 57.0957 55.6138 57.6136 56.1033C57.6974 56.1804 57.8018 56.2305 57.9136 56.2471C58.0253 56.2636 58.1394 56.246 58.2413 56.1964C58.3776 56.1283 58.4832 56.0094 58.5363 55.8642C58.5893 55.7191 58.5859 55.5587 58.5266 55.416C58.3041 54.9421 58.1577 54.4348 58.0929 53.9135C58.0359 53.4243 58.0016 52.8768 58.0929 52.7487C58.1459 52.7404 58.1998 52.7404 58.2527 52.7487C58.3963 52.7246 58.5428 52.7246 58.6864 52.7487C59.3399 52.9084 60.0126 52.9712 60.6837 52.9351H60.7864C60.9766 52.9142 61.1546 52.8298 61.2929 52.695C61.4312 52.5602 61.522 52.3825 61.5511 52.1896C61.9966 49.6944 62.0506 47.1427 61.7109 44.6302Z" fill="#754623"/>
<path d="M63.1828 60.1917C63.8775 59.9131 64.6412 59.8682 65.3627 60.0635C65.7574 60.2845 66.0846 60.6124 66.3081 61.0112C66.5317 61.4099 66.6429 61.864 66.6295 62.3232C66.652 63.3404 66.4221 64.3469 65.9611 65.249C65.5002 66.1512 64.8232 66.9197 63.9931 67.4832C62.3026 68.5986 60.2881 69.0879 58.2865 68.8692C57.2611 68.8241 56.2547 68.5712 55.3259 68.1253C54.3971 67.6793 53.5646 67.0493 52.8767 66.2718C51.8838 65.0138 50.5256 61.8573 52.1691 60.5877C52.5312 60.3671 52.934 60.2253 53.3524 60.1711C53.7707 60.117 54.1955 60.1518 54.6001 60.2732C55.9193 60.5529 57.2595 60.7166 58.6061 60.7624C60.1497 60.7793 61.6886 60.5874 63.1828 60.1917Z" fill="#8E4136"/>
<path d="M64.4616 67.1102C63.8923 66.3715 63.1635 65.7769 62.3321 65.3728C61.5006 64.9688 60.5889 64.7661 59.6681 64.7807C58.6348 64.7588 57.6144 65.018 56.7118 65.5319C55.8092 66.0457 55.0569 66.7955 54.5322 67.7043C55.6902 68.3761 56.9812 68.7741 58.31 68.8691C60.3116 69.0877 62.326 68.5984 64.0165 67.483L64.4616 67.1102Z" fill="#C16B5B"/>
<path d="M65.8991 60.4363C65.7472 60.2759 65.5646 60.149 65.3627 60.0635C64.6412 59.8682 63.8775 59.9131 63.1828 60.1917C61.6923 60.5864 60.1573 60.7783 58.6175 60.7624C57.2709 60.7166 55.9307 60.5529 54.6115 60.2732C54.207 60.1518 53.7822 60.117 53.3638 60.1711C52.9455 60.2253 52.5426 60.3671 52.1805 60.5877L52.0664 60.7042C52.5879 61.1909 53.1859 61.5847 53.8354 61.8689C54.9028 62.2848 56.0272 62.5284 57.1681 62.5911C59.0655 62.7841 60.9771 62.7841 62.8746 62.5911C63.6982 62.5787 64.497 62.3016 65.1572 61.7991C65.51 61.4135 65.7647 60.9456 65.8991 60.4363Z" fill="white"/>
<path d="M39.9115 60.3894C42.622 60.3894 44.8192 58.147 44.8192 55.3808C44.8192 52.6147 42.622 50.3723 39.9115 50.3723C37.2011 50.3723 35.0039 52.6147 35.0039 55.3808C35.0039 58.147 37.2011 60.3894 39.9115 60.3894Z" fill="#FF8877"/>
<path d="M76.433 60.3894C79.1435 60.3894 81.3407 58.147 81.3407 55.3808C81.3407 52.6147 79.1435 50.3723 76.433 50.3723C73.7226 50.3723 71.5254 52.6147 71.5254 55.3808C71.5254 58.147 73.7226 60.3894 76.433 60.3894Z" fill="#FF8877"/>
<path d="M52.911 34.8348C50.7804 33.4902 48.2948 32.8502 45.7942 33.0024C43.2936 33.1546 40.9002 34.0915 38.9413 35.6851C38.3593 36.1394 39.1696 36.9664 39.7403 36.5005C41.518 35.099 43.6724 34.2846 45.9158 34.1659C48.1591 34.0473 50.3845 34.6301 52.2947 35.8365C52.911 36.2326 53.493 35.2308 52.911 34.8348Z" fill="#892B2B"/>
<path d="M76.6732 34.2055C74.7424 33.4252 72.6763 33.0539 70.6005 33.1139C68.5247 33.174 66.4826 33.6643 64.5982 34.5549C63.9248 34.8694 64.5069 35.8711 65.1688 35.5566C66.9227 34.7463 68.8198 34.3088 70.7447 34.2708C72.6695 34.2327 74.5818 34.5949 76.3651 35.3353C77.0499 35.6148 77.3466 34.485 76.6732 34.2055Z" fill="#892B2B"/>
<path d="M113.058 110.358C109.109 103.37 82.2428 89.567 59.0514 89.567C35.8599 89.567 9.00489 103.393 5.05596 110.358C1.10702 117.324 0.0341797 133.06 0.0341797 133.06H118.08C118.08 133.06 117.007 117.265 113.058 110.358Z" fill="#FFB8AE"/>
<path d="M92.0691 32.6563C94.0778 30.0705 93.2104 26.1569 92.3773 23.3381C91.2893 19.7274 89.4956 16.3793 87.1044 13.4958C82.1067 7.57706 75.0609 3.85863 67.4396 3.11765C64.1527 2.76821 60.2266 3.17588 58.0124 5.9131C57.864 5.77332 57.7271 5.6219 57.5673 5.49378C54.8624 3.36224 50.7194 3.93299 47.6379 4.73668C44.3541 5.65536 41.2737 7.20939 38.5645 9.31425C35.8123 11.4358 33.3618 13.9367 31.2829 16.7455C28.9591 19.6567 27.3893 23.1172 26.7177 26.8091C26.4894 28.4398 26.2954 30.3734 27.4139 31.7128C27.4139 32.1438 27.4139 32.5748 27.4139 32.9591C27.4139 34.6947 27.4139 36.4535 27.4139 38.1773C27.4729 39.9114 27.6176 41.6414 27.8476 43.3606C27.9617 44.2109 28.0987 45.0612 28.2813 45.9114C28.4009 46.66 28.6078 47.3912 28.8976 48.0896C29.0067 48.3492 29.1771 48.5773 29.3936 48.7534C29.61 48.9295 29.8658 49.0482 30.1381 49.099C30.4105 49.1497 30.6908 49.1309 30.9543 49.0442C31.2178 48.9575 31.4561 48.8056 31.6481 48.6021C32.0801 48.1269 32.3623 47.5305 32.4585 46.8898C32.6639 45.993 32.8237 45.0728 32.9721 44.1643C33.5631 40.6542 33.9443 37.1106 34.1134 33.5532C44.0199 33.3552 55.5129 26.285 59.0967 16.6756C59.3592 17.0949 59.6217 17.5026 59.8613 17.8986C64.7233 25.6677 72.3587 32.5282 81.4663 34.2055C83.3426 34.535 85.2483 34.6561 87.1501 34.5665C86.9415 37.8221 87.203 41.0912 87.9261 44.2691C88.1316 45.2009 88.337 46.9015 89.5354 47.0296C90.7338 47.1577 91.1104 45.4106 91.3387 44.5021C91.6977 43.0137 91.9043 41.4913 91.955 39.9594C92.1317 37.5967 92.0973 35.2224 91.8523 32.866L92.0691 32.6563Z" fill="#892B2B"/>
<path d="M59.0514 133.06H118.08C118.08 133.06 117.007 117.312 113.058 110.359C111.118 106.923 103.62 101.844 93.7358 97.5461C91.4532 98.804 89.1706 100.307 86.888 101.599C79.1529 105.878 70.5682 108.311 61.7791 108.716C50.4338 109.229 39.1885 106.351 29.423 100.435C27.8594 99.4796 26.3529 98.4196 24.8577 97.3131C14.7229 101.646 6.99623 106.853 5.02176 110.347C1.07282 117.336 0 133.048 0 133.048L59.0514 133.06Z" fill="#562240"/>
<path d="M101.908 127.049C91.6588 127.422 81.4137 127.675 71.1723 127.807C60.9309 127.939 50.6858 127.939 40.4368 127.807C34.6504 127.748 28.8639 127.632 23.0775 127.492C22.9261 127.492 22.781 127.553 22.674 127.663C22.5669 127.772 22.5068 127.92 22.5068 128.074C22.5068 128.229 22.5669 128.377 22.674 128.486C22.781 128.595 22.9261 128.657 23.0775 128.657C33.3112 128.913 43.5564 129.049 53.813 129.065C64.0695 129.08 74.3147 128.967 84.5485 128.727C90.3311 128.602 96.1175 128.432 101.908 128.214C102.627 128.179 102.638 127.015 101.908 127.049Z" fill="#89496B"/>
<path d="M70.841 107.563C68.5797 108.036 66.2932 108.375 63.9932 108.576C74.2269 108.786 84.4607 108.976 94.6944 109.147C100.568 109.24 106.45 109.322 112.339 109.392C112.013 108.985 111.666 108.597 111.3 108.227C98.9287 108.064 86.5569 107.866 74.1851 107.633L70.841 107.563Z" fill="#89496B"/>
<path d="M116.574 121.575C102.924 121.777 89.2697 121.921 75.612 122.006C61.7565 122.084 47.9048 122.111 34.0569 122.088C26.2275 122.088 18.3981 122.057 10.5687 121.995C10.4174 121.995 10.2722 122.056 10.1652 122.165C10.0582 122.274 9.99805 122.423 9.99805 122.577C9.99805 122.731 10.0582 122.88 10.1652 122.989C10.2722 123.098 10.4174 123.159 10.5687 123.159C24.4699 123.253 38.371 123.288 52.2722 123.264C66.1734 123.241 80.0251 123.159 93.8273 123.02C101.489 122.942 109.14 122.849 116.779 122.74L116.574 121.575Z" fill="#89496B"/>
<path d="M48.0269 108.239L51.9301 108.32C49.6239 108.021 47.3372 107.581 45.0823 107.004L27.5517 106.573C21.4686 106.422 15.374 106.235 9.29078 106.061C8.80002 106.445 8.3549 106.818 7.93262 107.225C21.2783 107.59 34.6431 107.928 48.0269 108.239Z" fill="#89496B"/>
<path d="M31.0548 101.389C26.6189 101.187 22.183 100.966 17.7471 100.725L15.8525 101.762C21.6961 102.088 27.5472 102.379 33.4059 102.636C32.607 102.24 31.8309 101.82 31.0548 101.389Z" fill="#89496B"/>
<path d="M72.7013 114.144C57.6208 114.47 42.5441 114.645 27.4712 114.668C19.3983 114.668 11.333 114.641 3.27537 114.587C3.14982 114.959 3.0357 115.344 2.91016 115.752C17.7396 115.876 32.5766 115.876 47.4213 115.752C62.5018 115.588 77.5785 115.289 92.6514 114.855C100.001 114.637 107.352 114.385 114.702 114.098C114.565 113.701 114.416 113.317 114.268 112.933C100.412 113.445 86.5568 113.849 72.7013 114.144Z" fill="#89496B"/>
<path d="M82.0371 103.987C84.4567 103.987 86.8648 104.069 89.2844 104.092C94.8997 104.092 100.515 104.092 106.142 104.092C105.548 103.707 104.932 103.311 104.281 102.927C97.6845 102.927 91.0839 102.896 84.4795 102.834C83.7263 103.288 82.8589 103.626 82.0371 103.987Z" fill="#89496B"/>
</svg>
