<svg width="119" height="132" viewBox="0 0 119 132" fill="none" xmlns="http://www.w3.org/2000/svg">
<path d="M23.0698 25.4199C19.5882 34.735 19.5074 44.9507 22.8415 54.3179C23.2877 55.9644 24.2407 57.4348 25.5697 58.528C26.5117 59.0876 27.5913 59.3833 28.6918 59.3833C29.7923 59.3833 30.8719 59.0876 31.8139 58.528C33.69 57.3818 35.2566 55.8064 36.38 53.9362C41.864 45.7661 44.0575 35.8801 42.5328 26.2058C42.2065 23.2545 41.0962 20.4397 39.3137 18.0439C36.8138 14.9902 33.3663 13.9236 30.1016 16.1353C26.8058 18.4084 24.3406 21.6635 23.0698 25.4199Z" fill="#3D2614"/>
<path d="M74.6788 31.5841C73.0562 41.3821 74.9446 51.4303 80.0211 60.0105C80.7728 61.5498 81.9885 62.8238 83.5028 63.6593C84.5336 64.038 85.6499 64.1337 86.7318 63.9359C87.8138 63.7381 88.8205 63.2544 89.6442 62.5366C91.2615 61.0604 92.4947 59.2239 93.24 57.1814C97.0538 48.1354 97.302 38.0161 93.9363 28.7998C93.0402 25.9657 91.4119 23.4088 89.2104 21.3788C86.1625 18.864 82.5667 18.4486 79.7928 21.2217C77.0098 24.0522 75.2182 27.6825 74.6788 31.5841Z" fill="#3D2614"/>
<path d="M83.8334 21.1095C78.7194 13.3966 68.9936 10.792 59.0395 10.792C49.0854 10.792 39.3596 13.3966 34.2569 21.1095C23.8805 36.7598 28.1612 67.6224 41.7796 77.9175C46.84 81.3966 52.8652 83.2625 59.0395 83.2625C65.2137 83.2625 71.2389 81.3966 76.2994 77.9175C89.9292 67.6224 94.2099 36.7148 83.8334 21.1095Z" fill="#754623"/>
<path d="M78.332 76.1318L59.0401 77.2545L39.7598 76.1318C46.0952 79.9602 45.6615 92.4108 45.6615 92.4108C48.8121 95.7789 59.0401 95.7789 59.0401 95.7789C59.0401 95.7789 69.3139 95.7789 72.4303 92.4108C72.4303 92.4108 71.9851 79.9602 78.332 76.1318Z" fill="#754623"/>
<path d="M98.468 62.6706C94.7466 67.0379 88.8791 68.2167 85.3518 65.3202C81.8245 62.4236 81.9958 56.5183 85.7171 52.151C89.4385 47.7838 95.3059 46.605 98.8333 49.5127C102.361 52.4205 102.189 58.3034 98.468 62.6706Z" fill="#754623"/>
<path d="M97.1215 52.017C96.5756 51.7433 95.9768 51.5867 95.3648 51.5577C94.7528 51.5286 94.1415 51.6278 93.5713 51.8486C91.4122 52.5585 89.6006 54.0359 88.4915 55.9913C88.1263 56.62 89.1194 57.1926 89.4733 56.5639C90.3381 55.0351 91.6897 53.828 93.3202 53.1284C94.195 52.6941 95.1981 52.5787 96.1512 52.8029C96.5283 52.9125 96.8556 53.1464 97.078 53.4653C97.3004 53.7843 97.4045 54.1688 97.3726 54.5543C97.2927 55.2728 98.4343 55.2728 98.5142 54.5543C98.5489 54.0452 98.4365 53.5369 98.1901 53.088C97.9437 52.639 97.5732 52.2678 97.1215 52.017Z" fill="#3D2614"/>
<path d="M90.7173 58.1016C90.6642 58.049 90.6011 58.0072 90.5315 57.9787C90.462 57.9502 90.3874 57.9355 90.312 57.9355C90.2367 57.9355 90.1621 57.9502 90.0925 57.9787C90.023 58.0072 89.9598 58.049 89.9068 58.1016C89.8048 58.2079 89.7481 58.3484 89.7481 58.4945C89.7481 58.6406 89.8048 58.7812 89.9068 58.8875L89.9753 58.9885L90.078 59.1569V59.2355C90.0829 59.2953 90.0829 59.3554 90.078 59.4151C90.0834 59.4561 90.0834 59.4976 90.078 59.5386V59.7183C90.0837 59.7893 90.0837 59.8606 90.078 59.9316C90.078 59.9316 90.078 59.9989 90.078 60.0326C90.0641 60.094 90.045 60.154 90.0209 60.2122C90.0247 60.2383 90.0247 60.2648 90.0209 60.2908C90.0209 60.2908 89.9639 60.4031 89.9296 60.448V60.5266V60.594L89.7812 60.7399L89.5872 60.8522C89.4555 60.9266 89.3592 61.0495 89.3196 61.1937C89.28 61.3379 89.3003 61.4917 89.376 61.6212C89.4517 61.7507 89.5766 61.8454 89.7232 61.8843C89.8699 61.9233 90.0262 61.9034 90.1579 61.8289C90.7287 61.4832 91.1386 60.9309 91.2995 60.2908C91.3769 59.9064 91.3648 59.5096 91.264 59.1305C91.1631 58.7513 90.9762 58.3995 90.7173 58.1016Z" fill="#3D2614"/>
<path d="M17.5794 62.6706C21.3008 67.0379 27.1682 68.2167 30.6955 65.3202C34.2229 62.4236 34.0516 56.5183 30.3303 52.151C26.6089 47.7838 20.7414 46.605 17.2141 49.5127C13.6868 52.4205 13.8581 58.3034 17.5794 62.6706Z" fill="#754623"/>
<path d="M18.9262 52.017C19.4721 51.7433 20.0708 51.5867 20.6829 51.5577C21.2949 51.5286 21.9062 51.6278 22.4763 51.8486C24.6354 52.5585 26.4471 54.0359 27.5561 55.9913C27.9214 56.62 26.9283 57.1926 26.5744 56.5639C25.7096 55.0351 24.3579 53.828 22.7275 53.1284C21.8526 52.6941 20.8496 52.5787 19.8965 52.8029C19.5194 52.9125 19.1921 53.1464 18.9697 53.4653C18.7472 53.7843 18.6432 54.1688 18.675 54.5543C18.7549 55.2728 17.6134 55.2728 17.5335 54.5543C17.4988 54.0452 17.6111 53.5369 17.8576 53.088C18.104 52.639 18.4744 52.2678 18.9262 52.017Z" fill="#3D2614"/>
<path d="M25.3533 58.1017C25.4063 58.049 25.4695 58.0073 25.539 57.9788C25.6086 57.9503 25.6832 57.9356 25.7585 57.9356C25.8339 57.9356 25.9085 57.9503 25.978 57.9788C26.0476 58.0073 26.1107 58.049 26.1638 58.1017C26.2657 58.2079 26.3225 58.3485 26.3225 58.4946C26.3225 58.6407 26.2657 58.7813 26.1638 58.8875C26.1371 58.9185 26.1141 58.9524 26.0953 58.9886L25.9925 59.157V59.2356C25.9684 59.2938 25.9493 59.3539 25.9354 59.4152C25.9301 59.4562 25.9301 59.4977 25.9354 59.5387V59.7183C25.9297 59.7893 25.9297 59.8606 25.9354 59.9316C25.9354 59.9316 25.9354 59.999 25.9354 60.0327C25.9493 60.094 25.9684 60.1541 25.9925 60.2123C25.9888 60.2384 25.9888 60.2648 25.9925 60.2909C25.9925 60.2909 25.9925 60.4032 26.0838 60.4481V60.5267L26.1409 60.594C26.1875 60.6454 26.237 60.6942 26.2893 60.74H26.3464L26.5404 60.8522C26.6721 60.9267 26.7684 61.0495 26.808 61.1937C26.8476 61.338 26.8273 61.4917 26.7516 61.6213C26.676 61.7508 26.5511 61.8454 26.4044 61.8844C26.2578 61.9233 26.1014 61.9034 25.9697 61.829C25.6722 61.6656 25.4108 61.4453 25.2011 61.1812C24.9913 60.9171 24.8374 60.6144 24.7483 60.2909C24.6739 59.9047 24.6897 59.507 24.7945 59.1278C24.8993 58.7485 25.0904 58.3976 25.3533 58.1017Z" fill="#3D2614"/>
<path d="M49.0971 47.7389C49.0971 48.2701 48.9368 48.7893 48.6365 49.2308C48.3362 49.6723 47.9095 50.0162 47.4103 50.2189C46.9111 50.4217 46.3619 50.4742 45.8324 50.3697C45.3029 50.2653 44.8168 50.0086 44.4357 49.6322C44.0546 49.2559 43.7956 48.7767 43.6917 48.2555C43.5877 47.7342 43.6433 47.1944 43.8516 46.7043C44.0598 46.2142 44.4113 45.7959 44.8615 45.5024C45.3116 45.2089 45.8402 45.0535 46.3803 45.0557C47.1019 45.0587 47.7929 45.3427 48.3021 45.8455C48.8113 46.3484 49.0971 47.0292 49.0971 47.7389Z" fill="#3D2614"/>
<path d="M73.058 48.1657C73.058 48.6964 72.898 49.2151 72.5982 49.6564C72.2985 50.0976 71.8724 50.4416 71.3739 50.6446C70.8753 50.8477 70.3268 50.9009 69.7975 50.7973C69.2683 50.6938 68.7822 50.4382 68.4007 50.063C68.0191 49.6877 67.7593 49.2096 67.654 48.6891C67.5487 48.1686 67.6027 47.6291 67.8092 47.1388C68.0157 46.6485 68.3654 46.2295 68.8141 45.9346C69.2627 45.6398 69.7902 45.4824 70.3298 45.4824C70.6885 45.481 71.044 45.5494 71.3756 45.6837C71.7073 45.818 72.0087 46.0156 72.2623 46.265C72.516 46.5145 72.7169 46.8109 72.8534 47.1371C72.99 47.4633 73.0595 47.8129 73.058 48.1657Z" fill="#3D2614"/>
<path d="M59.6908 51.3092C59.6686 51.1715 59.596 51.0464 59.4867 50.9575C59.3774 50.8686 59.2389 50.822 59.0972 50.8265C59.0222 50.8294 58.9485 50.8468 58.8804 50.8777C58.8123 50.9086 58.751 50.9524 58.7001 51.0066C58.6492 51.0609 58.6097 51.1244 58.5838 51.1937C58.5579 51.2629 58.5462 51.3365 58.5492 51.4103C58.6028 53.3689 58.3839 55.3255 57.8986 57.2258C57.5932 57.1289 57.2801 57.0576 56.9625 57.0125C56.5061 56.951 56.0414 56.9932 55.6041 57.136C55.3272 57.2275 55.0727 57.3746 54.8566 57.5678C54.6404 57.7611 54.4674 57.9963 54.3484 58.2587C54.1787 58.6829 54.1236 59.1432 54.1886 59.5947C54.2232 59.9572 54.3117 60.3127 54.4512 60.65C54.6856 61.3046 55.0772 61.8938 55.5927 62.3677C55.6766 62.4421 55.781 62.4903 55.8927 62.5063C56.0045 62.5223 56.1186 62.5053 56.2205 62.4575C56.3577 62.3896 56.4636 62.273 56.5166 62.1312C56.5696 61.9895 56.5657 61.8332 56.5059 61.6941C56.2833 61.2334 56.1369 60.7407 56.0721 60.2346C56.0721 59.7743 55.9808 59.2354 56.0721 59.1793C56.1251 59.1712 56.179 59.1712 56.2319 59.1793C56.3755 59.1547 56.5222 59.1547 56.6657 59.1793C57.3174 59.3446 57.992 59.4053 58.6634 59.3589H58.7661C58.9573 59.3364 59.1356 59.2528 59.2738 59.121C59.412 58.9892 59.5023 58.8164 59.531 58.6291C59.9814 56.2132 60.0354 53.7419 59.6908 51.3092Z" fill="#3D2614"/>
<path d="M63.1835 65.1636C63.8823 64.895 64.6498 64.8518 65.3752 65.0401C65.7691 65.2541 66.0957 65.5704 66.3191 65.9545C66.5426 66.3386 66.6544 66.7758 66.6423 67.2181C66.6625 68.1994 66.4303 69.1698 65.9674 70.0393C65.5044 70.9088 64.8256 71.6491 63.994 72.1917C62.3047 73.2697 60.2874 73.7379 58.2863 73.5164C57.2609 73.4775 56.2538 73.2368 55.3245 72.8088C54.3951 72.3807 53.5624 71.7739 52.8755 71.0241C51.8824 69.8116 50.5924 66.7691 52.1792 65.5453C52.5387 65.3318 52.9393 65.1936 53.3558 65.1395C53.7722 65.0854 54.1956 65.1165 54.5992 65.231C55.9213 65.5091 57.266 65.6706 58.6174 65.7138C60.1574 65.7294 61.6928 65.5445 63.1835 65.1636Z" fill="#8E4136"/>
<path d="M64.4618 71.8325C63.8972 71.1181 63.1708 70.5431 62.3405 70.1533C61.5101 69.7635 60.5988 69.5697 59.6789 69.5872C58.644 69.566 57.6222 69.8171 56.7191 70.3145C55.816 70.8119 55.0644 71.5375 54.542 72.4164C55.9954 73.2062 57.6355 73.6035 59.2956 73.568C60.9557 73.5325 62.5767 73.0655 63.9938 72.2143C64.1574 72.0963 64.3137 71.9688 64.4618 71.8325Z" fill="#C16B5B"/>
<path d="M65.9118 65.3882C65.7573 65.2395 65.5752 65.1213 65.3753 65.0401C64.6499 64.8518 63.8824 64.895 63.1836 65.1636C61.6929 65.5445 60.1575 65.7294 58.6175 65.7138C57.2662 65.6706 55.9214 65.5091 54.5993 65.231C54.1957 65.1165 53.7724 65.0854 53.3559 65.1395C52.9394 65.1936 52.5389 65.3318 52.1793 65.5453L52.0537 65.6464C52.576 66.1147 53.1739 66.4942 53.8231 66.7691C54.8916 67.1652 56.016 67.3962 57.1563 67.4539C59.0539 67.6455 60.9664 67.6455 62.864 67.4539C63.6685 67.4326 64.4464 67.1658 65.0899 66.6905C65.4679 66.3289 65.7501 65.8817 65.9118 65.3882Z" fill="white"/>
<path d="M52.3961 40.936C50.2662 39.6367 47.7795 39.018 45.2777 39.1647C42.7758 39.3115 40.3815 40.2165 38.4238 41.7556C37.8416 42.1934 38.6521 42.9905 39.2228 42.5414C40.9989 41.1862 43.1543 40.3984 45.3992 40.284C47.6441 40.1696 49.8707 40.734 51.7796 41.9015C52.4417 42.3281 53.0125 41.3177 52.3961 40.936Z" fill="#3D2614"/>
<path d="M76.2086 40.3291C74.2755 39.5767 72.2072 39.2187 70.1291 39.2766C68.051 39.3345 66.0065 39.8071 64.1198 40.6659C63.4578 40.969 64.0399 41.9345 64.702 41.6314C66.4563 40.8518 68.3531 40.4299 70.2778 40.3913C72.2025 40.3527 74.1152 40.6982 75.9004 41.4068C76.5853 41.6875 76.8821 40.5985 76.2086 40.3291Z" fill="#3D2614"/>
<path d="M93.2741 13.2615C91.366 11.9593 89.1258 11.2073 86.8063 11.0902C84.4868 10.9732 82.1802 11.4958 80.1466 12.5991C80.763 12.2511 77.2928 7.62563 76.9046 7.21024C75.4264 5.67683 73.6882 4.40799 71.7678 3.46046C67.1328 1.2724 62.0687 0.103899 56.9279 0.0362674C53.6931 -0.0666807 50.4549 0.049606 47.2364 0.384301C43.9261 0.651962 40.6521 1.25006 37.4649 2.16937C34.0851 3.14457 30.9666 4.84298 28.3327 7.14288C26.3692 8.77897 24.9365 10.9453 24.2118 13.3738C22.762 19.0995 27.0085 24.32 31.9742 26.745C36.0316 28.5006 40.3785 29.52 44.8049 29.7538C55.6494 30.7642 67.3158 30.1018 76.2882 24.4323C76.7646 26.1197 77.6305 27.6763 78.8184 28.981C80.0064 30.2856 81.4843 31.3031 83.1374 31.9543C85.1364 32.6903 87.2834 32.954 89.4051 32.7238C91.5268 32.4937 93.5638 31.7763 95.3517 30.6295C99.5297 27.733 99.2671 21.2887 96.9955 17.3257C96.0883 15.7083 94.815 14.3177 93.2741 13.2615Z" fill="#3D2614"/>
<path d="M79.9296 7.17667C80.8486 6.48963 81.943 6.0661 83.0916 5.95294C86.0002 5.56179 88.9484 6.31189 91.2992 8.04114C91.8626 8.43402 92.3401 8.93414 92.7033 9.51186C92.885 9.80072 93.0023 10.1242 93.0476 10.4609C93.0928 10.7976 93.065 11.14 92.9658 11.4653C92.721 12.0693 92.2517 12.559 91.6531 12.835C91.0579 13.1025 90.4279 13.2876 89.781 13.3851C86.7326 13.9852 83.6537 14.4237 80.5574 14.6987C78.0461 14.9344 77.7721 12.8126 78.0689 10.8029C78.2071 9.40813 78.8709 8.11462 79.9296 7.17667Z" fill="#3D2614"/>
<path d="M113.057 111.183C109.107 104.446 82.2356 91.1426 59.0398 91.1426C35.8439 91.1426 8.9724 104.469 5.03414 111.183C1.09587 117.896 0 133.064 0 133.064H118.08C118.08 133.064 116.995 117.885 113.057 111.183Z" fill="#754623"/>
<path d="M59.0395 133.063H118.079C118.079 133.063 116.938 117.885 113.057 111.182C110.077 106.13 94.0958 97.317 76.5277 93.2191C75.7058 95.24 70.5804 106.691 59.0966 106.691C46.5398 106.691 43.1153 92.9609 43.1153 92.9385C24.9421 96.8117 8.18453 105.962 5.13666 111.148C1.18698 117.885 0.102539 133.03 0.102539 133.03L59.0395 133.063Z" fill="#F2A261"/>
<path d="M71.1512 111.463C77.4937 107.934 82.3502 102.298 84.8496 95.5661C82.1441 94.7016 79.336 93.927 76.505 93.3207C75.6831 95.3415 70.5576 106.793 59.0739 106.793C46.5171 106.793 43.0925 93.0625 43.0925 93.04C40.5126 93.5902 37.967 94.2525 35.4785 94.9823C35.8438 96.2172 36.2662 97.4297 36.7456 98.6198C38.3584 102.83 41.0055 106.583 44.4509 109.544C51.6768 115.438 62.7838 115.898 71.1512 111.463Z" fill="#F2B583"/>
<path d="M66.1062 113.461C66.8482 113.259 67.5674 113.012 68.2751 112.743L65.524 105.378C64.8281 105.682 64.1109 105.937 63.3779 106.141L66.1062 113.461Z" fill="#FFCB99"/>
<path d="M50.4664 104.076C49.1308 106.378 47.898 108.747 46.7793 111.16C47.4266 111.572 48.0974 111.947 48.7884 112.283C49.9299 109.903 51.0714 107.568 52.407 105.289C51.7309 104.932 51.0823 104.526 50.4664 104.076Z" fill="#FFCB99"/>
<path d="M74.7013 96.7666C74.336 97.3616 73.9251 98.0016 73.457 98.6527L80.8085 102.919C81.2537 102.301 81.6646 101.673 82.0641 101.033L74.7013 96.7666Z" fill="#FFCB99"/>
<path d="M73.6628 109.936C74.2792 109.51 74.8956 109.061 75.4778 108.578L70.5122 102.021C69.9589 102.541 69.3758 103.028 68.7656 103.481L73.6628 109.936Z" fill="#FFCB99"/>
<path d="M44.0518 95.835L36.415 97.8558C36.4949 98.0916 36.5749 98.3161 36.6662 98.5519C36.8602 99.0234 37.0657 99.4949 37.2826 99.9552L45.0792 97.8895C44.7021 97.2219 44.3592 96.5362 44.0518 95.835Z" fill="#FFCB99"/>
<path d="M58.8113 106.725C58.0466 106.716 57.2836 106.652 56.5282 106.534L55.9004 114.225C56.6538 114.314 57.4072 114.371 58.1834 114.393L58.8113 106.725Z" fill="#FFCB99"/>
<path d="M48.2639 102.201C47.7342 101.659 47.2386 101.085 46.7799 100.483L40.2275 104.974C40.6727 105.592 41.1408 106.187 41.6316 106.748L48.2639 102.201Z" fill="#FFCB99"/>
</svg>
