<svg width="119" height="131" viewBox="0 0 119 131" fill="none" xmlns="http://www.w3.org/2000/svg">
<path d="M61.1801 129.407C81.0906 129.407 97.2312 115.881 97.2312 99.1961C97.2312 82.5109 81.0906 68.9849 61.1801 68.9849C41.2696 68.9849 25.1289 82.5109 25.1289 99.1961C25.1289 115.881 41.2696 129.407 61.1801 129.407Z" fill="#892B2B"/>
<path d="M92.2235 18.9508C89.8849 13.6652 86.2614 9.06644 81.6918 5.58436C74.3989 0.291294 64.8205 -0.73242 55.9426 0.430892C45.6062 1.88503 34.6496 6.67787 28.6315 15.7284C23.0843 24.0694 22.7512 33.8994 23.2451 43.6479C23.7159 53.0707 25.3238 62.9938 31.3994 70.5088C38.0147 78.6519 48.1559 81.7347 58.1707 82.7235C60.5711 82.9562 62.9829 83.0842 65.4062 83.1656C67.826 83.3149 70.2538 83.2604 72.6647 83.0027C81.4506 81.8394 87.9511 74.8595 91.6722 67.077C95.2681 59.4941 97.1625 51.1991 97.2194 42.7871C97.3183 34.5648 95.6118 26.4231 92.2235 18.9508Z" fill="#892B2B"/>
<path d="M84.5638 17.1363C79.43 9.13275 69.6334 6.4455 59.63 6.4455C49.6267 6.4455 39.83 9.13275 34.6848 17.1363C24.2679 33.3529 28.5518 65.3207 42.2648 76.0464C47.307 79.7513 53.4019 81.6948 59.63 81.5838C65.8582 81.6948 71.9531 79.7513 76.9952 76.0464C90.6967 65.3207 95.0036 33.3529 84.5638 17.1363Z" fill="#FFD3B3"/>
<path d="M78.8095 74.0686L59.4 75.2319L40.002 74.0686C46.3761 78.0355 45.9397 90.9366 45.9397 90.9366C49.1095 94.4265 59.4 94.4265 59.4 94.4265C59.4 94.4265 69.7364 94.4265 72.8718 90.9366C72.8718 90.9366 72.4239 78.0355 78.8095 74.0686Z" fill="#FFD3B3"/>
<path d="M100.068 57.7702C96.3243 62.2955 90.4211 63.5169 86.8722 60.504C83.3234 57.491 83.4956 51.3836 87.2397 46.87C90.9838 42.3563 96.8871 41.1232 100.436 44.1245C103.985 47.1259 103.835 53.2449 100.068 57.7702Z" fill="#FFD3B3"/>
<path d="M98.748 46.7308C98.1976 46.445 97.5937 46.2807 96.976 46.2486C96.3584 46.2165 95.741 46.3174 95.1647 46.5447C92.9954 47.292 91.1752 48.8249 90.0539 50.8489C89.9953 50.9801 89.9869 51.1287 90.0303 51.2658C90.0736 51.403 90.1657 51.5189 90.2886 51.5913C90.4115 51.6637 90.5565 51.6873 90.6956 51.6576C90.8347 51.6279 90.958 51.547 91.0416 51.4306C91.9124 49.8497 93.2724 48.6029 94.912 47.8825C95.7937 47.4236 96.8096 47.3037 97.7718 47.5451C98.1523 47.6567 98.4829 47.8987 98.707 48.2296C98.9311 48.5606 99.0349 48.9601 99.0006 49.3599C98.9203 50.1044 100.069 50.0928 100.149 49.3599C100.185 48.8322 100.073 48.305 99.825 47.8395C99.5769 47.3741 99.2034 46.9896 98.748 46.7308Z" fill="#D3966C"/>
<path d="M91.477 53.0243C91.3736 53.1364 91.3162 53.284 91.3162 53.4373C91.3162 53.5906 91.3736 53.7382 91.477 53.8503L91.5459 53.9433L91.6378 54.1178V54.2109C91.6637 54.2706 91.683 54.333 91.6952 54.397C91.7005 54.4356 91.7005 54.4748 91.6952 54.5134V54.6064C91.6887 54.6371 91.6887 54.6688 91.6952 54.6995C91.6952 54.7809 91.6952 54.8507 91.6952 54.9205C91.6952 54.9903 91.6952 55.002 91.6952 55.0369C91.7001 55.0949 91.7001 55.1533 91.6952 55.2113C91.702 55.2381 91.702 55.2661 91.6952 55.2928L91.6033 55.4556V55.5371V55.5952L91.5459 55.665L91.3966 55.8046L91.2013 55.921C91.0864 56.0057 91.0065 56.1305 90.9772 56.2714C90.9479 56.4123 90.9712 56.5592 91.0427 56.6837C91.1141 56.8082 91.2286 56.9014 91.364 56.9453C91.4994 56.9892 91.646 56.9807 91.7756 56.9214C92.106 56.7475 92.3946 56.502 92.6208 56.2025C92.8471 55.9029 93.0055 55.5566 93.0849 55.1881C93.172 54.7808 93.1645 54.3586 93.0628 53.9548C92.9612 53.551 92.7682 53.1767 92.4991 52.8615C92.4353 52.7753 92.3495 52.7084 92.2509 52.6679C92.1524 52.6274 92.0448 52.6149 91.9397 52.6316C91.8346 52.6483 91.7361 52.6937 91.6545 52.7629C91.573 52.8321 91.5116 52.9225 91.477 53.0243Z" fill="#D3966C"/>
<path d="M18.7095 57.7708C22.4535 62.2961 28.3683 63.5176 31.9056 60.5046C35.443 57.4916 35.3511 51.3842 31.5496 46.8706C27.7481 42.3569 21.8908 41.1471 18.3419 44.1252C14.7931 47.1032 14.9654 53.2455 18.7095 57.7708Z" fill="#FFD3B3"/>
<path d="M28.7472 50.8486C27.6293 48.8217 25.8079 47.2877 23.6364 46.5443C23.062 46.3173 22.4465 46.2165 21.8307 46.2486C21.215 46.2807 20.613 46.4449 20.0646 46.7304C19.6101 46.9903 19.2374 47.375 18.9895 47.8402C18.7415 48.3054 18.6285 48.8321 18.6634 49.3595C18.7438 50.0924 19.8923 50.104 19.8119 49.3595C19.7777 48.9597 19.8815 48.5602 20.1056 48.2293C20.3297 47.8983 20.6602 47.6564 21.0408 47.5448C21.9994 47.3063 23.0107 47.4261 23.8891 47.8821C25.5116 48.611 26.8546 49.8569 27.7135 51.4302C27.7897 51.569 27.9172 51.6716 28.0679 51.7152C28.2187 51.7588 28.3804 51.74 28.5175 51.6629C28.6546 51.5857 28.7558 51.4566 28.7988 51.3039C28.8419 51.1512 28.8233 50.9874 28.7472 50.8486Z" fill="#D3966C"/>
<path d="M27.8051 56.0489L27.6098 55.9326L27.4605 55.793V55.7232V55.665C27.4627 55.6379 27.4627 55.6107 27.4605 55.5836C27.4605 55.5254 27.4605 55.4673 27.3686 55.4207C27.3672 55.3936 27.3672 55.3664 27.3686 55.3393C27.3444 55.283 27.3251 55.2246 27.3112 55.1648C27.3166 55.1262 27.3166 55.0871 27.3112 55.0485V54.6413C27.3112 54.6413 27.3112 54.5599 27.3112 54.525C27.3112 54.4901 27.3112 54.397 27.3112 54.3389V54.2458L27.2538 53.9433L27.3227 53.8503C27.426 53.7382 27.4835 53.5906 27.4835 53.4373C27.4835 53.284 27.426 53.1364 27.3227 53.0243C27.2134 52.917 27.0672 52.857 26.915 52.857C26.7628 52.857 26.6166 52.917 26.5073 53.0243C26.2382 53.3396 26.0452 53.7139 25.9436 54.1177C25.8419 54.5215 25.8344 54.9437 25.9215 55.3509C26.0031 55.7186 26.1624 56.0639 26.3884 56.3631C26.6144 56.6624 26.9018 56.9084 27.2308 57.0843C27.362 57.1606 27.5176 57.1814 27.6638 57.1422C27.81 57.103 27.9351 57.0069 28.0118 56.8749C28.0564 56.8083 28.0866 56.7328 28.1003 56.6535C28.114 56.5743 28.111 56.4929 28.0915 56.4149C28.072 56.3369 28.0364 56.2639 27.987 56.2008C27.9376 56.1378 27.8756 56.086 27.8051 56.0489Z" fill="#D3966C"/>
<path d="M73.5719 44.8693C73.5719 45.4767 73.394 46.0705 73.0609 46.5755C72.7277 47.0806 72.2542 47.4742 71.7001 47.7067C71.1461 47.9391 70.5365 47.9999 69.9483 47.8814C69.3602 47.7629 68.8199 47.4704 68.3959 47.0409C67.9718 46.6114 67.6831 46.0642 67.5661 45.4684C67.4491 44.8727 67.5091 44.2552 67.7386 43.694C67.9681 43.1328 68.3567 42.6532 68.8553 42.3157C69.3539 41.9783 69.9402 41.7982 70.5398 41.7982C71.344 41.7982 72.1152 42.1217 72.6838 42.6977C73.2524 43.2736 73.5719 44.0548 73.5719 44.8693Z" fill="#754623"/>
<path d="M51.3033 44.8693C51.3033 45.4767 51.1255 46.0705 50.7923 46.5755C50.4591 47.0806 49.9856 47.4742 49.4316 47.7067C48.8776 47.9391 48.2679 47.9999 47.6798 47.8814C47.0916 47.7629 46.5514 47.4704 46.1273 47.0409C45.7033 46.6114 45.4145 46.0642 45.2975 45.4684C45.1805 44.8727 45.2406 44.2552 45.4701 43.694C45.6995 43.1328 46.0882 42.6532 46.5868 42.3157C47.0854 41.9783 47.6716 41.7982 48.2713 41.7982C49.0754 41.7982 49.8466 42.1217 50.4152 42.6977C50.9839 43.2736 51.3033 44.0548 51.3033 44.8693Z" fill="#754623"/>
<path d="M62.0646 44.7533C62.0524 44.599 61.9802 44.456 61.8639 44.3556C61.7476 44.2553 61.5967 44.2058 61.4444 44.2182C61.2921 44.2305 61.1509 44.3036 61.0518 44.4214C60.9527 44.5392 60.9039 44.6921 60.9161 44.8464C60.9649 46.8756 60.7447 48.9023 60.2614 50.8723C59.9519 50.7835 59.6374 50.7136 59.3197 50.6629C58.8566 50.5995 58.3854 50.6432 57.9415 50.7909C57.665 50.8871 57.4112 51.0401 57.1958 51.2403C56.9804 51.4404 56.8081 51.6835 56.6896 51.9542C56.5108 52.3958 56.4514 52.8776 56.5174 53.3502C56.5632 53.72 56.6518 54.0832 56.7815 54.432C57.0193 55.1127 57.4129 55.7266 57.93 56.2235C58.0171 56.2956 58.1218 56.3423 58.2331 56.3587C58.3444 56.3751 58.4579 56.3605 58.5617 56.3166C58.7018 56.2487 58.8095 56.1272 58.8612 55.9789C58.9129 55.8305 58.9043 55.6675 58.8373 55.5255C58.6193 55.0245 58.4872 54.4895 58.4468 53.9434C58.4468 53.4665 58.3549 52.9081 58.4468 52.8383L58.6076 52.7801C58.7564 52.762 58.9068 52.762 59.0555 52.7801C59.7131 52.9403 60.3901 53.003 61.0654 52.9663H61.1687C61.359 52.9377 61.5356 52.8493 61.6737 52.7137C61.8117 52.578 61.9043 52.4019 61.9382 52.2101C62.3609 49.7461 62.4035 47.2306 62.0646 44.7533Z" fill="#D3966C"/>
<path d="M63.5576 60.2949C64.2568 60.0191 65.0234 59.9703 65.7512 60.1553C66.1467 60.378 66.4745 60.706 66.6992 61.1037C66.9239 61.5015 67.0369 61.954 67.026 62.4122C67.0465 63.4277 66.8142 64.4321 66.3506 65.3328C65.8869 66.2334 65.2068 67.0013 64.373 67.5656C62.6711 68.6779 60.6446 69.1664 58.6306 68.95C57.5999 68.9072 56.5881 68.6556 55.655 68.2101C54.722 67.7645 53.8866 67.134 53.1982 66.3558C52.1875 65.0994 50.8323 61.9468 52.4861 60.6788C52.8505 60.4585 53.2559 60.3169 53.6769 60.2628C54.0978 60.2088 54.5253 60.2435 54.9324 60.3647C56.2599 60.6441 57.6086 60.8075 58.9636 60.8533C60.5122 60.8666 62.0561 60.679 63.5576 60.2949Z" fill="#8E4136"/>
<path d="M64.832 67.1933C64.2626 66.4544 63.5316 65.8596 62.6965 65.4558C61.8613 65.052 60.945 64.8504 60.0198 64.8667C58.9802 64.846 57.9538 65.1055 57.0457 65.6185C56.1376 66.1316 55.3804 66.8798 54.8516 67.7866C56.0106 68.4626 57.3071 68.8606 58.6416 68.9499C60.6557 69.1664 62.6822 68.6778 64.384 67.5656C64.5333 67.4492 64.6827 67.3213 64.832 67.1933Z" fill="#C16B5B"/>
<path d="M66.2906 60.5276C66.1326 60.3737 65.9501 60.2479 65.7508 60.1553C65.023 59.9703 64.2564 60.0191 63.5572 60.2949C62.0557 60.679 60.5118 60.8666 58.9632 60.8533C57.6081 60.8075 56.2595 60.6441 54.932 60.3647C54.5249 60.2435 54.0974 60.2088 53.6764 60.2628C53.2555 60.3169 52.8501 60.4585 52.4857 60.6788L52.3594 60.7952C52.8841 61.2813 53.4859 61.6746 54.1395 61.9585C55.2176 62.3739 56.3528 62.6172 57.5046 62.6797C59.4137 62.8791 61.338 62.8791 63.2471 62.6797C64.0553 62.661 64.8378 62.3887 65.4866 61.9003C65.8617 61.5165 66.1378 61.045 66.2906 60.5276Z" fill="white"/>
<path d="M40.1397 60.481C42.8672 60.481 45.0782 58.2414 45.0782 55.4787C45.0782 52.7161 42.8672 50.4765 40.1397 50.4765C37.4122 50.4765 35.2012 52.7161 35.2012 55.4787C35.2012 58.2414 37.4122 60.481 40.1397 60.481Z" fill="#FFA878"/>
<path d="M76.8916 60.481C79.6191 60.481 81.8302 58.2414 81.8302 55.4787C81.8302 52.7161 79.6191 50.4765 76.8916 50.4765C74.1642 50.4765 71.9531 52.7161 71.9531 55.4787C71.9531 58.2414 74.1642 60.481 76.8916 60.481Z" fill="#FFA878"/>
<path d="M53.175 34.958C51.0283 33.6173 48.5257 32.9795 46.0081 33.1315C43.4905 33.2835 41.0804 34.2178 39.106 35.8072C38.5318 36.2725 39.3472 37.0869 39.9215 36.6332C41.7071 35.2271 43.875 34.4087 46.1336 34.2881C48.3922 34.1675 50.6331 34.7504 52.5549 35.9584C53.221 36.354 53.7952 35.3303 53.175 34.958Z" fill="#892B2B"/>
<path d="M77.0986 34.3297C75.1537 33.5502 73.0727 33.1791 70.9819 33.2391C68.8912 33.2991 66.8343 33.7889 64.9361 34.6787C64.2699 34.9928 64.8557 35.9932 65.5218 35.6791C67.2867 34.8699 69.1957 34.4329 71.1327 34.3949C73.0697 34.3569 74.994 34.7187 76.7885 35.4581C77.512 35.7373 77.8107 34.6089 77.0986 34.3297Z" fill="#892B2B"/>
<path d="M91.879 34.6902C91.7137 30.017 91.0123 25.3791 89.7888 20.8701C88.6808 17.0031 86.4956 13.5417 83.495 10.9005C80.5524 8.41646 77.1117 6.61036 73.4113 5.60745C68.9443 4.43821 64.3305 3.94814 59.7213 4.15331C55.0871 4.17818 50.4681 4.69283 45.9394 5.68888C41.9811 6.57955 38.2594 8.32554 35.0287 10.8075C31.9507 13.2641 29.6509 16.5805 28.4134 20.3466C27.2205 24.2935 26.6773 28.4124 26.8055 32.5381C26.7521 37.0751 27.1911 41.6043 28.1148 46.0441C28.3789 47.2075 28.689 48.3708 29.0565 49.441C29.0849 49.5356 29.1365 49.6213 29.2066 49.69C29.2767 49.7588 29.363 49.8083 29.4572 49.8339C29.5515 49.8595 29.6506 49.8604 29.7453 49.8364C29.8399 49.8125 29.927 49.7645 29.9983 49.6969C31.3159 47.9649 32.2873 45.9892 32.858 43.8804C33.6849 41.484 34.4429 39.0759 35.155 36.633C36.3035 32.7242 37.1764 28.7573 37.9114 24.7556C41.4832 27.3265 46.0657 25.8258 49.7179 24.3019C51.8137 23.299 54.042 22.6093 56.3332 22.2544C58.4576 22.0468 60.6016 22.2521 62.6499 22.8594C66.7326 24.1078 70.4017 26.4607 73.262 29.6647C75.8782 32.7404 78.3097 35.9725 80.5434 39.3435C83.139 42.8334 86.0102 46.3233 89.8232 48.5336C89.8984 48.5777 89.9824 48.604 90.069 48.6105C90.1556 48.617 90.2425 48.6035 90.3232 48.571C90.4039 48.5385 90.4763 48.4879 90.5349 48.423C90.5935 48.3581 90.6369 48.2806 90.6616 48.1963C92.3958 43.9967 92.1432 39.1341 91.879 34.6902Z" fill="#892B2B"/>
<path d="M59.4 133.048H118.8C118.8 133.048 117.652 117.32 113.747 110.376C110.611 104.896 93.0738 95.1478 74.4338 91.2739C73.4746 91.9344 72.4775 92.5365 71.4477 93.0771C69.0999 94.2371 66.6021 95.0556 64.0284 95.5084C58.8529 96.4301 53.5283 95.9362 48.6042 94.0775C46.8165 93.3932 45.1068 92.5156 43.5049 91.4601C25.129 95.4502 8.14281 104.989 5.06485 110.387C1.09107 117.367 0 133.06 0 133.06L59.4 133.048Z" fill="#583D71"/>
<path d="M76.3751 83.7471C74.5283 83.4261 72.6343 83.5214 70.8279 84.0263C68.8181 84.4102 66.8426 84.9104 64.7754 85.0966C61.5351 85.3816 58.2765 85.3816 55.0361 85.0966C53.4512 84.8872 51.8548 84.6196 50.2699 84.352C46.9278 83.7704 43.379 82.9095 40.9097 85.5851C39.9793 86.6294 39.4326 87.9665 39.3614 89.3712C39.2903 90.776 39.6992 92.1627 40.5192 93.2979C42.2534 95.8223 46.0894 97.1019 48.8917 97.8465C52.6028 98.7062 56.4254 98.9615 60.2158 98.6026C63.8262 98.4962 67.4148 97.997 70.9198 97.1136C73.8714 96.2527 77.3513 94.9498 78.3735 91.8089C79.097 89.6102 79.3957 84.6312 76.3751 83.7471Z" fill="#362549"/>
<path d="M61.7891 98.4981L62.9376 98.4167C63.1454 94.0024 62.7591 89.58 61.7891 85.2712H60.6406C61.6418 89.6025 62.0285 94.0563 61.7891 98.4981Z" fill="#684D84"/>
<path d="M75.8119 95.0083C75.8238 93.3936 75.7201 91.7802 75.5018 90.1806C75.3556 88.7442 74.9177 87.354 74.2155 86.0974C73.6867 85.2577 73.0706 84.4777 72.3779 83.7708C71.907 83.8406 71.4591 83.922 71.0342 84.0034C71.8379 84.7863 72.5542 85.6563 73.1704 86.5976C73.8829 87.8648 74.3141 89.2741 74.4337 90.7274C74.6384 92.3823 74.7114 94.0512 74.6519 95.718C75.0546 95.5095 75.4423 95.2723 75.8119 95.0083Z" fill="#684D84"/>
<path d="M68.0825 97.7654L69.231 97.5327C69.3228 93.1648 68.5819 88.82 67.0489 84.7363L65.9004 84.9225C67.3015 89.0755 68.4271 93.4961 68.0825 97.7654Z" fill="#684D84"/>
<path d="M46.089 83.7472C45.6646 83.7181 45.2387 83.7181 44.8142 83.7472C42.9938 87.3288 42.2738 91.3805 42.7469 95.3803C43.1489 95.6362 43.5624 95.8689 43.9873 96.0899C43.2828 91.8533 44.0241 87.5 46.089 83.7472Z" fill="#684D84"/>
<path d="M55.2767 98.7071H56.4252C56.3678 94.1818 56.3334 89.6682 56.3563 85.1429C55.9773 85.1429 55.5983 85.1429 55.2078 85.0731C55.1849 89.6255 55.2078 94.1702 55.2767 98.7071Z" fill="#684D84"/>
<path d="M49.0293 97.8812C48.9214 96.0298 48.9829 94.1722 49.2131 92.3323C49.355 89.6449 49.8931 86.9943 50.8095 84.4683L50.2697 84.3868L49.661 84.2705C48.7907 86.7879 48.2651 89.4143 48.0991 92.0763C47.8734 93.9127 47.7965 95.7646 47.8694 97.6137L48.8915 97.8929L49.0293 97.8812Z" fill="#684D84"/>
<path d="M19.5812 113.551C19.4204 112.83 18.3293 113.133 18.4327 113.854C19.449 118.473 19.9193 123.198 19.8338 127.93C19.8338 128.084 19.8943 128.232 20.002 128.341C20.1097 128.45 20.2558 128.512 20.4081 128.512C20.5604 128.512 20.7064 128.45 20.8141 128.341C20.9218 128.232 20.9823 128.084 20.9823 127.93C21.0675 123.098 20.5973 118.273 19.5812 113.551Z" fill="#362549"/>
<path d="M77.903 100.383C67.8578 104.619 56.6159 104.917 46.3654 101.22C43.493 100.182 40.7398 98.8325 38.1537 97.195C37.5335 96.7995 37.0052 97.7883 37.5794 98.1838C47.1055 104.128 58.4777 106.26 69.4731 104.163C72.5661 103.574 75.5857 102.642 78.4772 101.383C79.1434 101.092 78.5691 100.103 77.903 100.383Z" fill="#362549"/>
<path d="M80.2451 99.4749C80.0928 99.4749 79.9468 99.5362 79.8391 99.6453C79.7314 99.7544 79.6709 99.9023 79.6709 100.057C79.6709 100.211 79.7314 100.359 79.8391 100.468C79.9468 100.577 80.0928 100.638 80.2451 100.638C80.3974 100.638 80.5435 100.577 80.6512 100.468C80.7589 100.359 80.8194 100.211 80.8194 100.057C80.8194 99.9023 80.7589 99.7544 80.6512 99.6453C80.5435 99.5362 80.3974 99.4749 80.2451 99.4749Z" fill="#362549"/>
<path d="M95.9794 113.435C96.1172 112.714 95.0261 112.4 94.8309 113.133C93.6872 118.874 93.4315 124.761 94.0729 130.582C94.1533 131.315 95.3018 131.315 95.2214 130.582C94.5973 124.861 94.853 119.077 95.9794 113.435Z" fill="#362549"/>
</svg>
