<svg width="119" height="130" viewBox="0 0 119 130" fill="none" xmlns="http://www.w3.org/2000/svg">
<path d="M63.2806 0.380527C55.1344 -0.694352 46.8439 0.519068 39.3746 3.87946C28.4834 8.9434 22.25 20.1668 19.7384 31.4572C17.1469 43.4519 18.3114 55.8491 18.5968 68.0898C18.8822 80.3304 18.3456 93.0517 12.626 103.973C43.3247 113.632 76.889 115.845 108.375 108.937C103.512 99.2671 102.793 88.2225 102.542 77.4686C102.085 57.9507 105.544 35.5151 94.162 18.2217C87.4948 8.06027 75.6332 1.85611 63.2806 0.380527Z" fill="#3D2614"/>
<path d="M118.08 133.06H0C0 133.06 1.07315 117.946 5.02323 111.262C6.62153 108.556 12.0215 104.756 19.4079 101.201C23.692 99.1553 28.1127 97.3962 32.6395 95.9356C41.1383 93.0605 50.0444 91.5065 59.0343 91.33C67.9741 91.5021 76.8324 93.0332 85.2921 95.8686C90.1319 97.4145 94.8483 99.3088 99.4027 101.536C106.447 104.99 111.561 108.646 113.102 111.273C117.007 117.958 118.08 133.06 118.08 133.06Z" fill="#684D84"/>
<path d="M74.1268 97.0202C70.7062 99.5846 66.6752 101.254 62.4136 101.872C61.2003 102.047 59.9753 102.133 58.7489 102.129C58.6793 102.129 58.6125 102.156 58.5632 102.204C58.514 102.252 58.4863 102.318 58.4863 102.386C58.4863 102.454 58.514 102.52 58.5632 102.568C58.6125 102.616 58.6793 102.643 58.7489 102.643C64.4069 102.668 69.9114 100.842 74.3894 97.4561C74.652 97.2661 74.3894 96.819 74.1268 97.0202Z" fill="#362549"/>
<path d="M96.2749 133.06H21.9541C22.708 122.372 21.8501 111.633 19.4082 101.19C23.6923 99.1441 28.113 97.385 32.6398 95.9244C33.5531 102.319 34.455 108.679 35.3798 115.085C50.7995 114.909 66.2171 115.584 81.5592 117.108C82.7008 110.032 84.0137 102.933 85.2353 95.8685C90.0751 97.4145 94.7915 99.3088 99.346 101.536C97.1159 111.898 96.0858 122.472 96.2749 133.06Z" fill="#FF8877"/>
<path d="M38.4964 126.61C48.7483 125.962 59.0231 125.761 69.3207 126.007C72.2433 126.085 75.1773 126.186 78.0999 126.331C78.7735 126.331 78.7735 125.347 78.0999 125.314C67.8328 124.799 57.558 124.74 47.2756 125.135C44.3416 125.258 41.419 125.403 38.4964 125.593C37.8228 125.593 37.8228 126.655 38.4964 126.61Z" fill="#B7403D"/>
<path d="M31.8973 122.407C31.8973 122.911 31.7447 123.404 31.4586 123.823C31.1726 124.242 30.7661 124.569 30.2905 124.761C29.8148 124.954 29.2915 125.005 28.7865 124.906C28.2816 124.808 27.8178 124.565 27.4538 124.209C27.0898 123.852 26.8419 123.398 26.7414 122.904C26.641 122.41 26.6925 121.897 26.8895 121.431C27.0866 120.966 27.4202 120.568 27.8482 120.288C28.2763 120.007 28.7795 119.858 29.2944 119.858C29.9847 119.858 30.6468 120.126 31.1349 120.604C31.6231 121.082 31.8973 121.731 31.8973 122.407Z" fill="#FFCB99"/>
<path d="M90.4061 122.407C90.4061 122.911 90.2534 123.404 89.9674 123.823C89.6814 124.242 89.2749 124.569 88.7992 124.761C88.3236 124.954 87.8002 125.005 87.2953 124.906C86.7904 124.808 86.3266 124.565 85.9626 124.209C85.5986 123.852 85.3506 123.398 85.2502 122.904C85.1498 122.41 85.2013 121.897 85.3983 121.431C85.5953 120.966 85.929 120.568 86.357 120.288C86.7851 120.007 87.2883 119.858 87.8031 119.858C88.4935 119.858 89.1555 120.126 89.6437 120.604C90.1318 121.082 90.4061 121.731 90.4061 122.407Z" fill="#FFCB99"/>
<path d="M83.842 21.5977C78.7274 13.9179 68.9321 11.3245 59.0455 11.3245C49.1589 11.3245 39.3636 13.9179 34.2491 21.5977C23.8715 37.1807 28.1527 67.8997 41.7839 78.1618C46.8448 81.626 52.8706 83.4838 59.0455 83.4838C65.2204 83.4838 71.2462 81.626 76.3071 78.1618C89.9269 67.8997 94.2081 37.1807 83.842 21.5977Z" fill="#FFD3B3"/>
<path d="M73.1226 48.3259C73.1226 48.9096 72.9458 49.4802 72.6147 49.9655C72.2835 50.4509 71.8128 50.8291 71.262 51.0525C70.7113 51.2758 70.1053 51.3343 69.5207 51.2204C68.936 51.1065 68.399 50.8255 67.9775 50.4127C67.556 50 67.2689 49.4741 67.1526 48.9017C67.0363 48.3292 67.096 47.7358 67.3242 47.1966C67.5523 46.6573 67.9386 46.1964 68.4342 45.8721C68.9299 45.5478 69.5126 45.3748 70.1087 45.3748C70.908 45.3748 71.6746 45.6857 72.2398 46.2392C72.8051 46.7926 73.1226 47.5432 73.1226 48.3259Z" fill="black"/>
<path d="M69.8682 47.342C69.8682 47.5732 69.7744 47.795 69.6074 47.9585C69.4404 48.1221 69.2139 48.2139 68.9777 48.2139C68.7984 48.2161 68.6224 48.1659 68.4724 48.0698C68.3223 47.9736 68.205 47.8358 68.1353 47.674C68.0656 47.5121 68.0468 47.3337 68.0812 47.1613C68.1157 46.989 68.2018 46.8306 68.3286 46.7064C68.4554 46.5822 68.6172 46.4979 68.7932 46.4642C68.9692 46.4305 69.1515 46.4489 69.3167 46.5171C69.482 46.5854 69.6227 46.7003 69.7209 46.8472C69.8192 46.9941 69.8704 47.1664 69.8682 47.342Z" fill="white"/>
<path d="M50.9976 48.3259C50.9976 48.9096 50.8208 49.4802 50.4896 49.9655C50.1585 50.4509 49.6878 50.8291 49.137 51.0525C48.5863 51.2758 47.9803 51.3343 47.3957 51.2204C46.811 51.1065 46.274 50.8255 45.8525 50.4127C45.431 50 45.1439 49.4741 45.0276 48.9017C44.9113 48.3292 44.971 47.7358 45.1991 47.1966C45.4273 46.6573 45.8136 46.1964 46.3092 45.8721C46.8048 45.5478 47.3876 45.3748 47.9836 45.3748C48.783 45.3748 49.5496 45.6857 50.1148 46.2392C50.68 46.7926 50.9976 47.5432 50.9976 48.3259Z" fill="black"/>
<path d="M47.7433 47.3421C47.7433 47.5172 47.6901 47.6884 47.5904 47.8338C47.4908 47.9793 47.3493 48.0925 47.1838 48.159C47.0184 48.2255 46.8364 48.2423 46.6612 48.2073C46.4859 48.1723 46.3252 48.0871 46.1996 47.9624C46.0739 47.8378 45.9889 47.6794 45.9554 47.5074C45.9219 47.3353 45.9414 47.1574 46.0114 46.9963C46.0814 46.8351 46.1988 46.698 46.3486 46.6023C46.4984 46.5066 46.6739 46.4567 46.8528 46.4589C46.9707 46.4589 47.0874 46.4818 47.1962 46.5263C47.305 46.5709 47.4037 46.6361 47.4865 46.7183C47.5694 46.8004 47.6347 46.8979 47.6788 47.0049C47.7229 47.112 47.7448 47.2266 47.7433 47.3421Z" fill="white"/>
<path d="M56.385 58.6772C56.2837 58.676 56.1856 58.6427 56.1053 58.5822C56.025 58.5218 55.9669 58.4374 55.9398 58.3419C55.0607 55.3683 56.0882 54.3622 57.0814 54.0381C57.7172 53.8985 58.3765 53.8962 59.0133 54.0313C59.6501 54.1664 60.2492 54.4358 60.7689 54.8206C60.8749 54.8843 60.9507 54.9867 60.9796 55.1051C61.0085 55.2236 60.9882 55.3484 60.9231 55.4522C60.858 55.556 60.7534 55.6301 60.6325 55.6584C60.5115 55.6867 60.384 55.6668 60.278 55.6031C59.8709 55.2913 59.4011 55.0674 58.8994 54.946C58.3976 54.8247 57.8754 54.8086 57.3668 54.8988C56.4535 55.1895 56.2252 56.2626 56.796 58.0848C56.8153 58.142 56.8226 58.2024 56.8174 58.2625C56.8123 58.3225 56.7947 58.3809 56.766 58.4341C56.7372 58.4874 56.6977 58.5344 56.6499 58.5723C56.6021 58.6103 56.5469 58.6383 56.4878 58.6549L56.385 58.6772Z" fill="#C16B5B"/>
<path d="M65.2217 62.6345C63.931 63.789 62.3496 64.586 60.6401 64.9436C58.9305 65.3012 57.1546 65.2064 55.4949 64.669C54.5245 64.356 54.1135 65.854 55.0724 66.167C57.0024 66.7774 59.0636 66.8734 61.0441 66.4451C63.0245 66.0168 64.8526 65.0797 66.3405 63.73C67.0825 63.0034 65.9637 61.9079 65.2217 62.6345Z" fill="#C16B5B"/>
<path d="M76.8667 38.3993C75.1881 37.4115 73.3127 36.7876 71.3669 36.5697C69.4212 36.3518 67.4504 36.545 65.5873 37.1361C65.2553 37.2349 64.9745 37.4545 64.8025 37.7497C64.6306 38.0448 64.5805 38.3932 64.6626 38.7234C64.7586 39.0517 64.9819 39.3302 65.2849 39.4994C65.5878 39.6686 65.9463 39.7151 66.2837 39.6289C67.8062 39.1258 69.4224 38.9542 71.0196 39.126C72.6168 39.2979 74.1564 39.809 75.531 40.6238C75.6802 40.7097 75.8451 40.766 76.0165 40.7894C76.1879 40.8129 76.3623 40.803 76.5298 40.7604C76.6973 40.7179 76.8546 40.6434 76.9928 40.5414C77.1309 40.4393 77.2471 40.3116 77.3348 40.1655C77.4225 40.0194 77.48 39.8579 77.5039 39.6901C77.5278 39.5223 77.5178 39.3515 77.4743 39.1875C77.4309 39.0234 77.3548 38.8694 77.2506 38.7342C77.1463 38.5989 77.0159 38.4851 76.8667 38.3993Z" fill="black"/>
<path d="M41.8862 38.3991C43.5663 37.4097 45.4437 36.785 47.3915 36.5671C49.3394 36.3491 51.3123 36.5431 53.177 37.1359C53.5085 37.2347 53.7884 37.4548 53.9585 37.7504C54.1286 38.046 54.1758 38.3944 54.0903 38.7233C53.9969 39.0532 53.774 39.3335 53.4703 39.5032C53.1666 39.6728 52.8068 39.718 52.4692 39.6288C50.9468 39.1257 49.3305 38.954 47.7333 39.1259C46.1361 39.2977 44.5965 39.8089 43.2219 40.6237C43.0727 40.7095 42.9078 40.7658 42.7364 40.7893C42.565 40.8127 42.3906 40.8028 42.2231 40.7603C42.0556 40.7177 41.8983 40.6433 41.7602 40.5412C41.622 40.4391 41.5058 40.3114 41.4181 40.1653C41.3304 40.0193 41.2729 39.8577 41.249 39.6899C41.2251 39.5221 41.2351 39.3513 41.2786 39.1873C41.322 39.0233 41.3981 38.8693 41.5023 38.734C41.6066 38.5988 41.737 38.485 41.8862 38.3991Z" fill="black"/>
<path d="M99.4822 60.7232C95.7605 65.0605 89.8925 66.2455 86.3648 63.3502C82.8371 60.4549 83.0084 54.5861 86.7301 50.2488C90.4519 45.9115 96.3199 44.7153 99.8476 47.6106C103.375 50.5059 103.204 56.3747 99.4822 60.7232Z" fill="#FFD3B3"/>
<path d="M97.4163 49.7345C96.5299 49.3303 95.5608 49.1303 94.5832 49.1497C93.6057 49.169 92.6456 49.4073 91.7766 49.8462C90.9216 50.1974 90.177 50.7645 89.6189 51.4895C89.3084 51.8973 89.1044 52.3733 89.0248 52.876C88.9452 53.3787 88.9924 53.8929 89.1623 54.3736C89.5047 55.0932 90.0367 55.7105 90.7035 56.1622C91.1111 56.4437 91.4663 56.7915 91.7538 57.1906C91.9218 57.4846 91.9907 57.823 91.9506 58.1576C91.9105 58.4921 91.7635 58.8057 91.5306 59.0536C91.2977 59.3015 90.9907 59.471 90.6536 59.538C90.3164 59.6049 89.9663 59.5659 89.6532 59.4264C89.4775 59.3464 89.2767 59.338 89.0947 59.4029C88.9128 59.4679 88.7646 59.601 88.6828 59.7729C88.6426 59.8573 88.6198 59.9485 88.6159 60.0415C88.6119 60.1345 88.6268 60.2274 88.6597 60.3147C88.6926 60.402 88.7429 60.4821 88.8076 60.5503C88.8723 60.6184 88.9502 60.6734 89.0367 60.7119C89.4327 60.8946 89.8662 60.9863 90.3039 60.9802C90.7323 60.9805 91.1562 60.8942 91.5491 60.7269C91.9419 60.5596 92.2953 60.3147 92.5872 60.0077C93.0184 59.5242 93.2862 58.9218 93.3536 58.2832C93.4211 57.6447 93.285 57.0014 92.9639 56.4417C92.5981 55.8948 92.1339 55.4176 91.594 55.0332C91.1158 54.7359 90.7229 54.3242 90.4523 53.837C90.3689 53.5765 90.3513 53.3 90.401 53.0313C90.4507 52.7626 90.5663 52.5097 90.7377 52.2944C90.8935 52.0877 91.0779 51.9034 91.2857 51.7466C92.047 51.7075 92.7947 51.9555 93.3749 52.4397C93.6309 52.721 93.8199 53.0544 93.9285 53.4159C94.0371 53.7774 94.0625 54.1579 94.0028 54.5301C93.9732 54.7168 94.0202 54.9074 94.1336 55.0603C94.2469 55.2131 94.4174 55.3159 94.6079 55.3462H94.7221C94.8946 55.3483 95.0621 55.2896 95.1942 55.1809C95.3262 55.0721 95.4139 54.9205 95.4413 54.7537C95.5371 54.168 95.4976 53.5688 95.3257 53C95.1538 52.4313 94.8539 51.9075 94.4481 51.4672C94.1224 51.1509 93.7338 50.9035 93.3064 50.7405C94.4005 50.4135 95.5793 50.4931 96.6172 50.9641C97.2267 51.2614 97.7051 51.7654 97.9634 52.3823C98.2217 52.9992 98.2423 53.687 98.0214 54.3177C97.9457 54.4904 97.9402 54.685 98.0059 54.8615C98.0717 55.0381 98.2038 55.1835 98.3753 55.2679C98.5509 55.3479 98.7518 55.3563 98.9338 55.2913C99.1157 55.2263 99.2639 55.0933 99.3457 54.9214C99.7251 53.9751 99.7385 52.9257 99.3832 51.9705C99.0278 51.0153 98.3284 50.2201 97.4163 49.7345Z" fill="#C16B5B"/>
<path d="M18.6427 60.7232C22.3644 65.0605 28.2439 66.2455 31.7602 63.3502C35.2764 60.4549 35.128 54.5861 31.4062 50.2488C27.6845 45.9115 21.805 44.7153 18.2888 47.6106C14.7725 50.5059 14.8639 56.3747 18.6427 60.7232Z" fill="#FFD3B3"/>
<path d="M20.6636 49.7345C21.55 49.3303 22.5192 49.1303 23.4967 49.1497C24.4743 49.169 25.4344 49.4073 26.3034 49.8462C27.1544 50.1881 27.8986 50.7433 28.4611 51.456C28.7716 51.8638 28.9756 52.3398 29.0552 52.8425C29.1348 53.3452 29.0876 53.8593 28.9177 54.3401C28.5721 55.061 28.0361 55.6785 27.3651 56.1287C26.9641 56.414 26.6132 56.7614 26.3262 57.1571C26.1582 57.4511 26.0893 57.7895 26.1294 58.124C26.1695 58.4586 26.3165 58.7722 26.5494 59.0201C26.7823 59.268 27.0892 59.4375 27.4264 59.5045C27.7635 59.5714 28.1137 59.5323 28.4268 59.3929C28.5144 59.339 28.6127 59.3039 28.7152 59.2899C28.8176 59.276 28.922 59.2836 29.0213 59.3121C29.1205 59.3406 29.2125 59.3894 29.2911 59.4554C29.3696 59.5213 29.433 59.6028 29.477 59.6945C29.5209 59.7862 29.5445 59.886 29.5462 59.9873C29.5478 60.0886 29.5274 60.1891 29.4864 60.2821C29.4454 60.3751 29.3847 60.4586 29.3083 60.5269C29.2319 60.5952 29.1416 60.6468 29.0433 60.6784C28.6472 60.8611 28.2138 60.9528 27.7761 60.9467C27.3477 60.9469 26.9238 60.8607 26.5309 60.6934C26.1381 60.5261 25.7847 60.2812 25.4928 59.9741C25.0567 59.4935 24.7848 58.8914 24.7152 58.252C24.6456 57.6127 24.7818 56.968 25.1046 56.4081C25.4771 55.8629 25.9447 55.3861 26.486 54.9996C26.9641 54.7024 27.357 54.2907 27.6276 53.8035C27.7111 53.543 27.7287 53.2665 27.6789 52.9978C27.6292 52.7291 27.5137 52.4762 27.3422 52.2609C27.1823 52.054 26.9941 51.8697 26.7828 51.7131C26.0252 51.6757 25.2818 51.9237 24.705 52.4062C24.4498 52.6882 24.2603 53.0213 24.1499 53.3823C24.0395 53.7434 24.0108 54.1236 24.0657 54.4966C24.0821 54.5884 24.0796 54.6825 24.0586 54.7734C24.0375 54.8642 23.9982 54.9501 23.943 55.026C23.8878 55.1019 23.8177 55.1664 23.7369 55.2156C23.656 55.2648 23.566 55.2978 23.4721 55.3126H23.3579C23.1854 55.3148 23.0178 55.2561 22.8858 55.1474C22.7538 55.0386 22.6661 54.887 22.6387 54.7202C22.5404 54.1345 22.5787 53.5346 22.7507 52.9655C22.9227 52.3963 23.2239 51.8726 23.6319 51.4336C23.9408 51.1236 24.3094 50.8766 24.7165 50.707C23.6224 50.3799 22.4436 50.4595 21.4057 50.9306C20.7962 51.2279 20.3178 51.7319 20.0595 52.3488C19.8012 52.9657 19.7806 53.6535 20.0015 54.2842C20.0793 54.4579 20.0847 54.6546 20.0164 54.8321C19.9482 55.0097 19.8117 55.1541 19.6362 55.2344C19.55 55.2738 19.4568 55.296 19.3618 55.2999C19.2669 55.3038 19.172 55.2892 19.0829 55.257C18.9937 55.2247 18.9119 55.1755 18.8423 55.1122C18.7727 55.0488 18.7165 54.9726 18.6772 54.8879C18.3119 53.9392 18.312 52.8927 18.6777 51.9442C19.0433 50.9957 19.7493 50.2101 20.6636 49.7345Z" fill="#C16B5B"/>
<path d="M78.3283 76.3845L59.046 77.5023L39.7637 76.3845C46.0998 80.1964 45.6545 92.5935 45.6545 92.5935C48.8055 95.9471 59.046 95.9471 59.046 95.9471C59.046 95.9471 69.3208 95.9471 72.426 92.5935C72.426 92.5935 71.9922 80.1964 78.3283 76.3845Z" fill="#FFD3B3"/>
<path d="M78.876 13.5937C72.8025 9.97179 65.4617 8.93217 58.3264 8.94335C53.5247 8.86914 48.7383 9.49454 44.1244 10.799C39.4982 12.1145 35.298 14.5791 31.9317 17.9534C28.0096 22.2555 25.6076 27.6807 25.0818 33.4246C24.5588 39.1345 25.2269 44.8888 27.0455 50.338C33.8889 41.8263 38.1566 31.6056 39.3638 20.8374C41.0764 24.0514 43.3568 26.9429 46.0995 29.378C52.8976 30.5016 59.7608 31.2073 66.649 31.4907L64.8338 27.2876L68.2587 31.5578C69.5488 31.5578 70.8503 31.6249 72.1403 31.636L70.679 29.8586C71.3927 30.5141 72.156 31.1157 72.9623 31.6584C78.4878 31.6584 84.002 31.4572 89.4704 30.9654C89.9613 24.0234 84.9495 17.2156 78.876 13.5937Z" fill="#3D2614"/>
</svg>
