<svg width="119" height="131" viewBox="0 0 119 131" fill="none" xmlns="http://www.w3.org/2000/svg">
<path d="M86.2282 82.9088C85.0448 82.8301 83.8574 82.976 82.7234 83.3396C81.3877 83.6866 80.0405 84.0217 78.6934 84.3448C73.3704 85.677 67.9813 86.6998 62.5506 87.4084C52.2758 88.6051 41.67 88.3658 31.7263 84.9432C30.5846 84.5243 29.3517 84.0696 28.1872 83.5669C27.5136 83.2678 27.2282 84.4166 27.8904 84.7038C28.2899 84.8833 28.7009 85.0269 29.1119 85.1825C28.4253 85.4688 27.8152 85.9254 27.334 86.5132C26.8528 87.101 26.5148 87.8024 26.3491 88.5573C25.8126 90.9507 26.7715 93.4997 27.8104 95.606C28.7486 97.7123 30.2887 99.4605 32.2172 100.608C34.2593 101.586 36.4513 102.173 38.6903 102.343C49.5726 104.057 60.5956 104.579 71.581 103.899C76.0105 103.528 80.8283 102.906 84.139 99.3995C85.5557 97.782 86.6744 95.9034 87.4384 93.8587C87.8608 92.7817 88.2375 91.6807 88.58 90.5797C88.952 89.5145 89.2347 88.4174 89.4248 87.3007C89.5178 86.7887 89.5068 86.2619 89.3926 85.7547C89.2784 85.2474 89.0635 84.7711 88.7619 84.3567C88.4603 83.9423 88.0788 83.5992 87.6422 83.3497C87.2057 83.1003 86.7239 82.95 86.2282 82.9088Z" fill="#351F10"/>
<path d="M84.0595 13.2598C78.945 5.03834 69.1611 2.27393 59.2631 2.27393C49.365 2.27393 39.5811 5.00244 34.4666 13.2598C24.1005 29.954 28.3816 62.8399 42.0014 73.8138C47.0599 77.5289 53.0866 79.5218 59.2631 79.5218C65.4395 79.5218 71.4663 77.5289 76.5247 73.8138C90.1559 62.8399 94.4256 29.954 84.0595 13.2598Z" fill="#FFD3B3"/>
<path d="M78.3283 71.839L59.046 73.0357L39.7637 71.839C46.0998 75.9198 45.6545 89.1914 45.6545 89.1914C48.8169 92.7816 59.046 92.7816 59.046 92.7816C59.046 92.7816 69.3208 92.7816 72.4375 89.1914C72.4375 89.1914 71.9922 75.9198 78.3283 71.839Z" fill="#FFD3B3"/>
<path d="M99.4941 55.0729C95.7724 59.7161 89.8929 60.9847 86.3767 57.8852C82.8604 54.7857 82.9518 48.5029 86.7306 43.8477C90.5094 39.1924 96.3318 37.9359 99.848 41.0354C103.364 44.1349 103.216 50.4775 99.4941 55.0729Z" fill="#FFD3B3"/>
<path d="M98.1471 43.7164C97.602 43.4227 97.0036 43.2537 96.3915 43.2207C95.7794 43.1877 95.1676 43.2914 94.5966 43.5249C92.4311 44.282 90.6146 45.8616 89.5049 47.9527C89.4674 48.0211 89.4431 48.0965 89.4335 48.1747C89.4238 48.2529 89.4289 48.3324 89.4485 48.4085C89.4881 48.5622 89.5844 48.6931 89.7161 48.7725C89.8478 48.8518 90.0042 48.8731 90.1509 48.8316C90.2975 48.7901 90.4224 48.6892 90.4981 48.5511C91.3734 46.9472 92.7243 45.6866 94.3454 44.961C95.2186 44.4918 96.2239 44.3686 97.1767 44.6139C97.5562 44.7267 97.8861 44.9751 98.1092 45.3161C98.3323 45.657 98.4346 46.0691 98.3983 46.4808C98.307 47.2467 99.4486 47.2347 99.5399 46.4808C99.5859 45.9284 99.4789 45.3739 99.2319 44.8836C98.9848 44.3933 98.6082 43.9881 98.1471 43.7164Z" fill="#D3966C"/>
<path d="M90.931 50.1905C90.8257 50.3043 90.7668 50.4567 90.7668 50.6153C90.7668 50.7739 90.8257 50.9263 90.931 51.0401L90.9995 51.1478L91.1023 51.3274V51.4111C91.0972 51.4788 91.0972 51.5468 91.1023 51.6146C91.0979 51.6543 91.0979 51.6945 91.1023 51.7342V51.9257C91.1079 52.0014 91.1079 52.0774 91.1023 52.1531C91.1066 52.1928 91.1066 52.233 91.1023 52.2728C91.1074 52.3325 91.1074 52.3925 91.1023 52.4523V52.536L91.0109 52.7155V52.7873V52.8472V52.919L90.8511 53.0626L90.6456 53.1823C90.516 53.2622 90.4217 53.3925 90.3833 53.5449C90.3448 53.6972 90.3652 53.8594 90.4401 53.996C90.5205 54.1304 90.6468 54.2275 90.7932 54.2676C90.9396 54.3076 91.0951 54.2875 91.2279 54.2114C91.5535 54.0286 91.8381 53.7749 92.0625 53.4674C92.287 53.1599 92.4461 52.8056 92.5293 52.4283C92.6159 52.0094 92.6084 51.575 92.5074 51.1596C92.4063 50.7443 92.2145 50.3592 91.9471 50.0349C91.8868 49.9421 91.8029 49.8689 91.7048 49.8237C91.6068 49.7785 91.4986 49.7631 91.3926 49.7794C91.2866 49.7956 91.1871 49.8427 91.1055 49.9154C91.0239 49.9881 90.9634 50.0834 90.931 50.1905Z" fill="#D3966C"/>
<path d="M18.5973 55.0729C22.3191 59.7161 28.1871 60.9847 31.7148 57.8852C35.2424 54.7857 35.0712 48.5029 31.3494 43.8477C27.6277 39.1924 21.7596 37.9359 18.232 41.0354C14.7043 44.1349 14.8756 50.4775 18.5973 55.0729Z" fill="#FFD3B3"/>
<path d="M28.5754 47.9527C27.4657 45.8616 25.6492 44.282 23.4837 43.5249C22.9127 43.2914 22.3009 43.1877 21.6888 43.2207C21.0767 43.2537 20.4783 43.4227 19.9332 43.7164C19.4814 43.9837 19.1109 44.3794 18.8644 44.858C18.618 45.3365 18.5056 45.8783 18.5403 46.4209C18.6317 47.1749 19.7733 47.1868 19.682 46.4209C19.6479 46.0096 19.7511 45.5987 19.9739 45.2582C20.1967 44.9178 20.5252 44.6689 20.9036 44.5541C21.8563 44.3077 22.862 44.4309 23.7348 44.9011C25.3593 45.6261 26.714 46.8865 27.5936 48.4913C27.9475 49.2811 28.9293 48.6229 28.5754 47.9527Z" fill="#D3966C"/>
<path d="M27.6389 53.3018L27.4449 53.1822H27.3878L27.2393 53.0386L27.1708 52.9668V52.9069L27.1138 52.8351L27.0339 52.6556V52.5718C27.0339 52.5718 27.0339 52.4522 27.0339 52.3923C27.0339 52.3325 27.0339 52.3086 27.0339 52.2727C27.0282 52.197 27.0282 52.121 27.0339 52.0453C27.0274 52.0137 27.0274 51.9811 27.0339 51.9495V51.8538V51.7341C27.0476 51.6648 27.0667 51.5968 27.0909 51.5307V51.4469C27.1169 51.3847 27.1474 51.3247 27.1823 51.2674L27.2508 51.1597C27.3561 51.0459 27.415 50.8935 27.415 50.7349C27.415 50.5763 27.3561 50.4239 27.2508 50.31C27.1987 50.2543 27.1365 50.2101 27.0679 50.1798C26.9993 50.1496 26.9256 50.134 26.8512 50.134C26.7768 50.134 26.7031 50.1496 26.6345 50.1798C26.5659 50.2101 26.5037 50.2543 26.4516 50.31C26.1818 50.6329 25.9885 51.0179 25.8873 51.4337C25.7862 51.8496 25.78 52.2846 25.8694 52.7035C25.9505 53.0817 26.1088 53.4369 26.3335 53.7448C26.5582 54.0526 26.8438 54.3057 27.1708 54.4866C27.2996 54.5476 27.4454 54.5564 27.58 54.5112C27.7146 54.466 27.8284 54.3701 27.8994 54.2421C27.9704 54.114 27.9936 53.9629 27.9645 53.818C27.9354 53.673 27.8559 53.5445 27.7417 53.4574L27.6389 53.3018Z" fill="#D3966C"/>
<path d="M73.1226 41.8012C73.1226 42.426 72.9458 43.0369 72.6147 43.5564C72.2835 44.076 71.8128 44.4809 71.2621 44.72C70.7113 44.9591 70.1053 45.0217 69.5207 44.8998C68.936 44.7779 68.399 44.477 67.9775 44.0352C67.556 43.5933 67.2689 43.0304 67.1526 42.4175C67.0363 41.8047 67.096 41.1694 67.3242 40.5922C67.5523 40.0149 67.9386 39.5214 68.4342 39.1743C68.9299 38.8271 69.5126 38.6418 70.1087 38.6418C70.908 38.6418 71.6746 38.9747 72.2399 39.5672C72.8051 40.1597 73.1226 40.9633 73.1226 41.8012Z" fill="#754623"/>
<path d="M50.9965 41.8012C50.9965 42.426 50.8198 43.0369 50.4886 43.5564C50.1574 44.076 49.6868 44.4809 49.136 44.72C48.5853 44.9591 47.9793 45.0217 47.3947 44.8998C46.81 44.7779 46.273 44.477 45.8515 44.0352C45.43 43.5933 45.143 43.0304 45.0267 42.4175C44.9104 41.8047 44.97 41.1694 45.1982 40.5922C45.4263 40.0149 45.8126 39.5214 46.3082 39.1743C46.8039 38.8271 47.3866 38.6418 47.9827 38.6418C48.782 38.6418 49.5486 38.9747 50.1138 39.5672C50.679 40.1597 50.9965 40.9633 50.9965 41.8012Z" fill="#754623"/>
<path d="M61.6938 41.6699C61.6802 41.5112 61.607 41.3646 61.4903 41.2625C61.3736 41.1604 61.223 41.1111 61.0716 41.1253C60.9202 41.1396 60.7804 41.2164 60.683 41.3387C60.5856 41.461 60.5385 41.6189 60.5522 41.7776C60.6044 43.8646 60.3894 45.9495 59.9128 47.9766C59.6016 47.884 59.2851 47.8121 58.9653 47.7611C58.5097 47.6913 58.0448 47.7323 57.6067 47.8808C57.3316 47.9792 57.079 48.1363 56.8648 48.3423C56.6506 48.5483 56.4795 48.7987 56.3624 49.0775C56.1845 49.5276 56.1254 50.0194 56.1911 50.5016C56.2313 50.887 56.3195 51.2653 56.4537 51.6266C56.6852 52.3258 57.0772 52.9546 57.5953 53.4575C57.6953 53.5475 57.8214 53.5992 57.953 53.6043C58.0847 53.6094 58.2141 53.5675 58.3201 53.4856C58.4261 53.4036 58.5025 53.2864 58.5367 53.153C58.571 53.0197 58.5611 52.8781 58.5086 52.7515C58.2878 52.263 58.1377 51.7426 58.0634 51.2077C58.0063 50.7051 57.972 50.1426 58.0634 50.011H58.2232C58.3669 49.9862 58.5134 49.9862 58.6571 50.011C59.3108 50.1751 59.9836 50.2395 60.6549 50.2025H60.769C60.9579 50.1805 61.1345 50.0934 61.2709 49.9547C61.4073 49.8161 61.4958 49.6338 61.5225 49.4366C61.972 46.8735 62.0298 44.2519 61.6938 41.6699Z" fill="#D3966C"/>
<path d="M63.1665 57.6581C63.8653 57.3718 64.6329 57.3257 65.3584 57.5265C65.7499 57.7576 66.0744 58.0954 66.2975 58.5041C66.5206 58.9129 66.634 59.3773 66.6256 59.8481C66.6437 60.8937 66.4106 61.9273 65.9478 62.8537C65.4849 63.7802 64.8072 64.5697 63.977 65.1496C62.2861 66.2956 60.271 66.7983 58.2688 66.5737C57.2431 66.5273 56.2364 66.2675 55.3073 65.8093C54.3783 65.3512 53.5455 64.7038 52.8574 63.905C51.8642 62.6126 50.5171 59.3694 52.1496 58.065C52.5121 57.839 52.915 57.6937 53.3334 57.6381C53.7517 57.5825 54.1766 57.6179 54.5813 57.7419C55.9047 58.0293 57.2491 58.1974 58.5999 58.2445C60.1401 58.2613 61.6756 58.0641 63.1665 57.6581Z" fill="#8E4136"/>
<path d="M64.4459 64.7665C63.8782 64.0054 63.1496 63.393 62.3175 62.9776C61.4853 62.5623 60.5725 62.3553 59.651 62.373C58.6174 62.3505 57.5967 62.6169 56.6939 63.1448C55.791 63.6727 55.0385 64.4431 54.5137 65.3768C55.672 66.067 56.9633 66.476 58.2925 66.5735C60.2947 66.7981 62.3097 66.2954 64.0007 65.1494L64.4459 64.7665Z" fill="#C16B5B"/>
<path d="M65.8842 57.9095C65.7342 57.7477 65.556 57.6177 65.3591 57.5265C64.6336 57.3257 63.866 57.3718 63.1671 57.6581C61.6763 58.0641 60.1408 58.2613 58.6006 58.2445C57.2498 58.1974 55.9054 58.0293 54.582 57.7419C54.1772 57.6179 53.7524 57.5825 53.3341 57.6381C52.9157 57.6937 52.5127 57.839 52.1503 58.065C52.1094 58.1019 52.0713 58.1419 52.0361 58.1847C52.5578 58.6848 53.156 59.0894 53.8057 59.3814C54.8734 59.8087 55.9981 60.059 57.1393 60.1234C59.0373 60.3217 60.9494 60.3217 62.8475 60.1234C63.6517 60.0983 64.429 59.8142 65.0737 59.3096C65.4513 58.9213 65.73 58.4399 65.8842 57.9095Z" fill="white"/>
<path d="M39.8895 57.8612C42.6007 57.8612 44.7986 55.5573 44.7986 52.7153C44.7986 49.8733 42.6007 47.5695 39.8895 47.5695C37.1783 47.5695 34.9805 49.8733 34.9805 52.7153C34.9805 55.5573 37.1783 57.8612 39.8895 57.8612Z" fill="#FFA878"/>
<path d="M76.4218 57.8612C79.133 57.8612 81.3308 55.5573 81.3308 52.7153C81.3308 49.8733 79.133 47.5695 76.4218 47.5695C73.7106 47.5695 71.5127 49.8733 71.5127 52.7153C71.5127 55.5573 73.7106 57.8612 76.4218 57.8612Z" fill="#FFA878"/>
<path d="M52.847 31.605C50.7158 30.2235 48.2295 29.5659 45.7282 29.7223C43.2268 29.8787 40.8327 30.8414 38.8733 32.4787C38.291 32.9454 39.113 33.795 39.6839 33.3164C41.4614 31.8749 43.6167 31.0371 45.861 30.9152C48.1054 30.7933 50.3317 31.3931 52.2419 32.6342C52.9041 33.0411 53.5091 32.0119 52.847 31.605Z" fill="#684D84"/>
<path d="M76.6612 30.9591C74.7299 30.1575 72.6631 29.7759 70.5867 29.8376C68.5103 29.8993 66.4676 30.4031 64.5827 31.3181C63.9091 31.6412 64.4913 32.6704 65.1535 32.3473C66.91 31.5151 68.8095 31.0659 70.7366 31.0268C72.6638 30.9877 74.5785 31.3596 76.3644 32.1199C77.0379 32.4071 77.3348 31.2463 76.6612 30.9591Z" fill="#684D84"/>
<path d="M113.057 109.2C109.107 102.02 82.2325 87.839 59.0457 87.839C35.859 87.839 8.98471 102.044 5.02322 109.2C1.06172 116.357 0 132.524 0 132.524H118.08C118.08 132.524 117.007 116.297 113.057 109.2Z" fill="#FFD3B3"/>
<path d="M87.2213 13.4631C81.5131 3.63803 70.0967 0 59.2625 0C48.4283 0 37.0004 3.59016 31.3036 13.4631C25.6068 23.336 27.7417 46.6601 29.9679 46.0258C30.6872 45.8224 31.0297 44.482 31.2922 42.3638C31.669 39.8148 34.0664 39.3122 34.2262 36.452C34.3861 33.5919 32.274 32.3952 33.0161 28.4939C33.4404 26.3006 33.9856 24.1349 34.6487 22.0077C38.4732 9.82506 50.2777 16.8977 59.251 16.8977C68.2243 16.8977 80.0289 9.82506 83.8648 22.0077C84.5192 24.1235 85.0567 26.2772 85.4746 28.458C86.2166 32.3593 84.0932 33.568 84.2644 36.4161C84.4357 39.2643 86.8217 39.7789 87.1984 42.3279C87.461 44.4461 87.8035 45.7865 88.5342 45.9899C90.7832 46.6601 92.9181 23.3001 87.2213 13.4631Z" fill="#684D84"/>
<path d="M118.08 132.525C118.08 132.525 117.007 116.345 113.057 109.2C110.123 103.875 94.5165 94.6603 77.1636 90.2923C76.2274 90.7471 75.3027 91.2497 74.3894 91.7882C71.9719 93.3567 69.3948 94.6371 66.7061 95.6058C64.2854 96.3517 61.7744 96.7266 59.2512 96.7187C54.1692 96.7201 49.1861 95.2455 44.8551 92.4584C43.7649 91.7478 42.7304 90.9475 41.7612 90.0649C24.0772 94.3492 8.01432 103.779 5.02322 109.212C1.07314 116.393 0 132.536 0 132.536H118.08V132.525Z" fill="#89496B"/>
<path d="M113.057 109.201C111.241 105.91 104.608 101.147 95.7151 96.9464C96.4289 96.1441 96.9142 95.1482 97.1159 94.0717C97.3177 92.9952 97.2279 91.8809 96.8567 90.8551C96.5402 89.9915 95.9812 89.2489 95.2535 88.7254C94.5258 88.2019 93.6636 87.9222 92.7811 87.9232C93.2263 87.1051 93.5112 86.2021 93.619 85.267C93.7269 84.332 93.6555 83.3838 93.409 82.4781C93.0487 81.5634 92.3959 80.8087 91.5626 80.3435C90.7293 79.8784 89.7676 79.7319 88.8424 79.9291C86.8215 80.4442 85.0387 81.6901 83.8078 83.4474C82.4671 85.1213 81.4406 87.046 80.7824 89.1199C80.3064 90.6683 80.0449 92.2804 80.0061 93.9067C78.7054 104.428 78.0192 115.023 77.9512 125.632C77.9512 127.929 77.8941 130.239 77.9512 132.549H118.011C118.011 132.549 117.007 116.297 113.057 109.201Z" fill="#351F10"/>
<path d="M36.7837 124.518C36.738 117.873 36.4298 111.243 35.859 104.629C35.859 104.031 35.859 103.432 35.7791 102.834C35.5736 98.3462 35.5165 93.6431 33.8839 89.4067C32.6167 86.1516 30.2763 82.8248 26.9541 81.6759C26.0835 81.3239 25.1156 81.3454 24.2599 81.7357C23.8534 81.9898 23.5001 82.3276 23.2215 82.7287C22.9429 83.1297 22.7446 83.5858 22.6387 84.0694C22.1001 85.9067 22.1725 87.8814 22.8443 89.67C22.0544 89.5639 21.2523 89.7105 20.5434 90.0906C19.8344 90.4708 19.2515 91.0667 18.8713 91.8002C18.6202 92.3955 18.5457 93.0563 18.6577 93.6966C18.7697 94.3369 19.0629 94.9271 19.4992 95.3903C19.0035 95.7384 18.6091 96.2231 18.3593 96.7911C18.1096 97.3591 18.0142 97.9883 18.0836 98.6095C18.0836 98.7651 18.0836 98.9087 18.1749 99.0642C11.4278 102.654 6.5416 106.448 5.02322 109.188C1.07314 116.369 0 132.512 0 132.512H36.0302C36.0873 133.242 37.1719 133.242 37.1719 132.512C37.0425 129.848 36.9131 127.183 36.7837 124.518Z" fill="#351F10"/>
</svg>
