<svg width="80" height="95" viewBox="0 0 80 95" fill="none" xmlns="http://www.w3.org/2000/svg">
<path d="M24.8016 26.0346L24.8016 26.0315C24.7954 24.0419 25.3102 22.0808 26.3014 20.3291C27.2923 18.5778 28.7282 17.0907 30.4802 16.0081C41.9725 8.98774 53.8264 16.0361 55.0814 26.0046V37.0035H24.8016L24.8016 26.0346Z" stroke="#A96E0F" stroke-width="2"/>
<path d="M43.8026 67.009L44.3051 66.7208C45.3461 66.1237 46.1995 65.2895 46.7892 64.3035C47.3785 63.3183 47.6864 62.2121 47.6884 61.0903C47.6876 56.1632 41.7475 52.2002 35.8145 55.8767L35.8138 55.8771C35.4457 56.1048 35.1362 56.3987 34.9017 56.7375L43.8026 67.009ZM43.8026 67.009V67.5882M43.8026 67.009V67.5882M43.8026 67.5882V74.1106H37.3051V67.5882V67.0119M43.8026 67.5882L37.3051 67.0119M37.3051 67.0119L36.8065 66.723M37.3051 67.0119L36.8065 66.723M36.8065 66.723C35.1967 65.7902 34.0268 64.3045 33.5981 62.5768M36.8065 66.723L33.5981 62.5768M33.5981 62.5768C33.1737 60.8668 33.4536 58.8322 34.9017 56.7375L33.5981 62.5768Z" fill="#4A40AD" stroke="#A96E0F" stroke-width="2"/>
<path d="M76.003 92.4191C74.6392 93.4406 72.9553 93.999 71.2172 93.9999H8.78132C7.044 93.997 5.36129 93.4378 3.99813 92.4166C3.0051 91.6727 2.22383 90.7155 1.70962 89.6335H78.2918C77.7782 90.7166 76.9968 91.6748 76.003 92.4191Z" fill="#B0893E" stroke="#A96E0F" stroke-width="2"/>
<path d="M78.9107 87.6353H1.08993C1.03224 87.2737 1.00215 86.9083 1 86.542V86.2004H79L79 86.5405C79 86.5411 79 86.5417 79 86.5423C78.9984 86.9085 78.9685 87.2738 78.9107 87.6353Z" fill="#4A40AD" stroke="#A96E0F" stroke-width="2"/>
<path d="M78.9983 84.2004H1L1 43.2828L1 43.2825C0.999824 42.726 1.11356 42.1739 1.33577 41.6575C1.55802 41.141 1.88496 40.6691 2.29987 40.2699C2.71486 39.8706 3.20962 39.5519 3.75684 39.3339C4.3041 39.1159 4.89191 39.0033 5.48635 39.0035H5.48664H11.1538H12.1538V38.0035V25.9992C12.1538 17.0998 17.1502 8.80205 25.3528 4.65189L25.3536 4.65148C46.2466 -5.94349 67.1139 8.0607 67.8353 26.7617H67.6624V27.7617V38.0035V39.0035H68.6624H74.5117H74.512C75.1063 39.0033 75.694 39.1159 76.2412 39.3338C76.7883 39.5517 77.283 39.8703 77.698 40.2694C78.1129 40.6685 78.4398 41.1402 78.6622 41.6566C78.8845 42.1729 78.9983 42.7248 78.9983 43.2812V84.2004ZM43.6792 74.7091H44.6792V73.7091V67.5936C45.6308 66.9384 46.427 66.0871 47.0071 65.0957C47.6852 63.9369 48.0441 62.627 48.0467 61.2919V61.29C48.0467 55.299 41.1662 51.1065 34.9103 55.0724C34.3783 55.4091 33.9216 55.8497 33.5706 56.3686L33.5703 56.369C32.044 58.6279 31.6657 60.9752 32.1701 63.055C32.624 64.9263 33.7774 66.5175 35.3258 67.5909V73.7091V74.7091H36.3258H43.6792ZM56.0814 39.0035H57.0814V38.0035V25.9413V25.8808L57.0741 25.8207C55.6758 14.319 42.1423 6.54181 29.4355 14.3026L29.4313 14.3052C27.3974 15.5615 25.721 17.2934 24.5607 19.3442C23.4005 21.3948 22.7946 23.6963 22.8016 26.0359V38.0035V39.0035H23.8016H56.0814Z" fill="#B0893E" stroke="#A96E0F" stroke-width="2"/>
</svg>
