<svg width="100" height="40" viewBox="0 0 100 40" fill="none" xmlns="http://www.w3.org/2000/svg">
<path d="M23.9325 17.4211C21.9912 17.4188 20.0929 18.0552 18.4778 19.2499C16.8626 20.4445 15.6032 22.1437 14.8588 24.1326C14.1145 26.1214 13.9186 28.3104 14.296 30.4228C14.6735 32.5351 15.6072 34.4757 16.9792 35.9993C18.3511 37.5228 20.0996 38.5607 22.0034 38.9817C23.9073 39.4027 25.8809 39.1878 27.6746 38.3643C29.4683 37.5407 31.0015 36.1455 32.0803 34.3552C33.159 32.5649 33.7348 30.4599 33.7348 28.3064C33.732 25.4225 32.6987 22.6574 30.8613 20.6171C29.0239 18.5767 26.5323 17.4274 23.9325 17.4211ZM23.9325 33.8917C22.9367 33.8917 21.9632 33.5641 21.1352 32.9504C20.3072 32.3367 19.6618 31.4644 19.2807 30.4438C18.8996 29.4233 18.7999 28.3002 18.9942 27.2168C19.1885 26.1334 19.668 25.1382 20.3722 24.3571C21.0764 23.576 21.9735 23.044 22.9502 22.8285C23.9269 22.613 24.9393 22.7236 25.8593 23.1464C26.7794 23.5691 27.5657 24.285 28.119 25.2034C28.6723 26.1219 28.9676 27.2018 28.9676 28.3064C28.9535 29.7785 28.4171 31.1852 27.4747 32.2217C26.5323 33.2582 25.2596 33.8411 23.9325 33.8442V33.8917Z" fill="#F19D16"/>
<path d="M23.9325 0.0830143C21.9908 0.0806641 20.092 0.717389 18.4767 1.91258C16.8613 3.10776 15.6019 4.80767 14.8578 6.79718C14.1138 8.78669 13.9185 10.9764 14.2968 13.089C14.6751 15.2017 15.6099 17.1423 16.9829 18.6653C18.356 20.1884 20.1055 21.2254 22.01 21.645C23.9145 22.0646 25.8885 21.8481 27.682 21.0227C29.4755 20.1974 31.008 18.8003 32.0855 17.0084C33.1629 15.2165 33.7369 13.1103 33.7348 10.9564C33.7291 8.07453 32.6946 5.31247 30.8575 3.27467C29.0204 1.23688 26.5305 0.0892929 23.9325 0.0830143ZM23.9325 16.5535C22.9341 16.5559 21.9575 16.2296 21.1263 15.616C20.2951 15.0024 19.6467 14.1291 19.2632 13.1066C18.8796 12.0841 18.7782 10.9583 18.9717 9.87178C19.1652 8.78526 19.6449 7.78684 20.3501 7.00288C21.0553 6.21892 21.9544 5.68466 22.9335 5.46772C23.9125 5.25079 24.9276 5.36093 25.8502 5.78421C26.7729 6.2075 27.5615 6.92489 28.1164 7.84559C28.6713 8.76628 28.9675 9.8489 28.9675 10.9564C28.9676 12.4388 28.4374 13.8606 27.4935 14.91C26.5495 15.9593 25.2689 16.5504 23.9325 16.5535Z" fill="#F19D16"/>
<path d="M9.82369 8.73438C7.88195 8.73203 5.98322 9.36876 4.36784 10.5639C2.75246 11.7591 1.49306 13.459 0.749005 15.4486C0.00495455 17.4381 -0.190287 19.6277 0.188009 21.7404C0.566302 23.853 1.50112 25.7937 2.87414 27.3167C4.24716 28.8398 5.99665 29.8767 7.90118 30.2964C9.80572 30.716 11.7797 30.4994 13.5732 29.6741C15.3667 28.8487 16.8992 27.4517 17.9767 25.6598C19.0541 23.8679 19.6281 21.7617 19.626 19.6078C19.6231 16.7249 18.5895 13.9611 16.7518 11.9226C14.9141 9.88412 12.4225 8.73753 9.82369 8.73438ZM9.82369 25.193C8.82785 25.193 7.85438 24.8654 7.02637 24.2517C6.19835 23.638 5.55299 22.7657 5.1719 21.7452C4.7908 20.7246 4.69109 19.6016 4.88537 18.5181C5.07965 17.4347 5.55921 16.4395 6.26337 15.6584C6.96754 14.8773 7.86468 14.3454 8.84139 14.1299C9.81809 13.9144 10.8305 14.025 11.7505 14.4477C12.6706 14.8704 13.4569 15.5863 14.0102 16.5048C14.5634 17.4233 14.8587 18.5031 14.8587 19.6078C14.8587 21.0891 14.3283 22.5097 13.384 23.5571C12.4398 24.6046 11.1591 25.193 9.82369 25.193Z" fill="#F19D16"/>
<path d="M80.7751 17.4923V9.85122C80.7751 9.11057 81.0403 8.40025 81.5125 7.87653C81.9846 7.35281 82.6249 7.05859 83.2926 7.05859C83.9603 7.05859 84.6006 7.35281 85.0728 7.87653C85.5449 8.40025 85.8101 9.11057 85.8101 9.85122V13.856C85.8101 13.4892 85.8753 13.1261 86.0018 12.7873C86.1283 12.4485 86.3137 12.1406 86.5475 11.8813C86.7813 11.6219 87.0588 11.4163 87.3642 11.2759C87.6697 11.1356 87.9971 11.0633 88.3277 11.0633C88.6583 11.0633 88.9856 11.1356 89.2911 11.2759C89.5965 11.4163 89.8741 11.6219 90.1078 11.8813C90.3416 12.1406 90.527 12.4485 90.6536 12.7873C90.7801 13.1261 90.8452 13.4892 90.8452 13.856V9.88687C90.8452 9.14622 91.1104 8.43589 91.5826 7.91218C92.0547 7.38846 92.695 7.09424 93.3627 7.09424C94.0304 7.09424 94.6708 7.38846 95.1429 7.91218C95.615 8.43589 95.8802 9.14622 95.8802 9.88687V17.528L80.7751 17.4923Z" fill="#F19D16"/>
<path d="M85.8101 9.85146V13.8562C85.8101 13.1155 86.0754 12.4052 86.5475 11.8815C87.0196 11.3578 87.66 11.0636 88.3277 11.0636C88.9954 11.0636 89.6357 11.3578 90.1078 11.8815C90.58 12.4052 90.8452 13.1155 90.8452 13.8562V9.88711C90.8452 9.14646 91.1104 8.43613 91.5826 7.91242C92.0547 7.3887 92.695 7.09448 93.3627 7.09448V17.3262H83.2926V7.09448C83.9548 7.09442 84.5903 7.38376 85.0615 7.8998C85.5327 8.41583 85.8017 9.11701 85.8101 9.85146Z" fill="#FCC358"/>
<path d="M99.2227 19.6078C99.2227 19.2598 99.1609 18.9152 99.0408 18.5937C98.9208 18.2722 98.7448 17.98 98.5229 17.734C98.3011 17.4879 98.0378 17.2927 97.7479 17.1595C97.4581 17.0263 97.1474 16.9578 96.8337 16.9578L26.3108 16.9578C25.9975 16.9578 25.6874 17.0264 25.3982 17.1597C25.1089 17.293 24.8463 17.4884 24.6253 17.7347C24.4043 17.9809 24.2293 18.2731 24.1104 18.5946C23.9916 18.916 23.9311 19.2604 23.9325 19.6078C23.9311 19.9552 23.9916 20.2996 24.1104 20.621C24.2293 20.9425 24.4043 21.2347 24.6253 21.481C24.8463 21.7272 25.1089 21.9225 25.3982 22.0559C25.6874 22.1892 25.9975 22.2578 26.3108 22.2578L96.8337 22.2578C97.1474 22.2578 97.4581 22.1893 97.7479 22.0561C98.0378 21.9229 98.3011 21.7277 98.5229 21.4816C98.7448 21.2356 98.9208 20.9434 99.0408 20.6219C99.1609 20.3004 99.2227 19.9558 99.2227 19.6078Z" fill="#F19D16"/>
<path d="M29.1068 18.7401L96.8337 18.7401C96.9364 18.7401 97.0381 18.7625 97.133 18.8061C97.2278 18.8497 97.314 18.9136 97.3867 18.9942C97.4593 19.0748 97.5169 19.1704 97.5562 19.2756C97.5955 19.3809 97.6157 19.4937 97.6157 19.6076C97.6157 19.7215 97.5955 19.8343 97.5562 19.9396C97.5169 20.0448 97.4593 20.1405 97.3867 20.221C97.314 20.3016 97.2278 20.3655 97.133 20.4091C97.0381 20.4527 96.9364 20.4751 96.8337 20.4751L29.1068 20.4751L30.7673 23.2439C31.4493 24.3942 31.8869 25.7013 32.047 27.0665C32.2071 28.4317 32.0856 29.8194 31.6916 31.125C31.2977 32.4305 30.6416 33.6197 29.7728 34.6029C28.904 35.5861 27.8453 36.3375 26.6765 36.8006C25.5077 37.2636 24.2594 37.4261 23.0257 37.2759C21.792 37.1256 20.6052 36.6665 19.5548 35.9332C18.5044 35.1999 17.6179 34.2115 16.9621 33.0426C16.3063 31.8737 15.8985 30.5549 15.7693 29.1857L15.5336 26.6189L13.4553 27.8072C12.3298 28.4404 11.0856 28.7702 9.82362 28.7698C8.59161 28.7621 7.37697 28.4468 6.26983 27.8472C5.16269 27.2477 4.19144 26.3793 3.42817 25.3065C2.66491 24.2337 2.1292 22.984 1.8608 21.6502C1.59241 20.3164 1.59821 18.9326 1.87777 17.6016C2.15733 16.2706 2.70347 15.0265 3.4757 13.9617C4.24792 12.8968 5.2264 12.0385 6.33852 11.4503C7.45064 10.8622 8.66786 10.5594 9.89988 10.5645C11.1319 10.5695 12.3471 10.8822 13.4553 11.4793L15.5336 12.6676L15.7693 10.1008C15.8985 8.73155 16.3063 7.41275 16.9621 6.24388C17.6179 5.07502 18.5044 4.08663 19.5548 3.3533C20.6052 2.61997 21.792 2.16086 23.0257 2.0106C24.2594 1.86035 25.5077 2.02289 26.6765 2.48594C27.8453 2.94898 28.904 3.70044 29.7728 4.68363C30.6416 5.66681 31.2977 6.85604 31.6916 8.16157C32.0856 9.4671 32.2071 10.8548 32.047 12.22C31.8869 13.5853 31.4493 14.8923 30.7673 16.0425L29.1068 18.7401ZM30.5745 28.2469C30.5766 26.7863 30.188 25.3579 29.4578 24.1425C28.7276 22.9271 27.6887 21.9794 26.4726 21.4194C25.2566 20.8594 23.918 20.7122 22.6265 20.9966C21.335 21.281 20.1487 21.984 19.2176 23.0168C18.2866 24.0496 17.6528 25.3656 17.3964 26.7983C17.14 28.2309 17.2727 29.7156 17.7776 31.0646C18.2824 32.4135 19.1368 33.566 20.2324 34.376C21.3281 35.1859 22.6158 35.617 23.9325 35.6147C25.6913 35.6115 27.3775 34.8359 28.6222 33.4575C29.8669 32.079 30.5688 30.2098 30.5745 28.2588V28.2469ZM30.5745 10.9445C30.5745 9.48445 30.184 8.05722 29.4525 6.84339C28.7211 5.62955 27.6814 4.6837 26.4652 4.1255C25.2489 3.5673 23.9107 3.42183 22.62 3.70754C21.3292 3.99325 20.1438 4.69729 19.2138 5.73054C18.2839 6.7638 17.6511 8.07984 17.3956 9.51214C17.1401 10.9444 17.2734 12.4286 17.7786 13.7769C18.2837 15.1251 19.1381 16.2768 20.2335 17.0863C21.329 17.8957 22.6163 18.3265 23.9325 18.3242C25.6932 18.3211 27.381 17.5438 28.626 16.1627C29.871 14.7817 30.5716 12.9095 30.5745 10.9564V10.9445ZM16.4656 19.5957C16.4677 18.1351 16.0791 16.7067 15.3489 15.4913C14.6187 14.276 13.5798 13.3282 12.3638 12.7682C11.1477 12.2082 9.80916 12.0611 8.51767 12.3454C7.22617 12.6298 6.03979 13.3328 5.10875 14.3656C4.17771 15.3984 3.54388 16.7145 3.28753 18.1471C3.03118 19.5797 3.16382 21.0645 3.66867 22.4134C4.17352 23.7623 5.02789 24.9147 6.12356 25.7247C7.21924 26.5347 8.50693 26.9658 9.82362 26.9635C11.5825 26.9604 13.2686 26.1847 14.5133 24.8063C15.758 23.4278 16.4599 21.5586 16.4656 19.6076V19.5957Z" fill="#FCC358"/>
<path d="M97.6157 19.6078C97.6129 19.3314 97.5127 19.0672 97.3365 18.8717C97.1603 18.6763 96.9222 18.5651 96.673 18.562L84.8888 18.562C84.6388 18.562 84.399 18.6722 84.2222 18.8683C84.0454 19.0644 83.9461 19.3304 83.9461 19.6078C83.9447 19.7455 83.9681 19.8822 84.0149 20.0098C84.0618 20.1374 84.1312 20.2533 84.219 20.3508C84.3068 20.4482 84.4113 20.5252 84.5264 20.5771C84.6414 20.6291 84.7646 20.6551 84.8888 20.6535L96.673 20.6535C96.923 20.6535 97.1628 20.5433 97.3396 20.3472C97.5164 20.1511 97.6157 19.8851 97.6157 19.6078Z" fill="#FCEF8F"/>
<path d="M1.62833 21.4021C1.94827 21.4021 2.26102 21.2968 2.52704 21.0996C2.79306 20.9025 3.00039 20.6222 3.12283 20.2943C3.24526 19.9664 3.27731 19.6057 3.21489 19.2576C3.15247 18.9095 2.99839 18.5898 2.77216 18.3388C2.54593 18.0879 2.25771 17.9169 1.94391 17.8477C1.63012 17.7785 1.30487 17.814 1.00928 17.9498C0.713695 18.0856 0.461047 18.3156 0.283298 18.6107C0.105549 18.9058 0.0106699 19.2527 0.0106699 19.6076C0.0092463 19.8437 0.0501251 20.0778 0.130915 20.2962C0.211705 20.5146 0.330807 20.7131 0.481304 20.88C0.631801 21.047 0.810693 21.1791 1.0076 21.2687C1.2045 21.3583 1.4155 21.4036 1.62833 21.4021Z" fill="#FCEF8F"/>
<path d="M23.9326 3.58877C24.252 3.58642 24.5637 3.47921 24.8283 3.28062C25.0929 3.08202 25.2986 2.80096 25.4194 2.47287C25.5402 2.14479 25.5707 1.78435 25.5071 1.43706C25.4435 1.08976 25.2886 0.771153 25.0619 0.521388C24.8353 0.271622 24.547 0.101896 24.2335 0.0336158C23.92 -0.0346642 23.5953 0.00157746 23.3004 0.137734C23.0054 0.273891 22.7534 0.503884 22.5761 0.79871C22.3988 1.09354 22.3042 1.43999 22.3042 1.79438C22.3042 2.03103 22.3464 2.26534 22.4283 2.48383C22.5103 2.70231 22.6304 2.90067 22.7818 3.06745C22.9331 3.23423 23.1127 3.36616 23.3102 3.45563C23.5077 3.54511 23.7192 3.59033 23.9326 3.58877Z" fill="#FCEF8F"/>
<path d="M23.9325 39.1561C24.255 39.1561 24.5703 39.0498 24.8383 38.8508C25.1063 38.6518 25.315 38.369 25.4379 38.0382C25.5609 37.7075 25.5925 37.3437 25.5288 36.993C25.4651 36.6423 25.3089 36.3204 25.0801 36.0683C24.8513 35.8162 24.5602 35.6451 24.2436 35.5767C23.927 35.5084 23.5993 35.5459 23.3019 35.6844C23.0046 35.8229 22.751 36.0563 22.5734 36.3549C22.3957 36.6535 22.302 37.0039 22.3042 37.3616C22.307 37.8386 22.4798 38.295 22.7849 38.6312C23.09 38.9674 23.5025 39.1561 23.9325 39.1561Z" fill="#FCEF8F"/>
</svg>
