<svg width="20" height="20" viewBox="0 0 20 20" fill="none" xmlns="http://www.w3.org/2000/svg">
<path d="M18.5058 2.01135L10.0101 1.99974L1.51446 1.98523L0 9.91151L9.98731 20L20 9.94343L18.5058 2.01135Z" fill="url(#paint0_linear_1474_3379)"/>
<g style="mix-blend-mode:screen" opacity="0.5">
<path d="M5.7585 3.98203L4.15525 11.8212L0 9.91151L1.51446 1.98523L5.7585 3.98203Z" fill="#408BED"/>
</g>
<path d="M18.5058 2.01422L14.2567 3.99652L5.75849 3.98201L1.51192 1.98521L5.76356 0L14.2618 0.014517L18.5058 2.01422Z" fill="url(#paint1_linear_1474_3379)"/>
<g style="mix-blend-mode:screen" opacity="0.35">
<path d="M14.2542 3.99655L15.8372 11.8387L20 9.94343L18.5059 2.01135L14.2542 3.99655Z" fill="#408BED"/>
</g>
<path d="M4.15527 11.8212L15.9817 11.7748L9.98734 20L4.15527 11.8212Z" fill="url(#paint2_linear_1474_3379)"/>
<path d="M20 9.94336L15.8244 11.7747L9.9873 20L20 9.94336Z" fill="url(#paint3_linear_1474_3379)"/>
<g style="mix-blend-mode:screen">
<path d="M0 9.91154L4.15525 11.8213L9.98731 20L4.37088 11.8213L15.8244 11.7748L4.33029 11.6239L5.7585 3.98206L4.15778 11.5978L0 9.91154Z" fill="#4DE6ED"/>
</g>
<path style="mix-blend-mode:screen" opacity="0.5" d="M18.5058 2.01429L14.2567 3.99659H8.55908C12.1562 2.647 11.8569 1.09425 10.9437 0.0203857H14.2592L18.5058 2.01429Z" fill="url(#paint4_linear_1474_3379)"/>
<path style="mix-blend-mode:screen" d="M16.6946 11.7748C16.6951 11.972 16.6444 12.1648 16.549 12.329C16.4536 12.4931 16.3177 12.6212 16.1586 12.6969C15.9995 12.7726 15.8244 12.7926 15.6553 12.7542C15.4863 12.7159 15.331 12.621 15.2092 12.4816C15.0874 12.3423 15.0044 12.1646 14.9709 11.9712C14.9375 11.7778 14.9549 11.5774 15.0211 11.3954C15.0872 11.2134 15.1992 11.058 15.3426 10.9488C15.4861 10.8396 15.6547 10.7817 15.827 10.7822C16.0569 10.783 16.2772 10.8878 16.4397 11.0738C16.6023 11.2598 16.6939 11.5118 16.6946 11.7748Z" fill="url(#paint5_radial_1474_3379)"/>
<path style="mix-blend-mode:screen" d="M6.02993 11.7573C6.02993 12.1214 5.93554 12.4772 5.7587 12.7799C5.58187 13.0826 5.33053 13.3184 5.0365 13.4576C4.74247 13.5968 4.41896 13.6331 4.10691 13.5618C3.79486 13.4906 3.50829 13.3151 3.28346 13.0574C3.05863 12.7998 2.90566 12.4717 2.84389 12.1145C2.78212 11.7574 2.81433 11.3873 2.93645 11.0511C3.05857 10.715 3.2651 10.4278 3.52992 10.2259C3.79474 10.0241 4.10595 9.91666 4.42415 9.91724C4.85005 9.91877 5.2581 10.1132 5.55902 10.4581C5.85995 10.8029 6.02926 11.27 6.02993 11.7573Z" fill="url(#paint6_radial_1474_3379)"/>
<path style="mix-blend-mode:screen" d="M7.36427 3.98486C7.36377 4.34822 7.26911 4.70325 7.09224 5.00505C6.91538 5.30685 6.66427 5.54188 6.37066 5.6804C6.07705 5.81892 5.75412 5.85472 5.44273 5.78326C5.13134 5.71181 4.84546 5.53632 4.62124 5.27898C4.39702 5.02164 4.24454 4.69402 4.18307 4.33753C4.12161 3.98104 4.15391 3.6117 4.27591 3.27622C4.39792 2.94074 4.60413 2.65418 4.86848 2.45279C5.13283 2.25139 5.44344 2.1442 5.76103 2.14478C5.972 2.14478 6.18089 2.19242 6.37574 2.28496C6.57058 2.3775 6.74755 2.51313 6.89649 2.68408C7.04543 2.85502 7.16342 3.05791 7.24369 3.28112C7.32396 3.50434 7.36494 3.74349 7.36427 3.98486Z" fill="url(#paint7_radial_1474_3379)"/>
<defs>
<linearGradient id="paint0_linear_1474_3379" x1="9.9883" y1="19.9999" x2="10.0171" y2="1.99679" gradientUnits="userSpaceOnUse">
<stop stop-color="#51EBB8"/>
<stop offset="0.05" stop-color="#50E8BD"/>
<stop offset="0.11" stop-color="#4DE1CD"/>
<stop offset="0.18" stop-color="#48D5E6"/>
<stop offset="0.19" stop-color="#47D1ED"/>
<stop offset="0.36" stop-color="#42CDEA"/>
<stop offset="0.57" stop-color="#32C2E2"/>
<stop offset="0.8" stop-color="#19B0D5"/>
<stop offset="0.98" stop-color="#009EC7"/>
</linearGradient>
<linearGradient id="paint1_linear_1474_3379" x1="1.51206" y1="1.98318" x2="18.5085" y2="2.00392" gradientUnits="userSpaceOnUse">
<stop offset="0.03" stop-color="#28EBC3"/>
<stop offset="0.07" stop-color="#2AE9C6"/>
<stop offset="0.66" stop-color="#3FD8E2"/>
<stop offset="1" stop-color="#47D1ED"/>
</linearGradient>
<linearGradient id="paint2_linear_1474_3379" x1="10.0594" y1="20" x2="10.0725" y2="11.7632" gradientUnits="userSpaceOnUse">
<stop offset="0.01" stop-color="#24E1ED"/>
<stop offset="0.27" stop-color="#1FDBEA"/>
<stop offset="0.64" stop-color="#12C8E0"/>
<stop offset="1" stop-color="#00B0D4"/>
</linearGradient>
<linearGradient id="paint3_linear_1474_3379" x1="12.1147" y1="19.5099" x2="18.2326" y2="12.1452" gradientUnits="userSpaceOnUse">
<stop stop-color="#00B0D4"/>
<stop offset="0.26" stop-color="#00B0CC"/>
<stop offset="0.67" stop-color="#00B1B7"/>
<stop offset="1" stop-color="#00B1A0"/>
</linearGradient>
<linearGradient id="paint4_linear_1474_3379" x1="8.56175" y1="1.99451" x2="18.5085" y2="2.00664" gradientUnits="userSpaceOnUse">
<stop offset="0.01"/>
<stop offset="0.04" stop-color="#101010"/>
<stop offset="0.15" stop-color="#474747"/>
<stop offset="0.26" stop-color="#787878"/>
<stop offset="0.38" stop-color="#A2A2A2"/>
<stop offset="0.49" stop-color="#C4C4C4"/>
<stop offset="0.61" stop-color="#DEDEDE"/>
<stop offset="0.73" stop-color="#F0F0F0"/>
<stop offset="0.86" stop-color="#FBFBFB"/>
<stop offset="1" stop-color="white"/>
</linearGradient>
<radialGradient id="paint5_radial_1474_3379" cx="0" cy="0" r="1" gradientUnits="userSpaceOnUse" gradientTransform="translate(15.8254 11.7725) rotate(0.091528) scale(0.867579 0.992597)">
<stop offset="0.01" stop-color="white"/>
<stop offset="0.08" stop-color="#E9E9E9"/>
<stop offset="0.34" stop-color="#989898"/>
<stop offset="0.57" stop-color="#575757"/>
<stop offset="0.77" stop-color="#282828"/>
<stop offset="0.92" stop-color="#0B0B0B"/>
<stop offset="1"/>
</radialGradient>
<radialGradient id="paint6_radial_1474_3379" cx="0" cy="0" r="1" gradientUnits="userSpaceOnUse" gradientTransform="translate(4.42252 11.7541) rotate(0.0915281) scale(1.60578 1.83718)">
<stop offset="0.01" stop-color="white"/>
<stop offset="0.08" stop-color="#E9E9E9"/>
<stop offset="0.34" stop-color="#989898"/>
<stop offset="0.57" stop-color="#575757"/>
<stop offset="0.77" stop-color="#282828"/>
<stop offset="0.92" stop-color="#0B0B0B"/>
<stop offset="1"/>
</radialGradient>
<radialGradient id="paint7_radial_1474_3379" cx="0" cy="0" r="1" gradientUnits="userSpaceOnUse" gradientTransform="translate(5.75874 3.98091) rotate(0.0915282) scale(1.60578 1.83718)">
<stop offset="0.01" stop-color="white"/>
<stop offset="0.08" stop-color="#E9E9E9"/>
<stop offset="0.34" stop-color="#989898"/>
<stop offset="0.57" stop-color="#575757"/>
<stop offset="0.77" stop-color="#282828"/>
<stop offset="0.92" stop-color="#0B0B0B"/>
<stop offset="1"/>
</radialGradient>
</defs>
</svg>
