<svg width="75" height="80" viewBox="0 0 75 80" fill="none" xmlns="http://www.w3.org/2000/svg">
<g filter="url(#filter0_d_1691_2691)">
<rect width="52" height="50" rx="10" transform="matrix(-1 0 0 1 71 22)" fill="#98BCFF"/>
<rect x="-0.5" y="0.5" width="51" height="49" rx="9.5" transform="matrix(-1 0 0 1 70 22)" stroke="#6A5CF7"/>
</g>
<circle r="4" transform="matrix(-1 0 0 1 27.5 30.4995)" fill="white" stroke="#6A5CF7"/>
<path fill-rule="evenodd" clip-rule="evenodd" d="M11.1285 6.14037C10.8291 5.85368 10.6946 5.54415 10.8735 5.20752C10.955 4.92867 11.0281 4.64345 11.0993 4.36566C11.4389 3.04098 11.7352 1.88497 12.6887 2.39162C13.104 2.61232 13.8093 2.70793 14.5077 2.77946C13.9677 2.45648 13.4211 2.18483 12.8836 1.9919C12.2154 1.7521 11.4585 1.59673 10.7062 1.70901C9.8918 1.83055 9.1595 2.25907 8.67381 3.0155C8.22563 3.7135 8.06645 4.56609 8.06052 5.44392C8.05384 6.43252 8.36516 7.80094 8.8949 9.33134C9.43876 10.9025 10.2578 12.7713 11.3682 14.8012C13.5887 18.8608 17.0048 23.6204 21.7981 27.9726C22.7762 28.8607 23.6917 29.5147 24.5437 29.8333C25.4351 30.1667 26.5755 30.218 27.431 29.3413C28.1223 28.633 28.2764 27.6293 28.3014 26.866C28.3078 26.6701 28.3062 26.4673 28.2973 26.2586C27.9748 26.3099 27.6634 26.4426 27.3498 26.5762C26.7151 26.8467 26.0708 27.1213 25.3039 26.7341L25.303 26.7679C25.3016 26.8087 25.2998 26.8468 25.2975 26.8823C24.9599 26.6948 24.4717 26.3481 23.8148 25.7516C19.2963 21.6489 16.0795 17.163 14.0001 13.3615C12.9605 11.4609 12.2128 9.74525 11.7299 8.35004C11.4063 7.41527 11.219 6.67375 11.1285 6.14037ZM14.814 6.70335C15.4131 5.89314 15.9781 4.70064 16.2776 4.02231C18.5365 5.82983 20.834 8.47917 22.2138 11.062C24.4348 14.0252 26.4889 18.5181 27.5474 22.218C26.6494 21.99 25.445 22.4364 24.6561 23.0171C23.6804 19.6172 21.7504 15.4106 19.7498 12.7771L19.674 12.6773L19.6158 12.5663C18.518 10.4728 16.6503 8.2656 14.814 6.70335Z" fill="#6A5CF7"/>
<defs>
<filter id="filter0_d_1691_2691" x="15" y="22" width="60" height="58" filterUnits="userSpaceOnUse" color-interpolation-filters="sRGB">
<feFlood flood-opacity="0" result="BackgroundImageFix"/>
<feColorMatrix in="SourceAlpha" type="matrix" values="0 0 0 0 0 0 0 0 0 0 0 0 0 0 0 0 0 0 127 0" result="hardAlpha"/>
<feOffset dy="4"/>
<feGaussianBlur stdDeviation="2"/>
<feComposite in2="hardAlpha" operator="out"/>
<feColorMatrix type="matrix" values="0 0 0 0 0 0 0 0 0 0 0 0 0 0 0 0 0 0 0.25 0"/>
<feBlend mode="normal" in2="BackgroundImageFix" result="effect1_dropShadow_1691_2691"/>
<feBlend mode="normal" in="SourceGraphic" in2="effect1_dropShadow_1691_2691" result="shape"/>
</filter>
</defs>
</svg>
