<svg width="65" height="74" viewBox="0 0 65 74" fill="none" xmlns="http://www.w3.org/2000/svg">
<path d="M20.3388 20.2164L20.3388 20.2131C20.3339 18.7162 20.739 17.2376 21.5232 15.913C22.3074 14.5883 23.4477 13.4572 24.8462 12.6312C34.1185 7.21813 43.5624 12.6902 44.5661 20.2101V28.5105H20.3388L20.3388 20.2164Z" stroke="#F19D16" stroke-width="2"/>
<path d="M35.9214 51.6068L35.4021 51.8915V52.4837V57.325H30.4979V52.4837V51.8944L29.9824 51.6089C28.7101 50.9043 27.8065 49.7942 27.4777 48.528C27.1545 47.2832 27.3584 45.78 28.4994 44.2025C28.6712 43.9653 28.9013 43.7551 29.1802 43.5902L29.1809 43.5898C33.9585 40.7604 38.5587 43.8717 38.5593 47.4381C38.5577 48.2587 38.3222 49.072 37.8658 49.8012C37.4086 50.5317 36.7425 51.1567 35.9214 51.6068Z" fill="#6A5CF7" stroke="#F19D16" stroke-width="2"/>
<path d="M57.8644 72.7695C57.8642 72.7695 57.8641 72.7695 57.8639 72.7695L7.13498 72.7695C5.75243 72.7673 4.41861 72.3417 3.34347 71.572C2.67136 71.0908 2.12643 70.4942 1.73262 69.8259H63.2689C62.8753 70.495 62.3302 71.0923 61.6574 71.5739C60.5819 72.3438 59.2473 72.7688 57.8644 72.7695Z" fill="#FCC358" stroke="#F19D16" stroke-width="2"/>
<path d="M63.9579 67.8271H1.04265C1.01556 67.6193 1.00132 67.4102 1 67.2008V67.1599H64L64 67.1994C64 67.1999 64 67.2005 64 67.201C63.999 67.4104 63.9849 67.6194 63.9579 67.8271Z" fill="#6A5CF7" stroke="#F19D16" stroke-width="2"/>
<path d="M63.9986 65.16H1V33.61L1 33.6097C0.999869 33.2149 1.08421 32.8216 1.25082 32.4516C1.41755 32.0813 1.66456 31.7391 1.98219 31.447L1.31113 30.7173L1.98219 31.447C2.29998 31.1547 2.68174 30.919 3.10755 30.7568C3.53343 30.5947 3.99241 30.5104 4.45762 30.5106H4.4579H9.06244H10.0624V29.5106V20.189C10.0624 13.3867 14.0589 7.01536 20.6676 3.81969L20.6684 3.8193C37.5006 -4.33844 54.1652 6.37766 54.9179 20.5576H54.7882V21.5576V29.5106V30.5106H55.7882H60.5407H60.541C61.0061 30.5104 61.465 30.5946 61.8908 30.7567C62.3166 30.9188 62.6983 31.1545 63.0161 31.4466C63.3337 31.7386 63.5807 32.0807 63.7475 32.4509C63.9142 32.8209 63.9986 33.2141 63.9986 33.6088V65.16ZM35.4894 58.2368H36.4894V57.2368V52.6176C37.2412 52.1035 37.8755 51.4449 38.3448 50.6783C38.9176 49.7427 39.2232 48.6808 39.2255 47.5951V47.593C39.2255 42.6858 33.4128 39.456 28.2809 42.5659C27.8285 42.8396 27.4363 43.2001 27.1329 43.6288L27.1326 43.6292C25.8577 45.4325 25.5281 47.3306 25.9585 49.0265C26.3345 50.508 27.2712 51.7597 28.5147 52.6151V57.2368V58.2368H29.5147H35.4894ZM45.5661 30.5106H46.5661V29.5106V20.144V20.0807L46.5581 20.0178C45.3949 10.8731 34.2182 4.84498 23.8357 10.9053L23.8315 10.9078C22.1542 11.898 20.7657 13.2666 19.8022 14.8942C18.8385 16.522 18.333 18.3532 18.3388 20.218V29.5106V30.5106H19.3388H45.5661Z" fill="#FCC358" stroke="#F19D16" stroke-width="2"/>
</svg>
