<svg width="87" height="87" viewBox="0 0 87 87" fill="none" xmlns="http://www.w3.org/2000/svg">
<path d="M17.1364 87H69.8636C72.0476 87 73.8182 85.2294 73.8182 83.0454V38.2273C73.8182 36.0433 72.0476 34.2727 69.8636 34.2727H65.9091V22.4091C65.9091 10.0527 55.8564 0 43.5 0C31.1436 0 21.0909 10.0527 21.0909 22.4091V34.2727H17.1364C14.9524 34.2727 13.1818 36.0433 13.1818 38.2273V83.0454C13.1818 85.2294 14.9524 87 17.1364 87ZM54.6995 57.8302L43.495 69.0348C42.7228 69.8069 41.7107 70.1932 40.6989 70.1932C39.687 70.1932 38.6747 69.8069 37.9027 69.0348L32.3005 63.4325C30.7561 61.8881 30.7561 59.3846 32.3005 57.84C33.8446 56.2956 36.3486 56.2956 37.893 57.84L40.6991 60.6459L49.1076 52.2377C50.6517 50.6933 53.1557 50.6933 54.7001 52.2377C56.2442 53.7823 56.2442 56.2858 54.6995 57.8302ZM29 22.4091C29 14.4138 35.5047 7.90909 43.5 7.90909C51.4953 7.90909 58 14.4138 58 22.4091V34.2727H29V22.4091Z" fill="black"/>
</svg>
