<svg width="25" height="25" viewBox="0 0 25 25" fill="none" xmlns="http://www.w3.org/2000/svg">
<path d="M21.4806 0.316177L1.16966 12.0302C-0.509896 13.0018 -0.348776 15.4872 1.44796 16.2245L7.02859 18.5341V22.6553C7.02859 24.9209 9.91899 25.8535 11.2568 24.0518L13.3953 21.166L18.8587 23.4219C19.1468 23.5391 19.4495 23.5977 19.7522 23.5977C20.1526 23.5977 20.548 23.4951 20.9045 23.2949C21.5294 22.9434 21.9591 22.3183 22.0714 21.6103L24.9715 2.7039C25.2694 0.745869 23.1699 -0.655512 21.4806 0.316177V0.316177ZM9.37215 22.6553V19.5009L11.1591 20.2382L9.37215 22.6553ZM19.7522 21.2539L12.243 18.1533L19.0882 8.27524C19.6106 7.5184 18.6244 6.63948 17.9311 7.24007L7.60471 16.2392L2.34145 14.0614L22.6524 2.34256L19.7522 21.2539Z" fill="#202253"/>
</svg>
