<svg width="65" height="66" viewBox="0 0 65 66" fill="none" xmlns="http://www.w3.org/2000/svg">
<g clip-path="url(#clip0_1615_2964)">
<path d="M51.1417 46.0551C56.2115 38.3307 55.259 27.9808 48.8597 21.3133C40.4958 12.5912 26.6721 13.2502 19.1043 22.1705L14.9586 18.7325C14.7283 18.5415 14.3672 18.7279 14.35 19.0416L13.5398 32.7765C13.5284 33.01 13.7371 33.1831 13.9644 33.1287L27.3124 29.7915C27.6175 29.7166 27.7267 29.3212 27.5036 29.1362L23.3651 25.7041C28.7125 19.4612 38.2982 18.859 44.3745 24.627C49.6049 29.5841 50.3536 37.8214 46.1162 43.6487C41.6258 49.8249 33.3005 51.3388 27.0184 47.6352C25.8519 46.9472 24.3573 47.2261 23.4978 48.2625C22.4293 49.5509 22.7381 51.5075 24.1791 52.3625C33.1132 57.658 45.0831 55.2795 51.1417 46.0551Z" fill="white"/>
</g>
<defs>
<clipPath id="clip0_1615_2964">
<rect width="45.7731" height="45.7731" fill="white" transform="translate(0 36.2189) rotate(-50.3306)"/>
</clipPath>
</defs>
</svg>
