<svg width="117" height="74" viewBox="0 0 117 74" fill="none" xmlns="http://www.w3.org/2000/svg">
<g style="mix-blend-mode:multiply" opacity="0.39">
<path d="M58.319 74C90.5276 74 116.638 72.8933 116.638 71.5281C116.638 70.1628 90.5276 69.0561 58.319 69.0561C26.1103 69.0561 0 70.1628 0 71.5281C0 72.8933 26.1103 74 58.319 74Z" fill="#FF9999"/>
</g>
<path d="M79.3803 0.00841141H77.0602V2.53649L79.5835 0.0168297" fill="#F6F6F6"/>
<path d="M74.8135 59.3355H35.1232V2.98262C35.1224 2.19553 35.4358 1.44029 35.9947 0.88268C36.5535 0.325068 37.312 0.0106408 38.1038 0.00841141H77.0546V57.1048C77.0509 57.6948 76.8137 58.2596 76.3943 58.6771C75.9748 59.0945 75.407 59.3311 74.8135 59.3355Z" fill="#F6F6F6"/>
<path d="M81.698 10.4406H77.055V2.30361C77.055 2.00086 77.115 1.70108 77.2317 1.42141C77.3483 1.14174 77.5192 0.887667 77.7347 0.673721C77.9502 0.459774 78.206 0.29015 78.4875 0.174548C78.7689 0.0589459 79.0706 -0.000367049 79.3751 1.70895e-06C79.9897 1.70895e-06 80.5791 0.242703 81.0137 0.674714C81.4483 1.10672 81.6924 1.69266 81.6924 2.30361L81.698 10.4406Z" fill="#DADADA"/>
<path d="M32.8036 48.9033H37.4411V57.0403C37.4411 57.6513 37.1969 58.2372 36.7623 58.6692C36.3278 59.1012 35.7383 59.3439 35.1238 59.3439C34.8192 59.3443 34.5176 59.285 34.2361 59.1694C33.9546 59.0538 33.6988 58.8841 33.4834 58.6702C33.2679 58.4562 33.0969 58.2022 32.9803 57.9225C32.8637 57.6428 32.8036 57.343 32.8036 57.0403V48.9033Z" fill="white"/>
<path d="M74.7429 48.9033H35.1232V59.3355H74.7429V48.9033Z" fill="white"/>
<path d="M72.4233 48.9033H77.055V57.0403C77.055 57.343 76.995 57.6428 76.8784 57.9225C76.7617 58.2022 76.5908 58.4562 76.3753 58.6702C76.1598 58.8841 75.904 59.0538 75.6226 59.1694C75.3411 59.285 75.0395 59.3443 74.7349 59.3439C74.1203 59.3439 73.5309 59.1012 73.0963 58.6692C72.6618 58.2372 72.4176 57.6513 72.4176 57.0403L72.4233 48.9033Z" fill="#DADADA"/>
<path d="M67.4585 9.10501H65.4827C65.2815 9.1036 65.0887 9.02427 64.9454 8.88387C64.802 8.74346 64.7194 8.55304 64.715 8.35304V6.38894C64.715 6.18601 64.7957 5.99131 64.9395 5.84729C65.0833 5.70327 65.2786 5.62162 65.4827 5.62014H67.4585C67.6616 5.62309 67.8554 5.70538 67.998 5.84924C68.1406 5.9931 68.2206 6.18697 68.2205 6.38894V8.35304C68.2169 8.55231 68.1352 8.74231 67.993 8.88271C67.8507 9.02311 67.6589 9.10286 67.4585 9.10501ZM65.4827 5.90072C65.3534 5.9022 65.23 5.95429 65.1391 6.04569C65.0482 6.13709 64.9972 6.26043 64.9972 6.38894V8.35304C65.0016 8.47862 65.0545 8.5977 65.1449 8.6855C65.2353 8.7733 65.3563 8.82306 65.4827 8.82443H67.4585C67.5839 8.82163 67.7035 8.77124 67.7927 8.68359C67.8819 8.59594 67.934 8.47767 67.9383 8.35304V6.38894C67.9383 6.26138 67.8881 6.13887 67.7985 6.04763C67.7088 5.95638 67.5868 5.90366 67.4585 5.90072H65.4827Z" fill="#FB3B34"/>
<path d="M67.4581 15.2779H65.4823C65.2777 15.2779 65.0814 15.1973 64.9365 15.0537C64.7915 14.9101 64.7097 14.7153 64.709 14.5119V12.5478C64.7127 12.3463 64.7958 12.1544 64.9404 12.0132C65.085 11.8721 65.2796 11.793 65.4823 11.793H67.4581C67.6612 11.796 67.8551 11.8783 67.9977 12.0221C68.1403 12.166 68.2202 12.3599 68.2202 12.5618V14.5259C68.2165 14.7252 68.1349 14.9152 67.9926 15.0556C67.8503 15.196 67.6586 15.2757 67.4581 15.2779ZM65.4823 12.0736C65.3521 12.0736 65.2272 12.125 65.1351 12.2166C65.043 12.3082 64.9912 12.4323 64.9912 12.5618V14.5259C64.992 14.6549 65.044 14.7784 65.1361 14.8693C65.2281 14.9603 65.3526 15.0113 65.4823 15.0113H67.4581C67.5859 15.0084 67.7075 14.9561 67.7971 14.8654C67.8867 14.7748 67.9372 14.653 67.9379 14.5259V12.5618C67.9379 12.4328 67.8866 12.3091 67.7951 12.2176C67.7036 12.1261 67.5794 12.0744 67.4496 12.0736H65.4823Z" fill="#FB3B34"/>
<path d="M67.4581 21.4508H65.4823C65.2777 21.4508 65.0814 21.3702 64.9365 21.2266C64.7915 21.083 64.7097 20.8882 64.709 20.6848V18.7347C64.709 18.5308 64.7904 18.3353 64.9355 18.1911C65.0805 18.0469 65.2772 17.9659 65.4823 17.9659H67.4581C67.6612 17.9689 67.8551 18.0512 67.9977 18.195C68.1403 18.3389 68.2202 18.5328 68.2202 18.7347V20.6988C68.2165 20.8981 68.1349 21.0881 67.9926 21.2285C67.8503 21.3689 67.6586 21.4486 67.4581 21.4508ZM65.4823 18.2465C65.3521 18.2465 65.2272 18.2979 65.1351 18.3895C65.043 18.4811 64.9912 18.6052 64.9912 18.7347V20.6988C64.992 20.8278 65.044 20.9513 65.1361 21.0422C65.2281 21.1332 65.3526 21.1842 65.4823 21.1842H67.4581C67.5859 21.1813 67.7075 21.129 67.7971 21.0383C67.8867 20.9477 67.9372 20.8259 67.9379 20.6988V18.7347C67.9379 18.6057 67.8866 18.482 67.7951 18.3905C67.7036 18.299 67.5794 18.2472 67.4496 18.2465H65.4823Z" fill="#FB3B34"/>
<path d="M67.4581 27.6237H65.4823C65.2777 27.6237 65.0814 27.5431 64.9365 27.3995C64.7915 27.2559 64.7097 27.0611 64.709 26.8577V24.9076C64.709 24.7037 64.7904 24.5082 64.9355 24.364C65.0805 24.2198 65.2772 24.1388 65.4823 24.1388H67.4581C67.6612 24.1418 67.8551 24.2241 67.9977 24.3679C68.1403 24.5118 68.2202 24.7056 68.2202 24.9076V26.8717C68.2165 27.071 68.1349 27.261 67.9926 27.4014C67.8503 27.5418 67.6586 27.6215 67.4581 27.6237ZM65.4823 24.4194C65.3521 24.4194 65.2272 24.4708 65.1351 24.5624C65.043 24.6539 64.9912 24.7781 64.9912 24.9076V26.8717C64.992 27.0007 65.044 27.1242 65.1361 27.2151C65.2281 27.3061 65.3526 27.3571 65.4823 27.3571H67.4581C67.5859 27.3542 67.7075 27.3019 67.7971 27.2112C67.8867 27.1206 67.9372 26.9988 67.9379 26.8717V24.9076C67.9379 24.7786 67.8866 24.6549 67.7951 24.5634C67.7036 24.4719 67.5794 24.4201 67.4496 24.4194H65.4823Z" fill="#FB3B34"/>
<path d="M67.4581 33.7966H65.4823C65.2777 33.7966 65.0814 33.716 64.9365 33.5724C64.7915 33.4288 64.7097 33.234 64.709 33.0306V31.0805C64.709 30.9795 64.729 30.8796 64.7678 30.7863C64.8067 30.693 64.8637 30.6083 64.9355 30.5369C65.0073 30.4655 65.0925 30.4089 65.1864 30.3702C65.2802 30.3316 65.3808 30.3117 65.4823 30.3117H67.4581C67.6612 30.3146 67.8551 30.3969 67.9977 30.5408C68.1403 30.6847 68.2202 30.8785 68.2202 31.0805V33.0446C68.2165 33.2439 68.1349 33.4339 67.9926 33.5743C67.8503 33.7147 67.6586 33.7944 67.4581 33.7966ZM65.4823 30.5923C65.4178 30.5923 65.354 30.6049 65.2944 30.6294C65.2348 30.654 65.1807 30.6899 65.1351 30.7353C65.0895 30.7806 65.0533 30.8344 65.0286 30.8937C65.0039 30.9529 64.9912 31.0164 64.9912 31.0805V33.0446C64.992 33.1736 65.044 33.2971 65.1361 33.388C65.2281 33.479 65.3526 33.53 65.4823 33.53H67.4581C67.5859 33.5271 67.7075 33.4748 67.7971 33.3841C67.8867 33.2935 67.9372 33.1717 67.9379 33.0446V31.0805C67.9379 30.9515 67.8866 30.8277 67.7951 30.7363C67.7036 30.6448 67.5794 30.593 67.4496 30.5923H65.4823Z" fill="#FB3B34"/>
<path d="M67.4581 39.9695H65.4823C65.2777 39.9695 65.0814 39.8888 64.9365 39.7453C64.7915 39.6017 64.7097 39.4069 64.709 39.2035V37.2534C64.709 37.0495 64.7904 36.8539 64.9355 36.7098C65.0805 36.5656 65.2772 36.4846 65.4823 36.4846H67.4581C67.6612 36.4875 67.8551 36.5698 67.9977 36.7137C68.1403 36.8576 68.2202 37.0514 68.2202 37.2534V39.2175C68.2165 39.4168 68.1349 39.6068 67.9926 39.7472C67.8503 39.8876 67.6586 39.9673 67.4581 39.9695ZM65.4823 36.7652C65.3521 36.7652 65.2272 36.8166 65.1351 36.9082C65.043 36.9997 64.9912 37.1239 64.9912 37.2534V39.2175C64.992 39.3465 65.044 39.4699 65.1361 39.5609C65.2281 39.6518 65.3526 39.7029 65.4823 39.7029H67.4581C67.5859 39.7 67.7075 39.6476 67.7971 39.557C67.8867 39.4664 67.9372 39.3446 67.9379 39.2175V37.2534C67.9379 37.1244 67.8866 37.0006 67.7951 36.9092C67.7036 36.8177 67.5794 36.7659 67.4496 36.7652H65.4823Z" fill="#FB3B34"/>
<path d="M67.4581 46.1424H65.4823C65.2777 46.1424 65.0814 46.0617 64.9365 45.9182C64.7915 45.7746 64.7097 45.5798 64.709 45.3764V43.4263C64.709 43.2224 64.7904 43.0268 64.9355 42.8827C65.0805 42.7385 65.2772 42.6575 65.4823 42.6575H67.4581C67.6612 42.6604 67.8551 42.7427 67.9977 42.8866C68.1403 43.0304 68.2202 43.2243 68.2202 43.4263V45.3904C68.2165 45.5896 68.1349 45.7797 67.9926 45.9201C67.8503 46.0605 67.6586 46.1402 67.4581 46.1424ZM65.4823 42.9381C65.3521 42.9381 65.2272 42.9895 65.1351 43.0811C65.043 43.1726 64.9912 43.2968 64.9912 43.4263V45.3904C64.992 45.5194 65.044 45.6428 65.1361 45.7338C65.2281 45.8247 65.3526 45.8758 65.4823 45.8758H67.4581C67.5859 45.8729 67.7075 45.8205 67.7971 45.7299C67.8867 45.6393 67.9372 45.5175 67.9379 45.3904V43.4263C67.9379 43.2973 67.8866 43.1735 67.7951 43.082C67.7036 42.9906 67.5794 42.9388 67.4496 42.9381H65.4823Z" fill="#FB3B34"/>
<path d="M61.9426 5.76042H40.3023V7.36257H61.9426V5.76042Z" fill="#DADADA"/>
<path d="M61.9426 12.0287H40.3023V13.6309H61.9426V12.0287Z" fill="#DADADA"/>
<path d="M49.0521 14.6241H40.3023V16.2263H49.0521V14.6241Z" fill="#DADADA"/>
<path d="M61.9426 18.7628H40.3023V20.3649H61.9426V18.7628Z" fill="#DADADA"/>
<path d="M61.9426 24.035H40.3023V25.6371H61.9426V24.035Z" fill="#DADADA"/>
<path d="M61.9426 30.452H40.3023V32.0541H61.9426V30.452Z" fill="#DADADA"/>
<path d="M61.9426 32.8566H40.3023V34.4587H61.9426V32.8566Z" fill="#DADADA"/>
<path d="M61.9426 36.6249H40.3023V38.227H61.9426V36.6249Z" fill="#DADADA"/>
<path d="M51.9226 39.0295H40.3023V40.6316H51.9226V39.0295Z" fill="#DADADA"/>
<path d="M61.9426 42.3993H40.3023V44.0015H61.9426V42.3993Z" fill="#DADADA"/>
<path d="M51.9226 44.8011H40.3023V46.4033H51.9226V44.8011Z" fill="#DADADA"/>
<path d="M49.0521 26.6304H40.3023V28.2326H49.0521V26.6304Z" fill="#DADADA"/>
<path d="M66.4927 8.35304H66.456C66.3853 8.34747 66.3172 8.32423 66.258 8.28547C66.1987 8.24672 66.1503 8.19371 66.1173 8.13138C65.9672 7.84864 65.7771 7.58878 65.5528 7.35977C65.5114 7.32104 65.4782 7.27442 65.4554 7.22269C65.4325 7.17095 65.4203 7.11517 65.4196 7.05867C65.4189 7.00216 65.4296 6.94609 65.4511 6.8938C65.4727 6.84151 65.5046 6.79406 65.545 6.75429C65.5854 6.71452 65.6334 6.68324 65.6862 6.66232C65.739 6.6414 65.7955 6.63127 65.8523 6.63252C65.9092 6.63377 65.9652 6.6464 66.017 6.66963C66.0688 6.69286 66.1154 6.72622 66.154 6.76773C66.2904 6.91264 66.4159 7.06738 66.5293 7.2307C67.2527 6.34194 68.0214 5.49064 68.8325 4.68018C68.9132 4.61373 69.0158 4.57937 69.1204 4.58374C69.2251 4.58811 69.3244 4.6309 69.3992 4.70384C69.4739 4.77677 69.5189 4.87467 69.5252 4.97862C69.5316 5.08256 69.499 5.18517 69.4337 5.2666C68.5045 6.19261 67.6335 7.17465 66.8257 8.20714C66.7849 8.25486 66.7337 8.29277 66.676 8.31804C66.6183 8.34331 66.5556 8.35528 66.4927 8.35304Z" fill="#575756"/>
<path d="M66.4927 14.7392H66.456C66.3857 14.7334 66.318 14.7104 66.2589 14.6722C66.1998 14.634 66.1511 14.5818 66.1173 14.5203C65.968 14.2363 65.7778 13.9754 65.5528 13.7459C65.5114 13.7072 65.4782 13.6605 65.4554 13.6088C65.4325 13.5571 65.4203 13.5013 65.4196 13.4448C65.4189 13.3883 65.4296 13.3322 65.4511 13.2799C65.4727 13.2276 65.5046 13.1802 65.545 13.1404C65.5854 13.1007 65.6334 13.0694 65.6862 13.0485C65.739 13.0275 65.7955 13.0174 65.8523 13.0187C65.9092 13.0199 65.9652 13.0325 66.017 13.0558C66.0688 13.079 66.1154 13.1124 66.154 13.1539C66.2908 13.292 66.4181 13.4392 66.535 13.5944C67.2583 12.7056 68.0271 11.8543 68.8382 11.0439C68.9195 10.9782 69.0223 10.9449 69.1269 10.9503C69.2315 10.9556 69.3304 10.9994 69.4044 11.073C69.4785 11.1466 69.5225 11.2449 69.5279 11.3488C69.5333 11.4528 69.4997 11.5551 69.4337 11.6359C68.5044 12.5618 67.6334 13.5439 66.8257 14.5764C66.7866 14.6272 66.7361 14.6684 66.6784 14.6966C66.6206 14.7248 66.557 14.7394 66.4927 14.7392Z" fill="#575756"/>
<path d="M66.4931 33.0726H66.4564C66.3857 33.0671 66.3176 33.0438 66.2584 33.0051C66.1992 32.9663 66.1508 32.9133 66.1177 32.851C65.967 32.5678 65.777 32.3071 65.5532 32.0766C65.5091 32.0385 65.4735 31.9918 65.4485 31.9394C65.4235 31.887 65.4096 31.8301 65.4078 31.7721C65.4059 31.7141 65.4162 31.6564 65.4379 31.6026C65.4595 31.5487 65.4922 31.4999 65.5337 31.4592C65.5752 31.4185 65.6248 31.3868 65.6793 31.366C65.7337 31.3452 65.7919 31.3358 65.8502 31.3385C65.9085 31.3411 65.9656 31.3557 66.0179 31.3813C66.0703 31.4069 66.1167 31.443 66.1544 31.4873C66.2919 31.6248 66.4192 31.7721 66.5354 31.9279C67.258 31.0385 68.0268 30.1871 68.8386 29.3773C68.9196 29.3195 69.0185 29.2919 69.118 29.2994C69.2174 29.307 69.311 29.3492 69.3822 29.4186C69.4534 29.4881 69.4976 29.5803 69.5071 29.679C69.5166 29.7777 69.4908 29.8765 69.4341 29.9581C68.5041 30.8834 67.6331 31.8655 66.8261 32.8987C66.7877 32.9511 66.7377 32.994 66.68 33.0242C66.6222 33.0543 66.5583 33.0709 66.4931 33.0726Z" fill="#575756"/>
<path d="M66.4927 45.1098H66.456C66.3857 45.104 66.318 45.081 66.2589 45.0428C66.1998 45.0046 66.1511 44.9524 66.1173 44.8909C65.968 44.6069 65.7778 44.346 65.5528 44.1165C65.5114 44.0778 65.4782 44.0312 65.4554 43.9794C65.4325 43.9277 65.4203 43.8719 65.4196 43.8154C65.4189 43.7589 65.4296 43.7028 65.4511 43.6505C65.4727 43.5983 65.5046 43.5508 65.545 43.511C65.5854 43.4713 65.6334 43.44 65.6862 43.4191C65.739 43.3981 65.7955 43.388 65.8523 43.3893C65.9092 43.3905 65.9652 43.4031 66.017 43.4264C66.0688 43.4496 66.1154 43.483 66.154 43.5245C66.2915 43.662 66.4188 43.8092 66.535 43.965C67.2583 43.0762 68.0271 42.2249 68.8382 41.4145C68.9175 41.3352 69.0253 41.2905 69.1378 41.2903C69.2502 41.29 69.3582 41.3342 69.438 41.4131C69.5177 41.4919 69.5626 41.5991 69.5629 41.7109C69.5631 41.8227 69.5187 41.9301 69.4394 42.0093C68.5101 42.9353 67.6391 43.9174 66.8314 44.9499C66.7913 45.0009 66.7399 45.042 66.6811 45.0697C66.6223 45.0975 66.5577 45.1112 66.4927 45.1098Z" fill="#575756"/>
<path d="M102.468 47.083L35.9607 58.5862L37.0309 64.7009L103.538 53.1977L102.468 47.083Z" fill="#7EABFF" fill-opacity="0.8"/>
<path d="M103.536 53.2075L112.249 48.5526L102.458 47.0935C101.986 48.6631 102.125 50.3518 102.847 51.8242L103.536 53.2075Z" fill="#FFCC66"/>
<path d="M109.684 48.171C109.684 48.171 109.322 48.7321 109.48 49.1474C109.576 49.3986 109.744 49.6162 109.963 49.7731L112.249 48.5526L109.684 48.171Z" fill="#1D1D1B"/>
<path d="M35.9543 58.5933L29.5721 59.6949L30.6401 65.81L37.0223 64.7084L35.9543 58.5933Z" fill="#1D1D1B"/>
<path d="M31.4585 59.3686L30.5158 59.5313L31.5839 65.6464L32.5266 65.4836L31.4585 59.3686Z" fill="#FFED00"/>
<path d="M34.2504 58.887L33.3077 59.0497L34.3757 65.1648L35.3185 65.002L34.2504 58.887Z" fill="#FFED00"/>
<path d="M28.8974 66.1088L30.6446 65.8086L29.5776 59.7003L27.8305 60.0033C27.015 60.1444 26.2892 60.6017 25.8128 61.2747C25.3365 61.9477 25.1485 62.7812 25.2902 63.592C25.4342 64.4006 25.8947 65.1195 26.5708 65.5912C27.2469 66.063 28.0835 66.2491 28.8974 66.1088Z" fill="#FFC5C1"/>
<path d="M43.2948 61.7064L39.6791 62.3321C39.4181 62.3755 39.1505 62.315 38.934 62.1638C38.7174 62.0126 38.5694 61.7828 38.5219 61.524C38.4784 61.2642 38.5396 60.9978 38.6923 60.7824C38.8449 60.5671 39.0768 60.4203 39.3376 60.3737L42.9533 59.7508C43.2141 59.706 43.4822 59.7659 43.6986 59.9174C43.9151 60.0689 44.0622 60.2996 44.1077 60.5588C44.1527 60.8181 44.0925 61.0846 43.94 61.2998C43.7876 61.515 43.5556 61.6612 43.2948 61.7064Z" fill="#1D1D1B"/>
<path d="M111.811 71.7497C111.641 71.4554 111.385 71.2191 111.078 71.0719C110.77 70.9247 110.424 70.8734 110.087 70.9248C108.825 71.0483 109.155 69.9147 107.741 69.7323C106.327 69.5499 106.07 69.9652 104.354 68.5258C102.638 67.0864 101.204 69.6481 99.923 68.5931C98.6415 67.5381 97.727 65.8125 95.5565 66.4775C93.386 67.1425 94.3033 68.8372 93.0162 69.477C91.7292 70.1167 90.3913 70.3187 89.8494 71.7834L111.811 71.7497Z" fill="#FFC5C1"/>
<path d="M43.281 71.2839C43.4509 70.9891 43.7065 70.7522 44.0143 70.6045C44.3221 70.4567 44.6677 70.405 45.0056 70.4562C46.2672 70.5796 45.937 69.4489 47.3511 69.2637C48.7652 69.0785 49.022 69.4966 50.7381 68.06C52.4542 66.6234 53.888 69.1823 55.1695 68.1245C56.4509 67.0667 57.3654 65.3439 59.5359 66.0089C61.7064 66.6739 60.7891 68.3714 62.0762 69.0112C63.3633 69.6509 64.7011 69.8529 65.2431 71.3176L43.281 71.2839Z" fill="#FFC5C1"/>
<path d="M113.694 8.91421H90.9731C90.9731 8.91421 92.1021 6.18972 93.5275 6.07468C94.9529 5.95964 95.3452 6.82945 95.7996 6.74528C96.2541 6.6611 96.9935 4.41361 98.8113 4.29857C100.629 4.18353 101.352 5.87266 102.334 6.1813C103.316 6.48995 105.286 6.31879 106.822 3.86366C108.357 1.40854 111.264 4.04324 111.338 5.93719C111.451 8.84406 115.91 7.23069 115.91 8.91421H113.694Z" fill="white"/>
<path d="M23.6556 34.1669H0.934326C0.934326 34.1669 2.06334 31.4425 3.4746 31.3274C4.88586 31.2124 5.2923 32.0822 5.74673 31.998C6.20115 31.9138 6.94066 29.6663 8.75836 29.5513C10.5761 29.4363 11.2986 31.1254 12.2809 31.434C13.2631 31.7427 15.2332 31.5715 16.7687 29.1164C18.3041 26.6613 21.2113 29.296 21.2847 31.1899C21.3976 34.0968 25.8572 32.4834 25.8572 34.1669H23.6556Z" fill="white"/>
</svg>
