<svg width="78" height="94" viewBox="0 0 78 94" fill="none" xmlns="http://www.w3.org/2000/svg">
<g style="mix-blend-mode:multiply" opacity="0.25">
<path d="M77.5244 72.7886C77.4536 72.6999 77.3652 72.627 77.2646 72.5745L37.9674 50.1071C37.829 50.0288 37.68 49.9711 37.5249 49.9358C37.3757 49.9041 37.2236 49.8879 37.0711 49.8873H36.1462C35.9946 49.8879 35.8435 49.9042 35.6952 49.9358C35.5398 49.9696 35.3905 50.0274 35.2528 50.1071L2.2182 69.1834L0.38279 70.2424C0.281512 70.295 0.192882 70.3691 0.123035 70.4593C0.0511737 70.5489 0.00923881 70.6587 0.00314756 70.7733C-0.00104919 70.8046 -0.00104919 70.8363 0.00314756 70.8675C0.0658567 71.0518 0.197954 71.2044 0.371372 71.2928L39.68 93.7802C39.8178 93.8593 39.9671 93.9161 40.1225 93.9486C40.2716 93.9812 40.4237 93.9984 40.5763 94H41.6296C41.7381 93.9944 41.846 93.98 41.9522 93.9572C42.1079 93.9257 42.2574 93.8688 42.3946 93.7888L44.23 92.7298L77.2646 73.6449C77.3531 73.6049 77.4319 73.5461 77.4955 73.4727C77.5591 73.3993 77.6059 73.3129 77.6329 73.2196C77.6355 73.1892 77.6355 73.1586 77.6329 73.1282V73.114C77.632 72.9968 77.5941 72.8828 77.5244 72.7886Z" fill="#ADB8E8"/>
</g>
<path d="M43.9874 4.55286V56.5467L11.1926 75.4318V23.4493L43.9874 4.55286Z" fill="#FFC5C1"/>
<path d="M11.1929 23.4493V75.4318C11.1049 75.4835 11.0081 75.5184 10.9074 75.5345C10.7055 75.5888 10.4928 75.5888 10.2909 75.5345C10.1906 75.5165 10.0941 75.4818 10.0054 75.4318L3.30887 71.5583C3.24327 71.5283 3.18664 71.4818 3.14458 71.4232C3.10252 71.3646 3.0765 71.296 3.06909 71.2243V19.3018C3.11278 19.4187 3.19819 19.5153 3.30887 19.573L10.014 23.4493C10.1049 23.4943 10.2007 23.5288 10.2994 23.5521C10.5027 23.5949 10.7127 23.5949 10.916 23.5521C11.0123 23.5298 11.1053 23.4953 11.1929 23.4493Z" fill="#FC7F4F"/>
<path d="M42.7973 4.78406L10.8074 23.221L10.7047 23.2524C10.6396 23.2724 10.57 23.2724 10.5049 23.2524L10.4107 23.221L9.8255 22.887L3.90536 19.4617C13.4193 13.9583 26.5697 6.41395 36.1036 0.910568C36.2406 0.984784 36.3634 1.06756 36.4889 1.13036V1.14178C38.4214 2.25787 40.1141 3.22838 42.0237 4.33591C42.2749 4.48149 42.5347 4.62992 42.7973 4.78406Z" fill="#E0E4FF"/>
<path d="M36.4889 0.228355V1.14178C36.3633 1.07898 36.2377 0.996203 36.1035 0.921988C26.5697 6.4111 13.4192 13.9554 3.9053 19.4588L3.70549 19.3446C3.68246 19.3337 3.66128 19.3193 3.64269 19.3018C3.63197 19.2714 3.62525 19.2397 3.62271 19.2076C3.64397 19.1713 3.67585 19.1424 3.71405 19.1248L36.4889 0.228355Z" fill="#FFC5C1"/>
<path d="M36.1034 0L36.4888 0.228356L3.71394 19.1248C3.67721 19.1468 3.64827 19.1798 3.63117 19.219C3.63371 19.2512 3.64042 19.2828 3.65115 19.3132C3.66973 19.3307 3.69092 19.3451 3.71394 19.356L3.91376 19.4702L10.4105 23.2181L10.5047 23.2495C10.5688 23.2695 10.6375 23.2695 10.7016 23.2495L10.8073 23.2181L42.7971 4.78406L43.5821 4.3245L43.9789 4.55285L11.1926 23.4493C11.1024 23.4959 11.0064 23.5305 10.9072 23.5521C10.7039 23.5949 10.4939 23.5949 10.2906 23.5521C10.1919 23.5288 10.0961 23.4943 10.0052 23.4493L3.30861 19.573C3.19794 19.5153 3.11253 19.4187 3.06884 19.3018C3.05786 19.2518 3.05885 19.1998 3.07175 19.1502C3.08465 19.1006 3.10908 19.0547 3.14305 19.0164C3.18775 18.9571 3.24409 18.9075 3.30861 18.8708L36.1034 0Z" fill="#FF9999"/>
<path d="M11.1926 23.4493C15.9681 20.5521 20.8806 17.9088 25.6932 15.0772C30.5458 12.3284 39.1091 7.24461 43.9931 4.55286C39.2176 7.44156 30.5772 12.3626 25.7588 15.1914C20.8977 17.9402 16.0822 20.7547 11.1926 23.4493Z" fill="white"/>
<path d="M3.65948 19.1248C8.43499 16.239 13.3646 13.5872 18.1658 10.7556C23.0184 8.00674 31.5646 2.92296 36.4514 0.231209C31.6874 3.1399 23.027 8.04956 18.2201 10.8812C13.3646 13.63 8.54631 16.4445 3.65948 19.1248Z" fill="white"/>
<g style="mix-blend-mode:multiply" opacity="0.35">
<path d="M42.7973 4.78406L10.8075 23.221L10.7047 23.2524C10.6396 23.2724 10.57 23.2724 10.5049 23.2524L10.4107 23.221L9.82556 22.887L42.0238 4.33306C42.275 4.48149 42.5347 4.62992 42.7973 4.78406Z" fill="#ADB8E8"/>
</g>
<path d="M52.3024 11.5406V59.3555L18.0661 79.0883V31.2819L52.3024 11.5406Z" fill="#3B52B5"/>
<path d="M18.0687 31.282V79.0883C17.98 79.1389 17.8836 79.1746 17.7833 79.194C17.581 79.2453 17.369 79.2453 17.1667 79.194C17.0667 79.1736 16.9704 79.138 16.8813 79.0883L12.0601 76.3338C11.9943 76.3034 11.9376 76.2563 11.8955 76.1972C11.8535 76.1381 11.8276 76.0691 11.8203 75.997V28.2591C11.8615 28.381 11.9471 28.483 12.0601 28.5445L16.8813 31.2991C16.9721 31.345 17.0679 31.3805 17.1667 31.4047C17.3703 31.4446 17.5797 31.4446 17.7833 31.4047C17.8832 31.376 17.9792 31.3348 18.0687 31.282Z" fill="#172971"/>
<path d="M51.098 11.7718L18.4202 30.6254L17.6809 31.0536C17.6466 31.0669 17.6113 31.0774 17.5753 31.085C17.5117 31.1084 17.4419 31.1084 17.3784 31.085L17.2842 31.0536L16.4906 30.594L12.6599 28.4132C12.9739 28.2363 13.2879 28.0479 13.6019 27.8709C22.8018 22.5502 37.0798 14.3408 46.2997 9.01437C46.4367 9.08858 46.5594 9.17136 46.685 9.23416C48.5547 10.3103 48.3006 10.1305 50.1275 11.1866C50.4529 11.3836 50.7755 11.572 51.098 11.7718Z" fill="#E6E9FF"/>
<path d="M46.6877 8.33501V9.23416C46.5621 9.17136 46.4366 9.08573 46.2995 9.01437C36.7657 14.5178 22.1851 22.907 12.6627 28.4247L12.4628 28.3105C12.4398 28.2995 12.4186 28.2851 12.4 28.2677C12.3896 28.2382 12.3829 28.2075 12.3801 28.1763C12.3955 28.136 12.4248 28.1026 12.4628 28.0821L46.6877 8.33501Z" fill="#3B52B5"/>
<path d="M46.2998 8.1038L46.688 8.33501L12.4631 28.0678C12.4251 28.0883 12.3957 28.1217 12.3803 28.162C12.3831 28.1932 12.3898 28.2239 12.4003 28.2534C12.4189 28.2708 12.44 28.2853 12.4631 28.2962L12.6629 28.4104L17.2842 31.0507L17.3784 31.0821C17.4431 31.105 17.5136 31.105 17.5783 31.0821C17.6132 31.0742 17.6476 31.0637 17.681 31.0507L51.1124 11.7689L51.8973 11.3093L52.2941 11.5406L18.0692 31.282C17.9788 31.3288 17.8829 31.3643 17.7838 31.3876C17.5802 31.4275 17.3708 31.4275 17.1672 31.3876C17.0684 31.3633 16.9726 31.3279 16.8818 31.282L12.0663 28.5274C11.9533 28.4659 11.8677 28.3639 11.8265 28.242C11.8158 28.1919 11.8169 28.14 11.8298 28.0904C11.8427 28.0409 11.867 27.995 11.9007 27.9565C11.9454 27.8972 12.0018 27.8477 12.0663 27.8109L46.2998 8.1038Z" fill="#283D93"/>
<path d="M16.8874 31.282C14.6866 29.9346 14.3355 29.7605 12.0662 28.5274C14.2755 29.8747 14.6209 30.046 16.8874 31.282Z" fill="#4761C9"/>
<g style="mix-blend-mode:multiply" opacity="0.35">
<path d="M51.098 11.7718L18.4202 30.6254L17.6809 31.0536C17.6466 31.0669 17.6113 31.0774 17.5753 31.085C17.5117 31.1084 17.4419 31.1084 17.3783 31.085L17.2841 31.0536L16.4906 30.594L50.1275 11.1837C50.4529 11.3836 50.7754 11.572 51.098 11.7718Z" fill="#ADB8E8"/>
</g>
<path d="M52.3022 11.5406C47.5324 14.395 37.4591 20.1696 32.6579 22.9869C27.8053 25.7357 23.0127 28.5388 18.1458 31.2363C22.9128 28.3676 27.7454 25.6073 32.5437 22.7899C37.3963 20.044 47.4325 14.238 52.3022 11.5406Z" fill="#4761C9"/>
<path d="M46.6875 8.33501C41.9178 11.1895 31.8444 16.964 27.0432 19.7842C22.1906 22.5302 17.398 25.3333 12.5312 28.0307C17.2981 25.1763 22.1307 22.4018 26.929 19.5844C31.7673 16.8413 41.8207 11.0325 46.6875 8.33501Z" fill="#4761C9"/>
<path d="M76.9876 66.0663C77.0815 66.1225 77.1671 66.1917 77.2417 66.2718C77.3895 66.4369 77.5004 66.6315 77.5671 66.8427C77.6015 66.9458 77.6188 67.0538 77.6185 67.1624V72.9998C77.6213 73.0388 77.6213 73.0779 77.6185 73.1168C77.6084 73.1947 77.5778 73.2686 77.53 73.3309C77.5069 73.3631 77.4766 73.3895 77.4415 73.408C65.7535 80.1559 54.0664 86.9038 42.3802 93.6518C42.4461 93.6102 42.4963 93.548 42.523 93.4748C42.5496 93.4007 42.5622 93.3223 42.5601 93.2436V87.4062C42.5597 87.2976 42.5424 87.1897 42.5087 87.0865C42.4435 86.8746 42.3324 86.6797 42.1833 86.5156C42.1095 86.4347 42.0238 86.3654 41.9292 86.3101L76.9876 66.0663Z" fill="#3B52B5"/>
<path d="M76.9879 66.0663L41.9209 86.313L18.0377 72.5231L53.1046 52.2793L76.9879 66.0663Z" fill="#283D93"/>
<path d="M42.175 87.1864V92.881L18.797 79.3823V73.388L41.9181 86.7383H41.9352L41.9666 86.7639L41.998 86.7896L42.0266 86.821L42.0551 86.8553L42.0779 86.8924C42.0872 86.9047 42.0949 86.9181 42.1008 86.9324C42.1097 86.9439 42.1173 86.9563 42.1236 86.9695L42.1407 87.0094C42.1407 87.0237 42.1407 87.038 42.1407 87.0494C42.142 87.0636 42.142 87.078 42.1407 87.0922C42.1407 87.0922 42.1407 87.1179 42.1407 87.1322C42.1407 87.1464 42.175 87.1721 42.175 87.1864Z" fill="#E6E9FF"/>
<path d="M42.1749 93.0266V93.0552C42.1749 93.0552 42.1749 93.078 42.1749 93.0894V93.1208C42.1765 93.1303 42.1765 93.1399 42.1749 93.1494C42.1708 93.1574 42.1661 93.165 42.1607 93.1722L42.1407 93.1922H42.1179H42.0979H42.0408H42.0094H41.9808C41.9696 93.1947 41.9579 93.1947 41.9466 93.1922L18.0377 79.3823L18.797 78.9456V79.3823L42.1749 92.8811V93.0266Z" fill="#283D93"/>
<g style="mix-blend-mode:multiply" opacity="0.35">
<path d="M23.7148 70.3195L23.7833 47.5095V34.5389L47.2983 21.1572C47.2983 21.1572 56.6181 57.1747 57.4231 68.701C57.4231 68.8437 47.5124 74.5669 47.598 74.5184L39.2859 79.3167L23.7148 70.3195Z" fill="#ADB8E8"/>
</g>
<path d="M52.959 23.1439L60.4091 68.4926L42.309 78.9456L34.8589 33.5912L52.959 23.1439Z" fill="#FFC5C1"/>
<path d="M48.4546 21.6253L48.7258 23.2809L47.8552 22.9955L30.7285 32.8947L30.3374 32.7577C30.3163 32.7573 30.2957 32.7514 30.2775 32.7406C30.2424 32.7252 30.2081 32.708 30.1747 32.6892C30.149 32.6721 30.1233 32.6464 30.0977 32.6293C30.0802 32.6055 30.0658 32.5796 30.0548 32.5522C30.0452 32.5305 30.0394 32.5073 30.0377 32.4837C30.0293 32.4558 30.0293 32.426 30.0377 32.398C30.0454 32.3681 30.0569 32.3394 30.072 32.3124C30.0977 32.2867 30.1148 32.261 30.1405 32.2353C30.1699 32.2047 30.2014 32.1761 30.2347 32.1497C30.2689 32.1269 30.3032 32.1097 30.3374 32.0841L48.4546 21.6253Z" fill="#FFC5C1"/>
<path d="M33.5371 33.5569L33.3658 33.5826C33.3092 33.5922 33.252 33.5979 33.1945 33.5998H33.0233C32.9696 33.5983 32.9162 33.5926 32.8634 33.5826L32.7179 33.5569L32.6494 33.5313L30.7283 32.8919L47.855 22.9926L48.7256 23.2781L50.5268 23.8889L34.1337 33.3514L34.0223 33.4028C33.9795 33.4285 33.9281 33.4456 33.8768 33.4713C33.8248 33.4903 33.7714 33.5046 33.7169 33.5141C33.6584 33.5339 33.5982 33.5482 33.5371 33.5569Z" fill="#E6E9FF"/>
<path d="M33.7087 33.5141C33.7631 33.5046 33.8166 33.4903 33.8685 33.4713C33.9199 33.4456 33.9713 33.4285 34.0141 33.4028L34.1254 33.3514L50.5271 23.8889L52.2398 22.8984L52.9648 23.1468L34.8647 33.5912C34.6444 33.7201 34.4097 33.8227 34.1654 33.8966C33.676 34.0435 33.1661 34.11 32.6554 34.0936C32.4 34.0894 32.1469 34.0461 31.9047 33.9651L29.5926 33.1887C29.4633 33.1498 29.3416 33.089 29.2329 33.0089C29.1442 32.95 29.0732 32.8681 29.0274 32.772C29.0167 32.7507 29.0109 32.7273 29.0102 32.7035C29.0063 32.6924 29.0063 32.6803 29.0102 32.6692C28.9946 32.5977 29.0005 32.5232 29.0274 32.4551C29.0679 32.3255 29.1452 32.2104 29.25 32.124C29.3653 32.0123 29.4949 31.9164 29.6354 31.8386L47.7326 21.3941L48.469 21.6311L30.3461 32.0812C30.3119 32.1069 30.2776 32.124 30.2434 32.1469C30.2101 32.1732 30.1786 32.2018 30.1492 32.2325C30.1235 32.2582 30.1064 32.2839 30.0807 32.3096C30.0656 32.3365 30.0541 32.3653 30.0464 32.3952C30.038 32.4231 30.038 32.4529 30.0464 32.4808C30.0481 32.5045 30.0539 32.5277 30.0635 32.5493C30.0745 32.5767 30.0889 32.6026 30.1064 32.6264C30.132 32.6435 30.1577 32.6692 30.1834 32.6864C30.2168 32.7052 30.2511 32.7223 30.2862 32.7377C30.3044 32.7485 30.325 32.7544 30.3461 32.7549L30.7372 32.8919L32.6582 33.5398L32.7267 33.557L32.8723 33.5827C32.9251 33.5926 32.9785 33.5983 33.0322 33.5998H33.2034C33.2608 33.5979 33.3181 33.5922 33.3747 33.5827L33.546 33.557C33.6013 33.5473 33.6557 33.533 33.7087 33.5141Z" fill="#FF9999"/>
<path d="M29.5868 33.1887L31.8989 33.9651C32.1411 34.0461 32.3943 34.0894 32.6496 34.0936C33.1603 34.11 33.6703 34.0435 34.1596 33.8966C34.4039 33.8227 34.6387 33.7201 34.859 33.5912L42.3091 78.9456C42.0863 79.068 41.8521 79.1684 41.6098 79.2453C41.1203 79.3917 40.6104 79.4582 40.0997 79.4423C39.8439 79.4438 39.5898 79.4003 39.349 79.3138L37.0341 78.5374C36.9243 78.5007 36.819 78.4519 36.7201 78.3919C36.6425 78.3428 36.5755 78.2788 36.5231 78.2035C36.4802 78.1492 36.4535 78.0839 36.446 78.0151C33.9722 62.9112 31.4917 47.8073 29.0045 32.7035C29.0051 32.7273 29.011 32.7507 29.0216 32.772C29.0674 32.8681 29.1384 32.95 29.2271 33.0089C29.3359 33.089 29.4575 33.1498 29.5868 33.1887Z" fill="#FC7F4F"/>
</svg>
