<svg width="107" height="107" viewBox="0 0 107 107" fill="none" xmlns="http://www.w3.org/2000/svg">
<path d="M96.2786 85.2769H89.1909V85.3304H96.2786V85.2769Z" fill="#FFC5C1"/>
<path d="M70.8811 85.8589H69.0214V85.9125H70.8811V85.8589Z" fill="#FFC5C1"/>
<path d="M88.9769 83.2909H84.8703V83.3444H88.9769V83.2909Z" fill="#FFC5C1"/>
<path d="M20.4691 83.6505H11.2264V83.704H20.4691V83.6505Z" fill="#FFC5C1"/>
<path d="M23.7305 83.6505H22.3759V83.704H23.7305V83.6505Z" fill="#FFC5C1"/>
<path d="M48.1821 84.5536H28.1346V84.6071H48.1821V84.5536Z" fill="#FFC5C1"/>
<path d="M50.718 72.2892H9.39674C9.07303 72.2886 8.76278 72.1596 8.53408 71.9305C8.30539 71.7015 8.17694 71.391 8.17694 71.0673V12.9812C8.17976 12.6594 8.30945 12.3517 8.53784 12.1249C8.76623 11.8981 9.07488 11.7706 9.39674 11.77H50.718C51.0421 11.77 51.3529 11.8987 51.582 12.1279C51.8112 12.3571 51.9399 12.6679 51.9399 12.9919V71.0673C51.9399 71.3913 51.8112 71.7021 51.582 71.9313C51.3529 72.1605 51.0421 72.2892 50.718 72.2892ZM9.39674 11.8128C9.08722 11.8134 8.79057 11.9367 8.57191 12.1558C8.35325 12.3749 8.23044 12.6717 8.23044 12.9812V71.0673C8.23044 71.3768 8.35325 71.6737 8.57191 71.8927C8.79057 72.1118 9.08722 72.2351 9.39674 72.2357H50.718C51.0277 72.2351 51.3246 72.1118 51.5436 71.8928C51.7626 71.6738 51.8859 71.377 51.8864 71.0673V12.9812C51.8859 12.6715 51.7626 12.3747 51.5436 12.1557C51.3246 11.9367 51.0277 11.8134 50.718 11.8128H9.39674Z" fill="#FFC5C1"/>
<path d="M97.0084 72.2892H55.685C55.361 72.2886 55.0506 72.1597 54.8215 71.9307C54.5925 71.7016 54.4636 71.3912 54.463 71.0673V12.9812C54.4664 12.6592 54.5966 12.3515 54.8253 12.1247C55.054 11.898 55.3629 11.7705 55.685 11.77H97.0084C97.3298 11.7711 97.6379 11.8989 97.8659 12.1256C98.0938 12.3523 98.2232 12.6598 98.226 12.9812V71.0673C98.226 71.3906 98.0979 71.7008 97.8696 71.9298C97.6414 72.1588 97.3317 72.2881 97.0084 72.2892ZM55.685 11.8128C55.3752 11.8134 55.0784 11.9367 54.8594 12.1557C54.6404 12.3747 54.5171 12.6715 54.5165 12.9812V71.0673C54.5171 71.377 54.6404 71.6738 54.8594 71.8928C55.0784 72.1118 55.3752 72.2351 55.685 72.2357H97.0084C97.3181 72.2351 97.6149 72.1118 97.8339 71.8928C98.0529 71.6738 98.1762 71.377 98.1768 71.0673V12.9812C98.1762 12.6715 98.0529 12.3747 97.8339 12.1557C97.6149 11.9367 97.3181 11.8134 97.0084 11.8128H55.685Z" fill="#FFC5C1"/>
<path d="M107 81.8336H0V81.8871H107V81.8336Z" fill="#FFC5C1"/>
<path d="M15.164 60.348C13.9913 60.8081 13.0026 61.6448 12.1424 62.5672C10.7235 64.0909 9.54655 66.2052 10.1885 68.1911C10.4924 69.1306 11.5004 70.0037 12.3992 69.5971C13.0947 69.2825 13.3087 68.4008 13.3301 67.639C13.3515 66.8771 13.2787 66.049 13.7046 65.4134C14.2396 64.613 15.4487 64.4547 16.2897 64.9255C17.1307 65.3963 17.6186 66.3464 17.7492 67.303C17.8959 68.4062 17.6324 69.5249 17.0087 70.4467C16.4716 71.2363 15.6776 71.8633 15.3224 72.7493C14.843 73.9391 15.2646 75.2809 15.6883 76.4922C15.7078 76.5714 15.7459 76.6448 15.7996 76.7062C15.8611 76.756 15.9352 76.7879 16.0136 76.7982C16.2244 76.8271 16.4389 76.8107 16.6428 76.7503C16.8468 76.6898 17.0355 76.5866 17.1964 76.4475C17.3574 76.3084 17.4869 76.1366 17.5763 75.9436C17.6657 75.7506 17.7129 75.5407 17.7149 75.328C17.6892 74.8272 17.4025 74.3671 17.3811 73.8664C17.3404 72.8734 18.2842 72.1736 18.9732 71.4589C20.8543 69.5008 21.1389 66.5262 21.0576 63.8127C21.0341 63.0573 20.9848 62.2762 20.6489 61.5999C19.8078 59.8836 16.7134 59.7274 15.164 60.348Z" fill="#FFC5C1"/>
<path d="M17.3105 77.7441C16.8709 77.8938 16.5048 78.2051 16.2862 78.6148C16.0677 79.0245 16.0131 79.5019 16.1335 79.9504C16.2838 80.3898 16.5855 80.7614 16.9845 80.999C17.3836 81.2365 17.8541 81.3245 18.312 81.2472C18.5972 81.1902 18.8665 81.0713 19.1009 80.899C19.3353 80.7267 19.5291 80.5052 19.6688 80.25C19.8528 79.911 19.9275 79.5234 19.8827 79.1403C19.8378 78.7572 19.6757 78.3974 19.4184 78.11C18.8898 77.5686 17.3105 77.7441 17.3105 77.7441Z" fill="#3B52B5"/>
<path d="M13.0818 25.8469L11.678 25.3954L10.2035 26.735C10.1282 26.33 10.1576 25.9123 10.2889 25.5218C10.4203 25.1313 10.6493 24.7808 10.9541 24.5036C11.2589 24.2264 11.6296 24.0317 12.0308 23.938C12.432 23.8443 12.8505 23.8546 13.2466 23.968L16.0136 21.4557L18.2264 19.4462L20.9934 16.9381C20.9189 16.5333 20.949 16.1163 21.0807 15.7264C21.2124 15.3365 21.4415 14.9866 21.7462 14.71C22.0509 14.4333 22.4212 14.239 22.822 14.1455C23.2228 14.0519 23.6408 14.0622 24.0365 14.1754L22.562 15.515L22.8745 16.9552L24.2783 17.4046L25.7528 16.0671C25.8283 16.4722 25.799 16.8898 25.6677 17.2803C25.5364 17.6708 25.3073 18.0213 25.0024 18.2983C24.6974 18.5754 24.3267 18.7699 23.9254 18.8633C23.5241 18.9567 23.1056 18.9459 22.7097 18.832L19.9427 21.3401L17.7299 23.3517L14.9629 25.8619C15.038 26.2668 15.0084 26.6841 14.8769 27.0743C14.7454 27.4646 14.5163 27.8147 14.2114 28.0915C13.9065 28.3683 13.536 28.5625 13.1349 28.6558C12.7338 28.7492 12.3156 28.7384 11.9198 28.6247L13.3943 27.2872L13.0818 25.8469Z" fill="#3B52B5"/>
<path opacity="0.4" d="M13.0818 25.8469L11.678 25.3954L10.2035 26.735C10.1282 26.33 10.1576 25.9123 10.2889 25.5218C10.4203 25.1313 10.6493 24.7808 10.9541 24.5036C11.2589 24.2264 11.6296 24.0317 12.0308 23.938C12.432 23.8443 12.8505 23.8546 13.2466 23.968L16.0136 21.4557L18.2264 19.4462L20.9934 16.9381C20.9189 16.5333 20.949 16.1163 21.0807 15.7264C21.2124 15.3365 21.4415 14.9866 21.7462 14.71C22.0509 14.4333 22.4212 14.239 22.822 14.1455C23.2228 14.0519 23.6408 14.0622 24.0365 14.1754L22.562 15.515L22.8745 16.9552L24.2783 17.4046L25.7528 16.0671C25.8283 16.4722 25.799 16.8898 25.6677 17.2803C25.5364 17.6708 25.3073 18.0213 25.0024 18.2983C24.6974 18.5754 24.3267 18.7699 23.9254 18.8633C23.5241 18.9567 23.1056 18.9459 22.7097 18.832L19.9427 21.3401L17.7299 23.3517L14.9629 25.8619C15.038 26.2668 15.0084 26.6841 14.8769 27.0743C14.7454 27.4646 14.5163 27.8147 14.2114 28.0915C13.9065 28.3683 13.536 28.5625 13.1349 28.6558C12.7338 28.7492 12.3156 28.7384 11.9198 28.6247L13.3943 27.2872L13.0818 25.8469Z" fill="#3B52B5"/>
<path d="M12.84 17.4346L10.8712 14.965L12.2301 13.7302L14.5006 15.9195L14.766 16.5101C14.8479 16.6915 14.9577 16.859 15.0913 17.0066L17.8176 20.0026L16.5764 21.1304L13.8501 18.1344C13.7181 17.9876 13.5644 17.862 13.3942 17.762L12.84 17.4346Z" fill="#3B52B5"/>
<path opacity="0.7" d="M12.84 17.4346L10.8712 14.965L12.2301 13.7302L14.5006 15.9195L14.766 16.5101C14.8479 16.6915 14.9577 16.859 15.0913 17.0066L17.8176 20.0026L16.5764 21.1304L13.8501 18.1344C13.7181 17.9876 13.5644 17.862 13.3942 17.762L12.84 17.4346Z" fill="#FACA44"/>
<path d="M10.9011 15.0035L10.8712 14.965L12.2301 13.7302L12.2665 13.7645C12.3606 13.9528 12.1787 14.3294 11.8256 14.6504C11.4725 14.9714 11.0809 15.1148 10.9011 15.0035Z" fill="#3B52B5"/>
<path d="M17.6165 22.7054L16.7969 21.8045L16.7434 21.8537C16.6807 21.9104 16.598 21.94 16.5135 21.9357C16.429 21.9315 16.3497 21.8939 16.2929 21.8312C16.2361 21.7685 16.2066 21.6858 16.2108 21.6013C16.2151 21.5168 16.2527 21.4375 16.3154 21.3807L18.0959 19.765C18.1586 19.7083 18.2413 19.6788 18.3257 19.683C18.3676 19.6851 18.4086 19.6954 18.4464 19.7133C18.4843 19.7312 18.5182 19.7565 18.5463 19.7875C18.5744 19.8186 18.5961 19.8549 18.6102 19.8943C18.6243 19.9337 18.6305 19.9756 18.6284 20.0174C18.6263 20.0592 18.616 20.1002 18.5981 20.1381C18.5801 20.1759 18.5549 20.2099 18.5239 20.238L18.4704 20.2872L19.2878 21.186C19.4485 21.1659 19.6116 21.1874 19.7615 21.2484C19.9114 21.3095 20.043 21.4081 20.1438 21.5348L24.8583 26.75C25.4211 27.3706 25.0915 28.034 24.4731 28.5883C23.8546 29.1425 23.1677 29.4143 22.607 28.8023L17.8819 23.5828C17.7669 23.471 17.6822 23.3319 17.6358 23.1784C17.5894 23.0249 17.5827 22.8622 17.6165 22.7054Z" fill="#3B52B5"/>
<path opacity="0.4" d="M17.6165 22.7054L16.7969 21.8045L16.7434 21.8537C16.6807 21.9104 16.598 21.94 16.5135 21.9357C16.429 21.9315 16.3497 21.8939 16.2929 21.8312C16.2361 21.7685 16.2066 21.6858 16.2108 21.6013C16.2151 21.5168 16.2527 21.4375 16.3154 21.3807L18.0959 19.765C18.1586 19.7083 18.2413 19.6788 18.3257 19.683C18.3676 19.6851 18.4086 19.6954 18.4464 19.7133C18.4843 19.7312 18.5182 19.7565 18.5463 19.7875C18.5744 19.8186 18.5961 19.8549 18.6102 19.8943C18.6243 19.9337 18.6305 19.9756 18.6284 20.0174C18.6263 20.0592 18.616 20.1002 18.5981 20.1381C18.5801 20.1759 18.5549 20.2099 18.5239 20.238L18.4704 20.2872L19.2878 21.186C19.4485 21.1659 19.6116 21.1874 19.7615 21.2484C19.9114 21.3095 20.043 21.4081 20.1438 21.5348L24.8583 26.75C25.4211 27.3706 25.0915 28.034 24.4731 28.5883C23.8546 29.1425 23.1677 29.4143 22.607 28.8023L17.8819 23.5828C17.7669 23.471 17.6822 23.3319 17.6358 23.1784C17.5894 23.0249 17.5827 22.8622 17.6165 22.7054Z" fill="#FFC5C1"/>
<path opacity="0.7" d="M84.7825 27.6103L87.006 28.6974L88.0182 28.1924L84.56 26.4996L84.7825 27.6103Z" fill="#FACA44"/>
<path d="M86.2056 16.05C85.8957 16.6886 85.7241 17.3855 85.7019 18.095C85.6798 18.8045 85.8077 19.5107 86.0772 20.1674C86.2619 20.5989 86.3527 21.0648 86.3435 21.5342C86.3342 22.0035 86.2252 22.4655 86.0237 22.8895L85.8547 23.234L89.8094 25.16L89.9784 24.8155C90.1893 24.3964 90.4868 24.0271 90.8514 23.7319C91.2159 23.4367 91.6391 23.2225 92.0928 23.1035C93.0998 22.8228 93.9947 22.2364 94.654 21.4251C95.3133 20.6139 95.7044 19.6179 95.7733 18.5748C95.8421 17.5317 95.5853 16.493 95.0383 15.6022C94.4913 14.7114 93.6812 14.0124 92.7198 13.6019C91.5263 13.1049 90.1882 13.0814 88.978 13.5362C87.7678 13.991 86.7764 14.89 86.2056 16.05Z" fill="#FACA44"/>
<path d="M91.7304 20.2638L88.4993 24.4579L88.7401 24.6434L91.9711 20.4493L91.7304 20.2638Z" fill="#3B52B5"/>
<path d="M88.1306 18.3895L86.807 23.525L87.1018 23.601L88.4254 18.4654L88.1306 18.3895Z" fill="#3B52B5"/>
<path d="M88.581 21.2716L89.6168 20.5483L89.681 21.8087L91.2903 21.1282L91.1704 20.8479L89.9613 21.3593L89.8928 19.9833L88.7629 20.773L88.4248 19.504L88.1316 19.5831L88.581 21.2716Z" fill="#3B52B5"/>
<path d="M85.8654 23.204L84.3224 26.3584L88.2664 28.3143L89.8094 25.16L85.8654 23.204Z" fill="#3B52B5"/>
<path d="M87.7164 78.0244C87.0487 74.2883 86.7235 70.499 86.7449 66.7038C86.7449 64.7885 87.0081 61.2639 89.4691 60.8124C91.8638 60.3737 91.7653 63.4553 91.7075 65.0346C91.6241 67.3244 87.6287 77.5429 87.7164 78.0244Z" fill="#FFC5C1"/>
<path d="M88.3007 79.6209C88.6188 79.9062 88.8163 80.3018 88.8533 80.7275C88.8902 81.1531 88.7638 81.5769 88.4997 81.9128C88.2136 82.2306 87.8236 82.4362 87.3998 82.4926C86.9759 82.5491 86.5457 82.4528 86.1864 82.2209C85.9655 82.0707 85.7804 81.8738 85.6439 81.6442C85.5075 81.4146 85.4231 81.1578 85.3967 80.892C85.3661 80.5402 85.444 80.1875 85.62 79.8814C85.7961 79.5753 86.0617 79.3305 86.3811 79.18C87.0274 78.9018 88.3007 79.6209 88.3007 79.6209Z" fill="#3B52B5"/>
<path d="M53.5 91.3801C76.4156 91.3801 94.9925 90.2956 94.9925 88.9577C94.9925 87.6198 76.4156 86.5352 53.5 86.5352C30.5843 86.5352 12.0075 87.6198 12.0075 88.9577C12.0075 90.2956 30.5843 91.3801 53.5 91.3801Z" fill="#7EABFF"/>
<path d="M52.858 20.2615L82.1118 14.4835C82.2965 14.4451 82.4871 14.4456 82.6716 14.4849C82.856 14.5241 83.0303 14.6014 83.1833 14.7117C83.3363 14.822 83.4646 14.963 83.5601 15.1256C83.6557 15.2882 83.7163 15.4689 83.7382 15.6562L88.9513 66.2694C88.9682 66.4554 88.9462 66.6429 88.8867 66.82C88.8272 66.9971 88.7316 67.1598 88.6058 67.2979C88.4799 67.436 88.3268 67.5464 88.156 67.622C87.9852 67.6977 87.8006 67.737 87.6138 67.7374L52.858 68.2146V20.2615Z" fill="#3B52B5"/>
<path d="M52.7531 20.4006C52.7531 20.4006 72.561 15.9366 81.1788 16.4545L85.356 65.3492C85.356 65.3492 78.7991 63.6372 72.516 64.8356C66.0554 66.0661 52.751 68.2146 52.751 68.2146L52.7531 20.4006Z" fill="#3B52B5"/>
<path opacity="0.7" d="M52.7531 20.4006C52.7531 20.4006 72.561 15.9366 81.1788 16.4545L85.356 65.3492C85.356 65.3492 78.7991 63.6372 72.516 64.8356C66.0554 66.0661 52.751 68.2146 52.751 68.2146L52.7531 20.4006Z" fill="#EDF0F4"/>
<path d="M55.3661 19.3349C55.3661 19.3349 66.1367 14.873 72.9569 14.4857L79.822 14.0962L83.7275 63.6586C83.7275 63.6586 77.331 61.0606 70.7719 62.6699C64.2128 64.2792 55.7791 67.0762 52.8965 68.1141V20.2444L55.3661 19.3349Z" fill="#3B52B5"/>
<path opacity="0.8" d="M55.4025 19.3349C55.4025 19.3349 66.1752 14.873 72.9954 14.4857L79.8627 14.0962L83.7682 63.6586C83.7682 63.6586 77.3696 61.0606 70.8126 62.6699C64.2557 64.2792 55.8198 67.0762 52.9372 68.1141V20.2444L55.4025 19.3349Z" fill="#EDF0F4"/>
<path d="M52.8987 20.2615L24.2933 14.4835C24.1107 14.4467 23.9225 14.4485 23.7407 14.4888C23.5589 14.5291 23.3875 14.607 23.2376 14.7174C23.0876 14.8278 22.9624 14.9684 22.8701 15.1301C22.7777 15.2918 22.7201 15.471 22.7011 15.6562L17.6058 66.2737C17.5874 66.4575 17.6074 66.6432 17.6644 66.819C17.7215 66.9947 17.8144 67.1567 17.9373 67.2947C18.0602 67.4327 18.2104 67.5436 18.3784 67.6206C18.5464 67.6975 18.7286 67.7388 18.9133 67.7417L52.9008 68.2147L52.8987 20.2615Z" fill="#3B52B5"/>
<path d="M52.8986 20.2615C52.8986 20.2615 34.454 13.512 25.894 13.0048L21.5541 65.1223C21.5541 65.1223 28.2266 63.3483 34.4369 64.6687C40.6471 65.989 52.9008 68.2146 52.9008 68.2146L52.8986 20.2615Z" fill="#3B52B5"/>
<path opacity="0.6" d="M52.8986 20.2615C52.8986 20.2615 34.454 13.512 25.894 13.0048L21.5541 65.1223C21.5541 65.1223 28.2266 63.3483 34.4369 64.6687C40.6471 65.989 52.9008 68.2146 52.9008 68.2146L52.8986 20.2615Z" fill="#EDF0F4"/>
<path d="M50.8143 19.1359C50.8143 19.1359 40.5894 13.7516 34.148 12.7886L27.6873 11.8235L24.0301 60.7182C24.0301 60.7182 30.0328 58.758 36.2109 61.0007C42.3891 63.2434 50.4205 66.8857 53.1662 68.2146V20.2615L50.8143 19.1359Z" fill="#3B52B5"/>
<path opacity="0.7" d="M50.8143 19.1359C50.8143 19.1359 40.5894 13.7516 34.148 12.7886L27.6873 11.8235L24.0301 60.7182C24.0301 60.7182 30.0328 58.758 36.2109 61.0007C42.3891 63.2434 50.4205 66.8857 53.1662 68.2146V20.2615L50.8143 19.1359Z" fill="#EDF0F4"/>
<path d="M48.1243 28.1282L49.8042 27.1801L51.4755 31.2568L48.1243 28.1282Z" fill="#3B52B5"/>
<path d="M57.2642 29.776L55.7491 28.5818L53.4743 32.3547L57.2642 29.776Z" fill="#3B52B5"/>
<path d="M51.743 26.0609L54.0007 26.2749L52.8751 31.336L51.743 26.0609Z" fill="#3B52B5"/>
<path d="M68.48 14.1026C68.4551 14.1021 68.4312 14.0931 68.4121 14.0772C68.3931 14.0612 68.38 14.0392 68.3751 14.0149C68.3724 14.0011 68.3724 13.9869 68.3752 13.9731C68.3781 13.9593 68.3836 13.9462 68.3916 13.9346C68.3996 13.9231 68.4098 13.9132 68.4217 13.9057C68.4336 13.8981 68.4469 13.893 68.4607 13.8907C69.1627 13.7538 69.871 13.6361 70.5644 13.5376C70.5927 13.5337 70.6215 13.5411 70.6444 13.5584C70.6673 13.5756 70.6824 13.6013 70.6863 13.6297C70.6903 13.658 70.6829 13.6868 70.6656 13.7097C70.6483 13.7326 70.6227 13.7477 70.5943 13.7516C69.9052 13.8501 69.2012 13.9656 68.5014 14.1026H68.48Z" fill="#3B52B5"/>
<path d="M59.4727 16.7819C59.4443 16.7873 59.415 16.7812 59.3911 16.7649C59.3672 16.7487 59.3508 16.7236 59.3454 16.6952C59.34 16.6668 59.3461 16.6375 59.3624 16.6136C59.3786 16.5897 59.4037 16.5733 59.4321 16.5679C62.0513 15.5132 64.7543 14.6799 67.5127 14.0769C67.5408 14.0712 67.57 14.0767 67.594 14.0923C67.618 14.108 67.6349 14.1324 67.6411 14.1604C67.6442 14.174 67.6446 14.1881 67.6422 14.2019C67.6398 14.2157 67.6346 14.2289 67.6271 14.2406C67.6195 14.2524 67.6096 14.2625 67.5981 14.2704C67.5865 14.2783 67.5735 14.2838 67.5598 14.2866C64.8132 14.8867 62.1217 15.7156 59.5134 16.7647C59.5013 16.7735 59.4874 16.7793 59.4727 16.7819Z" fill="#3B52B5"/>
<path d="M40.0843 69.4152H37.7111C37.6827 69.4152 37.6555 69.4039 37.6354 69.3838C37.6153 69.3638 37.6041 69.3366 37.6041 69.3082C37.6041 69.2798 37.6153 69.2526 37.6354 69.2325C37.6555 69.2124 37.6827 69.2012 37.7111 69.2012H40.0843C40.1127 69.2012 40.1399 69.2124 40.16 69.2325C40.1801 69.2526 40.1913 69.2798 40.1913 69.3082C40.1913 69.3366 40.1801 69.3638 40.16 69.3838C40.1399 69.4039 40.1127 69.4152 40.0843 69.4152Z" fill="#3B52B5"/>
<path d="M36.4399 69.4152H27.9206C27.8922 69.4152 27.865 69.4039 27.8449 69.3838C27.8248 69.3638 27.8136 69.3366 27.8136 69.3082C27.8136 69.2798 27.8248 69.2526 27.8449 69.2325C27.865 69.2124 27.8922 69.2012 27.9206 69.2012H36.4399C36.4681 69.2017 36.495 69.2132 36.515 69.2331C36.5349 69.2531 36.5464 69.28 36.5469 69.3082C36.5469 69.3366 36.5356 69.3638 36.5156 69.3838C36.4955 69.4039 36.4683 69.4152 36.4399 69.4152Z" fill="#3B52B5"/>
</svg>
