<svg width="114" height="114" viewBox="0 0 114 114" fill="none" xmlns="http://www.w3.org/2000/svg">
<path d="M100.639 61.7333C101.095 55.6343 99.6725 49.2617 97.7573 43.5845C94.9141 35.1485 89.3965 26.4982 80.101 24.5032C74.7407 23.3632 69.2869 24.5852 64.6927 27.4672C60.2718 30.2419 56.8267 33.8238 51.3935 34.5192C45.8987 35.2214 40.2602 34.9387 34.7358 34.9387C20.5337 34.9387 9.006 49.7587 11.8879 65.1966C14.7698 80.6345 28.3541 91.3368 39.8818 91.3368C50.2398 91.3368 58.7602 85.1649 68.6098 83.5073C73.489 82.6865 78.3864 83.6578 83.2154 82.4266C88.8265 80.9947 94.1024 77.5793 97.2123 72.634C99.3191 69.2664 100.35 65.5523 100.639 61.7333Z" fill="#FFB8AE"/>
<path opacity="0.7" d="M100.639 61.7333C101.095 55.6343 99.6725 49.2617 97.7573 43.5845C94.9141 35.1485 89.3965 26.4982 80.101 24.5032C74.7407 23.3632 69.2869 24.5852 64.6927 27.4672C60.2718 30.2419 56.8267 33.8238 51.3935 34.5192C45.8987 35.2214 40.2602 34.9387 34.7358 34.9387C20.5337 34.9387 9.006 49.7587 11.8879 65.1966C14.7698 80.6345 28.3541 91.3368 39.8818 91.3368C50.2398 91.3368 58.7602 85.1649 68.6098 83.5073C73.489 82.6865 78.3864 83.6578 83.2154 82.4266C88.8265 80.9947 94.1024 77.5793 97.2123 72.634C99.3191 69.2664 100.35 65.5523 100.639 61.7333Z" fill="white"/>
<path d="M56.2453 96.485C80.7432 96.485 100.603 95.9318 100.603 95.2493C100.603 94.5668 80.7432 94.0135 56.2453 94.0135C31.7474 94.0135 11.8879 94.5668 11.8879 95.2493C11.8879 95.9318 31.7474 96.485 56.2453 96.485Z" fill="#283D93"/>
<path d="M78.717 94.1229H74.613V20.1643L78.717 24.9363V94.1229Z" stroke="#283D93" stroke-linecap="round" stroke-linejoin="round"/>
<path d="M74.6518 76.7083H78.6782L74.6518 72.8163H78.6782L74.6518 76.7083Z" stroke="#283D93" stroke-linecap="round" stroke-linejoin="round"/>
<path d="M74.6518 72.7183H78.6782L74.6518 68.8264H78.6782L74.6518 72.7183Z" stroke="#283D93" stroke-linecap="round" stroke-linejoin="round"/>
<path d="M74.6518 84.6541H78.6782L74.6518 80.7621H78.6782L74.6518 84.6541Z" stroke="#283D93" stroke-linecap="round" stroke-linejoin="round"/>
<path d="M74.6518 80.6641H78.6782L74.6518 76.7722H78.6782L74.6518 80.6641Z" stroke="#283D93" stroke-linecap="round" stroke-linejoin="round"/>
<path d="M74.6518 68.7283H78.6782L74.6518 64.8363H78.6782L74.6518 68.7283Z" stroke="#283D93" stroke-linecap="round" stroke-linejoin="round"/>
<path d="M74.6518 64.7383H78.6782L74.6518 60.8463H78.6782L74.6518 64.7383Z" stroke="#283D93" stroke-linecap="round" stroke-linejoin="round"/>
<path d="M74.6518 60.7483H78.6782L74.6518 56.8564H78.6782L74.6518 60.7483Z" stroke="#283D93" stroke-linecap="round" stroke-linejoin="round"/>
<path d="M74.6518 56.7583H78.6782L74.6518 52.8663H78.6782L74.6518 56.7583Z" stroke="#283D93" stroke-linecap="round" stroke-linejoin="round"/>
<path d="M74.6518 52.7683H78.6782L74.6518 48.8763H78.6782L74.6518 52.7683Z" stroke="#283D93" stroke-linecap="round" stroke-linejoin="round"/>
<path d="M74.6518 48.7783H78.6782L74.6518 44.8864H78.6782L74.6518 48.7783Z" stroke="#283D93" stroke-linecap="round" stroke-linejoin="round"/>
<path d="M74.6518 44.7883H78.6782L74.6518 40.8963H78.6782L74.6518 44.7883Z" stroke="#283D93" stroke-linecap="round" stroke-linejoin="round"/>
<path d="M74.6518 40.7983H78.6782L74.6518 36.9063H78.6782L74.6518 40.7983Z" stroke="#283D93" stroke-linecap="round" stroke-linejoin="round"/>
<path d="M74.6518 36.8083H78.6782L74.6518 32.9164H78.6782L74.6518 36.8083Z" stroke="#283D93" stroke-linecap="round" stroke-linejoin="round"/>
<path d="M74.6518 32.8183H78.6782L74.6518 28.9264H78.6782L74.6518 32.8183Z" stroke="#283D93" stroke-linecap="round" stroke-linejoin="round"/>
<path d="M74.6518 28.8283H78.6782L74.6518 24.9363H78.6782L74.6518 28.8283Z" stroke="#283D93" stroke-linecap="round" stroke-linejoin="round"/>
<path d="M97.7687 28.9355L95.7805 27.6837H81.5944L79.8616 28.9355H97.7687Z" stroke="#283D93" stroke-linecap="round" stroke-linejoin="round"/>
<path d="M98.097 28.8283H63.441V29.7403H98.097V28.8283Z" fill="#283D93" stroke="#283D93" stroke-linecap="round" stroke-linejoin="round"/>
<path d="M95.7805 27.6837L74.613 20.1643L81.5944 27.6837" stroke="#283D93" stroke-linecap="round" stroke-linejoin="round"/>
<path d="M74.613 20.1643L63.441 28.8283" stroke="#283D93" stroke-linecap="round" stroke-linejoin="round"/>
<path d="M81.681 30.7663H73.131V36.2383H81.681V30.7663Z" fill="#283D93" stroke="#283D93" stroke-linecap="round" stroke-linejoin="round"/>
<path d="M81.681 88.7604H73.131V94.2324H81.681V88.7604Z" fill="#283D93" stroke="#283D93" stroke-linecap="round" stroke-linejoin="round"/>
<path d="M79.898 31.9063H74.9117V33.5023H79.898V31.9063Z" fill="white" stroke="#283D93" stroke-linecap="round" stroke-linejoin="round"/>
<path d="M98.097 29.7403V39.5717" stroke="#283D93" stroke-linecap="round" stroke-linejoin="round"/>
<path d="M99.3989 42.9278H96.8658V45.7983H99.3989V42.9278Z" fill="#283D93" stroke="#283D93" stroke-linecap="round" stroke-linejoin="round"/>
<path d="M96.8658 42.9278L98.1312 39.3847L99.3989 42.9278" stroke="#283D93" stroke-linecap="round" stroke-linejoin="round"/>
<path d="M64.3347 88.0627V82.992H49.3893V88.0673C49.3868 89.7238 48.8244 91.3308 47.7933 92.6273L47.139 93.4526H66.576L65.9193 92.6273C64.8922 91.3276 64.3339 89.7192 64.3347 88.0627Z" fill="white" stroke="#283D93" stroke-width="1.09543" stroke-linecap="round" stroke-linejoin="round"/>
<g style="mix-blend-mode:multiply">
<path d="M48.4705 91.6172H65.2536C64.6534 90.5288 64.3396 89.3057 64.3416 88.0627V82.992H49.3894V88.0673C49.3885 89.3093 49.0723 90.5307 48.4705 91.6172Z" fill="#FFB8AE"/>
</g>
<path d="M64.3348 83.7512H49.3894V85.8944H64.3348V83.7512Z" fill="#283D93" stroke="#283D93" stroke-width="1.09543" stroke-linecap="round" stroke-linejoin="round"/>
<path d="M84.7795 39.5352H28.9446C27.7748 39.5352 26.8265 40.4835 26.8265 41.6533V82.4699C26.8265 83.6397 27.7748 84.588 28.9446 84.588H84.7795C85.9493 84.588 86.8976 83.6397 86.8976 82.4699V41.6533C86.8976 40.4835 85.9493 39.5352 84.7795 39.5352Z" fill="#283D93" stroke="#283D93" stroke-width="1.09543" stroke-linecap="round" stroke-linejoin="round"/>
<path d="M26.8265 77.5861H86.8976V82.4699C86.8976 83.0316 86.6745 83.5704 86.2772 83.9676C85.88 84.3648 85.3413 84.588 84.7795 84.588H28.956C28.3942 84.588 27.8555 84.3648 27.4583 83.9676C27.061 83.5704 26.8379 83.0316 26.8379 82.4699V77.5861H26.8265Z" fill="white" stroke="#283D93" stroke-width="1.09543" stroke-linecap="round" stroke-linejoin="round"/>
<path d="M83.8743 42.3396H29.8475V74.1684H83.8743V42.3396Z" fill="#FFB8AE" stroke="#283D93" stroke-width="1.09543" stroke-linecap="round" stroke-linejoin="round"/>
<path d="M57.969 81.0882C57.9694 80.8689 57.9048 80.6545 57.7834 80.472C57.6619 80.2894 57.489 80.1471 57.2865 80.0629C57.0841 79.9786 56.8612 79.9564 56.6461 79.9989C56.431 80.0414 56.2334 80.1467 56.0782 80.3016C55.923 80.4565 55.8172 80.6539 55.7743 80.8689C55.7314 81.0839 55.7532 81.3068 55.837 81.5094C55.9208 81.712 56.0628 81.8852 56.2451 82.0071C56.4273 82.129 56.6417 82.194 56.8609 82.194C57.0063 82.1943 57.1504 82.1659 57.2848 82.1105C57.4192 82.055 57.5414 81.9736 57.6443 81.8709C57.7472 81.7682 57.8289 81.6462 57.8846 81.5119C57.9403 81.3776 57.969 81.2336 57.969 81.0882Z" fill="#283D93" stroke="#283D93" stroke-width="1.09543" stroke-linecap="round" stroke-linejoin="round"/>
<path d="M66.5806 93.4503H47.1458V94.3555H66.5806V93.4503Z" fill="white" stroke="#283D93" stroke-width="1.09543" stroke-linecap="round" stroke-linejoin="round"/>
<path d="M74.4443 50.315C75.0703 49.688 75.5326 48.9168 75.7906 48.0692C76.0486 47.2216 76.0944 46.3235 75.924 45.4541L72.5337 48.8444C72.341 49.036 72.0803 49.1436 71.8086 49.1436C71.5369 49.1436 71.2762 49.036 71.0836 48.8444L68.2655 46.0264C68.17 45.9311 68.0943 45.8179 68.0426 45.6933C67.9909 45.5687 67.9643 45.4351 67.9643 45.3002C67.9643 45.1653 67.9909 45.0317 68.0426 44.9071C68.0943 44.7825 68.17 44.6693 68.2655 44.574L71.6536 41.1859C70.704 41.0005 69.7222 41.0733 68.8104 41.3967C67.8985 41.7201 67.0902 42.2823 66.4697 43.0245C65.8493 43.7668 65.4394 44.662 65.2828 45.6167C65.1262 46.5715 65.2288 47.5507 65.5797 48.4523L56.8313 57L55.9877 56.1541L57.3557 54.7861C57.4256 54.7149 57.4648 54.6191 57.4648 54.5194C57.4648 54.4196 57.4256 54.3238 57.3557 54.2526L56.2887 53.1856C56.2181 53.1153 56.1226 53.0758 56.023 53.0758C55.9235 53.0758 55.8279 53.1153 55.7574 53.1856L55.2239 53.7191L54.0679 52.5654L54.5125 52.1208C54.6067 52.0264 54.6595 51.8985 54.6595 51.7651C54.6595 51.6318 54.6067 51.5039 54.5125 51.4094L44.9662 41.8631C44.7387 41.6353 44.4686 41.4546 44.1713 41.3313C43.874 41.208 43.5553 41.1446 43.2334 41.1446C42.9115 41.1446 42.5928 41.208 42.2954 41.3313C41.9981 41.4546 41.728 41.6353 41.5006 41.8631L40.5247 42.8389C40.297 43.0662 40.1164 43.3361 39.9931 43.6332C39.8699 43.9304 39.8064 44.2489 39.8064 44.5706C39.8064 44.8923 39.8699 45.2108 39.9931 45.5079C40.1164 45.8051 40.297 46.075 40.5247 46.3022L50.0711 55.8509C50.1655 55.945 50.2934 55.9978 50.4268 55.9978C50.5601 55.9978 50.688 55.945 50.7825 55.8509L51.2271 55.4063L52.3807 56.5622L51.8495 57.0935C51.8143 57.1284 51.7864 57.17 51.7674 57.2158C51.7484 57.2616 51.7386 57.3107 51.7386 57.3602C51.7386 57.4098 51.7484 57.4589 51.7674 57.5047C51.7864 57.5505 51.8143 57.592 51.8495 57.627L52.9143 58.694C52.9855 58.7639 53.0812 58.8031 53.181 58.8031C53.2808 58.8031 53.3766 58.7639 53.4478 58.694L54.8158 57.326L55.6457 58.156L48.3907 65.224C47.489 64.8733 46.5098 64.771 45.5551 64.9276C44.6004 65.0842 43.7051 65.4941 42.9627 66.1144C42.2203 66.7348 41.658 67.543 41.3342 68.4547C41.0105 69.3664 40.9372 70.3482 41.1221 71.2979L44.5125 67.9098C44.6078 67.8143 44.7209 67.7386 44.8456 67.6869C44.9702 67.6352 45.1037 67.6086 45.2386 67.6086C45.3735 67.6086 45.5071 67.6352 45.6317 67.6869C45.7563 67.7386 45.8695 67.8143 45.9648 67.9098L48.792 70.7096C48.8875 70.8049 48.9632 70.9181 49.0149 71.0427C49.0666 71.1673 49.0932 71.3009 49.0932 71.4358C49.0932 71.5707 49.0666 71.7043 49.0149 71.8289C48.9632 71.9535 48.8875 72.0667 48.792 72.162L45.4039 75.5501C46.3535 75.7352 47.3353 75.6623 48.2471 75.3388C49.1588 75.0154 49.9671 74.4533 50.5877 73.7111C51.2083 72.969 51.6185 72.074 51.7754 71.1194C51.9324 70.1647 51.8304 69.1855 51.4801 68.2837L58.7351 61.2157L68.628 71.0972C68.4859 71.4636 68.4533 71.8634 68.5342 72.248C68.6152 72.6325 68.8062 72.9853 69.084 73.2632L71.4712 75.6504L74.3349 72.7844L71.9477 70.3996C71.6697 70.1218 71.317 69.9308 70.9324 69.8498C70.5479 69.7688 70.1481 69.8014 69.7817 69.9436L59.9047 60.0666L68.6622 51.528C69.6398 51.9083 70.7069 51.9962 71.7335 51.7808C72.7601 51.5655 73.702 51.0562 74.4443 50.315Z" fill="#283D93" stroke="#283D93" stroke-width="1.09543" stroke-linecap="round" stroke-linejoin="round"/>
<path d="M50.8782 67.0685L68.0535 50.3128C68.9557 50.6642 69.9357 50.7669 70.8911 50.6101C71.8466 50.4532 72.7424 50.0427 73.4849 49.4213C74.2275 48.7999 74.7895 47.9905 75.1123 47.0777C75.435 46.1648 75.5067 45.182 75.3198 44.232L71.9317 47.6201C71.8364 47.7156 71.7232 47.7913 71.5986 47.843C71.474 47.8947 71.3405 47.9213 71.2055 47.9213C71.0706 47.9213 70.9371 47.8947 70.8125 47.843C70.6879 47.7913 70.5747 47.7156 70.4794 47.6201L67.6613 44.802C67.5659 44.7069 67.4902 44.5939 67.4385 44.4695C67.3869 44.3451 67.3603 44.2117 67.3603 44.077C67.3603 43.9422 67.3869 43.8089 67.4385 43.6844C67.4902 43.56 67.5659 43.447 67.6613 43.3519L71.0494 39.9616C70.0994 39.7764 69.1171 39.8497 68.2051 40.1738C67.2931 40.4979 66.4848 41.0609 65.8647 41.804C65.2446 42.5472 64.8354 43.4431 64.6797 44.3984C64.5241 45.3537 64.6278 46.3332 64.98 47.2348L47.8048 63.9905C46.9032 63.6396 45.9239 63.5371 44.9692 63.6936C44.0145 63.8502 43.1193 64.2601 42.377 64.8806C41.6347 65.5011 41.0726 66.3094 40.7492 67.2212C40.4257 68.133 40.353 69.1149 40.5384 70.0644L43.9265 66.6763C44.0218 66.5808 44.135 66.5051 44.2596 66.4534C44.3842 66.4017 44.5178 66.3751 44.6527 66.3751C44.7876 66.3751 44.9211 66.4017 45.0457 66.4534C45.1704 66.5051 45.2835 66.5808 45.3788 66.6763L48.1969 69.4944C48.2923 69.5895 48.368 69.7025 48.4197 69.8269C48.4713 69.9513 48.4979 70.0847 48.4979 70.2194C48.4979 70.3542 48.4713 70.4875 48.4197 70.612C48.368 70.7364 48.2923 70.8494 48.1969 70.9445L44.802 74.328C45.7515 74.5131 46.7334 74.4402 47.6451 74.1167C48.5569 73.7933 49.3652 73.2312 49.9858 72.4891C50.6064 71.7469 51.0165 70.8519 51.1735 69.8973C51.3305 68.9427 51.2285 67.9634 50.8782 67.0616V67.0685Z" fill="white" stroke="#283D93" stroke-miterlimit="10"/>
<path d="M49.5558 65.3106C49.4245 65.1789 49.3508 65.0006 49.3508 64.8147C49.3508 64.6287 49.4245 64.4504 49.5558 64.3188L64.9982 49.2959C65.1303 49.1644 65.309 49.0906 65.4953 49.0906C65.6816 49.0906 65.8603 49.1644 65.9923 49.2959C66.1238 49.4279 66.1975 49.6066 66.1975 49.7929C66.1975 49.9792 66.1238 50.1579 65.9923 50.2899L50.5499 65.3106C50.4178 65.442 50.2391 65.5158 50.0528 65.5158C49.8665 65.5158 49.6878 65.442 49.5558 65.3106Z" fill="white" stroke="#283D93" stroke-miterlimit="10"/>
<path d="M54.1357 53.6836L52.9814 54.8379L69.637 71.4936L70.7914 70.3393L54.1357 53.6836Z" fill="white" stroke="#283D93" stroke-miterlimit="10"/>
<path d="M73.7307 71.5692L70.867 74.4329L68.4798 72.048C68.0999 71.6679 67.8864 71.1525 67.8864 70.615C67.8864 70.0776 68.0999 69.5621 68.4798 69.182C68.6678 68.994 68.8911 68.8448 69.1367 68.743C69.3824 68.6412 69.6457 68.5888 69.9117 68.5888C70.1776 68.5888 70.4409 68.6412 70.6866 68.743C70.9323 68.8448 71.1555 68.994 71.3435 69.182L73.7307 71.5692Z" fill="white" stroke="#283D93" stroke-miterlimit="10"/>
<path d="M52.5821 50.4423L49.7397 53.2846L52.0484 55.5933L54.8907 52.751L52.5821 50.4423Z" fill="white" stroke="#283D93" stroke-miterlimit="10"/>
<path d="M39.9258 41.605L40.9028 40.628C41.1302 40.4006 41.4001 40.2202 41.6972 40.0972C41.9943 39.9741 42.3127 39.9108 42.6343 39.9108C42.9559 39.9108 43.2743 39.9741 43.5714 40.0972C43.8685 40.2202 44.1384 40.4006 44.3658 40.628L53.9133 50.1755C54.0073 50.2695 54.0602 50.3971 54.0602 50.5301C54.0602 50.6632 54.0073 50.7908 53.9133 50.8848L50.1826 54.6155C50.0885 54.7095 49.961 54.7624 49.8279 54.7624C49.6949 54.7624 49.5673 54.7095 49.4732 54.6155L39.9258 45.068C39.4666 44.6088 39.2086 43.9859 39.2086 43.3365C39.2086 42.687 39.4666 42.0642 39.9258 41.605Z" fill="white" stroke="#283D93" stroke-miterlimit="10"/>
<path d="M55.1565 51.9538L51.2485 55.8618C51.1016 56.0087 51.1016 56.2469 51.2485 56.3938L52.3158 57.4611C52.4627 57.608 52.7009 57.608 52.8478 57.4611L56.7558 53.5531C56.9027 53.4062 56.9027 53.168 56.7558 53.0211L55.6885 51.9538C55.5416 51.8069 55.3034 51.8069 55.1565 51.9538Z" fill="white" stroke="#283D93" stroke-miterlimit="10"/>
<path d="M50.7163 53.197L49.932 53.9836L40.5567 44.6082C40.4524 44.5039 40.3938 44.3624 40.3938 44.2149C40.3938 44.0674 40.4524 43.9259 40.5567 43.8216C40.6082 43.7697 40.6694 43.7285 40.7369 43.7004C40.8044 43.6723 40.8768 43.6578 40.95 43.6578C41.0231 43.6578 41.0955 43.6723 41.163 43.7004C41.2305 43.7285 41.2918 43.7697 41.3433 43.8216L50.7163 53.197Z" fill="white" stroke="#283D93" stroke-miterlimit="10"/>
<path d="M52.0547 51.8586L51.2658 52.6452L41.8905 43.2698C41.7862 43.1655 41.7276 43.024 41.7276 42.8765C41.7276 42.729 41.7862 42.5876 41.8905 42.4832C41.942 42.4313 42.0032 42.3901 42.0707 42.362C42.1382 42.3339 42.2106 42.3194 42.2838 42.3194C42.3569 42.3194 42.4293 42.3339 42.4968 42.362C42.5643 42.3901 42.6256 42.4313 42.6771 42.4832L52.0547 51.8586Z" fill="white" stroke="#283D93" stroke-miterlimit="10"/>
<path d="M53.3931 50.5203L52.6042 51.3L43.2288 41.9315C43.1245 41.8272 43.0659 41.6857 43.0659 41.5382C43.0659 41.3907 43.1245 41.2492 43.2288 41.1449C43.2803 41.093 43.3416 41.0518 43.4091 41.0237C43.4766 40.9956 43.549 40.9811 43.6221 40.9811C43.6952 40.9811 43.7676 40.9956 43.8351 41.0237C43.9026 41.0518 43.9639 41.093 44.0154 41.1449L53.3931 50.5203Z" fill="white" stroke="#283D93" stroke-miterlimit="10"/>
<path d="M84.7749 94.636H84.0157L79.1068 54.3575H79.8684L84.7749 94.636Z" fill="white" stroke="#283D93" stroke-miterlimit="10"/>
<path d="M90.7029 94.636H89.9437L85.0349 54.3575H85.7964L90.7029 94.636Z" fill="white" stroke="#283D93" stroke-miterlimit="10"/>
<path d="M85.8443 57.6954H79.9185L79.7658 56.4528H85.6938L85.8443 57.6954Z" fill="white" stroke="#283D93" stroke-miterlimit="10"/>
<path d="M86.4028 62.2828H80.4771L80.3267 61.0402H86.2524L86.4028 62.2828Z" fill="white" stroke="#283D93" stroke-miterlimit="10"/>
<path d="M86.9638 66.8701H81.0358L80.8853 65.6275H86.811L86.9638 66.8701Z" fill="white" stroke="#283D93" stroke-miterlimit="10"/>
<path d="M87.5223 71.4598H81.5966L81.4438 70.2172H87.3696L87.5223 71.4598Z" fill="white" stroke="#283D93" stroke-miterlimit="10"/>
<path d="M88.0809 76.0471H82.1552L82.0024 74.8045H87.9282L88.0809 76.0471Z" fill="white" stroke="#283D93" stroke-miterlimit="10"/>
<path d="M88.6395 80.6345H82.7138L82.5634 79.3919H88.4891L88.6395 80.6345Z" fill="white" stroke="#283D93" stroke-miterlimit="10"/>
<path d="M89.1981 85.2241H83.2724L83.1219 83.9815H89.0476L89.1981 85.2241Z" fill="white" stroke="#283D93" stroke-miterlimit="10"/>
<path d="M89.7591 89.8115H83.831L83.6805 88.5689H89.6063L89.7591 89.8115Z" fill="white" stroke="#283D93" stroke-miterlimit="10"/>
<path d="M79.8274 56.9407H80.6025" stroke="#283D93" stroke-width="0.5" stroke-miterlimit="10"/>
<path d="M80.0098 57.3055H81.5145" stroke="#283D93" stroke-width="0.5" stroke-miterlimit="10"/>
<path d="M85.7531 57.3055H84.6587" stroke="#283D93" stroke-width="0.5" stroke-miterlimit="10"/>
<path d="M86.3003 61.7264H85.2971" stroke="#283D93" stroke-width="0.5" stroke-miterlimit="10"/>
<path d="M80.5569 61.9544H82.8826" stroke="#283D93" stroke-width="0.5" stroke-miterlimit="10"/>
<path d="M80.9673 66.2386H82.9737" stroke="#283D93" stroke-width="0.5" stroke-miterlimit="10"/>
<path d="M81.0585 66.6034H82.1529" stroke="#283D93" stroke-width="0.5" stroke-miterlimit="10"/>
<path d="M87.4836 70.7507H86.2546" stroke="#283D93" stroke-width="0.5" stroke-miterlimit="10"/>
<path d="M87.3946 71.1155H85.3427" stroke="#283D93" stroke-width="0.5" stroke-miterlimit="10"/>
<path d="M89.1799 84.7567H87.2989" stroke="#283D93" stroke-width="0.5" stroke-miterlimit="10"/>
<path d="M83.1949 84.4147H84.3349" stroke="#283D93" stroke-width="0.5" stroke-miterlimit="10"/>
<path d="M87.0139 84.7567H85.5319" stroke="#283D93" stroke-width="0.5" stroke-miterlimit="10"/>
<path d="M83.7649 89.1457H85.3609" stroke="#283D93" stroke-width="0.5" stroke-miterlimit="10"/>
<path d="M84.1069 89.5447H85.9309" stroke="#283D93" stroke-width="0.5" stroke-miterlimit="10"/>
<path d="M82.2829 75.6367H82.7959" stroke="#283D93" stroke-width="0.5" stroke-miterlimit="10"/>
<path d="M66.3548 94.636H64.5514L66.9568 80.5433H68.7625L66.3548 94.636Z" fill="#283D93" stroke="#283D93" stroke-width="0.972732" stroke-miterlimit="10"/>
<path d="M69.9641 94.636H71.7698L69.3622 80.5433H67.5587L69.9641 94.636Z" fill="white" stroke="#283D93" stroke-width="0.972732" stroke-miterlimit="10"/>
<path d="M91.9638 94.636H90.1603L92.5657 80.5433H94.3692L91.9638 94.636Z" fill="#283D93" stroke="#283D93" stroke-width="0.972732" stroke-miterlimit="10"/>
<path d="M95.573 94.636H97.3788L94.9711 80.5433H93.1676L95.573 94.636Z" fill="white" stroke="#283D93" stroke-width="0.972732" stroke-miterlimit="10"/>
<path d="M96.8361 76.4689H62.415V81.2501H96.8361V76.4689Z" fill="#FFB8AE" stroke="#283D93" stroke-width="0.972732" stroke-miterlimit="10"/>
<path d="M97.6752 76.4689H63.254V81.2501H97.6752V76.4689Z" fill="#FFB8AE" stroke="#283D93" stroke-width="0.972732" stroke-miterlimit="10"/>
<path d="M63.8172 81.2501H66.7379L68.2472 76.4689H65.3265L63.8172 81.2501Z" fill="#283D93"/>
<path d="M75.3813 76.4689H72.4584L70.949 81.2501H73.872L75.3813 76.4689Z" fill="#283D93"/>
<path d="M96.7791 76.4689H93.8562L92.3468 81.2501H95.2698L96.7791 76.4689Z" fill="#283D93"/>
<path d="M89.645 76.4689H86.7243L85.215 81.2501H88.1356L89.645 76.4689Z" fill="#283D93"/>
<path d="M82.5132 76.4689H79.5902L78.0808 81.2501H81.0038L82.5132 76.4689Z" fill="#283D93"/>
<path d="M97.486 78.5916H91.7905" stroke="#283D93" stroke-miterlimit="10"/>
<path d="M97.3856 79.3896H96.4873" stroke="#283D93" stroke-miterlimit="10"/>
<path d="M63.1081 79.1912H68.8036" stroke="#283D93" stroke-miterlimit="10"/>
<path d="M63.2062 78.2906H70.4018" stroke="#283D93" stroke-miterlimit="10"/>
</svg>
