<svg width="117" height="85" viewBox="0 0 117 85" fill="none" xmlns="http://www.w3.org/2000/svg">
<g style="mix-blend-mode:multiply" opacity="0.39">
<path d="M58.319 84.9439C90.5276 84.9439 116.638 83.8372 116.638 82.472C116.638 81.1067 90.5276 80 58.319 80C26.1103 80 0 81.1067 0 82.472C0 83.8372 26.1103 84.9439 58.319 84.9439Z" fill="#344AAF"/>
</g>
<g clip-path="url(#clip0_1423_13429)">
<path d="M75.5695 8.79826H54.5777C52.551 8.79826 50.8928 7.56945 50.8928 6.08259C50.8928 4.59574 52.6001 3.36693 54.5777 3.36693H74.2306C75.3257 3.42633 76.4108 3.13081 77.3247 2.52426C78.2386 1.91771 78.9325 1.03247 79.3036 0L77.7067 0C77.3481 0.600305 76.8327 1.09143 76.2158 1.42053C75.599 1.74964 74.9042 1.90427 74.2061 1.86779H54.5531C51.6666 1.86779 49.3205 3.76015 49.3205 6.08259C49.3205 8.40504 51.6666 10.2974 54.5531 10.2974H75.5695C77.7682 10.2974 79.2544 11.3788 79.2544 12.3618C79.2544 13.3448 77.7313 14.4385 75.5695 14.4385H37.5902C34.7036 14.4385 32.3698 16.1097 32.3698 18.1249C32.3698 20.1401 34.7036 21.8113 37.5902 21.8113H51.9368C52.9141 21.8113 53.8514 22.1997 54.5425 22.891C55.2335 23.5824 55.6217 24.52 55.6217 25.4977V35.5862C55.6081 35.6919 55.6172 35.7992 55.6483 35.9011C55.6794 36.003 55.7319 36.097 55.8022 36.177C55.8725 36.257 55.9591 36.3211 56.0561 36.365C56.1531 36.4089 56.2584 36.4316 56.3649 36.4316C56.4713 36.4316 56.5766 36.4089 56.6736 36.365C56.7706 36.3211 56.8572 36.257 56.9275 36.177C56.9978 36.097 57.0503 36.003 57.0814 35.9011C57.1125 35.7992 57.1216 35.6919 57.108 35.5862V25.6452C57.108 24.2601 56.558 22.9318 55.579 21.9524C54.6 20.973 53.2722 20.4228 51.8877 20.4228H37.5902C35.5634 20.4228 33.9052 19.3906 33.9052 18.1741C33.9052 16.9575 35.5634 15.9745 37.5902 15.9745H75.5695C78.4929 15.9745 80.7898 14.4139 80.7898 12.4109C80.7898 10.408 78.4929 8.79826 75.5695 8.79826Z" fill="#FF946B"/>
<path d="M85.9856 31.949C86.5048 31.9357 87.0081 32.1286 87.3856 32.4855C87.763 32.8424 87.9839 33.3343 88 33.8536V77.0953C87.9839 77.6147 87.763 78.1065 87.3856 78.4634C87.0081 78.8203 86.5048 79.0132 85.9856 79H27.0267C26.5063 79.0133 26.0016 78.8208 25.6222 78.4642C25.2428 78.1076 25.0192 77.6158 25 77.0953V33.9028C25.0032 33.6409 25.0583 33.3822 25.1622 33.1417C25.2661 32.9013 25.4167 32.6839 25.6052 32.5022C25.7937 32.3204 26.0165 32.1779 26.2605 32.0829C26.5045 31.988 26.765 31.9424 27.0267 31.949H85.9856Z" fill="#004F87"/>
<path d="M85.9856 31.949H56.5061V79H85.9856C86.5048 79.0132 87.0081 78.8203 87.3856 78.4634C87.763 78.1065 87.9839 77.6147 88 77.0953V33.9028C87.9984 33.6414 87.9448 33.383 87.8423 33.1427C87.7397 32.9023 87.5903 32.6848 87.4027 32.5029C87.2152 32.3209 86.9932 32.1783 86.7499 32.0832C86.5066 31.9881 86.2467 31.9424 85.9856 31.949Z" fill="#003961"/>
<path d="M80.8267 35.1316H31.3135V75.8788H80.8267V35.1316Z" fill="#283D93"/>
<path d="M31.3135 68.4077V35.1316H71.7617L31.3135 68.4077Z" fill="#7EABFF"/>
<path d="M85.4083 37.6629C85.6493 37.6629 85.8805 37.7587 86.051 37.9293C86.2214 38.0998 86.3172 38.3311 86.3172 38.5723V40.5506C86.314 40.7897 86.2168 41.0178 86.0467 41.1857C85.8766 41.3536 85.6472 41.4477 85.4083 41.4477H83.3815C83.1426 41.4477 82.9132 41.3536 82.7431 41.1857C82.573 41.0178 82.4758 40.7897 82.4726 40.5506V38.5723C82.4726 38.3311 82.5684 38.0998 82.7388 37.9293C82.9093 37.7587 83.1405 37.6629 83.3815 37.6629H85.4083Z" fill="#283D93"/>
<path d="M85.4083 43.4875C85.6472 43.4875 85.8766 43.5816 86.0467 43.7494C86.2168 43.9173 86.314 44.1455 86.3172 44.3845V46.4243C86.314 46.6633 86.2168 46.8915 86.0467 47.0594C85.8766 47.2273 85.6472 47.3214 85.4083 47.3213H83.3815C83.1426 47.3214 82.9132 47.2273 82.7431 47.0594C82.573 46.8915 82.4758 46.6633 82.4726 46.4243V44.3845C82.4758 44.1455 82.573 43.9173 82.7431 43.7494C82.9132 43.5816 83.1426 43.4875 83.3815 43.4875H85.4083Z" fill="#283D93"/>
<path d="M85.4083 49.2997C85.6493 49.2997 85.8805 49.3955 86.051 49.5661C86.2214 49.7366 86.3172 49.9679 86.3172 50.2091V52.2366C86.3172 52.4778 86.2214 52.709 86.051 52.8796C85.8805 53.0501 85.6493 53.1459 85.4083 53.1459H83.3815C83.1405 53.1459 82.9093 53.0501 82.7388 52.8796C82.5684 52.709 82.4726 52.4778 82.4726 52.2366V50.2091C82.4726 49.9679 82.5684 49.7366 82.7388 49.5661C82.9093 49.3955 83.1405 49.2997 83.3815 49.2997H85.4083Z" fill="#283D93"/>
<path d="M29.1148 65.053H27.3706C26.9433 65.053 26.5968 65.3996 26.5968 65.8272V67.5721C26.5968 67.9996 26.9433 68.3462 27.3706 68.3462H29.1148C29.5422 68.3462 29.8887 67.9996 29.8887 67.5721V65.8272C29.8887 65.3996 29.5422 65.053 29.1148 65.053Z" fill="#7EABFF"/>
<path d="M29.1148 70.128H27.3706C26.9433 70.128 26.5968 70.4746 26.5968 70.9022V72.6471C26.5968 73.0746 26.9433 73.4212 27.3706 73.4212H29.1148C29.5422 73.4212 29.8887 73.0746 29.8887 72.6471V70.9022C29.8887 70.4746 29.5422 70.128 29.1148 70.128Z" fill="#7EABFF"/>
<path d="M80.1142 20.0541C80.1142 20.0541 78.7754 19.0219 76.5276 20.4719C74.7834 21.6147 67.8434 31.5312 69.5753 34.7875C69.5753 34.7875 70.3001 34.7875 70.8037 32.4159C71.17 30.1804 72.0074 28.0483 73.2603 26.1613C74.8448 23.6177 77.2154 20.9266 78.37 21.627L80.1142 20.0541Z" fill="#F52314"/>
<path d="M77.2646 38.3756C73.641 46.7684 68.4207 54.4239 66.4063 53.5637C64.3919 52.7035 66.4063 43.6349 70.0052 35.2422C73.6042 26.8494 79.2913 18.1618 81.2934 19.0219C83.2956 19.8821 80.8758 29.9829 77.2646 38.3756Z" fill="#FFDB88"/>
<path d="M69.2191 46.9527C68.2864 46.5412 67.2784 46.3278 66.2589 46.326C65.3745 50.209 65.2886 53.0967 66.3695 53.5637C67.4504 54.0306 69.5017 51.9785 71.7126 48.6485C71.0072 47.9173 70.1582 47.34 69.2191 46.9527Z" fill="#004F87"/>
<path d="M77.154 39.5676C76.8224 40.3295 76.4293 40.8947 75.5818 40.5261L69.5999 37.9456C68.7401 37.5769 68.8752 36.9011 69.2069 36.1392C69.5385 35.3774 69.9316 34.8121 70.7791 35.1808L76.7733 37.7612C77.6208 38.1299 77.4857 38.8057 77.154 39.5676Z" fill="url(#paint0_linear_1423_13429)"/>
<path d="M81.318 19.0342L66.394 53.5514C68.4085 54.4116 73.6288 46.7561 77.2523 38.3634C80.8758 29.9706 83.2956 19.9435 81.318 19.0342Z" fill="#FFB239"/>
<path d="M66.763 53.6252H66.9104H67.0087H67.1561H67.2543H67.414H67.5246L67.7088 53.5146H67.8071L68.0159 53.3671H68.0896L68.3598 53.1582C69.6702 51.9249 70.8177 50.5291 71.7745 49.0049C71.0822 48.2691 70.246 47.6835 69.3179 47.2845L66.3945 53.5515H66.6033L66.763 53.6252Z" fill="#003961"/>
<path d="M77.154 39.5676C76.8224 40.3295 76.4293 40.8947 75.5818 40.5261L69.5999 37.9456C68.7401 37.5769 68.8752 36.9011 69.2069 36.1392C69.5385 35.3774 69.9316 34.8121 70.7791 35.1808L76.7733 37.7612C77.6208 38.1299 77.4857 38.8057 77.154 39.5676Z" fill="#F52314"/>
<path d="M66.7625 52.7158C66.4327 52.5734 66.0777 52.4982 65.7185 52.4946C65.3991 53.8709 65.3745 54.9522 65.7185 55.0505C66.0624 55.1488 66.8239 54.4976 67.61 53.3302C67.3701 53.0724 67.0822 52.8637 66.7625 52.7158Z" fill="#F52314"/>
<path d="M76.7733 37.7612L73.7639 36.471L72.5356 39.2235L75.5818 40.5506C76.4293 40.9193 76.8101 40.354 77.154 39.5922C77.4979 38.8303 77.6208 38.093 76.7733 37.7612Z" fill="#FF946B"/>
<path d="M43.7932 73.2C44.2353 70.8899 44.4319 68.5674 44.7635 66.2327C44.8951 65.0139 45.1799 63.8166 45.6111 62.6692C45.7476 62.2854 46.0066 61.9572 46.348 61.7353C46.486 61.6483 46.6431 61.5961 46.8057 61.5833C46.9683 61.5704 47.1316 61.5973 47.2816 61.6615C47.4289 61.741 47.5585 61.8497 47.6623 61.981C47.7276 62.0702 47.7851 62.1647 47.8343 62.2636C48.0718 62.8653 48.2408 63.4919 48.3379 64.1314C48.5263 65.2625 48.7764 66.3824 49.0872 67.4861C49.1573 67.7167 49.252 67.9392 49.3697 68.1496C49.4557 68.3462 49.5908 68.3585 49.3697 68.2971C49.3697 68.2971 49.4311 68.2971 49.3697 68.2971C49.3083 68.2971 49.3697 68.2971 49.3697 68.2971C49.4362 68.2598 49.4946 68.2097 49.5416 68.1496C49.6968 67.9765 49.8328 67.7869 49.947 67.5844C50.4668 66.5995 50.8786 65.5613 51.1753 64.4878C51.5069 63.3941 51.7894 62.2759 52.0597 61.1577C52.5756 58.8967 53.0055 56.6111 53.4231 54.3133C53.5864 53.1139 53.8326 51.9273 54.1601 50.762C54.3504 50.0167 54.7824 49.3555 55.3884 48.8819C55.6144 48.7276 55.8749 48.6312 56.1469 48.6012C56.4189 48.5713 56.6941 48.6086 56.9483 48.7099C57.3987 48.9054 57.7615 49.2596 57.9678 49.7052C58.4105 50.8845 58.6433 52.1321 58.6557 53.3917C58.7662 54.473 58.8891 55.7387 58.9751 56.8692C59.061 57.9997 59.1962 59.1916 59.3681 60.2853C59.4117 60.5444 59.4775 60.7993 59.5646 61.0471C59.6154 61.2136 59.6989 61.3682 59.8103 61.5018C59.8906 61.4759 59.9626 61.4293 60.0191 61.3666C60.203 61.191 60.3639 60.9928 60.4982 60.7768C60.7463 60.3845 60.964 59.9737 61.1492 59.548C61.3683 59.066 61.6315 58.6053 61.9353 58.1717C62.1085 57.936 62.3253 57.7358 62.574 57.5819C62.7232 57.5091 62.887 57.4713 63.053 57.4713C63.219 57.4713 63.3829 57.5091 63.5321 57.5819C63.7804 57.7508 63.9661 57.997 64.0603 58.2823C64.1585 58.5158 64.2691 58.6755 64.441 58.7247C64.6174 58.7874 64.8085 58.7964 64.9899 58.7505C65.1714 58.7045 65.3352 58.6058 65.4605 58.4666C65.7676 58.1963 66.0133 57.8522 66.2958 57.5573C66.0501 57.8891 65.8536 58.2577 65.5711 58.5772C65.4289 58.7516 65.248 58.8904 65.0429 58.9827C64.8174 59.0687 64.5682 59.0687 64.3428 58.9827C64.1987 58.9404 64.0652 58.8682 63.9509 58.7708C63.8366 58.6734 63.7442 58.553 63.6795 58.4175C63.5567 58.1963 63.4338 57.9874 63.2987 57.9382C62.9671 57.8277 62.6109 58.098 62.3898 58.5035C62.1493 58.9207 61.9517 59.3612 61.8002 59.8183C61.6361 60.3316 61.4265 60.8292 61.1737 61.3052C61.0147 61.5978 60.8209 61.8701 60.5964 62.1162C60.4571 62.2655 60.2903 62.3865 60.1051 62.4725C59.9742 62.5331 59.8317 62.5645 59.6875 62.5645C59.5433 62.5645 59.4008 62.5331 59.2699 62.4725C58.9078 62.2647 58.633 61.9331 58.496 61.5387C58.3643 61.245 58.2575 60.9408 58.1767 60.6293C57.8941 59.4005 57.7345 58.27 57.5748 57.1027L57.0957 53.6006C57.1126 52.5084 56.9508 51.4209 56.6167 50.3811C56.5307 50.1968 56.3956 50.1107 56.4325 50.1476C56.4693 50.1845 56.371 50.1476 56.3219 50.1476C56.0533 50.4506 55.8597 50.8126 55.7569 51.2044C55.4725 52.2953 55.2592 53.4036 55.1182 54.5222C54.7374 56.8446 54.2829 59.1548 53.7179 61.4526C53.2381 63.8318 52.4364 66.1345 51.335 68.2971C51.1493 68.5987 50.9309 68.8789 50.684 69.1327C50.535 69.2914 50.3606 69.4243 50.1681 69.5259C50.0463 69.5995 49.9136 69.6534 49.775 69.6856H49.6031H49.3451C49.1829 69.6802 49.0235 69.6426 48.8759 69.5751C48.7283 69.5076 48.5955 69.4115 48.4853 69.2924C48.3291 69.1347 48.2004 68.952 48.1045 68.7517C47.9434 68.4483 47.8197 68.1265 47.736 67.7933C47.4167 66.5645 47.3061 65.4094 47.1219 64.2666C47.0597 63.7362 46.9444 63.2134 46.7779 62.706V62.6077C46.9131 62.6077 46.8762 62.6077 46.8885 62.6077C46.9008 62.6077 46.6551 62.8166 46.5446 63.0378C46.088 64.1044 45.7462 65.2166 45.5251 66.3556C44.9478 68.6412 44.5793 70.9759 43.7932 73.2Z" fill="#FF946B"/>
</g>
<defs>
<linearGradient id="paint0_linear_1423_13429" x1="69.8564" y1="36.413" x2="77.8242" y2="39.8759" gradientUnits="userSpaceOnUse">
<stop stop-color="#BDBDBD"/>
<stop offset="0.12" stop-color="#ABABAB"/>
<stop offset="0.32" stop-color="#919191"/>
<stop offset="0.53" stop-color="#7F7F7F"/>
<stop offset="0.76" stop-color="#747474"/>
<stop offset="1" stop-color="#707070"/>
</linearGradient>
<clipPath id="clip0_1423_13429">
<rect width="63" height="79" fill="white" transform="translate(25)"/>
</clipPath>
</defs>
</svg>
