<svg width="73" height="99" viewBox="0 0 73 99" fill="none" xmlns="http://www.w3.org/2000/svg">
<rect x="2.5" y="28.5" width="68" height="68" rx="12.5" fill="#F47458" stroke="black" stroke-width="5"/>
<rect x="68" y="67" width="5" height="18" fill="#F47458"/>
<circle cx="70.5" cy="75.5" r="2.5" fill="black"/>
<path d="M41.927 88.67C39.947 88.67 37.8937 88.4317 35.767 87.955C33.6403 87.515 31.6603 86.7267 29.827 85.59C27.9937 84.49 26.4903 82.9867 25.317 81.08C24.1803 79.21 23.612 76.845 23.612 73.985C23.612 71.345 24.1437 68.87 25.207 66.56C26.2703 64.25 27.7737 62.16 29.717 60.29C31.697 58.42 34.0253 56.8433 36.702 55.56C39.3787 54.2767 42.3303 53.36 45.557 52.81L46.712 57.1C44.0353 57.5767 41.5603 58.2917 39.287 59.245C37.0137 60.1983 35.0337 61.3717 33.347 62.765C31.697 64.1217 30.4137 65.68 29.497 67.44C28.5803 69.2367 28.122 71.1983 28.122 73.325C28.122 75.0483 28.4153 76.5333 29.002 77.78C29.5887 79.0267 30.3587 80.0533 31.312 80.86C32.302 81.7033 33.402 82.3633 34.612 82.84C35.822 83.3167 37.0503 83.6467 38.297 83.83C39.5803 84.05 40.7903 84.16 41.927 84.16C43.8703 84.16 45.8503 83.9767 47.867 83.61C49.8837 83.28 51.717 82.7667 53.367 82.07L54.797 85.92C53.917 86.36 52.7437 86.7817 51.277 87.185C49.847 87.625 48.307 87.9733 46.657 88.23C45.007 88.5233 43.4303 88.67 41.927 88.67ZM32.852 59.52C31.3853 59.1533 30.0653 58.4933 28.892 57.54C27.7187 56.5867 26.7837 55.45 26.087 54.13C25.427 52.81 25.097 51.4167 25.097 49.95C25.097 47.64 25.6287 45.715 26.692 44.175C27.792 42.635 29.1853 41.48 30.872 40.71C32.5953 39.94 34.4103 39.555 36.317 39.555C37.1603 39.555 38.0587 39.6283 39.012 39.775C39.9653 39.9217 40.882 40.1417 41.762 40.435L40.827 44.67C40.0937 44.4867 39.3237 44.34 38.517 44.23C37.7103 44.12 36.977 44.065 36.317 44.065C34.997 44.065 33.8237 44.3033 32.797 44.78C31.7703 45.2567 30.9637 45.9167 30.377 46.76C29.7903 47.5667 29.497 48.52 29.497 49.62C29.497 50.61 29.772 51.5083 30.322 52.315C30.9087 53.085 31.642 53.7633 32.522 54.35C33.402 54.9 34.3003 55.3217 35.217 55.615C36.1337 55.8717 36.9403 55.9817 37.637 55.945L32.852 59.52Z" fill="black"/>
</svg>
