<svg width="90" height="90" viewBox="0 0 90 90" fill="none" xmlns="http://www.w3.org/2000/svg">
<path d="M82.5 45L67.5 30V41.25H37.5V48.75H67.5V60L82.5 45ZM75 67.5C70.2776 73.7965 63.6939 78.4475 56.1813 80.7943C48.6687 83.141 40.6082 83.0645 33.1415 80.5756C25.6748 78.0867 19.1804 73.3116 14.5784 66.9266C9.9764 60.5417 7.5 52.8706 7.5 45C7.5 37.1294 9.9764 29.4583 14.5784 23.0734C19.1804 16.6884 25.6748 11.9133 33.1415 9.42438C40.6082 6.93548 48.6687 6.85899 56.1813 9.20574C63.6939 11.5525 70.2776 16.2035 75 22.5H64.7625C60.4324 18.6812 55.0924 16.193 49.3833 15.334C43.6741 14.4749 37.8383 15.2815 32.5762 17.6569C27.3141 20.0323 22.8492 23.8756 19.7172 28.7257C16.5853 33.5758 14.9194 39.2266 14.9194 45C14.9194 50.7734 16.5853 56.4242 19.7172 61.2743C22.8492 66.1244 27.3141 69.9677 32.5762 72.3431C37.8383 74.7185 43.6741 75.5251 49.3833 74.666C55.0924 73.807 60.4324 71.3188 64.7625 67.5H75Z" fill="black"/>
</svg>
