<svg width="13" height="21" viewBox="0 0 13 21" fill="none" xmlns="http://www.w3.org/2000/svg">
<path d="M0.90803 9.47406L0.908002 9.47409C0.374148 10.0079 0.363895 10.8008 0.87885 11.3459L0.888275 11.3506L0.946272 11.4088L9.53377 20.0338C10.0772 20.5452 10.8906 20.5465 11.4354 20.0376C11.9486 19.4923 11.9457 18.6769 11.4315 18.1386L4.0414 10.7807L3.6864 10.4272L4.04053 10.0729L11.3651 2.74431L11.3652 2.74421C11.8712 2.23815 11.872 1.38862 11.3657 0.880393C10.8529 0.372424 10.0078 0.374089 9.50067 0.880071C9.50062 0.880124 9.50057 0.880177 9.50052 0.880229L0.90803 9.47406Z" fill="#283D93" stroke="black"/>
</svg>
