<svg width="73" height="84" viewBox="0 0 73 84" fill="none" xmlns="http://www.w3.org/2000/svg">
<rect x="2.5" y="13.5" width="68" height="68" rx="12.5" fill="#C7DBFE" stroke="black" stroke-width="5"/>
<rect x="68" y="52" width="5" height="18" fill="#C7DBFE"/>
<circle cx="70.5" cy="60.5" r="2.5" fill="black"/>
<path d="M30.0247 67H25.0747V27.73H47.0197V32.075H30.0247V45.99H45.9747V50.335H30.0247V67Z" fill="black"/>
<path d="M30.0247 67V68H31.0247V67H30.0247ZM25.0747 67H24.0747V68H25.0747V67ZM25.0747 27.73V26.73H24.0747V27.73H25.0747ZM47.0197 27.73H48.0197V26.73H47.0197V27.73ZM47.0197 32.075V33.075H48.0197V32.075H47.0197ZM30.0247 32.075V31.075H29.0247V32.075H30.0247ZM30.0247 45.99H29.0247V46.99H30.0247V45.99ZM45.9747 45.99H46.9747V44.99H45.9747V45.99ZM45.9747 50.335V51.335H46.9747V50.335H45.9747ZM30.0247 50.335V49.335H29.0247V50.335H30.0247ZM30.0247 66H25.0747V68H30.0247V66ZM26.0747 67V27.73H24.0747V67H26.0747ZM25.0747 28.73H47.0197V26.73H25.0747V28.73ZM46.0197 27.73V32.075H48.0197V27.73H46.0197ZM47.0197 31.075H30.0247V33.075H47.0197V31.075ZM29.0247 32.075V45.99H31.0247V32.075H29.0247ZM30.0247 46.99H45.9747V44.99H30.0247V46.99ZM44.9747 45.99V50.335H46.9747V45.99H44.9747ZM45.9747 49.335H30.0247V51.335H45.9747V49.335ZM29.0247 50.335V67H31.0247V50.335H29.0247Z" fill="#C7DBFE"/>
</svg>
