<svg width="87" height="49" viewBox="0 0 87 49" fill="none" xmlns="http://www.w3.org/2000/svg">
<rect y="1" width="87" height="48" rx="8" fill="black"/>
<rect x="43" y="9" width="34" height="32" fill="#FFC5C1"/>
<path d="M16.148 37.34C15.468 37.34 14.924 37.1587 14.516 36.796C14.108 36.4333 13.904 35.9347 13.904 35.3V18.232C13.904 16.6453 14.3573 15.41 15.264 14.526C16.1933 13.642 17.474 13.2 19.106 13.2H29.68C30.36 13.2 30.8813 13.3587 31.244 13.676C31.6067 13.9707 31.788 14.4013 31.788 14.968C31.788 15.512 31.5953 15.9427 31.21 16.26C30.8473 16.5547 30.3373 16.702 29.68 16.702H19.888C19.4347 16.702 19.072 16.8493 18.8 17.144C18.5507 17.4387 18.426 17.8467 18.426 18.368V23.434H27.096C27.776 23.434 28.2973 23.5927 28.66 23.91C29.0227 24.2047 29.204 24.6353 29.204 25.202C29.204 25.746 29.0113 26.1767 28.626 26.494C28.2633 26.7887 27.7533 26.936 27.096 26.936H18.426V35.3C18.426 35.912 18.2107 36.4107 17.78 36.796C17.372 37.1587 16.828 37.34 16.148 37.34Z" fill="#FFC5C1"/>
<path d="M63.044 38.638C61.838 38.638 60.659 38.494 59.507 38.206C58.373 37.918 57.347 37.459 56.429 36.829C55.511 36.217 54.782 35.425 54.242 34.453C53.702 33.481 53.432 32.311 53.432 30.943C53.432 29.467 53.729 28.117 54.323 26.893C54.917 25.651 55.754 24.553 56.834 23.599C57.914 22.645 59.192 21.853 60.668 21.223C62.162 20.575 63.791 20.116 65.555 19.846L66.446 23.41C64.862 23.698 63.485 24.076 62.315 24.544C61.163 25.012 60.209 25.561 59.453 26.191C58.697 26.821 58.13 27.496 57.752 28.216C57.392 28.954 57.212 29.728 57.212 30.538C57.212 31.186 57.329 31.753 57.563 32.239C57.815 32.725 58.148 33.13 58.562 33.454C58.976 33.796 59.435 34.066 59.939 34.264C60.443 34.48 60.965 34.633 61.505 34.723C62.045 34.813 62.558 34.858 63.044 34.858C64.286 34.858 65.438 34.741 66.5 34.507C67.58 34.273 68.525 33.985 69.335 33.643L70.415 37.126C69.983 37.342 69.371 37.567 68.579 37.801C67.805 38.035 66.932 38.233 65.96 38.395C65.006 38.557 64.034 38.638 63.044 38.638ZM57.671 23.68C57.041 23.428 56.456 23.068 55.916 22.6C55.394 22.132 54.971 21.556 54.647 20.872C54.341 20.17 54.188 19.369 54.188 18.469C54.188 17.335 54.485 16.354 55.079 15.526C55.673 14.698 56.465 14.059 57.455 13.609C58.445 13.159 59.525 12.934 60.695 12.934C61.271 12.934 61.802 12.97 62.288 13.042C62.792 13.114 63.305 13.222 63.827 13.366L63.233 16.957C62.855 16.867 62.468 16.795 62.072 16.741C61.676 16.687 61.325 16.66 61.019 16.66C60.389 16.66 59.84 16.75 59.372 16.93C58.922 17.11 58.571 17.371 58.319 17.713C58.085 18.037 57.968 18.424 57.968 18.874C57.968 19.234 58.076 19.576 58.292 19.9C58.526 20.224 58.823 20.512 59.183 20.764C59.543 20.998 59.939 21.196 60.371 21.358C60.803 21.502 61.226 21.583 61.64 21.601L57.671 23.68Z" fill="black"/>
</svg>
