<svg width="65" height="65" viewBox="0 0 65 65" fill="none" xmlns="http://www.w3.org/2000/svg">
<path d="M20.9083 44.5683L25.6777 43.1925L54.3942 14.1321C54.6207 13.9 54.7468 13.5881 54.7453 13.2638C54.7437 12.9394 54.6147 12.6287 54.386 12.3988L52.6662 10.66C52.5551 10.5458 52.4223 10.4549 52.2757 10.3926C52.129 10.3302 51.9714 10.2978 51.8121 10.297C51.6528 10.2962 51.4949 10.3272 51.3476 10.3882C51.2004 10.4491 51.0668 10.5387 50.9546 10.6519L22.3139 39.6365L20.9056 44.5656L20.9083 44.5683ZM56.0706 7.215L57.7904 8.95646C60.1629 11.3588 60.1846 15.2344 57.8337 17.6123L28.2425 47.561L18.0483 50.4969C17.4259 50.6711 16.7599 50.5913 16.1963 50.2749C15.6327 49.9586 15.2176 49.4316 15.0421 48.8096C14.9115 48.3624 14.9096 47.8874 15.0367 47.4392L18.0023 37.0392L47.515 7.16896C48.0762 6.60389 48.7443 6.15621 49.4803 5.85204C50.2163 5.54787 51.0055 5.39329 51.8019 5.39732C52.5983 5.40136 53.3859 5.56392 54.1188 5.87553C54.8517 6.18714 55.5152 6.64156 56.0706 7.21229V7.215ZM24.8733 10.3377C26.2167 10.3377 27.3054 11.44 27.3054 12.7996C27.3075 13.121 27.2463 13.4396 27.1252 13.7374C27.0041 14.0351 26.8255 14.306 26.5996 14.5346C26.3738 14.7633 26.105 14.9452 25.8088 15.0699C25.5126 15.1946 25.1947 15.2597 24.8733 15.2615H15.145C12.4583 15.2615 10.2808 17.466 10.2808 20.1825V49.7196C10.2808 52.4388 12.4583 54.6433 15.145 54.6433H44.33C47.0167 54.6433 49.1969 52.4388 49.1969 49.7196V39.8748C49.1969 38.5152 50.2856 37.4129 51.6289 37.4129C52.9723 37.4129 54.061 38.5152 54.061 39.8775V49.7196C54.061 55.1579 49.7033 59.5671 44.33 59.5671H15.145C9.77166 59.5671 5.41666 55.1579 5.41666 49.7196V20.1825C5.41666 14.7469 9.77166 10.3377 15.145 10.3377H24.8733Z" fill="black"/>
</svg>
