<svg width="1000" height="500" viewBox="0 0 1000 500" fill="none" xmlns="http://www.w3.org/2000/svg">
<line x1="707.834" y1="250" x2="707.834" stroke="black" stroke-opacity="0.05"/>
<line x1="728.668" y1="250" x2="728.668" stroke="black" stroke-opacity="0.05"/>
<line x1="687.001" y1="250" x2="687.001" stroke="black" stroke-opacity="0.05"/>
<line x1="665.334" y1="250" x2="665.334" stroke="black" stroke-opacity="0.05"/>
<line x1="645.334" y1="250" x2="645.334" stroke="black" stroke-opacity="0.05"/>
<line x1="624.501" y1="250" x2="624.501" stroke="black" stroke-opacity="0.05"/>
<line x1="603.668" y1="250" x2="603.668" stroke="black" stroke-opacity="0.05"/>
<line x1="249.5" y1="250" x2="249.5" stroke="black" stroke-opacity="0.05"/>
<line x1="249.5" y1="500" x2="249.5" y2="250" stroke="black" stroke-opacity="0.05"/>
<line x1="499.5" y1="250" x2="499.5" stroke="black" stroke-opacity="0.05"/>
<line x1="499.5" y1="500" x2="499.5" y2="250" stroke="black" stroke-opacity="0.05"/>
<line x1="582.834" y1="250" x2="582.834" stroke="black" stroke-opacity="0.05"/>
<line x1="562.001" y1="250" x2="562.001" stroke="black" stroke-opacity="0.05"/>
<line x1="541.168" y1="250" x2="541.168" stroke="black" stroke-opacity="0.05"/>
<line x1="519.501" y1="250" x2="519.501" stroke="black" stroke-opacity="0.05"/>
<line x1="750" y1="41.3333" x2="500" y2="41.3333" stroke="black" stroke-opacity="0.05"/>
<line x1="750" y1="61.3333" x2="500" y2="61.3333" stroke="black" stroke-opacity="0.05"/>
<line x1="750" y1="82.1667" x2="500" y2="82.1667" stroke="black" stroke-opacity="0.05"/>
<line x1="750" y1="102.167" x2="500" y2="102.167" stroke="black" stroke-opacity="0.05"/>
<line x1="750" y1="123.833" x2="500" y2="123.833" stroke="black" stroke-opacity="0.05"/>
<line x1="750" y1="144.667" x2="500" y2="144.667" stroke="black" stroke-opacity="0.05"/>
<line x1="750" y1="165.5" x2="500" y2="165.5" stroke="black" stroke-opacity="0.05"/>
<line x1="750" y1="186.333" x2="500" y2="186.333" stroke="black" stroke-opacity="0.05"/>
<line x1="750" y1="207.167" x2="500" y2="207.167" stroke="black" stroke-opacity="0.05"/>
<line x1="750" y1="228" x2="500" y2="228" stroke="black" stroke-opacity="0.05"/>
<line x1="750" y1="20.5" x2="500" y2="20.5" stroke="black" stroke-opacity="0.05"/>
<line x1="707.834" y1="500" x2="707.834" y2="250" stroke="black" stroke-opacity="0.05"/>
<line x1="728.668" y1="500" x2="728.668" y2="250" stroke="black" stroke-opacity="0.05"/>
<line x1="687.001" y1="500" x2="687.001" y2="250" stroke="black" stroke-opacity="0.05"/>
<line x1="665.334" y1="500" x2="665.334" y2="250" stroke="black" stroke-opacity="0.05"/>
<line x1="645.334" y1="500" x2="645.334" y2="250" stroke="black" stroke-opacity="0.05"/>
<line x1="624.501" y1="500" x2="624.501" y2="250" stroke="black" stroke-opacity="0.05"/>
<line x1="603.668" y1="500" x2="603.668" y2="250" stroke="black" stroke-opacity="0.05"/>
<line x1="582.834" y1="500" x2="582.834" y2="250" stroke="black" stroke-opacity="0.05"/>
<line x1="562.001" y1="500" x2="562.001" y2="250" stroke="black" stroke-opacity="0.05"/>
<line x1="541.168" y1="500" x2="541.168" y2="250" stroke="black" stroke-opacity="0.05"/>
<line x1="519.501" y1="500" x2="519.501" y2="250" stroke="black" stroke-opacity="0.05"/>
<line x1="750" y1="291.333" x2="500" y2="291.333" stroke="black" stroke-opacity="0.05"/>
<line x1="750" y1="311.333" x2="500" y2="311.333" stroke="black" stroke-opacity="0.05"/>
<line x1="750" y1="332.167" x2="500" y2="332.167" stroke="black" stroke-opacity="0.05"/>
<line x1="750" y1="352.167" x2="500" y2="352.167" stroke="black" stroke-opacity="0.05"/>
<line x1="750" y1="373.833" x2="500" y2="373.833" stroke="black" stroke-opacity="0.05"/>
<line x1="750" y1="394.667" x2="500" y2="394.667" stroke="black" stroke-opacity="0.05"/>
<line x1="750" y1="415.5" x2="500" y2="415.5" stroke="black" stroke-opacity="0.05"/>
<line x1="750" y1="436.333" x2="500" y2="436.333" stroke="black" stroke-opacity="0.05"/>
<line x1="750" y1="457.167" x2="500" y2="457.167" stroke="black" stroke-opacity="0.05"/>
<line x1="750" y1="478" x2="500" y2="478" stroke="black" stroke-opacity="0.05"/>
<line x1="750" y1="270.5" x2="500" y2="270.5" stroke="black" stroke-opacity="0.05"/>
<line x1="957.834" y1="500" x2="957.834" y2="250" stroke="black" stroke-opacity="0.05"/>
<line x1="978.668" y1="500" x2="978.668" y2="250" stroke="black" stroke-opacity="0.05"/>
<line x1="937.001" y1="500" x2="937.001" y2="250" stroke="black" stroke-opacity="0.05"/>
<line x1="915.334" y1="500" x2="915.334" y2="250" stroke="black" stroke-opacity="0.05"/>
<line x1="895.334" y1="500" x2="895.334" y2="250" stroke="black" stroke-opacity="0.05"/>
<line x1="874.501" y1="500" x2="874.501" y2="250" stroke="black" stroke-opacity="0.05"/>
<line x1="853.668" y1="500" x2="853.668" y2="250" stroke="black" stroke-opacity="0.05"/>
<line x1="832.834" y1="500" x2="832.834" y2="250" stroke="black" stroke-opacity="0.05"/>
<line x1="748.5" y1="309" x2="748.5" y2="59" stroke="black" stroke-opacity="0.05"/>
<line x1="748.5" y1="487" x2="748.5" y2="309" stroke="black" stroke-opacity="0.05"/>
<line x1="812.001" y1="500" x2="812.001" y2="250" stroke="black" stroke-opacity="0.05"/>
<line x1="791.168" y1="500" x2="791.168" y2="250" stroke="black" stroke-opacity="0.05"/>
<line x1="769.501" y1="500" x2="769.501" y2="250" stroke="black" stroke-opacity="0.05"/>
<line x1="1000" y1="291.333" x2="750" y2="291.333" stroke="black" stroke-opacity="0.05"/>
<line x1="1000" y1="311.333" x2="750" y2="311.333" stroke="black" stroke-opacity="0.05"/>
<line x1="1000" y1="332.167" x2="750" y2="332.167" stroke="black" stroke-opacity="0.05"/>
<line x1="1000" y1="352.167" x2="750" y2="352.167" stroke="black" stroke-opacity="0.05"/>
<line x1="1000" y1="373.833" x2="750" y2="373.833" stroke="black" stroke-opacity="0.05"/>
<line x1="1000" y1="394.667" x2="750" y2="394.667" stroke="black" stroke-opacity="0.05"/>
<line x1="1000" y1="415.5" x2="750" y2="415.5" stroke="black" stroke-opacity="0.05"/>
<line x1="1000" y1="436.333" x2="750" y2="436.333" stroke="black" stroke-opacity="0.05"/>
<line x1="1000" y1="457.167" x2="750" y2="457.167" stroke="black" stroke-opacity="0.05"/>
<line x1="1000" y1="478" x2="750" y2="478" stroke="black" stroke-opacity="0.05"/>
<line x1="1000" y1="270.5" x2="750" y2="270.5" stroke="black" stroke-opacity="0.05"/>
<line x1="457.834" y1="500" x2="457.834" y2="250" stroke="black" stroke-opacity="0.05"/>
<line x1="478.668" y1="500" x2="478.668" y2="250" stroke="black" stroke-opacity="0.05"/>
<line x1="437.001" y1="500" x2="437.001" y2="250" stroke="black" stroke-opacity="0.05"/>
<line x1="415.334" y1="500" x2="415.334" y2="250" stroke="black" stroke-opacity="0.05"/>
<line x1="395.334" y1="500" x2="395.334" y2="250" stroke="black" stroke-opacity="0.05"/>
<line x1="374.501" y1="500" x2="374.501" y2="250" stroke="black" stroke-opacity="0.05"/>
<line x1="353.668" y1="500" x2="353.668" y2="250" stroke="black" stroke-opacity="0.05"/>
<line x1="332.834" y1="500" x2="332.834" y2="250" stroke="black" stroke-opacity="0.05"/>
<line x1="312.001" y1="500" x2="312.001" y2="250" stroke="black" stroke-opacity="0.05"/>
<line x1="291.168" y1="500" x2="291.168" y2="250" stroke="black" stroke-opacity="0.05"/>
<line x1="269.501" y1="500" x2="269.501" y2="250" stroke="black" stroke-opacity="0.05"/>
<line x1="500" y1="291.333" x2="250" y2="291.333" stroke="black" stroke-opacity="0.05"/>
<line x1="500" y1="311.333" x2="250" y2="311.333" stroke="black" stroke-opacity="0.05"/>
<line x1="500" y1="332.167" x2="250" y2="332.167" stroke="black" stroke-opacity="0.05"/>
<line x1="500" y1="352.167" x2="250" y2="352.167" stroke="black" stroke-opacity="0.05"/>
<line x1="500" y1="373.833" x2="250" y2="373.833" stroke="black" stroke-opacity="0.05"/>
<line x1="500" y1="394.667" x2="250" y2="394.667" stroke="black" stroke-opacity="0.05"/>
<line x1="500" y1="415.5" x2="250" y2="415.5" stroke="black" stroke-opacity="0.05"/>
<line x1="500" y1="436.333" x2="250" y2="436.333" stroke="black" stroke-opacity="0.05"/>
<line x1="500" y1="457.167" x2="250" y2="457.167" stroke="black" stroke-opacity="0.05"/>
<line x1="500" y1="478" x2="250" y2="478" stroke="black" stroke-opacity="0.05"/>
<line x1="500" y1="270.5" x2="250" y2="270.5" stroke="black" stroke-opacity="0.05"/>
<line x1="207.834" y1="500" x2="207.834" y2="250" stroke="black" stroke-opacity="0.05"/>
<line x1="228.668" y1="500" x2="228.668" y2="250" stroke="black" stroke-opacity="0.05"/>
<line x1="187.001" y1="500" x2="187.001" y2="250" stroke="black" stroke-opacity="0.05"/>
<line x1="165.334" y1="500" x2="165.334" y2="250" stroke="black" stroke-opacity="0.05"/>
<line x1="145.334" y1="500" x2="145.334" y2="250" stroke="black" stroke-opacity="0.05"/>
<line x1="124.501" y1="500" x2="124.501" y2="250" stroke="black" stroke-opacity="0.05"/>
<line x1="103.668" y1="500" x2="103.668" y2="250" stroke="black" stroke-opacity="0.05"/>
<line x1="82.8345" y1="500" x2="82.8345" y2="250" stroke="black" stroke-opacity="0.05"/>
<line x1="62.001" y1="500" x2="62.001" y2="250" stroke="black" stroke-opacity="0.05"/>
<line x1="41.168" y1="500" x2="41.168" y2="250" stroke="black" stroke-opacity="0.05"/>
<line x1="19.501" y1="500" x2="19.501" y2="250" stroke="black" stroke-opacity="0.05"/>
<line x1="250" y1="291.333" y2="291.333" stroke="black" stroke-opacity="0.05"/>
<line x1="250" y1="311.333" y2="311.333" stroke="black" stroke-opacity="0.05"/>
<line x1="250" y1="332.167" y2="332.167" stroke="black" stroke-opacity="0.05"/>
<line x1="250" y1="352.167" y2="352.167" stroke="black" stroke-opacity="0.05"/>
<line x1="250" y1="373.833" y2="373.833" stroke="black" stroke-opacity="0.05"/>
<line x1="250" y1="394.667" y2="394.667" stroke="black" stroke-opacity="0.05"/>
<line x1="250" y1="415.5" y2="415.5" stroke="black" stroke-opacity="0.05"/>
<line x1="250" y1="436.333" y2="436.333" stroke="black" stroke-opacity="0.05"/>
<line x1="250" y1="457.167" y2="457.167" stroke="black" stroke-opacity="0.05"/>
<line x1="250" y1="478" y2="478" stroke="black" stroke-opacity="0.05"/>
<line x1="250" y1="270.5" y2="270.5" stroke="black" stroke-opacity="0.05"/>
<line x1="457.834" y1="250" x2="457.834" stroke="black" stroke-opacity="0.05"/>
<line x1="478.668" y1="250" x2="478.668" stroke="black" stroke-opacity="0.05"/>
<line x1="437.001" y1="250" x2="437.001" stroke="black" stroke-opacity="0.05"/>
<line x1="415.334" y1="250" x2="415.334" stroke="black" stroke-opacity="0.05"/>
<line x1="395.334" y1="250" x2="395.334" stroke="black" stroke-opacity="0.05"/>
<line x1="374.501" y1="250" x2="374.501" stroke="black" stroke-opacity="0.05"/>
<line x1="353.668" y1="250" x2="353.668" stroke="black" stroke-opacity="0.05"/>
<line x1="332.834" y1="250" x2="332.834" stroke="black" stroke-opacity="0.05"/>
<line x1="312.001" y1="250" x2="312.001" stroke="black" stroke-opacity="0.05"/>
<line x1="291.168" y1="250" x2="291.168" stroke="black" stroke-opacity="0.05"/>
<line x1="269.501" y1="250" x2="269.501" stroke="black" stroke-opacity="0.05"/>
<line x1="500" y1="41.3333" x2="250" y2="41.3333" stroke="black" stroke-opacity="0.05"/>
<line x1="500" y1="61.3333" x2="250" y2="61.3333" stroke="black" stroke-opacity="0.05"/>
<line x1="500" y1="82.1667" x2="250" y2="82.1667" stroke="black" stroke-opacity="0.05"/>
<line x1="500" y1="102.167" x2="250" y2="102.167" stroke="black" stroke-opacity="0.05"/>
<line x1="500" y1="123.833" x2="250" y2="123.833" stroke="black" stroke-opacity="0.05"/>
<line x1="500" y1="144.667" x2="250" y2="144.667" stroke="black" stroke-opacity="0.05"/>
<line x1="500" y1="165.5" x2="250" y2="165.5" stroke="black" stroke-opacity="0.05"/>
<line x1="500" y1="186.333" x2="250" y2="186.333" stroke="black" stroke-opacity="0.05"/>
<line x1="416" y1="250.5" x2="166" y2="250.5" stroke="black" stroke-opacity="0.05"/>
<line x1="666" y1="250.5" x2="416" y2="250.5" stroke="black" stroke-opacity="0.05"/>
<line x1="880" y1="250.5" x2="666" y2="250.5" stroke="black" stroke-opacity="0.05"/>
<line x1="500" y1="207.167" x2="250" y2="207.167" stroke="black" stroke-opacity="0.05"/>
<line x1="500" y1="228" x2="250" y2="228" stroke="black" stroke-opacity="0.05"/>
<line x1="500" y1="20.5" x2="250" y2="20.5" stroke="black" stroke-opacity="0.05"/>
<line x1="207.834" y1="250" x2="207.834" stroke="black" stroke-opacity="0.05"/>
<line x1="228.668" y1="250" x2="228.668" stroke="black" stroke-opacity="0.05"/>
<line x1="187.001" y1="250" x2="187.001" stroke="black" stroke-opacity="0.05"/>
<line x1="165.334" y1="250" x2="165.334" stroke="black" stroke-opacity="0.05"/>
<line x1="145.334" y1="250" x2="145.334" stroke="black" stroke-opacity="0.05"/>
<line x1="124.501" y1="250" x2="124.501" stroke="black" stroke-opacity="0.05"/>
<line x1="103.668" y1="250" x2="103.668" stroke="black" stroke-opacity="0.05"/>
<line x1="82.8345" y1="250" x2="82.8345" stroke="black" stroke-opacity="0.05"/>
<line x1="62.001" y1="250" x2="62.001" stroke="black" stroke-opacity="0.05"/>
<line x1="41.168" y1="250" x2="41.168" stroke="black" stroke-opacity="0.05"/>
<line x1="19.501" y1="250" x2="19.501" stroke="black" stroke-opacity="0.05"/>
<line x1="250" y1="41.3333" y2="41.3333" stroke="black" stroke-opacity="0.05"/>
<line x1="250" y1="61.3333" y2="61.3333" stroke="black" stroke-opacity="0.05"/>
<line x1="250" y1="82.1667" y2="82.1667" stroke="black" stroke-opacity="0.05"/>
<line x1="250" y1="102.167" y2="102.167" stroke="black" stroke-opacity="0.05"/>
<line x1="250" y1="123.833" y2="123.833" stroke="black" stroke-opacity="0.05"/>
<line x1="250" y1="144.667" y2="144.667" stroke="black" stroke-opacity="0.05"/>
<line x1="250" y1="165.5" y2="165.5" stroke="black" stroke-opacity="0.05"/>
<line x1="250" y1="186.333" y2="186.333" stroke="black" stroke-opacity="0.05"/>
<line x1="250" y1="207.167" y2="207.167" stroke="black" stroke-opacity="0.05"/>
<line x1="250" y1="228" y2="228" stroke="black" stroke-opacity="0.05"/>
<line x1="250" y1="20.5" y2="20.5" stroke="black" stroke-opacity="0.05"/>
<line x1="957.834" y1="250" x2="957.834" stroke="black" stroke-opacity="0.05"/>
<line x1="978.668" y1="250" x2="978.668" stroke="black" stroke-opacity="0.05"/>
<line x1="937.001" y1="250" x2="937.001" stroke="black" stroke-opacity="0.05"/>
<line x1="915.334" y1="250" x2="915.334" stroke="black" stroke-opacity="0.05"/>
<line x1="895.334" y1="250" x2="895.334" stroke="black" stroke-opacity="0.05"/>
<line x1="874.501" y1="250" x2="874.501" stroke="black" stroke-opacity="0.05"/>
<line x1="853.668" y1="250" x2="853.668" stroke="black" stroke-opacity="0.05"/>
<line x1="832.834" y1="250" x2="832.834" stroke="black" stroke-opacity="0.05"/>
<line x1="812.001" y1="250" x2="812.001" stroke="black" stroke-opacity="0.05"/>
<line x1="791.168" y1="250" x2="791.168" stroke="black" stroke-opacity="0.05"/>
<line x1="769.501" y1="250" x2="769.501" stroke="black" stroke-opacity="0.05"/>
<line x1="1000" y1="41.3333" x2="750" y2="41.3333" stroke="black" stroke-opacity="0.05"/>
<line x1="1000" y1="61.3333" x2="750" y2="61.3333" stroke="black" stroke-opacity="0.05"/>
<line x1="1000" y1="82.1667" x2="750" y2="82.1667" stroke="black" stroke-opacity="0.05"/>
<line x1="1000" y1="102.167" x2="750" y2="102.167" stroke="black" stroke-opacity="0.05"/>
<line x1="1000" y1="123.833" x2="750" y2="123.833" stroke="black" stroke-opacity="0.05"/>
<line x1="1000" y1="144.667" x2="750" y2="144.667" stroke="black" stroke-opacity="0.05"/>
<line x1="1000" y1="165.5" x2="750" y2="165.5" stroke="black" stroke-opacity="0.05"/>
<line x1="1000" y1="186.333" x2="750" y2="186.333" stroke="black" stroke-opacity="0.05"/>
<line x1="1000" y1="207.167" x2="750" y2="207.167" stroke="black" stroke-opacity="0.05"/>
<line x1="1000" y1="228" x2="750" y2="228" stroke="black" stroke-opacity="0.05"/>
<line x1="1000" y1="20.5" x2="750" y2="20.5" stroke="black" stroke-opacity="0.05"/>
</svg>
