<svg width="78" height="94" viewBox="0 0 78 94" fill="none" xmlns="http://www.w3.org/2000/svg">
<g style="mix-blend-mode:multiply" opacity="0.25">
<path d="M77.5244 72.7885C77.4536 72.6999 77.3652 72.6269 77.2646 72.5744L37.9674 50.107C37.829 50.0287 37.68 49.971 37.5249 49.9357C37.3757 49.9041 37.2236 49.8878 37.0711 49.8872H36.1462C35.9946 49.8878 35.8435 49.9041 35.6952 49.9357C35.5398 49.9695 35.3905 50.0273 35.2528 50.107L2.2182 69.1833L0.38279 70.2423C0.281512 70.295 0.192882 70.369 0.123035 70.4592C0.0511737 70.5488 0.00923881 70.6586 0.00314756 70.7732V70.7732C-0.00104919 70.8045 -0.00104919 70.8362 0.00314756 70.8674C0.0658567 71.0517 0.197954 71.2043 0.371372 71.2927L39.6801 93.7801C39.8178 93.8592 39.9671 93.916 40.1225 93.9485C40.2716 93.9811 40.4237 93.9983 40.5763 93.9999H41.6296C41.7381 93.9943 41.846 93.98 41.9522 93.9571C42.1079 93.9256 42.2574 93.8687 42.3946 93.7887L44.23 92.7297L77.2646 73.6448C77.3531 73.6048 77.4319 73.5461 77.4955 73.4726C77.5591 73.3992 77.6059 73.3128 77.6329 73.2195C77.6355 73.1891 77.6355 73.1586 77.6329 73.1282V73.1139C77.6321 72.9967 77.5941 72.8827 77.5244 72.7885V72.7885Z" fill="#ADB8E8"/>
</g>
<path d="M43.9874 4.55273V56.5466L11.1926 75.4317V23.4492L43.9874 4.55273Z" fill="#FFC5C1"/>
<path d="M11.1929 23.4493V75.4317C11.1049 75.4835 11.0081 75.5183 10.9074 75.5345C10.7055 75.5888 10.4928 75.5888 10.2909 75.5345C10.1906 75.5165 10.0941 75.4818 10.0054 75.4317L3.30887 71.5582C3.24327 71.5283 3.18664 71.4817 3.14458 71.4231C3.10252 71.3645 3.0765 71.296 3.06909 71.2243V19.3018C3.11278 19.4187 3.19819 19.5153 3.30887 19.5729L10.014 23.4493C10.1049 23.4943 10.2007 23.5288 10.2994 23.552C10.5027 23.5949 10.7127 23.5949 10.916 23.552C11.0123 23.5297 11.1053 23.4952 11.1929 23.4493V23.4493Z" fill="#FC7F4F"/>
<path d="M42.7972 4.78414L10.8073 23.2211L10.7046 23.2524C10.6395 23.2725 10.5699 23.2725 10.5048 23.2524L10.4106 23.2211L9.82541 22.8871L3.90527 19.4617C13.4192 13.9583 26.5696 6.41403 36.1035 0.910645C36.2405 0.98486 36.3633 1.06764 36.4889 1.13044V1.14186C38.4213 2.25795 40.114 3.22846 42.0236 4.33599C42.2748 4.48157 42.5346 4.63 42.7972 4.78414Z" fill="#E0E4FF"/>
<path d="M36.489 0.228271V1.1417C36.3634 1.0789 36.2378 0.996119 36.1036 0.921904C26.5698 6.41102 13.4193 13.9553 3.90539 19.4587L3.70558 19.3445C3.68255 19.3336 3.66137 19.3192 3.64278 19.3017C3.63206 19.2713 3.62534 19.2397 3.6228 19.2075C3.64406 19.1712 3.67594 19.1423 3.71415 19.1248L36.489 0.228271Z" fill="#FFC5C1"/>
<path d="M36.1034 0L36.4888 0.228356L3.71394 19.1248C3.67721 19.1468 3.64827 19.1798 3.63117 19.219C3.63371 19.2512 3.64042 19.2828 3.65115 19.3132C3.66973 19.3307 3.69092 19.3451 3.71394 19.356L3.91376 19.4702L10.4105 23.2181L10.5047 23.2495C10.5688 23.2695 10.6375 23.2695 10.7016 23.2495L10.8073 23.2181L42.7971 4.78406L43.5821 4.3245L43.9789 4.55285L11.1926 23.4493C11.1024 23.4959 11.0064 23.5305 10.9072 23.5521C10.7039 23.5949 10.4939 23.5949 10.2906 23.5521C10.1919 23.5288 10.0961 23.4943 10.0052 23.4493L3.30861 19.573C3.19794 19.5153 3.11253 19.4187 3.06884 19.3018C3.05786 19.2518 3.05885 19.1998 3.07175 19.1502C3.08465 19.1006 3.10908 19.0547 3.14305 19.0164C3.18775 18.9571 3.24409 18.9075 3.30861 18.8708L36.1034 0Z" fill="#FF9999"/>
<path d="M11.1926 23.4492C15.9681 20.5519 20.8806 17.9087 25.6932 15.0771C30.5458 12.3283 39.1092 7.24448 43.9931 4.55273C39.2176 7.44144 30.5772 12.3625 25.7589 15.1913C20.8978 17.9401 16.0823 20.7546 11.1926 23.4492Z" fill="white"/>
<path d="M3.65942 19.1248C8.43492 16.239 13.3646 13.5872 18.1658 10.7556C23.0183 8.00673 31.5646 2.92295 36.4514 0.231201C31.6873 3.13989 23.0269 8.04955 18.22 10.8812C13.3646 13.63 8.54625 16.4445 3.65942 19.1248Z" fill="white"/>
<g style="mix-blend-mode:multiply" opacity="0.35">
<path d="M42.7975 4.78401L10.8076 23.2209L10.7049 23.2523C10.6398 23.2724 10.5701 23.2724 10.505 23.2523L10.4108 23.2209L9.82568 22.887L42.0239 4.33301C42.2751 4.48144 42.5349 4.62987 42.7975 4.78401Z" fill="#ADB8E8"/>
</g>
<path d="M52.3025 11.5405V59.3555L18.0662 79.0883V31.2819L52.3025 11.5405Z" fill="#3B52B5"/>
<path d="M18.0687 31.2819V79.0883C17.98 79.1389 17.8836 79.1745 17.7833 79.1939C17.581 79.2452 17.369 79.2452 17.1667 79.1939C17.0667 79.1736 16.9704 79.1379 16.8813 79.0883L12.0601 76.3337C11.9943 76.3033 11.9375 76.2562 11.8955 76.1971C11.8534 76.1381 11.8275 76.0691 11.8203 75.9969V28.259C11.8614 28.381 11.9471 28.4829 12.0601 28.5445L16.8813 31.299C16.9721 31.345 17.0678 31.3804 17.1667 31.4046C17.3703 31.4446 17.5797 31.4446 17.7833 31.4046C17.8832 31.376 17.9791 31.3347 18.0687 31.2819Z" fill="#172971"/>
<path d="M51.098 11.7718L18.4202 30.6255L17.6809 31.0536C17.6466 31.067 17.6113 31.0775 17.5753 31.085C17.5117 31.1084 17.4419 31.1084 17.3783 31.085L17.2841 31.0536L16.4906 30.5941L12.6599 28.4133C12.9739 28.2363 13.2879 28.0479 13.6019 27.8709C22.8018 22.5502 37.0798 14.3408 46.2996 9.0144C46.4367 9.08862 46.5594 9.1714 46.685 9.2342C48.5547 10.3103 48.3006 10.1305 50.1275 11.1866C50.4529 11.3836 50.7754 11.572 51.098 11.7718Z" fill="#E6E9FF"/>
<path d="M46.6878 8.33496V9.23411C46.5622 9.17132 46.4366 9.08568 46.2996 9.01432C36.7657 14.5177 22.1852 22.9069 12.6627 28.4246L12.4629 28.3104C12.4399 28.2995 12.4187 28.2851 12.4001 28.2676C12.3897 28.2381 12.383 28.2074 12.3801 28.1763C12.3955 28.136 12.4249 28.1025 12.4629 28.0821L46.6878 8.33496Z" fill="#3B52B5"/>
<path d="M46.2999 8.10376L46.6881 8.33497L12.4632 28.0678C12.4252 28.0883 12.3958 28.1217 12.3804 28.162C12.3833 28.1932 12.39 28.2238 12.4004 28.2533C12.419 28.2708 12.4402 28.2852 12.4632 28.2962L12.663 28.4103L17.2844 31.0507L17.3786 31.0821C17.4432 31.105 17.5137 31.105 17.5784 31.0821C17.6134 31.0742 17.6477 31.0637 17.6811 31.0507L51.1125 11.7689L51.8975 11.3093L52.2942 11.5405L18.0693 31.2819C17.9789 31.3288 17.8831 31.3643 17.7839 31.3875C17.5803 31.4275 17.3709 31.4275 17.1673 31.3875C17.0685 31.3633 16.9727 31.3279 16.8819 31.2819L12.0664 28.5274C11.9534 28.4658 11.8678 28.3639 11.8267 28.2419C11.8159 28.1919 11.817 28.14 11.8299 28.0904C11.8428 28.0408 11.8671 27.995 11.9009 27.9565C11.9456 27.8972 12.0019 27.8477 12.0664 27.8109L46.2999 8.10376Z" fill="#283D93"/>
<path d="M16.8873 31.2819C14.6866 29.9346 14.3355 29.7605 12.0662 28.5273C14.2755 29.8746 14.6209 30.0459 16.8873 31.2819Z" fill="#4761C9"/>
<g style="mix-blend-mode:multiply" opacity="0.35">
<path d="M51.0981 11.7719L18.4203 30.6255L17.681 31.0537C17.6467 31.067 17.6114 31.0775 17.5754 31.0851C17.5118 31.1085 17.442 31.1085 17.3785 31.0851L17.2843 31.0537L16.4907 30.5941L50.1276 11.1838C50.453 11.3836 50.7756 11.572 51.0981 11.7719Z" fill="#ADB8E8"/>
</g>
<path d="M52.3021 11.5405C47.5323 14.395 37.459 20.1695 32.6578 22.9869C27.8052 25.7357 23.0126 28.5388 18.1458 31.2363C22.9127 28.3675 27.7453 25.6073 32.5436 22.7899C37.3962 20.0439 47.4324 14.238 52.3021 11.5405Z" fill="#4761C9"/>
<path d="M46.6876 8.33496C41.9178 11.1894 31.8445 16.964 27.0433 19.7842C22.1907 22.5302 17.3981 25.3332 12.5312 28.0307C17.2982 25.1762 22.1308 22.4017 26.9291 19.5844C31.7674 16.8412 41.8208 11.0324 46.6876 8.33496Z" fill="#4761C9"/>
<path d="M76.9876 66.0664C77.0815 66.1226 77.167 66.1918 77.2416 66.2719C77.3894 66.4369 77.5004 66.6316 77.5671 66.8428C77.6014 66.9459 77.6188 67.0539 77.6184 67.1625V72.9999C77.6213 73.0388 77.6213 73.0779 77.6184 73.1169C77.6083 73.1948 77.5778 73.2687 77.5299 73.331C77.5069 73.3632 77.4766 73.3896 77.4415 73.4081C65.7534 80.156 54.0663 86.9039 42.3802 93.6518C42.4461 93.6103 42.4963 93.5481 42.5229 93.4749C42.5496 93.4008 42.5621 93.3224 42.56 93.2437V87.4063C42.5597 87.2977 42.5424 87.1898 42.5087 87.0866C42.4435 86.8747 42.3324 86.6798 42.1832 86.5157C42.1094 86.4348 42.0238 86.3655 41.9292 86.3102L76.9876 66.0664Z" fill="#3B52B5"/>
<path d="M76.9878 66.0663L41.9208 86.3129L18.0376 72.5231L53.1046 52.2793L76.9878 66.0663Z" fill="#283D93"/>
<path d="M42.1751 87.1864V92.881L18.7971 79.3823V73.3879L41.9182 86.7382H41.9353L41.9667 86.7639L41.9981 86.7896L42.0267 86.821L42.0552 86.8552L42.078 86.8924C42.0873 86.9047 42.095 86.9181 42.1009 86.9323C42.1097 86.9439 42.1174 86.9563 42.1237 86.9694L42.1408 87.0094C42.1408 87.0237 42.1408 87.0379 42.1408 87.0493C42.1421 87.0636 42.1421 87.0779 42.1408 87.0922C42.1408 87.0922 42.1408 87.1179 42.1408 87.1321C42.1408 87.1464 42.1751 87.1721 42.1751 87.1864Z" fill="#E6E9FF"/>
<path d="M42.1749 93.0266V93.0551C42.1749 93.0551 42.1749 93.078 42.1749 93.0894V93.1208C42.1765 93.1302 42.1765 93.1399 42.1749 93.1493C42.1707 93.1573 42.166 93.165 42.1606 93.1722L42.1406 93.1921H42.1178H42.0978H42.0407H42.0093H41.9808C41.9695 93.1946 41.9578 93.1946 41.9465 93.1921L18.0376 79.3823L18.7969 78.9456V79.3823L42.1749 92.881V93.0266Z" fill="#283D93"/>
<g style="mix-blend-mode:multiply" opacity="0.35">
<path d="M23.7148 70.3195L23.7834 47.5095V34.5389L47.2983 21.1572C47.2983 21.1572 56.6181 57.1747 57.4231 68.701C57.4231 68.8437 47.5124 74.5669 47.5981 74.5184L39.2859 79.3167L23.7148 70.3195Z" fill="#ADB8E8"/>
</g>
<path d="M52.959 23.1438L60.4091 68.4925L42.309 78.9455L34.8589 33.5911L52.959 23.1438Z" fill="#FFC5C1"/>
<path d="M48.4547 21.6252L48.7259 23.2808L47.8553 22.9954L30.7286 32.8946L30.3375 32.7576C30.3164 32.7572 30.2958 32.7513 30.2776 32.7405C30.2425 32.7251 30.2082 32.7079 30.1748 32.6891C30.1491 32.672 30.1234 32.6463 30.0977 32.6292C30.0803 32.6054 30.0659 32.5795 30.0549 32.5521C30.0453 32.5304 30.0395 32.5072 30.0378 32.4836C30.0294 32.4557 30.0294 32.4259 30.0378 32.398C30.0455 32.368 30.057 32.3393 30.0721 32.3123C30.0977 32.2866 30.1149 32.2609 30.1406 32.2352C30.17 32.2046 30.2015 32.176 30.2348 32.1496C30.269 32.1268 30.3033 32.1097 30.3375 32.084L48.4547 21.6252Z" fill="#FFC5C1"/>
<path d="M33.5371 33.557L33.3658 33.5827C33.3091 33.5922 33.2519 33.5979 33.1945 33.5998H33.0233C32.9696 33.5984 32.9161 33.5926 32.8634 33.5827L32.7178 33.557L32.6493 33.5313L30.7283 32.8919L47.855 22.9927L48.7256 23.2781L50.5268 23.889L34.1336 33.3515L34.0223 33.4029C33.9795 33.4286 33.9281 33.4457 33.8767 33.4714C33.8248 33.4903 33.7713 33.5047 33.7169 33.5142C33.6584 33.534 33.5982 33.5483 33.5371 33.557V33.557Z" fill="#E6E9FF"/>
<path d="M33.7087 33.5141C33.7631 33.5045 33.8166 33.4902 33.8686 33.4712C33.9199 33.4455 33.9713 33.4284 34.0141 33.4027L34.1255 33.3513L50.5271 23.8888L52.2398 22.8983L52.9648 23.1467L34.8648 33.5911C34.6445 33.7201 34.4097 33.8226 34.1654 33.8965C33.676 34.0434 33.1661 34.1099 32.6554 34.0935C32.4001 34.0893 32.1469 34.046 31.9047 33.9651L29.5926 33.1886C29.4633 33.1497 29.3417 33.0889 29.2329 33.0088C29.1442 32.9499 29.0732 32.868 29.0274 32.7719C29.0167 32.7506 29.0109 32.7272 29.0103 32.7034C29.0064 32.6923 29.0064 32.6802 29.0103 32.6691C28.9946 32.5977 29.0005 32.5231 29.0274 32.455C29.0679 32.3254 29.1453 32.2103 29.25 32.1239C29.3654 32.0122 29.4949 31.9163 29.6354 31.8385L47.7326 21.394L48.4691 21.631L30.3462 32.0811C30.3119 32.1068 30.2777 32.1239 30.2434 32.1468C30.2101 32.1731 30.1786 32.2018 30.1492 32.2324C30.1235 32.2581 30.1064 32.2838 30.0807 32.3095C30.0656 32.3364 30.0541 32.3652 30.0464 32.3951C30.038 32.423 30.038 32.4528 30.0464 32.4807C30.0481 32.5044 30.0539 32.5276 30.0636 32.5492C30.0745 32.5766 30.0889 32.6025 30.1064 32.6263C30.1321 32.6434 30.1578 32.6691 30.1835 32.6863C30.2168 32.7051 30.2511 32.7223 30.2862 32.7376C30.3044 32.7484 30.325 32.7543 30.3462 32.7548L30.7372 32.8918L32.6583 33.5397L32.7268 33.5569L32.8723 33.5826C32.9251 33.5925 32.9785 33.5982 33.0322 33.5997H33.2035C33.2609 33.5978 33.3181 33.5921 33.3747 33.5826L33.546 33.5569C33.6013 33.5472 33.6558 33.5329 33.7087 33.5141V33.5141Z" fill="#FF9999"/>
<path d="M29.5867 33.1886L31.8988 33.965C32.141 34.046 32.3942 34.0893 32.6495 34.0935C33.1602 34.1099 33.6702 34.0434 34.1595 33.8965C34.4038 33.8226 34.6386 33.72 34.8589 33.5911L42.309 78.9455C42.0862 79.0679 41.852 79.1683 41.6097 79.2452C41.1202 79.3916 40.6103 79.4581 40.0997 79.4422C39.8438 79.4437 39.5897 79.4002 39.3489 79.3137L37.034 78.5373C36.9242 78.5006 36.8189 78.4518 36.72 78.3917C36.6424 78.3427 36.5755 78.2787 36.523 78.2034C36.4801 78.149 36.4534 78.0838 36.446 78.015C33.9721 62.9111 31.4916 47.8072 29.0044 32.7034C29.005 32.7272 29.0109 32.7506 29.0215 32.7719C29.0673 32.868 29.1383 32.9499 29.227 33.0088C29.3358 33.0888 29.4574 33.1497 29.5867 33.1886V33.1886Z" fill="#FC7F4F"/>
</svg>
