<svg width="117" height="74" viewBox="0 0 117 74" fill="none" xmlns="http://www.w3.org/2000/svg">
<g style="mix-blend-mode:multiply" opacity="0.39">
<path d="M58.319 74.0001C90.5276 74.0001 116.638 72.8933 116.638 71.5281C116.638 70.1629 90.5276 69.0562 58.319 69.0562C26.1103 69.0562 0 70.1629 0 71.5281C0 72.8933 26.1103 74.0001 58.319 74.0001Z" fill="#FF9999"/>
</g>
<path d="M79.3802 0.00830078H77.0601V2.53638L79.5834 0.0167191" fill="#F6F6F6"/>
<path d="M74.8136 59.3354H35.1233V2.98251C35.1225 2.19542 35.436 1.44018 35.9948 0.882569C36.5536 0.324957 37.3121 0.0105302 38.1039 0.00830078H77.0547V57.1047C77.051 57.6947 76.8138 58.2595 76.3944 58.677C75.975 59.0944 75.4071 59.331 74.8136 59.3354V59.3354Z" fill="#F6F6F6"/>
<path d="M81.698 10.4406H77.0549V2.30361C77.0549 2.00086 77.115 1.70108 77.2316 1.42141C77.3482 1.14174 77.5192 0.887667 77.7346 0.673721C77.9501 0.459774 78.2059 0.29015 78.4874 0.174548C78.7689 0.0589459 79.0705 -0.000367049 79.375 1.70895e-06V1.70895e-06C79.9896 1.70895e-06 80.579 0.242703 81.0136 0.674714C81.4482 1.10672 81.6923 1.69266 81.6923 2.30361L81.698 10.4406Z" fill="#DADADA"/>
<path d="M32.8037 48.9033H37.4411V57.0403C37.4411 57.6513 37.197 58.2372 36.7624 58.6692C36.3278 59.1012 35.7384 59.3439 35.1238 59.3439C34.8193 59.3443 34.5176 59.285 34.2362 59.1694C33.9547 59.0538 33.6989 58.8842 33.4834 58.6702C33.2679 58.4563 33.097 58.2022 32.9804 57.9225C32.8637 57.6428 32.8037 57.3431 32.8037 57.0403V48.9033Z" fill="white"/>
<path d="M74.743 48.9033H35.1233V59.3355H74.743V48.9033Z" fill="white"/>
<path d="M72.4234 48.9033H77.0551V57.0403C77.0551 57.3431 76.9951 57.6428 76.8785 57.9225C76.7618 58.2022 76.5909 58.4563 76.3754 58.6702C76.1599 58.8842 75.9041 59.0538 75.6227 59.1694C75.3412 59.285 75.0396 59.3443 74.735 59.3439V59.3439C74.1204 59.3439 73.531 59.1012 73.0964 58.6692C72.6619 58.2372 72.4177 57.6513 72.4177 57.0403L72.4234 48.9033Z" fill="#DADADA"/>
<path d="M67.4583 9.10499H65.4826C65.2813 9.10358 65.0886 9.02425 64.9452 8.88385C64.8019 8.74344 64.7192 8.55302 64.7148 8.35302V6.38892C64.7148 6.18599 64.7955 5.99129 64.9394 5.84727C65.0832 5.70325 65.2784 5.6216 65.4826 5.62012H67.4583C67.6615 5.62307 67.8553 5.70536 67.9979 5.84922C68.1405 5.99308 68.2204 6.18695 68.2204 6.38892V8.35302C68.2168 8.55229 68.1351 8.74229 67.9928 8.88269C67.8505 9.02309 67.6588 9.10284 67.4583 9.10499V9.10499ZM65.4826 5.9007C65.3533 5.90218 65.2298 5.95427 65.1389 6.04567C65.0481 6.13707 64.9971 6.2604 64.9971 6.38892V8.35302C65.0014 8.4786 65.0543 8.59768 65.1448 8.68548C65.2352 8.77328 65.3562 8.82304 65.4826 8.82441H67.4583C67.5838 8.82161 67.7033 8.77122 67.7926 8.68357C67.8818 8.59592 67.9339 8.47765 67.9382 8.35302V6.38892C67.9382 6.26136 67.888 6.13885 67.7983 6.04761C67.7087 5.95636 67.5866 5.90364 67.4583 5.9007H65.4826Z" fill="#FB3B34"/>
<path d="M67.4581 15.2778H65.4824C65.2777 15.2778 65.0815 15.1972 64.9365 15.0537C64.7915 14.9101 64.7097 14.7153 64.709 14.5118V12.5477C64.7127 12.3463 64.7958 12.1543 64.9404 12.0132C65.0851 11.872 65.2797 11.7929 65.4824 11.793H67.4581C67.6613 11.7959 67.8551 11.8782 67.9977 12.0221C68.1403 12.1659 68.2202 12.3598 68.2202 12.5618V14.5259C68.2166 14.7251 68.1349 14.9151 67.9926 15.0555C67.8503 15.1959 67.6586 15.2757 67.4581 15.2778V15.2778ZM65.4824 12.0736C65.3521 12.0736 65.2272 12.125 65.1351 12.2165C65.043 12.3081 64.9912 12.4323 64.9912 12.5618V14.5259C64.992 14.6549 65.0441 14.7783 65.1361 14.8693C65.2281 14.9602 65.3526 15.0113 65.4824 15.0113H67.4581C67.5859 15.0084 67.7075 14.956 67.7971 14.8654C67.8867 14.7747 67.9373 14.653 67.938 14.5259V12.5618C67.938 12.4328 67.8866 12.309 67.7951 12.2175C67.7036 12.1261 67.5794 12.0743 67.4497 12.0736H65.4824Z" fill="#FB3B34"/>
<path d="M67.4581 21.4507H65.4824C65.2777 21.4507 65.0815 21.3701 64.9365 21.2265C64.7915 21.0829 64.7097 20.8881 64.709 20.6847V18.7346C64.709 18.5307 64.7905 18.3352 64.9355 18.191C65.0805 18.0468 65.2772 17.9658 65.4824 17.9658H67.4581C67.6613 17.9688 67.8551 18.0511 67.9977 18.1949C68.1403 18.3388 68.2202 18.5327 68.2202 18.7346V20.6987C68.2166 20.898 68.1349 21.088 67.9926 21.2284C67.8503 21.3688 67.6586 21.4485 67.4581 21.4507ZM65.4824 18.2464C65.3521 18.2464 65.2272 18.2978 65.1351 18.3894C65.043 18.481 64.9912 18.6051 64.9912 18.7346V20.6987C64.992 20.8277 65.0441 20.9512 65.1361 21.0421C65.2281 21.1331 65.3526 21.1841 65.4824 21.1841H67.4581C67.5859 21.1812 67.7075 21.1289 67.7971 21.0382C67.8867 20.9476 67.9373 20.8258 67.938 20.6987V18.7346C67.938 18.6056 67.8866 18.4819 67.7951 18.3904C67.7036 18.2989 67.5794 18.2471 67.4497 18.2464H65.4824Z" fill="#FB3B34"/>
<path d="M67.4581 27.6238H65.4824C65.2777 27.6238 65.0815 27.5432 64.9365 27.3996C64.7915 27.256 64.7097 27.0612 64.709 26.8578V24.9077C64.709 24.7038 64.7905 24.5083 64.9355 24.3641C65.0805 24.2199 65.2772 24.1389 65.4824 24.1389H67.4581C67.6613 24.1419 67.8551 24.2242 67.9977 24.368C68.1403 24.5119 68.2202 24.7058 68.2202 24.9077V26.8718C68.2166 27.0711 68.1349 27.2611 67.9926 27.4015C67.8503 27.5419 67.6586 27.6216 67.4581 27.6238ZM65.4824 24.4195C65.3521 24.4195 65.2272 24.4709 65.1351 24.5625C65.043 24.6541 64.9912 24.7782 64.9912 24.9077V26.8718C64.992 27.0008 65.0441 27.1243 65.1361 27.2152C65.2281 27.3062 65.3526 27.3572 65.4824 27.3572H67.4581C67.5859 27.3543 67.7075 27.302 67.7971 27.2113C67.8867 27.1207 67.9373 26.9989 67.938 26.8718V24.9077C67.938 24.7787 67.8866 24.655 67.7951 24.5635C67.7036 24.472 67.5794 24.4202 67.4497 24.4195H65.4824Z" fill="#FB3B34"/>
<path d="M67.4581 33.7966H65.4824C65.2777 33.7966 65.0815 33.716 64.9365 33.5725C64.7915 33.4289 64.7097 33.2341 64.709 33.0306V31.0806C64.709 30.9796 64.729 30.8796 64.7679 30.7864C64.8067 30.6931 64.8637 30.6083 64.9355 30.5369C65.0073 30.4656 65.0926 30.4089 65.1864 30.3703C65.2802 30.3317 65.3808 30.3118 65.4824 30.3118H67.4581C67.6613 30.3147 67.8551 30.397 67.9977 30.5409C68.1403 30.6847 68.2202 30.8786 68.2202 31.0806V33.0447C68.2166 33.2439 68.1349 33.4339 67.9926 33.5743C67.8503 33.7147 67.6586 33.7945 67.4581 33.7966V33.7966ZM65.4824 30.5924C65.4179 30.5924 65.354 30.605 65.2944 30.6295C65.2348 30.6541 65.1807 30.69 65.1351 30.7354C65.0895 30.7807 65.0533 30.8345 65.0286 30.8937C65.0039 30.953 64.9912 31.0165 64.9912 31.0806V33.0447C64.992 33.1737 65.0441 33.2971 65.1361 33.3881C65.2281 33.479 65.3526 33.5301 65.4824 33.5301H67.4581C67.5859 33.5272 67.7075 33.4748 67.7971 33.3842C67.8867 33.2935 67.9373 33.1717 67.938 33.0447V31.0806C67.938 30.9516 67.8866 30.8278 67.7951 30.7363C67.7036 30.6449 67.5794 30.5931 67.4497 30.5924H65.4824Z" fill="#FB3B34"/>
<path d="M67.4581 39.9695H65.4824C65.2777 39.9695 65.0815 39.8889 64.9365 39.7453C64.7915 39.6017 64.7097 39.4069 64.709 39.2035V37.2534C64.709 37.0495 64.7905 36.854 64.9355 36.7098C65.0805 36.5656 65.2772 36.4846 65.4824 36.4846H67.4581C67.6613 36.4876 67.8551 36.5699 67.9977 36.7137C68.1403 36.8576 68.2202 37.0515 68.2202 37.2534V39.2175C68.2166 39.4168 68.1349 39.6068 67.9926 39.7472C67.8503 39.8876 67.6586 39.9673 67.4581 39.9695V39.9695ZM65.4824 36.7652C65.3521 36.7652 65.2272 36.8166 65.1351 36.9082C65.043 36.9998 64.9912 37.1239 64.9912 37.2534V39.2175C64.992 39.3465 65.0441 39.47 65.1361 39.5609C65.2281 39.6519 65.3526 39.7029 65.4824 39.7029H67.4581C67.5859 39.7 67.7075 39.6477 67.7971 39.557C67.8867 39.4664 67.9373 39.3446 67.938 39.2175V37.2534C67.938 37.1244 67.8866 37.0007 67.7951 36.9092C67.7036 36.8177 67.5794 36.7659 67.4497 36.7652H65.4824Z" fill="#FB3B34"/>
<path d="M67.4581 46.1424H65.4824C65.2777 46.1424 65.0815 46.0617 64.9365 45.9182C64.7915 45.7746 64.7097 45.5798 64.709 45.3764V43.4263C64.709 43.2224 64.7905 43.0268 64.9355 42.8827C65.0805 42.7385 65.2772 42.6575 65.4824 42.6575H67.4581C67.6613 42.6604 67.8551 42.7427 67.9977 42.8866C68.1403 43.0304 68.2202 43.2243 68.2202 43.4263V45.3904C68.2166 45.5896 68.1349 45.7797 67.9926 45.9201C67.8503 46.0605 67.6586 46.1402 67.4581 46.1424V46.1424ZM65.4824 42.9381C65.3521 42.9381 65.2272 42.9895 65.1351 43.0811C65.043 43.1726 64.9912 43.2968 64.9912 43.4263V45.3904C64.992 45.5194 65.0441 45.6428 65.1361 45.7338C65.2281 45.8247 65.3526 45.8758 65.4824 45.8758H67.4581C67.5859 45.8729 67.7075 45.8205 67.7971 45.7299C67.8867 45.6393 67.9373 45.5175 67.938 45.3904V43.4263C67.938 43.2973 67.8866 43.1735 67.7951 43.082C67.7036 42.9906 67.5794 42.9388 67.4497 42.9381H65.4824Z" fill="#FB3B34"/>
<path d="M61.9425 5.7605H40.3022V7.36264H61.9425V5.7605Z" fill="#DADADA"/>
<path d="M61.9425 12.0288H40.3022V13.631H61.9425V12.0288Z" fill="#DADADA"/>
<path d="M49.0521 14.624H40.3022V16.2262H49.0521V14.624Z" fill="#DADADA"/>
<path d="M61.9425 18.7627H40.3022V20.3648H61.9425V18.7627Z" fill="#DADADA"/>
<path d="M61.9425 24.0349H40.3022V25.6371H61.9425V24.0349Z" fill="#DADADA"/>
<path d="M61.9425 30.4519H40.3022V32.0541H61.9425V30.4519Z" fill="#DADADA"/>
<path d="M61.9425 32.8567H40.3022V34.4588H61.9425V32.8567Z" fill="#DADADA"/>
<path d="M61.9425 36.6248H40.3022V38.2269H61.9425V36.6248Z" fill="#DADADA"/>
<path d="M51.9226 39.0295H40.3022V40.6317H51.9226V39.0295Z" fill="#DADADA"/>
<path d="M61.9425 42.3994H40.3022V44.0016H61.9425V42.3994Z" fill="#DADADA"/>
<path d="M51.9226 44.801H40.3022V46.4032H51.9226V44.801Z" fill="#DADADA"/>
<path d="M49.0521 26.6304H40.3022V28.2325H49.0521V26.6304Z" fill="#DADADA"/>
<path d="M66.4925 8.35292H66.4558C66.3852 8.34735 66.3171 8.32411 66.2578 8.28535C66.1986 8.2466 66.1502 8.19359 66.1171 8.13126C65.9671 7.84852 65.777 7.58866 65.5526 7.35965C65.5112 7.32092 65.4781 7.2743 65.4552 7.22257C65.4324 7.17083 65.4202 7.11505 65.4195 7.05855C65.4187 7.00204 65.4295 6.94597 65.451 6.89368C65.4726 6.84138 65.5045 6.79394 65.5449 6.75417C65.5852 6.7144 65.6333 6.68312 65.6861 6.6622C65.7389 6.64128 65.7954 6.63115 65.8522 6.6324C65.909 6.63365 65.965 6.64628 66.0169 6.66951C66.0687 6.69273 66.1153 6.7261 66.1538 6.76761C66.2903 6.91252 66.4158 7.06726 66.5292 7.23058C67.2526 6.34182 68.0213 5.49052 68.8324 4.68006C68.9131 4.61361 69.0156 4.57925 69.1203 4.58362C69.225 4.58799 69.3243 4.63078 69.3991 4.70372C69.4738 4.77665 69.5187 4.87455 69.5251 4.9785C69.5315 5.08244 69.4989 5.18505 69.4336 5.26648C68.5043 6.19249 67.6334 7.17453 66.8256 8.20702C66.7847 8.25474 66.7336 8.29265 66.6759 8.31792C66.6182 8.34319 66.5555 8.35516 66.4925 8.35292V8.35292Z" fill="#575756"/>
<path d="M66.4925 14.7392H66.4558C66.3856 14.7334 66.3179 14.7104 66.2587 14.6722C66.1996 14.634 66.151 14.5818 66.1171 14.5203C65.9679 14.2363 65.7777 13.9754 65.5526 13.7459C65.5112 13.7072 65.4781 13.6606 65.4552 13.6088C65.4324 13.5571 65.4202 13.5013 65.4195 13.4448C65.4187 13.3883 65.4295 13.3322 65.451 13.2799C65.4726 13.2276 65.5045 13.1802 65.5449 13.1404C65.5852 13.1007 65.6333 13.0694 65.6861 13.0485C65.7389 13.0275 65.7954 13.0174 65.8522 13.0187C65.909 13.0199 65.965 13.0325 66.0169 13.0558C66.0687 13.079 66.1153 13.1124 66.1538 13.1539C66.2907 13.292 66.418 13.4392 66.5349 13.5944C67.2582 12.7056 68.027 11.8543 68.838 11.0439C68.9193 10.9782 69.0222 10.9449 69.1268 10.9503C69.2314 10.9556 69.3303 10.9994 69.4043 11.073C69.4784 11.1466 69.5223 11.2449 69.5278 11.3488C69.5332 11.4528 69.4996 11.5551 69.4336 11.6359C68.5043 12.5618 67.6333 13.5439 66.8256 14.5764C66.7864 14.6272 66.736 14.6684 66.6782 14.6966C66.6205 14.7248 66.5569 14.7394 66.4925 14.7392V14.7392Z" fill="#575756"/>
<path d="M66.493 33.0725H66.4563C66.3856 33.067 66.3175 33.0437 66.2583 33.005C66.1991 32.9662 66.1507 32.9132 66.1176 32.8509C65.9669 32.5677 65.7769 32.307 65.5531 32.0765C65.5091 32.0384 65.4734 31.9917 65.4484 31.9393C65.4234 31.8869 65.4095 31.83 65.4077 31.772C65.4059 31.714 65.4161 31.6563 65.4378 31.6025C65.4594 31.5486 65.4921 31.4998 65.5336 31.4591C65.5751 31.4184 65.6247 31.3866 65.6792 31.3659C65.7336 31.3451 65.7918 31.3357 65.8501 31.3384C65.9084 31.341 65.9655 31.3556 66.0178 31.3812C66.0702 31.4068 66.1166 31.4429 66.1543 31.4872C66.2918 31.6247 66.4191 31.772 66.5353 31.9277C67.258 31.0384 68.0267 30.187 68.8385 29.3772C68.9195 29.3193 69.0184 29.2918 69.1179 29.2993C69.2173 29.3069 69.3109 29.3491 69.3821 29.4185C69.4533 29.488 69.4975 29.5802 69.507 29.6789C69.5165 29.7776 69.4907 29.8764 69.434 29.958C68.504 30.8833 67.633 31.8654 66.826 32.8986C66.7876 32.951 66.7376 32.9939 66.6799 33.0241C66.6221 33.0542 66.5582 33.0708 66.493 33.0725V33.0725Z" fill="#575756"/>
<path d="M66.4925 45.1098H66.4558C66.3856 45.104 66.3179 45.081 66.2587 45.0428C66.1996 45.0046 66.151 44.9524 66.1171 44.8909C65.9679 44.6069 65.7777 44.346 65.5526 44.1165C65.5112 44.0778 65.4781 44.0312 65.4552 43.9794C65.4324 43.9277 65.4202 43.8719 65.4195 43.8154C65.4187 43.7589 65.4295 43.7028 65.451 43.6505C65.4726 43.5983 65.5045 43.5508 65.5449 43.511C65.5852 43.4713 65.6333 43.44 65.6861 43.4191C65.7389 43.3981 65.7954 43.388 65.8522 43.3893C65.909 43.3905 65.965 43.4031 66.0169 43.4264C66.0687 43.4496 66.1153 43.483 66.1538 43.5245C66.2914 43.662 66.4187 43.8092 66.5349 43.965C67.2582 43.0762 68.027 42.2249 68.838 41.4145C68.9174 41.3352 69.0252 41.2905 69.1376 41.2903C69.2501 41.29 69.3581 41.3342 69.4378 41.4131C69.5176 41.4919 69.5625 41.5991 69.5628 41.7109C69.563 41.8227 69.5186 41.9301 69.4392 42.0093C68.51 42.9353 67.639 43.9174 66.8312 44.9499C66.7912 45.0009 66.7398 45.042 66.6809 45.0697C66.6221 45.0975 66.5576 45.1112 66.4925 45.1098V45.1098Z" fill="#575756"/>
<path d="M102.468 47.083L35.9607 58.5862L37.0309 64.7009L103.538 53.1977L102.468 47.083Z" fill="#7EABFF" fill-opacity="0.8"/>
<path d="M103.536 53.2075L112.249 48.5526L102.458 47.0935C101.986 48.6631 102.125 50.3518 102.847 51.8242L103.536 53.2075Z" fill="#FFCC66"/>
<path d="M109.684 48.1709C109.684 48.1709 109.322 48.7321 109.48 49.1473C109.576 49.3985 109.744 49.6162 109.963 49.773L112.249 48.5525L109.684 48.1709Z" fill="#1D1D1B"/>
<path d="M35.9542 58.5932L29.572 59.6948L30.6401 65.8099L37.0223 64.7083L35.9542 58.5932Z" fill="#1D1D1B"/>
<path d="M31.4586 59.3685L30.5159 59.5312L31.5839 65.6463L32.5267 65.4836L31.4586 59.3685Z" fill="#FFED00"/>
<path d="M34.2504 58.8868L33.3076 59.0496L34.3757 65.1646L35.3184 65.0019L34.2504 58.8868Z" fill="#FFED00"/>
<path d="M28.8974 66.1088L30.6446 65.8085L29.5777 59.7002L27.8305 60.0032C27.015 60.1443 26.2892 60.6017 25.8129 61.2747C25.3365 61.9477 25.1485 62.7812 25.2903 63.5919V63.5919C25.4342 64.4005 25.8947 65.1194 26.5708 65.5912C27.2469 66.0629 28.0836 66.249 28.8974 66.1088V66.1088Z" fill="#FFC5C1"/>
<path d="M43.2949 61.7065L39.6792 62.3322C39.4182 62.3755 39.1506 62.3151 38.934 62.1639C38.7175 62.0127 38.5695 61.7829 38.522 61.5241V61.5241C38.4785 61.2643 38.5397 60.9978 38.6923 60.7825C38.845 60.5672 39.0769 60.4203 39.3377 60.3737L42.9533 59.7508C43.2142 59.706 43.4823 59.766 43.6987 59.9175C43.9152 60.069 44.0623 60.2997 44.1078 60.5589V60.5589C44.1528 60.8182 44.0925 61.0847 43.9401 61.2999C43.7877 61.515 43.5557 61.6613 43.2949 61.7065V61.7065Z" fill="#1D1D1B"/>
<path d="M111.811 71.7496C111.641 71.4553 111.385 71.219 111.078 71.0718C110.77 70.9246 110.424 70.8733 110.087 70.9247C108.825 71.0482 109.155 69.9146 107.741 69.7322C106.327 69.5498 106.07 69.9651 104.354 68.5257C102.638 67.0863 101.204 69.648 99.923 68.593C98.6415 67.538 97.727 65.8124 95.5565 66.4774C93.386 67.1424 94.3033 68.8371 93.0162 69.4769C91.7292 70.1166 90.3913 70.3186 89.8494 71.7833L111.811 71.7496Z" fill="#FFC5C1"/>
<path d="M43.281 71.2839C43.4509 70.989 43.7065 70.7521 44.0143 70.6044C44.3221 70.4567 44.6677 70.405 45.0056 70.4561C46.2672 70.5796 45.937 69.4488 47.3511 69.2636C48.7652 69.0784 49.022 69.4965 50.7381 68.0599C52.4542 66.6233 53.888 69.1823 55.1695 68.1245C56.4509 67.0666 57.3654 65.3439 59.5359 66.0088C61.7064 66.6738 60.7891 68.3714 62.0762 69.0111C63.3633 69.6508 64.7011 69.8529 65.2431 71.3175L43.281 71.2839Z" fill="#FFC5C1"/>
<path d="M113.694 8.91418H90.9731C90.9731 8.91418 92.1021 6.18969 93.5275 6.07465C94.9529 5.95961 95.3452 6.82943 95.7997 6.74525C96.2541 6.66107 96.9936 4.41358 98.8113 4.29854C100.629 4.1835 101.352 5.87263 102.334 6.18127C103.316 6.48992 105.286 6.31876 106.822 3.86364C108.357 1.40851 111.264 4.04321 111.338 5.93716C111.451 8.84403 115.91 7.23066 115.91 8.91418H113.694Z" fill="white"/>
<path d="M23.6556 34.1669H0.934326C0.934326 34.1669 2.06334 31.4424 3.4746 31.3273C4.88586 31.2123 5.2923 32.0821 5.74673 31.9979C6.20115 31.9138 6.94066 29.6663 8.75836 29.5512C10.5761 29.4362 11.2986 31.1253 12.2809 31.434C13.2631 31.7426 15.2332 31.5715 16.7687 29.1163C18.3041 26.6612 21.2113 29.2959 21.2847 31.1899C21.3976 34.0967 25.8572 32.4834 25.8572 34.1669H23.6556Z" fill="white"/>
</svg>
