<svg width="107" height="107" viewBox="0 0 107 107" fill="none" xmlns="http://www.w3.org/2000/svg">
<path d="M96.2786 85.2769H89.1909V85.3304H96.2786V85.2769Z" fill="#FFC5C1"/>
<path d="M70.8811 85.8589H69.0215V85.9124H70.8811V85.8589Z" fill="#FFC5C1"/>
<path d="M88.977 83.291H84.8704V83.3445H88.977V83.291Z" fill="#FFC5C1"/>
<path d="M20.4692 83.6504H11.2266V83.7039H20.4692V83.6504Z" fill="#FFC5C1"/>
<path d="M23.7304 83.6504H22.3757V83.7039H23.7304V83.6504Z" fill="#FFC5C1"/>
<path d="M48.182 84.5535H28.1345V84.607H48.182V84.5535Z" fill="#FFC5C1"/>
<path d="M50.7181 72.2892H9.3968C9.07309 72.2886 8.76284 72.1597 8.53414 71.9306C8.30545 71.7015 8.177 71.391 8.177 71.0673V12.9813C8.17982 12.6594 8.30951 12.3517 8.5379 12.1249C8.76629 11.8981 9.07494 11.7706 9.3968 11.77H50.7181C51.0421 11.77 51.3529 11.8988 51.5821 12.1279C51.8113 12.3571 51.94 12.6679 51.94 12.992V71.0673C51.94 71.3914 51.8113 71.7022 51.5821 71.9313C51.3529 72.1605 51.0421 72.2892 50.7181 72.2892ZM9.3968 11.8128C9.08728 11.8134 8.79064 11.9367 8.57197 12.1558C8.35331 12.3749 8.2305 12.6717 8.2305 12.9813V71.0673C8.2305 71.3768 8.35331 71.6737 8.57197 71.8927C8.79064 72.1118 9.08728 72.2351 9.3968 72.2357H50.7181C51.0278 72.2351 51.3246 72.1119 51.5436 71.8929C51.7626 71.6739 51.8859 71.377 51.8865 71.0673V12.9813C51.8859 12.6715 51.7626 12.3747 51.5436 12.1557C51.3246 11.9367 51.0278 11.8134 50.7181 11.8128H9.3968Z" fill="#FFC5C1"/>
<path d="M97.0082 72.2892H55.6848C55.3609 72.2886 55.0505 72.1597 54.8214 71.9307C54.5924 71.7017 54.4635 71.3912 54.4629 71.0673V12.9813C54.4663 12.6592 54.5964 12.3515 54.8252 12.1247C55.0539 11.898 55.3628 11.7706 55.6848 11.77H97.0082C97.3297 11.7711 97.6378 11.8989 97.8657 12.1256C98.0937 12.3524 98.2231 12.6598 98.2259 12.9813V71.0673C98.2259 71.3906 98.0977 71.7008 97.8695 71.9298C97.6413 72.1588 97.3316 72.2881 97.0082 72.2892ZM55.6848 11.8128C55.3751 11.8134 55.0782 11.9367 54.8592 12.1557C54.6402 12.3747 54.517 12.6715 54.5164 12.9813V71.0673C54.517 71.377 54.6402 71.6739 54.8592 71.8929C55.0782 72.1119 55.3751 72.2351 55.6848 72.2357H97.0082C97.3179 72.2351 97.6148 72.1119 97.8338 71.8929C98.0528 71.6739 98.1761 71.377 98.1767 71.0673V12.9813C98.1761 12.6715 98.0528 12.3747 97.8338 12.1557C97.6148 11.9367 97.3179 11.8134 97.0082 11.8128H55.6848Z" fill="#FFC5C1"/>
<path d="M107 81.8335H0V81.887H107V81.8335Z" fill="#FFC5C1"/>
<path d="M15.1641 60.3481C13.9914 60.8082 13.0027 61.6449 12.1424 62.5673C10.7236 64.0909 9.54658 66.2053 10.1886 68.1912C10.4925 69.1306 11.5004 70.0038 12.3992 69.5972C13.0947 69.2826 13.3087 68.4009 13.3301 67.6391C13.3515 66.8772 13.2787 66.049 13.7046 65.4135C14.2396 64.6131 15.4487 64.4547 16.2897 64.9255C17.1307 65.3963 17.6187 66.3465 17.7492 67.3031C17.896 68.4063 17.6325 69.525 17.0088 70.4467C16.4716 71.2364 15.6777 71.8634 15.3224 72.7494C14.8431 73.9392 15.2647 75.281 15.6884 76.4922C15.7078 76.5715 15.746 76.6448 15.7997 76.7062C15.8611 76.7561 15.9352 76.788 16.0137 76.7983C16.2244 76.8271 16.4389 76.8108 16.6428 76.7503C16.8468 76.6899 17.0355 76.5867 17.1965 76.4476C17.3574 76.3085 17.4869 76.1367 17.5763 75.9437C17.6657 75.7506 17.713 75.5408 17.715 75.3281C17.6893 74.8273 17.4025 74.3672 17.3811 73.8665C17.3405 72.8735 18.2842 72.1737 18.9733 71.459C20.8543 69.5009 21.139 66.5263 21.0576 63.8127C21.0341 63.0573 20.9849 62.2762 20.6489 61.6C19.8079 59.8837 16.7134 59.7275 15.1641 60.3481Z" fill="#FFC5C1"/>
<path d="M17.3104 77.7442C16.8709 77.8939 16.5047 78.2052 16.2861 78.6149C16.0676 79.0246 16.013 79.5021 16.1334 79.9505C16.2837 80.3899 16.5854 80.7616 16.9844 80.9991C17.3835 81.2367 17.854 81.3247 18.3119 81.2474C18.5971 81.1903 18.8664 81.0714 19.1008 80.8991C19.3352 80.7268 19.529 80.5053 19.6687 80.2501C19.8527 79.9111 19.9274 79.5236 19.8826 79.1404C19.8377 78.7573 19.6756 78.3975 19.4183 78.1101C18.8897 77.5687 17.3104 77.7442 17.3104 77.7442Z" fill="#3B52B5"/>
<path d="M13.0819 25.8469L11.6781 25.3954L10.2036 26.735C10.1283 26.3299 10.1577 25.9123 10.289 25.5218C10.4204 25.1313 10.6494 24.7808 10.9542 24.5036C11.259 24.2264 11.6297 24.0317 12.0309 23.938C12.4321 23.8442 12.8506 23.8546 13.2467 23.968L16.0137 21.4556L18.2265 19.4462L20.9935 16.9381C20.919 16.5333 20.949 16.1162 21.0808 15.7263C21.2125 15.3364 21.4416 14.9866 21.7463 14.7099C22.051 14.4333 22.4213 14.239 22.8221 14.1455C23.2229 14.0519 23.6409 14.0622 24.0366 14.1753L22.5621 15.515L22.8746 16.9552L24.2784 17.4046L25.7529 16.0671C25.8284 16.4721 25.7991 16.8897 25.6678 17.2803C25.5364 17.6708 25.3074 18.0212 25.0025 18.2983C24.6975 18.5754 24.3268 18.7698 23.9255 18.8632C23.5242 18.9567 23.1057 18.9459 22.7098 18.832L19.9428 21.3401L17.73 23.3517L14.963 25.8619C15.0381 26.2668 15.0085 26.6841 14.877 27.0743C14.7454 27.4645 14.5164 27.8146 14.2115 28.0914C13.9066 28.3682 13.5361 28.5625 13.135 28.6558C12.7339 28.7491 12.3157 28.7384 11.9199 28.6246L13.3944 27.2871L13.0819 25.8469Z" fill="#3B52B5"/>
<path opacity="0.4" d="M13.0819 25.8469L11.6781 25.3954L10.2036 26.735C10.1283 26.3299 10.1577 25.9123 10.289 25.5218C10.4204 25.1313 10.6494 24.7808 10.9542 24.5036C11.259 24.2264 11.6297 24.0317 12.0309 23.938C12.4321 23.8442 12.8506 23.8546 13.2467 23.968L16.0137 21.4556L18.2265 19.4462L20.9935 16.9381C20.919 16.5333 20.949 16.1162 21.0808 15.7263C21.2125 15.3364 21.4416 14.9866 21.7463 14.7099C22.051 14.4333 22.4213 14.239 22.8221 14.1455C23.2229 14.0519 23.6409 14.0622 24.0366 14.1753L22.5621 15.515L22.8746 16.9552L24.2784 17.4046L25.7529 16.0671C25.8284 16.4721 25.7991 16.8897 25.6678 17.2803C25.5364 17.6708 25.3074 18.0212 25.0025 18.2983C24.6975 18.5754 24.3268 18.7698 23.9255 18.8632C23.5242 18.9567 23.1057 18.9459 22.7098 18.832L19.9428 21.3401L17.73 23.3517L14.963 25.8619C15.0381 26.2668 15.0085 26.6841 14.877 27.0743C14.7454 27.4645 14.5164 27.8146 14.2115 28.0914C13.9066 28.3682 13.5361 28.5625 13.135 28.6558C12.7339 28.7491 12.3157 28.7384 11.9199 28.6246L13.3944 27.2871L13.0819 25.8469Z" fill="#3B52B5"/>
<path d="M12.8399 17.4346L10.8711 14.965L12.23 13.7302L14.5005 15.9194L14.7659 16.5101C14.8478 16.6915 14.9576 16.859 15.0912 17.0066L17.8175 20.0026L16.5763 21.1303L13.85 18.1343C13.718 17.9876 13.5643 17.862 13.3942 17.762L12.8399 17.4346Z" fill="#3B52B5"/>
<path opacity="0.7" d="M12.8399 17.4346L10.8711 14.965L12.23 13.7302L14.5005 15.9194L14.7659 16.5101C14.8478 16.6915 14.9576 16.859 15.0912 17.0066L17.8175 20.0026L16.5763 21.1303L13.85 18.1343C13.718 17.9876 13.5643 17.862 13.3942 17.762L12.8399 17.4346Z" fill="#FACA44"/>
<path d="M10.9011 15.0035L10.8711 14.965L12.23 13.7302L12.2664 13.7645C12.3605 13.9528 12.1786 14.3294 11.8255 14.6504C11.4724 14.9714 11.0808 15.1148 10.9011 15.0035Z" fill="#3B52B5"/>
<path d="M17.6165 22.7054L16.7969 21.8045L16.7434 21.8537C16.6807 21.9105 16.598 21.94 16.5135 21.9358C16.429 21.9316 16.3497 21.894 16.2929 21.8312C16.2361 21.7685 16.2066 21.6858 16.2108 21.6014C16.2151 21.5169 16.2527 21.4375 16.3154 21.3808L18.0959 19.7651C18.1586 19.7083 18.2413 19.6788 18.3257 19.683C18.3676 19.6851 18.4086 19.6954 18.4464 19.7133C18.4843 19.7313 18.5182 19.7565 18.5463 19.7875C18.5744 19.8186 18.5961 19.8549 18.6102 19.8943C18.6243 19.9338 18.6305 19.9756 18.6284 20.0174C18.6263 20.0593 18.616 20.1003 18.5981 20.1381C18.5801 20.176 18.5549 20.2099 18.5239 20.238L18.4704 20.2872L19.2878 21.186C19.4485 21.1659 19.6116 21.1874 19.7615 21.2485C19.9114 21.3096 20.043 21.4082 20.1438 21.5349L24.8583 26.75C25.4211 27.3706 25.0915 28.034 24.4731 28.5883C23.8546 29.1426 23.1677 29.4143 22.607 28.8023L17.8819 23.5828C17.7669 23.4711 17.6822 23.3319 17.6358 23.1784C17.5894 23.0249 17.5827 22.8622 17.6165 22.7054Z" fill="#3B52B5"/>
<path opacity="0.4" d="M17.6165 22.7054L16.7969 21.8045L16.7434 21.8537C16.6807 21.9105 16.598 21.94 16.5135 21.9358C16.429 21.9316 16.3497 21.894 16.2929 21.8312C16.2361 21.7685 16.2066 21.6858 16.2108 21.6014C16.2151 21.5169 16.2527 21.4375 16.3154 21.3808L18.0959 19.7651C18.1586 19.7083 18.2413 19.6788 18.3257 19.683C18.3676 19.6851 18.4086 19.6954 18.4464 19.7133C18.4843 19.7313 18.5182 19.7565 18.5463 19.7875C18.5744 19.8186 18.5961 19.8549 18.6102 19.8943C18.6243 19.9338 18.6305 19.9756 18.6284 20.0174C18.6263 20.0593 18.616 20.1003 18.5981 20.1381C18.5801 20.176 18.5549 20.2099 18.5239 20.238L18.4704 20.2872L19.2878 21.186C19.4485 21.1659 19.6116 21.1874 19.7615 21.2485C19.9114 21.3096 20.043 21.4082 20.1438 21.5349L24.8583 26.75C25.4211 27.3706 25.0915 28.034 24.4731 28.5883C23.8546 29.1426 23.1677 29.4143 22.607 28.8023L17.8819 23.5828C17.7669 23.4711 17.6822 23.3319 17.6358 23.1784C17.5894 23.0249 17.5827 22.8622 17.6165 22.7054Z" fill="#FFC5C1"/>
<path opacity="0.7" d="M84.7826 27.6103L87.0061 28.6974L88.0183 28.1924L84.5601 26.4996L84.7826 27.6103Z" fill="#FACA44"/>
<path d="M86.2056 16.05C85.8957 16.6886 85.724 17.3855 85.7019 18.095C85.6798 18.8045 85.8077 19.5107 86.0772 20.1674C86.2619 20.5989 86.3527 21.0648 86.3434 21.5342C86.3342 22.0035 86.2252 22.4655 86.0237 22.8894L85.8546 23.234L89.8094 25.16L89.9784 24.8154C90.1892 24.3964 90.4868 24.0271 90.8513 23.7319C91.2159 23.4367 91.639 23.2225 92.0927 23.1034C93.0997 22.8228 93.9947 22.2364 94.654 21.4251C95.3133 20.6139 95.7044 19.6179 95.7732 18.5748C95.8421 17.5317 95.5853 16.493 95.0383 15.6022C94.4913 14.7113 93.6811 14.0124 92.7198 13.6018C91.5262 13.1048 90.1882 13.0814 88.978 13.5362C87.7678 13.991 86.7764 14.89 86.2056 16.05Z" fill="#FACA44"/>
<path d="M91.7303 20.2638L88.4993 24.4579L88.74 24.6433L91.9711 20.4492L91.7303 20.2638Z" fill="#3B52B5"/>
<path d="M88.1307 18.3895L86.8071 23.525L87.1019 23.601L88.4255 18.4655L88.1307 18.3895Z" fill="#3B52B5"/>
<path d="M88.581 21.2717L89.6168 20.5483L89.681 21.8088L91.2902 21.1283L91.1704 20.8479L89.9613 21.3594L89.8928 19.9834L88.7629 20.773L88.4248 19.504L88.1316 19.5832L88.581 21.2717Z" fill="#3B52B5"/>
<path d="M85.8654 23.204L84.3225 26.3583L88.2665 28.3143L89.8095 25.1599L85.8654 23.204Z" fill="#3B52B5"/>
<path d="M87.7164 78.0245C87.0487 74.2884 86.7235 70.4991 86.7449 66.7039C86.7449 64.7886 87.0081 61.264 89.4691 60.8124C91.8638 60.3737 91.7653 63.4553 91.7075 65.0347C91.6241 67.3245 87.6287 77.543 87.7164 78.0245Z" fill="#FFC5C1"/>
<path d="M88.3006 79.6208C88.6187 79.9061 88.8163 80.3017 88.8532 80.7274C88.8902 81.1531 88.7638 81.5769 88.4996 81.9127C88.2135 82.2305 87.8236 82.4361 87.3997 82.4926C86.9758 82.5491 86.5456 82.4527 86.1863 82.2209C85.9655 82.0706 85.7803 81.8738 85.6439 81.6441C85.5074 81.4145 85.423 81.1577 85.3966 80.8919C85.366 80.5402 85.444 80.1875 85.62 79.8814C85.796 79.5753 86.0616 79.3305 86.381 79.18C87.0273 78.9018 88.3006 79.6208 88.3006 79.6208Z" fill="#3B52B5"/>
<path d="M53.5 91.3801C76.4157 91.3801 94.9925 90.2955 94.9925 88.9576C94.9925 87.6197 76.4157 86.5352 53.5 86.5352C30.5844 86.5352 12.0076 87.6197 12.0076 88.9576C12.0076 90.2955 30.5844 91.3801 53.5 91.3801Z" fill="#7EABFF"/>
<path d="M52.8579 20.2615L82.1117 14.4835C82.2964 14.4451 82.487 14.4456 82.6715 14.4849C82.8559 14.5242 83.0302 14.6014 83.1832 14.7117C83.3362 14.822 83.4645 14.963 83.56 15.1256C83.6556 15.2882 83.7162 15.4689 83.7381 15.6563L88.9512 66.2694C88.9681 66.4554 88.9461 66.6429 88.8866 66.82C88.8272 66.9971 88.7315 67.1598 88.6057 67.2979C88.4799 67.436 88.3267 67.5464 88.1559 67.6221C87.9851 67.6977 87.8005 67.737 87.6137 67.7374L52.8579 68.2147V20.2615Z" fill="#3B52B5"/>
<path d="M52.7531 20.4006C52.7531 20.4006 72.561 15.9365 81.1787 16.4544L85.356 65.3491C85.356 65.3491 78.799 63.6371 72.516 64.8355C66.0554 66.066 52.751 68.2146 52.751 68.2146L52.7531 20.4006Z" fill="#3B52B5"/>
<path opacity="0.7" d="M52.7531 20.4006C52.7531 20.4006 72.561 15.9365 81.1787 16.4544L85.356 65.3491C85.356 65.3491 78.799 63.6371 72.516 64.8355C66.0554 66.066 52.751 68.2146 52.751 68.2146L52.7531 20.4006Z" fill="#EDF0F4"/>
<path d="M55.366 19.3349C55.366 19.3349 66.1367 14.873 72.9568 14.4857L79.822 14.0962L83.7275 63.6586C83.7275 63.6586 77.331 61.0606 70.7719 62.6699C64.2128 64.2792 55.7791 67.0762 52.8965 68.1141V20.2444L55.366 19.3349Z" fill="#3B52B5"/>
<path opacity="0.8" d="M55.4025 19.3349C55.4025 19.3349 66.1753 14.873 72.9955 14.4857L79.8627 14.0962L83.7682 63.6586C83.7682 63.6586 77.3696 61.0606 70.8127 62.6699C64.2557 64.2792 55.8198 67.0762 52.9373 68.1141V20.2444L55.4025 19.3349Z" fill="#EDF0F4"/>
<path d="M52.8986 20.2615L24.2932 14.4835C24.1107 14.4467 23.9225 14.4485 23.7407 14.4888C23.5588 14.529 23.3875 14.6069 23.2375 14.7173C23.0876 14.8278 22.9624 14.9683 22.87 15.13C22.7776 15.2917 22.7201 15.4709 22.7011 15.6562L17.6057 66.2736C17.5874 66.4575 17.6073 66.6432 17.6644 66.8189C17.7215 66.9946 17.8144 67.1566 17.9373 67.2946C18.0602 67.4326 18.2104 67.5436 18.3784 67.6205C18.5464 67.6975 18.7285 67.7387 18.9133 67.7416L52.9008 68.2146L52.8986 20.2615Z" fill="#3B52B5"/>
<path d="M52.8985 20.2615C52.8985 20.2615 34.4539 13.5119 25.8939 13.0048L21.554 65.1223C21.554 65.1223 28.2265 63.3483 34.4367 64.6686C40.647 65.989 52.9007 68.2146 52.9007 68.2146L52.8985 20.2615Z" fill="#3B52B5"/>
<path opacity="0.6" d="M52.8985 20.2615C52.8985 20.2615 34.4539 13.5119 25.8939 13.0048L21.554 65.1223C21.554 65.1223 28.2265 63.3483 34.4367 64.6686C40.647 65.989 52.9007 68.2146 52.9007 68.2146L52.8985 20.2615Z" fill="#EDF0F4"/>
<path d="M50.8143 19.1359C50.8143 19.1359 40.5894 13.7516 34.148 12.7886L27.6873 11.8235L24.03 60.7182C24.03 60.7182 30.0327 58.758 36.2109 61.0007C42.3891 63.2434 50.4205 66.8857 53.1661 68.2146V20.2615L50.8143 19.1359Z" fill="#3B52B5"/>
<path opacity="0.7" d="M50.8143 19.1359C50.8143 19.1359 40.5894 13.7516 34.148 12.7886L27.6873 11.8235L24.03 60.7182C24.03 60.7182 30.0327 58.758 36.2109 61.0007C42.3891 63.2434 50.4205 66.8857 53.1661 68.2146V20.2615L50.8143 19.1359Z" fill="#EDF0F4"/>
<path d="M48.1243 28.1282L49.8042 27.1802L51.4755 31.2569L48.1243 28.1282Z" fill="#3B52B5"/>
<path d="M57.2641 29.776L55.7489 28.5819L53.4741 32.3547L57.2641 29.776Z" fill="#3B52B5"/>
<path d="M51.7429 26.0609L54.0006 26.2749L52.875 31.336L51.7429 26.0609Z" fill="#3B52B5"/>
<path d="M68.48 14.1026C68.4551 14.1021 68.4312 14.0932 68.4121 14.0772C68.393 14.0613 68.38 14.0393 68.3751 14.0149C68.3723 14.0011 68.3724 13.9869 68.3752 13.9731C68.378 13.9593 68.3836 13.9463 68.3916 13.9347C68.3996 13.9231 68.4098 13.9132 68.4217 13.9057C68.4336 13.8981 68.4468 13.8931 68.4607 13.8908C69.1626 13.7538 69.871 13.6361 70.5643 13.5377C70.5927 13.5337 70.6215 13.5412 70.6444 13.5584C70.6673 13.5757 70.6823 13.6013 70.6863 13.6297C70.6903 13.6581 70.6828 13.6869 70.6656 13.7097C70.6483 13.7326 70.6227 13.7477 70.5943 13.7517C69.9052 13.8501 69.2011 13.9657 68.5014 14.1026H68.48Z" fill="#3B52B5"/>
<path d="M59.4728 16.7819C59.4444 16.7873 59.415 16.7812 59.3911 16.7649C59.3673 16.7487 59.3508 16.7236 59.3454 16.6952C59.34 16.6668 59.3461 16.6375 59.3624 16.6136C59.3786 16.5897 59.4037 16.5733 59.4321 16.5679C62.0513 15.5132 64.7543 14.6799 67.5127 14.0769C67.5408 14.0712 67.57 14.0767 67.594 14.0923C67.618 14.108 67.635 14.1324 67.6411 14.1604C67.6443 14.174 67.6446 14.1881 67.6422 14.2019C67.6398 14.2157 67.6347 14.2289 67.6271 14.2406C67.6195 14.2524 67.6097 14.2625 67.5981 14.2704C67.5865 14.2783 67.5735 14.2838 67.5598 14.2866C64.8132 14.8867 62.1217 15.7156 59.5134 16.7647C59.5013 16.7735 59.4874 16.7793 59.4728 16.7819Z" fill="#3B52B5"/>
<path d="M40.0843 69.4152H37.711C37.6826 69.4152 37.6554 69.4039 37.6353 69.3838C37.6153 69.3638 37.604 69.3366 37.604 69.3082C37.604 69.2798 37.6153 69.2526 37.6353 69.2325C37.6554 69.2124 37.6826 69.2012 37.711 69.2012H40.0843C40.1126 69.2012 40.1399 69.2124 40.1599 69.2325C40.18 69.2526 40.1913 69.2798 40.1913 69.3082C40.1913 69.3366 40.18 69.3638 40.1599 69.3838C40.1399 69.4039 40.1126 69.4152 40.0843 69.4152Z" fill="#3B52B5"/>
<path d="M36.4398 69.4152H27.9205C27.8921 69.4152 27.8649 69.4039 27.8448 69.3838C27.8247 69.3638 27.8135 69.3366 27.8135 69.3082C27.8135 69.2798 27.8247 69.2526 27.8448 69.2325C27.8649 69.2124 27.8921 69.2012 27.9205 69.2012H36.4398C36.468 69.2017 36.4949 69.2132 36.5149 69.2331C36.5348 69.2531 36.5463 69.28 36.5468 69.3082C36.5468 69.3366 36.5355 69.3638 36.5155 69.3838C36.4954 69.4039 36.4682 69.4152 36.4398 69.4152Z" fill="#3B52B5"/>
</svg>
