<svg width="117" height="85" viewBox="0 0 117 85" fill="none" xmlns="http://www.w3.org/2000/svg">
<g style="mix-blend-mode:multiply" opacity="0.39">
<path d="M58.319 84.9439C90.5276 84.9439 116.638 83.8372 116.638 82.472C116.638 81.1067 90.5276 80 58.319 80C26.1103 80 0 81.1067 0 82.472C0 83.8372 26.1103 84.9439 58.319 84.9439Z" fill="#344AAF"/>
</g>
<g clip-path="url(#clip0_170_232)">
<path d="M75.5695 8.79826H54.5777C52.551 8.79826 50.8928 7.56945 50.8928 6.08259C50.8928 4.59574 52.6001 3.36693 54.5777 3.36693H74.2307C75.3258 3.42633 76.4108 3.13081 77.3247 2.52426C78.2386 1.91771 78.9326 1.03247 79.3036 0L77.7068 0C77.3481 0.600305 76.8327 1.09143 76.2159 1.42053C75.5991 1.74964 74.9042 1.90427 74.2061 1.86779H54.5531C51.6666 1.86779 49.3205 3.76015 49.3205 6.08259C49.3205 8.40504 51.6666 10.2974 54.5531 10.2974H75.5695C77.7682 10.2974 79.2544 11.3788 79.2544 12.3618C79.2544 13.3448 77.7313 14.4385 75.5695 14.4385H37.5902C34.7037 14.4385 32.3699 16.1097 32.3699 18.1249C32.3699 20.1401 34.7037 21.8113 37.5902 21.8113H51.9368C52.9142 21.8113 53.8514 22.1997 54.5425 22.891C55.2335 23.5824 55.6218 24.52 55.6218 25.4977V35.5862C55.6082 35.6919 55.6172 35.7992 55.6483 35.9011C55.6795 36.003 55.7319 36.097 55.8023 36.177C55.8726 36.257 55.9591 36.3211 56.0561 36.365C56.1532 36.4089 56.2584 36.4316 56.3649 36.4316C56.4714 36.4316 56.5766 36.4089 56.6737 36.365C56.7707 36.3211 56.8572 36.257 56.9275 36.177C56.9979 36.097 57.0503 36.003 57.0815 35.9011C57.1126 35.7992 57.1216 35.6919 57.108 35.5862V25.6452C57.108 24.2601 56.558 22.9318 55.579 21.9524C54.6 20.973 53.2722 20.4228 51.8877 20.4228H37.5902C35.5635 20.4228 33.9053 19.3906 33.9053 18.1741C33.9053 16.9575 35.5635 15.9745 37.5902 15.9745H75.5695C78.4929 15.9745 80.7898 14.4139 80.7898 12.4109C80.7898 10.408 78.4929 8.79826 75.5695 8.79826Z" fill="#FF946B"/>
<path d="M85.9856 31.9489C86.5048 31.9356 87.0081 32.1285 87.3856 32.4854C87.763 32.8423 87.9839 33.3342 88 33.8535V77.0953C87.9839 77.6146 87.763 78.1064 87.3856 78.4633C87.0081 78.8202 86.5048 79.0131 85.9856 78.9999H27.0267C26.5063 79.0132 26.0016 78.8207 25.6222 78.4641C25.2428 78.1075 25.0192 77.6157 25 77.0953V33.9027C25.0032 33.6408 25.0583 33.3821 25.1622 33.1417C25.2661 32.9012 25.4167 32.6838 25.6052 32.5021C25.7937 32.3203 26.0165 32.1778 26.2605 32.0829C26.5045 31.9879 26.765 31.9424 27.0267 31.9489H85.9856Z" fill="#004F87"/>
<path d="M85.9855 31.9489H56.5061V78.9999H85.9855C86.5047 79.0131 87.0081 78.8202 87.3855 78.4633C87.763 78.1064 87.9839 77.6146 88 77.0952V33.9027C87.9984 33.6413 87.9448 33.3829 87.8422 33.1425C87.7397 32.9022 87.5903 32.6847 87.4027 32.5027C87.2151 32.3208 86.9932 32.1781 86.7499 32.083C86.5065 31.9879 86.2467 31.9423 85.9855 31.9489Z" fill="#003961"/>
<path d="M80.8266 35.1316H31.3135V75.8788H80.8266V35.1316Z" fill="#283D93"/>
<path d="M31.3135 68.4077V35.1316H71.7617L31.3135 68.4077Z" fill="#7EABFF"/>
<path d="M85.4083 37.6628C85.6494 37.6628 85.8806 37.7586 86.051 37.9292C86.2215 38.0997 86.3173 38.331 86.3173 38.5722V40.5505C86.314 40.7896 86.2168 41.0177 86.0467 41.1856C85.8766 41.3535 85.6473 41.4476 85.4083 41.4476H83.3816C83.1426 41.4476 82.9133 41.3535 82.7432 41.1856C82.5731 41.0177 82.4759 40.7896 82.4727 40.5505V38.5722C82.4727 38.331 82.5684 38.0997 82.7389 37.9292C82.9093 37.7586 83.1405 37.6628 83.3816 37.6628H85.4083Z" fill="#283D93"/>
<path d="M85.4083 43.4875C85.6473 43.4875 85.8766 43.5816 86.0467 43.7495C86.2168 43.9174 86.314 44.1455 86.3173 44.3846V46.4244C86.314 46.6634 86.2168 46.8916 86.0467 47.0595C85.8766 47.2273 85.6473 47.3214 85.4083 47.3214H83.3816C83.1426 47.3214 82.9133 47.2273 82.7432 47.0595C82.5731 46.8916 82.4759 46.6634 82.4727 46.4244V44.3846C82.4759 44.1455 82.5731 43.9174 82.7432 43.7495C82.9133 43.5816 83.1426 43.4875 83.3816 43.4875H85.4083Z" fill="#283D93"/>
<path d="M85.4083 49.2998C85.6494 49.2998 85.8806 49.3956 86.051 49.5661C86.2215 49.7367 86.3173 49.968 86.3173 50.2091V52.2367C86.3173 52.4778 86.2215 52.7091 86.051 52.8796C85.8806 53.0502 85.6494 53.146 85.4083 53.146H83.3816C83.1405 53.146 82.9093 53.0502 82.7389 52.8796C82.5684 52.7091 82.4727 52.4778 82.4727 52.2367V50.2091C82.4727 49.968 82.5684 49.7367 82.7389 49.5661C82.9093 49.3956 83.1405 49.2998 83.3816 49.2998H85.4083Z" fill="#283D93"/>
<path d="M29.115 65.053H27.3708C26.9434 65.053 26.5969 65.3996 26.5969 65.8271V67.572C26.5969 67.9996 26.9434 68.3462 27.3708 68.3462H29.115C29.5423 68.3462 29.8888 67.9996 29.8888 67.572V65.8271C29.8888 65.3996 29.5423 65.053 29.115 65.053Z" fill="#7EABFF"/>
<path d="M29.115 70.1279H27.3708C26.9434 70.1279 26.5969 70.4745 26.5969 70.9021V72.647C26.5969 73.0745 26.9434 73.4211 27.3708 73.4211H29.115C29.5423 73.4211 29.8888 73.0745 29.8888 72.647V70.9021C29.8888 70.4745 29.5423 70.1279 29.115 70.1279Z" fill="#7EABFF"/>
<path d="M80.1142 20.0542C80.1142 20.0542 78.7753 19.022 76.5275 20.472C74.7833 21.6147 67.8433 31.5312 69.5753 34.7876C69.5753 34.7876 70.3 34.7876 70.8036 32.416C71.1699 30.1804 72.0073 28.0484 73.2602 26.1613C74.8447 23.6177 77.2153 20.9266 78.37 21.627L80.1142 20.0542Z" fill="#F52314"/>
<path d="M77.2647 38.3757C73.6412 46.7684 68.4208 54.4239 66.4064 53.5637C64.392 52.7035 66.4064 43.6349 70.0054 35.2422C73.6043 26.8494 79.2914 18.1618 81.2935 19.0219C83.2957 19.8821 80.8759 29.9829 77.2647 38.3757Z" fill="#FFDB88"/>
<path d="M69.2191 46.9526C68.2863 46.5411 67.2783 46.3278 66.2589 46.3259C65.3745 50.209 65.2885 53.0967 66.3694 53.5636C67.4503 54.0305 69.5016 51.9784 71.7126 48.6484C71.0071 47.9173 70.1582 47.3399 69.2191 46.9526Z" fill="#004F87"/>
<path d="M77.154 39.5676C76.8223 40.3295 76.4293 40.8947 75.5817 40.5261L69.5999 37.9456C68.7401 37.577 68.8752 36.9011 69.2068 36.1393C69.5385 35.3774 69.9315 34.8121 70.779 35.1808L76.7732 37.7613C77.6207 38.1299 77.4856 38.8058 77.154 39.5676Z" fill="url(#paint0_linear_170_232)"/>
<path d="M81.318 19.0342L66.394 53.5514C68.4085 54.4115 73.6288 46.7561 77.2523 38.3633C80.8758 29.9706 83.2956 19.9435 81.318 19.0342Z" fill="#FFB239"/>
<path d="M66.763 53.6253H66.9104H67.0087H67.1561H67.2543H67.414H67.5246L67.7088 53.5147H67.8071L68.0159 53.3673H68.0896L68.3598 53.1584C69.6702 51.925 70.8177 50.5293 71.7745 49.005C71.0822 48.2692 70.246 47.6836 69.3179 47.2847L66.3945 53.5516H66.6033L66.763 53.6253Z" fill="#003961"/>
<path d="M77.154 39.5676C76.8223 40.3295 76.4293 40.8947 75.5817 40.5261L69.5999 37.9456C68.7401 37.577 68.8752 36.9011 69.2068 36.1393C69.5385 35.3774 69.9315 34.8121 70.779 35.1808L76.7732 37.7613C77.6207 38.1299 77.4856 38.8058 77.154 39.5676Z" fill="#F52314"/>
<path d="M66.7626 52.7158C66.4327 52.5734 66.0778 52.4982 65.7185 52.4946C65.3992 53.8709 65.3746 54.9522 65.7185 55.0505C66.0625 55.1488 66.824 54.4976 67.6101 53.3302C67.3701 53.0724 67.0823 52.8637 66.7626 52.7158Z" fill="#F52314"/>
<path d="M76.7733 37.7612L73.764 36.4709L72.5356 39.2235L75.5819 40.5506C76.4294 40.9192 76.8102 40.354 77.1541 39.5921C77.498 38.8303 77.6208 38.093 76.7733 37.7612Z" fill="#FF946B"/>
<path d="M43.7932 73.2002C44.2354 70.89 44.4319 68.5676 44.7636 66.2328C44.8952 65.014 45.1799 63.8167 45.6111 62.6693C45.7476 62.2855 46.0066 61.9573 46.3481 61.7354C46.4861 61.6484 46.6432 61.5962 46.8058 61.5834C46.9684 61.5705 47.1317 61.5974 47.2816 61.6617C47.429 61.7411 47.5585 61.8498 47.6624 61.9811C47.7276 62.0703 47.7852 62.1648 47.8344 62.2638C48.0719 62.8654 48.2408 63.492 48.338 64.1316C48.5263 65.2626 48.7764 66.3825 49.0872 67.4862C49.1574 67.7169 49.2521 67.9393 49.3697 68.1498C49.4557 68.3464 49.5908 68.3587 49.3697 68.2972C49.3697 68.2972 49.4312 68.2972 49.3697 68.2972C49.3083 68.2972 49.3697 68.2972 49.3697 68.2972C49.4362 68.2599 49.4947 68.2098 49.5417 68.1498C49.6969 67.9766 49.8328 67.7871 49.947 67.5845C50.4669 66.5996 50.8787 65.5614 51.1754 64.4879C51.507 63.3943 51.7895 62.2761 52.0597 61.1578C52.5756 58.8968 53.0055 56.6113 53.4232 54.3134C53.5864 53.114 53.8327 51.9274 54.1601 50.7621C54.3504 50.0168 54.7824 49.3556 55.3885 48.8821C55.6145 48.7278 55.875 48.6314 56.147 48.6014C56.419 48.5714 56.6942 48.6087 56.9484 48.71C57.3987 48.9056 57.7615 49.2598 57.9679 49.7054C58.4105 50.8846 58.6433 52.1322 58.6558 53.3918C58.7663 54.4731 58.8891 55.7388 58.9751 56.8693C59.0611 57.9998 59.1962 59.1918 59.3682 60.2854C59.4118 60.5445 59.4775 60.7994 59.5647 61.0473C59.6154 61.2137 59.6989 61.3683 59.8104 61.5019C59.8907 61.476 59.9627 61.4294 60.0192 61.3667C60.203 61.1911 60.364 60.9929 60.4982 60.7769C60.7464 60.3846 60.964 59.9738 61.1492 59.5481C61.3684 59.0661 61.6315 58.6054 61.9353 58.1718C62.1086 57.9362 62.3254 57.7359 62.5741 57.582C62.7233 57.5092 62.8871 57.4714 63.0531 57.4714C63.2191 57.4714 63.3829 57.5092 63.5321 57.582C63.7805 57.7509 63.9662 57.9971 64.0603 58.2824C64.1586 58.5159 64.2691 58.6757 64.4411 58.7248C64.6175 58.7876 64.8085 58.7965 64.99 58.7506C65.1715 58.7047 65.3353 58.6059 65.4606 58.4668C65.7677 58.1964 66.0133 57.8524 66.2958 57.5574C66.0502 57.8892 65.8537 58.2579 65.5711 58.5773C65.4289 58.7517 65.2481 58.8905 65.043 58.9829C64.8175 59.0689 64.5683 59.0689 64.3428 58.9829C64.1988 58.9405 64.0653 58.8683 63.951 58.7709C63.8367 58.6735 63.7442 58.5531 63.6795 58.4176C63.5567 58.1964 63.4339 57.9875 63.2988 57.9384C62.9671 57.8278 62.6109 58.0981 62.3898 58.5036C62.1493 58.9208 61.9518 59.3613 61.8002 59.8184C61.6362 60.3318 61.4265 60.8294 61.1738 61.3053C61.0148 61.5979 60.8209 61.8703 60.5965 62.1163C60.4572 62.2657 60.2904 62.3867 60.1052 62.4727C59.9743 62.5332 59.8318 62.5646 59.6875 62.5646C59.5433 62.5646 59.4008 62.5332 59.2699 62.4727C58.9079 62.2648 58.6331 61.9332 58.4961 61.5388C58.3644 61.2451 58.2576 60.941 58.1767 60.6295C57.8942 59.4006 57.7345 58.2701 57.5748 57.1028L57.0958 53.6007C57.1127 52.5086 56.9509 51.4211 56.6168 50.3812C56.5308 50.1969 56.3957 50.1109 56.4325 50.1477C56.4694 50.1846 56.3711 50.1477 56.322 50.1477C56.0533 50.4508 55.8598 50.8128 55.7569 51.2045C55.4726 52.2955 55.2592 53.4037 55.1182 54.5223C54.7375 56.8447 54.283 59.1549 53.718 61.4528C53.2381 63.8319 52.4365 66.1346 51.335 68.2972C51.1493 68.5988 50.931 68.879 50.684 69.1328C50.535 69.2915 50.3607 69.4244 50.1681 69.526C50.0463 69.5996 49.9137 69.6536 49.7751 69.6858H49.6031H49.3452C49.183 69.6803 49.0235 69.6427 48.8759 69.5752C48.7284 69.5077 48.5956 69.4117 48.4854 69.2925C48.3292 69.1348 48.2005 68.9521 48.1046 68.7519C47.9435 68.4484 47.8198 68.1266 47.7361 67.7934C47.4167 66.5646 47.3062 65.4095 47.1219 64.2667C47.0597 63.7363 46.9445 63.2135 46.778 62.7061V62.6078C46.9131 62.6078 46.8763 62.6078 46.8886 62.6078C46.9008 62.6078 46.6552 62.8167 46.5446 63.0379C46.088 64.1045 45.7463 65.2167 45.5251 66.3557C44.9478 68.6413 44.5793 70.976 43.7932 73.2002Z" fill="#FF946B"/>
</g>
<defs>
<linearGradient id="paint0_linear_170_232" x1="69.8563" y1="36.413" x2="77.8242" y2="39.8759" gradientUnits="userSpaceOnUse">
<stop stop-color="#BDBDBD"/>
<stop offset="0.12" stop-color="#ABABAB"/>
<stop offset="0.32" stop-color="#919191"/>
<stop offset="0.53" stop-color="#7F7F7F"/>
<stop offset="0.76" stop-color="#747474"/>
<stop offset="1" stop-color="#707070"/>
</linearGradient>
<clipPath id="clip0_170_232">
<rect width="63" height="79" fill="white" transform="translate(25)"/>
</clipPath>
</defs>
</svg>
