<svg width="114" height="114" viewBox="0 0 114 114" fill="none" xmlns="http://www.w3.org/2000/svg">
<path d="M100.639 61.7333C101.095 55.6343 99.6725 49.2617 97.7573 43.5845C94.9141 35.1485 89.3965 26.4982 80.101 24.5032C74.7407 23.3632 69.2869 24.5852 64.6927 27.4672C60.2718 30.2419 56.8267 33.8238 51.3935 34.5192C45.8987 35.2214 40.2602 34.9387 34.7358 34.9387C20.5337 34.9387 9.006 49.7587 11.8879 65.1966C14.7698 80.6345 28.3541 91.3368 39.8818 91.3368C50.2398 91.3368 58.7602 85.1649 68.6098 83.5073C73.489 82.6865 78.3864 83.6578 83.2154 82.4266C88.8265 80.9947 94.1024 77.5793 97.2123 72.634C99.3191 69.2664 100.35 65.5523 100.639 61.7333Z" fill="#FFB8AE"/>
<path opacity="0.7" d="M100.639 61.7333C101.095 55.6343 99.6725 49.2617 97.7573 43.5845C94.9141 35.1485 89.3965 26.4982 80.101 24.5032C74.7407 23.3632 69.2869 24.5852 64.6927 27.4672C60.2718 30.2419 56.8267 33.8238 51.3935 34.5192C45.8987 35.2214 40.2602 34.9387 34.7358 34.9387C20.5337 34.9387 9.006 49.7587 11.8879 65.1966C14.7698 80.6345 28.3541 91.3368 39.8818 91.3368C50.2398 91.3368 58.7602 85.1649 68.6098 83.5073C73.489 82.6865 78.3864 83.6578 83.2154 82.4266C88.8265 80.9947 94.1024 77.5793 97.2123 72.634C99.3191 69.2664 100.35 65.5523 100.639 61.7333Z" fill="white"/>
<path d="M56.2453 96.4849C80.7432 96.4849 100.603 95.9317 100.603 95.2492C100.603 94.5667 80.7432 94.0134 56.2453 94.0134C31.7474 94.0134 11.8879 94.5667 11.8879 95.2492C11.8879 95.9317 31.7474 96.4849 56.2453 96.4849Z" fill="#283D93"/>
<path d="M78.7168 94.1229H74.6128V20.1643L78.7168 24.9363V94.1229Z" stroke="#283D93" stroke-linecap="round" stroke-linejoin="round"/>
<path d="M74.6516 76.7084H78.6781L74.6516 72.8164H78.6781L74.6516 76.7084Z" stroke="#283D93" stroke-linecap="round" stroke-linejoin="round"/>
<path d="M74.6516 72.7184H78.6781L74.6516 68.8264H78.6781L74.6516 72.7184Z" stroke="#283D93" stroke-linecap="round" stroke-linejoin="round"/>
<path d="M74.6516 84.6542H78.6781L74.6516 80.7622H78.6781L74.6516 84.6542Z" stroke="#283D93" stroke-linecap="round" stroke-linejoin="round"/>
<path d="M74.6516 80.6642H78.6781L74.6516 76.7722H78.6781L74.6516 80.6642Z" stroke="#283D93" stroke-linecap="round" stroke-linejoin="round"/>
<path d="M74.6516 68.7284H78.6781L74.6516 64.8364H78.6781L74.6516 68.7284Z" stroke="#283D93" stroke-linecap="round" stroke-linejoin="round"/>
<path d="M74.6516 64.7384H78.6781L74.6516 60.8464H78.6781L74.6516 64.7384Z" stroke="#283D93" stroke-linecap="round" stroke-linejoin="round"/>
<path d="M74.6516 60.7484H78.6781L74.6516 56.8564H78.6781L74.6516 60.7484Z" stroke="#283D93" stroke-linecap="round" stroke-linejoin="round"/>
<path d="M74.6516 56.7584H78.6781L74.6516 52.8665H78.6781L74.6516 56.7584Z" stroke="#283D93" stroke-linecap="round" stroke-linejoin="round"/>
<path d="M74.6516 52.7682H78.6781L74.6516 48.8762H78.6781L74.6516 52.7682Z" stroke="#283D93" stroke-linecap="round" stroke-linejoin="round"/>
<path d="M74.6516 48.7782H78.6781L74.6516 44.8862H78.6781L74.6516 48.7782Z" stroke="#283D93" stroke-linecap="round" stroke-linejoin="round"/>
<path d="M74.6516 44.7882H78.6781L74.6516 40.8962H78.6781L74.6516 44.7882Z" stroke="#283D93" stroke-linecap="round" stroke-linejoin="round"/>
<path d="M74.6516 40.7982H78.6781L74.6516 36.9062H78.6781L74.6516 40.7982Z" stroke="#283D93" stroke-linecap="round" stroke-linejoin="round"/>
<path d="M74.6516 36.8082H78.6781L74.6516 32.9163H78.6781L74.6516 36.8082Z" stroke="#283D93" stroke-linecap="round" stroke-linejoin="round"/>
<path d="M74.6516 32.8182H78.6781L74.6516 28.9263H78.6781L74.6516 32.8182Z" stroke="#283D93" stroke-linecap="round" stroke-linejoin="round"/>
<path d="M74.6516 28.8282H78.6781L74.6516 24.9363H78.6781L74.6516 28.8282Z" stroke="#283D93" stroke-linecap="round" stroke-linejoin="round"/>
<path d="M97.7687 28.9356L95.7805 27.6838H81.5944L79.8616 28.9356H97.7687Z" stroke="#283D93" stroke-linecap="round" stroke-linejoin="round"/>
<path d="M98.0969 28.8284H63.4409V29.7404H98.0969V28.8284Z" fill="#283D93" stroke="#283D93" stroke-linecap="round" stroke-linejoin="round"/>
<path d="M95.7803 27.6837L74.6128 20.1643L81.5942 27.6837" stroke="#283D93" stroke-linecap="round" stroke-linejoin="round"/>
<path d="M74.6129 20.1643L63.4409 28.8283" stroke="#283D93" stroke-linecap="round" stroke-linejoin="round"/>
<path d="M81.6809 30.7664H73.1309V36.2384H81.6809V30.7664Z" fill="#283D93" stroke="#283D93" stroke-linecap="round" stroke-linejoin="round"/>
<path d="M81.6809 88.7605H73.1309V94.2325H81.6809V88.7605Z" fill="#283D93" stroke="#283D93" stroke-linecap="round" stroke-linejoin="round"/>
<path d="M79.898 31.9062H74.9116V33.5023H79.898V31.9062Z" fill="white" stroke="#283D93" stroke-linecap="round" stroke-linejoin="round"/>
<path d="M98.0969 29.7402V39.5716" stroke="#283D93" stroke-linecap="round" stroke-linejoin="round"/>
<path d="M99.3988 42.9277H96.8657V45.7983H99.3988V42.9277Z" fill="#283D93" stroke="#283D93" stroke-linecap="round" stroke-linejoin="round"/>
<path d="M96.8657 42.9279L98.1311 39.3848L99.3988 42.9279" stroke="#283D93" stroke-linecap="round" stroke-linejoin="round"/>
<path d="M64.3347 88.0627V82.9919H49.3893V88.0672C49.3868 89.7237 48.8243 91.3307 47.7933 92.6272L47.1389 93.4526H66.5759L65.9193 92.6272C64.8921 91.3276 64.3338 89.7192 64.3347 88.0627Z" fill="white" stroke="#283D93" stroke-width="1.09543" stroke-linecap="round" stroke-linejoin="round"/>
<g style="mix-blend-mode:multiply">
<path d="M48.4705 91.6172H65.2535C64.6534 90.5287 64.3395 89.3056 64.3415 88.0627V82.9919H49.3893V88.0672C49.3884 89.3092 49.0723 90.5307 48.4705 91.6172Z" fill="#FFB8AE"/>
</g>
<path d="M64.3348 83.7512H49.3894V85.8944H64.3348V83.7512Z" fill="#283D93" stroke="#283D93" stroke-width="1.09543" stroke-linecap="round" stroke-linejoin="round"/>
<path d="M84.7794 39.5352H28.9445C27.7747 39.5352 26.8264 40.4835 26.8264 41.6533V82.4698C26.8264 83.6396 27.7747 84.588 28.9445 84.588H84.7794C85.9493 84.588 86.8976 83.6396 86.8976 82.4698V41.6533C86.8976 40.4835 85.9493 39.5352 84.7794 39.5352Z" fill="#283D93" stroke="#283D93" stroke-width="1.09543" stroke-linecap="round" stroke-linejoin="round"/>
<path d="M26.8264 77.5862H86.8976V82.4699C86.8976 83.0317 86.6744 83.5705 86.2772 83.9677C85.88 84.3649 85.3412 84.5881 84.7794 84.5881H28.9559C28.3942 84.5881 27.8554 84.3649 27.4582 83.9677C27.061 83.5705 26.8378 83.0317 26.8378 82.4699V77.5862H26.8264Z" fill="white" stroke="#283D93" stroke-width="1.09543" stroke-linecap="round" stroke-linejoin="round"/>
<path d="M83.8743 42.3396H29.8474V74.1684H83.8743V42.3396Z" fill="#FFB8AE" stroke="#283D93" stroke-width="1.09543" stroke-linecap="round" stroke-linejoin="round"/>
<path d="M57.9688 81.0881C57.9693 80.8689 57.9047 80.6544 57.7832 80.4719C57.6617 80.2894 57.4888 80.147 57.2864 80.0628C57.084 79.9786 56.8611 79.9563 56.646 79.9988C56.4309 80.0413 56.2332 80.1466 56.078 80.3015C55.9228 80.4564 55.8171 80.6538 55.7741 80.8688C55.7312 81.0839 55.753 81.3068 55.8368 81.5094C55.9206 81.712 56.0626 81.8852 56.2449 82.007C56.4272 82.1289 56.6415 82.1939 56.8608 82.1939C57.0062 82.1942 57.1502 82.1659 57.2846 82.1104C57.4191 82.055 57.5412 81.9736 57.6442 81.8709C57.7471 81.7682 57.8287 81.6461 57.8844 81.5118C57.9402 81.3775 57.9688 81.2335 57.9688 81.0881Z" fill="#283D93" stroke="#283D93" stroke-width="1.09543" stroke-linecap="round" stroke-linejoin="round"/>
<path d="M66.5805 93.4504H47.1458V94.3556H66.5805V93.4504Z" fill="white" stroke="#283D93" stroke-width="1.09543" stroke-linecap="round" stroke-linejoin="round"/>
<path d="M74.4443 50.315C75.0702 49.688 75.5325 48.9168 75.7906 48.0692C76.0486 47.2216 76.0944 46.3235 75.924 45.4541L72.5336 48.8444C72.341 49.036 72.0803 49.1436 71.8086 49.1436C71.5369 49.1436 71.2762 49.036 71.0835 48.8444L68.2655 46.0264C68.17 45.9311 68.0942 45.8179 68.0426 45.6933C67.9909 45.5687 67.9643 45.4351 67.9643 45.3002C67.9643 45.1653 67.9909 45.0317 68.0426 44.9071C68.0942 44.7825 68.17 44.6693 68.2655 44.574L71.6535 41.1859C70.704 41.0005 69.7221 41.0733 68.8103 41.3967C67.8985 41.7201 67.0902 42.2823 66.4697 43.0245C65.8492 43.7668 65.4393 44.662 65.2828 45.6167C65.1262 46.5715 65.2287 47.5507 65.5796 48.4523L56.8313 57L55.9877 56.1541L57.3557 54.7861C57.4256 54.7149 57.4647 54.6191 57.4647 54.5194C57.4647 54.4196 57.4256 54.3238 57.3557 54.2526L56.2886 53.1856C56.2181 53.1153 56.1226 53.0758 56.023 53.0758C55.9234 53.0758 55.8279 53.1153 55.7574 53.1856L55.2239 53.7191L54.0679 52.5654L54.5125 52.1208C54.6066 52.0264 54.6595 51.8985 54.6595 51.7651C54.6595 51.6318 54.6066 51.5039 54.5125 51.4094L44.9661 41.8631C44.7387 41.6353 44.4686 41.4546 44.1713 41.3313C43.8739 41.208 43.5552 41.1446 43.2333 41.1446C42.9115 41.1446 42.5927 41.208 42.2954 41.3313C41.9981 41.4546 41.728 41.6353 41.5005 41.8631L40.5247 42.8389C40.297 43.0662 40.1164 43.3361 39.9931 43.6332C39.8698 43.9304 39.8064 44.2489 39.8064 44.5706C39.8064 44.8923 39.8698 45.2108 39.9931 45.5079C40.1164 45.8051 40.297 46.075 40.5247 46.3022L50.0711 55.8509C50.1655 55.945 50.2934 55.9978 50.4267 55.9978C50.5601 55.9978 50.688 55.945 50.7824 55.8509L51.227 55.4063L52.3807 56.5622L51.8495 57.0935C51.8143 57.1284 51.7864 57.17 51.7674 57.2158C51.7483 57.2616 51.7385 57.3107 51.7385 57.3602C51.7385 57.4098 51.7483 57.4589 51.7674 57.5047C51.7864 57.5505 51.8143 57.592 51.8495 57.627L52.9142 58.694C52.9854 58.7639 53.0812 58.8031 53.181 58.8031C53.2808 58.8031 53.3766 58.7639 53.4477 58.694L54.8157 57.326L55.6457 58.156L48.3907 65.224C47.489 64.8733 46.5098 64.771 45.555 64.9276C44.6003 65.0842 43.7051 65.4941 42.9627 66.1144C42.2203 66.7348 41.6579 67.543 41.3342 68.4547C41.0104 69.3664 40.9372 70.3482 41.1221 71.2979L44.5124 67.9098C44.6077 67.8143 44.7209 67.7386 44.8455 67.6869C44.9701 67.6352 45.1037 67.6086 45.2386 67.6086C45.3735 67.6086 45.5071 67.6352 45.6317 67.6869C45.7563 67.7386 45.8695 67.8143 45.9648 67.9098L48.792 70.7096C48.8875 70.8049 48.9632 70.9181 49.0149 71.0427C49.0666 71.1673 49.0932 71.3009 49.0932 71.4358C49.0932 71.5707 49.0666 71.7043 49.0149 71.8289C48.9632 71.9535 48.8875 72.0667 48.792 72.162L45.4039 75.5501C46.3535 75.7352 47.3353 75.6623 48.247 75.3388C49.1588 75.0154 49.9671 74.4533 50.5877 73.7111C51.2083 72.969 51.6184 72.074 51.7754 71.1194C51.9324 70.1647 51.8304 69.1855 51.4801 68.2837L58.7351 61.2157L68.628 71.0972C68.4858 71.4636 68.4533 71.8634 68.5342 72.248C68.6152 72.6325 68.8062 72.9853 69.084 73.2632L71.4711 75.6504L74.3348 72.7844L71.9477 70.3996C71.6697 70.1218 71.317 69.9308 70.9324 69.8498C70.5478 69.7688 70.148 69.8014 69.7817 69.9436L59.9047 60.0666L68.6622 51.528C69.6398 51.9083 70.7069 51.9962 71.7335 51.7808C72.7601 51.5655 73.7019 51.0562 74.4443 50.315Z" fill="#283D93" stroke="#283D93" stroke-width="1.09543" stroke-linecap="round" stroke-linejoin="round"/>
<path d="M50.8783 67.0686L68.0535 50.3128C68.9557 50.6643 69.9358 50.767 70.8912 50.6102C71.8467 50.4533 72.7425 50.0428 73.485 49.4214C74.2275 48.8 74.7896 47.9906 75.1123 47.0778C75.4351 46.1649 75.5068 45.1821 75.3199 44.2321L71.9318 47.6202C71.8365 47.7156 71.7233 47.7914 71.5987 47.8431C71.4741 47.8948 71.3405 47.9214 71.2056 47.9214C71.0707 47.9214 70.9371 47.8948 70.8125 47.8431C70.6879 47.7914 70.5747 47.7156 70.4794 47.6202L67.6614 44.8021C67.5659 44.707 67.4902 44.594 67.4386 44.4696C67.3869 44.3451 67.3603 44.2118 67.3603 44.077C67.3603 43.9423 67.3869 43.8089 67.4386 43.6845C67.4902 43.5601 67.5659 43.4471 67.6614 43.352L71.0494 39.9616C70.0994 39.7765 69.1171 39.8498 68.2051 40.1739C67.2932 40.498 66.4849 41.061 65.8648 41.8041C65.2446 42.5472 64.8354 43.4432 64.6798 44.3985C64.5242 45.3538 64.6279 46.3333 64.9801 47.2348L47.8048 63.9906C46.9032 63.6397 45.924 63.5372 44.9693 63.6937C44.0146 63.8503 43.1194 64.2602 42.3771 64.8807C41.6348 65.5011 41.0726 66.3095 40.7492 67.2213C40.4258 68.1331 40.353 69.115 40.5385 70.0645L43.9265 66.6764C44.0218 66.5809 44.135 66.5052 44.2596 66.4535C44.3842 66.4018 44.5178 66.3752 44.6527 66.3752C44.7876 66.3752 44.9212 66.4018 45.0458 66.4535C45.1704 66.5052 45.2836 66.5809 45.3789 66.6764L48.197 69.4945C48.2924 69.5896 48.3681 69.7026 48.4197 69.827C48.4714 69.9514 48.498 70.0848 48.498 70.2195C48.498 70.3543 48.4714 70.4876 48.4197 70.6121C48.3681 70.7365 48.2924 70.8495 48.197 70.9446L44.8021 74.3281C45.7516 74.5132 46.7334 74.4403 47.6452 74.1168C48.5569 73.7934 49.3653 73.2313 49.9858 72.4892C50.6064 71.747 51.0166 70.852 51.1736 69.8974C51.3305 68.9428 51.2285 67.9635 50.8783 67.0617V67.0686Z" fill="white" stroke="#283D93" stroke-miterlimit="10"/>
<path d="M49.5559 65.3105C49.4246 65.1789 49.3508 65.0005 49.3508 64.8146C49.3508 64.6287 49.4246 64.4504 49.5559 64.3187L64.9983 49.2958C65.1303 49.1644 65.309 49.0906 65.4953 49.0906C65.6816 49.0906 65.8603 49.1644 65.9924 49.2958C66.1238 49.4278 66.1976 49.6065 66.1976 49.7928C66.1976 49.9791 66.1238 50.1578 65.9924 50.2899L50.5499 65.3105C50.4179 65.4419 50.2392 65.5157 50.0529 65.5157C49.8666 65.5157 49.6879 65.4419 49.5559 65.3105Z" fill="white" stroke="#283D93" stroke-miterlimit="10"/>
<path d="M54.1358 53.6836L52.9814 54.8379L69.6371 71.4936L70.7915 70.3392L54.1358 53.6836Z" fill="white" stroke="#283D93" stroke-miterlimit="10"/>
<path d="M73.7307 71.5692L70.867 74.4329L68.4799 72.048C68.0999 71.6679 67.8865 71.1525 67.8865 70.6151C67.8865 70.0776 68.0999 69.5622 68.4799 69.1821C68.6679 68.994 68.8911 68.8448 69.1368 68.743C69.3825 68.6413 69.6458 68.5889 69.9117 68.5889C70.1776 68.5889 70.441 68.6413 70.6866 68.743C70.9323 68.8448 71.1555 68.994 71.3436 69.1821L73.7307 71.5692Z" fill="white" stroke="#283D93" stroke-miterlimit="10"/>
<path d="M52.5821 50.4424L49.7397 53.2847L52.0484 55.5933L54.8907 52.751L52.5821 50.4424Z" fill="white" stroke="#283D93" stroke-miterlimit="10"/>
<path d="M39.9258 41.6049L40.9028 40.6279C41.1302 40.4005 41.4002 40.2202 41.6973 40.0971C41.9944 39.974 42.3128 39.9107 42.6343 39.9107C42.9559 39.9107 43.2743 39.974 43.5714 40.0971C43.8685 40.2202 44.1385 40.4005 44.3658 40.6279L53.9133 50.1754C54.0074 50.2695 54.0602 50.397 54.0602 50.5301C54.0602 50.6631 54.0074 50.7907 53.9133 50.8848L50.1827 54.6154C50.0886 54.7095 49.961 54.7623 49.828 54.7623C49.695 54.7623 49.5674 54.7095 49.4733 54.6154L39.9258 45.0679C39.4666 44.6087 39.2086 43.9859 39.2086 43.3364C39.2086 42.687 39.4666 42.0641 39.9258 41.6049Z" fill="white" stroke="#283D93" stroke-miterlimit="10"/>
<path d="M55.1564 51.9537L51.2484 55.8617C51.1015 56.0086 51.1015 56.2468 51.2484 56.3937L52.3157 57.461C52.4626 57.6079 52.7008 57.6079 52.8477 57.461L56.7557 53.553C56.9026 53.4061 56.9026 53.1679 56.7557 53.021L55.6884 51.9537C55.5415 51.8068 55.3033 51.8068 55.1564 51.9537Z" fill="white" stroke="#283D93" stroke-miterlimit="10"/>
<path d="M50.7163 53.1969L49.932 53.9835L40.5567 44.6081C40.4524 44.5038 40.3938 44.3623 40.3938 44.2148C40.3938 44.0673 40.4524 43.9259 40.5567 43.8215C40.6082 43.7696 40.6694 43.7284 40.7369 43.7003C40.8044 43.6722 40.8768 43.6577 40.95 43.6577C41.0231 43.6577 41.0955 43.6722 41.163 43.7003C41.2305 43.7284 41.2918 43.7696 41.3433 43.8215L50.7163 53.1969Z" fill="white" stroke="#283D93" stroke-miterlimit="10"/>
<path d="M52.0546 51.8585L51.2658 52.6451L41.8904 43.2698C41.7861 43.1654 41.7275 43.024 41.7275 42.8764C41.7275 42.7289 41.7861 42.5875 41.8904 42.4832C41.9419 42.4312 42.0032 42.39 42.0707 42.3619C42.1382 42.3338 42.2106 42.3193 42.2837 42.3193C42.3568 42.3193 42.4292 42.3338 42.4967 42.3619C42.5642 42.39 42.6255 42.4312 42.677 42.4832L52.0546 51.8585Z" fill="white" stroke="#283D93" stroke-miterlimit="10"/>
<path d="M53.393 50.5201L52.6041 51.2999L43.2288 41.9314C43.1245 41.827 43.0659 41.6856 43.0659 41.5381C43.0659 41.3906 43.1245 41.2491 43.2288 41.1448C43.2803 41.0929 43.3416 41.0517 43.4091 41.0235C43.4766 40.9954 43.549 40.981 43.6221 40.981C43.6952 40.981 43.7676 40.9954 43.8351 41.0235C43.9026 41.0517 43.9639 41.0929 44.0154 41.1448L53.393 50.5201Z" fill="white" stroke="#283D93" stroke-miterlimit="10"/>
<path d="M84.775 94.6359H84.0158L79.1069 54.3574H79.8685L84.775 94.6359Z" fill="white" stroke="#283D93" stroke-miterlimit="10"/>
<path d="M90.703 94.6359H89.9437L85.0349 54.3574H85.7964L90.703 94.6359Z" fill="white" stroke="#283D93" stroke-miterlimit="10"/>
<path d="M85.8444 57.6952H79.9186L79.7659 56.4526H85.6939L85.8444 57.6952Z" fill="white" stroke="#283D93" stroke-miterlimit="10"/>
<path d="M86.4028 62.2826H80.4771L80.3267 61.04H86.2524L86.4028 62.2826Z" fill="white" stroke="#283D93" stroke-miterlimit="10"/>
<path d="M86.9637 66.87H81.0357L80.8853 65.6274H86.811L86.9637 66.87Z" fill="white" stroke="#283D93" stroke-miterlimit="10"/>
<path d="M87.5223 71.4596H81.5966L81.4438 70.217H87.3696L87.5223 71.4596Z" fill="white" stroke="#283D93" stroke-miterlimit="10"/>
<path d="M88.0809 76.0471H82.1552L82.0024 74.8044H87.9282L88.0809 76.0471Z" fill="white" stroke="#283D93" stroke-miterlimit="10"/>
<path d="M88.6397 80.6345H82.714L82.5635 79.3918H88.4892L88.6397 80.6345Z" fill="white" stroke="#283D93" stroke-miterlimit="10"/>
<path d="M89.1982 85.2241H83.2726L83.1221 83.9814H89.0478L89.1982 85.2241Z" fill="white" stroke="#283D93" stroke-miterlimit="10"/>
<path d="M89.7592 89.8114H83.8311L83.6807 88.5688H89.6064L89.7592 89.8114Z" fill="white" stroke="#283D93" stroke-miterlimit="10"/>
<path d="M79.8274 56.9407H80.6026" stroke="#283D93" stroke-width="0.5" stroke-miterlimit="10"/>
<path d="M80.0098 57.3054H81.5145" stroke="#283D93" stroke-width="0.5" stroke-miterlimit="10"/>
<path d="M85.7531 57.3054H84.6587" stroke="#283D93" stroke-width="0.5" stroke-miterlimit="10"/>
<path d="M86.3003 61.7263H85.2971" stroke="#283D93" stroke-width="0.5" stroke-miterlimit="10"/>
<path d="M80.5569 61.9543H82.8825" stroke="#283D93" stroke-width="0.5" stroke-miterlimit="10"/>
<path d="M80.9675 66.2385H82.9739" stroke="#283D93" stroke-width="0.5" stroke-miterlimit="10"/>
<path d="M81.0586 66.6033H82.153" stroke="#283D93" stroke-width="0.5" stroke-miterlimit="10"/>
<path d="M87.4836 70.7507H86.2546" stroke="#283D93" stroke-width="0.5" stroke-miterlimit="10"/>
<path d="M87.3948 71.1155H85.3428" stroke="#283D93" stroke-width="0.5" stroke-miterlimit="10"/>
<path d="M89.1801 84.7566H87.2991" stroke="#283D93" stroke-width="0.5" stroke-miterlimit="10"/>
<path d="M83.1951 84.4146H84.3351" stroke="#283D93" stroke-width="0.5" stroke-miterlimit="10"/>
<path d="M87.014 84.7566H85.532" stroke="#283D93" stroke-width="0.5" stroke-miterlimit="10"/>
<path d="M83.7649 89.1458H85.3609" stroke="#283D93" stroke-width="0.5" stroke-miterlimit="10"/>
<path d="M84.1069 89.5447H85.9309" stroke="#283D93" stroke-width="0.5" stroke-miterlimit="10"/>
<path d="M82.283 75.6367H82.796" stroke="#283D93" stroke-width="0.5" stroke-miterlimit="10"/>
<path d="M66.355 94.6359H64.5515L66.9569 80.5432H68.7627L66.355 94.6359Z" fill="#283D93" stroke="#283D93" stroke-width="0.972732" stroke-miterlimit="10"/>
<path d="M69.9642 94.6359H71.77L69.3623 80.5432H67.5588L69.9642 94.6359Z" fill="white" stroke="#283D93" stroke-width="0.972732" stroke-miterlimit="10"/>
<path d="M91.9639 94.6359H90.1604L92.5658 80.5432H94.3693L91.9639 94.6359Z" fill="#283D93" stroke="#283D93" stroke-width="0.972732" stroke-miterlimit="10"/>
<path d="M95.5731 94.6359H97.3789L94.9712 80.5432H93.1677L95.5731 94.6359Z" fill="white" stroke="#283D93" stroke-width="0.972732" stroke-miterlimit="10"/>
<path d="M96.8362 76.4688H62.415V81.2499H96.8362V76.4688Z" fill="#FFB8AE" stroke="#283D93" stroke-width="0.972732" stroke-miterlimit="10"/>
<path d="M97.6753 76.4688H63.2542V81.2499H97.6753V76.4688Z" fill="#FFB8AE" stroke="#283D93" stroke-width="0.972732" stroke-miterlimit="10"/>
<path d="M63.8171 81.2499H66.7378L68.2472 76.4688H65.3265L63.8171 81.2499Z" fill="#283D93"/>
<path d="M75.3813 76.4688H72.4583L70.949 81.2499H73.8719L75.3813 76.4688Z" fill="#283D93"/>
<path d="M96.7792 76.4688H93.8563L92.3469 81.2499H95.2699L96.7792 76.4688Z" fill="#283D93"/>
<path d="M89.6451 76.4688H86.7244L85.2151 81.2499H88.1358L89.6451 76.4688Z" fill="#283D93"/>
<path d="M82.5131 76.4688H79.5902L78.0808 81.2499H81.0038L82.5131 76.4688Z" fill="#283D93"/>
<path d="M97.486 78.5916H91.7905" stroke="#283D93" stroke-miterlimit="10"/>
<path d="M97.3856 79.3896H96.4873" stroke="#283D93" stroke-miterlimit="10"/>
<path d="M63.1082 79.1912H68.8036" stroke="#283D93" stroke-miterlimit="10"/>
<path d="M63.2063 78.2905H70.402" stroke="#283D93" stroke-miterlimit="10"/>
</svg>
