<svg width="82" height="86" viewBox="0 0 82 86" fill="none" xmlns="http://www.w3.org/2000/svg">
<g clip-path="url(#clip0_2022_3988)">
<path d="M57.4976 84.0425C58.072 84.6629 58.7689 85.1574 59.5444 85.4944C60.3198 85.8315 61.1567 86.0038 62.0022 86.0005C62.8477 85.9971 63.6833 85.8182 64.4561 85.4751C65.2288 85.1319 65.9219 84.632 66.4913 84.0071L80.2094 70.3094C81.3187 69.2005 81.9556 67.7052 81.9867 66.1371C82.0178 64.5689 81.4407 63.0496 80.3763 61.8975L80.0222 61.5384C55.7424 37.2589 48.8075 30.3291 24.2899 5.80684C23.1935 4.7033 21.7152 4.06283 20.1603 4.01765C18.6053 3.97247 17.0923 4.52603 15.9336 5.56405C15.7313 5.7512 15.5391 5.95353 15.3418 6.14574L1.76536 19.7271C0.689736 20.811 0.0601296 22.2591 0.00111778 23.7849C-0.0578941 25.3108 0.457986 26.8032 1.44669 27.9669C1.61867 28.1642 1.80077 28.3463 1.98793 28.5335C26.8646 53.4199 31.6649 58.2101 57.4976 84.0425Z" fill="#7F7F7F"/>
<path fill-rule="evenodd" clip-rule="evenodd" d="M2.12451 27.9568C28.4883 54.3102 31.6751 57.5019 58.044 83.8705C59.0873 84.913 60.5019 85.4986 61.9768 85.4986C63.4517 85.4986 64.8663 84.913 65.9096 83.8705L79.8503 69.93C80.8912 68.8869 81.4758 67.4734 81.4758 65.9998C81.4758 64.5261 80.8912 63.1126 79.8503 62.0695C49.9001 32.1147 54.1187 36.3333 23.9308 6.1508C22.8875 5.10832 21.4729 4.52274 19.998 4.52274C18.5231 4.52274 17.1085 5.10832 16.0652 6.1508L2.12451 20.0913C1.08202 21.1346 0.496429 22.5492 0.496429 24.0241C0.496429 25.4989 1.08202 26.9135 2.12451 27.9568V27.9568Z" fill="#F27060"/>
<path fill-rule="evenodd" clip-rule="evenodd" d="M78.4896 71.2907L79.8503 69.93C80.8912 68.8869 81.4758 67.4734 81.4758 65.9998C81.4758 64.5261 80.8912 63.1126 79.8503 62.0695C49.9001 32.1147 54.1187 36.3333 23.9308 6.1508C22.8875 5.10832 21.4729 4.52274 19.998 4.52274C18.5231 4.52274 17.1085 5.10832 16.0652 6.1508L14.7247 7.51147C15.7681 6.46899 17.1826 5.8834 18.6576 5.8834C20.1325 5.8834 21.547 6.46899 22.5904 7.51147L78.4896 63.4302C79.5305 64.4733 80.1151 65.8868 80.1151 67.3604C80.1151 68.8341 79.5305 70.2475 78.4896 71.2907V71.2907Z" fill="#F27060"/>
<path opacity="0.2" fill-rule="evenodd" clip-rule="evenodd" d="M2.12448 27.9568C28.4883 54.3102 31.675 57.5019 58.0439 83.8705C59.0873 84.913 60.5018 85.4986 61.9768 85.4986C63.4517 85.4986 64.8662 84.913 65.9096 83.8705L71.762 78.0181C59.5311 57.6082 28.3821 26.4646 7.97693 14.2389L2.12448 20.0913C1.08199 21.1346 0.496399 22.5492 0.496399 24.024C0.496399 25.4989 1.08199 26.9135 2.12448 27.9568V27.9568Z" fill="#F5F5F5"/>
<path opacity="0.25" fill-rule="evenodd" clip-rule="evenodd" d="M67.2703 82.5098L65.9096 83.8705C64.8662 84.9129 63.4517 85.4985 61.9768 85.4985C60.5019 85.4985 59.0873 84.9129 58.0439 83.8705L2.1245 27.9568C1.08201 26.9135 0.496415 25.4989 0.496415 24.024C0.496415 22.5492 1.08201 21.1346 2.1245 20.0913L3.48519 18.7154C1.32529 20.8804 1.02179 24.669 3.18168 26.8086L59.1062 82.7577C61.2661 84.9175 65.1104 84.6697 67.2703 82.5098V82.5098Z" fill="#F5F5F5"/>
<path fill-rule="evenodd" clip-rule="evenodd" d="M13.1111 20.1368L13.6979 20.7236L26.1008 8.32078L25.5141 7.73402L13.1111 20.1368Z" fill="#8C3600"/>
<path fill-rule="evenodd" clip-rule="evenodd" d="M30.6938 37.7243L31.2805 38.306L43.6835 25.9032L43.0967 25.3164L30.6938 37.7243Z" fill="#8C3600"/>
<path fill-rule="evenodd" clip-rule="evenodd" d="M26.7483 24.0873L27.3351 24.674L34.8922 17.112L34.3054 16.5252L26.7483 24.0873Z" fill="#8C3600"/>
<path fill-rule="evenodd" clip-rule="evenodd" d="M28.1848 19.1353L28.7665 19.722L33.1369 15.3568L32.5501 14.77L28.1848 19.1353Z" fill="#8C3600"/>
<path fill-rule="evenodd" clip-rule="evenodd" d="M26.4195 17.375L27.0113 17.9618L31.3766 13.5965L30.7898 13.0098L26.4195 17.375Z" fill="#8C3600"/>
<path fill-rule="evenodd" clip-rule="evenodd" d="M24.6643 15.6198L25.251 16.2066L29.6214 11.8363L29.0296 11.2495L24.6643 15.6198Z" fill="#8C3600"/>
<path fill-rule="evenodd" clip-rule="evenodd" d="M22.9039 13.8595L23.4907 14.4463L27.8611 10.081L27.2743 9.49429L22.9039 13.8595Z" fill="#8C3600"/>
<path fill-rule="evenodd" clip-rule="evenodd" d="M32.282 23.2375L31.7003 22.6507L36.0656 18.2855L36.6524 18.8672L32.282 23.2375Z" fill="#8C3600"/>
<path fill-rule="evenodd" clip-rule="evenodd" d="M34.0424 24.9978L33.4556 24.411L37.8259 20.0407L38.4077 20.6274L34.0424 24.9978Z" fill="#8C3600"/>
<path fill-rule="evenodd" clip-rule="evenodd" d="M35.8027 26.753L35.2159 26.1662L39.5812 21.801L40.168 22.3877L35.8027 26.753Z" fill="#8C3600"/>
<path fill-rule="evenodd" clip-rule="evenodd" d="M37.5578 28.5132L36.9711 27.9265L41.3415 23.5612L41.9282 24.1429L37.5578 28.5132Z" fill="#8C3600"/>
<path fill-rule="evenodd" clip-rule="evenodd" d="M48.2764 55.3067L48.8631 55.8934L61.2711 43.4856L60.6793 42.8988L48.2764 55.3067Z" fill="#8C3600"/>
<path fill-rule="evenodd" clip-rule="evenodd" d="M44.3309 41.6697L44.9176 42.2564L52.4747 34.6944L51.888 34.1076L44.3309 41.6697Z" fill="#8C3600"/>
<path fill-rule="evenodd" clip-rule="evenodd" d="M45.7624 36.7177L46.3492 37.3044L50.7195 32.9341L50.1328 32.3524L45.7624 36.7177Z" fill="#8C3600"/>
<path fill-rule="evenodd" clip-rule="evenodd" d="M44.0072 34.9574L44.5939 35.5442L48.9592 31.1789L48.3725 30.5922L44.0072 34.9574Z" fill="#8C3600"/>
<path fill-rule="evenodd" clip-rule="evenodd" d="M42.2469 33.2022L42.8337 33.789L47.199 29.4186L46.6173 28.8319L42.2469 33.2022Z" fill="#8C3600"/>
<path fill-rule="evenodd" clip-rule="evenodd" d="M40.4917 31.4419L41.0734 32.0287L45.4437 27.6634L44.857 27.0767L40.4917 31.4419Z" fill="#8C3600"/>
<path fill-rule="evenodd" clip-rule="evenodd" d="M49.8647 40.8199L49.283 40.2332L53.6483 35.8679L54.235 36.4496L49.8647 40.8199Z" fill="#8C3600"/>
<path fill-rule="evenodd" clip-rule="evenodd" d="M51.625 42.5802L51.0382 41.9934L55.4086 37.6231L55.9954 38.2098L51.625 42.5802Z" fill="#8C3600"/>
<path fill-rule="evenodd" clip-rule="evenodd" d="M53.3852 44.3354L52.7985 43.7537L57.1638 39.3834L57.7505 39.9701L53.3852 44.3354Z" fill="#8C3600"/>
<path fill-rule="evenodd" clip-rule="evenodd" d="M55.1405 46.0956L54.5537 45.5089L58.9241 41.1436L59.5109 41.7253L55.1405 46.0956Z" fill="#8C3600"/>
<path fill-rule="evenodd" clip-rule="evenodd" d="M65.859 72.884L66.4458 73.4708L78.8487 61.068L78.2619 60.4812L65.859 72.884Z" fill="#8C3600"/>
<path fill-rule="evenodd" clip-rule="evenodd" d="M61.9135 59.2521L62.5003 59.8388L70.0574 52.2768L69.4706 51.69L61.9135 59.2521Z" fill="#8C3600"/>
<path fill-rule="evenodd" clip-rule="evenodd" d="M63.3451 54.3001L63.9318 54.8868L68.3022 50.5216L67.7154 49.9348L63.3451 54.3001Z" fill="#8C3600"/>
<path fill-rule="evenodd" clip-rule="evenodd" d="M61.5898 52.5449L62.1766 53.1266L66.5419 48.7613L65.9551 48.1746L61.5898 52.5449Z" fill="#8C3600"/>
<path fill-rule="evenodd" clip-rule="evenodd" d="M59.8295 50.7846L60.4163 51.3714L64.7866 47.0011L64.1999 46.4143L59.8295 50.7846Z" fill="#8C3600"/>
<path fill-rule="evenodd" clip-rule="evenodd" d="M58.0743 49.0243L58.656 49.6111L63.0264 45.2458L62.4396 44.6591L58.0743 49.0243Z" fill="#8C3600"/>
<path fill-rule="evenodd" clip-rule="evenodd" d="M67.4473 58.4023L66.8656 57.8156L71.2309 53.4503L71.8177 54.0371L67.4473 58.4023Z" fill="#8C3600"/>
<path fill-rule="evenodd" clip-rule="evenodd" d="M69.2076 60.1626L68.6208 59.5758L72.9912 55.2055L73.5779 55.7923L69.2076 60.1626Z" fill="#8C3600"/>
<path fill-rule="evenodd" clip-rule="evenodd" d="M70.9679 61.9178L70.3811 61.331L74.7464 56.9658L75.3332 57.5525L70.9679 61.9178Z" fill="#8C3600"/>
<path fill-rule="evenodd" clip-rule="evenodd" d="M72.7231 63.678L72.1363 63.0913L76.5067 58.726L77.0934 59.3077L72.7231 63.678Z" fill="#8C3600"/>
<path fill-rule="evenodd" clip-rule="evenodd" d="M12.2816 82.0849C12.9443 81.8063 13.5268 81.3664 13.9761 80.8052C15.6959 78.5796 11.4975 75.8178 9.82323 75.0995C8.72052 74.624 6.94507 74.6949 6.48476 76.1112C5.81833 78.1444 5.41046 80.2533 5.27077 82.3884C5.23536 83.8654 6.30772 83.8249 8.59407 83.2635C9.85645 82.9833 11.0907 82.5889 12.2816 82.0849Z" fill="#54666F"/>
<path fill-rule="evenodd" clip-rule="evenodd" d="M9.12514 79.2422L9.84343 78.2305C10.3998 77.4465 11.1232 76.359 10.0458 75.6306C9.15044 75.0186 7.97186 75.6711 7.51661 76.5462C6.81008 77.9311 6.27501 79.397 5.92325 80.9114C5.79679 81.4172 5.38707 82.3277 5.54388 82.8487C5.76139 83.5771 6.43414 83.1724 6.70223 82.783L7.71388 81.2655C8.1843 80.6029 8.65472 79.92 9.12514 79.2422Z" fill="#97A79F"/>
<path fill-rule="evenodd" clip-rule="evenodd" d="M10.754 60.9061L6.48982 76.1314C6.48982 76.1314 11.9932 77.5426 12.5952 81.8371C12.671 82.3833 28.6451 75.3726 28.6451 75.3726L27.0366 63.1317L13.3792 59.9906L10.754 60.9061Z" fill="url(#paint0_linear_2022_3988)"/>
<path fill-rule="evenodd" clip-rule="evenodd" d="M25.853 67.7297C25.3472 68.3265 24.639 68.5997 24.0371 69.0954C23.6169 68.4886 23.014 68.0319 22.3161 67.7917C21.6183 67.5515 20.8619 67.5404 20.1573 67.76C20.0359 66.5764 19.9297 65.59 19.2266 64.5784C18.655 63.7539 17.3905 62.2111 16.2422 62.2668C16.5053 61.9734 16.7481 61.6497 16.9909 61.3411C19.1507 58.6856 21.3916 56.1059 23.6931 53.5717C26.9911 49.9466 30.2756 46.3064 33.5467 42.651C37.2392 38.5302 40.9318 34.4128 44.6243 30.2988C47.6795 26.9266 50.728 23.5326 53.7697 20.1166C54.9786 18.761 56.1977 17.4054 57.4117 16.07C58.6257 14.7346 60.0572 14.163 60.7249 14.77L66.5419 19.9598C67.2045 20.5566 66.8049 22.0943 65.6415 23.3943L25.853 67.7297Z" fill="#FFCA51"/>
<path fill-rule="evenodd" clip-rule="evenodd" d="M19.1204 59.8388C18.6499 60.375 18.2402 61.3057 17.4309 61.2147C16.7581 61.1388 16.2574 60.5976 15.5037 60.5773C14.1379 60.5369 12.5041 60.8909 11.4874 61.8571C11.6543 60.5773 11.4267 59.8742 12.3271 58.8626L57.4976 8.15387C58.661 6.8539 60.1431 6.27726 60.8108 6.87413C60.8614 6.91966 60.917 12.686 60.8563 13.1362C60.7704 13.7685 60.042 14.2136 58.8887 15.5035L19.1204 59.8388Z" fill="#FFE076"/>
<path fill-rule="evenodd" clip-rule="evenodd" d="M26.3284 66.0807C25.7215 66.7636 24.9678 67.325 24.4114 68.0433C26.3891 69.146 27.5273 72.4136 26.2222 74.3762C26.4751 73.9968 27.6588 74.7303 27.9572 74.7556C28.6148 74.8112 28.9689 74.3408 29.3735 73.8906L74.6655 23.2679C75.8289 21.9628 76.097 20.3088 75.2624 19.5652C75.1966 19.5045 68.7372 19.459 68.2465 19.5248C67.5637 19.6158 67.2349 20.4352 66.0968 21.7302L26.3284 66.0807Z" fill="#F7F297"/>
<path fill-rule="evenodd" clip-rule="evenodd" d="M25.8884 67.1682C25.2814 67.8511 24.5277 68.4125 23.9662 69.1308C25.9491 70.2335 27.0872 73.496 25.7822 75.4637C26.03 75.0843 27.2187 75.8178 27.5172 75.8431C28.1747 75.8987 28.5288 75.4283 28.9335 74.9781L74.2254 24.3958C75.3888 23.0908 75.6569 21.4317 74.8223 20.6881C74.7566 20.6325 68.2921 20.587 67.8065 20.6527C67.1236 20.7438 66.7948 21.5632 65.6516 22.8531L25.8884 67.1682Z" fill="#EB9A42"/>
<path fill-rule="evenodd" clip-rule="evenodd" d="M76.3802 22.5698C72.2931 14.1934 67.8115 9.87366 59.2883 6.10022L53.5269 12.0841C62.045 15.8575 66.5267 20.1773 70.6138 28.5486L76.3802 22.5698Z" fill="url(#paint1_linear_2022_3988)"/>
<path fill-rule="evenodd" clip-rule="evenodd" d="M76.5826 22.3928C72.4348 13.9607 67.9127 9.61063 59.3287 5.77144L53.5623 11.7553C62.1462 15.5844 66.6734 19.9446 70.8212 28.3767L76.5826 22.3928Z" fill="#97A79F"/>
<path fill-rule="evenodd" clip-rule="evenodd" d="M81.9293 16.7174C83.0977 10.3794 69.9007 -1.14827 64.6704 0.0909972L58.909 6.06982C67.5081 9.8989 72.015 14.2591 76.1628 22.6962L81.9293 16.7174Z" fill="#F27060"/>
</g>
<defs>
<linearGradient id="paint0_linear_2022_3988" x1="10.4325" y1="68.8581" x2="29.2156" y2="80.2754" gradientUnits="userSpaceOnUse">
<stop stop-color="#FFC797"/>
<stop offset="0.31" stop-color="#E6AB78"/>
<stop offset="0.74" stop-color="#C78951"/>
<stop offset="0.97" stop-color="#BB7C42"/>
</linearGradient>
<linearGradient id="paint1_linear_2022_3988" x1="81.5479" y1="0.335104" x2="59.281" y2="22.5481" gradientUnits="userSpaceOnUse">
<stop stop-color="white"/>
<stop offset="0.02" stop-color="#FCFCFC"/>
<stop offset="0.48" stop-color="#BFC1BE"/>
<stop offset="0.81" stop-color="#999B97"/>
<stop offset="0.98" stop-color="#8B8D88"/>
</linearGradient>
<clipPath id="clip0_2022_3988">
<rect width="82" height="86" fill="white" transform="matrix(-1 0 0 1 82 0)"/>
</clipPath>
</defs>
</svg>
