<svg width="218" height="431" viewBox="0 0 218 431" fill="none" xmlns="http://www.w3.org/2000/svg">
<path d="M116.869 98.3752C97.8412 82.714 47.9876 104.367 40.5642 114.474C33.2568 124.413 18.4322 229.302 29.3463 236.557C40.2605 243.812 74.0301 258.502 88.076 245.542C102.122 232.582 116.869 98.3752 116.869 98.3752Z" fill="#3259A1"/>
<path d="M140.348 290.605C140.348 290.605 141.453 313.403 141.453 327.306C141.453 341.21 120.387 395.712 122.304 403.495C124.22 411.278 102.458 410.234 102.458 410.234C102.458 410.234 100.973 367.911 106.579 347.903C112.185 327.896 106.579 286.73 106.579 286.73L140.348 290.605Z" fill="#FFA283"/>
<path d="M87.5244 279.615C87.5244 279.615 80.4545 317.3 74.7102 325.919C68.966 334.539 38.0574 393.208 38.0574 400.715C38.0574 408.223 18.6374 402.108 18.6374 402.108C18.6374 402.108 35.0472 337.874 41.6145 318.412C45.5451 306.808 48.5629 294.905 50.6396 282.816L87.5244 279.615Z" fill="#FFA283"/>
<path d="M140.626 242.217C142.636 254.622 150.811 329.946 150.811 329.946C150.811 329.946 122.923 338.649 106.243 334.758C106.243 334.758 106.712 274.197 102.879 274.197H102.763C100.09 274.229 97.5025 275.16 95.4043 276.844C93.3061 278.528 91.8151 280.871 91.1641 283.507C87.9716 296.562 79.206 335.926 79.206 335.926C79.206 335.926 43.9562 330.934 36.3008 327.318C36.3008 327.318 48.071 242.111 60.9294 229.049L76.3505 214.977L132.561 207.61C132.561 207.61 139.201 233.446 140.626 242.217Z" fill="#13375B"/>
<path d="M155.394 427.433H95.6313C95.6313 427.433 94.3997 405.466 98.5035 401.294C102.607 397.122 101.514 401.822 108.352 404.478C115.189 407.134 119.636 400.733 122.762 397.554C125.888 394.376 123.668 407.662 136.797 407.662C149.926 407.662 158.421 421.296 155.394 427.433Z" fill="#466EB6"/>
<path d="M38.687 398.295C41.7745 399.02 51.5066 407.089 54.7046 415.815C57.9026 424.541 57.0079 427.658 57.0079 427.658C57.0079 427.658 47.1211 432.15 28.1429 430.718C9.16479 429.286 12.0535 427.192 12.0535 427.192C12.0535 427.192 13.4122 407.336 16.6323 401.3C19.8524 395.263 33.2741 397.032 38.687 398.295Z" fill="#466EB6"/>
<path d="M133.959 92.7149C133.959 92.7149 166.293 75.9138 170.673 67.5694C175.053 59.2251 193.318 31.1428 193.318 31.1428C193.318 31.1428 202.664 32.3445 205.133 36.6009C202.101 48.1797 192.788 80.2488 180.753 89.7051C168.717 99.1613 137.025 118.646 137.025 118.646L133.959 92.7149Z" fill="#FFA283"/>
<path d="M24.7017 153.608C5.20434 185.615 -6.09642 207.605 4.81771 221.508C16.7039 236.703 41.8793 233.705 53.5667 246.62C64.5251 242.532 66.7344 231.543 66.7344 231.543L55.4392 227.808C32.9812 217.897 23.5142 212.029 26.6239 201.214C29.7335 190.399 40.7084 175.945 40.7084 175.945C35.649 152.619 24.7017 153.608 24.7017 153.608Z" fill="#FFA283"/>
<path d="M13.0246 159.329C13.0246 159.329 27.9376 181.791 39.6415 182.173C47.3079 170.437 50.7269 163.698 50.7987 164.984C50.8816 166.438 50.8705 204.757 52.8589 225.68C68.269 234.749 140.741 228.769 140.785 219.178C140.824 211.878 123.337 138.469 133.4 130.455C137.057 127.552 168.164 110.588 168.164 110.588C168.164 110.588 155.19 84.64 147.203 76.5932C147.203 76.5932 131.616 84.8815 116.731 90.9741C97.1947 98.9591 80.7462 101.172 69.8763 106.298C31.583 124.391 28.7109 133.083 13.0246 159.329Z" fill="#F47458"/>
<path d="M68.2254 107.101C78.3829 137.946 65.3865 203.635 51.0258 220.003C46.8833 209.811 62.8402 168.494 51.0258 116.08C50.7165 113.424 67.1981 104.254 68.2254 107.101Z" fill="#466EB6"/>
<path d="M96.5278 97.926C111.209 114.143 133.23 174.396 133.694 177.394C133.048 124.739 113.258 99.7959 109.988 93.6808C107.823 92.1984 96.2682 96.3369 96.5278 97.926Z" fill="#466EB6"/>
<path d="M99.0889 82.568V110.083C99.0889 110.083 89.1469 120.926 76.3162 113.419L70.3952 77.9915L99.0889 82.568Z" fill="#FFA283"/>
<g style="mix-blend-mode:multiply" opacity="0.68">
<path d="M99.0905 96.4435C90.8994 98.5436 80.7752 95.0004 72.0649 87.9812L70.4079 78.0084L99.1016 82.5681L99.0905 96.4435Z" fill="#FF7F4C"/>
</g>
<path d="M98.3327 34.8207C98.3327 34.8207 126.275 68.9114 113.544 85.6395C100.813 102.368 71.9422 91.0021 57.6644 69.8548C43.3866 48.7074 93.0579 19.0417 98.3327 34.8207Z" fill="#FFA283"/>
<path d="M71.0144 47.1352C71.0144 47.1352 60.7687 47.4497 64.8062 57.2428C68.8438 67.036 76.1235 70.3321 72.2572 74.2741C69.5839 76.9863 71.1083 82.5343 72.3235 85.735C72.9576 87.3852 73.0315 89.2034 72.5334 90.9011L72.4671 91.1313C71.9189 92.9596 70.7703 94.5413 69.2132 95.6124C67.656 96.6834 65.7846 97.1789 63.9114 97.0162C54.5218 96.1907 38.7803 91.4009 39.6585 68.2769C39.6585 68.2769 31.8264 53.4469 39.6198 42.0814C47.4133 30.716 53.3177 31.665 53.3177 31.665C53.3177 31.665 56.1125 20.9341 64.8062 18.4128C73.5 15.8916 98.957 6.73295 101.746 20.9341C104.536 35.1353 92.1412 45.5517 71.0144 47.1352Z" fill="#011037"/>
<path d="M73.7703 64.9639C73.0413 64.5877 62.7236 59.7192 61.1937 65.6771C59.7852 71.2026 61.746 79.7603 69.1528 79.7603C76.5597 79.7603 83.0827 69.8156 73.7703 64.9639Z" fill="#FFA283"/>
<path d="M95.6321 427.433C95.6321 427.433 95.3781 422.874 95.4886 417.511C102.498 420.594 140.946 420.1 154.92 419.808C156.135 422.66 156.372 425.423 155.395 427.433H95.6321Z" fill="#A4C0F5"/>
<path d="M28.1695 430.718C9.18583 429.309 12.0801 427.192 12.0801 427.192C12.0801 427.192 12.3948 422.615 13.0742 417.191C26.286 429.18 46.9212 423.059 55.9519 419.488C57.6862 425.429 57.0565 427.652 57.0565 427.652C57.0565 427.652 47.1477 432.128 28.1695 430.718Z" fill="#A4C0F5"/>
<path d="M201.802 47.0736C197.223 45.782 191.445 43.2832 187.203 41.3066C189.037 38.819 190.296 36.9098 190.573 36.017C191.865 31.8448 183.718 15.5323 185.049 14.1958C186.38 12.8594 191.357 21.3497 192.18 20.5243C193.003 19.6988 194.168 1.05596 196.891 1.11211C199.614 1.16827 196.891 16.9473 198.593 16.9866C200.294 17.0259 203.293 -1.80225 205.977 0.140656C208.662 2.08356 202.227 16.6385 204.028 17.4078C205.828 18.1771 211.003 4.39147 212.915 4.43077C214.826 4.47008 213.39 7.52482 212.009 11.1692C210.628 14.8135 208.314 19.7999 209.418 19.8224C210.523 19.8448 215.936 11.1467 217.836 11.8149C219.736 12.4832 204.541 37.6454 203.221 43.1934C202.827 44.5153 202.353 45.8111 201.802 47.0736V47.0736Z" fill="#FFA283"/>
</svg>
