<svg width="214" height="214" viewBox="0 0 214 214" fill="none" xmlns="http://www.w3.org/2000/svg">
<g filter="url(#filter0_d_2022_4234)">
<path d="M124.353 120.073L124.332 120.129C124.31 120.188 124.269 120.239 124.216 120.273C124.162 120.307 124.099 120.322 124.036 120.317C123.962 120.305 123.895 120.264 123.85 120.203C123.805 120.142 123.785 120.066 123.796 119.992C123.807 119.918 123.846 119.851 123.906 119.807C123.966 119.762 124.041 119.743 124.115 119.754C124.189 119.765 124.255 119.804 124.3 119.864C124.345 119.924 124.364 119.999 124.353 120.073V120.073Z" fill="#EDF0F4"/>
<path d="M123.368 128.956L123.343 129.022C123.324 129.079 123.287 129.128 123.238 129.161C123.189 129.195 123.13 129.211 123.07 129.208C123.014 129.204 122.961 129.183 122.917 129.149C122.873 129.115 122.84 129.068 122.823 129.015C122.806 128.962 122.804 128.905 122.82 128.852C122.835 128.798 122.866 128.75 122.908 128.714C122.951 128.678 123.003 128.656 123.059 128.65C123.114 128.644 123.17 128.655 123.22 128.681C123.269 128.707 123.309 128.747 123.336 128.796C123.362 128.845 123.373 128.901 123.368 128.956V128.956Z" fill="#EDF0F4"/>
<path d="M128.215 102.646C128.191 102.712 128.141 102.767 128.078 102.798C128.014 102.83 127.941 102.836 127.873 102.816C127.838 102.806 127.805 102.788 127.776 102.765C127.748 102.742 127.724 102.713 127.706 102.681C127.689 102.648 127.678 102.613 127.674 102.576C127.67 102.539 127.674 102.502 127.684 102.467C127.708 102.397 127.757 102.339 127.821 102.303C127.886 102.268 127.962 102.259 128.033 102.278C128.069 102.29 128.103 102.309 128.132 102.334C128.16 102.359 128.184 102.39 128.201 102.424C128.218 102.458 128.228 102.495 128.23 102.533C128.233 102.572 128.228 102.61 128.215 102.646V102.646Z" fill="#EDF0F4"/>
<path d="M125.973 111.291C125.939 111.347 125.887 111.388 125.825 111.41C125.764 111.431 125.697 111.43 125.636 111.407C125.575 111.384 125.524 111.34 125.491 111.284C125.459 111.227 125.448 111.161 125.459 111.097C125.462 111.058 125.474 111.019 125.494 110.985C125.513 110.95 125.54 110.92 125.572 110.897C125.604 110.874 125.641 110.857 125.68 110.849C125.719 110.841 125.759 110.841 125.797 110.85C125.836 110.858 125.873 110.875 125.904 110.898C125.936 110.922 125.963 110.952 125.982 110.987C126.001 111.022 126.013 111.06 126.016 111.099C126.02 111.139 126.015 111.179 126.001 111.216L125.973 111.291Z" fill="#EDF0F4"/>
<path d="M128.001 173.298C127.965 173.375 127.9 173.435 127.821 173.465C127.748 173.485 127.67 173.475 127.604 173.438C127.538 173.402 127.489 173.341 127.468 173.268C127.448 173.197 127.457 173.121 127.494 173.056C127.53 172.992 127.59 172.945 127.661 172.924C127.732 172.905 127.809 172.914 127.873 172.95C127.937 172.987 127.985 173.047 128.005 173.118C128.019 173.177 128.018 173.24 128.001 173.298V173.298Z" fill="#EDF0F4"/>
<path d="M124.254 155.675C124.247 155.718 124.232 155.759 124.208 155.796C124.189 155.844 124.158 155.886 124.118 155.918C124.078 155.949 124.03 155.97 123.98 155.977C123.908 155.985 123.836 155.966 123.779 155.922C123.722 155.879 123.684 155.815 123.672 155.744C123.665 155.707 123.666 155.67 123.675 155.634C123.683 155.598 123.699 155.564 123.721 155.534C123.744 155.504 123.772 155.479 123.804 155.461C123.836 155.443 123.872 155.431 123.909 155.427C123.948 155.416 123.99 155.413 124.03 155.42C124.07 155.427 124.108 155.443 124.142 155.467C124.175 155.491 124.202 155.522 124.222 155.558C124.241 155.594 124.252 155.634 124.254 155.675V155.675Z" fill="#EDF0F4"/>
<path d="M123.02 137.876L122.985 137.97C122.963 138.023 122.926 138.069 122.878 138.101C122.829 138.132 122.773 138.148 122.715 138.146C122.679 138.146 122.644 138.139 122.611 138.126C122.578 138.112 122.548 138.092 122.522 138.066C122.497 138.041 122.477 138.011 122.464 137.978C122.45 137.944 122.444 137.909 122.444 137.873V137.873C122.442 137.837 122.448 137.801 122.462 137.767C122.475 137.733 122.495 137.703 122.521 137.677C122.546 137.652 122.577 137.632 122.611 137.619C122.645 137.606 122.681 137.6 122.717 137.602C122.755 137.599 122.794 137.604 122.83 137.616C122.866 137.628 122.899 137.648 122.928 137.674C122.956 137.699 122.979 137.731 122.995 137.765C123.011 137.8 123.019 137.838 123.02 137.876V137.876Z" fill="#EDF0F4"/>
<path d="M125.817 164.46C125.813 164.511 125.794 164.559 125.764 164.6C125.749 164.643 125.723 164.681 125.69 164.711C125.656 164.742 125.615 164.763 125.571 164.773C125.535 164.783 125.497 164.785 125.46 164.78C125.423 164.774 125.387 164.761 125.356 164.741C125.324 164.721 125.297 164.695 125.276 164.664C125.255 164.633 125.241 164.598 125.234 164.561C125.226 164.525 125.225 164.487 125.231 164.451C125.237 164.414 125.25 164.379 125.27 164.348C125.29 164.317 125.316 164.29 125.346 164.268C125.376 164.247 125.41 164.232 125.446 164.224C125.486 164.212 125.528 164.209 125.57 164.214C125.611 164.22 125.651 164.235 125.686 164.257C125.721 164.279 125.751 164.309 125.774 164.344C125.796 164.379 125.811 164.419 125.817 164.46V164.46Z" fill="#EDF0F4"/>
<path d="M159.983 49.3865L159.941 49.4988C159.901 49.5376 159.851 49.5637 159.796 49.5737C159.741 49.5837 159.685 49.5772 159.634 49.5551C159.583 49.5329 159.54 49.496 159.51 49.4492C159.48 49.4023 159.464 49.3476 159.466 49.292C159.467 49.2364 159.485 49.1825 159.517 49.137C159.549 49.0916 159.594 49.0567 159.646 49.0368C159.697 49.0169 159.754 49.013 159.808 49.0254C159.863 49.0379 159.912 49.0662 159.95 49.1068C159.981 49.1458 160 49.1926 160.006 49.2419C160.012 49.2913 160.004 49.3413 159.983 49.3865Z" fill="#EDF0F4"/>
<path d="M131.06 94.1861C131.041 94.238 131.006 94.2828 130.961 94.3151C130.916 94.3473 130.863 94.3655 130.807 94.3673C130.752 94.3691 130.698 94.3544 130.65 94.3251C130.603 94.2959 130.566 94.2533 130.543 94.2029C130.521 94.1524 130.513 94.0963 130.522 94.0417C130.531 93.9871 130.556 93.9363 130.594 93.8959C130.632 93.8555 130.681 93.8273 130.735 93.8147C130.789 93.8022 130.845 93.8059 130.897 93.8254C130.932 93.8372 130.965 93.8561 130.992 93.881C131.02 93.9059 131.042 93.9363 131.058 93.9701C131.073 94.004 131.081 94.0407 131.082 94.0778C131.082 94.115 131.075 94.1519 131.06 94.1861V94.1861Z" fill="#EDF0F4"/>
<path d="M138.524 77.9235C138.487 77.9873 138.426 78.0338 138.354 78.053C138.283 78.0722 138.207 78.0625 138.143 78.0259C138.112 78.0088 138.084 77.9855 138.061 77.9575C138.039 77.9294 138.022 77.8972 138.012 77.8626C138.002 77.828 137.999 77.7919 138.004 77.7562C138.008 77.7205 138.019 77.686 138.037 77.6547C138.072 77.5903 138.131 77.5421 138.201 77.5206C138.271 77.499 138.347 77.5058 138.412 77.5395C138.476 77.5769 138.524 77.6376 138.545 77.7091C138.565 77.7806 138.558 77.8574 138.524 77.9235Z" fill="#EDF0F4"/>
<path d="M134.506 85.9201C134.473 85.9861 134.416 86.037 134.347 86.0626C134.278 86.0881 134.202 86.0864 134.134 86.0576C134.099 86.0434 134.068 86.0222 134.042 85.9953C134.016 85.9685 133.996 85.9365 133.983 85.9016C133.97 85.8666 133.965 85.8293 133.967 85.792C133.969 85.7548 133.979 85.7184 133.996 85.6852C134.029 85.6192 134.086 85.5683 134.155 85.5427C134.224 85.5172 134.301 85.519 134.369 85.5477C134.402 85.563 134.432 85.5849 134.457 85.6119C134.482 85.639 134.502 85.6707 134.515 85.7053C134.527 85.7399 134.533 85.7767 134.532 85.8136C134.53 85.8504 134.522 85.8866 134.506 85.9201V85.9201Z" fill="#EDF0F4"/>
<path d="M148.219 62.8849L148.19 62.9598C148.168 62.9894 148.14 63.0144 148.108 63.0332C148.076 63.052 148.041 63.0643 148.004 63.0693C147.968 63.0744 147.93 63.0721 147.895 63.0627C147.859 63.0532 147.825 63.0367 147.796 63.0142C147.766 62.9922 147.741 62.9643 147.723 62.9324C147.705 62.9004 147.693 62.8651 147.689 62.8284C147.685 62.7918 147.688 62.7547 147.699 62.7194C147.709 62.6841 147.727 62.6513 147.751 62.6232C147.793 62.576 147.85 62.5447 147.913 62.5342C147.975 62.5238 148.04 62.5349 148.095 62.5657C148.15 62.5965 148.194 62.6452 148.218 62.7038C148.242 62.7625 148.246 62.8275 148.228 62.8884L148.219 62.8849Z" fill="#EDF0F4"/>
<path d="M153.854 55.9246L153.819 56.0182C153.767 56.0732 153.697 56.1067 153.621 56.112C153.546 56.1173 153.472 56.0941 153.413 56.0469C153.36 55.9962 153.329 55.9276 153.324 55.8547C153.32 55.7818 153.344 55.7099 153.39 55.6536C153.433 55.6062 153.491 55.575 153.554 55.5652C153.618 55.5554 153.682 55.5675 153.738 55.5996C153.793 55.6318 153.836 55.6819 153.859 55.7417C153.882 55.8014 153.883 55.8673 153.864 55.9282L153.854 55.9246Z" fill="#EDF0F4"/>
<path d="M143.099 70.2327L143.078 70.2888C143.035 70.3494 142.97 70.3912 142.897 70.4055C142.824 70.4197 142.749 70.4054 142.686 70.3655C142.623 70.3248 142.579 70.261 142.564 70.188C142.548 70.115 142.562 70.0388 142.603 69.9762C142.643 69.9135 142.707 69.8696 142.78 69.854C142.853 69.8384 142.93 69.8525 142.992 69.8931C143.045 69.9297 143.085 69.983 143.104 70.0445C143.123 70.106 143.122 70.1722 143.099 70.2327V70.2327Z" fill="#EDF0F4"/>
<path d="M123.315 146.793C123.31 146.834 123.296 146.872 123.273 146.906C123.254 146.955 123.221 146.997 123.179 147.028C123.137 147.06 123.087 147.079 123.035 147.083C122.999 147.085 122.963 147.081 122.929 147.069C122.895 147.057 122.863 147.039 122.837 147.015C122.81 146.991 122.788 146.962 122.773 146.929C122.757 146.896 122.749 146.861 122.747 146.825C122.743 146.789 122.746 146.753 122.756 146.719C122.767 146.684 122.784 146.652 122.808 146.625C122.831 146.598 122.86 146.576 122.892 146.56C122.925 146.544 122.96 146.535 122.996 146.534C123.034 146.527 123.074 146.528 123.112 146.538C123.149 146.548 123.185 146.565 123.215 146.59C123.246 146.615 123.27 146.646 123.287 146.681C123.305 146.716 123.314 146.754 123.315 146.793V146.793Z" fill="#EDF0F4"/>
<path d="M142.52 82.8585C142.498 82.9045 142.466 82.9454 142.427 82.9788C142.388 83.0123 142.343 83.0375 142.295 83.0531C142.246 83.0686 142.194 83.0742 142.143 83.0693C142.092 83.0645 142.043 83.0495 141.998 83.0251C141.952 83.0012 141.911 82.9684 141.878 82.9286C141.845 82.8889 141.82 82.8429 141.805 82.7934C141.79 82.7439 141.785 82.6919 141.79 82.6404C141.795 82.5889 141.81 82.539 141.835 82.4934C141.858 82.4487 141.89 82.4092 141.929 82.377C141.968 82.3448 142.013 82.3207 142.061 82.3061C142.11 82.2915 142.16 82.2866 142.211 82.2918C142.261 82.2969 142.309 82.3121 142.354 82.3362C142.401 82.3577 142.443 82.3887 142.477 82.4273C142.511 82.4659 142.537 82.5113 142.553 82.5605C142.568 82.6097 142.574 82.6616 142.568 82.7129C142.562 82.7643 142.546 82.8138 142.52 82.8585V82.8585Z" fill="#EDF0F4"/>
<path d="M135.549 99.0083C135.511 99.101 135.439 99.1757 135.348 99.2169C135.257 99.2582 135.154 99.2628 135.059 99.23C135.01 99.2143 134.964 99.1888 134.925 99.155C134.886 99.1212 134.855 99.0798 134.832 99.0333C134.81 98.9869 134.797 98.9363 134.795 98.8847C134.792 98.8331 134.801 98.7816 134.819 98.7333C134.836 98.6849 134.862 98.6403 134.896 98.602C134.93 98.5638 134.971 98.5326 135.017 98.5103C135.064 98.4879 135.114 98.4749 135.165 98.472C135.216 98.469 135.267 98.4761 135.315 98.493C135.415 98.5304 135.495 98.6057 135.539 98.7023C135.583 98.799 135.586 98.9091 135.549 99.0083V99.0083Z" fill="#EDF0F4"/>
<path d="M138.732 90.8146C138.713 90.8616 138.685 90.9044 138.649 90.9403C138.613 90.9763 138.57 91.0046 138.523 91.0238C138.476 91.0429 138.426 91.0524 138.375 91.0517C138.324 91.051 138.274 91.0402 138.227 91.0198C138.133 90.9762 138.059 90.8985 138.02 90.8025C137.981 90.7064 137.979 90.5991 138.016 90.5021C138.06 90.4089 138.137 90.3359 138.233 90.2983C138.329 90.2607 138.435 90.2615 138.53 90.3004C138.578 90.3198 138.622 90.3487 138.658 90.3854C138.695 90.4222 138.723 90.4659 138.742 90.5141C138.761 90.5622 138.77 90.6137 138.768 90.6653C138.766 90.717 138.754 90.7678 138.732 90.8146V90.8146Z" fill="#EDF0F4"/>
<path d="M169.594 48.4125C169.587 48.473 169.565 48.5308 169.53 48.5809C169.451 48.6471 169.349 48.6802 169.246 48.6733C169.144 48.6664 169.047 48.62 168.978 48.5438C168.91 48.4673 168.876 48.3671 168.882 48.2653C168.888 48.1634 168.935 48.0683 169.011 48.0007C169.088 47.9332 169.188 47.8988 169.29 47.9051C169.392 47.9114 169.487 47.9579 169.554 48.0344C169.596 48.0874 169.621 48.151 169.628 48.2178C169.635 48.2846 169.623 48.352 169.594 48.4125V48.4125Z" fill="#EDF0F4"/>
<path d="M163.207 54.4161C163.198 54.4692 163.179 54.52 163.151 54.5658C163.115 54.6054 163.072 54.6374 163.024 54.6598C162.976 54.6823 162.924 54.6946 162.871 54.6962C162.818 54.6978 162.765 54.6885 162.716 54.669C162.667 54.6494 162.622 54.62 162.584 54.5826C162.547 54.5451 162.517 54.5004 162.497 54.4512C162.478 54.4019 162.468 54.3491 162.47 54.2961C162.471 54.2431 162.483 54.1909 162.506 54.1427C162.528 54.0946 162.56 54.0515 162.599 54.016C162.672 53.9454 162.77 53.906 162.872 53.9064C162.973 53.9068 163.071 53.9469 163.143 54.0181C163.19 54.0717 163.221 54.1375 163.232 54.2079C163.244 54.2783 163.235 54.3504 163.207 54.4161V54.4161Z" fill="#EDF0F4"/>
<path d="M146.888 75.2075L146.86 75.2824C146.804 75.3689 146.717 75.4299 146.616 75.4521C146.516 75.4743 146.411 75.4559 146.324 75.401C146.28 75.3754 146.241 75.3412 146.211 75.3004C146.18 75.2596 146.158 75.2131 146.146 75.1636C146.133 75.1141 146.131 75.0627 146.139 75.0123C146.147 74.962 146.165 74.9138 146.192 74.8706C146.219 74.8265 146.255 74.7882 146.296 74.7579C146.338 74.7275 146.385 74.7058 146.436 74.6939C146.486 74.682 146.538 74.6802 146.589 74.6886C146.64 74.6969 146.688 74.7153 146.732 74.7426C146.808 74.7906 146.864 74.8629 146.892 74.9475C146.921 75.0321 146.919 75.1239 146.888 75.2075Z" fill="#EDF0F4"/>
<path d="M157.232 60.9699C157.225 61.0132 157.21 61.0546 157.186 61.0916C157.136 61.15 157.069 61.1921 156.995 61.2126C156.92 61.2332 156.841 61.2311 156.768 61.2068C156.695 61.1824 156.631 61.1369 156.583 61.0759C156.536 61.0149 156.508 60.9413 156.502 60.8642C156.497 60.7872 156.514 60.7103 156.553 60.6433C156.591 60.5762 156.648 60.5221 156.717 60.4876C156.786 60.4532 156.864 60.44 156.941 60.4498C157.017 60.4596 157.089 60.4919 157.147 60.5426C157.202 60.5973 157.24 60.6672 157.255 60.7433C157.27 60.8195 157.262 60.8983 157.232 60.9699Z" fill="#EDF0F4"/>
<path d="M151.8 67.8997L151.765 67.9933C151.736 68.0376 151.698 68.0756 151.654 68.1049C151.61 68.1342 151.56 68.1542 151.508 68.1636C151.456 68.1731 151.402 68.1718 151.351 68.1599C151.299 68.148 151.25 68.1256 151.208 68.0943C151.165 68.0629 151.129 68.0232 151.102 67.9775C151.075 67.9318 151.058 67.8811 151.051 67.8285C151.045 67.7759 151.049 67.7225 151.064 67.6716C151.079 67.6207 151.103 67.5733 151.137 67.5323V67.5323C151.191 67.4499 151.274 67.3907 151.369 67.3668C151.464 67.3429 151.565 67.3559 151.652 67.4033C151.738 67.4506 151.803 67.5288 151.834 67.6222C151.865 67.7156 151.86 67.8172 151.819 67.9068L151.8 67.8997Z" fill="#EDF0F4"/>
<path d="M129.559 150.898C129.551 150.958 129.529 151.016 129.495 151.066C129.47 151.134 129.427 151.192 129.37 151.237C129.314 151.282 129.247 151.31 129.176 151.32C129.124 151.326 129.073 151.321 129.023 151.307C128.974 151.292 128.928 151.268 128.889 151.235C128.849 151.202 128.817 151.161 128.793 151.115C128.77 151.07 128.756 151.019 128.752 150.968C128.744 150.917 128.747 150.865 128.76 150.816C128.774 150.766 128.797 150.719 128.829 150.679C128.862 150.639 128.902 150.606 128.948 150.582C128.993 150.559 129.043 150.545 129.095 150.541C129.149 150.531 129.205 150.532 129.259 150.545C129.313 150.557 129.363 150.581 129.407 150.615C129.451 150.649 129.487 150.691 129.514 150.74C129.54 150.789 129.555 150.843 129.559 150.898V150.898Z" fill="#EDF0F4"/>
<path d="M128.944 142.149L128.891 142.29C128.866 142.356 128.824 142.414 128.768 142.458C128.713 142.502 128.647 142.53 128.577 142.539C128.507 142.548 128.436 142.538 128.371 142.51C128.306 142.482 128.25 142.437 128.209 142.38C128.168 142.322 128.143 142.255 128.137 142.184C128.131 142.114 128.145 142.044 128.176 141.98C128.207 141.917 128.255 141.863 128.314 141.825C128.373 141.786 128.442 141.765 128.512 141.762C128.567 141.755 128.623 141.76 128.675 141.776C128.728 141.792 128.777 141.819 128.818 141.856C128.859 141.893 128.891 141.938 128.913 141.989C128.935 142.039 128.945 142.094 128.944 142.149V142.149Z" fill="#EDF0F4"/>
<path d="M132.703 168.39C132.68 168.449 132.643 168.501 132.596 168.542C132.549 168.584 132.492 168.614 132.431 168.63C132.331 168.653 132.225 168.637 132.135 168.585C132.046 168.534 131.979 168.45 131.949 168.352C131.929 168.25 131.948 168.145 132.001 168.057C132.054 167.969 132.138 167.903 132.236 167.872C132.285 167.858 132.337 167.854 132.387 167.86C132.438 167.867 132.487 167.883 132.531 167.909C132.575 167.934 132.614 167.969 132.645 168.01C132.675 168.05 132.697 168.097 132.71 168.147C132.738 168.226 132.735 168.313 132.703 168.39V168.39Z" fill="#EDF0F4"/>
<path d="M130.815 159.589C130.829 159.654 130.822 159.723 130.795 159.784C130.773 159.846 130.735 159.902 130.685 159.945C130.635 159.988 130.575 160.017 130.51 160.03C130.46 160.04 130.408 160.041 130.357 160.031C130.307 160.022 130.259 160.003 130.216 159.975C130.173 159.946 130.136 159.91 130.107 159.868C130.078 159.825 130.058 159.777 130.047 159.727C130.038 159.676 130.039 159.623 130.05 159.573C130.061 159.522 130.082 159.474 130.112 159.431C130.142 159.389 130.18 159.353 130.224 159.325C130.268 159.298 130.317 159.279 130.369 159.271C130.419 159.261 130.471 159.262 130.521 159.273C130.571 159.284 130.618 159.305 130.66 159.335C130.701 159.364 130.737 159.402 130.763 159.446C130.79 159.49 130.808 159.538 130.815 159.589V159.589Z" fill="#EDF0F4"/>
<path d="M130.993 115.949L130.972 116.005C130.938 116.092 130.875 116.165 130.793 116.21C130.712 116.255 130.617 116.271 130.525 116.254C130.426 116.23 130.339 116.169 130.282 116.084C130.225 116 130.202 115.897 130.217 115.796C130.239 115.695 130.299 115.607 130.384 115.55C130.47 115.492 130.574 115.47 130.675 115.487C130.727 115.496 130.776 115.515 130.82 115.543C130.864 115.571 130.902 115.608 130.932 115.651C130.961 115.694 130.982 115.743 130.992 115.794C131.003 115.845 131.003 115.898 130.993 115.949V115.949Z" fill="#EDF0F4"/>
<path d="M132.953 107.401C132.907 107.481 132.833 107.543 132.746 107.574C132.659 107.605 132.563 107.605 132.477 107.572C132.39 107.539 132.318 107.477 132.273 107.396C132.228 107.315 132.214 107.22 132.232 107.13C132.245 107.08 132.268 107.033 132.299 106.992C132.33 106.951 132.369 106.916 132.413 106.89C132.458 106.864 132.507 106.847 132.558 106.841C132.609 106.834 132.661 106.837 132.711 106.851C132.765 106.868 132.815 106.896 132.858 106.934C132.9 106.973 132.934 107.019 132.956 107.071C132.979 107.123 132.991 107.18 132.99 107.237C132.989 107.293 132.977 107.35 132.953 107.401V107.401Z" fill="#EDF0F4"/>
<path d="M128.964 133.416L128.926 133.518C128.896 133.597 128.843 133.664 128.774 133.711C128.705 133.758 128.622 133.781 128.539 133.779C128.462 133.775 128.387 133.749 128.325 133.704C128.263 133.658 128.216 133.595 128.189 133.522C128.163 133.449 128.159 133.371 128.177 133.296C128.196 133.221 128.236 133.153 128.293 133.101C128.351 133.049 128.422 133.015 128.498 133.004C128.575 132.992 128.653 133.004 128.722 133.037C128.792 133.069 128.851 133.122 128.891 133.189C128.93 133.255 128.949 133.331 128.946 133.408L128.964 133.416Z" fill="#EDF0F4"/>
<path d="M129.668 124.63L129.632 124.723C129.6 124.802 129.543 124.87 129.47 124.915C129.398 124.96 129.313 124.982 129.227 124.977C129.125 124.964 129.033 124.913 128.969 124.832C128.905 124.752 128.875 124.651 128.886 124.549C128.889 124.497 128.904 124.446 128.928 124.4C128.952 124.354 128.985 124.313 129.025 124.28C129.066 124.247 129.113 124.223 129.163 124.209C129.213 124.195 129.266 124.191 129.317 124.198C129.42 124.211 129.514 124.263 129.58 124.343C129.645 124.424 129.676 124.526 129.668 124.63V124.63Z" fill="#EDF0F4"/>
<path d="M135.947 154.705C135.966 154.788 135.959 154.875 135.927 154.954C135.894 155.035 135.84 155.107 135.771 155.161C135.702 155.216 135.62 155.251 135.533 155.265C135.468 155.278 135.401 155.278 135.337 155.264C135.272 155.251 135.211 155.224 135.157 155.185C135.103 155.147 135.058 155.098 135.024 155.042C134.99 154.985 134.968 154.922 134.96 154.856C134.941 154.723 134.976 154.588 135.056 154.48C135.137 154.372 135.257 154.301 135.39 154.281C135.52 154.265 135.651 154.3 135.755 154.38C135.859 154.459 135.928 154.575 135.947 154.705V154.705Z" fill="#EDF0F4"/>
<path d="M135.018 146.137C135.008 146.207 134.983 146.274 134.944 146.334C134.912 146.418 134.858 146.492 134.787 146.548C134.717 146.604 134.632 146.64 134.543 146.651C134.454 146.663 134.363 146.651 134.28 146.616C134.197 146.58 134.126 146.523 134.073 146.45C134.02 146.377 133.987 146.291 133.979 146.202C133.971 146.112 133.987 146.022 134.026 145.941C134.064 145.859 134.124 145.79 134.199 145.74C134.274 145.69 134.361 145.661 134.451 145.657C134.521 145.647 134.591 145.652 134.659 145.672C134.726 145.692 134.788 145.725 134.842 145.771C134.895 145.816 134.939 145.872 134.969 145.935C134.999 145.998 135.016 146.067 135.018 146.137Z" fill="#EDF0F4"/>
<path d="M137.856 111.889L137.835 111.945C137.792 112.06 137.709 112.156 137.6 112.214C137.492 112.271 137.366 112.287 137.247 112.258C137.182 112.242 137.122 112.214 137.069 112.175C137.015 112.135 136.97 112.086 136.936 112.03C136.902 111.973 136.879 111.91 136.869 111.845C136.859 111.78 136.862 111.713 136.878 111.649C136.893 111.584 136.922 111.524 136.961 111.471C137 111.417 137.049 111.372 137.106 111.338C137.162 111.304 137.225 111.281 137.291 111.271C137.356 111.261 137.423 111.264 137.487 111.28C137.551 111.295 137.612 111.323 137.666 111.362C137.719 111.401 137.764 111.45 137.799 111.507C137.833 111.564 137.856 111.627 137.866 111.692C137.875 111.758 137.872 111.825 137.856 111.889Z" fill="#EDF0F4"/>
<path d="M140.195 103.579C140.15 103.7 140.059 103.799 139.942 103.855C139.826 103.91 139.692 103.919 139.57 103.878C139.443 103.837 139.338 103.748 139.277 103.63C139.217 103.512 139.205 103.375 139.246 103.248C139.286 103.122 139.375 103.017 139.494 102.956C139.612 102.895 139.749 102.884 139.875 102.924C139.941 102.945 140.001 102.978 140.053 103.022C140.105 103.067 140.147 103.121 140.177 103.183C140.207 103.244 140.224 103.311 140.227 103.379C140.23 103.447 140.219 103.515 140.195 103.579V103.579Z" fill="#EDF0F4"/>
<path d="M136.165 120.345L136.13 120.439C136.097 120.528 136.039 120.606 135.963 120.663C135.887 120.721 135.797 120.755 135.702 120.763C135.607 120.77 135.512 120.751 135.428 120.706C135.344 120.662 135.274 120.594 135.227 120.512C135.18 120.429 135.157 120.335 135.162 120.24C135.167 120.145 135.199 120.053 135.254 119.975C135.309 119.898 135.385 119.837 135.473 119.802C135.561 119.766 135.657 119.755 135.751 119.772C135.816 119.782 135.879 119.804 135.936 119.838C135.992 119.872 136.042 119.917 136.08 119.971C136.119 120.024 136.146 120.085 136.161 120.149C136.176 120.214 136.177 120.28 136.165 120.345V120.345Z" fill="#EDF0F4"/>
<path d="M134.74 137.515C134.733 137.576 134.711 137.633 134.676 137.684C134.641 137.781 134.577 137.864 134.492 137.922C134.406 137.98 134.305 138.01 134.202 138.007C134.07 138.003 133.945 137.948 133.853 137.853C133.761 137.759 133.71 137.633 133.709 137.501C133.711 137.368 133.765 137.242 133.86 137.149C133.955 137.057 134.083 137.006 134.215 137.008C134.284 137.004 134.352 137.015 134.416 137.039C134.48 137.063 134.538 137.1 134.588 137.148C134.637 137.195 134.676 137.252 134.702 137.316C134.728 137.379 134.741 137.447 134.74 137.515Z" fill="#EDF0F4"/>
<path d="M135.119 128.906C135.113 128.949 135.097 128.991 135.074 129.027C135.041 129.114 134.985 129.19 134.911 129.247C134.838 129.304 134.75 129.339 134.657 129.349C134.565 129.358 134.472 129.342 134.388 129.301C134.305 129.261 134.234 129.198 134.184 129.12C134.134 129.041 134.107 128.951 134.106 128.858C134.105 128.765 134.129 128.674 134.177 128.594C134.225 128.514 134.294 128.45 134.376 128.407C134.459 128.364 134.551 128.346 134.644 128.353C134.713 128.354 134.78 128.37 134.843 128.399C134.905 128.429 134.96 128.471 135.005 128.523C135.05 128.575 135.083 128.636 135.103 128.702C135.123 128.768 135.128 128.838 135.119 128.906V128.906Z" fill="#EDF0F4"/>
<path d="M143.145 95.4684C143.098 95.5925 143.004 95.693 142.883 95.7476C142.762 95.8023 142.624 95.8068 142.5 95.76C142.376 95.7133 142.276 95.6191 142.221 95.4983C142.166 95.3775 142.162 95.2399 142.209 95.1159C142.263 94.9944 142.361 94.8983 142.484 94.8471C142.606 94.7959 142.744 94.7936 142.868 94.8407C142.984 94.8922 143.077 94.9851 143.128 95.1011C143.179 95.2172 143.185 95.3482 143.145 95.4684V95.4684Z" fill="#EDF0F4"/>
<path d="M160.818 65.8051C160.807 65.8612 160.787 65.915 160.758 65.9642C160.716 66.0152 160.664 66.0574 160.605 66.0884C160.547 66.1193 160.483 66.1383 160.417 66.1443C160.351 66.1503 160.285 66.1431 160.222 66.1233C160.159 66.1034 160.1 66.0713 160.049 66.0286C159.951 65.9408 159.889 65.8188 159.877 65.6873C159.865 65.5557 159.904 65.4246 159.985 65.3204C160.071 65.2196 160.194 65.1564 160.326 65.1444C160.458 65.1324 160.59 65.1724 160.693 65.256C160.768 65.3236 160.82 65.4126 160.842 65.5109C160.864 65.6092 160.856 65.7119 160.818 65.8051V65.8051Z" fill="#EDF0F4"/>
<path d="M166.599 59.3382C166.59 59.4051 166.566 59.469 166.528 59.5254C166.483 59.5728 166.428 59.6107 166.368 59.637C166.307 59.6632 166.242 59.6772 166.176 59.6782C166.11 59.6792 166.045 59.6671 165.983 59.6427C165.922 59.6183 165.866 59.582 165.819 59.536C165.772 59.4902 165.734 59.4355 165.708 59.375C165.681 59.3145 165.667 59.2494 165.666 59.1835C165.665 59.1176 165.677 59.0521 165.702 58.9909C165.726 58.9296 165.763 58.8738 165.809 58.8267C165.902 58.7332 166.029 58.6798 166.161 58.6779C166.293 58.6759 166.421 58.7254 166.518 58.8161C166.579 58.8868 166.619 58.9733 166.633 59.0655C166.647 59.1578 166.636 59.2523 166.599 59.3382Z" fill="#EDF0F4"/>
<path d="M172.856 53.3384C172.823 53.411 172.776 53.4768 172.719 53.5325C172.67 53.5767 172.612 53.6106 172.55 53.6324C172.487 53.6542 172.421 53.6633 172.355 53.6593C172.289 53.6553 172.224 53.6382 172.165 53.609C172.105 53.5798 172.052 53.5391 172.009 53.4892C171.964 53.441 171.93 53.3844 171.908 53.3227C171.886 53.2611 171.877 53.1957 171.881 53.1303C171.884 53.065 171.901 53.0011 171.93 52.9423C171.959 52.8835 171.999 52.8311 172.048 52.7882C172.124 52.6749 172.241 52.5961 172.374 52.5692C172.508 52.5423 172.646 52.5695 172.76 52.6448C172.873 52.7201 172.952 52.8373 172.979 52.9707C173.005 53.1041 172.978 53.2427 172.903 53.356L172.856 53.3384Z" fill="#EDF0F4"/>
<path d="M155.571 72.6984L155.528 72.8106C155.49 72.8663 155.441 72.9138 155.384 72.9505C155.327 72.9872 155.263 73.0123 155.197 73.0244C155.13 73.0366 155.062 73.0354 154.996 73.0212C154.93 73.0069 154.867 72.9797 154.811 72.9412C154.756 72.9027 154.708 72.8536 154.671 72.7967C154.635 72.7398 154.61 72.6763 154.598 72.6097C154.585 72.5431 154.586 72.4748 154.601 72.4086C154.615 72.3425 154.642 72.2798 154.681 72.2241C154.718 72.1691 154.765 72.1222 154.821 72.0861C154.876 72.05 154.938 72.0255 155.004 72.0141C155.069 72.0027 155.136 72.0047 155.2 72.0198C155.265 72.035 155.325 72.063 155.379 72.1023C155.474 72.1649 155.545 72.2581 155.579 72.3665C155.614 72.4749 155.611 72.592 155.571 72.6984V72.6984Z" fill="#EDF0F4"/>
<path d="M146.709 87.5676C146.681 87.6269 146.642 87.6802 146.593 87.7241C146.545 87.768 146.488 87.8017 146.426 87.8232C146.364 87.8448 146.298 87.8536 146.233 87.8493C146.167 87.8451 146.103 87.8277 146.045 87.7983C145.958 87.7553 145.886 87.6882 145.837 87.605C145.788 87.5218 145.764 87.4262 145.768 87.3296C145.772 87.233 145.803 87.1397 145.859 87.0609C145.915 86.9821 145.993 86.9212 146.083 86.8856C146.173 86.8499 146.271 86.8411 146.366 86.8602C146.46 86.8792 146.548 86.9253 146.617 86.9929C146.686 87.0605 146.734 87.1466 146.755 87.241C146.776 87.3353 146.77 87.4337 146.736 87.5243L146.709 87.5676Z" fill="#EDF0F4"/>
<path d="M150.844 79.9679L150.816 80.0427C150.748 80.1589 150.637 80.2433 150.507 80.2775C150.377 80.3116 150.238 80.2927 150.122 80.2248C150.006 80.157 149.922 80.0458 149.887 79.9157C149.853 79.7856 149.872 79.6472 149.94 79.5311C149.973 79.474 150.017 79.424 150.07 79.384C150.123 79.344 150.182 79.3149 150.246 79.2982C150.31 79.2816 150.377 79.2777 150.442 79.2869C150.508 79.2962 150.571 79.3182 150.627 79.3519C150.731 79.4115 150.81 79.5065 150.85 79.6196C150.89 79.7327 150.888 79.8563 150.844 79.9679V79.9679Z" fill="#EDF0F4"/>
<path d="M147.705 99.8699C147.678 99.9462 147.636 100.016 147.581 100.076C147.527 100.136 147.461 100.184 147.387 100.218C147.314 100.252 147.234 100.271 147.153 100.274C147.073 100.277 146.992 100.264 146.916 100.235C146.8 100.194 146.699 100.118 146.626 100.019C146.553 99.9205 146.511 99.8019 146.506 99.679C146.5 99.5561 146.532 99.4343 146.596 99.3292C146.66 99.2241 146.753 99.1404 146.865 99.0887C146.977 99.037 147.101 99.0198 147.223 99.0391C147.344 99.0585 147.457 99.1135 147.547 99.1973C147.638 99.2811 147.701 99.3898 147.729 99.5096C147.757 99.6293 147.749 99.7548 147.705 99.8699V99.8699Z" fill="#EDF0F4"/>
<path d="M140.651 141.367C140.637 141.443 140.61 141.516 140.57 141.582C140.528 141.697 140.452 141.796 140.353 141.867C140.254 141.939 140.136 141.978 140.014 141.982C139.934 141.985 139.854 141.972 139.78 141.944C139.705 141.916 139.637 141.873 139.579 141.819C139.521 141.764 139.474 141.698 139.442 141.625C139.41 141.553 139.392 141.474 139.391 141.394C139.385 141.232 139.444 141.074 139.555 140.956C139.666 140.837 139.819 140.768 139.982 140.762C140.144 140.757 140.301 140.816 140.42 140.927C140.539 141.037 140.608 141.191 140.614 141.353L140.651 141.367Z" fill="#EDF0F4"/>
<path d="M159.28 76.5527C159.393 76.629 159.478 76.7413 159.52 76.8715C159.562 77.0017 159.559 77.1422 159.512 77.2705L159.462 77.4015C159.417 77.4679 159.359 77.5247 159.292 77.5687C159.224 77.6127 159.149 77.643 159.07 77.6579C158.991 77.6728 158.91 77.6719 158.831 77.6554C158.752 77.6389 158.677 77.6071 158.611 77.5617C158.545 77.5163 158.488 77.4583 158.444 77.391C158.4 77.3237 158.37 77.2484 158.355 77.1693C158.34 77.0903 158.341 77.0091 158.357 76.9304C158.374 76.8517 158.406 76.777 158.451 76.7106C158.54 76.5804 158.678 76.4909 158.833 76.4613C158.988 76.4317 159.149 76.4646 159.28 76.5527V76.5527Z" fill="#EDF0F4"/>
<path d="M170.219 64.0248C170.206 64.1012 170.179 64.1743 170.138 64.2401C170.083 64.2988 170.017 64.3462 169.944 64.3793C169.871 64.4125 169.791 64.4309 169.711 64.4334C169.631 64.4359 169.551 64.4224 169.475 64.3938C169.4 64.3652 169.331 64.3221 169.273 64.2668C169.215 64.2111 169.168 64.1445 169.135 64.0708C169.103 63.9971 169.085 63.9177 169.083 63.8371C169.081 63.7565 169.095 63.6763 169.124 63.6011C169.153 63.5259 169.197 63.4572 169.253 63.3989C169.308 63.3406 169.375 63.2938 169.449 63.2612C169.522 63.2286 169.602 63.2109 169.682 63.209C169.763 63.2071 169.843 63.2211 169.918 63.2502C169.994 63.2793 170.062 63.3229 170.121 63.3786C170.195 63.467 170.243 63.574 170.26 63.6879C170.278 63.8019 170.263 63.9184 170.219 64.0248V64.0248Z" fill="#EDF0F4"/>
<path d="M140.731 132.902C140.719 132.961 140.698 133.018 140.668 133.07C140.62 133.192 140.536 133.296 140.427 133.368C140.317 133.439 140.188 133.475 140.058 133.471C139.895 133.462 139.743 133.389 139.634 133.268C139.525 133.147 139.469 132.987 139.478 132.825C139.487 132.662 139.56 132.51 139.681 132.401C139.802 132.293 139.961 132.236 140.124 132.245C140.207 132.247 140.29 132.265 140.366 132.299C140.442 132.333 140.511 132.383 140.567 132.444C140.624 132.505 140.668 132.577 140.696 132.656C140.724 132.735 140.736 132.818 140.731 132.902V132.902Z" fill="#EDF0F4"/>
<path d="M141.238 149.795C141.247 149.888 141.237 149.983 141.208 150.072C141.169 150.18 141.1 150.274 141.01 150.344C140.919 150.414 140.81 150.457 140.696 150.467C140.536 150.483 140.377 150.436 140.251 150.337C140.125 150.238 140.042 150.093 140.02 149.934C140.003 149.772 140.05 149.609 140.153 149.481C140.255 149.354 140.403 149.272 140.565 149.253C140.645 149.244 140.726 149.251 140.803 149.274C140.88 149.297 140.951 149.334 141.014 149.384C141.076 149.435 141.128 149.497 141.167 149.567C141.205 149.638 141.229 149.715 141.238 149.795V149.795Z" fill="#EDF0F4"/>
<path d="M164.607 70.4388L164.54 70.6166C164.489 70.679 164.426 70.7306 164.355 70.7685C164.284 70.8064 164.206 70.8297 164.125 70.8372C164.045 70.8447 163.964 70.8362 163.887 70.8122C163.81 70.7881 163.738 70.749 163.676 70.6972C163.55 70.5958 163.47 70.4484 163.452 70.2875C163.434 70.1266 163.482 69.9653 163.583 69.8391C163.684 69.7129 163.832 69.6322 163.993 69.6147C164.154 69.5971 164.315 69.6442 164.441 69.7456C164.538 69.8291 164.606 69.941 164.636 70.0654C164.666 70.1898 164.656 70.3204 164.607 70.4388V70.4388Z" fill="#EDF0F4"/>
<path d="M151.039 92.0418C150.989 92.1518 150.907 92.2443 150.804 92.3077C150.701 92.371 150.582 92.4023 150.461 92.3976C150.34 92.3928 150.223 92.3523 150.126 92.2811C150.028 92.2099 149.953 92.1112 149.912 91.9977C149.87 91.8841 149.863 91.7608 149.892 91.6433C149.921 91.5258 149.984 91.4195 150.073 91.3379C150.162 91.2563 150.274 91.203 150.393 91.1849C150.513 91.1668 150.635 91.1846 150.745 91.2361C150.817 91.269 150.883 91.316 150.937 91.3746C150.992 91.4331 151.034 91.5019 151.062 91.577C151.089 91.652 151.101 91.7318 151.097 91.8116C151.094 91.8915 151.074 91.9697 151.039 92.0418V92.0418Z" fill="#EDF0F4"/>
<path d="M144.987 107.907C144.93 108.058 144.815 108.181 144.668 108.248C144.52 108.314 144.352 108.32 144.201 108.263C144.05 108.206 143.927 108.091 143.86 107.943C143.794 107.796 143.788 107.628 143.845 107.477C143.892 107.322 143.999 107.192 144.142 107.115C144.285 107.039 144.453 107.022 144.608 107.07C144.763 107.117 144.893 107.224 144.969 107.367C145.046 107.51 145.062 107.677 145.015 107.832L144.987 107.907Z" fill="#EDF0F4"/>
<path d="M153.889 83.9681C153.957 83.821 154.081 83.7069 154.233 83.651C154.386 83.5952 154.554 83.6021 154.701 83.6704C154.848 83.7386 154.962 83.8624 155.018 84.0148C155.074 84.1671 155.067 84.3353 154.999 84.4825L154.96 84.5854C154.872 84.7143 154.738 84.8051 154.586 84.8398C154.434 84.8744 154.274 84.8504 154.139 84.7724C154.003 84.6945 153.903 84.5683 153.856 84.4192C153.81 84.2701 153.822 84.109 153.889 83.9681V83.9681Z" fill="#EDF0F4"/>
<path d="M142.911 116.112L142.872 116.215C142.826 116.371 142.721 116.502 142.578 116.58C142.436 116.657 142.268 116.675 142.113 116.629C141.957 116.583 141.826 116.477 141.748 116.335C141.671 116.192 141.653 116.025 141.699 115.869C141.716 115.791 141.749 115.717 141.795 115.651C141.841 115.586 141.9 115.53 141.968 115.487C142.036 115.444 142.111 115.415 142.19 115.401C142.27 115.387 142.35 115.389 142.429 115.407C142.507 115.421 142.582 115.451 142.648 115.494C142.715 115.537 142.773 115.593 142.817 115.659C142.862 115.724 142.894 115.798 142.91 115.876C142.926 115.954 142.926 116.034 142.911 116.112V116.112Z" fill="#EDF0F4"/>
<path d="M141.484 124.465C141.477 124.512 141.461 124.557 141.435 124.596C141.386 124.724 141.295 124.832 141.178 124.902C141.06 124.972 140.922 125 140.787 124.983C140.707 124.972 140.63 124.946 140.561 124.906C140.491 124.866 140.43 124.813 140.381 124.749C140.332 124.686 140.296 124.613 140.275 124.536C140.254 124.458 140.249 124.377 140.259 124.298C140.27 124.218 140.296 124.141 140.336 124.072C140.376 124.002 140.429 123.941 140.493 123.892C140.556 123.843 140.629 123.807 140.706 123.786C140.784 123.765 140.865 123.76 140.944 123.77C141.027 123.778 141.106 123.802 141.179 123.841C141.251 123.881 141.315 123.935 141.366 124C141.416 124.065 141.453 124.14 141.473 124.22C141.494 124.3 141.497 124.384 141.484 124.465V124.465Z" fill="#EDF0F4"/>
<path d="M176.329 58.0773C176.291 58.1667 176.235 58.2474 176.164 58.3147C176.105 58.3691 176.034 58.411 175.958 58.438C175.882 58.465 175.801 58.4765 175.72 58.4719C175.639 58.4674 175.56 58.4467 175.487 58.4112C175.414 58.3758 175.349 58.3262 175.296 58.2653C175.211 58.141 175.174 57.9898 175.192 57.84C175.21 57.6902 175.282 57.5522 175.394 57.4518C175.507 57.3513 175.652 57.2953 175.803 57.2943C175.954 57.2933 176.1 57.3474 176.214 57.4463C176.29 57.5304 176.341 57.634 176.361 57.7455C176.381 57.8569 176.37 57.9719 176.329 58.0773V58.0773Z" fill="#EDF0F4"/>
<path d="M155.537 96.2702C155.5 96.3565 155.445 96.4345 155.376 96.4994C155.308 96.5644 155.227 96.615 155.139 96.6484C155.051 96.6819 154.957 96.6974 154.863 96.6941C154.768 96.6908 154.676 96.6687 154.59 96.6292C154.416 96.5507 154.279 96.4061 154.212 96.2272C154.144 96.0483 154.15 95.8498 154.228 95.6753C154.307 95.5009 154.451 95.3647 154.63 95.2968C154.809 95.229 155.007 95.2349 155.182 95.3134C155.269 95.3516 155.348 95.407 155.413 95.4763C155.479 95.5455 155.529 95.6272 155.563 95.7164C155.596 95.8057 155.611 95.9007 155.606 95.9959C155.602 96.091 155.579 96.1843 155.537 96.2702V96.2702Z" fill="#EDF0F4"/>
<path d="M149.935 111.962L149.91 112.028C149.838 112.193 149.705 112.323 149.538 112.391C149.372 112.459 149.185 112.459 149.018 112.391C148.852 112.324 148.718 112.193 148.646 112.029C148.574 111.864 148.569 111.677 148.632 111.509C148.696 111.34 148.822 111.203 148.985 111.127C149.148 111.051 149.335 111.041 149.505 111.1C149.675 111.159 149.815 111.283 149.895 111.444C149.976 111.605 149.99 111.791 149.935 111.962V111.962Z" fill="#EDF0F4"/>
<path d="M146.471 136.614C146.474 136.693 146.463 136.772 146.437 136.847C146.374 137.004 146.259 137.134 146.111 137.215C145.963 137.297 145.791 137.324 145.625 137.293C145.459 137.262 145.309 137.174 145.2 137.045C145.092 136.916 145.031 136.753 145.029 136.584C145.031 136.489 145.052 136.396 145.09 136.309C145.128 136.222 145.182 136.144 145.251 136.078C145.319 136.013 145.4 135.961 145.488 135.927C145.576 135.892 145.671 135.876 145.765 135.878C145.861 135.879 145.955 135.898 146.042 135.936C146.129 135.973 146.208 136.028 146.274 136.097C146.34 136.165 146.391 136.246 146.425 136.335C146.459 136.424 146.475 136.519 146.471 136.614V136.614Z" fill="#EDF0F4"/>
<path d="M146.954 128.3C146.939 128.366 146.916 128.429 146.883 128.487C146.827 128.636 146.723 128.762 146.588 128.844C146.452 128.927 146.292 128.961 146.135 128.942C146.037 128.937 145.942 128.912 145.855 128.869C145.767 128.826 145.69 128.766 145.626 128.692C145.563 128.618 145.515 128.532 145.486 128.439C145.457 128.346 145.447 128.248 145.456 128.152C145.466 128.055 145.495 127.961 145.543 127.875C145.59 127.79 145.654 127.715 145.73 127.655C145.807 127.596 145.895 127.552 145.99 127.527C146.084 127.502 146.182 127.497 146.278 127.511C146.375 127.517 146.47 127.542 146.557 127.585C146.644 127.628 146.721 127.688 146.784 127.762C146.847 127.836 146.895 127.921 146.924 128.014C146.953 128.106 146.963 128.204 146.954 128.3V128.3Z" fill="#EDF0F4"/>
<path d="M152.412 104.027C152.38 104.115 152.331 104.196 152.268 104.266C152.204 104.335 152.127 104.391 152.042 104.43C151.956 104.47 151.864 104.492 151.77 104.495C151.676 104.499 151.582 104.483 151.494 104.45C151.36 104.402 151.244 104.315 151.159 104.2C151.075 104.085 151.026 103.948 151.019 103.806C151.013 103.664 151.049 103.523 151.122 103.401C151.196 103.279 151.304 103.182 151.433 103.121C151.561 103.061 151.705 103.04 151.846 103.061C151.987 103.082 152.118 103.145 152.224 103.241C152.329 103.337 152.403 103.462 152.438 103.6C152.472 103.738 152.464 103.883 152.416 104.017L152.412 104.027Z" fill="#EDF0F4"/>
<path d="M147.481 119.212C147.67 119.249 147.836 119.359 147.944 119.518C148.053 119.676 148.094 119.872 148.059 120.061L148.013 120.182C147.95 120.351 147.825 120.49 147.664 120.572C147.502 120.653 147.316 120.671 147.143 120.621C146.969 120.572 146.82 120.459 146.726 120.305C146.631 120.151 146.598 119.968 146.633 119.79C146.65 119.696 146.685 119.607 146.737 119.526C146.789 119.446 146.857 119.377 146.936 119.324C147.015 119.27 147.104 119.232 147.197 119.213C147.291 119.194 147.387 119.194 147.481 119.212V119.212Z" fill="#EDF0F4"/>
<path d="M168.339 74.0352C168.459 74.1284 168.546 74.2577 168.587 74.4039C168.628 74.5502 168.621 74.7058 168.567 74.8478C168.549 74.9227 168.522 74.995 168.486 75.0631C168.397 75.174 168.278 75.2562 168.142 75.2993C168.007 75.3424 167.862 75.3445 167.725 75.3053C167.589 75.2662 167.467 75.1875 167.375 75.0793C167.283 74.971 167.225 74.8379 167.209 74.6969C167.192 74.5558 167.218 74.413 167.282 74.2864C167.347 74.1598 167.447 74.0552 167.571 73.9856C167.695 73.916 167.837 73.8846 167.978 73.8953C168.12 73.906 168.255 73.9584 168.367 74.0458L168.339 74.0352Z" fill="#EDF0F4"/>
<path d="M163.641 81.626L163.585 81.7757C163.532 81.855 163.465 81.9231 163.386 81.9763C163.308 82.0295 163.219 82.0666 163.126 82.0857C163.033 82.1047 162.937 82.1053 162.844 82.0873C162.751 82.0693 162.662 82.0331 162.583 81.9808C162.504 81.9285 162.436 81.8611 162.383 81.7824C162.329 81.7038 162.292 81.6154 162.273 81.5224C162.254 81.4294 162.254 81.3336 162.272 81.2403C162.29 81.1471 162.326 81.0584 162.378 80.9792C162.477 80.8339 162.625 80.7297 162.795 80.6861C162.965 80.6424 163.145 80.6625 163.301 80.7424C163.458 80.8223 163.58 80.9566 163.644 81.1199C163.708 81.2833 163.71 81.4645 163.65 81.6295L163.641 81.626Z" fill="#EDF0F4"/>
<path d="M159.289 88.7818L159.25 88.8848C159.156 89.051 159 89.1735 158.816 89.2262C158.633 89.2789 158.436 89.2575 158.268 89.1665C158.147 89.1004 158.047 89.0011 157.981 88.8801C157.915 88.7592 157.885 88.6219 157.894 88.4844C157.904 88.3469 157.953 88.215 158.035 88.1045C158.118 87.9939 158.23 87.9093 158.359 87.8607C158.488 87.8122 158.628 87.8016 158.763 87.8304C158.898 87.8591 159.021 87.926 159.119 88.023C159.217 88.12 159.285 88.243 159.315 88.3775C159.345 88.5121 159.336 88.6524 159.289 88.7818V88.7818Z" fill="#EDF0F4"/>
<path d="M160.194 100.247C160.105 100.447 159.94 100.605 159.736 100.686C159.532 100.767 159.304 100.764 159.102 100.679C159.001 100.637 158.909 100.575 158.832 100.497C158.755 100.419 158.695 100.326 158.655 100.224C158.614 100.122 158.595 100.013 158.597 99.9038C158.6 99.7943 158.624 99.6864 158.669 99.5865C158.747 99.3805 158.903 99.2138 159.104 99.123C159.304 99.0322 159.532 99.0248 159.738 99.1024C159.944 99.18 160.111 99.3363 160.202 99.5368C160.293 99.7374 160.3 99.9658 160.223 100.172L160.194 100.247Z" fill="#EDF0F4"/>
<path d="M155.008 115.743L154.972 115.837C154.904 116.029 154.766 116.19 154.585 116.286C154.405 116.382 154.195 116.407 153.996 116.356C153.782 116.304 153.598 116.169 153.483 115.98C153.369 115.792 153.334 115.566 153.386 115.352C153.439 115.137 153.574 114.953 153.762 114.839C153.951 114.724 154.177 114.689 154.391 114.742C154.499 114.764 154.601 114.808 154.691 114.872C154.781 114.935 154.857 115.016 154.915 115.11C154.972 115.204 155.01 115.308 155.026 115.417C155.042 115.526 155.036 115.637 155.008 115.743V115.743Z" fill="#EDF0F4"/>
<path d="M156.743 106.855C156.953 106.925 157.127 107.075 157.226 107.273C157.326 107.471 157.344 107.7 157.275 107.91V107.91C157.219 108.065 157.118 108.201 156.985 108.299C156.852 108.397 156.693 108.454 156.528 108.462C156.363 108.47 156.199 108.429 156.057 108.345C155.915 108.26 155.801 108.136 155.729 107.987C155.658 107.838 155.631 107.671 155.654 107.508C155.677 107.344 155.747 107.191 155.856 107.067C155.966 106.943 156.109 106.854 156.269 106.811C156.429 106.769 156.597 106.774 156.754 106.827L156.743 106.855Z" fill="#EDF0F4"/>
<path d="M163.769 92.8313L163.73 92.9342C163.678 93.0305 163.608 93.1157 163.524 93.1848C163.439 93.254 163.341 93.3058 163.237 93.3374C163.132 93.3689 163.022 93.3795 162.914 93.3685C162.805 93.3576 162.699 93.3254 162.603 93.2736C162.507 93.2219 162.422 93.1518 162.352 93.0671C162.283 92.9825 162.231 92.8851 162.2 92.7804C162.168 92.6758 162.158 92.5659 162.169 92.4572C162.18 92.3484 162.212 92.2429 162.264 92.1466C162.309 92.0471 162.373 91.9576 162.453 91.883C162.533 91.8084 162.626 91.7503 162.729 91.7119C162.831 91.6735 162.94 91.6557 163.049 91.6594C163.158 91.663 163.266 91.6882 163.365 91.7334C163.464 91.7786 163.554 91.8429 163.629 91.9227C163.703 92.0025 163.761 92.0963 163.8 92.1985C163.838 92.3008 163.856 92.4096 163.852 92.5188C163.849 92.628 163.823 92.7354 163.778 92.8348L163.769 92.8313Z" fill="#EDF0F4"/>
<path d="M126.108 56.0509C115.619 52.0991 104.195 51.3463 93.2782 53.8876C82.3618 56.4289 72.4442 62.1503 64.7795 70.3281C57.1147 78.506 52.0471 88.773 50.2175 99.8309C48.3879 110.889 49.8784 122.241 54.5005 132.452C59.1227 142.663 66.6689 151.274 76.1849 157.196C85.701 163.118 96.7594 166.085 107.962 165.722C119.164 165.359 130.007 161.683 139.12 155.157C148.233 148.632 155.206 139.551 159.158 129.062C164.441 114.997 163.928 99.4097 157.732 85.7218C151.535 72.034 140.162 61.3632 126.108 56.0509V56.0509ZM126.46 55.1151C137.125 59.1332 146.359 66.2231 152.995 75.4884C159.63 84.7537 163.37 95.7784 163.741 107.169C164.112 118.559 161.097 129.804 155.078 139.481C149.059 149.159 140.306 156.834 129.926 161.537C119.545 166.241 108.003 167.761 96.7586 165.905C85.5142 164.05 75.0724 158.902 66.7532 151.113C58.434 143.324 52.611 133.243 50.0203 122.145C47.4296 111.047 48.1875 99.4301 52.1982 88.7627C57.5871 74.4598 68.4371 62.8835 82.3614 56.5803C96.2856 50.2772 112.143 49.7636 126.446 55.1525L126.46 55.1151Z" fill="#A8AEBA"/>
<path d="M120.77 70.2188C113.084 67.3208 104.711 66.7672 96.7101 68.628C88.7093 70.4888 81.4401 74.6804 75.8217 80.6727C70.2033 86.6651 66.4881 94.189 65.146 102.293C63.8038 110.397 64.8951 118.717 68.2817 126.2C71.6683 133.684 77.1981 139.995 84.1718 144.336C91.1454 148.677 99.2497 150.852 107.46 150.587C115.67 150.321 123.617 147.627 130.295 142.845C136.974 138.063 142.085 131.408 144.981 123.721C148.864 113.415 148.494 101.99 143.954 91.9564C139.414 81.9232 131.074 74.1041 120.77 70.2188V70.2188ZM121.122 69.283C129.003 72.2523 135.826 77.4917 140.729 84.3389C145.632 91.186 148.395 99.3332 148.667 107.75C148.94 116.167 146.71 124.476 142.261 131.626C137.811 138.776 131.341 144.446 123.669 147.919C115.997 151.392 107.467 152.512 99.1589 151.138C90.8503 149.763 83.136 145.955 76.9914 140.196C70.8469 134.437 66.548 126.985 64.6386 118.783C62.7291 110.581 63.2947 101.997 66.264 94.116C70.2472 83.5439 78.2641 74.9854 88.5535 70.3203C98.8429 65.6553 110.563 65.2654 121.14 69.2363L121.122 69.283Z" fill="#A8AEBA"/>
<path d="M120.019 72.2112C110.241 68.5269 99.399 68.878 89.8794 73.1873C80.3598 77.4966 72.942 85.411 69.2577 95.1895L49.9338 87.9088C55.549 73.0053 66.8547 60.9428 81.3636 54.375C95.8726 47.8072 112.396 47.272 127.3 52.8873C142.203 58.5025 154.266 69.8081 160.834 84.317C167.401 98.826 167.937 115.35 162.321 130.253L142.988 122.969C146.672 113.192 146.321 102.352 142.014 92.8339C137.707 83.3153 129.795 75.8973 120.019 72.2112V72.2112Z" fill="#FC7F4F"/>
</g>
<defs>
<filter id="filter0_d_2022_4234" x="40.5114" y="47.9043" width="135.859" height="135.571" filterUnits="userSpaceOnUse" color-interpolation-filters="sRGB">
<feFlood flood-opacity="0" result="BackgroundImageFix"/>
<feColorMatrix in="SourceAlpha" type="matrix" values="0 0 0 0 0 0 0 0 0 0 0 0 0 0 0 0 0 0 127 0" result="hardAlpha"/>
<feOffset dx="-4" dy="6"/>
<feGaussianBlur stdDeviation="2"/>
<feComposite in2="hardAlpha" operator="out"/>
<feColorMatrix type="matrix" values="0 0 0 0 0 0 0 0 0 0 0 0 0 0 0 0 0 0 0.25 0"/>
<feBlend mode="normal" in2="BackgroundImageFix" result="effect1_dropShadow_2022_4234"/>
<feBlend mode="normal" in="SourceGraphic" in2="effect1_dropShadow_2022_4234" result="shape"/>
</filter>
</defs>
</svg>
