<svg width="139" height="104" viewBox="0 0 139 104" fill="none" xmlns="http://www.w3.org/2000/svg">
<path d="M-4.38614e-05 28.3223L69.5 56.6446L139 28.3223L69.5 0L-4.38614e-05 28.3223Z" fill="#54666F"/>
<path d="M69.4994 61.28L115.838 42.4058V71.8666C115.838 75.016 95.1062 91.0883 69.4994 91.0883C43.8926 91.0883 23.1611 75.0308 23.1611 71.8666V42.4058L69.4994 61.28Z" fill="#54666F"/>
<path d="M9.90545 69.0943C8.6722 69.0652 7.50089 68.5459 6.64887 67.6504C5.79684 66.7549 5.3338 65.5565 5.36146 64.3185C5.35191 63.3532 5.63488 62.4078 6.17282 61.6077C6.71077 60.8076 7.47829 60.1905 8.3736 59.8383V36.4102L11.1501 37.5339V59.7127C12.1227 60.0182 12.9702 60.6325 13.5651 61.4631C14.1601 62.2936 14.4704 63.2957 14.4494 64.3185C14.4751 65.5559 14.0114 66.7532 13.1598 67.6483C12.3082 68.5433 11.1381 69.0633 9.90545 69.0943V69.0943Z" fill="#F47458"/>
<path d="M5.36112 69.0943C9.90509 73.0791 14.4491 68.9464 14.4491 68.9464C15.3832 72.5508 16.0455 76.2207 16.4302 79.9249C16.7174 84.3607 14.589 88.4712 15.1561 92.175C15.6018 95.657 15.3514 99.1932 14.4196 102.577C13.6832 104.854 12.2839 103.715 12.2839 103.715C12.7491 103.257 13.0495 102.656 13.1382 102.008C13.1382 101.15 11.2896 101.268 11.2896 101.268V103.686C11.2896 103.686 10.1555 103.686 9.87564 102.821C9.59578 101.956 7.90928 102.022 7.90928 102.022L7.17282 99.3166C6.99359 100.11 6.89976 100.921 6.89296 101.734C6.89296 103.02 5.61151 103.449 4.62465 101.734C1.24429 87.1848 4.22696 73.19 5.36112 69.0943Z" fill="#F47458"/>
<g opacity="0.15">
<path opacity="0.15" d="M69.4992 56.9921L-0.000793457 28.6698L53.1718 7.0011L83.5215 51.2773L69.4992 56.9921Z" fill="#F5F5F5"/>
<path opacity="0.15" d="M85.9742 54.8999L104.386 81.7954C95.8943 86.6451 83.3965 91.4062 69.4406 91.4062C43.8264 91.4062 23.1023 75.3561 23.1023 72.1846V42.7533L69.4995 61.6201L85.9742 54.8999Z" fill="#F5F5F5"/>
</g>
</svg>
