<svg width="69" height="86" viewBox="0 0 69 86" fill="none" xmlns="http://www.w3.org/2000/svg">
<path d="M0.694141 0.694916L68.3088 84.6264H0.694141V0.694916Z" fill="#7EABFF"/>
<path d="M0.694084 85.327H68.3088C68.4413 85.3255 68.5706 85.2862 68.682 85.2138C68.7934 85.1413 68.8823 85.0386 68.9385 84.9174C68.9918 84.7984 69.011 84.6666 68.994 84.5371C68.977 84.4076 68.9245 84.2855 68.8424 84.1845L1.28111 0.252964C1.19026 0.142506 1.068 0.0629054 0.930875 0.024937C0.793749 -0.0130315 0.648379 -0.00753383 0.51445 0.0406858C0.38052 0.0889054 0.264497 0.177518 0.182085 0.294528C0.0996726 0.411539 0.0548545 0.551295 0.053694 0.694879V84.6264C0.0556154 84.8025 0.122163 84.9717 0.240462 85.1011C0.35876 85.2305 0.520396 85.311 0.694084 85.327V85.327ZM66.8679 83.915H1.44121V2.66733L66.8679 83.915Z" fill="black"/>
<path d="M5.15545 16.0757H0.694056V12.2925H5.15545C5.40163 12.2896 5.64594 12.3359 5.87432 12.4288C6.10271 12.5216 6.31066 12.6591 6.48623 12.8334C6.6618 13.0077 6.80151 13.2154 6.89734 13.4444C6.99317 13.6734 7.04321 13.9193 7.04461 14.1679C7.04461 14.6739 6.84557 15.1591 6.49128 15.5169C6.137 15.8747 5.65649 16.0757 5.15545 16.0757V16.0757Z" fill="#8EDDFB"/>
<path d="M0.694191 16.7763H5.15559C5.5066 16.7992 5.85852 16.7491 6.18961 16.6292C6.5207 16.5093 6.82391 16.322 7.08051 16.0791C7.33711 15.8361 7.54165 15.5426 7.68147 15.2167C7.82129 14.8907 7.89343 14.5393 7.89343 14.1841C7.89343 13.8289 7.82129 13.4775 7.68147 13.1515C7.54165 12.8256 7.33711 12.5321 7.08051 12.2891C6.82391 12.0462 6.5207 11.8589 6.18961 11.739C5.85852 11.6191 5.5066 11.569 5.15559 11.5919H0.694191C0.510195 11.5919 0.333737 11.6657 0.203632 11.7971C0.0735275 11.9285 0.000431905 12.1067 0.000431905 12.2925V16.0757C0.000431905 16.2615 0.0735275 16.4397 0.203632 16.5711C0.333737 16.7025 0.510195 16.7763 0.694191 16.7763V16.7763ZM5.10222 12.9931C5.41461 12.9902 5.71548 13.112 5.93936 13.332C6.16324 13.5521 6.292 13.8525 6.29762 14.1679C6.29762 14.4881 6.17167 14.7951 5.94749 15.0215C5.72331 15.2479 5.41926 15.3751 5.10222 15.3751H1.44132V12.9931H5.10222Z" fill="black"/>
<path d="M0.694189 21.1847H5.15558C5.63347 21.2209 6.08013 21.4382 6.40606 21.793C6.732 22.1478 6.91311 22.6139 6.91311 23.0978C6.91311 23.5818 6.732 24.0479 6.40606 24.4027C6.08013 24.7575 5.63347 24.9748 5.15558 25.011H0.694189V21.1847Z" fill="#8EDDFB"/>
<path d="M0.694076 25.7116H5.15547C5.81319 25.6689 6.43015 25.3749 6.881 24.8895C7.33185 24.404 7.58277 23.7634 7.58277 23.0978C7.58277 22.4322 7.33185 21.7916 6.881 21.3061C6.43015 20.8206 5.81319 20.5267 5.15547 20.484H0.694076C0.510938 20.4868 0.336075 20.5615 0.206562 20.6923C0.0770496 20.8231 0.00307058 20.9997 0.000316161 21.1846V25.011C0.000316161 25.1968 0.0734118 25.375 0.203517 25.5064C0.333621 25.6377 0.51008 25.7116 0.694076 25.7116V25.7116ZM5.10211 21.896C5.41915 21.896 5.7232 22.0232 5.94738 22.2496C6.17156 22.476 6.2975 22.783 6.2975 23.1032C6.2975 23.4233 6.17156 23.7304 5.94738 23.9568C5.7232 24.1832 5.41915 24.3104 5.10211 24.3104H1.4412V21.896H5.10211Z" fill="black"/>
<path d="M0.694096 30.1738H5.15549C5.39967 30.1709 5.64196 30.2175 5.86799 30.3109C6.09402 30.4042 6.2992 30.5424 6.47138 30.7173C6.64356 30.8922 6.77924 31.1002 6.87037 31.329C6.96151 31.5578 7.00625 31.8027 7.00195 32.0493C7.00764 32.2978 6.96408 32.5449 6.87384 32.7761C6.7836 33.0073 6.64849 33.218 6.47646 33.3958C6.30443 33.5735 6.09895 33.7147 5.8721 33.8111C5.64525 33.9075 5.4016 33.9571 5.15549 33.9571H0.694096V30.1738Z" fill="#8EDDFB"/>
<path d="M0.694073 34.6145H5.15547C5.80765 34.5721 6.41935 34.2805 6.86635 33.799C7.31334 33.3175 7.5621 32.6823 7.5621 32.0223C7.5621 31.3624 7.31334 30.7271 6.86635 30.2457C6.41935 29.7642 5.80765 29.4726 5.15547 29.4301H0.694073C0.510077 29.4301 0.333619 29.5039 0.203514 29.6353C0.0734088 29.7667 0.000313128 29.9449 0.000313128 30.1307V33.914C0.000313128 34.0998 0.0734088 34.278 0.203514 34.4093C0.333619 34.5407 0.510077 34.6145 0.694073 34.6145V34.6145ZM5.10211 30.8313C5.2552 30.8283 5.40729 30.8568 5.54918 30.9149C5.69108 30.973 5.81981 31.0596 5.92758 31.1695C6.03535 31.2793 6.11992 31.4101 6.17617 31.5539C6.23242 31.6978 6.25917 31.8516 6.25481 32.0062C6.26055 32.1626 6.23498 32.3186 6.17963 32.4649C6.12428 32.6111 6.04028 32.7446 5.93266 32.8573C5.82505 32.97 5.69602 33.0596 5.55331 33.1208C5.4106 33.182 5.25714 33.2135 5.10211 33.2134H1.4412V30.8313H5.10211Z" fill="black"/>
<path d="M0.694056 39.0337H5.15545C5.65649 39.0337 6.137 39.2347 6.49128 39.5925C6.84557 39.9503 7.04461 40.4355 7.04461 40.9415C7.04461 41.4475 6.84557 41.9327 6.49128 42.2905C6.137 42.6483 5.65649 42.8493 5.15545 42.8493H0.694056V39.0337Z" fill="#8EDDFB"/>
<path d="M0.694125 43.5499H5.15552C5.49223 43.5514 5.82583 43.4849 6.13679 43.3545C6.44774 43.2241 6.72979 43.0323 6.96638 42.7904C7.20297 42.5484 7.38936 42.2612 7.5146 41.9456C7.63984 41.63 7.70143 41.2923 7.69574 40.9523C7.69856 40.6126 7.63508 40.2756 7.50895 39.9607C7.38281 39.6458 7.19648 39.359 6.9606 39.1168C6.72471 38.8746 6.44389 38.6816 6.13418 38.549C5.82446 38.4164 5.49191 38.3467 5.15552 38.3439H0.694125C0.510129 38.3439 0.333671 38.4177 0.203566 38.5491C0.073461 38.6805 0.000365387 38.8587 0.000365387 39.0445V42.8601C0.00316787 43.044 0.077493 43.2194 0.207295 43.3485C0.337098 43.4776 0.511963 43.5499 0.694125 43.5499V43.5499ZM5.10215 39.7343C5.41919 39.7343 5.72325 39.8615 5.94743 40.0879C6.17161 40.3143 6.29755 40.6213 6.29755 40.9415C6.29755 41.2617 6.17161 41.5687 5.94743 41.7951C5.72325 42.0215 5.41919 42.1487 5.10215 42.1487H1.44125V39.7343H5.10215Z" fill="black"/>
<path d="M0.694057 47.969H5.15545C5.62782 48.005 6.06926 48.22 6.39136 48.5707C6.71346 48.9215 6.89244 49.3822 6.89244 49.8606C6.89244 50.339 6.71346 50.7997 6.39136 51.1505C6.06926 51.5013 5.62782 51.7162 5.15545 51.7522H0.694057V47.969Z" fill="#8EDDFB"/>
<path d="M0.694073 52.4528H5.15547C5.80765 52.4103 6.41935 52.1188 6.86635 51.6373C7.31334 51.1558 7.5621 50.5206 7.5621 49.8606C7.5621 49.2006 7.31334 48.5654 6.86635 48.084C6.41935 47.6025 5.80765 47.3109 5.15547 47.2684H0.694073C0.510077 47.2684 0.333619 47.3422 0.203514 47.4736C0.0734088 47.605 0.000313128 47.7832 0.000313128 47.969V51.7307C-0.00254627 51.8245 0.0132846 51.9179 0.0468667 52.0054C0.0804488 52.0929 0.131102 52.1727 0.19581 52.2401C0.260519 52.3074 0.337969 52.361 0.423562 52.3975C0.509155 52.4341 0.601143 52.4529 0.694073 52.4528V52.4528ZM5.10211 48.6696C5.39554 48.6978 5.66802 48.8355 5.86632 49.0557C6.06463 49.276 6.17451 49.563 6.17451 49.8606C6.17451 50.1583 6.06463 50.4453 5.86632 50.6655C5.66802 50.8857 5.39554 51.0234 5.10211 51.0516H1.4412V48.6696H5.10211Z" fill="black"/>
<path d="M0.694056 56.872H5.15545C5.65649 56.872 6.137 57.073 6.49128 57.4308C6.84557 57.7886 7.04461 58.2738 7.04461 58.7798C7.04461 59.2858 6.84557 59.771 6.49128 60.1288C6.137 60.4866 5.65649 60.6876 5.15545 60.6876H0.694056V56.872Z" fill="#8EDDFB"/>
<path d="M0.694124 61.4313H5.15552C5.84055 61.4313 6.49753 61.1565 6.98192 60.6673C7.46631 60.1781 7.73843 59.5147 7.73843 58.8229C7.73843 58.1311 7.46631 57.4677 6.98192 56.9785C6.49753 56.4893 5.84055 56.2145 5.15552 56.2145H0.694124C0.510127 56.2145 0.333669 56.2883 0.203564 56.4197C0.0734596 56.5511 0.000363916 56.7293 0.000363916 56.9151V60.7307C0.000363916 60.9165 0.0734596 61.0947 0.203564 61.2261C0.333669 61.3575 0.510127 61.4313 0.694124 61.4313V61.4313ZM5.10216 57.6157C5.4192 57.6157 5.72325 57.7429 5.94743 57.9693C6.17161 58.1957 6.29755 58.5027 6.29755 58.8229C6.29755 59.1431 6.17161 59.4501 5.94743 59.6765C5.72325 59.9029 5.4192 60.0301 5.10216 60.0301H1.44125V57.5726L5.10216 57.6157Z" fill="black"/>
<path d="M0.694057 65.8073H5.15545C5.62782 65.8433 6.06926 66.0582 6.39136 66.409C6.71346 66.7598 6.89244 67.2205 6.89244 67.6989C6.89244 68.1773 6.71346 68.638 6.39136 68.9888C6.06926 69.3395 5.62782 69.5545 5.15545 69.5905H0.694057V65.8073Z" fill="#8EDDFB"/>
<path d="M0.694073 70.2911H5.15547C5.80765 70.2486 6.41935 69.957 6.86635 69.4756C7.31334 68.9941 7.5621 68.3589 7.5621 67.6989C7.5621 67.0389 7.31334 66.4037 6.86635 65.9222C6.41935 65.4408 5.80765 65.1492 5.15547 65.1067H0.694073C0.510077 65.1067 0.333619 65.1805 0.203514 65.3119C0.0734088 65.4433 0.000313128 65.6215 0.000313128 65.8073V69.5905C0.000313128 69.6825 0.0182559 69.7736 0.0531205 69.8586C0.0879851 69.9436 0.139092 70.0209 0.203514 70.0859C0.267935 70.151 0.344416 70.2026 0.428586 70.2378C0.512757 70.273 0.602967 70.2911 0.694073 70.2911V70.2911ZM5.10211 66.5079C5.39554 66.5361 5.66802 66.6738 5.86632 66.894C6.06463 67.1143 6.17451 67.4012 6.17451 67.6989C6.17451 67.9966 6.06463 68.2836 5.86632 68.5038C5.66802 68.724 5.39554 68.8617 5.10211 68.8899H1.4412V66.5079H5.10211Z" fill="black"/>
<path d="M0.694056 74.7103H5.15545C5.65649 74.7103 6.137 74.9113 6.49128 75.2691C6.84557 75.6269 7.04461 76.1121 7.04461 76.6181C7.04461 77.1241 6.84557 77.6093 6.49128 77.9671C6.137 78.3249 5.65649 78.5259 5.15545 78.5259H0.694056V74.7103Z" fill="#8EDDFB"/>
<path d="M0.694076 79.2372H5.15547C5.81319 79.1945 6.43015 78.9006 6.881 78.4151C7.33185 77.9296 7.58277 77.289 7.58277 76.6234C7.58277 75.9578 7.33185 75.3172 6.881 74.8317C6.43015 74.3463 5.81319 74.0523 5.15547 74.0096H0.694076C0.51008 74.0096 0.333621 74.0835 0.203517 74.2148C0.0734118 74.3462 0.000316161 74.5244 0.000316161 74.7102V78.5258C0.000294926 78.7126 0.0730502 78.8919 0.202857 79.025C0.332664 79.1581 0.509105 79.2343 0.694076 79.2372ZM5.15547 75.4432C5.47251 75.4432 5.77656 75.5704 6.00074 75.7968C6.22493 76.0231 6.35087 76.3302 6.35087 76.6504C6.35087 76.9705 6.22493 77.2776 6.00074 77.504C5.77656 77.7304 5.47251 77.8575 5.15547 77.8575H1.4412V75.4432H5.15547Z" fill="black"/>
<path d="M47.3573 75.4001L13.3845 34.8948L14.0463 75.454L47.3573 75.4001Z" fill="#FFCBCB"/>
<path d="M14.0356 76.1546H47.3466C47.4782 76.1553 47.6073 76.1182 47.7188 76.0475C47.8303 75.9769 47.9196 75.8757 47.9763 75.7558C48.0327 75.6337 48.0536 75.498 48.0366 75.3645C48.0196 75.2309 47.9654 75.105 47.8803 75.0013L13.9182 34.4852C13.8265 34.3722 13.7017 34.2914 13.5616 34.2546C13.4216 34.2178 13.2736 34.2268 13.139 34.2804C13.0033 34.3287 12.8866 34.4197 12.8059 34.54C12.7252 34.6603 12.6848 34.8035 12.6907 34.9487L13.3418 75.4432C13.3418 75.63 13.4145 75.8093 13.5443 75.9425C13.6742 76.0756 13.8506 76.1518 14.0356 76.1546ZM45.863 74.6995H14.7187L14.1103 36.781L45.863 74.6995Z" fill="black"/>
</svg>
