<svg width="94" height="95" viewBox="0 0 94 95" fill="none" xmlns="http://www.w3.org/2000/svg">
<path d="M2.93336 9.47882H91.0666C92.6867 9.47882 94 10.7858 94 12.398V85.9333C94 87.5455 92.6867 88.8525 91.0666 88.8525H2.93336C1.31331 88.8525 0 87.5455 0 85.9333V12.398C0 10.7858 1.31331 9.47882 2.93336 9.47882Z" fill="#F27060"/>
<path d="M5.29155 9.47882H88.3058V81.5602H5.29155V9.47882Z" fill="#97A79F"/>
<path d="M67.7723 76.6491H55.78V95L61.779 91.4626L67.7723 95V76.6491Z" fill="#FABB8E"/>
<path d="M5.29155 0.973068H88.3058V73.0545H5.29155V0.973068Z" fill="#F5F5F5" stroke="#969696" stroke-width="0.85" stroke-miterlimit="10"/>
<path d="M42.505 72.4992L46.1919 78.8528L49.873 72.4992H42.505Z" fill="#F5F5F5"/>
<path opacity="0.25" d="M46.9971 78.8528L52.5303 73.7757V0.973068H47.2214L46.9971 78.8528Z" fill="#97A79F"/>
<path d="M42.505 0L46.1919 6.35356L49.873 0H42.505Z" fill="#F5F5F5"/>
<g opacity="0.15">
<path opacity="0.15" d="M2.93335 9.0438H5.29155V6.55962L88.4899 88.4175H67.7838V94.565L61.7905 91.0104L55.7915 94.5478V88.4175H2.94485C2.16688 88.4175 1.42076 88.1099 0.870651 87.5625C0.320538 87.015 0.0114899 86.2725 0.0114899 85.4983V11.963C0.0114839 11.1908 0.31895 10.45 0.866577 9.90285C1.4142 9.35572 2.15737 9.04683 2.93335 9.0438Z" fill="#F5F5F5"/>
</g>
<path d="M40.4832 25.8255L36.9203 11.5356L22.2288 10.5083L16.7118 24.1632L27.9936 33.6298L40.4832 25.8255Z" stroke="#7EABFF" stroke-width="4"/>
<path d="M81.4832 57.8255L77.9203 43.5356L63.2288 42.5083L57.7118 56.1632L68.9936 65.6298L81.4832 57.8255Z" stroke="#7EABFF" stroke-width="4"/>
</svg>
