<svg width="142" height="140" viewBox="0 0 142 140" fill="none" xmlns="http://www.w3.org/2000/svg">
<path d="M103.64 97.2983C103.645 97.318 103.645 97.3386 103.64 97.3583C103.64 97.4046 103.626 97.4499 103.599 97.4876C103.572 97.5253 103.534 97.5536 103.49 97.5683C103.462 97.5775 103.432 97.5809 103.402 97.5782C103.373 97.5756 103.344 97.567 103.318 97.553C103.292 97.539 103.269 97.5199 103.25 97.4967C103.232 97.4736 103.218 97.4469 103.21 97.4183C103.195 97.3626 103.202 97.3031 103.23 97.2526C103.258 97.202 103.305 97.1646 103.36 97.1483C103.388 97.1375 103.418 97.1329 103.448 97.1348C103.478 97.1367 103.508 97.1451 103.534 97.1593C103.561 97.1735 103.584 97.1933 103.602 97.2173C103.621 97.2413 103.633 97.2689 103.64 97.2983V97.2983Z" fill="#EDF0F4"/>
<path d="M99.9403 76.6783C99.9297 76.7274 99.9025 76.7713 99.8634 76.8029C99.8243 76.8344 99.7755 76.8516 99.7253 76.8516C99.675 76.8516 99.6263 76.8344 99.5872 76.8029C99.5481 76.7713 99.521 76.7274 99.5103 76.6783C99.5034 76.6462 99.5037 76.6129 99.5112 76.5809C99.5188 76.549 99.5335 76.5191 99.5541 76.4935C99.5747 76.468 99.6007 76.4473 99.6304 76.4332C99.66 76.419 99.6924 76.4116 99.7253 76.4116C99.7581 76.4116 99.7906 76.419 99.8203 76.4332C99.8499 76.4473 99.8759 76.468 99.8965 76.4935C99.9172 76.5191 99.9318 76.549 99.9394 76.5809C99.947 76.6129 99.9473 76.6462 99.9403 76.6783V76.6783Z" fill="#EDF0F4"/>
<path d="M100.671 83.6283C100.674 83.6809 100.657 83.7326 100.623 83.7734C100.59 83.8141 100.543 83.8409 100.491 83.8483C100.46 83.8578 100.428 83.8605 100.396 83.8563C100.365 83.8521 100.334 83.8411 100.307 83.824C100.28 83.8069 100.258 83.7842 100.24 83.7573C100.223 83.7305 100.212 83.7002 100.207 83.6686C100.203 83.637 100.205 83.6048 100.215 83.5743C100.224 83.5438 100.24 83.5156 100.261 83.4918C100.282 83.468 100.308 83.4491 100.338 83.4364C100.367 83.4237 100.399 83.4175 100.431 83.4183C100.461 83.414 100.491 83.4162 100.52 83.4248C100.549 83.4334 100.576 83.4481 100.599 83.4681C100.622 83.488 100.64 83.5127 100.652 83.5403C100.665 83.568 100.671 83.598 100.671 83.6283V83.6283Z" fill="#EDF0F4"/>
<path d="M119.29 128.528C119.283 128.594 119.251 128.655 119.2 128.698C119.159 128.739 119.103 128.762 119.045 128.762C118.987 128.762 118.931 128.739 118.89 128.698C118.87 128.679 118.854 128.655 118.843 128.63C118.833 128.604 118.827 128.576 118.827 128.548C118.827 128.52 118.833 128.493 118.843 128.467C118.854 128.441 118.87 128.418 118.89 128.398C118.931 128.36 118.984 128.339 119.04 128.339C119.096 128.339 119.149 128.36 119.19 128.398C119.238 128.429 119.273 128.475 119.29 128.528V128.528Z" fill="#EDF0F4"/>
<path d="M111.67 116.638C111.68 116.674 111.68 116.712 111.67 116.748C111.669 116.787 111.658 116.824 111.639 116.857C111.62 116.89 111.593 116.918 111.56 116.938C111.535 116.952 111.508 116.961 111.48 116.964C111.451 116.967 111.423 116.964 111.396 116.955C111.369 116.947 111.344 116.933 111.322 116.915C111.3 116.896 111.283 116.874 111.27 116.848C111.256 116.824 111.247 116.797 111.243 116.769C111.239 116.742 111.241 116.713 111.249 116.686C111.256 116.659 111.269 116.634 111.286 116.612C111.304 116.59 111.325 116.572 111.35 116.558C111.376 116.541 111.405 116.529 111.436 116.523C111.466 116.517 111.498 116.519 111.528 116.526C111.558 116.534 111.587 116.548 111.611 116.567C111.636 116.586 111.656 116.611 111.67 116.638V116.638Z" fill="#EDF0F4"/>
<path d="M105.85 103.938C105.855 103.961 105.855 103.985 105.85 104.008C105.849 104.054 105.834 104.099 105.808 104.136C105.781 104.174 105.743 104.202 105.7 104.218C105.646 104.238 105.586 104.235 105.534 104.211C105.481 104.186 105.441 104.142 105.42 104.088C105.406 104.061 105.398 104.03 105.396 103.999C105.395 103.968 105.4 103.937 105.411 103.908C105.422 103.878 105.44 103.852 105.462 103.83C105.484 103.809 105.511 103.792 105.54 103.781C105.57 103.77 105.601 103.766 105.632 103.768C105.663 103.77 105.693 103.779 105.721 103.794C105.748 103.809 105.772 103.83 105.791 103.854C105.81 103.879 105.823 103.908 105.83 103.938H105.85Z" fill="#EDF0F4"/>
<path d="M115.25 122.648C115.259 122.688 115.259 122.729 115.25 122.768C115.251 122.805 115.243 122.84 115.225 122.872C115.207 122.904 115.182 122.93 115.15 122.948C115.127 122.965 115.1 122.977 115.072 122.983C115.044 122.989 115.015 122.989 114.987 122.983C114.959 122.978 114.932 122.966 114.909 122.95C114.885 122.934 114.865 122.913 114.85 122.888C114.833 122.864 114.821 122.837 114.815 122.808C114.809 122.779 114.809 122.75 114.815 122.721C114.82 122.692 114.831 122.664 114.848 122.64C114.864 122.615 114.885 122.594 114.91 122.578C114.937 122.56 114.967 122.547 114.999 122.54C115.03 122.534 115.063 122.534 115.095 122.541C115.127 122.547 115.157 122.56 115.184 122.579C115.21 122.597 115.233 122.621 115.25 122.648V122.648Z" fill="#EDF0F4"/>
<path d="M115.231 16.5483C115.24 16.5878 115.24 16.6288 115.231 16.6683C115.197 16.7134 115.147 16.7444 115.092 16.7554C115.037 16.7665 114.979 16.7568 114.931 16.7283C114.905 16.714 114.884 16.6946 114.866 16.6715C114.849 16.6483 114.837 16.6218 114.83 16.5936C114.824 16.5654 114.823 16.5362 114.828 16.5078C114.833 16.4793 114.844 16.4523 114.861 16.4283C114.891 16.3797 114.94 16.3451 114.996 16.332C115.052 16.319 115.111 16.3284 115.161 16.3583C115.187 16.3815 115.208 16.4111 115.22 16.4443C115.232 16.4775 115.236 16.5133 115.231 16.5483V16.5483Z" fill="#EDF0F4"/>
<path d="M119.23 10.7783C119.245 10.8238 119.245 10.8728 119.23 10.9183C119.188 10.957 119.132 10.9784 119.075 10.9784C119.018 10.9784 118.962 10.957 118.92 10.9183C118.881 10.8759 118.86 10.8207 118.86 10.7633C118.86 10.706 118.881 10.6507 118.92 10.6083C118.961 10.5674 119.017 10.5444 119.075 10.5444C119.133 10.5444 119.189 10.5674 119.23 10.6083C119.243 10.6349 119.249 10.6639 119.249 10.6933C119.249 10.7227 119.243 10.7517 119.23 10.7783V10.7783Z" fill="#EDF0F4"/>
<path d="M108.51 28.8583C108.515 28.8882 108.515 28.9185 108.51 28.9483C108.486 29.0013 108.442 29.0425 108.388 29.0631C108.334 29.0838 108.273 29.082 108.22 29.0583C108.167 29.0323 108.125 28.9865 108.105 28.9306C108.084 28.8746 108.086 28.8129 108.11 28.7583C108.136 28.7072 108.181 28.6681 108.235 28.6495C108.289 28.6308 108.348 28.634 108.4 28.6583C108.435 28.6784 108.464 28.7077 108.483 28.743C108.503 28.7782 108.512 28.8181 108.51 28.8583Z" fill="#EDF0F4"/>
<path d="M111.65 22.5783C111.66 22.6109 111.66 22.6457 111.65 22.6783V22.6783C111.622 22.7277 111.577 22.7646 111.523 22.7814C111.469 22.7981 111.41 22.7935 111.36 22.7683C111.334 22.7547 111.311 22.7361 111.293 22.7135C111.274 22.691 111.26 22.665 111.252 22.6371C111.244 22.6092 111.241 22.5799 111.244 22.5509C111.247 22.522 111.256 22.4939 111.27 22.4683C111.283 22.4426 111.302 22.4198 111.324 22.4013C111.347 22.3828 111.373 22.369 111.401 22.3606C111.429 22.3522 111.458 22.3495 111.487 22.3525C111.516 22.3556 111.544 22.3643 111.57 22.3783C111.6 22.4013 111.623 22.4321 111.637 22.4673C111.651 22.5025 111.656 22.5409 111.65 22.5783V22.5783Z" fill="#EDF0F4"/>
<path d="M128.41 0.228313C128.41 0.284113 128.388 0.337732 128.35 0.378313C128.33 0.399838 128.307 0.417029 128.28 0.428791C128.253 0.440553 128.224 0.446627 128.195 0.446627C128.166 0.446627 128.137 0.440553 128.11 0.428791C128.084 0.417029 128.06 0.399838 128.04 0.378313C128.001 0.335943 127.98 0.280664 127.98 0.223314C127.98 0.165965 128.001 0.110684 128.04 0.0683136C128.06 0.0467883 128.084 0.0295972 128.11 0.0178356C128.137 0.00607404 128.166 0 128.195 0C128.224 0 128.253 0.00607404 128.28 0.0178356C128.307 0.0295972 128.33 0.0467883 128.35 0.0683136C128.39 0.111963 128.411 0.169254 128.41 0.228313V0.228313Z" fill="#EDF0F4"/>
<path d="M123.64 5.31835C123.639 5.3711 123.618 5.42142 123.58 5.45835C123.561 5.4783 123.537 5.49416 123.512 5.50498C123.486 5.5158 123.458 5.52138 123.43 5.52138C123.402 5.52138 123.375 5.5158 123.349 5.50498C123.323 5.49416 123.3 5.4783 123.28 5.45835C123.239 5.41714 123.216 5.36142 123.216 5.30335C123.216 5.24528 123.239 5.18956 123.28 5.14835C123.321 5.10743 123.377 5.08447 123.435 5.08447C123.493 5.08447 123.549 5.10743 123.59 5.14835C123.61 5.17133 123.625 5.19845 123.634 5.22782C123.643 5.25718 123.645 5.28808 123.64 5.31835V5.31835Z" fill="#EDF0F4"/>
<path d="M99.6804 69.6883C99.6779 69.7448 99.6535 69.7983 99.6126 69.8374C99.5716 69.8765 99.5171 69.8983 99.4605 69.8983C99.4021 69.8983 99.3461 69.8751 99.3049 69.8338C99.2636 69.7926 99.2404 69.7366 99.2404 69.6783C99.2404 69.6199 99.2636 69.5639 99.3049 69.5227C99.3461 69.4814 99.4021 69.4583 99.4605 69.4583C99.4902 69.4582 99.5196 69.4642 99.547 69.4759C99.5744 69.4876 99.5991 69.5047 99.6196 69.5262C99.6402 69.5477 99.6562 69.5731 99.6666 69.601C99.6771 69.6288 99.6818 69.6585 99.6804 69.6883Z" fill="#EDF0F4"/>
<path d="M100.66 55.6983C100.656 55.7273 100.647 55.7553 100.632 55.7806C100.618 55.8059 100.598 55.828 100.575 55.8457C100.551 55.8634 100.525 55.8763 100.497 55.8836C100.468 55.8909 100.439 55.8925 100.41 55.8883C100.353 55.8785 100.302 55.8468 100.269 55.8C100.235 55.7533 100.221 55.6952 100.23 55.6383C100.232 55.61 100.24 55.5825 100.254 55.5576C100.268 55.5328 100.287 55.5111 100.309 55.4941C100.332 55.4771 100.358 55.4651 100.386 55.4589C100.413 55.4527 100.442 55.4525 100.47 55.4583C100.498 55.4607 100.526 55.4689 100.551 55.4825C100.577 55.4961 100.599 55.5147 100.617 55.5372C100.635 55.5597 100.648 55.5856 100.655 55.6133C100.662 55.641 100.664 55.6699 100.66 55.6983V55.6983Z" fill="#EDF0F4"/>
<path d="M99.9402 62.6784C99.939 62.7069 99.9319 62.7348 99.9196 62.7605C99.9072 62.7862 99.8897 62.8091 99.8682 62.8278C99.8466 62.8465 99.8215 62.8606 99.7944 62.8693C99.7672 62.878 99.7386 62.8811 99.7102 62.8784C99.6611 62.8677 99.6171 62.8406 99.5856 62.8015C99.554 62.7623 99.5368 62.7136 99.5368 62.6634C99.5368 62.6131 99.554 62.5644 99.5856 62.5253C99.6171 62.4861 99.6611 62.459 99.7102 62.4484C99.7408 62.4469 99.7713 62.4519 99.7999 62.463C99.8284 62.474 99.8543 62.4909 99.876 62.5126C99.8976 62.5342 99.9145 62.5601 99.9256 62.5887C99.9367 62.6172 99.9416 62.6478 99.9402 62.6784V62.6784Z" fill="#EDF0F4"/>
<path d="M103.61 41.9984V42.0584C103.602 42.0869 103.589 42.1136 103.57 42.1368C103.551 42.1599 103.528 42.1791 103.502 42.1931C103.476 42.2071 103.447 42.2157 103.418 42.2183C103.388 42.2209 103.358 42.2175 103.33 42.2084C103.303 42.2004 103.277 42.187 103.255 42.169C103.234 42.1509 103.215 42.1286 103.202 42.1034C103.189 42.0781 103.181 42.0505 103.179 42.0221C103.177 41.9937 103.181 41.9652 103.19 41.9384C103.198 41.8827 103.228 41.8324 103.273 41.7987C103.318 41.7649 103.374 41.7504 103.43 41.7584C103.486 41.7663 103.536 41.7961 103.57 41.8411C103.604 41.8861 103.618 41.9427 103.61 41.9984V41.9984Z" fill="#EDF0F4"/>
<path d="M105.821 35.3383C105.825 35.3647 105.825 35.3918 105.821 35.4183C105.806 35.4594 105.779 35.4952 105.744 35.5211C105.709 35.5471 105.667 35.562 105.623 35.564C105.58 35.566 105.537 35.555 105.499 35.5324C105.462 35.5097 105.432 35.4765 105.414 35.4369C105.395 35.3973 105.389 35.3531 105.396 35.31C105.403 35.2669 105.422 35.2268 105.452 35.1947C105.482 35.1627 105.52 35.1402 105.563 35.1302C105.605 35.1201 105.65 35.1229 105.691 35.1383C105.731 35.1532 105.765 35.1807 105.789 35.2168C105.812 35.2528 105.823 35.2954 105.821 35.3383V35.3383Z" fill="#EDF0F4"/>
<path d="M101.89 48.7983V48.8483C101.873 48.9048 101.837 48.9533 101.787 48.9847C101.737 49.016 101.678 49.028 101.62 49.0183C101.564 49.0019 101.516 48.9649 101.486 48.9148C101.457 48.8647 101.447 48.8052 101.46 48.7483C101.475 48.699 101.506 48.6566 101.55 48.6283C101.593 48.6001 101.644 48.5879 101.695 48.5939C101.747 48.5998 101.794 48.6236 101.83 48.6609C101.865 48.6983 101.886 48.7469 101.89 48.7983V48.7983Z" fill="#EDF0F4"/>
<path d="M108.53 110.388C108.539 110.421 108.539 110.456 108.53 110.488C108.531 110.53 108.518 110.57 108.495 110.604C108.472 110.638 108.439 110.664 108.4 110.678C108.348 110.702 108.289 110.705 108.236 110.685C108.182 110.665 108.139 110.625 108.115 110.573C108.091 110.522 108.089 110.463 108.108 110.409C108.128 110.356 108.168 110.312 108.22 110.288C108.246 110.271 108.276 110.26 108.307 110.256C108.338 110.252 108.369 110.255 108.399 110.265C108.428 110.274 108.456 110.29 108.478 110.312C108.501 110.333 108.519 110.359 108.53 110.388V110.388Z" fill="#EDF0F4"/>
<path d="M104.94 58.2282C104.937 58.2677 104.925 58.3061 104.906 58.341C104.888 58.376 104.862 58.407 104.832 58.4321C104.801 58.4572 104.766 58.476 104.728 58.4873C104.69 58.4987 104.65 58.5024 104.61 58.4983C104.529 58.4858 104.455 58.4425 104.405 58.3774C104.355 58.3122 104.332 58.2301 104.34 58.1482C104.345 58.1087 104.358 58.0705 104.378 58.036C104.398 58.0014 104.424 57.9712 104.456 57.9469C104.488 57.9227 104.524 57.9051 104.562 57.895C104.601 57.8849 104.641 57.8826 104.68 57.8882C104.72 57.8932 104.758 57.9059 104.793 57.9257C104.827 57.9456 104.857 57.9721 104.882 58.0037C104.906 58.0354 104.924 58.0715 104.934 58.1101C104.944 58.1486 104.946 58.1888 104.94 58.2282V58.2282Z" fill="#EDF0F4"/>
<path d="M126.94 8.43833C126.936 8.51039 126.912 8.57991 126.87 8.63833C126.842 8.66706 126.808 8.68989 126.771 8.70548C126.735 8.72107 126.695 8.7291 126.655 8.7291C126.615 8.7291 126.575 8.72107 126.538 8.70548C126.501 8.68989 126.468 8.66706 126.44 8.63833C126.411 8.61037 126.388 8.57694 126.373 8.54002C126.357 8.50309 126.349 8.46341 126.349 8.42333C126.349 8.38324 126.357 8.34357 126.373 8.30664C126.388 8.26971 126.411 8.23628 126.44 8.20833C126.468 8.1796 126.501 8.15677 126.538 8.14118C126.575 8.12559 126.615 8.11755 126.655 8.11755C126.695 8.11755 126.735 8.12559 126.771 8.14118C126.808 8.15677 126.842 8.1796 126.87 8.20833C126.896 8.24007 126.916 8.27677 126.928 8.31627C126.94 8.35576 126.944 8.39726 126.94 8.43833V8.43833Z" fill="#EDF0F4"/>
<path d="M104.3 71.9783C104.3 72.0588 104.269 72.1361 104.213 72.194C104.157 72.2519 104.08 72.2857 104 72.2883C103.96 72.2896 103.92 72.2828 103.882 72.2684C103.844 72.2539 103.81 72.232 103.781 72.204C103.752 72.176 103.729 72.1425 103.714 72.1054C103.698 72.0684 103.69 72.0285 103.69 71.9883C103.688 71.948 103.695 71.9079 103.71 71.8704C103.724 71.8328 103.746 71.7986 103.774 71.7696C103.802 71.7407 103.836 71.7177 103.873 71.702C103.91 71.6863 103.95 71.6782 103.99 71.6783C104.03 71.6769 104.07 71.6837 104.108 71.6982C104.145 71.7126 104.18 71.7345 104.208 71.7625C104.237 71.7905 104.26 71.824 104.276 71.8611C104.292 71.8982 104.3 71.938 104.3 71.9783V71.9783Z" fill="#EDF0F4"/>
<path d="M104.38 65.0983C104.378 65.1386 104.369 65.1782 104.352 65.2148C104.335 65.2514 104.311 65.2842 104.281 65.3113C104.251 65.3384 104.216 65.3591 104.178 65.3724C104.14 65.3856 104.1 65.391 104.06 65.3883C104.015 65.3964 103.969 65.3946 103.925 65.3831C103.881 65.3715 103.84 65.3504 103.806 65.3213C103.771 65.2922 103.743 65.2558 103.723 65.2147C103.704 65.1736 103.694 65.1287 103.694 65.0833C103.694 65.0379 103.704 64.9931 103.723 64.9519C103.743 64.9108 103.771 64.8744 103.806 64.8453C103.84 64.8162 103.881 64.7951 103.925 64.7836C103.969 64.772 104.015 64.7702 104.06 64.7783C104.102 64.7769 104.144 64.7842 104.184 64.7998C104.223 64.8154 104.259 64.8389 104.289 64.8689C104.319 64.8989 104.343 64.9348 104.358 64.9742C104.374 65.0137 104.381 65.0559 104.38 65.0983V65.0983Z" fill="#EDF0F4"/>
<path d="M115.29 25.4883C115.303 25.5341 115.303 25.5826 115.29 25.6283C115.272 25.6642 115.247 25.6961 115.216 25.7221C115.186 25.7481 115.15 25.7678 115.112 25.7799C115.074 25.792 115.034 25.7964 114.994 25.7927C114.954 25.789 114.915 25.7773 114.88 25.7583C114.844 25.7394 114.812 25.7135 114.785 25.6821C114.759 25.6507 114.74 25.6144 114.727 25.5754C114.715 25.5363 114.711 25.4953 114.715 25.4546C114.719 25.4139 114.731 25.3744 114.75 25.3383C114.79 25.2696 114.855 25.2188 114.931 25.1964C115.007 25.1741 115.089 25.1819 115.16 25.2183C115.204 25.2472 115.239 25.2877 115.262 25.3352C115.285 25.3828 115.295 25.4358 115.29 25.4883Z" fill="#EDF0F4"/>
<path d="M112.26 31.6883C112.27 31.731 112.27 31.7755 112.26 31.8183C112.244 31.8546 112.22 31.8873 112.192 31.9145C112.163 31.9418 112.129 31.963 112.091 31.9769C112.054 31.9909 112.014 31.9973 111.975 31.9958C111.935 31.9943 111.896 31.985 111.86 31.9683C111.787 31.9353 111.729 31.8752 111.699 31.8006C111.669 31.726 111.67 31.6427 111.7 31.5683C111.716 31.532 111.739 31.4992 111.768 31.472C111.797 31.4448 111.831 31.4236 111.869 31.4096C111.906 31.3956 111.945 31.3892 111.985 31.3907C112.025 31.3922 112.064 31.4016 112.1 31.4183C112.15 31.4432 112.191 31.4819 112.22 31.5297C112.248 31.5776 112.262 31.6326 112.26 31.6883Z" fill="#EDF0F4"/>
<path d="M106.04 51.4083C106.04 51.4083 106.04 51.4083 106.04 51.4583C106.034 51.4988 106.02 51.5376 105.998 51.5721C105.976 51.6067 105.947 51.6363 105.913 51.6589C105.879 51.6816 105.841 51.6968 105.801 51.7036C105.761 51.7104 105.719 51.7086 105.68 51.6983C105.601 51.6824 105.533 51.6361 105.489 51.5695C105.445 51.5029 105.429 51.4216 105.445 51.3433C105.461 51.2651 105.507 51.1964 105.574 51.1523C105.64 51.1082 105.721 51.0924 105.8 51.1083C105.869 51.1205 105.932 51.1576 105.977 51.2129C106.021 51.2681 106.043 51.3377 106.04 51.4083Z" fill="#EDF0F4"/>
<path d="M109.701 38.1083C109.705 38.1414 109.705 38.1751 109.701 38.2083C109.687 38.2457 109.667 38.2802 109.641 38.3097C109.614 38.3393 109.582 38.3633 109.546 38.3805C109.511 38.3977 109.472 38.4076 109.432 38.4098C109.393 38.412 109.353 38.4064 109.316 38.3933C109.278 38.3801 109.244 38.3597 109.214 38.3333C109.185 38.3068 109.161 38.2748 109.143 38.2391C109.126 38.2033 109.116 38.1645 109.114 38.1249C109.112 38.0853 109.117 38.0457 109.131 38.0083C109.143 37.9696 109.163 37.9339 109.19 37.9032C109.216 37.8726 109.249 37.8476 109.285 37.8299C109.321 37.8121 109.361 37.8019 109.402 37.7999C109.442 37.7979 109.483 37.8042 109.521 37.8183C109.576 37.8437 109.622 37.8847 109.654 37.9362C109.686 37.9878 109.702 38.0476 109.701 38.1083Z" fill="#EDF0F4"/>
<path d="M107.62 44.6883C107.625 44.7147 107.625 44.7419 107.62 44.7683V44.7683C107.609 44.8077 107.591 44.8447 107.566 44.8771C107.542 44.9095 107.511 44.9367 107.475 44.9572C107.44 44.9776 107.401 44.9909 107.361 44.9962C107.32 45.0016 107.279 44.9989 107.24 44.9883C107.163 44.963 107.099 44.9098 107.061 44.8394C107.022 44.7689 107.011 44.6864 107.03 44.6083V44.6083C107.04 44.569 107.058 44.5323 107.083 44.5002C107.108 44.4682 107.139 44.4416 107.175 44.4219C107.21 44.4023 107.249 44.3901 107.29 44.386C107.33 44.382 107.371 44.3861 107.41 44.3983C107.472 44.4162 107.527 44.4544 107.565 44.507C107.603 44.5596 107.622 44.6234 107.62 44.6883V44.6883Z" fill="#EDF0F4"/>
<path d="M118.76 19.5183C118.774 19.5741 118.774 19.6325 118.76 19.6883C118.715 19.7547 118.646 19.8011 118.568 19.8179C118.49 19.8346 118.408 19.8205 118.34 19.7783C118.305 19.7578 118.275 19.7305 118.251 19.6981C118.227 19.6657 118.21 19.6288 118.201 19.5896C118.191 19.5504 118.19 19.5097 118.197 19.47C118.204 19.4302 118.218 19.3923 118.24 19.3583C118.261 19.3245 118.289 19.2952 118.322 19.2723C118.355 19.2493 118.392 19.2332 118.431 19.2248C118.47 19.2164 118.511 19.2159 118.55 19.2234C118.589 19.2309 118.627 19.2462 118.66 19.2683C118.697 19.2976 118.726 19.3361 118.743 19.38C118.761 19.4238 118.767 19.4715 118.76 19.5183V19.5183Z" fill="#EDF0F4"/>
<path d="M122.67 13.8284C122.671 13.8935 122.65 13.9572 122.61 14.0084C122.562 14.0742 122.49 14.1185 122.409 14.1316C122.329 14.1447 122.246 14.1256 122.18 14.0784C122.116 14.0288 122.073 13.9569 122.06 13.8771C122.047 13.7973 122.065 13.7156 122.11 13.6484C122.134 13.6151 122.165 13.5871 122.201 13.566C122.237 13.5449 122.276 13.5311 122.317 13.5255C122.358 13.52 122.4 13.5226 122.44 13.5334C122.48 13.5442 122.517 13.5629 122.55 13.5884C122.588 13.6157 122.618 13.6519 122.639 13.6936C122.66 13.7354 122.671 13.7816 122.67 13.8284Z" fill="#EDF0F4"/>
<path d="M114.24 111.678C114.253 111.721 114.253 111.766 114.24 111.808C114.24 111.866 114.224 111.922 114.194 111.972C114.164 112.021 114.121 112.061 114.07 112.088C113.997 112.123 113.913 112.128 113.837 112.102C113.76 112.076 113.697 112.021 113.66 111.948C113.624 111.877 113.618 111.794 113.644 111.718C113.669 111.642 113.724 111.579 113.795 111.543C113.867 111.508 113.95 111.502 114.026 111.527C114.102 111.552 114.164 111.607 114.2 111.678H114.24Z" fill="#EDF0F4"/>
<path d="M111.381 105.438C111.386 105.475 111.386 105.512 111.381 105.548C111.382 105.609 111.365 105.669 111.331 105.719C111.297 105.769 111.248 105.807 111.191 105.828C111.154 105.845 111.114 105.854 111.074 105.854C111.034 105.855 110.994 105.848 110.957 105.833C110.919 105.818 110.885 105.796 110.857 105.767C110.828 105.739 110.806 105.705 110.791 105.668C110.769 105.63 110.755 105.588 110.751 105.544C110.747 105.5 110.752 105.456 110.766 105.414C110.78 105.373 110.803 105.335 110.833 105.303C110.863 105.27 110.9 105.245 110.941 105.228C110.982 105.205 111.029 105.193 111.077 105.191C111.124 105.19 111.171 105.2 111.214 105.22C111.257 105.241 111.295 105.271 111.324 105.309C111.353 105.347 111.372 105.391 111.381 105.438V105.438Z" fill="#EDF0F4"/>
<path d="M121.38 123.628C121.379 123.693 121.358 123.757 121.319 123.809C121.281 123.861 121.227 123.9 121.165 123.92C121.103 123.94 121.036 123.94 120.974 123.92C120.912 123.9 120.858 123.861 120.82 123.808C120.776 123.74 120.76 123.657 120.775 123.577C120.79 123.498 120.834 123.426 120.9 123.378C120.932 123.354 120.968 123.336 121.007 123.326C121.045 123.317 121.086 123.315 121.125 123.321C121.165 123.328 121.202 123.343 121.236 123.365C121.269 123.386 121.298 123.415 121.32 123.448C121.358 123.501 121.379 123.564 121.38 123.628V123.628Z" fill="#EDF0F4"/>
<path d="M117.57 117.698C117.583 117.747 117.583 117.799 117.57 117.848C117.57 117.901 117.556 117.953 117.53 117.998C117.503 118.044 117.465 118.082 117.42 118.108C117.351 118.149 117.268 118.162 117.19 118.143C117.111 118.125 117.043 118.076 117 118.008C116.979 117.974 116.964 117.935 116.958 117.895C116.952 117.855 116.955 117.814 116.965 117.775C116.975 117.735 116.993 117.699 117.018 117.667C117.043 117.635 117.074 117.608 117.11 117.588C117.146 117.562 117.188 117.543 117.232 117.534C117.276 117.525 117.322 117.526 117.365 117.537C117.409 117.547 117.45 117.567 117.485 117.595C117.521 117.623 117.55 117.658 117.57 117.698V117.698Z" fill="#EDF0F4"/>
<path d="M125.561 129.118C125.56 129.162 125.549 129.206 125.53 129.245C125.511 129.285 125.484 129.32 125.451 129.348C125.408 129.393 125.353 129.424 125.292 129.437C125.232 129.449 125.169 129.444 125.111 129.421C125.054 129.398 125.005 129.358 124.97 129.307C124.936 129.256 124.917 129.195 124.917 129.133C124.917 129.072 124.936 129.011 124.97 128.96C125.005 128.909 125.054 128.869 125.111 128.846C125.169 128.823 125.232 128.817 125.292 128.83C125.353 128.843 125.408 128.874 125.451 128.918C125.511 128.969 125.551 129.04 125.561 129.118V129.118Z" fill="#EDF0F4"/>
<path d="M105.64 85.6584C105.645 85.6781 105.645 85.6986 105.64 85.7184C105.637 85.7903 105.609 85.8591 105.562 85.9136C105.515 85.968 105.451 86.0049 105.38 86.0184C105.301 86.0301 105.22 86.0106 105.155 85.9639C105.089 85.9173 105.045 85.8472 105.03 85.7684C105.023 85.7289 105.024 85.6884 105.033 85.6493C105.041 85.6102 105.058 85.5732 105.081 85.5406C105.104 85.5079 105.134 85.4803 105.168 85.4593C105.202 85.4383 105.24 85.4244 105.28 85.4184C105.32 85.4081 105.361 85.4063 105.401 85.4131C105.441 85.4199 105.48 85.4351 105.514 85.4578C105.548 85.4804 105.577 85.51 105.598 85.5446C105.62 85.5791 105.634 85.6179 105.64 85.6584Z" fill="#EDF0F4"/>
<path d="M104.72 78.8484C104.72 78.923 104.693 78.9951 104.643 79.0506C104.593 79.106 104.524 79.1409 104.45 79.1484C104.369 79.1568 104.288 79.1333 104.225 79.0828C104.161 79.0323 104.12 78.9589 104.11 78.8784C104.104 78.7966 104.13 78.7158 104.182 78.6525C104.234 78.5893 104.308 78.5484 104.39 78.5384C104.432 78.537 104.474 78.544 104.513 78.5589C104.552 78.5737 104.588 78.5962 104.619 78.625C104.65 78.6538 104.674 78.6883 104.692 78.7266C104.709 78.765 104.718 78.8063 104.72 78.8484V78.8484Z" fill="#EDF0F4"/>
<path d="M108.94 98.9983C108.945 99.0281 108.945 99.0585 108.94 99.0883C108.939 99.1524 108.919 99.2147 108.881 99.2667C108.843 99.3186 108.791 99.3576 108.73 99.3783C108.692 99.3924 108.651 99.3986 108.611 99.3966C108.57 99.3946 108.531 99.3844 108.494 99.3667C108.458 99.3489 108.425 99.324 108.399 99.2933C108.372 99.2626 108.352 99.2269 108.34 99.1883C108.317 99.1113 108.323 99.0284 108.359 98.9562C108.394 98.8839 108.455 98.8276 108.53 98.7983C108.57 98.781 108.613 98.7726 108.656 98.7735C108.699 98.7745 108.742 98.7848 108.781 98.8038C108.82 98.8228 108.854 98.85 108.882 98.8836C108.909 98.9172 108.929 98.9563 108.94 98.9983V98.9983Z" fill="#EDF0F4"/>
<path d="M107.07 92.3883V92.4683C107.07 92.5354 107.047 92.6004 107.005 92.653C106.964 92.7056 106.906 92.7427 106.84 92.7583C106.802 92.7703 106.761 92.774 106.72 92.7692C106.68 92.7644 106.641 92.7512 106.606 92.7305C106.572 92.7098 106.541 92.682 106.518 92.6489C106.495 92.6157 106.478 92.5781 106.47 92.5383C106.46 92.4996 106.457 92.4591 106.463 92.4193C106.468 92.3796 106.482 92.3413 106.502 92.3068C106.523 92.2723 106.55 92.2423 106.582 92.2185C106.614 92.1947 106.651 92.1776 106.69 92.1683C106.77 92.1496 106.853 92.162 106.924 92.2029C106.995 92.2437 107.047 92.3101 107.07 92.3883V92.3883Z" fill="#EDF0F4"/>
<path d="M123.55 118.698C123.55 118.763 123.534 118.826 123.502 118.882C123.471 118.938 123.425 118.985 123.37 119.018C123.327 119.049 123.279 119.071 123.227 119.082C123.176 119.094 123.123 119.095 123.071 119.086C123.02 119.076 122.971 119.056 122.927 119.028C122.883 118.999 122.845 118.961 122.816 118.917C122.787 118.873 122.767 118.824 122.758 118.772C122.748 118.721 122.749 118.668 122.761 118.616C122.773 118.565 122.794 118.517 122.825 118.474C122.856 118.432 122.895 118.396 122.94 118.368C122.999 118.328 123.068 118.305 123.14 118.301C123.211 118.297 123.282 118.313 123.345 118.347C123.408 118.381 123.461 118.432 123.497 118.494C123.533 118.556 123.551 118.627 123.55 118.698V118.698Z" fill="#EDF0F4"/>
<path d="M119.94 112.698C119.975 112.755 119.992 112.821 119.99 112.888C119.991 112.958 119.973 113.026 119.938 113.086C119.902 113.146 119.851 113.195 119.79 113.228C119.745 113.256 119.695 113.275 119.643 113.283C119.591 113.292 119.537 113.289 119.486 113.276C119.435 113.263 119.387 113.239 119.345 113.207C119.303 113.175 119.268 113.134 119.242 113.088C119.216 113.042 119.2 112.991 119.195 112.939C119.189 112.886 119.194 112.833 119.21 112.782C119.226 112.732 119.252 112.685 119.286 112.645C119.32 112.605 119.363 112.572 119.41 112.548C119.454 112.522 119.504 112.505 119.555 112.498C119.606 112.492 119.658 112.496 119.707 112.51C119.757 112.524 119.803 112.548 119.843 112.58C119.883 112.612 119.916 112.653 119.94 112.698Z" fill="#EDF0F4"/>
<path d="M116.94 106.678C116.95 106.731 116.95 106.785 116.94 106.838C116.939 106.914 116.917 106.987 116.876 107.051C116.835 107.114 116.778 107.165 116.71 107.198C116.663 107.22 116.612 107.232 116.56 107.233C116.508 107.235 116.457 107.226 116.408 107.208C116.36 107.189 116.316 107.161 116.278 107.125C116.241 107.089 116.211 107.046 116.19 106.998C116.155 106.905 116.156 106.802 116.194 106.71C116.232 106.618 116.303 106.544 116.394 106.503C116.485 106.462 116.588 106.457 116.682 106.49C116.776 106.522 116.854 106.59 116.9 106.678H116.94Z" fill="#EDF0F4"/>
<path d="M127.42 123.968C127.47 124.038 127.498 124.122 127.5 124.208C127.498 124.268 127.484 124.326 127.458 124.379C127.432 124.433 127.395 124.48 127.35 124.518C127.311 124.561 127.263 124.594 127.209 124.616C127.156 124.639 127.099 124.649 127.041 124.647C126.983 124.644 126.926 124.63 126.875 124.604C126.823 124.577 126.778 124.54 126.742 124.495C126.707 124.45 126.681 124.397 126.667 124.341C126.654 124.285 126.653 124.226 126.664 124.17C126.675 124.113 126.698 124.059 126.732 124.012C126.766 123.966 126.81 123.927 126.86 123.898C126.945 123.836 127.05 123.809 127.154 123.822C127.258 123.835 127.353 123.887 127.42 123.968V123.968Z" fill="#EDF0F4"/>
<path d="M109.55 80.7884C109.549 80.8632 109.527 80.9363 109.486 80.9989C109.445 81.0615 109.387 81.111 109.318 81.1415C109.25 81.1719 109.174 81.182 109.1 81.1706C109.026 81.1591 108.957 81.1267 108.901 81.077C108.845 81.0273 108.805 80.9626 108.784 80.8905C108.764 80.8185 108.765 80.7421 108.787 80.6705C108.809 80.599 108.851 80.5352 108.908 80.487C108.966 80.4387 109.036 80.408 109.11 80.3984C109.165 80.3912 109.221 80.396 109.274 80.4124C109.328 80.4287 109.377 80.4563 109.419 80.4933C109.46 80.5302 109.494 80.5757 109.516 80.6266C109.539 80.6775 109.55 80.7327 109.55 80.7884V80.7884Z" fill="#EDF0F4"/>
<path d="M108.94 74.0483C108.941 74.1483 108.902 74.2446 108.833 74.3172C108.765 74.3898 108.67 74.4331 108.57 74.4383C108.465 74.4411 108.362 74.4032 108.284 74.3324C108.206 74.2617 108.158 74.1635 108.15 74.0583C108.165 73.9643 108.213 73.8788 108.286 73.817C108.358 73.7552 108.45 73.7213 108.545 73.7213C108.641 73.7213 108.733 73.7552 108.805 73.817C108.877 73.8788 108.925 73.9643 108.94 74.0583V74.0483Z" fill="#EDF0F4"/>
<path d="M110.65 87.4484C110.654 87.4749 110.654 87.5019 110.65 87.5284C110.651 87.6196 110.619 87.7081 110.561 87.7779C110.502 87.8477 110.42 87.894 110.33 87.9084C110.254 87.9226 110.176 87.9142 110.105 87.8842C110.035 87.8542 109.974 87.8038 109.932 87.7396C109.89 87.6753 109.867 87.6 109.868 87.523C109.868 87.4461 109.891 87.371 109.934 87.3072C109.977 87.2434 110.038 87.1937 110.109 87.1644C110.181 87.1352 110.259 87.1276 110.334 87.1427C110.41 87.1578 110.479 87.1949 110.533 87.2493C110.588 87.3037 110.625 87.3729 110.64 87.4484H110.65Z" fill="#EDF0F4"/>
<path d="M114.35 100.438C114.36 100.485 114.36 100.532 114.35 100.578C114.352 100.66 114.328 100.74 114.281 100.806C114.234 100.873 114.167 100.923 114.09 100.948C113.992 100.981 113.885 100.974 113.792 100.929C113.699 100.884 113.626 100.805 113.59 100.708C113.573 100.66 113.565 100.608 113.568 100.557C113.571 100.505 113.583 100.455 113.606 100.408C113.628 100.362 113.659 100.32 113.698 100.286C113.736 100.252 113.781 100.225 113.83 100.208C113.879 100.186 113.932 100.174 113.986 100.174C114.04 100.174 114.093 100.185 114.142 100.206C114.191 100.228 114.235 100.26 114.271 100.3C114.307 100.34 114.334 100.387 114.35 100.438V100.438Z" fill="#EDF0F4"/>
<path d="M112.25 94.0183C112.255 94.0515 112.255 94.0851 112.25 94.1183C112.257 94.2165 112.226 94.3135 112.164 94.39C112.102 94.4664 112.014 94.5166 111.916 94.5305C111.819 94.5444 111.72 94.521 111.639 94.465C111.558 94.4089 111.502 94.3244 111.48 94.2283C111.463 94.1781 111.457 94.125 111.461 94.0722C111.465 94.0193 111.48 93.9679 111.505 93.921C111.529 93.8741 111.563 93.8328 111.605 93.7995C111.646 93.7662 111.694 93.7416 111.745 93.7273C111.796 93.713 111.849 93.7093 111.902 93.7163C111.954 93.7234 112.005 93.7411 112.05 93.7683C112.096 93.7955 112.135 93.8318 112.166 93.8747C112.197 93.9177 112.219 93.9666 112.23 94.0183H112.25Z" fill="#EDF0F4"/>
<path d="M108.89 67.2883C108.89 67.3918 108.849 67.491 108.775 67.5641C108.702 67.6372 108.603 67.6783 108.5 67.6783C108.396 67.6783 108.297 67.6372 108.224 67.5641C108.151 67.491 108.11 67.3918 108.11 67.2883V67.2883C108.115 67.1831 108.16 67.0839 108.237 67.0112C108.313 66.9386 108.414 66.8982 108.52 66.8983C108.619 66.9057 108.712 66.9498 108.78 67.0219C108.848 67.094 108.887 67.189 108.89 67.2883V67.2883Z" fill="#EDF0F4"/>
<path d="M113.66 40.6683C113.665 40.7082 113.665 40.7485 113.66 40.7883C113.645 40.838 113.619 40.884 113.585 40.9236C113.551 40.9632 113.51 40.9956 113.463 41.0189C113.417 41.0422 113.366 41.0559 113.314 41.0593C113.262 41.0626 113.21 41.0555 113.16 41.0383C113.064 41.0022 112.984 40.9299 112.94 40.8367C112.895 40.7435 112.888 40.6365 112.92 40.5383C112.936 40.4887 112.962 40.4427 112.996 40.4031C113.03 40.3635 113.071 40.3311 113.118 40.3078C113.164 40.2845 113.215 40.2707 113.267 40.2674C113.319 40.2641 113.371 40.2712 113.42 40.2883C113.494 40.3203 113.556 40.3737 113.599 40.4414C113.642 40.5092 113.663 40.5882 113.66 40.6683V40.6683Z" fill="#EDF0F4"/>
<path d="M126.24 16.6883C126.24 16.7747 126.212 16.8587 126.16 16.9283C126.097 17.0103 126.004 17.0645 125.901 17.0794C125.799 17.0943 125.694 17.0688 125.61 17.0083C125.528 16.9448 125.474 16.852 125.459 16.7494C125.444 16.6468 125.47 16.5424 125.53 16.4583C125.594 16.3763 125.686 16.3221 125.789 16.3071C125.892 16.2922 125.996 16.3177 126.08 16.3783C126.128 16.415 126.167 16.4618 126.195 16.5154C126.223 16.569 126.238 16.628 126.24 16.6883V16.6883Z" fill="#EDF0F4"/>
<path d="M116.11 34.3283C116.111 34.3938 116.095 34.4584 116.064 34.5162C116.034 34.574 115.989 34.623 115.934 34.6589C115.879 34.6948 115.816 34.7163 115.751 34.7214C115.686 34.7265 115.62 34.7151 115.56 34.6883C115.513 34.6677 115.47 34.6378 115.434 34.6004C115.398 34.5629 115.37 34.5187 115.351 34.4703C115.332 34.4219 115.324 34.3702 115.325 34.3183C115.327 34.2665 115.339 34.2155 115.36 34.1683C115.38 34.121 115.409 34.0782 115.445 34.0423C115.482 34.0065 115.525 33.9784 115.573 33.9597C115.62 33.941 115.671 33.9322 115.722 33.9336C115.774 33.9351 115.824 33.9469 115.87 33.9683C115.941 33.9979 116.002 34.0479 116.045 34.1119C116.088 34.176 116.11 34.2513 116.11 34.3283Z" fill="#EDF0F4"/>
<path d="M119.04 28.2283C119.037 28.2914 119.02 28.353 118.99 28.4083C118.939 28.4928 118.857 28.5545 118.762 28.581C118.666 28.6075 118.564 28.5968 118.477 28.5511C118.389 28.5053 118.322 28.4279 118.289 28.3346C118.256 28.2412 118.26 28.1389 118.3 28.0483C118.323 28.002 118.356 27.9608 118.395 27.9271C118.434 27.8935 118.48 27.868 118.529 27.8521C118.579 27.8363 118.631 27.8305 118.682 27.835C118.734 27.8395 118.784 27.8542 118.83 27.8783C118.893 27.9124 118.946 27.9629 118.983 28.0245C119.02 28.0861 119.04 28.1565 119.04 28.2283Z" fill="#EDF0F4"/>
<path d="M111.71 47.1684C111.719 47.1976 111.719 47.2291 111.71 47.2584V47.2584C111.699 47.3081 111.677 47.3549 111.647 47.3962C111.617 47.4374 111.579 47.4721 111.535 47.4982C111.491 47.5243 111.442 47.5414 111.392 47.5483C111.341 47.5552 111.29 47.5518 111.24 47.5384C111.19 47.5256 111.143 47.503 111.102 47.4718C111.061 47.4407 111.026 47.4016 111 47.357C110.974 47.3123 110.957 47.2629 110.95 47.2116C110.943 47.1604 110.947 47.1083 110.96 47.0584C110.982 46.9638 111.038 46.8806 111.118 46.8252C111.197 46.7697 111.294 46.7459 111.391 46.7584C111.487 46.7709 111.575 46.8188 111.638 46.8927C111.701 46.9667 111.734 47.0614 111.73 47.1584L111.71 47.1684Z" fill="#EDF0F4"/>
<path d="M109.321 60.5083C109.316 60.5596 109.3 60.6094 109.276 60.6549C109.252 60.7003 109.219 60.7405 109.179 60.773C109.139 60.8056 109.093 60.8299 109.043 60.8445C108.994 60.8591 108.942 60.8638 108.891 60.8583C108.786 60.8482 108.69 60.7974 108.623 60.717C108.555 60.6365 108.522 60.5329 108.531 60.4283C108.548 60.3259 108.602 60.2335 108.683 60.1688C108.765 60.1042 108.867 60.0719 108.971 60.0783C109.072 60.0931 109.164 60.1456 109.229 60.2252C109.294 60.3048 109.327 60.4058 109.321 60.5083V60.5083Z" fill="#EDF0F4"/>
<path d="M110.26 53.7982C110.265 53.818 110.265 53.8385 110.26 53.8582C110.251 53.9529 110.206 54.0405 110.134 54.1028C110.062 54.1651 109.969 54.1973 109.874 54.1928C109.779 54.1883 109.69 54.1474 109.624 54.0786C109.558 54.0098 109.522 53.9183 109.522 53.8232C109.522 53.7282 109.558 53.6367 109.624 53.5679C109.69 53.4991 109.779 53.4582 109.874 53.4537C109.969 53.4492 110.062 53.4814 110.134 53.5437C110.206 53.606 110.251 53.6936 110.26 53.7882V53.7982Z" fill="#EDF0F4"/>
<path d="M122.42 22.3083C122.419 22.3824 122.398 22.4549 122.36 22.5183C122.332 22.5618 122.297 22.5994 122.255 22.629C122.213 22.6585 122.165 22.6795 122.115 22.6906C122.065 22.7018 122.013 22.7029 121.962 22.6939C121.912 22.685 121.863 22.6661 121.82 22.6383C121.733 22.5827 121.67 22.4953 121.646 22.3946C121.622 22.2939 121.637 22.1877 121.69 22.0983C121.717 22.0549 121.753 22.0173 121.795 21.9877C121.837 21.9582 121.885 21.9372 121.935 21.926C121.985 21.9149 122.037 21.9138 122.088 21.9227C122.138 21.9317 122.187 21.9506 122.23 21.9783C122.287 22.0125 122.335 22.0608 122.368 22.1186C122.401 22.1763 122.419 22.2417 122.42 22.3083V22.3083Z" fill="#EDF0F4"/>
<path d="M129.94 19.3783C129.94 19.4817 129.909 19.5827 129.85 19.6683C129.773 19.768 129.66 19.8341 129.536 19.8527C129.411 19.8713 129.283 19.8411 129.18 19.7683C129.129 19.7316 129.085 19.685 129.052 19.6311C129.019 19.5771 128.997 19.5171 128.988 19.4546C128.979 19.392 128.982 19.3282 128.998 19.267C129.014 19.2058 129.042 19.1484 129.08 19.0983C129.116 19.047 129.162 19.0036 129.215 18.9706C129.268 18.9376 129.327 18.9158 129.389 18.9064C129.451 18.8971 129.514 18.9004 129.574 18.9162C129.635 18.932 129.691 18.9599 129.74 18.9983C129.802 19.0412 129.852 19.098 129.886 19.1641C129.921 19.2302 129.94 19.3036 129.94 19.3783V19.3783Z" fill="#EDF0F4"/>
<path d="M113.45 69.2283C113.45 69.3236 113.422 69.4168 113.369 69.496C113.315 69.5751 113.24 69.6366 113.151 69.6726C113.063 69.7086 112.966 69.7175 112.873 69.6982C112.779 69.6788 112.694 69.6321 112.627 69.564C112.56 69.4959 112.516 69.4094 112.498 69.3156C112.481 69.2219 112.492 69.1251 112.53 69.0375C112.568 68.95 112.631 68.8758 112.711 68.8243C112.791 68.7727 112.885 68.7463 112.98 68.7483C113.106 68.7509 113.225 68.8026 113.313 68.8924C113.401 68.9821 113.45 69.1027 113.45 69.2283V69.2283Z" fill="#EDF0F4"/>
<path d="M119.74 101.628C119.754 101.687 119.754 101.749 119.74 101.808C119.74 101.918 119.702 102.025 119.632 102.11C119.562 102.196 119.465 102.254 119.358 102.277C119.25 102.299 119.137 102.283 119.04 102.233C118.942 102.182 118.864 102.099 118.82 101.998C118.796 101.94 118.783 101.877 118.783 101.814C118.783 101.75 118.795 101.688 118.819 101.629C118.843 101.571 118.879 101.517 118.924 101.473C118.969 101.428 119.022 101.392 119.08 101.368C119.14 101.337 119.206 101.319 119.273 101.316C119.34 101.312 119.407 101.323 119.47 101.348C119.532 101.373 119.589 101.41 119.636 101.459C119.682 101.507 119.718 101.565 119.74 101.628V101.628Z" fill="#EDF0F4"/>
<path d="M115.5 48.9583C115.605 48.9848 115.698 49.0452 115.765 49.1303C115.832 49.2153 115.869 49.3201 115.87 49.4283C115.87 49.4283 115.87 49.5083 115.87 49.5383C115.837 49.6606 115.759 49.7658 115.651 49.8326C115.543 49.8995 115.414 49.9229 115.29 49.8983C115.165 49.8691 115.058 49.7916 114.99 49.6828C114.922 49.574 114.901 49.4429 114.93 49.3183C114.959 49.1936 115.037 49.0857 115.146 49.0181C115.254 48.9506 115.385 48.9291 115.51 48.9583H115.5Z" fill="#EDF0F4"/>
<path d="M120.06 36.7583C120.074 36.8208 120.074 36.8858 120.06 36.9483C120.036 37.065 119.97 37.1687 119.874 37.2394C119.778 37.3102 119.66 37.3428 119.541 37.3309C119.423 37.3191 119.313 37.2636 119.233 37.1754C119.153 37.0871 119.109 36.9723 119.109 36.8533C119.109 36.7343 119.153 36.6195 119.233 36.5312C119.313 36.4429 119.423 36.3875 119.541 36.3757C119.66 36.3638 119.778 36.3964 119.874 36.4671C119.97 36.5378 120.036 36.6416 120.06 36.7583Z" fill="#EDF0F4"/>
<path d="M117.46 95.3883C117.469 95.4378 117.469 95.4887 117.46 95.5383C117.458 95.6409 117.425 95.7405 117.364 95.823C117.303 95.9056 117.217 95.9669 117.12 95.9983C117.003 96.0228 116.882 96.0032 116.779 95.9433C116.677 95.8835 116.6 95.7876 116.564 95.6743C116.527 95.561 116.535 95.4383 116.584 95.3301C116.633 95.2218 116.721 95.1356 116.83 95.0883C116.89 95.0615 116.956 95.0481 117.022 95.049C117.088 95.0499 117.154 95.0651 117.214 95.0936C117.273 95.1221 117.326 95.1632 117.369 95.214C117.411 95.2649 117.442 95.3243 117.46 95.3883Z" fill="#EDF0F4"/>
<path d="M125.73 113.448C125.762 113.502 125.784 113.562 125.794 113.624C125.804 113.687 125.801 113.75 125.786 113.811C125.771 113.873 125.745 113.93 125.708 113.981C125.67 114.032 125.623 114.075 125.57 114.108C125.516 114.141 125.456 114.163 125.394 114.173C125.331 114.182 125.268 114.18 125.206 114.165C125.145 114.15 125.087 114.123 125.036 114.086C124.986 114.049 124.942 114.002 124.91 113.948C124.876 113.896 124.853 113.837 124.842 113.775C124.832 113.713 124.834 113.65 124.849 113.589C124.864 113.528 124.892 113.471 124.929 113.421C124.967 113.371 125.015 113.329 125.07 113.298C125.177 113.231 125.307 113.209 125.431 113.237C125.554 113.265 125.662 113.341 125.73 113.448V113.448Z" fill="#EDF0F4"/>
<path d="M122.501 107.658C122.531 107.724 122.548 107.796 122.551 107.868C122.554 107.957 122.531 108.046 122.484 108.122C122.438 108.198 122.371 108.26 122.291 108.298C122.235 108.327 122.174 108.345 122.111 108.35C122.049 108.355 121.986 108.348 121.926 108.328C121.867 108.309 121.811 108.277 121.764 108.236C121.717 108.195 121.678 108.145 121.651 108.088C121.595 107.975 121.585 107.845 121.624 107.725C121.664 107.606 121.749 107.506 121.861 107.448C121.916 107.419 121.977 107.402 122.04 107.396C122.102 107.391 122.165 107.399 122.225 107.418C122.284 107.438 122.34 107.469 122.387 107.51C122.434 107.552 122.473 107.602 122.501 107.658V107.658Z" fill="#EDF0F4"/>
<path d="M117.71 43.0183C117.714 43.0649 117.714 43.1118 117.71 43.1583V43.1583C117.667 43.2775 117.579 43.3754 117.465 43.4313C117.351 43.4873 117.22 43.497 117.1 43.4583C117.04 43.4381 116.985 43.4062 116.937 43.3645C116.89 43.3229 116.851 43.2723 116.823 43.2156C116.795 43.1589 116.779 43.0973 116.775 43.0343C116.771 42.9713 116.779 42.9081 116.8 42.8483C116.819 42.7889 116.85 42.7339 116.89 42.6865C116.931 42.6392 116.981 42.6004 117.037 42.5724C117.093 42.5445 117.154 42.528 117.216 42.5239C117.278 42.5197 117.341 42.528 117.4 42.5483C117.495 42.5827 117.577 42.6471 117.633 42.7318C117.689 42.8165 117.716 42.917 117.71 43.0183V43.0183Z" fill="#EDF0F4"/>
<path d="M113.74 62.5983C113.735 62.6614 113.718 62.7229 113.689 62.7792C113.66 62.8355 113.62 62.8856 113.572 62.9265C113.523 62.9674 113.467 62.9983 113.407 63.0175C113.347 63.0367 113.283 63.0438 113.22 63.0383C113.127 63.0305 113.038 62.9956 112.964 62.9379C112.891 62.8802 112.835 62.8022 112.805 62.7135C112.776 62.6249 112.772 62.5294 112.796 62.4388C112.819 62.3483 112.869 62.2666 112.938 62.2039C113.008 62.1411 113.094 62.1 113.187 62.0856C113.279 62.0713 113.374 62.0843 113.459 62.123C113.544 62.1617 113.616 62.2245 113.666 62.3036C113.716 62.3827 113.742 62.4747 113.74 62.5683V62.5983Z" fill="#EDF0F4"/>
<path d="M113.68 75.8982C113.68 76.0189 113.635 76.1353 113.554 76.2243C113.472 76.3132 113.36 76.3682 113.24 76.3782C113.107 76.3875 112.976 76.3438 112.876 76.2565C112.776 76.1693 112.714 76.0459 112.705 75.9132C112.696 75.7806 112.739 75.6498 112.827 75.5494C112.914 75.4491 113.037 75.3875 113.17 75.3782C113.239 75.3737 113.308 75.3841 113.373 75.4087C113.437 75.4334 113.496 75.4717 113.544 75.5211C113.593 75.5705 113.63 75.6297 113.653 75.6948C113.677 75.7599 113.686 75.8293 113.68 75.8982Z" fill="#EDF0F4"/>
<path d="M113.6 55.8883C113.608 55.8265 113.629 55.7672 113.661 55.7138C113.693 55.6604 113.736 55.614 113.786 55.5776C113.837 55.5411 113.894 55.5153 113.955 55.5016C114.016 55.488 114.079 55.4869 114.14 55.4983C114.254 55.5129 114.358 55.5688 114.434 55.6554C114.51 55.7421 114.551 55.8533 114.55 55.9683C114.55 55.9683 114.55 55.9683 114.55 56.0483C114.529 56.1809 114.456 56.2996 114.347 56.3784C114.238 56.4571 114.102 56.4895 113.97 56.4683C113.837 56.447 113.718 56.374 113.64 56.2652C113.561 56.1565 113.529 56.0209 113.55 55.8883H113.6Z" fill="#EDF0F4"/>
<path d="M114.42 82.4883C114.425 82.5114 114.425 82.5352 114.42 82.5583C114.421 82.6717 114.382 82.7818 114.308 82.8682C114.235 82.9545 114.132 83.0114 114.02 83.0283C113.958 83.0383 113.894 83.0358 113.833 83.0211C113.771 83.0064 113.713 82.9797 113.662 82.9425C113.611 82.9054 113.568 82.8585 113.535 82.8046C113.502 82.7506 113.48 82.6907 113.47 82.6283C113.46 82.5665 113.463 82.5033 113.478 82.4425C113.493 82.3817 113.519 82.3245 113.557 82.2742C113.594 82.2239 113.641 82.1815 113.695 82.1496C113.749 82.1177 113.808 82.0968 113.87 82.0883C113.933 82.0754 113.998 82.0757 114.06 82.0892C114.123 82.1028 114.182 82.1292 114.234 82.1668C114.285 82.2045 114.329 82.2525 114.361 82.3079C114.393 82.3632 114.413 82.4247 114.42 82.4883Z" fill="#EDF0F4"/>
<path d="M115.691 88.9983C115.696 89.0348 115.696 89.0718 115.691 89.1083C115.685 89.2215 115.639 89.329 115.561 89.4117C115.484 89.4944 115.38 89.547 115.267 89.5601C115.154 89.5733 115.041 89.5462 114.946 89.4837C114.852 89.4211 114.782 89.3271 114.751 89.2183C114.723 89.0952 114.744 88.9661 114.809 88.8581C114.874 88.75 114.979 88.6713 115.101 88.6383C115.163 88.622 115.228 88.6184 115.292 88.6278C115.356 88.6372 115.417 88.6593 115.472 88.6929C115.527 88.7265 115.575 88.7709 115.613 88.8234C115.65 88.8758 115.677 88.9353 115.691 88.9983V88.9983Z" fill="#EDF0F4"/>
<path d="M129.4 118.978C129.466 119.056 129.502 119.156 129.5 119.258C129.5 119.36 129.468 119.459 129.408 119.541C129.348 119.623 129.264 119.684 129.167 119.715C129.07 119.747 128.966 119.746 128.87 119.714C128.773 119.683 128.689 119.621 128.63 119.538C128.593 119.487 128.567 119.429 128.552 119.368C128.538 119.306 128.536 119.243 128.546 119.181C128.556 119.118 128.579 119.059 128.612 119.005C128.645 118.952 128.689 118.905 128.74 118.868C128.79 118.83 128.847 118.803 128.908 118.788C128.969 118.773 129.032 118.771 129.094 118.781C129.155 118.791 129.214 118.814 129.267 118.848C129.32 118.882 129.365 118.926 129.4 118.978V118.978Z" fill="#EDF0F4"/>
<path d="M126.19 24.9084C126.191 24.9966 126.167 25.0832 126.12 25.1584C126.053 25.2655 125.945 25.3414 125.821 25.3695C125.698 25.3976 125.568 25.3756 125.46 25.3084C125.407 25.2755 125.36 25.2324 125.322 25.1815C125.285 25.1306 125.259 25.0728 125.244 25.0115C125.229 24.9502 125.226 24.8866 125.236 24.8243C125.246 24.762 125.268 24.7022 125.3 24.6484C125.368 24.5412 125.476 24.4653 125.599 24.4372C125.723 24.4091 125.853 24.4311 125.96 24.4984C126.031 24.5412 126.089 24.6015 126.129 24.6733C126.169 24.7451 126.19 24.826 126.19 24.9084V24.9084Z" fill="#EDF0F4"/>
<path d="M122.891 30.7083C122.89 30.7843 122.873 30.8593 122.841 30.9283C122.815 30.9892 122.777 31.0441 122.729 31.0896C122.681 31.1351 122.624 31.1702 122.561 31.1927C122.499 31.2151 122.433 31.2245 122.367 31.2202C122.301 31.2158 122.237 31.1979 122.178 31.1675C122.119 31.1371 122.067 31.0948 122.026 31.0434C121.984 30.992 121.953 30.9326 121.936 30.8688C121.918 30.805 121.914 30.7383 121.923 30.6728C121.933 30.6073 121.956 30.5445 121.991 30.4883C122.019 30.4327 122.058 30.3834 122.106 30.3432C122.154 30.303 122.209 30.2727 122.269 30.2541C122.328 30.2354 122.391 30.2289 122.453 30.2348C122.515 30.2406 122.576 30.2588 122.631 30.2883C122.709 30.3263 122.776 30.386 122.822 30.4604C122.868 30.5348 122.892 30.6208 122.891 30.7083V30.7083Z" fill="#EDF0F4"/>
<path d="M130.08 27.3182C130.087 27.409 130.072 27.5001 130.036 27.5838C130 27.6674 129.945 27.741 129.874 27.7982C129.803 27.8553 129.719 27.8944 129.63 27.9119C129.541 27.9295 129.448 27.925 129.361 27.8988C129.274 27.8726 129.194 27.8256 129.129 27.7618C129.065 27.698 129.016 27.6193 128.988 27.5326C128.961 27.4458 128.955 27.3537 128.971 27.2641C128.987 27.1744 129.024 27.0901 129.08 27.0182C129.119 26.9546 129.17 26.8993 129.231 26.8557C129.291 26.8121 129.36 26.781 129.432 26.7642C129.505 26.7475 129.58 26.7454 129.654 26.7581C129.727 26.7708 129.797 26.798 129.86 26.8382C129.934 26.894 129.992 26.967 130.03 27.0507C130.069 27.1344 130.086 27.2263 130.08 27.3182V27.3182Z" fill="#EDF0F4"/>
<path d="M118.2 64.4583C118.196 64.5328 118.178 64.6058 118.145 64.6729C118.113 64.7401 118.067 64.8001 118.012 64.8495C117.956 64.8989 117.891 64.9366 117.82 64.9604C117.749 64.9843 117.674 64.9937 117.6 64.9883C117.488 64.9824 117.381 64.9438 117.291 64.8772C117.201 64.8107 117.133 64.7192 117.095 64.6141C117.056 64.509 117.05 64.3949 117.076 64.2862C117.102 64.1774 117.159 64.0787 117.241 64.0024C117.323 63.9261 117.425 63.8755 117.536 63.857C117.646 63.8385 117.759 63.8528 117.862 63.8982C117.964 63.9436 118.05 64.0181 118.111 64.1123C118.171 64.2066 118.202 64.3165 118.2 64.4283V64.4583Z" fill="#EDF0F4"/>
<path d="M118.42 77.5083C118.41 77.6472 118.35 77.7778 118.251 77.8754C118.152 77.9731 118.021 78.0311 117.882 78.0385C117.743 78.0459 117.606 78.0021 117.497 77.9155C117.388 77.8289 117.314 77.7054 117.29 77.5683C117.276 77.4186 117.322 77.2694 117.417 77.1533C117.513 77.0371 117.65 76.9635 117.8 76.9483C117.878 76.9398 117.958 76.9481 118.033 76.9724C118.108 76.9967 118.177 77.0366 118.235 77.0895C118.294 77.1424 118.341 77.207 118.372 77.2792C118.404 77.3513 118.42 77.4294 118.42 77.5083V77.5083Z" fill="#EDF0F4"/>
<path d="M122.7 96.5283C122.709 96.5913 122.709 96.6553 122.7 96.7183C122.701 96.8356 122.665 96.9504 122.597 97.0457C122.528 97.1411 122.431 97.2121 122.32 97.2483C122.215 97.2832 122.103 97.2865 121.996 97.2577C121.89 97.2289 121.794 97.1693 121.722 97.0864C121.649 97.0036 121.602 96.9011 121.588 96.7918C121.573 96.6826 121.591 96.5714 121.639 96.4723C121.687 96.3731 121.764 96.2904 121.859 96.2345C121.954 96.1786 122.063 96.1519 122.173 96.1579C122.283 96.1639 122.389 96.2022 122.477 96.2681C122.566 96.334 122.633 96.4245 122.67 96.5283H122.7Z" fill="#EDF0F4"/>
<path d="M120.76 90.3083C120.765 90.3581 120.765 90.4084 120.76 90.4583C120.753 90.5909 120.7 90.7168 120.61 90.8145C120.52 90.9121 120.399 90.9752 120.267 90.993C120.136 91.0108 120.002 90.9821 119.889 90.9119C119.777 90.8416 119.692 90.7342 119.65 90.6083C119.61 90.4624 119.63 90.3067 119.705 90.1754C119.78 90.0442 119.904 89.9481 120.05 89.9083C120.122 89.8886 120.198 89.8833 120.272 89.8927C120.346 89.9022 120.418 89.9261 120.483 89.9633C120.614 90.0383 120.71 90.1624 120.75 90.3083H120.76Z" fill="#EDF0F4"/>
<path d="M127.31 108.148C127.442 108.076 127.596 108.059 127.74 108.1C127.884 108.141 128.007 108.238 128.08 108.368C128.129 108.454 128.157 108.55 128.16 108.648C128.159 108.775 128.117 108.897 128.039 108.996C127.961 109.096 127.852 109.166 127.73 109.197C127.607 109.228 127.478 109.218 127.362 109.167C127.247 109.117 127.151 109.029 127.09 108.918C127.018 108.787 127.001 108.632 127.042 108.488C127.083 108.344 127.18 108.222 127.31 108.148V108.148Z" fill="#EDF0F4"/>
<path d="M118.05 70.9982C118.051 71.0718 118.038 71.1449 118.011 71.2133C117.984 71.2818 117.944 71.3442 117.893 71.3972C117.842 71.4501 117.781 71.4925 117.713 71.5218C117.646 71.5512 117.573 71.5669 117.5 71.5682C117.387 71.5722 117.275 71.5424 117.179 71.4827C117.083 71.4229 117.007 71.336 116.96 71.2328C116.914 71.1297 116.899 71.015 116.918 70.9034C116.937 70.7919 116.988 70.6885 117.066 70.6064C117.144 70.5243 117.245 70.4672 117.355 70.4424C117.465 70.4176 117.581 70.4263 117.686 70.4672C117.792 70.5082 117.882 70.5796 117.947 70.6724C118.012 70.7652 118.048 70.8751 118.05 70.9882V70.9982Z" fill="#EDF0F4"/>
<path d="M125.15 102.558C125.164 102.634 125.164 102.712 125.15 102.788C125.122 102.921 125.045 103.039 124.935 103.119C124.825 103.198 124.689 103.235 124.554 103.22C124.419 103.206 124.294 103.142 124.203 103.041C124.112 102.94 124.062 102.809 124.062 102.673C124.062 102.537 124.112 102.406 124.203 102.305C124.294 102.204 124.419 102.141 124.554 102.126C124.689 102.112 124.825 102.148 124.935 102.228C125.045 102.308 125.122 102.425 125.15 102.558V102.558Z" fill="#EDF0F4"/>
<path d="M118.67 83.4983C118.818 83.4721 118.971 83.5058 119.095 83.592C119.219 83.6782 119.303 83.8099 119.33 83.9583V84.0583C119.334 84.1904 119.289 84.3193 119.204 84.4207C119.12 84.522 119.001 84.5888 118.87 84.6083C118.797 84.6228 118.722 84.6225 118.649 84.6077C118.576 84.5928 118.507 84.5636 118.446 84.5217C118.384 84.4798 118.332 84.4261 118.291 84.3637C118.251 84.3013 118.223 84.2315 118.21 84.1583C118.186 84.0102 118.221 83.8587 118.307 83.7356C118.393 83.6125 118.523 83.5275 118.67 83.4983V83.4983Z" fill="#EDF0F4"/>
<path d="M121.44 44.6183C121.555 44.6543 121.656 44.726 121.728 44.8231C121.8 44.9201 121.839 45.0375 121.84 45.1583C121.849 45.2146 121.849 45.272 121.84 45.3283C121.807 45.4364 121.742 45.5321 121.654 45.6034C121.567 45.6746 121.46 45.7182 121.347 45.7285C121.234 45.7387 121.121 45.7153 121.022 45.6611C120.923 45.607 120.842 45.5245 120.79 45.4242C120.737 45.324 120.716 45.2104 120.729 45.0981C120.741 44.9857 120.787 44.8795 120.86 44.7931C120.933 44.7068 121.03 44.644 121.138 44.6129C121.247 44.5817 121.362 44.5836 121.47 44.6183H121.44Z" fill="#EDF0F4"/>
<path d="M120.1 51.4783C120.1 51.4783 120.1 51.5683 120.1 51.6083C120.083 51.6812 120.052 51.75 120.008 51.8108C119.965 51.8716 119.909 51.9232 119.846 51.9627C119.782 52.0022 119.712 52.0287 119.638 52.0408C119.564 52.053 119.488 52.0504 119.415 52.0333C119.342 52.0163 119.274 51.985 119.213 51.9413C119.152 51.8977 119.1 51.8425 119.061 51.7788C119.022 51.7152 118.995 51.6445 118.983 51.5706C118.971 51.4967 118.973 51.4212 118.99 51.3483C119.026 51.2165 119.108 51.1017 119.221 51.0251C119.334 50.9484 119.471 50.9149 119.606 50.9307C119.742 50.9464 119.868 51.0104 119.96 51.1109C120.053 51.2114 120.106 51.3418 120.11 51.4783H120.1Z" fill="#EDF0F4"/>
<path d="M124.09 38.9883C124.094 39.0823 124.073 39.1756 124.03 39.2593C123.988 39.343 123.924 39.4144 123.846 39.4665C123.768 39.5187 123.677 39.5499 123.584 39.5572C123.49 39.5645 123.396 39.5477 123.31 39.5083C123.218 39.4687 123.137 39.4047 123.078 39.3231C123.018 39.2415 122.982 39.1454 122.973 39.0449C122.964 38.9444 122.982 38.8432 123.025 38.7521C123.069 38.661 123.136 38.5834 123.22 38.5274C123.304 38.4714 123.401 38.4392 123.502 38.4341C123.603 38.429 123.703 38.4512 123.792 38.4984C123.882 38.5457 123.956 38.6161 124.009 38.7023C124.061 38.7886 124.09 38.8874 124.09 38.9883V38.9883Z" fill="#EDF0F4"/>
<path d="M118.88 57.9283V58.0083C118.871 58.0822 118.846 58.1534 118.809 58.2177C118.771 58.282 118.721 58.3381 118.661 58.3828C118.602 58.4275 118.534 58.4599 118.461 58.478C118.389 58.4961 118.314 58.4996 118.24 58.4883C118.092 58.466 117.959 58.3864 117.869 58.2667C117.779 58.1469 117.74 57.9967 117.76 57.8483C117.771 57.6998 117.84 57.5616 117.953 57.4641C118.065 57.3666 118.212 57.3177 118.36 57.3283C118.509 57.3389 118.647 57.4081 118.745 57.5206C118.842 57.6332 118.891 57.7798 118.88 57.9283V57.9283Z" fill="#EDF0F4"/>
<path d="M126.851 33.0284C126.851 33.1185 126.831 33.2075 126.791 33.2884C126.756 33.3547 126.708 33.4135 126.651 33.4615C126.593 33.5095 126.527 33.5457 126.455 33.5679C126.384 33.5902 126.309 33.5982 126.234 33.5914C126.159 33.5846 126.087 33.5632 126.021 33.5284C125.934 33.4809 125.862 33.4116 125.811 33.3274C125.761 33.2432 125.733 33.147 125.731 33.0487C125.729 32.9503 125.753 32.8532 125.8 32.7671C125.848 32.6809 125.917 32.6089 126.002 32.5581C126.086 32.5073 126.182 32.4797 126.281 32.4779C126.379 32.4761 126.476 32.5003 126.562 32.5479C126.648 32.5956 126.72 32.6651 126.771 32.7494C126.821 32.8338 126.849 32.93 126.851 33.0284V33.0284Z" fill="#EDF0F4"/>
<path d="M124.391 53.3083C124.396 53.3548 124.396 53.4018 124.391 53.4483C124.35 53.6161 124.246 53.7617 124.101 53.8549C123.956 53.948 123.78 53.9815 123.61 53.9483C123.442 53.9112 123.295 53.8087 123.202 53.6634C123.11 53.518 123.078 53.3417 123.115 53.1733C123.153 53.0049 123.255 52.8582 123.4 52.7653C123.546 52.6725 123.722 52.6412 123.891 52.6783C124.033 52.7103 124.161 52.7903 124.252 52.905C124.343 53.0196 124.392 53.162 124.391 53.3083V53.3083Z" fill="#EDF0F4"/>
<path d="M122.71 66.0782C122.702 66.2516 122.626 66.4148 122.499 66.5327C122.372 66.6506 122.203 66.7137 122.03 66.7082C121.9 66.7043 121.775 66.6623 121.669 66.5874C121.563 66.5126 121.482 66.4082 121.435 66.2873C121.388 66.1664 121.377 66.0343 121.405 65.9077C121.433 65.781 121.497 65.6653 121.59 65.5749C121.683 65.4846 121.801 65.4237 121.928 65.3998C122.056 65.376 122.188 65.3901 122.307 65.4406C122.426 65.4911 122.528 65.5757 122.6 65.6837C122.672 65.7918 122.71 65.9186 122.71 66.0482V66.0782Z" fill="#EDF0F4"/>
<path d="M123.19 78.8783C123.195 78.9048 123.195 78.9319 123.19 78.9583C123.2 79.1307 123.142 79.3003 123.028 79.4297C122.913 79.5591 122.752 79.6377 122.58 79.6483C122.407 79.6589 122.238 79.6006 122.108 79.4862C121.979 79.3718 121.9 79.2107 121.89 79.0383C121.87 78.8662 121.918 78.6931 122.025 78.5566C122.132 78.42 122.288 78.3308 122.46 78.3083C122.545 78.2957 122.633 78.3006 122.716 78.3228C122.8 78.3449 122.878 78.3838 122.947 78.4371C123.015 78.4904 123.072 78.5569 123.113 78.6328C123.155 78.7086 123.181 78.7922 123.19 78.8783V78.8783Z" fill="#EDF0F4"/>
<path d="M122.01 71.8783C122.184 71.8728 122.352 71.9359 122.48 72.0538C122.607 72.1717 122.683 72.3349 122.69 72.5083C122.691 72.6772 122.625 72.8396 122.507 72.9609C122.39 73.0823 122.229 73.1531 122.06 73.1583C121.975 73.1637 121.889 73.1518 121.808 73.1233C121.727 73.0948 121.652 73.0503 121.589 72.9925C121.525 72.9346 121.474 72.8646 121.439 72.7865C121.403 72.7085 121.383 72.6241 121.38 72.5383C121.38 72.3683 121.446 72.2048 121.563 72.0819C121.68 71.9589 121.841 71.886 122.01 71.8783V71.8783Z" fill="#EDF0F4"/>
<path d="M126.94 40.7583C126.998 40.6196 127.102 40.5052 127.235 40.4345C127.367 40.3639 127.52 40.3414 127.668 40.3709C127.815 40.4004 127.947 40.48 128.043 40.5962C128.138 40.7124 128.19 40.858 128.19 41.0083C128.209 41.0872 128.209 41.1694 128.19 41.2483C128.163 41.3335 128.118 41.4122 128.059 41.4794C127.999 41.5465 127.927 41.6007 127.846 41.6385C127.765 41.6763 127.677 41.697 127.587 41.6991C127.497 41.7013 127.408 41.685 127.326 41.6511C127.243 41.6172 127.168 41.5666 127.105 41.5024C127.043 41.4382 126.994 41.3618 126.963 41.278C126.931 41.1941 126.917 41.1047 126.922 41.0153C126.927 40.9258 126.95 40.8384 126.99 40.7583H126.94Z" fill="#EDF0F4"/>
<path d="M126.04 47.0783C126.05 47.1413 126.05 47.2054 126.04 47.2683C126.02 47.3552 125.982 47.4369 125.929 47.5085C125.876 47.58 125.809 47.6399 125.732 47.6844C125.654 47.7289 125.569 47.757 125.48 47.767C125.392 47.777 125.302 47.7687 125.217 47.7426C125.132 47.7165 125.053 47.6731 124.985 47.6152C124.917 47.5573 124.862 47.4861 124.823 47.4059C124.784 47.3258 124.762 47.2385 124.758 47.1495C124.754 47.0605 124.768 46.9716 124.8 46.8883C124.847 46.7406 124.944 46.6144 125.076 46.5323C125.207 46.4502 125.363 46.4177 125.516 46.4406C125.67 46.4635 125.81 46.5404 125.911 46.6573C126.013 46.7742 126.069 46.9235 126.07 47.0783H126.04Z" fill="#EDF0F4"/>
<path d="M123.28 59.6584V59.7384C123.265 59.8665 123.212 59.9872 123.129 60.0852C123.045 60.1832 122.934 60.2541 122.809 60.2888C122.685 60.3234 122.553 60.3204 122.431 60.2799C122.308 60.2395 122.201 60.1636 122.122 60.0618C122.042 59.9599 121.995 59.8369 121.986 59.7082C121.977 59.5795 122.007 59.4511 122.071 59.3392C122.135 59.2273 122.231 59.1371 122.347 59.08C122.462 59.0228 122.592 59.0014 122.72 59.0184C122.875 59.04 123.017 59.1165 123.119 59.2341C123.222 59.3516 123.279 59.5022 123.28 59.6584V59.6584Z" fill="#EDF0F4"/>
<path d="M127.09 97.0483C127.169 97.0144 127.254 96.9968 127.34 96.9966C127.427 96.9964 127.512 97.0136 127.591 97.0473C127.671 97.0809 127.742 97.1302 127.802 97.1922C127.862 97.2543 127.909 97.3278 127.94 97.4083C127.954 97.4877 127.954 97.5689 127.94 97.6483C127.937 97.78 127.896 97.9081 127.822 98.0166C127.747 98.1251 127.642 98.2092 127.52 98.2583C127.359 98.3204 127.181 98.3163 127.023 98.2469C126.866 98.1776 126.742 98.0486 126.68 97.8883C126.648 97.8065 126.634 97.719 126.638 97.6315C126.642 97.5439 126.664 97.4581 126.702 97.3794C126.741 97.3006 126.795 97.2306 126.862 97.1737C126.928 97.1167 127.006 97.0741 127.09 97.0483V97.0483Z" fill="#EDF0F4"/>
<path d="M129.68 102.948C129.757 102.909 129.841 102.885 129.927 102.878C130.012 102.872 130.099 102.882 130.181 102.909C130.263 102.936 130.338 102.979 130.404 103.036C130.469 103.092 130.522 103.161 130.56 103.238C130.6 103.33 130.62 103.429 130.62 103.528C130.62 103.644 130.59 103.758 130.531 103.858C130.473 103.958 130.389 104.041 130.288 104.097C130.186 104.154 130.072 104.182 129.956 104.18C129.84 104.177 129.727 104.144 129.629 104.083C129.53 104.022 129.45 103.936 129.396 103.834C129.341 103.731 129.316 103.616 129.321 103.501C129.326 103.385 129.362 103.273 129.425 103.176C129.488 103.078 129.576 103 129.68 102.948V102.948Z" fill="#EDF0F4"/>
<path d="M124.241 85.2283C124.245 85.2748 124.245 85.3218 124.241 85.3683C124.223 85.539 124.14 85.6963 124.009 85.8078C123.879 85.9192 123.711 85.9764 123.539 85.9674C123.368 85.9584 123.206 85.884 123.088 85.7595C122.97 85.635 122.904 85.4699 122.904 85.2983C122.904 85.1267 122.97 84.9616 123.088 84.8371C123.206 84.7126 123.368 84.6382 123.539 84.6292C123.711 84.6202 123.879 84.6774 124.009 84.7888C124.14 84.9003 124.223 85.0576 124.241 85.2283Z" fill="#EDF0F4"/>
<path d="M125.83 91.3683C125.839 91.428 125.839 91.4887 125.83 91.5483C125.806 91.7134 125.72 91.8632 125.59 91.9677C125.46 92.0722 125.295 92.1237 125.129 92.1116C124.963 92.0996 124.807 92.025 124.693 91.9029C124.58 91.7807 124.517 91.6201 124.517 91.4533C124.517 91.2865 124.58 91.1259 124.693 91.0038C124.807 90.8817 124.963 90.8071 125.129 90.7951C125.295 90.783 125.46 90.8344 125.59 90.9389C125.72 91.0434 125.806 91.1933 125.83 91.3583V91.3683Z" fill="#EDF0F4"/>
<path d="M128.28 85.6283C128.375 85.6045 128.474 85.5999 128.571 85.6147C128.668 85.6296 128.761 85.6636 128.845 85.7148C128.929 85.766 129.002 85.8333 129.059 85.9129C129.117 85.9924 129.158 86.0827 129.18 86.1783V86.1783C129.185 86.2382 129.185 86.2984 129.18 86.3583C129.182 86.5228 129.127 86.683 129.025 86.8121C128.923 86.9413 128.78 87.0317 128.62 87.0683C128.438 87.0933 128.254 87.0503 128.103 86.9474C127.951 86.8445 127.843 86.689 127.8 86.5112C127.756 86.3333 127.78 86.1456 127.867 85.9843C127.954 85.8231 128.097 85.6998 128.27 85.6383L128.28 85.6283Z" fill="#EDF0F4"/>
<path d="M129.94 91.7283C130.038 91.6878 130.144 91.6687 130.25 91.6725C130.355 91.6762 130.459 91.7027 130.554 91.7501C130.649 91.7975 130.733 91.8648 130.799 91.9473C130.866 92.0298 130.914 92.1256 130.94 92.2283C130.954 92.3044 130.954 92.3822 130.94 92.4583C130.94 92.6335 130.878 92.803 130.765 92.9366C130.652 93.0703 130.495 93.1595 130.322 93.1882C130.149 93.217 129.972 93.1836 129.821 93.0939C129.671 93.0042 129.557 92.864 129.5 92.6983C129.465 92.6058 129.448 92.5072 129.451 92.4082C129.454 92.3092 129.477 92.2118 129.518 92.1216C129.559 92.0315 129.617 91.9503 129.69 91.8828C129.762 91.8153 129.847 91.7628 129.94 91.7283Z" fill="#EDF0F4"/>
<path d="M127.07 60.4384C127.249 60.4625 127.414 60.5507 127.533 60.6867C127.653 60.8227 127.719 60.9973 127.72 61.1784C127.72 61.1784 127.72 61.1784 127.72 61.2684C127.695 61.4615 127.595 61.6369 127.441 61.7567C127.288 61.8765 127.093 61.931 126.9 61.9084C126.803 61.8965 126.71 61.8658 126.625 61.818C126.541 61.7701 126.466 61.706 126.406 61.6294C126.346 61.5528 126.302 61.4652 126.276 61.3715C126.25 61.2778 126.243 61.1799 126.255 61.0834C126.267 60.9868 126.297 60.8936 126.345 60.8089C126.393 60.7243 126.457 60.6499 126.534 60.59C126.61 60.5301 126.698 60.4859 126.792 60.4599C126.885 60.4338 126.983 60.4265 127.08 60.4384H127.07Z" fill="#EDF0F4"/>
<path d="M130.31 48.7883C130.32 48.858 130.32 48.9286 130.31 48.9983C130.284 49.1862 130.187 49.3571 130.039 49.4765C129.892 49.5958 129.704 49.6548 129.515 49.6415C129.326 49.6281 129.148 49.5435 129.019 49.4047C128.889 49.2659 128.817 49.0831 128.817 48.8933C128.817 48.7035 128.889 48.5208 129.019 48.3819C129.148 48.2431 129.326 48.1585 129.515 48.1452C129.704 48.1318 129.892 48.1908 130.039 48.3102C130.187 48.4295 130.284 48.6004 130.31 48.7883V48.7883Z" fill="#EDF0F4"/>
<path d="M128.74 54.9183C128.745 54.9715 128.745 55.0251 128.74 55.0783C128.72 55.2612 128.63 55.4293 128.49 55.5481C128.349 55.6669 128.169 55.7274 127.985 55.7172C127.801 55.707 127.628 55.6268 127.502 55.4931C127.375 55.3594 127.305 55.1823 127.305 54.9983C127.305 54.8143 127.375 54.6373 127.502 54.5036C127.628 54.3699 127.801 54.2897 127.985 54.2794C128.169 54.2692 128.349 54.3297 128.49 54.4485C128.63 54.5673 128.72 54.7354 128.74 54.9183Z" fill="#EDF0F4"/>
<path d="M127.94 80.0183C127.946 80.0548 127.946 80.0919 127.94 80.1283C127.939 80.2696 127.897 80.4075 127.819 80.5257C127.742 80.6439 127.632 80.7375 127.503 80.7953C127.374 80.8531 127.231 80.8728 127.092 80.8521C126.952 80.8313 126.821 80.771 126.714 80.6782C126.608 80.5854 126.53 80.4641 126.49 80.3285C126.45 80.1929 126.45 80.0488 126.49 79.9131C126.529 79.7774 126.607 79.6559 126.713 79.5629C126.82 79.4699 126.951 79.4093 127.09 79.3883C127.286 79.3623 127.484 79.4135 127.643 79.5311C127.802 79.6487 127.908 79.8235 127.94 80.0183V80.0183Z" fill="#EDF0F4"/>
<path d="M127.251 67.4883C127.245 67.634 127.196 67.7748 127.11 67.8929C127.024 68.0109 126.906 68.101 126.769 68.1518C126.632 68.2025 126.483 68.2117 126.341 68.1782C126.199 68.1447 126.07 68.07 125.971 67.9634C125.871 67.8569 125.805 67.7232 125.781 67.5793C125.757 67.4354 125.776 67.2876 125.836 67.1545C125.896 67.0215 125.994 66.9091 126.117 66.8314C126.241 66.7538 126.385 66.7145 126.531 66.7183C126.632 66.7192 126.732 66.7411 126.824 66.7827C126.916 66.8243 126.999 66.8847 127.067 66.9599C127.134 67.0351 127.186 67.1236 127.217 67.2197C127.249 67.3159 127.26 67.4175 127.251 67.5183V67.4883Z" fill="#EDF0F4"/>
<path d="M127.34 73.7883C127.342 73.9353 127.3 74.0796 127.22 74.2032C127.141 74.3268 127.027 74.4243 126.892 74.4836C126.758 74.5429 126.609 74.5613 126.464 74.5366C126.319 74.5119 126.184 74.4451 126.077 74.3446C125.97 74.2441 125.894 74.1143 125.86 73.9713C125.826 73.8283 125.835 73.6784 125.885 73.5403C125.936 73.4022 126.025 73.2819 126.144 73.1945C126.262 73.107 126.403 73.0562 126.55 73.0483C126.651 73.0415 126.753 73.0555 126.848 73.0896C126.944 73.1237 127.032 73.1771 127.106 73.2466C127.18 73.316 127.239 73.3999 127.279 73.4931C127.319 73.5863 127.34 73.6868 127.34 73.7883V73.7883Z" fill="#EDF0F4"/>
<path d="M0.620178 78.3883H70.8102L105.91 17.5983H35.7202L0.620178 78.3883Z" stroke="#012340" stroke-linejoin="round"/>
<path d="M0.620178 78.3883H70.8102L105.91 139.178H35.7202L0.620178 78.3883Z" stroke="#012340" stroke-linejoin="round"/>
<path d="M91.5903 42.3983H50.0303L29.2604 78.3883L50.0303 114.368H91.5903L112.36 78.3883L91.5903 42.3983Z" fill="#FC7F4F"/>
<path d="M105.91 17.5983H35.72L0.619995 78.3883L35.72 139.178H105.91L141 78.3883L105.91 17.5983Z" stroke="#012340" stroke-linejoin="round"/>
<path d="M35.7205 17.5983L70.8105 78.3883L35.7205 139.178L0.620544 78.3883L35.7205 17.5983Z" stroke="#012340" stroke-linejoin="round"/>
<path d="M70.81 78.3883H141L105.91 139.178H35.72L70.81 78.3883Z" stroke="#012340" stroke-linecap="round" stroke-linejoin="round"/>
</svg>
