<svg width="105" height="84" viewBox="0 0 105 84" fill="none" xmlns="http://www.w3.org/2000/svg">
<g clip-path="url(#clip0_2022_4046)">
<path d="M10.9921 0H94.0079C100.079 0 105 3.87008 105 8.64407V59.2322C105 64.0062 100.079 67.8763 94.0079 67.8763H10.9921C4.92131 67.8763 0 64.0062 0 59.2322V8.64407C0 3.87008 4.92131 0 10.9921 0Z" fill="#54666F"/>
<path d="M7.41638 6.05084H97.5771V52.4492H7.41638V6.05084Z" fill="#97A79F"/>
<path d="M40.3603 67.8763H64.6333V79.7848H40.3603V67.8763Z" fill="#54666F"/>
<path d="M30.6484 79.7848H74.3451V84.0051H30.6484V79.7848Z" fill="#54666F"/>
<path d="M32.9503 78.3763H72.0497V79.7848H32.9503V78.3763Z" fill="#FABB8E"/>
<path d="M48.5396 58.1797C48.5396 58.7964 48.7722 59.3992 49.2081 59.9119C49.6439 60.4246 50.2633 60.8241 50.9879 61.0598C51.7125 61.2956 52.5098 61.357 53.2789 61.2363C54.0479 61.1157 54.7541 60.8183 55.3082 60.3819C55.8623 59.9455 56.2392 59.3896 56.3915 58.7846C56.5437 58.1797 56.4642 57.5528 56.1633 56.9833C55.8623 56.4139 55.3532 55.9274 54.7006 55.5855C54.0479 55.2437 53.281 55.0617 52.4968 55.0627C51.9766 55.0627 51.4615 55.1434 50.9809 55.3001C50.5004 55.4568 50.0639 55.6865 49.6963 55.976C49.3288 56.2655 49.0375 56.6091 48.839 56.9872C48.6405 57.3654 48.5388 57.7706 48.5396 58.1797Z" fill="#F5F5F5"/>
<path d="M69.7737 13.8661H85.6669C87.4881 13.8661 88.9645 15.0271 88.9645 16.4593V21.9254C88.9645 23.3576 87.4881 24.5186 85.6669 24.5186H69.7737C67.9525 24.5186 66.4761 23.3576 66.4761 21.9254V16.4593C66.4761 15.0271 67.9525 13.8661 69.7737 13.8661Z" fill="#F5F5F5"/>
<path d="M69.7737 27.9356H85.6669C87.4881 27.9356 88.9645 29.0966 88.9645 30.5288V42.422C88.9645 43.8542 87.4881 45.0153 85.6669 45.0153H69.7737C67.9525 45.0153 66.4761 43.8542 66.4761 42.422V30.5288C66.4761 29.0966 67.9525 27.9356 69.7737 27.9356Z" fill="#F5F5F5"/>
<path d="M19.6887 13.8661H55.7685C57.5897 13.8661 59.0661 15.0271 59.0661 16.4593V20.9186C59.0661 22.3508 57.5897 23.5119 55.7685 23.5119H19.6887C17.8675 23.5119 16.3911 22.3508 16.3911 20.9186V16.4593C16.3911 15.0271 17.8675 13.8661 19.6887 13.8661Z" fill="#F5F5F5"/>
<path d="M16.3911 27.9356H59.0661V31.1491H16.3911V27.9356Z" fill="#F5F5F5"/>
<path d="M16.3911 34.8661H59.0661V38.0797H16.3911V34.8661Z" fill="#F5F5F5"/>
<g opacity="0.15">
<path opacity="0.15" d="M82.6861 67.6271H64.6333V78.1271H72.0238V79.5356H74.3451V83.7509H30.642V79.5356H32.9438V78.1271H40.3408V67.6271H10.9726C8.05737 67.6271 5.2615 66.7164 3.20009 65.0953C1.13867 63.4743 -0.0194153 61.2756 -0.0194153 58.9831V8.39492C-0.0190282 6.41176 0.848488 4.48902 2.43763 2.94916L82.6861 67.6271Z" fill="#F5F5F5"/>
</g>
<path d="M42.1513 21.7068L40.3344 54.0305L29.3488 48.5237L21.4992 58.2051L8.77424 51.8187L16.6239 42.1424L5.64474 36.6305L42.1513 21.7068Z" fill="#F27060"/>
</g>
<defs>
<clipPath id="clip0_2022_4046">
<rect width="105" height="84" fill="white" transform="matrix(-1 0 0 1 105 0)"/>
</clipPath>
</defs>
</svg>
