<svg width="27" height="39" viewBox="0 0 27 39" fill="none" xmlns="http://www.w3.org/2000/svg">
<path d="M0.123779 9.71672H1.39219V37.2559C1.3938 37.718 1.57807 38.1607 1.90479 38.4874C2.23152 38.8141 2.6742 38.9984 3.13626 39H23.126C23.5885 39 24.0321 38.8163 24.3592 38.4892C24.6863 38.1621 24.87 37.7185 24.87 37.2559V9.71672H26.1385V7.38723H0.123779V9.71672ZM4.74617 36.6034C4.75285 36.6796 4.7439 36.7563 4.71986 36.8289C4.69582 36.9014 4.6572 36.9683 4.60637 37.0254C4.55555 37.0825 4.49359 37.1287 4.4243 37.161C4.35501 37.1933 4.27985 37.2111 4.20344 37.2133H3.93512C3.8587 37.2111 3.78354 37.1933 3.71425 37.161C3.64496 37.1287 3.583 37.0825 3.53218 37.0254C3.48136 36.9683 3.44274 36.9014 3.4187 36.8289C3.39466 36.7563 3.3857 36.6796 3.39238 36.6034V11.1986C3.38994 11.1249 3.40205 11.0514 3.42801 10.9824C3.45397 10.9134 3.49327 10.8502 3.54368 10.7964C3.59408 10.7426 3.6546 10.6993 3.72177 10.6689C3.78893 10.6385 3.86143 10.6216 3.93512 10.6192H4.20344C4.27712 10.6216 4.34962 10.6385 4.41679 10.6689C4.48396 10.6993 4.54447 10.7426 4.59488 10.7964C4.64528 10.8502 4.68459 10.9134 4.71055 10.9824C4.73651 11.0514 4.74861 11.1249 4.74617 11.1986V36.6034ZM7.79524 36.6034C7.80281 36.6793 7.79468 36.7559 7.77135 36.8284C7.74802 36.901 7.71 36.9679 7.65965 37.0251C7.6093 37.0824 7.54771 37.1286 7.47871 37.1609C7.40971 37.1933 7.33479 37.2111 7.25861 37.2133H6.97809C6.90191 37.2111 6.82699 37.1933 6.75799 37.1609C6.68899 37.1286 6.6274 37.0824 6.57705 37.0251C6.5267 36.9679 6.48868 36.901 6.46535 36.8284C6.44202 36.7559 6.43389 36.6793 6.44146 36.6034V11.1986C6.43389 11.1227 6.44202 11.0462 6.46535 10.9736C6.48868 10.901 6.5267 10.8341 6.57705 10.7769C6.6274 10.7196 6.68899 10.6734 6.75799 10.6411C6.82699 10.6087 6.90191 10.5909 6.97809 10.5888H7.25251C7.32593 10.5911 7.39815 10.608 7.46499 10.6385C7.53183 10.669 7.59195 10.7124 7.64187 10.7663C7.69179 10.8202 7.73051 10.8834 7.75579 10.9524C7.78108 11.0214 7.79241 11.0947 7.78914 11.1681L7.79524 36.6034ZM10.8443 36.6034C10.851 36.6796 10.842 36.7563 10.818 36.8289C10.794 36.9014 10.7553 36.9683 10.7045 37.0254C10.6537 37.0825 10.5917 37.1287 10.5224 37.161C10.4532 37.1933 10.378 37.2111 10.3016 37.2133H10.0272C9.95075 37.2111 9.87559 37.1933 9.8063 37.161C9.73701 37.1287 9.67505 37.0825 9.62423 37.0254C9.5734 36.9683 9.53478 36.9014 9.51074 36.8289C9.48671 36.7563 9.47775 36.6796 9.48443 36.6034V11.1986C9.47775 11.1224 9.48671 11.0457 9.51074 10.9731C9.53478 10.9006 9.5734 10.8337 9.62423 10.7766C9.67505 10.7195 9.73701 10.6733 9.8063 10.641C9.87559 10.6087 9.95075 10.591 10.0272 10.5888H10.2955C10.3692 10.5911 10.4417 10.608 10.5088 10.6384C10.576 10.6688 10.6365 10.7121 10.6869 10.7659C10.7373 10.8197 10.7766 10.8829 10.8026 10.9519C10.8286 11.0209 10.8407 11.0944 10.8382 11.1681L10.8443 36.6034ZM13.8934 36.6034C13.9001 36.6796 13.8911 36.7563 13.8671 36.8289C13.843 36.9014 13.8044 36.9683 13.7536 37.0254C13.7028 37.0825 13.6408 37.1287 13.5715 37.161C13.5022 37.1933 13.4271 37.2111 13.3507 37.2133H13.0823C13.0059 37.2111 12.9308 37.1933 12.8615 37.161C12.7922 37.1287 12.7302 37.0825 12.6794 37.0254C12.6286 36.9683 12.59 36.9014 12.5659 36.8289C12.5419 36.7563 12.5329 36.6796 12.5396 36.6034V11.1986C12.5372 11.1249 12.5493 11.0514 12.5752 10.9824C12.6012 10.9134 12.6405 10.8502 12.6909 10.7964C12.7413 10.7426 12.8018 10.6993 12.869 10.6689C12.9361 10.6385 13.0086 10.6216 13.0823 10.6192H13.3507C13.4243 10.6216 13.4968 10.6385 13.564 10.6689C13.6312 10.6993 13.6917 10.7426 13.7421 10.7964C13.7925 10.8502 13.8318 10.9134 13.8578 10.9824C13.8837 11.0514 13.8958 11.1249 13.8934 11.1986V36.6034ZM16.9425 36.6034C16.95 36.6793 16.9419 36.7559 16.9186 36.8284C16.8952 36.901 16.8572 36.9679 16.8069 37.0251C16.7565 37.0824 16.6949 37.1286 16.6259 37.1609C16.5569 37.1933 16.482 37.2111 16.4058 37.2133H16.1314C16.055 37.2111 15.9798 37.1933 15.9105 37.161C15.8412 37.1287 15.7793 37.0825 15.7285 37.0254C15.6776 36.9683 15.639 36.9014 15.615 36.8289C15.5909 36.7563 15.582 36.6796 15.5887 36.6034V11.1986C15.5862 11.1249 15.5983 11.0514 15.6243 10.9824C15.6503 10.9134 15.6896 10.8502 15.74 10.7964C15.7904 10.7426 15.8509 10.6993 15.9181 10.6689C15.9852 10.6385 16.0577 10.6216 16.1314 10.6192H16.4058C16.4792 10.6216 16.5515 10.6385 16.6183 10.669C16.6851 10.6994 16.7453 10.7429 16.7952 10.7968C16.8451 10.8507 16.8838 10.9139 16.9091 10.9829C16.9344 11.0519 16.9457 11.1252 16.9425 11.1986V36.6034ZM19.9915 36.6034C19.9982 36.6796 19.9893 36.7563 19.9652 36.8289C19.9412 36.9014 19.9026 36.9683 19.8517 37.0254C19.8009 37.0825 19.7389 37.1287 19.6697 37.161C19.6004 37.1933 19.5252 37.2111 19.4488 37.2133H19.1805C19.1041 37.2111 19.0289 37.1933 18.9596 37.161C18.8903 37.1287 18.8284 37.0825 18.7775 37.0254C18.7267 36.9683 18.6881 36.9014 18.6641 36.8289C18.64 36.7563 18.6311 36.6796 18.6377 36.6034V11.1986C18.6353 11.1249 18.6474 11.0514 18.6734 10.9824C18.6993 10.9134 18.7386 10.8502 18.789 10.7964C18.8394 10.7426 18.9 10.6993 18.9671 10.6689C19.0343 10.6385 19.1068 10.6216 19.1805 10.6192H19.4488C19.5225 10.6216 19.595 10.6385 19.6621 10.6689C19.7293 10.6993 19.7898 10.7426 19.8402 10.7964C19.8906 10.8502 19.9299 10.9134 19.9559 10.9824C19.9819 11.0514 19.994 11.1249 19.9915 11.1986V36.6034ZM23.0406 36.6034C23.0473 36.6796 23.0383 36.7563 23.0143 36.8289C22.9902 36.9014 22.9516 36.9683 22.9008 37.0254C22.85 37.0825 22.788 37.1287 22.7187 37.161C22.6494 37.1933 22.5743 37.2111 22.4979 37.2133H22.2295C22.1531 37.2111 22.078 37.1933 22.0087 37.161C21.9394 37.1287 21.8774 37.0825 21.8266 37.0254C21.7758 36.9683 21.7372 36.9014 21.7131 36.8289C21.6891 36.7563 21.6801 36.6796 21.6868 36.6034V11.1986C21.6844 11.1249 21.6965 11.0514 21.7224 10.9824C21.7484 10.9134 21.7877 10.8502 21.8381 10.7964C21.8885 10.7426 21.949 10.6993 22.0162 10.6689C22.0834 10.6385 22.1559 10.6216 22.2295 10.6192H22.4979C22.5716 10.6216 22.6441 10.6385 22.7112 10.6689C22.7784 10.6993 22.8389 10.7426 22.8893 10.7964C22.9397 10.8502 22.979 10.9134 23.005 10.9824C23.0309 11.0514 23.043 11.1249 23.0406 11.1986V36.6034Z" fill="black"/>
<path d="M0.263988 7.22259L26.1933 5.10044L26.0043 2.75265L18.1376 3.40516L18.0767 2.39896C18.0176 1.7082 17.6875 1.06892 17.1584 0.620947C16.6292 0.172974 15.9443 -0.0472325 15.2532 0.00848986L10.2771 0.423164C9.93019 0.448489 9.59175 0.542597 9.28153 0.700005C8.97131 0.857413 8.6955 1.07497 8.47019 1.34002C8.24487 1.60506 8.07455 1.91229 7.96913 2.2438C7.86372 2.57532 7.82532 2.9245 7.85618 3.271L7.94155 4.27109L0.0688477 4.9053L0.263988 7.22259ZM9.59415 3.10025C9.57883 2.87052 9.65372 2.64387 9.8029 2.4685C9.95209 2.29312 10.1638 2.18285 10.393 2.16113L15.3691 1.74646C15.5995 1.72792 15.8279 1.80166 16.004 1.95146C16.1801 2.10127 16.2895 2.31487 16.3082 2.54532L16.3936 3.54541L9.68562 4.10644L9.59415 3.10025Z" fill="black"/>
</svg>
